<?xml version="1.0" encoding="UTF-8"?>
<svg version="1.1" xmlns="http://www.w3.org/2000/svg" width="512" height="512">
<path d="M0 0 C1.55523289 1.01729929 3.10503143 2.04297048 4.6484375 3.078125 C13.86255013 9.16274114 19.66439557 11.20639413 30.6943512 9.3347168 C41.31965798 7.79221447 52.12207179 7.83761695 62.8359375 7.83203125 C64.32785063 7.82880148 65.81976348 7.82543627 67.31167603 7.82194519 C70.42279796 7.81600635 73.53389235 7.81409961 76.64501953 7.81469727 C79.78049538 7.81477813 82.91582389 7.80789103 86.05126953 7.79418945 C102.92365844 7.72144681 119.60919664 7.85874314 136.41650391 9.5690918 C144.25056902 10.46845411 144.25056902 10.46845411 151.4140625 7.68359375 C152.24284912 7.17417236 153.07163574 6.66475098 153.92553711 6.13989258 C155.26177124 5.29720825 155.26177124 5.29720825 156.625 4.4375 C183.38616941 -11.86502071 210.92808971 -25.8905285 241 -35 C242.67835938 -35.54140625 242.67835938 -35.54140625 244.390625 -36.09375 C256.56276207 -39.53508718 274.13739716 -40.74143109 285.8515625 -35.3203125 C295.90102633 -29.14446018 301.92022463 -20.69444054 304.8684082 -9.27661133 C310.17407206 14.77396586 302.62578489 40.87027843 294.875 63.5625 C294.60075195 64.3757373 294.32650391 65.18897461 294.04394531 66.02685547 C292.28866439 71.00461779 290.21190046 75.64868195 287.7890625 80.33984375 C281.14722135 92.29393351 281.14722135 92.29393351 281.0546875 105.36328125 C282.8534279 109.65120452 285.20966784 113.58466607 287.62548828 117.54931641 C289.93356648 121.66450095 291.37258976 126.02091977 292.8125 130.5 C293.09617432 131.37382324 293.37984863 132.24764648 293.67211914 133.14794922 C300.30606954 154.28033854 302.98265589 176.88338675 302 199 C301.9383667 200.39968018 301.9383667 200.39968018 301.87548828 201.82763672 C299.47295449 250.65357099 289.59350538 296.50951236 253 331 C250.69447711 333.01499618 248.31726678 334.90374755 245.875 336.75 C245.20919922 337.25370117 244.54339844 337.75740234 243.85742188 338.27636719 C235.19919871 344.5986821 225.60447534 349.29862613 216 354 C216.51949219 355.20011719 217.03898437 356.40023438 217.57421875 357.63671875 C229.49675391 385.87083848 235.91699844 417.87438543 224.3125 447.3125 C219.95842562 456.82695883 213.96047185 464.49644724 205 470 C204.35933594 470.4125 203.71867187 470.825 203.05859375 471.25 C194.88955585 475.71429395 185.02910988 475.1204485 176.1953125 473.15234375 C166.62842399 470.16901171 157.80706391 465.72081928 149 461 C148.32694824 460.64341309 147.65389648 460.28682617 146.96044922 459.91943359 C131.66633323 451.78071422 115.86797637 443.00044322 101.90673828 432.72290039 C99.25507695 430.80031877 99.25507695 430.80031877 96.85400391 431.06567383 C96.19319824 431.33919678 95.53239258 431.61271973 94.8515625 431.89453125 C94.0771582 432.20729004 93.30275391 432.52004883 92.50488281 432.84228516 C87.75011942 435.03985709 83.05657026 437.33818612 78.375 439.6875 C52.87090887 452.19552162 26.34943496 463.24807209 -1 471 C-2.86591797 471.56267578 -2.86591797 471.56267578 -4.76953125 472.13671875 C-15.5597394 475.07708373 -28.28890908 476.32460241 -38.625 471.4375 C-53.67608635 462.51064879 -59.93240171 449.89762749 -64.75 433.4375 C-70.87450603 406.89797389 -63.12208173 376.69064375 -51 353 C-51.66 352.91621094 -52.32 352.83242188 -53 352.74609375 C-65.23211472 349.7039923 -76.55968352 341.06926604 -86 333 C-86.51401367 332.56429688 -87.02802734 332.12859375 -87.55761719 331.6796875 C-123.02447612 301.2985585 -133.41906866 258.13001775 -137.21826172 213.43212891 C-137.60550615 208.29112525 -137.84452314 203.15276211 -138 198 C-138.04125 196.87464844 -138.0825 195.74929687 -138.125 194.58984375 C-138.53910065 172.8754411 -135.51000393 151.14794241 -128.8125 130.5 C-128.53075928 129.62351807 -128.24901855 128.74703613 -127.95874023 127.84399414 C-126.41178651 123.29879487 -124.66124221 119.2491125 -122.16015625 115.14453125 C-117.02629985 106.6775723 -117.02629985 106.6775723 -116.52294922 97.07666016 C-118.76228784 90.26066641 -122.0959882 83.95820291 -125.31933594 77.56689453 C-128.2181798 71.41464166 -130.33473386 65.02178086 -132.4375 58.5625 C-132.75164856 57.60947998 -132.75164856 57.60947998 -133.07214355 56.63720703 C-141.02402649 32.42032043 -147.67832248 4.05126515 -136.8125 -20.25 C-132.28703991 -28.65249604 -126.03498632 -33.99399891 -117 -37 C-79.29128902 -47.71920224 -30.56848845 -18.53830912 0 0 Z " fill="#B0B8C5" transform="translate(174,38)"/>
<path d="M0 0 C1.55523289 1.01729929 3.10503143 2.04297048 4.6484375 3.078125 C13.86255013 9.16274114 19.66439557 11.20639413 30.6943512 9.3347168 C41.31965798 7.79221447 52.12207179 7.83761695 62.8359375 7.83203125 C64.32785063 7.82880148 65.81976348 7.82543627 67.31167603 7.82194519 C70.42279796 7.81600635 73.53389235 7.81409961 76.64501953 7.81469727 C79.78049538 7.81477813 82.91582389 7.80789103 86.05126953 7.79418945 C102.92365844 7.72144681 119.60919664 7.85874314 136.41650391 9.5690918 C144.25056902 10.46845411 144.25056902 10.46845411 151.4140625 7.68359375 C152.24284912 7.17417236 153.07163574 6.66475098 153.92553711 6.13989258 C155.26177124 5.29720825 155.26177124 5.29720825 156.625 4.4375 C183.38616941 -11.86502071 210.92808971 -25.8905285 241 -35 C242.67835938 -35.54140625 242.67835938 -35.54140625 244.390625 -36.09375 C256.56276207 -39.53508718 274.13739716 -40.74143109 285.8515625 -35.3203125 C295.90102633 -29.14446018 301.92022463 -20.69444054 304.8684082 -9.27661133 C310.17407206 14.77396586 302.62578489 40.87027843 294.875 63.5625 C294.60075195 64.3757373 294.32650391 65.18897461 294.04394531 66.02685547 C292.28866439 71.00461779 290.21190046 75.64868195 287.7890625 80.33984375 C281.14722135 92.29393351 281.14722135 92.29393351 281.0546875 105.36328125 C282.8534279 109.65120452 285.20966784 113.58466607 287.62548828 117.54931641 C289.93356648 121.66450095 291.37258976 126.02091977 292.8125 130.5 C293.09617432 131.37382324 293.37984863 132.24764648 293.67211914 133.14794922 C300.30606954 154.28033854 302.98265589 176.88338675 302 199 C301.9383667 200.39968018 301.9383667 200.39968018 301.87548828 201.82763672 C299.47295449 250.65357099 289.59350538 296.50951236 253 331 C250.69447711 333.01499618 248.31726678 334.90374755 245.875 336.75 C245.20919922 337.25370117 244.54339844 337.75740234 243.85742188 338.27636719 C235.19919871 344.5986821 225.60447534 349.29862613 216 354 C216.51949219 355.20011719 217.03898437 356.40023438 217.57421875 357.63671875 C229.49675391 385.87083848 235.91699844 417.87438543 224.3125 447.3125 C219.95842562 456.82695883 213.96047185 464.49644724 205 470 C204.35933594 470.4125 203.71867187 470.825 203.05859375 471.25 C194.88955585 475.71429395 185.02910988 475.1204485 176.1953125 473.15234375 C166.62842399 470.16901171 157.80706391 465.72081928 149 461 C148.32694824 460.64341309 147.65389648 460.28682617 146.96044922 459.91943359 C131.66633323 451.78071422 115.86797637 443.00044322 101.90673828 432.72290039 C99.25507695 430.80031877 99.25507695 430.80031877 96.85400391 431.06567383 C96.19319824 431.33919678 95.53239258 431.61271973 94.8515625 431.89453125 C94.0771582 432.20729004 93.30275391 432.52004883 92.50488281 432.84228516 C87.75011942 435.03985709 83.05657026 437.33818612 78.375 439.6875 C52.87090887 452.19552162 26.34943496 463.24807209 -1 471 C-2.86591797 471.56267578 -2.86591797 471.56267578 -4.76953125 472.13671875 C-15.5597394 475.07708373 -28.28890908 476.32460241 -38.625 471.4375 C-53.67608635 462.51064879 -59.93240171 449.89762749 -64.75 433.4375 C-70.87450603 406.89797389 -63.12208173 376.69064375 -51 353 C-51.66 352.91621094 -52.32 352.83242188 -53 352.74609375 C-65.23211472 349.7039923 -76.55968352 341.06926604 -86 333 C-86.51401367 332.56429688 -87.02802734 332.12859375 -87.55761719 331.6796875 C-123.02447612 301.2985585 -133.41906866 258.13001775 -137.21826172 213.43212891 C-137.60550615 208.29112525 -137.84452314 203.15276211 -138 198 C-138.04125 196.87464844 -138.0825 195.74929687 -138.125 194.58984375 C-138.53910065 172.8754411 -135.51000393 151.14794241 -128.8125 130.5 C-128.53075928 129.62351807 -128.24901855 128.74703613 -127.95874023 127.84399414 C-126.41178651 123.29879487 -124.66124221 119.2491125 -122.16015625 115.14453125 C-117.02629985 106.6775723 -117.02629985 106.6775723 -116.52294922 97.07666016 C-118.76228784 90.26066641 -122.0959882 83.95820291 -125.31933594 77.56689453 C-128.2181798 71.41464166 -130.33473386 65.02178086 -132.4375 58.5625 C-132.75164856 57.60947998 -132.75164856 57.60947998 -133.07214355 56.63720703 C-141.02402649 32.42032043 -147.67832248 4.05126515 -136.8125 -20.25 C-132.28703991 -28.65249604 -126.03498632 -33.99399891 -117 -37 C-79.29128902 -47.71920224 -30.56848845 -18.53830912 0 0 Z M-103.0625 1.1875 C-106.67629384 6.43332977 -106.5660675 10.72542084 -106 17 C-104.57140093 22.96746241 -102.41021466 27.6152988 -98.5625 32.375 C-96.53438728 35.22750767 -95.94099497 36.39540049 -96.28515625 39.921875 C-96.85835721 42.10803678 -97.4667922 44.28518705 -98.10546875 46.453125 C-99.9350811 53.70765783 -100.82148074 62.70571009 -97 69.4375 C-96.34 70.283125 -95.68 71.12875 -95 72 C-93.87411986 71.04270084 -92.7493285 70.08412105 -91.625 69.125 C-90.99851562 68.59132813 -90.37203125 68.05765625 -89.7265625 67.5078125 C-88.44163349 66.38567993 -87.20628025 65.20628025 -86 64 C-79.94759825 63.44978166 -79.94759825 63.44978166 -77.0625 65.125 C-75.36737734 68.11639292 -75.35592811 69.58641899 -76 73 C-77.40740132 75.01057332 -79.01553509 76.72173475 -80.69140625 78.515625 C-101.81912376 101.25205196 -114.20034236 128.67913099 -120 159 C-120.18473877 159.94480225 -120.36947754 160.88960449 -120.55981445 161.86303711 C-122.24190693 171.42499906 -122.43901031 180.88224991 -122.4375 190.5625 C-122.43889984 191.42539642 -122.44029968 192.28829285 -122.44174194 193.17733765 C-122.40917197 217.87529256 -119.8332708 243.45957064 -112 267 C-111.77731445 267.68852051 -111.55462891 268.37704102 -111.32519531 269.08642578 C-106.64437814 283.31703425 -99.85007051 295.64322655 -90 307 C-89.00419922 308.21236328 -89.00419922 308.21236328 -87.98828125 309.44921875 C-64.45346087 337.16027343 -30.87742921 345.85937685 3.6875 350.75 C5.01285767 350.94154663 5.01285767 350.94154663 6.36499023 351.13696289 C16.82958134 352.84077213 16.82958134 352.84077213 26.84765625 350.609375 C27.57855469 349.99578125 28.30945313 349.3821875 29.0625 348.75 C42.73704202 338.20167521 59.51265216 336.26888471 76.3046875 338.27539062 C81.98992763 339.12817664 87.65056571 340.15001358 93.06640625 342.109375 C99.98552188 344.13575656 107.86443753 342.9879944 114.97851562 342.74609375 C125.82682013 342.55408836 135.25827651 344.29078741 143.98828125 351.046875 C149.28517453 353.55647104 156.20848605 351.63962541 161.80078125 350.6796875 C162.63602829 350.53854523 163.47127533 350.39740295 164.33183289 350.25198364 C166.09815272 349.95080401 167.86392009 349.64636828 169.62915039 349.33886719 C172.26423095 348.88334421 174.90222116 348.44903345 177.54101562 348.015625 C211.25547265 342.29250529 240.5943336 326.92200196 260.765625 298.77636719 C273.30500717 280.73116452 279.10062942 259.70079869 282.625 238.25 C282.94984375 236.36667969 282.94984375 236.36667969 283.28125 234.4453125 C285.71163188 219.83301651 286.26466473 205.21997172 286.3125 190.4375 C286.31511841 189.65307526 286.31773682 188.86865051 286.32043457 188.06045532 C286.32508307 174.98805547 285.15962906 162.72032805 282 150 C281.70621711 148.68145932 281.41442657 147.36247251 281.125 146.04296875 C274.90180299 119.95554915 261.59541645 96.64239154 243.15234375 77.328125 C240.63659329 74.60691398 240.06317551 73.74231226 239.75 70.0625 C240 67 240 67 241.0625 65.125 C244.36647487 63.20656298 246.23626265 63.32129326 250 64 C252.98708038 66.39697534 255.50728453 69.09938564 258 72 C261.44533587 68.86787648 262.86218758 66.47298212 263.30078125 61.78515625 C263.30464844 60.55667969 263.30851562 59.32820313 263.3125 58.0625 C263.31817993 57.0710498 263.31817993 57.0710498 263.32397461 56.05957031 C263.26316499 51.48186569 262.4316569 47.64710004 261.0625 43.25 C260.04684992 39.43078127 259.68826379 37.73029792 261.25390625 34.0625 C262.49930222 32.19050606 263.79435145 30.35059961 265.13671875 28.546875 C269.99444258 21.90696737 271.10362514 14.06398825 270 6 C267.2553339 0.07152123 262.42542515 -3.39696853 256.62109375 -6.11328125 C248.34019165 -8.91471907 240.17159703 -6.99317218 232.359375 -3.67578125 C221.90836261 1.53757261 212.85900756 8.42905493 204 16 C203.27425781 16.56847656 202.54851562 17.13695313 201.80078125 17.72265625 C199.10912056 19.85742162 197.21643969 21.48294963 195.875 24.6875 C195.73247081 27.06369829 195.73247081 27.06369829 197.4375 28.3125 C199.37123196 30.40093051 199.26232201 31.27260366 199.3125 34.0625 C199 38 199 38 197 40 C191.09588711 40.47786217 187.18751556 39.63668774 181.6875 37.25 C180.36232506 36.69448666 179.03680228 36.13980237 177.7109375 35.5859375 C176.47359369 35.05814572 175.23658162 34.52957509 174 34 C146.80042087 22.47741172 115.25246045 22.8128367 86.25561523 22.81469727 C82.46912255 22.8125182 78.68292556 22.79431914 74.89648438 22.77539062 C41.25442415 22.69780044 8.31764915 25.08793254 -22.73828125 38.8984375 C-26.37837663 40.12778708 -29.18267339 40.32121407 -33 40 C-35.38460953 37.92308202 -35.8959746 36.59443084 -36.4375 33.5 C-35.86980535 30.25603056 -34.28130117 29.28130117 -32 27 C-32 23.17191055 -34.59305836 20.77539194 -37 18 C-39.1032851 16.0959402 -41.31506583 14.35513841 -43.5625 12.625 C-44.48796631 11.90654907 -44.48796631 11.90654907 -45.43212891 11.17358398 C-57.45039949 1.95750888 -71.44451396 -7.9009056 -87.22265625 -7.4140625 C-93.47300445 -6.48222437 -98.93979839 -3.62034973 -103.0625 1.1875 Z " fill="#678490" transform="translate(174,38)"/>
<path d="M0 0 C17.00142481 -0.42415197 30.52701547 4.15755038 45.6953125 11.15625 C46.34419434 11.45047852 46.99307617 11.74470703 47.66162109 12.04785156 C63.19684378 19.14895576 77.28543585 29.28563865 90.2578125 40.33984375 C93.83834435 43.34579701 95.8882848 45.01306767 100.5703125 45.84375 C103.70087897 45.40025682 103.70087897 45.40025682 105.6953125 43.53125 C107.06413252 40.28030245 106.64148247 38.53361007 105.6953125 35.15625 C103.4890247 32.93603461 103.4890247 32.93603461 100.7578125 31.03125 C95.48995678 26.63510792 94.40185862 23.18251272 93.78125 16.46484375 C93.75289062 15.70300781 93.72453125 14.94117188 93.6953125 14.15625 C100.0130208 12.13458334 106.39721104 11.15286949 112.9453125 10.15625 C120.88438458 8.93043429 128.79938185 7.63698313 136.6953125 6.15625 C148.83966345 29.21687146 155.93357848 55.13098413 149.6953125 81.15625 C146.63430049 90.82952625 142.11225651 99.76282753 133.2578125 105.21875 C126.50162402 108.51695687 120.56824209 107.5843651 113.67578125 105.30078125 C88.14388911 95.49626697 65.11129902 79.41698629 41.9753418 65.09124756 C16.33715726 49.21934627 -9.44912545 33.47142706 -38.3046875 24.15625 C-38.06153408 19.17160479 -36.5174417 16.44041505 -33.23046875 12.88671875 C-23.92721706 4.52700172 -12.26465889 0.57988931 0 0 Z " fill="#B0B8C5" transform="translate(237.3046875,389.84375)"/>
<path d="M0 0 C6.4687281 0.63811438 12.87462728 2.1698783 19.23803711 3.47290039 C28.46821932 5.36270251 37.63793048 6.92194351 47 8 C46.71021785 12.64586222 46.32153946 16.59685152 43.0390625 20.08203125 C40.74784171 21.82899195 38.42559188 23.44577791 36 25 C31.96749799 27.72114927 31.96749799 27.72114927 30 32 C29.8059715 34.96867248 29.8059715 34.96867248 31 37.375 C34.019026 39.82795862 36.19873589 39.36542978 40 39 C43.12101911 37.07873857 45.81192273 34.87547296 48.64453125 32.5546875 C54.12226757 30.01669093 58.62153045 31.89138566 64.1472168 33.70458984 C66.27741876 34.48761337 68.35475554 35.34840535 70.4375 36.25 C71.2224585 36.58499512 72.00741699 36.91999023 72.81616211 37.26513672 C87.88507278 43.86724918 104.70308718 51.28352968 118 61 C118 61.66 118 62.32 118 63 C26.10639305 106.71047781 26.10639305 106.71047781 5.4609375 100.19921875 C-3.6292924 95.6541038 -8.45652747 87.38017852 -12 78.16015625 C-20.16699206 52.35118526 -12.28300317 24.54327434 -1 1 C-0.67 0.67 -0.34 0.34 0 0 Z " fill="#B0B8C5" transform="translate(138,396)"/>
<path d="M0 0 C9.12119191 4.90970896 17.14886174 11.28538259 25 18 C26.18643493 18.95965159 27.3737239 19.91825008 28.5625 20.875 C31 23 31 23 33 26 C32.76029402 28.5568638 32.42200844 29.64551291 30.4375 31.3125 C28.18650033 33.95497787 28.91134993 36.65056912 29 40 C27.47632813 40.81791016 27.47632813 40.81791016 25.921875 41.65234375 C15.83649397 47.1447362 6.69334732 53.0893903 -2.04296875 60.6015625 C-3.01878906 61.43429688 -3.99460938 62.26703125 -5 63.125 C-5.86625 63.89070313 -6.7325 64.65640625 -7.625 65.4453125 C-10 67 -10 67 -12.109375 66.77734375 C-12.73328125 66.52082031 -13.3571875 66.26429687 -14 66 C-17.3290959 65.24817347 -17.3290959 65.24817347 -21 66 C-23.99007667 68.39310865 -26.507447 71.0995747 -29 74 C-32.44533587 70.86787648 -33.86218758 68.47298212 -34.30078125 63.78515625 C-34.30464844 62.55667969 -34.30851562 61.32820313 -34.3125 60.0625 C-34.31701172 59.40008301 -34.32152344 58.73766602 -34.32617188 58.05517578 C-34.26943153 53.488669 -33.42139422 49.74565412 -32 45.375 C-30.87153466 41.19091848 -30.75027803 39.57042434 -32.51171875 35.546875 C-33.87784818 33.26892466 -35.36206781 31.21392568 -36.94921875 29.0703125 C-41.24447929 22.63969386 -41.87912839 15.53538622 -41 8 C-38.44230237 2.10617502 -33.44380553 -0.92219466 -28 -4 C-18.30100068 -7.23299977 -8.93558406 -4.13970363 0 0 Z " fill="#FEFEFE" transform="translate(109,36)"/>
<path d="M0 0 C4.82552375 2.72308495 8.05917298 5.86834597 10.5625 10.875 C11.48948315 19.4913844 10.22448393 28.08173957 4.85546875 35.109375 C4.28441406 35.81578125 3.71335937 36.5221875 3.125 37.25 C1.09688728 40.10250767 0.50349497 41.27040049 0.84765625 44.796875 C1.42085721 46.98303678 2.0292922 49.16018705 2.66796875 51.328125 C4.4975811 58.58265783 5.38398074 67.58071009 1.5625 74.3125 C0.9025 75.158125 0.2425 76.00375 -0.4375 76.875 C-1.56338014 75.91770084 -2.6881715 74.95912105 -3.8125 74 C-4.43898438 73.46632813 -5.06546875 72.93265625 -5.7109375 72.3828125 C-6.99586651 71.26067993 -8.23121975 70.08128025 -9.4375 68.875 C-13.98675405 68.57927373 -13.98675405 68.57927373 -18.359375 69.625 C-20.4375 69.875 -20.4375 69.875 -22.7421875 68.35546875 C-24.01449219 67.22044922 -24.01449219 67.22044922 -25.3125 66.0625 C-29.53103484 62.44981857 -33.79178939 59.03951856 -38.3125 55.8125 C-38.89394775 55.39403809 -39.47539551 54.97557617 -40.07446289 54.54443359 C-43.03701423 52.44703046 -46.02262375 50.49717831 -49.18359375 48.7109375 C-49.78252441 48.36812744 -50.38145508 48.02531738 -50.99853516 47.67211914 C-52.64912726 46.74420752 -54.3182407 45.84946546 -55.98828125 44.95703125 C-59.27604943 42.16216612 -59.09535625 40.06264671 -59.4375 35.875 C-60.489375 34.823125 -60.489375 34.823125 -61.5625 33.75 C-62.18125 33.13125 -62.8 32.5125 -63.4375 31.875 C-63.27142431 28.7403213 -62.72058044 27.20840585 -60.6796875 24.8046875 C-20.90578573 -9.71853417 -20.90578573 -9.71853417 0 0 Z " fill="#FEFEFE" transform="translate(433.4375,33.125)"/>
<path d="M0 0 C5.82367452 4.92875206 8.52312645 11.2989814 9.28540039 18.81347656 C9.40288699 21.90213081 9.40931866 24.97191395 9.375 28.0625 C9.38660156 29.08021484 9.39820313 30.09792969 9.41015625 31.14648438 C9.35753805 45.23939214 5.94545237 58.30969374 1.40356445 71.53710938 C0.68666066 73.62744734 -0.01229456 75.72316138 -0.70898438 77.8203125 C-9.19343698 103.09671849 -9.19343698 103.09671849 -13 105 C-14.13243576 103.61019248 -15.25563119 102.21285323 -16.375 100.8125 C-17.31472656 99.64654297 -17.31472656 99.64654297 -18.2734375 98.45703125 C-20.06883782 95.90203849 -21.30507963 94.05301685 -22 91 C-21.04762377 88.97688865 -20.04225493 86.97830853 -19 85 C-18.11791993 77.45043234 -18.69669901 70.49150743 -20.9375 63.25 C-21.95315008 59.43078127 -22.31173621 57.73029792 -20.74609375 54.0625 C-19.50069778 52.19050606 -18.20564855 50.35059961 -16.86328125 48.546875 C-12.0098673 41.91285845 -10.88637712 34.05812509 -12 26 C-14.68163017 20.3273208 -18.73145039 17.50646962 -24.34765625 14.91796875 C-32.6180366 12.05561325 -40.82771536 14.00653583 -48.640625 17.32421875 C-59.09662744 22.54006183 -68.12544091 29.43964351 -77 37 C-78.1870945 37.91719173 -79.37451432 38.83396285 -80.5625 39.75 C-83.14226389 42.13132052 -83.836322 43.76100686 -85 47 C-89.29492499 45.55114183 -93.58532718 44.08932811 -97.875 42.625 C-99.70998047 42.00625 -99.70998047 42.00625 -101.58203125 41.375 C-102.74863281 40.97539063 -103.91523438 40.57578125 -105.1171875 40.1640625 C-106.19597168 39.79748535 -107.27475586 39.4309082 -108.38623047 39.05322266 C-111 38 -111 38 -113 36 C-104.16232257 30.40360098 -95.18612202 25.27830796 -85.875 20.5 C-84.93222198 20.01409393 -84.93222198 20.01409393 -83.97039795 19.51837158 C-21.95521618 -12.37475821 -21.95521618 -12.37475821 0 0 Z " fill="#B0B8C5" transform="translate(455,18)"/>
<path d="M0 0 C-2.73461806 1.82307871 -4.93684913 2.81072774 -8 3.91015625 C-8.969375 4.26013672 -9.93875 4.61011719 -10.9375 4.97070312 C-11.948125 5.33099609 -12.95875 5.69128906 -14 6.0625 C-15.010625 6.42666016 -16.02125 6.79082031 -17.0625 7.16601562 C-20.69922453 8.47417252 -24.33339863 9.77779954 -28 11 C-28.50660156 9.97777344 -29.01320313 8.95554688 -29.53515625 7.90234375 C-32.07330351 3.47699888 -35.45357463 0.67024534 -39.4375 -2.4375 C-40.1476123 -2.99953125 -40.85772461 -3.5615625 -41.58935547 -4.140625 C-53.51384502 -13.43451607 -67.58008535 -23.30586708 -83.39453125 -22.48828125 C-89.42970709 -21.3572513 -94.34194478 -18.73893597 -98.5625 -14.3125 C-101.69799992 -9.26843491 -101.52844507 -4.85755314 -101 1 C-99.57140093 6.96746241 -97.41021466 11.6152988 -93.5625 16.375 C-91.53438728 19.22750767 -90.94099497 20.39540049 -91.28515625 23.921875 C-91.8581279 26.10716221 -92.4679224 28.28304349 -93.109375 30.44921875 C-94.8304174 37.31074306 -95.72039943 45.7345025 -92.3515625 52.12890625 C-91 55 -91 55 -91.5859375 57.57421875 C-93.09868851 60.16929714 -94.73998462 62.47368462 -96.625 64.8125 C-97.25664063 65.60269531 -97.88828125 66.39289063 -98.5390625 67.20703125 C-99.02117187 67.79871094 -99.50328125 68.39039062 -100 69 C-102.88432981 66.53424596 -103.96778733 64.06747546 -105.3046875 60.546875 C-105.72089355 59.46035645 -106.13709961 58.37383789 -106.56591797 57.25439453 C-107.21391357 55.51971924 -107.21391357 55.51971924 -107.875 53.75 C-108.32117676 52.56647949 -108.76735352 51.38295898 -109.22705078 50.16357422 C-110.49571815 46.77968812 -111.75002338 43.3908264 -113 40 C-113.29261719 39.21850586 -113.58523437 38.43701172 -113.88671875 37.63183594 C-119.45986307 22.6595395 -122.33746039 7.77882239 -122.4375 -8.1875 C-122.4475708 -9.22632324 -122.4576416 -10.26514648 -122.46801758 -11.33544922 C-122.3674699 -20.15654727 -120.96518466 -27.9840071 -114.7109375 -34.55859375 C-88.60184755 -56.55460789 -22.26763782 -15.11196994 0 0 Z " fill="#B0B9C5" transform="translate(170,54)"/>
<path d="M0 0 C19.14 0 38.28 0 58 0 C56.68 0.33 55.36 0.66 54 1 C54.02094727 1.7935791 54.04189453 2.5871582 54.06347656 3.40478516 C54.63719027 28.571935 54.84784329 57.37035443 37.53125 77.7265625 C34.94180805 80.1920418 33.02528194 80.99593683 29.5 81.5625 C24.49076762 80.7574448 21.65825584 79.03043296 18.43359375 75.08203125 C14.65243804 69.72776314 12.1852241 64.15209488 10 58 C9.60167969 56.99259766 9.60167969 56.99259766 9.1953125 55.96484375 C2.58526214 38.28125543 3.65750758 19.5314743 4 1 C2.68 0.67 1.36 0.34 0 0 Z " fill="#91A2B4" transform="translate(227,61)"/>
<path d="M0 0 C0.61900224 21.69946749 -1.64698586 46.54057096 -16.47265625 63.625 C-19.24868732 66.12413795 -21.630215 66.9441834 -25.3125 67.5 C-30.4689586 66.80081917 -32.78879878 65.04426229 -36 61 C-46.15512743 44.06766121 -49.80643722 25.4689422 -51 6 C-42.91193786 3.79539443 -34.95177789 2.25885725 -26.625 1.3125 C-25.540979 1.18512451 -24.45695801 1.05774902 -23.34008789 0.92651367 C-15.52066785 0.05496136 -7.8701513 -0.38013253 0 0 Z " fill="#91A2B5" transform="translate(226,62)"/>
<path d="M0 0 C10.20518274 -0.56261344 19.90224955 0.35839043 30 1.875 C31.15669189 2.04870117 32.31338379 2.22240234 33.50512695 2.40136719 C39.430113 3.33027176 45.21243714 4.42544246 51 6 C50.57639111 9.77252548 50.13350212 13.54256168 49.6875 17.3125 C49.56955078 18.36501953 49.45160156 19.41753906 49.33007812 20.50195312 C48.4832862 27.55855247 47.08170243 34.20607383 45 41 C44.52626953 42.54880859 44.52626953 42.54880859 44.04296875 44.12890625 C40.85638132 53.1939472 37.00968848 62.49515576 28 67 C24.68888015 67.45446743 22.15041747 67.63993498 19.16015625 65.9765625 C6.64041665 56.05939459 3.07496507 36.55861952 0.390625 21.60546875 C-0.08274413 17.23627165 -0.10848627 12.9524201 -0.0625 8.5625 C-0.05798828 7.73556641 -0.05347656 6.90863281 -0.04882812 6.05664062 C-0.03715811 4.03772854 -0.01922718 2.01885426 0 0 Z " fill="#91A2B5" transform="translate(286,62)"/>
<path d="M0 0 C1.18271484 -0.00515625 2.36542969 -0.0103125 3.58398438 -0.015625 C4.81568359 -0.00015625 6.04738281 0.0153125 7.31640625 0.03125 C8.54423828 0.01578125 9.77207031 0.0003125 11.03710938 -0.015625 C12.22111328 -0.01046875 13.40511719 -0.0053125 14.625 0 C15.70450928 0.00451172 16.78401855 0.00902344 17.89624023 0.01367188 C21.57478171 0.65200436 23.26051917 1.91018472 25.87890625 4.53125 C26.50390625 7.46875 26.50390625 7.46875 25.87890625 10.53125 C23.75390625 13.40625 23.75390625 13.40625 20.87890625 15.53125 C17.56640625 15.84375 17.56640625 15.84375 14.87890625 15.53125 C14.87890625 17.51125 14.87890625 19.49125 14.87890625 21.53125 C15.71421875 21.75167969 15.71421875 21.75167969 16.56640625 21.9765625 C27.23465796 25.11216351 33.24796444 31.06037841 38.87890625 40.53125 C43.49210941 49.22591639 46.36451849 58.61169324 44.87890625 68.53125 C42.81640625 71.78125 42.81640625 71.78125 39.87890625 73.53125 C36.25390625 73.59375 36.25390625 73.59375 32.87890625 72.53125 C29.64052262 69.30050406 29.40837931 66.35545364 29.00390625 61.90625 C27.70487426 51.81779993 24.57496952 45.24984826 16.6484375 38.80859375 C12.36612828 35.7173904 8.00119231 35.97791663 2.87890625 36.53125 C-4.15382451 39.91237056 -8.63368651 45.6873084 -11.43359375 52.84375 C-12.70270786 56.59434332 -13.33511512 59.96008787 -13.55859375 63.90625 C-13.81991469 67.54732178 -14.11445053 68.52128517 -16.24609375 71.71875 C-19.12109375 73.53125 -19.12109375 73.53125 -22.74609375 73.59375 C-26.49806788 72.41257296 -27.18891738 71.82225663 -29.12109375 68.53125 C-31.14926969 57.58640865 -26.6907096 45.88763061 -20.8125 36.8125 C-15.81652407 30.07427842 -9.95636705 24.7457211 -2.12109375 21.53125 C-1.13109375 21.53125 -0.14109375 21.53125 0.87890625 21.53125 C0.87890625 19.55125 0.87890625 17.57125 0.87890625 15.53125 C-0.00796875 15.634375 -0.89484375 15.7375 -1.80859375 15.84375 C-5.12109375 15.53125 -5.12109375 15.53125 -7.99609375 13.40625 C-10.12109375 10.53125 -10.12109375 10.53125 -10.68359375 7.46875 C-9.50652691 1.32184539 -5.82585184 0.02437413 0 0 Z " fill="#688490" transform="translate(248.12109375,227.46875)"/>
<path d="M0 0 C15.51 0 31.02 0 47 0 C45.75581948 12.44180523 45.75581948 12.44180523 40 18 C32.95939497 23.34023249 26.80933207 24.86767703 18 24 C11.0943967 21.8644857 5.85147388 17.05231609 2 11 C0.34677847 6.910452 0 4.53235851 0 0 Z " fill="#615E5F" transform="translate(322,228)"/>
<path d="M0 0 C15.51 0 31.02 0 47 0 C45.73734406 10.10124756 43.55579725 14.16107982 36.0625 20.6875 C30.18872562 24.42535642 23.78244298 24.90432573 17 24 C10.5739791 21.75089268 5.71555962 17.66780282 2 12 C-0.02126262 7.49809688 0 5.17082859 0 0 Z " fill="#615E5F" transform="translate(143,228)"/>
<path d="M0 0 C0.91330078 -0.00478363 1.82660156 -0.00956726 2.76757812 -0.01449585 C4.69402799 -0.01789067 6.62053579 -0.00871744 8.546875 0.01220703 C11.49089348 0.03897969 14.4310997 0.01244628 17.375 -0.01953125 C19.25000839 -0.01622708 21.12501442 -0.00982068 23 0 C23.87720703 -0.01012115 24.75441406 -0.02024231 25.65820312 -0.03067017 C30.08081593 0.05388551 31.94736696 0.239442 35.55859375 3.01416016 C37.5 5.6640625 37.5 5.6640625 38.0625 8.7265625 C37.34067116 12.49611312 36.62563961 13.42504532 33.5 15.6640625 C30.21122963 16.26747042 26.96100761 16.22438037 23.625 16.1953125 C22.66352051 16.1991394 21.70204102 16.20296631 20.71142578 16.20690918 C18.6806534 16.20962852 16.64984601 16.20226579 14.61914062 16.18554688 C11.5109243 16.16413775 8.40501944 16.18534796 5.296875 16.2109375 C3.32291157 16.20829423 1.34894957 16.20316926 -0.625 16.1953125 C-1.55425293 16.20340942 -2.48350586 16.21150635 -3.44091797 16.21984863 C-9.85422506 16.12665619 -9.85422506 16.12665619 -13.08203125 13.81445312 C-15.05956924 10.81545957 -15.14737436 9.18865622 -14.5 5.6640625 C-10.32172975 -0.03902418 -6.5665537 -0.07576445 0 0 Z " fill="#91A2B5" transform="translate(375.5,272.3359375)"/>
<path d="M0 0 C0.91330078 -0.00478363 1.82660156 -0.00956726 2.76757812 -0.01449585 C4.69402799 -0.01789067 6.62053579 -0.00871744 8.546875 0.01220703 C11.49089348 0.03897969 14.4310997 0.01244628 17.375 -0.01953125 C19.25000839 -0.01622708 21.12501442 -0.00982068 23 0 C23.87720703 -0.01012115 24.75441406 -0.02024231 25.65820312 -0.03067017 C30.08081593 0.05388551 31.94736696 0.239442 35.55859375 3.01416016 C37.5 5.6640625 37.5 5.6640625 38.0625 8.7265625 C37.34067116 12.49611312 36.62563961 13.42504532 33.5 15.6640625 C30.21122963 16.26747042 26.96100761 16.22438037 23.625 16.1953125 C22.66352051 16.1991394 21.70204102 16.20296631 20.71142578 16.20690918 C18.6806534 16.20962852 16.64984601 16.20226579 14.61914062 16.18554688 C11.5109243 16.16413775 8.40501944 16.18534796 5.296875 16.2109375 C3.32291157 16.20829423 1.34894957 16.20316926 -0.625 16.1953125 C-1.55425293 16.20340942 -2.48350586 16.21150635 -3.44091797 16.21984863 C-9.85422506 16.12665619 -9.85422506 16.12665619 -13.08203125 13.81445312 C-15.05956924 10.81545957 -15.14737436 9.18865622 -14.5 5.6640625 C-10.32172975 -0.03902418 -6.5665537 -0.07576445 0 0 Z " fill="#91A2B5" transform="translate(113.5,272.3359375)"/>
<path d="M0 0 C5.70244486 1.18195589 11.0217509 3.2597992 16.4453125 5.33203125 C18.43493752 6.08934403 20.43113574 6.82701028 22.4284668 7.5637207 C23.70560339 8.04627149 24.98231196 8.52995694 26.25854492 9.01489258 C27.40798584 9.44842041 28.55742676 9.88194824 29.74169922 10.32861328 C32.8201956 11.81196384 34.63363904 13.10546391 36.74682617 15.77661133 C37.16895998 19.21398664 37.35539139 21.59751621 35.74682617 24.71411133 C31.52513005 26.95688739 26.58038117 25.99580123 22.14819336 24.83032227 C20.95871094 24.39494141 19.76922852 23.95956055 18.54370117 23.51098633 C17.8986261 23.27631653 17.25355103 23.04164673 16.58892822 22.79986572 C15.23884825 22.3050778 13.89108691 21.80391982 12.5456543 21.29663086 C10.49396858 20.52553735 8.43402585 19.78078077 6.37182617 19.03833008 C5.05354886 18.55158707 3.7358196 18.06335658 2.41870117 17.57348633 C1.23373047 17.13359375 0.04875977 16.69370117 -1.17211914 16.24047852 C-4.28824889 14.7599465 -6.09921774 13.45053268 -8.25317383 10.77661133 C-8.81567383 7.83911133 -8.81567383 7.83911133 -8.25317383 4.77661133 C-5.67911439 1.11052668 -4.58011885 -0.31450722 0 0 Z " fill="#91A2B5" transform="translate(369.253173828125,297.223388671875)"/>
<path d="M0 0 C2.5881216 2.25417042 2.94242643 3.60520979 3.4375 7 C2.88493389 10.78902476 1.91588488 11.575061 -1 14 C-4.08105469 15.46386719 -4.08105469 15.46386719 -7.671875 16.796875 C-8.31312317 17.0353717 -8.95437134 17.27386841 -9.61505127 17.51959229 C-10.96789441 18.01909791 -12.32283369 18.51295878 -13.6796875 19.00146484 C-15.7361804 19.74500343 -17.78197943 20.51366681 -19.828125 21.28515625 C-21.15047394 21.76978109 -22.47337481 22.25290309 -23.796875 22.734375 C-24.98635742 23.16975586 -26.17583984 23.60513672 -27.40136719 24.05371094 C-31.833555 25.2191899 -36.77830388 26.18027606 -41 23.9375 C-42.60856522 20.82090489 -42.42213381 18.43737531 -42 15 C-39.03824202 11.22558388 -35.44247791 9.63317378 -31.07421875 7.94921875 C-30.40840286 7.68615433 -29.74258698 7.4230899 -29.05659485 7.15205383 C-27.65255532 6.60140116 -26.2463415 6.05626404 -24.83813477 5.51635742 C-22.69702242 4.69116995 -20.56855446 3.83804663 -18.43945312 2.98242188 C-17.06838364 2.44878251 -15.6966581 1.91682509 -14.32421875 1.38671875 C-13.69480881 1.13162033 -13.06539886 0.87652191 -12.41691589 0.61369324 C-7.92481752 -1.06871564 -4.64703023 -1.10858767 0 0 Z " fill="#91A2B5" transform="translate(148,298)"/>
<path d="M0 0 C1.09699219 0.00386719 2.19398438 0.00773438 3.32421875 0.01171875 C4.46503906 0.03621094 5.60585937 0.06070313 6.78125 0.0859375 C7.92207031 0.08722656 9.06289062 0.08851563 10.23828125 0.08984375 C19.77498619 0.19070197 19.77498619 0.19070197 23.28125 2.4609375 C24.82711876 5.55267502 24.57484521 8.05523302 24.28125 11.4609375 C22.20921065 14.18890482 21.00126693 15.3170658 17.61157227 15.99438477 C14.35417918 16.03000632 11.10130913 16.05484902 7.84375 16.0234375 C6.14508789 16.05920898 6.14508789 16.05920898 4.41210938 16.09570312 C-4.84175089 16.07934391 -4.84175089 16.07934391 -7.96875 13.1171875 C-10.11441875 9.86036886 -10.45119668 8.28593682 -9.71875 4.4609375 C-6.74325697 0.63938606 -4.77820695 -0.03922868 0 0 Z " fill="#FDFDFE" transform="translate(183.71875,197.5390625)"/>
<path d="M0 0 C1.09248047 -0.00515625 2.18496094 -0.0103125 3.31054688 -0.015625 C4.44685547 -0.00015625 5.58316406 0.0153125 6.75390625 0.03125 C8.45256836 0.00804687 8.45256836 0.00804687 10.18554688 -0.015625 C18.41977139 0.02319279 18.41977139 0.02319279 22.5703125 2.375 C24.31640625 4.53125 24.31640625 4.53125 24.81640625 7.53125 C24.27339304 10.78932925 23.63514477 12.21251148 21.31640625 14.53125 C16.45365814 16.15216604 11.47151119 15.79905189 6.37890625 15.84375 C5.28126953 15.87275391 4.18363281 15.90175781 3.05273438 15.93164062 C1.99634766 15.94001953 0.93996094 15.94839844 -0.1484375 15.95703125 C-1.11386475 15.97161377 -2.07929199 15.98619629 -3.07397461 16.0012207 C-6.45139591 15.39297522 -7.61466669 14.22238373 -9.68359375 11.53125 C-10.18359375 8.03125 -10.18359375 8.03125 -9.68359375 4.53125 C-6.7573814 0.71545205 -4.73705076 0.02148844 0 0 Z " fill="#FDFDFE" transform="translate(313.68359375,197.46875)"/>
</svg>
