<?xml version="1.0" encoding="UTF-8"?>
<svg version="1.1" xmlns="http://www.w3.org/2000/svg" width="512" height="512">
<path d="M0 0 C1.7734375 1.3984375 1.7734375 1.3984375 3.375 2.9375 C3.92414063 3.44539063 4.47328125 3.95328125 5.0390625 4.4765625 C16.02850174 15.89908309 15.88804933 33.28955737 15.640625 48.16015625 C15.36357506 56.34867834 14.26412807 64.440218 13.12890625 72.546875 C13.00265869 73.45381104 12.87641113 74.36074707 12.74633789 75.29516602 C12.50090629 77.04158695 12.24762234 78.78692431 11.98608398 80.53100586 C11.22553457 85.51459775 11.22553457 85.51459775 13.3125 90 C13.993125 90.639375 14.67375 91.27875 15.375 91.9375 C18.25478859 91.41390207 20.95218391 90.75579395 23.75 89.875 C31.09043678 87.97661118 36.4884294 89.31404453 43.375 91.9375 C43.63023437 91.34195313 43.88546875 90.74640625 44.1484375 90.1328125 C46.81171667 85.3660517 52.01681357 82.06719774 57.1875 80.5 C64.53897339 79.09903159 72.10304035 80.0337941 78.6484375 83.68359375 C81.46732593 85.73079553 83.33109287 88.12712769 85.375 90.9375 C86.22771484 90.7209375 86.22771484 90.7209375 87.09765625 90.5 C96.48346914 88.24364431 103.61595951 88.59022954 112.375 92.9375 C118.42923244 97.14089895 121.47869811 102.90587125 123.375 109.9375 C123.375 111.2575 123.375 112.5775 123.375 113.9375 C124.550625 114.02 125.72625 114.1025 126.9375 114.1875 C134.64815534 115.20563231 138.97115638 119.17289282 143.89453125 124.83984375 C147.14974819 129.45211683 147.62930443 133.28164719 147.5625 138.875 C147.55605469 140.05964844 147.54960937 141.24429688 147.54296875 142.46484375 C147.38636318 145.70257287 146.9820184 148.75672361 146.375 151.9375 C147.096875 152.39125 147.81875 152.845 148.5625 153.3125 C153.43973747 157.86458831 155.96406121 162.77752244 156.828125 169.421875 C157.03668774 176.36403478 156.73099169 182.31813912 152.375 187.9375 C151.29146636 189.02103364 150.18716706 190.08422419 149.0625 191.125 C148.175625 192.053125 147.28875 192.98125 146.375 193.9375 C146.66448123 196.26654709 146.66448123 196.26654709 147.375 198.9375 C148.51398426 215.61148275 148.51398426 215.61148275 143.375 221.9375 C138.53925197 227.31904351 133.48534644 230.46494304 126.375 231.9375 C125.385 231.9375 124.395 231.9375 123.375 231.9375 C123.30023438 232.5665625 123.22546875 233.195625 123.1484375 233.84375 C121.98408967 241.42342609 119.50953138 246.79556878 113.30859375 251.5078125 C108.14620941 254.83531622 104.26817464 256.07681528 98.0625 256.0625 C96.95261719 256.06507813 95.84273438 256.06765625 94.69921875 256.0703125 C91.375 255.9375 91.375 255.9375 88.171875 255.2265625 C85.37674897 254.62693348 85.37674897 254.62693348 83.50390625 256.265625 C82.72853516 257.21695313 82.72853516 257.21695313 81.9375 258.1875 C77.66113746 262.82485419 74.3478139 264.65369915 68.1015625 265.25 C61.02105912 265.49155235 55.15020172 265.32159473 49.375 260.9375 C47.6892876 259.29009924 46.0186814 257.62683922 44.375 255.9375 C41.89716864 254.77601655 40.74139959 254.87015168 38.05859375 255.36328125 C33.83061751 257.84344781 32.5144771 261.74057511 30.4375 266.0625 C24.27938753 278.34235603 17.40386636 290.13975378 10.375 301.9375 C9.93430176 302.68193359 9.49360352 303.42636719 9.03955078 304.19335938 C3.05160076 314.29020586 3.05160076 314.29020586 0.30078125 316.921875 C-1.97813467 319.30710951 -2.72448863 321.33604231 -3.8125 324.4375 C-10.69123804 341.62389108 -24.6458242 352.71753183 -40.625 360.9375 C-41.94564453 361.64519531 -41.94564453 361.64519531 -43.29296875 362.3671875 C-68.87068351 375.13621719 -103.72984814 375.9271614 -130.69873047 367.27197266 C-141.62459775 363.53299216 -152.59752919 358.49508637 -161.4375 351 C-164.22614306 348.60339223 -164.22614306 348.60339223 -167.671875 347.74609375 C-168.66960937 347.84083984 -168.66960937 347.84083984 -169.6875 347.9375 C-175.51856243 347.9375 -177.59116077 344.92800659 -181.625 340.9375 C-183.85594393 338.61369976 -186.05578702 336.26132365 -188.2578125 333.91015625 C-190.11972741 331.94460571 -191.98393596 329.98127039 -193.84960938 328.01928711 C-195.11779555 326.67175784 -196.3740542 325.31290425 -197.61816406 323.94311523 C-204.82954443 315.38967226 -204.82954443 315.38967226 -214.67480469 311.06201172 C-218.11623902 311.05898 -221.25163313 311.28079284 -224.625 311.9375 C-224.76220459 312.71923584 -224.89940918 313.50097168 -225.04077148 314.30639648 C-226.18861718 319.47577928 -230.33152301 323.33846226 -234.5859375 326.3046875 C-241.77528703 330.19773448 -248.4447411 330.43713355 -256.28125 328.68359375 C-259.60060718 327.62693171 -261.90054728 326.08838372 -264.625 323.9375 C-265.429375 324.3396875 -265.429375 324.3396875 -266.25 324.75 C-267.03375 325.141875 -267.8175 325.53375 -268.625 325.9375 C-269.470625 326.453125 -270.31625 326.96875 -271.1875 327.5 C-278.46550059 330.54352752 -285.82284872 330.6695764 -293.265625 328.0859375 C-298.96294096 325.31274066 -304.02644619 320.78424607 -306.625 314.9375 C-306.625 313.9475 -306.625 312.9575 -306.625 311.9375 C-307.44742188 311.99550781 -308.26984375 312.05351562 -309.1171875 312.11328125 C-318.10962277 312.47671686 -324.52258025 311.29401517 -331.46875 305.36328125 C-336.47999197 300.09410771 -338.7441099 293.72513348 -338.875 286.5 C-338.625 282.9375 -338.625 282.9375 -337.625 280.9375 C-338.305625 280.875625 -338.98625 280.81375 -339.6875 280.75 C-346.42180199 278.88732073 -350.21902636 274.69468693 -353.6796875 268.8046875 C-356.65467785 262.92846689 -356.16448552 256.35453823 -355.625 249.9375 C-354.60991106 246.87377702 -353.34907087 244.70646231 -351.625 241.9375 C-351.295 240.9475 -350.965 239.9575 -350.625 238.9375 C-351.62991774 236.85666934 -351.62991774 236.85666934 -353.0625 234.625 C-356.73135284 227.62548467 -356.92674145 220.17872215 -355.03125 212.546875 C-352.56530987 206.74734913 -347.60670302 202.61643722 -342.625 198.9375 C-341.635 198.6075 -340.645 198.2775 -339.625 197.9375 C-339.59921875 197.17566406 -339.5734375 196.41382813 -339.546875 195.62890625 C-339.01125528 185.87819263 -337.48971207 179.26760753 -330.1875 172.5 C-324.87707696 167.92841843 -320.8127771 166.67108026 -313.8125 166.8125 C-312.65105469 166.83054688 -311.48960937 166.84859375 -310.29296875 166.8671875 C-309.41253906 166.89039063 -308.53210938 166.91359375 -307.625 166.9375 C-307.34914063 166.02226562 -307.07328125 165.10703125 -306.7890625 164.1640625 C-304.67492989 158.30408418 -301.03138882 154.41075245 -295.5 151.5625 C-288.06987868 148.13091786 -281.47283341 148.08679936 -273.8125 150.8125 C-270.7395152 151.98274809 -268.37808598 153.10210935 -265.625 154.9375 C-265.09390625 154.58816406 -264.5628125 154.23882812 -264.015625 153.87890625 C-263.30921875 153.42386719 -262.6028125 152.96882812 -261.875 152.5 C-261.17890625 152.04753906 -260.4828125 151.59507812 -259.765625 151.12890625 C-255.43044615 148.71607861 -251.53570583 148.84306335 -246.625 148.9375 C-249.23486221 144.20152579 -252.07734898 139.83502577 -255.3125 135.5 C-268.74549262 117.05839156 -281.12262591 95.40077416 -278.625 71.9375 C-276.84594877 65.53785738 -273.52796821 60.761202 -267.94921875 57.12109375 C-243.49026356 44.66552497 -207.86718646 56.49190016 -183.625 63.9375 C-182.06077345 64.54969779 -180.49693754 65.16289519 -178.93359375 65.77734375 C-174.05964658 67.432771 -170.41663264 66.4834259 -165.625 64.9375 C-164.93229004 64.7307666 -164.23958008 64.5240332 -163.52587891 64.31103516 C-162.09720811 63.87887968 -160.67172522 63.43607348 -159.24926758 62.98388672 C-139.55522479 56.73187567 -119.1791331 51.74664491 -98.60473633 49.61865234 C-91.42378234 48.70012286 -88.19271693 46.45566473 -83.625 40.9375 C-82.39164553 39.81477084 -81.14521621 38.70584911 -79.875 37.625 C-76.66029661 34.8607253 -73.54385845 32.01044181 -70.4375 29.125 C-54.74975287 14.89857726 -22.85972233 -13.15636027 0 0 Z " fill="#B0B8C5" transform="translate(355.625,71.0625)"/>
<path d="M0 0 C1.91028357 1.90562434 3.40459323 3.8063157 5 6 C5.56847656 5.855625 6.13695312 5.71125 6.72265625 5.5625 C16.10846914 3.30614431 23.24095951 3.65272954 32 8 C38.05423244 12.20339895 41.10369811 17.96837125 43 25 C43 26.32 43 27.64 43 29 C44.175625 29.0825 45.35125 29.165 46.5625 29.25 C54.27315534 30.26813231 58.59615638 34.23539282 63.51953125 39.90234375 C66.77474819 44.51461683 67.25430443 48.34414719 67.1875 53.9375 C67.17783203 55.71447266 67.17783203 55.71447266 67.16796875 57.52734375 C67.01136318 60.76507287 66.6070184 63.81922361 66 67 C66.721875 67.45375 67.44375 67.9075 68.1875 68.375 C73.06473747 72.92708831 75.58906121 77.84002244 76.453125 84.484375 C76.66168774 91.42653478 76.35599169 97.38063912 72 103 C70.91646636 104.08353364 69.81216706 105.14672419 68.6875 106.1875 C67.800625 107.115625 66.91375 108.04375 66 109 C66.28948123 111.32904709 66.28948123 111.32904709 67 114 C68.13898426 130.67398275 68.13898426 130.67398275 63 137 C58.16425197 142.38154351 53.11034644 145.52744304 46 147 C45.01 147 44.02 147 43 147 C42.92523438 147.6290625 42.85046875 148.258125 42.7734375 148.90625 C41.60908967 156.48592609 39.13453138 161.85806878 32.93359375 166.5703125 C27.77120941 169.89781622 23.89317464 171.13931528 17.6875 171.125 C16.02267578 171.12886719 16.02267578 171.12886719 14.32421875 171.1328125 C11 171 11 171 7.796875 170.2890625 C5.00174897 169.68943348 5.00174897 169.68943348 3.12890625 171.328125 C2.61199219 171.96234375 2.09507812 172.5965625 1.5625 173.25 C-2.71386254 177.88735419 -6.0271861 179.71619915 -12.2734375 180.3125 C-19.35394088 180.55405235 -25.22479828 180.38409473 -31 176 C-32.6857124 174.35259924 -34.3563186 172.68933922 -36 171 C-39.05133626 169.74356742 -39.76820321 169.9227344 -43 171 C-51.42378143 171.89751096 -58.03722403 170.99059072 -65 166 C-69.42335729 162.0033859 -72.8307778 157.97602456 -74 152 C-74.125 148.625 -74.125 148.625 -74 146 C-74.99 146.0825 -75.98 146.165 -77 146.25 C-82.61871512 146.20468778 -86.89644933 143.97339085 -90.95703125 140.1640625 C-97.43429838 133.04588683 -99.33519455 127.85447373 -99.30078125 118.21875 C-98.98881857 114.88034419 -98.18216041 112.12730882 -97 109 C-97.7425 108.46375 -98.485 107.9275 -99.25 107.375 C-104.81068893 102.57258683 -107.36385051 97.16630496 -108.2578125 89.90625 C-108.58492195 83.71297771 -107.14138634 78.35031506 -104 73 C-101.85591249 70.69062951 -99.58967987 68.78949789 -97 67 C-97.33 66.0925 -97.66 65.185 -98 64.25 C-100.3238541 55.85359285 -99.93387581 47.82406197 -95.62890625 40.1953125 C-91.41592838 34.51739028 -85.1983572 30.53305953 -78.25 29.375 C-77.1775 29.25125 -76.105 29.1275 -75 29 C-74.79375 27.700625 -74.5875 26.40125 -74.375 25.0625 C-72.90126134 18.43590207 -69.37594573 13.44016047 -64.6875 8.625 C-58.86871136 5.10666268 -52.82425857 3.26882944 -46 4 C-42.94046134 4.85451 -39.96780423 5.86940791 -37 7 C-36.61714844 6.10667969 -36.61714844 6.10667969 -36.2265625 5.1953125 C-33.56328333 0.4285517 -28.35818643 -2.87030226 -23.1875 -4.4375 C-15.18005591 -5.96347657 -6.66707018 -4.84192201 0 0 Z " fill="#FFFE9C" transform="translate(436,156)"/>
<path d="M0 0 C0.99 0.66 1.98 1.32 3 2 C3.53109375 1.65066406 4.0621875 1.30132812 4.609375 0.94140625 C5.31578125 0.48636719 6.0221875 0.03132812 6.75 -0.4375 C7.79414063 -1.11619141 7.79414063 -1.11619141 8.859375 -1.80859375 C14.55633715 -4.97934823 20.68967612 -4.49830827 26.875 -3 C32.73732548 -1.11152568 36.98050766 2.38889406 41 7 C41.433125 8.134375 41.86625 9.26875 42.3125 10.4375 C42.869375 11.283125 43.42625 12.12875 44 13 C46.93896517 13.48982753 49.81655135 13.57202309 52.79296875 13.68359375 C59.41251065 14.33667888 64.9306437 17.47344299 69.4375 22.3125 C74.14368471 28.47186922 75.51865733 34.34980437 75 42 C74.67 42.99 74.34 43.98 74 45 C74.99 45.165 75.98 45.33 77 45.5 C83.20285667 47.26504052 87.49002137 52.47875128 90.703125 57.84375 C93.28048858 64.1163698 93.35284368 71.65325927 90.8046875 77.95703125 C89.375 80.5625 89.375 80.5625 87.8984375 82.81640625 C86.72649906 85.02507262 86.72649906 85.02507262 87.71484375 87.51953125 C88.50310699 89.04095118 89.29837644 90.55879686 90.10546875 92.0703125 C93.79364145 99.07384622 93.46238726 104.99171675 91.2734375 112.48828125 C89.15322869 117.97316926 86.06765106 121.9453882 81 125 C79.01615976 125.71331786 77.01770406 126.38900511 75 127 C75.06960937 127.89460937 75.13921875 128.78921875 75.2109375 129.7109375 C75.60478928 138.50696063 74.65930864 144.13859477 69 151 C66.625 153.375 66.625 153.375 64 155 C63.44957031 155.36867188 62.89914063 155.73734375 62.33203125 156.1171875 C56.40722312 159.65985628 50.74518295 159.40471098 44 159 C43.89816406 159.74121094 43.79632813 160.48242188 43.69140625 161.24609375 C42.38000081 166.4694883 38.38806325 170.33501566 34.0390625 173.3671875 C26.84971297 177.26023448 20.1802589 177.49963355 12.34375 175.74609375 C9.02439282 174.68943171 6.72445272 173.15088372 4 171 C3.195625 171.4021875 3.195625 171.4021875 2.375 171.8125 C1.59125 172.204375 0.8075 172.59625 0 173 C-0.845625 173.515625 -1.69125 174.03125 -2.5625 174.5625 C-9.84050059 177.60602752 -17.19784872 177.7320764 -24.640625 175.1484375 C-30.33794096 172.37524066 -35.40144619 167.84674607 -38 162 C-38 161.01 -38 160.02 -38 159 C-39.23363281 159.08701172 -39.23363281 159.08701172 -40.4921875 159.17578125 C-49.48462277 159.53921686 -55.89758025 158.35651517 -62.84375 152.42578125 C-67.85499197 147.15660771 -70.1191099 140.78763348 -70.25 133.5625 C-70 130 -70 130 -69 128 C-69.680625 127.938125 -70.36125 127.87625 -71.0625 127.8125 C-77.79680199 125.94982073 -81.59402636 121.75718693 -85.0546875 115.8671875 C-88.02967785 109.99096689 -87.53948552 103.41703823 -87 97 C-85.98491106 93.93627702 -84.72407087 91.76896231 -83 89 C-82.67 88.01 -82.34 87.02 -82 86 C-83.00491774 83.91916934 -83.00491774 83.91916934 -84.4375 81.6875 C-88.10635284 74.68798467 -88.30174145 67.24122215 -86.40625 59.609375 C-83.94030987 53.80984913 -78.98170302 49.67893722 -74 46 C-72.515 45.505 -72.515 45.505 -71 45 C-70.97421875 44.23816406 -70.9484375 43.47632813 -70.921875 42.69140625 C-70.38625528 32.94069263 -68.86471207 26.33010753 -61.5625 19.5625 C-56.25207696 14.99091843 -52.1877771 13.73358026 -45.1875 13.875 C-43.44533203 13.90207031 -43.44533203 13.90207031 -41.66796875 13.9296875 C-40.78753906 13.95289063 -39.90710937 13.97609375 -39 14 C-38.72414062 13.08476562 -38.44828125 12.16953125 -38.1640625 11.2265625 C-36.04992989 5.36658418 -32.40638882 1.47325245 -26.875 -1.375 C-17.34432 -5.77671968 -9.3265446 -4.12838969 0 0 Z " fill="#FD7FA5" transform="translate(87,224)"/>
<path d="M0 0 C1.7734375 1.3984375 1.7734375 1.3984375 3.375 2.9375 C3.92414063 3.44539063 4.47328125 3.95328125 5.0390625 4.4765625 C16.02850174 15.89908309 15.88804933 33.28955737 15.640625 48.16015625 C15.36357506 56.34867834 14.26412807 64.440218 13.12890625 72.546875 C13.00338379 73.45421387 12.87786133 74.36155273 12.74853516 75.29638672 C12.50198189 77.03966338 12.24150808 78.78103498 11.96630859 80.52001953 C11.8523877 81.31520996 11.7384668 82.11040039 11.62109375 82.9296875 C11.51337646 83.62433105 11.40565918 84.31897461 11.29467773 85.03466797 C11.4444416 88.58256929 14.01972471 90.46446094 16.375 92.9375 C15.13544505 96.65616485 13.18945146 98.26033886 10.375 100.9375 C9.715 101.5975 9.055 102.2575 8.375 102.9375 C7.23224609 101.6690625 7.23224609 101.6690625 6.06640625 100.375 C-1.73266603 91.78054413 -9.68370309 83.91856343 -19.09375 77.06640625 C-20.625 75.9375 -20.625 75.9375 -21.625 74.9375 C-21.33769945 72.59805264 -21.00563221 70.2635857 -20.625 67.9375 C-14.20204304 66.57879757 -14.20204304 66.57879757 -11.3125 68.375 C-10.4771875 69.1484375 -10.4771875 69.1484375 -9.625 69.9375 C-8.965 69.9375 -8.305 69.9375 -7.625 69.9375 C-7.00131769 62.20383935 -8.78589967 57.59613631 -12.625 50.9375 C-13.625 48.9375 -13.625 48.9375 -13.06640625 47.16015625 C-12.63134766 46.09087891 -12.63134766 46.09087891 -12.1875 45 C-10.33412889 39.66401527 -9.64684124 34.53968197 -10.625 28.9375 C-12.8265974 26.04066132 -14.41094462 24.54452769 -17.625 22.9375 C-26.77878418 21.96805646 -33.12531827 24.93387641 -40.140625 30.5703125 C-43.26287292 33.54528458 -45.94991238 36.74798544 -48.625 40.125 C-49.34671387 41.03439331 -49.34671387 41.03439331 -50.08300781 41.9621582 C-53.23833312 46.06483713 -53.23833312 46.06483713 -54.625 50.9375 C-53.635 51.865625 -53.635 51.865625 -52.625 52.8125 C-51.635 53.864375 -51.635 53.864375 -50.625 54.9375 C-50.9375 60.25 -50.9375 60.25 -52.625 61.9375 C-54.37265452 62.03719841 -56.1245103 62.06718045 -57.875 62.0625 C-58.82890625 62.06507813 -59.7828125 62.06765625 -60.765625 62.0703125 C-63.625 61.9375 -63.625 61.9375 -66.00976562 61.43969727 C-88.17767509 57.18284609 -112.26624774 63.66107838 -133.625 68.9375 C-134.6665625 69.19080078 -135.708125 69.44410156 -136.78125 69.70507812 C-157.88395379 74.85962886 -178.14156719 81.06280193 -195.4765625 94.6875 C-198.07694527 96.20044998 -199.66188139 96.26893397 -202.625 95.9375 C-204.4375 94.75 -204.4375 94.75 -205.625 92.9375 C-206.09356135 89.18900923 -205.78002531 88.17003796 -203.625 84.9375 C-222.09951822 74.60698535 -222.09951822 74.60698535 -242.625 72.9375 C-246.94791135 75.09895567 -250.26436327 77.68835388 -252.625 81.9375 C-253.22241531 87.22310668 -251.87035016 91.07662466 -248.75 95.3125 C-247.23470477 97.16283539 -245.86383516 98.75529008 -243.9609375 100.20703125 C-241.81030192 102.99279605 -242.20687948 105.80082709 -242.125 109.25 C-241.99695149 114.61203118 -241.55701601 118.36659768 -238.625 122.9375 C-237.635 123.2675 -236.645 123.5975 -235.625 123.9375 C-235.191875 122.761875 -235.191875 122.761875 -234.75 121.5625 C-233.625 118.9375 -233.625 118.9375 -231.625 116.9375 C-225.04807692 117.51442308 -225.04807692 117.51442308 -223.625 118.9375 C-222.98821147 124.48426325 -224.79412414 127.86503283 -227.375 132.5625 C-230.85894868 139.1740146 -233.55188573 145.73615569 -235.625 152.9375 C-239.43818386 152.25773038 -243.04109254 151.42677694 -246.625 149.9375 C-248.25 147 -248.25 147 -248.78125 145.12890625 C-249.93869672 142.1227599 -251.76158074 139.96728683 -253.75 137.4375 C-268.02593636 118.81168351 -281.19533617 96.08383118 -278.625 71.9375 C-276.84594877 65.53785738 -273.52796821 60.761202 -267.94921875 57.12109375 C-243.49026356 44.66552497 -207.86718646 56.49190016 -183.625 63.9375 C-182.06077345 64.54969779 -180.49693754 65.16289519 -178.93359375 65.77734375 C-174.05964658 67.432771 -170.41663264 66.4834259 -165.625 64.9375 C-164.93229004 64.7307666 -164.23958008 64.5240332 -163.52587891 64.31103516 C-162.09720811 63.87887968 -160.67172522 63.43607348 -159.24926758 62.98388672 C-139.55522479 56.73187567 -119.1791331 51.74664491 -98.60473633 49.61865234 C-91.42378234 48.70012286 -88.19271693 46.45566473 -83.625 40.9375 C-82.39164553 39.81477084 -81.14521621 38.70584911 -79.875 37.625 C-76.66029661 34.8607253 -73.54385845 32.01044181 -70.4375 29.125 C-54.74975287 14.89857726 -22.85972233 -13.15636027 0 0 Z " fill="#678490" transform="translate(355.625,71.0625)"/>
<path d="M0 0 C1.91028357 1.90562434 3.40459323 3.8063157 5 6 C5.56847656 5.855625 6.13695312 5.71125 6.72265625 5.5625 C16.10846914 3.30614431 23.24095951 3.65272954 32 8 C38.05423244 12.20339895 41.10369811 17.96837125 43 25 C43 26.32 43 27.64 43 29 C44.175625 29.0825 45.35125 29.165 46.5625 29.25 C54.27315534 30.26813231 58.59615638 34.23539282 63.51953125 39.90234375 C66.77474819 44.51461683 67.25430443 48.34414719 67.1875 53.9375 C67.17783203 55.71447266 67.17783203 55.71447266 67.16796875 57.52734375 C67.01136318 60.76507287 66.6070184 63.81922361 66 67 C66.721875 67.45375 67.44375 67.9075 68.1875 68.375 C73.06473747 72.92708831 75.58906121 77.84002244 76.453125 84.484375 C76.66168774 91.42653478 76.35599169 97.38063912 72 103 C70.91646636 104.08353364 69.81216706 105.14672419 68.6875 106.1875 C67.800625 107.115625 66.91375 108.04375 66 109 C66.28948123 111.32904709 66.28948123 111.32904709 67 114 C68.13898426 130.67398275 68.13898426 130.67398275 63 137 C58.16425197 142.38154351 53.11034644 145.52744304 46 147 C45.01 147 44.02 147 43 147 C42.92523438 147.6290625 42.85046875 148.258125 42.7734375 148.90625 C41.60908967 156.48592609 39.13453138 161.85806878 32.93359375 166.5703125 C27.77120941 169.89781622 23.89317464 171.13931528 17.6875 171.125 C16.02267578 171.12886719 16.02267578 171.12886719 14.32421875 171.1328125 C11 171 11 171 7.796875 170.2890625 C5.00174897 169.68943348 5.00174897 169.68943348 3.12890625 171.328125 C2.61199219 171.96234375 2.09507812 172.5965625 1.5625 173.25 C-2.71386254 177.88735419 -6.0271861 179.71619915 -12.2734375 180.3125 C-19.35394088 180.55405235 -25.22479828 180.38409473 -31 176 C-32.6857124 174.35259924 -34.3563186 172.68933922 -36 171 C-39.05133626 169.74356742 -39.76820321 169.9227344 -43 171 C-51.42378143 171.89751096 -58.03722403 170.99059072 -65 166 C-69.42335729 162.0033859 -72.8307778 157.97602456 -74 152 C-74.125 148.625 -74.125 148.625 -74 146 C-74.99 146.0825 -75.98 146.165 -77 146.25 C-82.61871512 146.20468778 -86.89644933 143.97339085 -90.95703125 140.1640625 C-97.43429838 133.04588683 -99.33519455 127.85447373 -99.30078125 118.21875 C-98.98881857 114.88034419 -98.18216041 112.12730882 -97 109 C-97.7425 108.46375 -98.485 107.9275 -99.25 107.375 C-104.81068893 102.57258683 -107.36385051 97.16630496 -108.2578125 89.90625 C-108.58492195 83.71297771 -107.14138634 78.35031506 -104 73 C-101.85591249 70.69062951 -99.58967987 68.78949789 -97 67 C-97.33 66.0925 -97.66 65.185 -98 64.25 C-100.3238541 55.85359285 -99.93387581 47.82406197 -95.62890625 40.1953125 C-91.41592838 34.51739028 -85.1983572 30.53305953 -78.25 29.375 C-77.1775 29.25125 -76.105 29.1275 -75 29 C-74.79375 27.700625 -74.5875 26.40125 -74.375 25.0625 C-72.90126134 18.43590207 -69.37594573 13.44016047 -64.6875 8.625 C-58.86871136 5.10666268 -52.82425857 3.26882944 -46 4 C-42.94046134 4.85451 -39.96780423 5.86940791 -37 7 C-36.61714844 6.10667969 -36.61714844 6.10667969 -36.2265625 5.1953125 C-33.56328333 0.4285517 -28.35818643 -2.87030226 -23.1875 -4.4375 C-15.18005591 -5.96347657 -6.66707018 -4.84192201 0 0 Z M-28 13 C-29.10727832 15.08183492 -30.07273417 17.197338 -31.046875 19.34375 C-32 21 -32 21 -34.375 22.3125 C-38.27845607 21.84780285 -40.15516109 19.59746161 -43 17 C-47.70522555 15.43159148 -51.52648816 15.45104461 -56.1875 17.1875 C-59.33875318 19.2183076 -60.96518254 20.85015463 -63 24 C-63.40766156 27.51483799 -63.40766156 27.51483799 -63.125 31.1875 C-63.01572782 33.4560854 -62.95970594 35.7291419 -63 38 C-65.901204 40.901204 -68.20915371 40.23722933 -72.25 40.3125 C-78.45066553 40.48421233 -78.45066553 40.48421233 -83.8125 43.3125 C-87.69616186 48.083856 -88.44029614 50.72578002 -88 57 C-87.07151917 60.2496829 -86.05378086 61.93853616 -83.8125 64.5 C-82 67 -82 67 -82.12109375 69.50390625 C-83 72 -83 72 -84.890625 73.37109375 C-86.05851562 73.89896484 -86.05851562 73.89896484 -87.25 74.4375 C-91.80265162 76.77554437 -94.31985465 78.59072862 -97 83 C-97.85564356 87.14530228 -97.25510885 90.30180735 -95.8125 94.25 C-92.4671901 99.3256426 -88.78898118 101.38447037 -83 103 C-82.125 105.5 -82.125 105.5 -82 109 C-83.26953125 110.86328125 -83.26953125 110.86328125 -84.9375 112.8125 C-87.99808468 116.5437023 -88.81324769 119.08584509 -88.45703125 123.890625 C-87.5060878 128.27959478 -85.30709248 131.02483118 -81.76953125 133.6640625 C-78.37434102 135.30179883 -76.11695394 135.20645263 -72.375 135 C-66.55046949 134.68011732 -66.55046949 134.68011732 -64.09765625 136.10546875 C-62.47785655 138.90120845 -62.85993157 141.11928495 -63.0625 144.3125 C-63.15770602 148.59201038 -63.1453975 150.68766463 -61.3125 154.625 C-57.82175665 158.21008776 -55.60497291 159.82491205 -50.5625 160.375 C-45.83493377 159.87736145 -42.57458882 158.37776522 -39 155.25 C-37 154 -37 154 -34 153.75 C-31 155 -31 155 -29.90234375 156.94140625 C-29.25054822 158.54318718 -28.61814568 160.15297643 -28.00390625 161.76953125 C-26.33275813 165.48247123 -23.53776248 167.23111876 -20 169 C-14.77050726 169.40226867 -11.39315425 168.9287695 -7 166 C-4.0976493 162.26840624 -2.02868093 158.26022996 0 154 C5.32856909 154.41792699 8.05829108 155.39615184 12 159 C15.11888678 160.55944339 17.5454145 160.28316275 21 160 C25.81228291 158.18924324 28.82930529 155.68035677 31 151 C31.28722659 147.48310014 31.28722659 147.48310014 31.0625 143.8125 C30.96983773 141.54346237 30.93382866 139.26996463 31 137 C33 135 33 135 35.79296875 134.9453125 C37.47326172 135.03425781 37.47326172 135.03425781 39.1875 135.125 C45.19990075 135.20472244 48.34684456 134.84391101 53 131 C55.64828275 127.24114707 56.63684833 123.71727861 56.50390625 119.08203125 C55.68777436 115.70995144 53.61138138 113.48473647 51.3125 110.95703125 C49.6628035 108.49721593 49.75939474 106.90230097 50 104 C50.75925781 103.61328125 51.51851562 103.2265625 52.30078125 102.828125 C53.79158203 102.04695313 53.79158203 102.04695313 55.3125 101.25 C56.29863281 100.73953125 57.28476562 100.2290625 58.30078125 99.703125 C62.08128203 97.3177439 63.59716081 95.20851756 65 91 C65.53923825 85.28407456 64.63434458 82.44197671 61 78 C58.67236243 75.90512619 56.71331673 74.87633271 53.8125 73.625 C51 72 51 72 49.8125 69.75 C50.05863552 66.14001243 51.53677434 64.40990431 53.7734375 61.6484375 C56.47760211 58.01417805 56.36936949 54.35855994 56 50 C53.68638348 45.54414596 51.49640127 43.16790776 47 41 C44.33146704 40.63774319 41.85958571 40.40199569 39.1875 40.3125 C38.49462891 40.27833984 37.80175781 40.24417969 37.08789062 40.20898438 C35.39247151 40.12713656 33.69626542 40.06187635 32 40 C31.3656467 36.04490326 30.92662035 32.42829881 31.25 28.4375 C31.29017677 25.07413048 30.89841531 23.2267532 28.8125 20.5625 C24.51852248 16.65020937 21.0049888 15.44958034 15.1171875 15.52734375 C11.68761122 16.29298716 9.48812989 18.43523099 6.95703125 20.78515625 C5 22 5 22 2.4140625 21.94921875 C-0.65040967 20.74425639 -1.10037287 19.70833255 -2.4375 16.75 C-4.80814197 12.16236879 -6.49241373 9.63651272 -11 7 C-18.31298575 5.426013 -23.4064536 7.10988809 -28 13 Z " fill="#FECC6B" transform="translate(436,156)"/>
<path d="M0 0 C0.99 0.66 1.98 1.32 3 2 C3.53109375 1.65066406 4.0621875 1.30132812 4.609375 0.94140625 C5.31578125 0.48636719 6.0221875 0.03132812 6.75 -0.4375 C7.79414063 -1.11619141 7.79414063 -1.11619141 8.859375 -1.80859375 C14.55633715 -4.97934823 20.68967612 -4.49830827 26.875 -3 C32.73732548 -1.11152568 36.98050766 2.38889406 41 7 C41.433125 8.134375 41.86625 9.26875 42.3125 10.4375 C42.869375 11.283125 43.42625 12.12875 44 13 C46.93896517 13.48982753 49.81655135 13.57202309 52.79296875 13.68359375 C59.41251065 14.33667888 64.9306437 17.47344299 69.4375 22.3125 C74.14368471 28.47186922 75.51865733 34.34980437 75 42 C74.67 42.99 74.34 43.98 74 45 C74.99 45.165 75.98 45.33 77 45.5 C83.20285667 47.26504052 87.49002137 52.47875128 90.703125 57.84375 C93.28048858 64.1163698 93.35284368 71.65325927 90.8046875 77.95703125 C89.375 80.5625 89.375 80.5625 87.8984375 82.81640625 C86.72649906 85.02507262 86.72649906 85.02507262 87.71484375 87.51953125 C88.50310699 89.04095118 89.29837644 90.55879686 90.10546875 92.0703125 C93.79364145 99.07384622 93.46238726 104.99171675 91.2734375 112.48828125 C89.15322869 117.97316926 86.06765106 121.9453882 81 125 C79.01615976 125.71331786 77.01770406 126.38900511 75 127 C75.06960937 127.89460937 75.13921875 128.78921875 75.2109375 129.7109375 C75.60478928 138.50696063 74.65930864 144.13859477 69 151 C66.625 153.375 66.625 153.375 64 155 C63.44957031 155.36867188 62.89914063 155.73734375 62.33203125 156.1171875 C56.40722312 159.65985628 50.74518295 159.40471098 44 159 C43.89816406 159.74121094 43.79632813 160.48242188 43.69140625 161.24609375 C42.38000081 166.4694883 38.38806325 170.33501566 34.0390625 173.3671875 C26.84971297 177.26023448 20.1802589 177.49963355 12.34375 175.74609375 C9.02439282 174.68943171 6.72445272 173.15088372 4 171 C3.195625 171.4021875 3.195625 171.4021875 2.375 171.8125 C1.59125 172.204375 0.8075 172.59625 0 173 C-0.845625 173.515625 -1.69125 174.03125 -2.5625 174.5625 C-9.84050059 177.60602752 -17.19784872 177.7320764 -24.640625 175.1484375 C-30.33794096 172.37524066 -35.40144619 167.84674607 -38 162 C-38 161.01 -38 160.02 -38 159 C-39.23363281 159.08701172 -39.23363281 159.08701172 -40.4921875 159.17578125 C-49.48462277 159.53921686 -55.89758025 158.35651517 -62.84375 152.42578125 C-67.85499197 147.15660771 -70.1191099 140.78763348 -70.25 133.5625 C-70 130 -70 130 -69 128 C-69.680625 127.938125 -70.36125 127.87625 -71.0625 127.8125 C-77.79680199 125.94982073 -81.59402636 121.75718693 -85.0546875 115.8671875 C-88.02967785 109.99096689 -87.53948552 103.41703823 -87 97 C-85.98491106 93.93627702 -84.72407087 91.76896231 -83 89 C-82.67 88.01 -82.34 87.02 -82 86 C-83.00491774 83.91916934 -83.00491774 83.91916934 -84.4375 81.6875 C-88.10635284 74.68798467 -88.30174145 67.24122215 -86.40625 59.609375 C-83.94030987 53.80984913 -78.98170302 49.67893722 -74 46 C-72.515 45.505 -72.515 45.505 -71 45 C-70.97421875 44.23816406 -70.9484375 43.47632813 -70.921875 42.69140625 C-70.38625528 32.94069263 -68.86471207 26.33010753 -61.5625 19.5625 C-56.25207696 14.99091843 -52.1877771 13.73358026 -45.1875 13.875 C-43.44533203 13.90207031 -43.44533203 13.90207031 -41.66796875 13.9296875 C-40.78753906 13.95289063 -39.90710937 13.97609375 -39 14 C-38.72414062 13.08476562 -38.44828125 12.16953125 -38.1640625 11.2265625 C-36.04992989 5.36658418 -32.40638882 1.47325245 -26.875 -1.375 C-17.34432 -5.77671968 -9.3265446 -4.12838969 0 0 Z M-27 14 C-28.43450027 16.86900055 -28.37911083 19.73472913 -28.62109375 22.90625 C-29 25 -29 25 -31 27 C-34.20015208 27.28445796 -36.45049922 27.22543622 -39.4375 26 C-42.86270826 24.66333336 -45.34624606 24.61539432 -49 25 C-52.91245075 27.10670425 -55.68172967 29.21013199 -58 33 C-58.43549224 35.67915357 -58.43549224 35.67915357 -58.3125 38.5 C-58.30669922 39.90765625 -58.30669922 39.90765625 -58.30078125 41.34375 C-58.16330618 43.97153116 -58.16330618 43.97153116 -56.98046875 45.96875 C-55.66159171 48.70108491 -55.86402631 51.00857885 -56 54 C-56.79664062 54.08636719 -57.59328125 54.17273438 -58.4140625 54.26171875 C-65.15114866 55.15507932 -69.37872509 55.8922751 -74 61 C-76.3069082 64.04092444 -76.42472248 67.19997386 -76.3125 70.98046875 C-75.69902763 74.94503395 -73.537475 77.81501927 -70.3984375 80.234375 C-69.85445312 80.63140625 -69.31046875 81.0284375 -68.75 81.4375 C-66 84 -66 84 -65.625 87.8125 C-65.74875 88.864375 -65.8725 89.91625 -66 91 C-66.7425 91.226875 -67.485 91.45375 -68.25 91.6875 C-72.09146563 93.52092678 -74.11488412 96.22976824 -76 100 C-76.38691286 104.64295428 -76.47190735 107.0561853 -74.375 111.25 C-70.24419981 116.0330318 -66.89343704 118.1036781 -60.625 118.75 C-59.08432366 118.8499849 -57.54271267 118.93902321 -56 119 C-55.75 125.625 -55.75 125.625 -58 129 C-58.7556891 133.5341346 -58.47811031 137.75640898 -56.375 141.875 C-53.73138045 145.35344677 -52.12341806 146.62552731 -48 148 C-43.85228886 148.44439762 -41.62332091 148.31166046 -37.875 146.4375 C-34.53867336 144.76933668 -33.49235912 145.11221174 -30 146 C-29.84144531 146.80824219 -29.68289062 147.61648438 -29.51953125 148.44921875 C-27.68888529 156.83377953 -26.13789796 160.24140136 -19 165 C-13.39123471 165.45973486 -9.82714671 165.18152851 -5 162 C-1.92189799 158.96333442 -1.92189799 158.96333442 -1 155 C4.51612903 154.63225806 4.51612903 154.63225806 6.5625 156.1875 C7.036875 156.785625 7.51125 157.38375 8 158 C13.20873869 163.61535954 13.20873869 163.61535954 20.3125 165.375 C24.91805417 165.2551807 27.52037904 164.14822849 31 161 C33.24100812 157.59984974 34.12952025 154.73341369 34.5625 150.75 C35 147 35 147 37 145 C43.57692308 145.57692308 43.57692308 145.57692308 45 147 C50.64639246 147.54372668 55.4346267 147.73530542 60 144 C62.80488007 141.59581708 63.86896942 139.654642 64.16796875 135.87890625 C64.17763672 134.73228516 64.17763672 134.73228516 64.1875 133.5625 C64.20167969 132.80066406 64.21585938 132.03882813 64.23046875 131.25390625 C63.97464578 128.75204436 63.17552725 127.20011131 62 125 C61.75 122.375 61.75 122.375 62 120 C64.51729371 117.48270629 65.76715603 117.67886473 69.25 117.3125 C74.21320536 116.45160236 77.0568574 115.32833478 80.03125 111.1953125 C81.95326776 106.83977224 81.93995649 102.61623077 81 98 C79.27077298 94.64326519 76.85558942 92.55497692 73.6875 90.5 C72 89 72 89 71.25 86.25 C72.27210153 81.82089337 74.63015325 80.31549089 78.15234375 77.61328125 C80.51725293 75.54836055 80.90398563 73.79691929 81.2734375 70.73046875 C81.52326719 64.68564783 81.52326719 64.68564783 78.75 59.5 C74.91474261 56.01340237 71.81379985 54.80780524 66.75 53.875 C65.85796875 53.70742188 64.9659375 53.53984375 64.046875 53.3671875 C63.03367188 53.18542969 63.03367188 53.18542969 62 53 C61.74934726 47.48563969 61.74934726 47.48563969 63 45.0625 C65.08079933 40.77085139 64.21422025 36.74347027 62.9375 32.3125 C60.56497238 28.25624311 58.43936454 26.47097992 54 25 C49.47731915 24.33341085 46.02467543 24.85350644 42 27 C38.8125 27.1875 38.8125 27.1875 36 27 C34.32811639 25.32811639 34.55610772 23.03968578 34.25 20.75 C33.37748472 15.69203547 32.20798893 13.18165017 28 10 C23.73999095 7.15999396 20.00058053 7.36908563 15 8 C11.28245346 9.82497739 9.51523095 11.11380277 7.4375 14.6875 C6 17 6 17 3.5625 18.0625 C1 18 1 18 -1 16.375 C-1.66 15.59125 -2.32 14.8075 -3 14 C-6.97839662 9.82753526 -9.45486034 7.89683498 -15.25 7.5625 C-20.63892992 7.58891632 -23.55692061 10.0445576 -27 14 Z " fill="#FD518E" transform="translate(87,224)"/>
<path d="M0 0 C0.66 0.66 1.32 1.32 2 2 C1.625 5.625 1.625 5.625 1 9 C-0.32 9.33 -1.64 9.66 -3 10 C-2.505 14.455 -2.505 14.455 -2 19 C-1.1028125 18.7834375 -0.205625 18.566875 0.71875 18.34375 C11.73705354 15.88512028 26.81978872 12.53419014 37 19 C43.65095099 23.65566569 47.37402071 28.71556731 49.75 36.4375 C49.8325 37.283125 49.915 38.12875 50 39 C50.06316406 39.62132812 50.12632812 40.24265625 50.19140625 40.8828125 C50.8771986 53.22707476 44.85269158 63.0349178 37.19140625 72.15234375 C27.43305922 82.72219573 13.95623898 88.63195317 -0.3203125 89.23828125 C-16.28285007 89.60584513 -29.36129415 86.336751 -41.375 75.1875 C-48.20140728 67.8498031 -49.65436813 61.19128424 -49.3125 51.234375 C-48.57789914 43.63125605 -44.85979078 37.85393693 -39 33 C-31.26796877 28.18886212 -22.74242877 24.49783679 -14 22 C-14 19.03 -14 16.06 -14 13 C-14.94875 13.04125 -15.8975 13.0825 -16.875 13.125 C-20 13 -20 13 -22 11 C-22.375 8.0625 -22.375 8.0625 -22 5 C-16.34293898 -0.29869517 -7.38348903 -0.52739207 0 0 Z " fill="#688490" transform="translate(255,212)"/>
<path d="M0 0 C2.375 0.875 2.375 0.875 4.375 2.875 C4.62029581 5.45079385 4.74841793 7.92729007 4.7890625 10.5078125 C4.80842865 11.25964813 4.8277948 12.01148376 4.8477478 12.78610229 C4.90759147 15.19061899 4.95394726 17.59518344 5 20 C5.03817546 21.62892728 5.07722693 23.25783428 5.1171875 24.88671875 C5.21329666 28.88264806 5.29730941 32.87867187 5.375 36.875 C5.75833496 36.18873535 6.14166992 35.5024707 6.53662109 34.79541016 C8.27097837 31.69500352 10.01042041 28.59747927 11.75 25.5 C12.65492187 23.87964844 12.65492187 23.87964844 13.578125 22.2265625 C14.15820312 21.1953125 14.73828125 20.1640625 15.3359375 19.1015625 C15.87009277 18.14846191 16.40424805 17.19536133 16.95458984 16.21337891 C18.375 13.875 18.375 13.875 20.375 11.875 C24 12.25 24 12.25 27.375 12.875 C28.63994785 16.73555512 28.82037669 18.80337814 27.23876953 22.60888672 C25.55224186 25.73180192 23.77517172 28.77610088 21.9375 31.8125 C21.31294922 32.87791016 20.68839844 33.94332031 20.04492188 35.04101562 C18.50480288 37.66274491 16.94804927 40.27294212 15.375 42.875 C16.31601563 42.2975 17.25703125 41.72 18.2265625 41.125 C19.48396461 40.37431217 20.74180033 39.62435031 22 38.875 C22.61746094 38.4934375 23.23492187 38.111875 23.87109375 37.71875 C27.8234188 35.38895839 30.65380229 34.21043258 35.375 34.875 C37.375 36.875 37.375 36.875 37.8125 39.75 C37.375 42.875 37.375 42.875 35.5 44.875 C32.75213112 46.63363608 29.97889993 48.32502411 27.1796875 50 C26.27976074 50.53882813 25.37983398 51.07765625 24.45263672 51.6328125 C23.7670166 52.04273438 23.08139648 52.45265625 22.375 52.875 C23.71461792 52.89687378 23.71461792 52.89687378 25.08129883 52.91918945 C28.39717278 52.98027077 31.71221899 53.05442478 35.02758789 53.13745117 C36.46204628 53.17069001 37.89663513 53.19872535 39.33129883 53.22143555 C41.39460807 53.25500271 43.45672303 53.30731413 45.51953125 53.36328125 C46.76065674 53.38946533 48.00178223 53.41564941 49.28051758 53.44262695 C52.375 53.875 52.375 53.875 54.3112793 55.21557617 C55.375 56.875 55.375 56.875 55.25 59.9375 C54.375 62.875 54.375 62.875 51.375 64.875 C48.37231445 65.19384766 48.37231445 65.19384766 44.73828125 65.2890625 C43.43955078 65.32773437 42.14082031 65.36640625 40.80273438 65.40625 C39.43099427 65.43770517 38.05924939 65.46895251 36.6875 65.5 C35.30401215 65.53819197 33.92054777 65.57724442 32.53710938 65.6171875 C29.1498755 65.71160517 25.76264931 65.79718118 22.375 65.875 C24.09009766 66.74511719 24.09009766 66.74511719 25.83984375 67.6328125 C27.33131811 68.42076122 28.82217184 69.2098855 30.3125 70 C31.44461914 70.56847656 31.44461914 70.56847656 32.59960938 71.1484375 C38.10755411 74.11235395 38.10755411 74.11235395 39.48046875 78.02734375 C39.375 80.875 39.375 80.875 37.75 83.3125 C35.375 84.875 35.375 84.875 33.11254883 84.68383789 C29.805378 83.70669913 27.17501801 82.2405278 24.19921875 80.49609375 C23.62919632 80.16456802 23.05917389 79.8330423 22.47187805 79.49147034 C20.66478899 78.43842937 18.86364725 77.3756655 17.0625 76.3125 C15.83306287 75.59374965 14.6032488 74.87564367 13.37304688 74.15820312 C10.36929916 72.40457186 7.37080256 70.642178 4.375 68.875 C4.39071045 70.63142822 4.39071045 70.63142822 4.40673828 72.42333984 C4.44287497 76.75810705 4.46587733 81.09286089 4.48486328 85.42773438 C4.49493534 87.30568682 4.50859362 89.18362353 4.52587891 91.06152344 C4.55007453 93.7572009 4.56147083 96.45267146 4.5703125 99.1484375 C4.58063507 99.99119232 4.59095764 100.83394714 4.60159302 101.70223999 C4.60199144 103.76121247 4.49757588 105.81967935 4.375 107.875 C2.375 109.875 2.375 109.875 -0.5625 110.25 C-3.625 109.875 -3.625 109.875 -5.28442383 108.19042969 C-6.8842897 105.42715743 -7.04840858 103.63229113 -7.13671875 100.453125 C-7.17216797 99.42832031 -7.20761719 98.40351563 -7.24414062 97.34765625 C-7.27797852 95.75244141 -7.27797852 95.75244141 -7.3125 94.125 C-7.34666016 93.04605469 -7.38082031 91.96710938 -7.41601562 90.85546875 C-7.49840663 88.19541623 -7.56758645 85.53568965 -7.625 82.875 C-8.02404541 83.63280762 -8.42309082 84.39061523 -8.83422852 85.17138672 C-12.77646349 92.52560261 -12.77646349 92.52560261 -16.8125 94.1875 C-19.625 93.875 -19.625 93.875 -21.5625 92.875 C-23.29466052 89.61446255 -22.49202379 87.40089674 -21.625 83.875 C-20.97404393 82.44565897 -20.28671028 81.0323984 -19.56640625 79.63671875 C-19.20361572 78.92862061 -18.8408252 78.22052246 -18.46704102 77.4909668 C-18.05023071 76.69106323 -18.05023071 76.69106323 -17.625 75.875 C-18.31537354 76.30433838 -19.00574707 76.73367676 -19.71704102 77.17602539 C-22.86203035 79.11649462 -26.02418874 81.02705782 -29.1875 82.9375 C-30.81655273 83.95166992 -30.81655273 83.95166992 -32.47851562 84.98632812 C-33.53876953 85.62119141 -34.59902344 86.25605469 -35.69140625 86.91015625 C-36.66021729 87.5019165 -37.62902832 88.09367676 -38.62719727 88.70336914 C-42.3547809 90.16022018 -44.76636561 89.72006411 -48.625 88.875 C-49.4375 85.625 -49.4375 85.625 -49.625 81.875 C-45.25267721 77.42729234 -39.21135301 74.65618947 -33.8125 71.625 C-32.83345703 71.07070313 -31.85441406 70.51640625 -30.84570312 69.9453125 C-28.44099267 68.58459829 -26.0340709 67.22797444 -23.625 65.875 C-24.40214355 65.86041748 -25.17928711 65.84583496 -25.97998047 65.83081055 C-29.48716688 65.75653022 -32.9933801 65.65980411 -36.5 65.5625 C-37.72332031 65.53994141 -38.94664063 65.51738281 -40.20703125 65.49414062 C-41.37363281 65.45869141 -42.54023437 65.42324219 -43.7421875 65.38671875 C-44.82097168 65.36053467 -45.89975586 65.33435059 -47.01123047 65.30737305 C-47.87377441 65.16468994 -48.73631836 65.02200684 -49.625 64.875 C-51.625 61.875 -51.625 61.875 -51.4375 58.8125 C-50.625 55.875 -50.625 55.875 -47.625 53.875 C-45.08129883 53.55615234 -45.08129883 53.55615234 -42.08203125 53.4609375 C-41.00888672 53.42226563 -39.93574219 53.38359375 -38.83007812 53.34375 C-37.71052734 53.3128125 -36.59097656 53.281875 -35.4375 53.25 C-33.74077148 53.19199219 -33.74077148 53.19199219 -32.00976562 53.1328125 C-29.2150075 53.03847467 -26.42025722 52.95288348 -23.625 52.875 C-24.31650146 52.48642822 -25.00800293 52.09785645 -25.72045898 51.69750977 C-28.83543431 49.94587689 -31.94898292 48.19172349 -35.0625 46.4375 C-36.15111328 45.82583984 -37.23972656 45.21417969 -38.36132812 44.58398438 C-39.39580078 44.00068359 -40.43027344 43.41738281 -41.49609375 42.81640625 C-42.93359985 42.00731812 -42.93359985 42.00731812 -44.40014648 41.18188477 C-46.625 39.875 -46.625 39.875 -47.625 38.875 C-47.8125 35.4375 -47.8125 35.4375 -47.625 31.875 C-46.965 31.215 -46.305 30.555 -45.625 29.875 C-40.60680429 30.16210883 -37.04490124 31.40569557 -32.71875 33.89453125 C-31.64496094 34.50490234 -30.57117188 35.11527344 -29.46484375 35.74414062 C-28.36269531 36.38544922 -27.26054688 37.02675781 -26.125 37.6875 C-25.02285156 38.31720703 -23.92070313 38.94691406 -22.78515625 39.59570312 C-20.72175422 40.77602853 -18.66088452 41.960801 -16.60351562 43.15161133 C-13.28443954 45.07205051 -9.95561324 46.97464933 -6.625 48.875 C-6.63388245 48.32011902 -6.64276489 47.76523804 -6.6519165 47.19354248 C-6.74040593 41.41868389 -6.80074053 35.64401784 -6.84472656 29.86865234 C-6.86484276 27.71329933 -6.89213925 25.55800089 -6.92675781 23.40283203 C-6.97527486 20.30487605 -6.99796873 17.20764154 -7.015625 14.109375 C-7.03627014 13.14570007 -7.05691528 12.18202515 -7.07818604 11.18914795 C-7.08042221 4.52311003 -7.08042221 4.52311003 -4.76464844 1.22753906 C-2.625 -0.125 -2.625 -0.125 0 0 Z " fill="#FD518E" transform="translate(90.625,251.125)"/>
<path d="M0 0 C2 2 2 2 2.06445312 4.02026367 C1.34484052 10.27158802 0.11765389 16.23474325 -1.5 22.3125 C-1.9488869 24.03750823 -2.39683375 25.76276141 -2.84375 27.48828125 C-3.04871094 28.27541504 -3.25367188 29.06254883 -3.46484375 29.87353516 C-4.05918221 32.23516287 -4.56523319 34.60384204 -5 37 C0.02157412 32.08090698 4.89220782 27.12935061 9.39453125 21.7265625 C11.14590776 19.84308703 12.8208563 18.37047709 15 17 C20.42553191 17.42553191 20.42553191 17.42553191 22 19 C22.65508419 21.93618092 22.82821407 23.17134031 22 26 C19.20029 29.69338111 15.87863668 32.77753753 12.5 35.9375 C11.59378906 36.81212891 10.68757813 37.68675781 9.75390625 38.58789062 C7.51753646 40.74186784 5.26651452 42.87783936 3 45 C3.86882812 44.79503906 4.73765625 44.59007812 5.6328125 44.37890625 C6.78523438 44.10949219 7.93765625 43.84007812 9.125 43.5625 C10.26195312 43.29566406 11.39890625 43.02882812 12.5703125 42.75390625 C19.0834641 41.32219981 19.0834641 41.32219981 22 41 C24.4375 42.625 24.4375 42.625 26 45 C26.0625 47.5625 26.0625 47.5625 25 50 C19.91784905 54.40453083 11.56042296 56 5 56 C5 56.66 5 57.32 5 58 C5.85078125 57.96261719 6.7015625 57.92523438 7.578125 57.88671875 C11.26925683 58.00891375 14.21935764 58.7461182 17.75 59.8125 C18.966875 60.17730469 20.18375 60.54210937 21.4375 60.91796875 C22.613125 61.27503906 23.78875 61.63210937 25 62 C26.010625 62.28488281 27.02125 62.56976563 28.0625 62.86328125 C29.3928125 63.24033203 29.3928125 63.24033203 30.75 63.625 C31.91789062 63.95371094 31.91789062 63.95371094 33.109375 64.2890625 C35 65 35 65 37 67 C36.42307692 73.57692308 36.42307692 73.57692308 35 75 C28.04669514 75.51987326 22.14501822 73.93595019 15.5 72 C14.48679687 71.71382813 13.47359375 71.42765625 12.4296875 71.1328125 C9.95032951 70.43110741 7.47409067 69.720014 5 69 C4.67 69.33 4.34 69.66 4 70 C5.42505859 71.32064453 5.42505859 71.32064453 6.87890625 72.66796875 C8.10754554 73.84033448 9.33536814 75.01355652 10.5625 76.1875 C11.19091797 76.76564453 11.81933594 77.34378906 12.46679688 77.93945312 C14.14333804 79.56102573 15.65613926 81.09289929 17 83 C17.02734375 85.80078125 17.02734375 85.80078125 16 88 C14 90 14 90 11.19433594 90.40991211 C7.02385365 89.87473634 5.77411087 88.45527728 2.890625 85.44140625 C1.97152344 84.49845703 1.05242187 83.55550781 0.10546875 82.58398438 C-0.84694695 81.57738346 -1.79876341 80.57021525 -2.75 79.5625 C-4.63599261 77.60095389 -6.52934751 75.64666209 -8.421875 73.69140625 C-9.25299805 72.81685791 -10.08412109 71.94230957 -10.94042969 71.04125977 C-12.8324274 68.95379101 -12.8324274 68.95379101 -15 68 C-15.10570312 69.26585937 -15.21140625 70.53171875 -15.3203125 71.8359375 C-15.92796378 77.28347797 -17.32549388 82.37935488 -18.875 87.625 C-19.25978516 88.97851562 -19.25978516 88.97851562 -19.65234375 90.359375 C-23.44967595 103.44967595 -23.44967595 103.44967595 -26 106 C-29.5 105.6875 -29.5 105.6875 -33 105 C-35.89220315 99.2155937 -33.23125519 92.36922349 -31.5 86.5625 C-31.26152344 85.73556641 -31.02304687 84.90863281 -30.77734375 84.05664062 C-30.193157 82.03535448 -29.59772561 80.01732395 -29 78 C-31.53313265 79.98317622 -33.85889146 81.8412529 -36 84.25 C-38 86 -38 86 -40.5625 86.4375 C-43 86 -43 86 -44.8125 84.8125 C-46.43575437 82.33490123 -46.42644513 80.91404169 -46 78 C-44.625 75.6875 -44.625 75.6875 -43 74 C-42.34 74 -41.68 74 -41 74 C-40.71125 73.360625 -40.4225 72.72125 -40.125 72.0625 C-39 70 -39 70 -37 69 C-41.92111618 70.03602446 -46.75493102 71.20127532 -51.59472656 72.57275391 C-57.46597792 74.22049219 -62.8605352 75.72228998 -69 75 C-71 73 -71 73 -71.375 70.0625 C-71 67 -71 67 -69.29077148 65.40893555 C-66.8501724 63.90784876 -64.73393634 63.14341806 -61.97265625 62.39453125 C-61.01552734 62.13349609 -60.05839844 61.87246094 -59.07226562 61.60351562 C-58.07904297 61.34248047 -57.08582031 61.08144531 -56.0625 60.8125 C-55.07314453 60.53986328 -54.08378906 60.26722656 -53.06445312 59.98632812 C-48.57773594 58.78242755 -44.67283096 57.83810912 -40 58 C-40 57.34 -40 56.68 -40 56 C-41.175625 55.9175 -42.35125 55.835 -43.5625 55.75 C-48.12231936 55.2474001 -52.50735515 54.22405266 -56.9375 53.0625 C-57.60015869 52.89266602 -58.26281738 52.72283203 -58.94555664 52.54785156 C-61.94775795 51.73529547 -63.76375614 51.23624386 -66 49 C-66.3125 45.5 -66.3125 45.5 -66 42 C-61.85002093 39.23334728 -58.67264409 40.07324812 -54 41 C-50.32293783 41.98613937 -46.67928653 43.04588288 -43.0390625 44.16015625 C-40.04355947 45.13318283 -40.04355947 45.13318283 -37 45 C-37.61109619 44.42556152 -38.22219238 43.85112305 -38.85180664 43.25927734 C-41.11526159 41.11526992 -43.36242074 38.9557924 -45.59985352 36.78466797 C-46.57053345 35.84914703 -47.54740889 34.92000982 -48.53051758 33.99755859 C-49.94410605 32.66905713 -51.33376106 31.31523387 -52.72265625 29.9609375 C-53.98734741 28.75123291 -53.98734741 28.75123291 -55.27758789 27.51708984 C-57 25 -57 25 -56.89233398 21.81494141 C-56 19 -56 19 -54 17 C-51.77026367 16.50585938 -51.77026367 16.50585938 -49 17 C-46.68357665 18.90461892 -44.72170164 20.74281328 -42.67578125 22.90625 C-42.08830612 23.50554321 -41.50083099 24.10483643 -40.89555359 24.72229004 C-39.02231674 26.63672723 -37.1667583 28.56718975 -35.3125 30.5 C-33.44500801 32.43010155 -31.57401656 34.35656512 -29.6973114 36.27770996 C-28.53053058 37.47380628 -27.36955577 38.67559827 -26.21492004 39.88342285 C-24.8476441 41.29318118 -23.42826315 42.65206587 -22 44 C-21.34 44 -20.68 44 -20 44 C-19.09787355 40.91847434 -18.2036579 37.83471519 -17.3125 34.75 C-17.04139404 33.8130127 -16.77028809 32.87602539 -16.4909668 31.91064453 C-14.35091971 24.42830381 -12.44075879 16.90545319 -10.73754883 9.31152344 C-10.55216553 8.52551758 -10.36678223 7.73951172 -10.17578125 6.9296875 C-10.02020752 6.24116699 -9.86463379 5.55264648 -9.7043457 4.84326172 C-7.83214367 -0.05626179 -4.93853321 -0.52537587 0 0 Z " fill="#FFCC6B" transform="translate(437,187)"/>
<path d="M0 0 C4.47748138 2.07886988 8.75677759 4.47877025 13 7 C13 7.99 13 8.98 13 10 C12.67 10.33 12.34 10.66 12 11 C12.09410156 12.05574219 12.18820313 13.11148438 12.28515625 14.19921875 C11.92151294 19.04613577 9.91550794 20.78646855 6.4375 23.8125 C2.40139611 27.52366332 -0.85266376 30.97341912 -3.75 35.6875 C-6.43298513 39.82677534 -6.43298513 39.82677534 -9.05859375 40.62890625 C-10.11240234 40.68884766 -10.11240234 40.68884766 -11.1875 40.75 C-12.445625 40.8325 -13.70375 40.915 -15 41 C-17.54798166 43.90153551 -17.54798166 43.90153551 -19 47 C-20.8125 46.875 -20.8125 46.875 -23 46 C-25.86738832 41.41631434 -26.24847909 38.02594243 -26.1875 32.6875 C-26.43205488 27.02383126 -27.03926984 24.04666717 -30.9375 19.875 C-32.00291016 18.91207031 -32.00291016 18.91207031 -33.08984375 17.9296875 C-35.94160736 15.04876475 -36.7802244 12.09887799 -37.5625 8.1875 C-36.70017879 3.30101315 -33.62276481 0.26932434 -30 -3 C-20.94881503 -8.54923841 -9.01361205 -3.66021767 0 0 Z " fill="#FDFDFE" transform="translate(139,148)"/>
<path d="M0 0 C2.71803474 2.32027356 4.39905207 3.91175703 4.86328125 7.53515625 C4.8850758 12.58422692 4.57319524 16.57663921 2.75 21.3125 C1.69108265 24.36725695 1.37796186 25.65110913 2.44140625 28.7421875 C3.7050679 30.99589745 5.06008781 33.08774321 6.5625 35.1875 C7.76522819 37.59295638 7.66321472 39.13746953 7.625 41.8125 C7.61597656 42.62976563 7.60695313 43.44703125 7.59765625 44.2890625 C7.58605469 44.91554687 7.57445312 45.54203125 7.5625 46.1875 C3.5625 46.1875 3.5625 46.1875 0.5625 44.1875 C-1.76949388 44.10844936 -4.10582622 44.09951231 -6.4375 44.1875 C-6.4375 44.8475 -6.4375 45.5075 -6.4375 46.1875 C-12.66481457 44.25348848 -18.56584793 41.61868431 -24.53710938 39.02148438 C-25.35115234 38.67279297 -26.16519531 38.32410156 -27.00390625 37.96484375 C-27.73552979 37.64765381 -28.46715332 37.33046387 -29.22094727 37.00366211 C-31.60643779 36.12529502 -33.93673169 35.62503146 -36.4375 35.1875 C-36.705625 34.23875 -36.97375 33.29 -37.25 32.3125 C-38.18736588 28.93482727 -38.18736588 28.93482727 -41.4375 27.1875 C-39.96044891 22.82127204 -37.61888009 19.41339724 -34.8125 15.8125 C-34.1469812 14.95422607 -34.1469812 14.95422607 -33.46801758 14.07861328 C-25.54086666 4.07628453 -13.35485606 -7.04165138 0 0 Z " fill="#FDFDFE" transform="translate(341.4375,94.8125)"/>
<path d="M0 0 C6.00216049 7.06136528 8.37374108 15.57385172 8.390625 24.76171875 C8.39253845 25.43362747 8.3944519 26.10553619 8.39642334 26.79780579 C8.39777567 28.21213152 8.39414622 29.62647007 8.38574219 31.04077148 C8.37511335 33.16484725 8.3856257 35.28806093 8.3984375 37.41210938 C8.40657332 45.60931096 7.79274138 53.45291579 6.125 61.5 C5.9384082 62.43416748 5.75181641 63.36833496 5.55957031 64.33081055 C5.41616211 65.04664307 5.27275391 65.76247559 5.125 66.5 C2.15598643 65.12152942 -0.47979832 63.74896831 -2.875 61.5 C-3.08984375 59.15234375 -3.08984375 59.15234375 -2.8125 56.4375 C-2.54029919 50.04078102 -4.65557269 45.89386018 -7.875 40.5 C-8.875 38.5 -8.875 38.5 -8.31640625 36.72265625 C-7.88134766 35.65337891 -7.88134766 35.65337891 -7.4375 34.5625 C-5.58412889 29.22651527 -4.89684124 24.10218197 -5.875 18.5 C-8.0765974 15.60316132 -9.66094462 14.10702769 -12.875 12.5 C-22.02669085 11.53077816 -28.38131134 14.49301275 -35.390625 20.13671875 C-38.50231148 23.09673498 -41.19898786 26.2712568 -43.875 29.625 C-44.35614258 30.2228833 -44.83728516 30.8207666 -45.33300781 31.43676758 C-48.07865299 35.00145435 -48.96351378 36.94256888 -49.875 41.5 C-56.145 40.84 -62.415 40.18 -68.875 39.5 C-60.4028221 22.5556442 -32.69701509 5.41114963 -15.21875 -0.91015625 C-9.83953456 -2.26392547 -4.98422561 -2.60046554 0 0 Z " fill="#B0B8C5" transform="translate(350.875,81.5)"/>
<path d="M0 0 C2.441541 10.24575241 4.39099529 20.18111262 4.375 30.75 C4.37693359 31.96187988 4.37693359 31.96187988 4.37890625 33.19824219 C4.23083484 41.2916906 2.9575705 49.0424295 -3 55 C-6.42563513 55.55928737 -8.92355827 55.61510956 -11.99609375 53.859375 C-25.24866073 43.21598787 -31.02516921 23.12547165 -34 7 C-29.80211662 5.99738393 -25.60289389 5.00064571 -21.40234375 4.00927734 C-19.97422878 3.67136357 -18.54648895 3.33186021 -17.11914062 2.99072266 C-15.06477399 2.50002088 -13.00911616 2.0150938 -10.953125 1.53125 C-9.71723633 1.23798828 -8.48134766 0.94472656 -7.20800781 0.64257812 C-4 0 -4 0 0 0 Z " fill="#91A2B5" transform="translate(243,135)"/>
<path d="M0 0 C-2.96647745 3.19249477 -6.04963636 5.4592987 -9.75 7.75 C-10.73484375 8.36359375 -11.7196875 8.9771875 -12.734375 9.609375 C-13.48203125 10.06828125 -14.2296875 10.5271875 -15 11 C-15.57105469 10.62488281 -16.14210937 10.24976563 -16.73046875 9.86328125 C-23.51670993 5.58007338 -30.43490043 2.63783077 -38 0 C-39.216875 -0.433125 -40.43375 -0.86625 -41.6875 -1.3125 C-47.64391186 -2.54873642 -52.83719541 -3.0814023 -58.375 -0.3125 C-63.15673604 3.51938274 -63.15673604 3.51938274 -65.23046875 9.0390625 C-64.93522712 15.40315983 -62.1955994 19.38692803 -58 24 C-57.17628906 24.62841797 -57.17628906 24.62841797 -56.3359375 25.26953125 C-54.18530192 28.05529605 -54.58187948 30.86332709 -54.5 34.3125 C-54.37136694 39.69900922 -53.85691555 43.37151672 -51 48 C-50.34 48.33 -49.68 48.66 -49 49 C-50.16730489 52.95087809 -51.44837454 55.78425284 -54 59 C-66.18371235 43.79196189 -81.0234155 22.52277026 -80.35546875 2.26171875 C-79.65907201 -2.16920119 -77.23761862 -4.84222774 -74.0625 -7.8125 C-55.03250525 -18.76916365 -19.02491343 -5.94528545 0 0 Z " fill="#B0B8C5" transform="translate(168,146)"/>
<path d="M0 0 C-3.1122145 10.89275073 -10.3177544 18.56998865 -20 24 C-31.89577558 29.5678593 -45.21276248 31.34537231 -57.8359375 26.93359375 C-61.07802676 25.5349307 -64.01310571 23.88304205 -67 22 C-61.9686228 10.51422982 -47.99219636 5.1525946 -37.0390625 0.83203125 C-25.57474772 -2.66639146 -11.74274411 -1.98649423 0 0 Z " fill="#FA80A5" transform="translate(293,261)"/>
<path d="M0 0 C0 0.33 0 0.66 0 1 C-2.31 1 -4.62 1 -7 1 C-6.97905273 1.86165771 -6.95810547 2.72331543 -6.93652344 3.61108398 C-6.86781666 6.8483475 -6.81794374 10.08523591 -6.78027344 13.32299805 C-6.76032005 14.71667814 -6.73314681 16.1102763 -6.69824219 17.50366211 C-6.50020643 25.62021582 -6.38968773 32.97743832 -11 40 C-13 42 -13 42 -16.75 42.4375 C-20.38441319 42.29369228 -22.74797489 41.53050268 -25.4375 38.9140625 C-32.84224361 29.84325158 -41 16.07069247 -41 4 C-41.99 3.67 -42.98 3.34 -44 3 C-29.26066486 0.06353671 -14.98173839 -0.12886238 0 0 Z " fill="#91A2B4" transform="translate(287,131)"/>
<path d="M0 0 C1.85685737 7.10192461 2.33545115 13.67399189 2.3125 21 C2.32861328 22.02867187 2.34472656 23.05734375 2.36132812 24.1171875 C2.36608745 31.59884414 1.59417709 38.33237032 -2.8125 44.5625 C-5 46 -5 46 -7.75 46.6875 C-13.59184523 45.45172505 -17.23995698 41.43190956 -20.66796875 36.6953125 C-25.67586788 28.6363283 -29.51746404 20.15153031 -32 11 C-8.58540116 -0.38742785 -8.58540116 -0.38742785 0 0 Z " fill="#90A1B4" transform="translate(207,144)"/>
<path d="M0 0 C2.66666667 2.66666667 5.33333333 5.33333333 8 8 C6.11139524 14.06481528 3.83129086 19.75977567 1.125 25.5 C-1.92981854 32.09619347 -4.73679489 38.76352679 -7.375 45.53515625 C-7.66424347 46.27724335 -7.95348694 47.01933044 -8.25149536 47.78390503 C-9.70445869 51.52275893 -11.14347525 55.26654275 -12.56982422 59.015625 C-13.10633539 60.40759446 -13.64295181 61.79952335 -14.1796875 63.19140625 C-14.42001709 63.83433121 -14.66034668 64.47725616 -14.90795898 65.1396637 C-17.18798628 71.02035321 -17.18798628 71.02035321 -20 73 C-23.0625 72.875 -23.0625 72.875 -26 72 C-28 69 -28 69 -28 65 C-28.92232422 65.05220703 -28.92232422 65.05220703 -29.86328125 65.10546875 C-30.67152344 65.13253906 -31.47976563 65.15960938 -32.3125 65.1875 C-33.51326172 65.23970703 -33.51326172 65.23970703 -34.73828125 65.29296875 C-37 65 -37 65 -38.77734375 63.671875 C-40 62 -40 62 -40.25 59.0625 C-38.82030557 55.55974863 -38.28870187 55.28511084 -35 53.75 C-30.44064459 51.993587 -25.80252643 50.86286527 -21 50 C-20.89059082 49.31478271 -20.78118164 48.62956543 -20.66845703 47.92358398 C-19.88500905 44.49707211 -18.66097026 41.46629636 -17.3046875 38.22265625 C-17.03415558 37.57485703 -16.76362366 36.9270578 -16.4848938 36.2596283 C-15.91052166 34.88785993 -15.33379975 33.51707336 -14.75488281 32.1472168 C-13.89207467 30.10295523 -13.0392446 28.05475082 -12.1875 26.00585938 C-8.47654074 17.14364538 -4.40801873 8.53813699 0 0 Z " fill="#698591" transform="translate(340,290)"/>
<path d="M0 0 C7.58269338 7.40822433 14.11684879 15.77394656 20.625 24.125 C21.06287842 24.68123047 21.50075684 25.23746094 21.9519043 25.81054688 C25 29.7641695 25 29.7641695 25 32 C26.10859375 31.95359375 27.2171875 31.9071875 28.359375 31.859375 C29.82288968 31.82184898 31.28643356 31.78544971 32.75 31.75 C33.47960937 31.71648437 34.20921875 31.68296875 34.9609375 31.6484375 C38.55863693 31.58302478 40.58253591 31.69368734 43.5234375 33.8515625 C45 36 45 36 44.875 38.625 C44 41 44 41 42 43 C38.375 43.125 38.375 43.125 35 43 C36.0209375 44.299375 36.0209375 44.299375 37.0625 45.625 C39 49 39 49 38.9375 52.25 C38 55 38 55 35 57 C31.89940858 56.847673 30.44994848 56.42672533 28.18359375 54.27734375 C27.60738281 53.50519531 27.03117187 52.73304688 26.4375 51.9375 C25.75171875 51.03386719 25.0659375 50.13023437 24.359375 49.19921875 C23.58078125 48.14347656 22.8021875 47.08773437 22 46 C21.06884033 44.75566252 20.13648596 43.51221842 19.203125 42.26953125 C17.68387774 40.24635677 16.16659995 38.22190442 14.65649414 36.19189453 C12.10370451 32.76636666 9.52222444 29.37297192 6.85546875 26.03515625 C6.35442627 25.40770508 5.85338379 24.78025391 5.3371582 24.13378906 C4.38923017 22.95303382 3.43623322 21.77632316 2.47729492 20.60449219 C0.02316906 17.54780109 -2.0534568 14.83471348 -3 11 C-2.5390625 8.10546875 -2.5390625 8.10546875 -1.625 5.1875 C-1.32851562 4.21167969 -1.03203125 3.23585938 -0.7265625 2.23046875 C-0.36691406 1.12638672 -0.36691406 1.12638672 0 0 Z " fill="#698591" transform="translate(179,329)"/>
<path d="M0 0 C4.29 0.33 8.58 0.66 13 1 C4.72762629 17.98269663 -4.17620828 34.61041545 -14 50.75 C-14.53971436 51.64936279 -15.07942871 52.54872559 -15.63549805 53.4753418 C-16.14765869 54.30332275 -16.65981934 55.13130371 -17.1875 55.984375 C-17.85845703 57.07830566 -17.85845703 57.07830566 -18.54296875 58.19433594 C-20.21224548 60.26303076 -21.49926545 61.12351706 -24 62 C-28.3 60.7 -28.3 60.7 -30 59 C-30.35909047 54.5191064 -29.79887687 51.92623741 -27.46484375 48.11328125 C-26.90949951 47.18725098 -26.35415527 46.2612207 -25.78198242 45.30712891 C-25.17330322 44.31890137 -24.56462402 43.33067383 -23.9375 42.3125 C-22.65874017 40.18261918 -21.38280885 38.05103819 -20.109375 35.91796875 C-19.43970703 34.7995459 -18.77003906 33.68112305 -18.08007812 32.52880859 C-14.48427289 26.46910873 -11.09411312 20.29228242 -7.6875 14.125 C-7.02927672 12.9365709 -6.37099369 11.7481749 -5.71264648 10.55981445 C-2.78298703 5.31878308 -2.78298703 5.31878308 0 0 Z " fill="#678590" transform="translate(378,326)"/>
<path d="M0 0 C6.42800251 5.28365714 12.22691595 11.14520415 18.0625 17.0625 C25.05671253 24.32066245 25.05671253 24.32066245 32.62109375 30.95703125 C35 33 35 33 36 36.625 C36 40 36 40 34 43 C31.375 43.625 31.375 43.625 28 43 C20.24269366 37.64504285 13.65568051 29.84180233 7.00634766 23.19165039 C4.98227957 21.16979898 2.95030266 19.15611673 0.91796875 17.14257812 C-0.36767498 15.8598634 -1.65284889 14.57667758 -2.9375 13.29296875 C-3.54674316 12.6909111 -4.15598633 12.08885345 -4.78369141 11.46855164 C-9 7.22886078 -9 7.22886078 -9 5 C-6.03 3.35 -3.06 1.7 0 0 Z " fill="#678490" transform="translate(154,376)"/>
<path d="M0 0 C2.3984375 1.56640625 2.3984375 1.56640625 3.8359375 5.19140625 C3.3984375 8.56640625 3.3984375 8.56640625 2.2734375 10.50390625 C-0.30837494 11.9669333 -1.64780686 11.96919111 -4.6015625 11.56640625 C-5.7153125 11.07140625 -6.8290625 10.57640625 -7.9765625 10.06640625 C-12.02645792 8.39058746 -14.26746875 7.95811239 -18.6015625 8.56640625 C-22.83244306 10.53218823 -26.04703227 12.97226672 -29.2265625 16.37890625 C-31.6015625 18.56640625 -31.6015625 18.56640625 -34.7890625 19.00390625 C-37.6015625 18.56640625 -37.6015625 18.56640625 -39.6015625 16.56640625 C-40.1640625 13.94140625 -40.1640625 13.94140625 -39.6015625 10.56640625 C-30.40734582 -3.57854249 -14.86776008 -6.70769124 0 0 Z " fill="#625F60" transform="translate(325.6015625,201.43359375)"/>
<path d="M0 0 C3.125 2.1875 3.125 2.1875 5.125 5.1875 C4.9375 7.75 4.9375 7.75 4.125 10.1875 C1.125 12.1875 1.125 12.1875 -1.875 11.875 C-4.875 11.1875 -4.875 11.1875 -7.875 10.1875 C-15.057488 9.48983795 -20.05411514 9.79213796 -25.875 14.1875 C-26.555625 15.095 -27.23625 16.0025 -27.9375 16.9375 C-29.875 19.1875 -29.875 19.1875 -33 19.625 C-35.875 19.1875 -35.875 19.1875 -37.875 17.1875 C-38.5611787 13.98533272 -38.37462938 12.00843444 -36.66015625 9.19140625 C-27.97824942 -1.61501425 -12.96902996 -6.10585717 0 0 Z " fill="#625E5F" transform="translate(203.875,228.8125)"/>
<path d="M0 0 C1.43060128 2.86120256 1.38692581 4.84010585 1 8 C-2.94162188 11.67884709 -8.78303898 12.43293902 -14 13 C-16.45646497 12.88675871 -18.58654013 12.52466519 -21 12 C-21.6875 8.6875 -21.6875 8.6875 -22 5 C-19.20028354 0.95162951 -14.54946704 0.55084631 -10.02734375 -0.49609375 C-6.23886156 -1.12669272 -3.67600542 -1.06195712 0 0 Z " fill="#FCFCFD" transform="translate(210,208)"/>
<path d="M0 0 C2 2 2 2 2.375 4.9375 C2 8 2 8 0.5 9.75 C-5.4874926 12.7437463 -12.34220494 13.93927399 -19 13 C-21 11 -21 11 -21.4375 8.0625 C-21 5 -21 5 -18.9375 3.25 C-12.7616904 0.62199591 -6.72711817 -0.93165791 0 0 Z " fill="#FCFCFD" transform="translate(293,188)"/>
<path d="M0 0 C0.33 2.31 0.66 4.62 1 7 C-0.38980752 8.13243576 -1.78714677 9.25563119 -3.1875 10.375 C-3.96480469 11.00148438 -4.74210938 11.62796875 -5.54296875 12.2734375 C-8 14 -8 14 -13 16 C-12.34 10.72 -11.68 5.44 -11 0 C-6.80104745 -1.04973814 -4.20594226 -0.72795155 0 0 Z " fill="#95A0B4" transform="translate(190,289)"/>
<path d="M0 0 C2 2 2 2 2.25 5 C2 8 2 8 0 10 C-2.32275177 10.40047444 -4.65739357 10.7397104 -7 11 C-7.98113243 9.70982586 -8.95984199 8.41780894 -9.9375 7.125 C-10.75541016 6.04605469 -10.75541016 6.04605469 -11.58984375 4.9453125 C-13 3 -13 3 -14 1 C-4.28954847 -1.55983581 -4.28954847 -1.55983581 0 0 Z " fill="#94A1B4" transform="translate(185,273)"/>
<path d="M0 0 C3.30185267 1.10061756 3.6305502 1.54579326 5.4375 4.3125 C7.39186185 7.190742 9.43577658 9.62571905 12 12 C2.03125 11.65625 2.03125 11.65625 -1.75 9.25 C-3 7 -3 7 -2.875 4.375 C-2 2 -2 2 0 0 Z " fill="#94A3B4" transform="translate(328,254)"/>
<path d="M0 0 C0 3.63 0 7.26 0 11 C-5 10 -5 10 -6 9 C-6.4640884 3.66298343 -6.4640884 3.66298343 -4.6875 1.125 C-3 0 -3 0 0 0 Z " fill="#92A3B5" transform="translate(328,238)"/>
</svg>
