<?xml version="1.0" encoding="UTF-8"?>
<svg version="1.1" xmlns="http://www.w3.org/2000/svg" width="512" height="512">
<path d="M0 0 C10.37473275 6.84732361 14.95041593 19.91941015 17.625 31.5625 C18.64476087 36.70564179 19.47436176 41.86044016 20.125 47.0625 C20.21362305 47.76012451 20.30224609 48.45774902 20.39355469 49.17651367 C20.85775656 53.27038891 21.01894547 57.24293392 20.921875 61.36328125 C20.39017929 71.58354644 20.39017929 71.58354644 24.484375 80.53125 C27.40142705 83.38593781 30.65081455 85.67903582 34 88 C43.04655975 95.77899956 49.58863271 106.47638622 55 117 C56.8541879 113.66535369 57.7895389 110.36599684 58.72412109 106.67431641 C58.88379868 106.04938797 59.04347626 105.42445953 59.20799255 104.78059387 C59.5530782 103.42845986 59.8961877 102.07582028 60.23752975 100.72273636 C60.77962365 98.57707714 61.32855338 96.43327641 61.87954712 94.28988647 C63.44498573 88.19717298 65.00195359 82.10235083 66.54492188 76.00390625 C67.49053933 72.26848387 68.44739385 68.53608926 69.41127396 64.80533981 C69.77511798 63.38794373 70.13471853 61.96945097 70.48987961 60.54985428 C70.98840352 58.55852475 71.50116579 56.57135417 72.01708984 54.58447266 C72.30417816 53.45514313 72.59126648 52.3258136 72.88705444 51.16226196 C74.54547261 46.4501243 76.59878387 42.95537463 80.75 40.125 C85.98202799 38.31391339 90.01797201 38.31391339 95.25 40.125 C99.3946347 42.9508873 101.33533867 46.38400232 103.22265625 50.97265625 C107.46774831 58.20330756 118.65823108 61.10887915 126.375 63.3125 C142.10413777 66.98703449 157.66823607 67.33712766 173.75 67.5 C204.40198674 67.81257909 233.6180857 68.82577968 259.62890625 86.87109375 C262.12556432 90.7476711 261.37221006 95.73440572 260.64432907 100.16492271 C260.14404251 102.37751329 259.57933266 104.56184637 258.98388672 106.75073242 C258.66184517 107.98716743 258.66184517 107.98716743 258.33329773 109.24858093 C257.625902 111.95375408 256.90296426 114.65450253 256.1796875 117.35546875 C255.67745991 119.26263735 255.17618535 121.17005715 254.67581177 123.07771301 C253.35628729 128.09747096 252.02341149 133.11359012 250.68780518 138.12908936 C249.35113152 143.15870415 248.02790704 148.19185218 246.703125 153.22460938 C244.06108018 163.24767898 241.41109544 173.26849501 238.72585297 183.28008652 C237.93862425 186.22998696 237.16234046 189.18267481 236.38580322 192.13540649 C235.84880464 194.15455817 235.31151943 196.17363363 234.77392578 198.19262695 C234.52621367 199.14377727 234.27850155 200.09492758 234.023283 201.07490063 C233.67037288 202.39083438 233.67037288 202.39083438 233.31033325 203.73335266 C233.10519167 204.51037694 232.90005009 205.28740122 232.68869209 206.08797169 C232 208 232 208 230 210 C226.19233387 210.7139374 224.1621398 210.73054802 220.84375 208.64453125 C220.0703125 208.06058594 219.296875 207.47664062 218.5 206.875 C202.85584991 195.16559069 182.48945223 192.97216443 163.515625 192.75390625 C161.50650681 192.72092218 159.49739233 192.68771143 157.48828125 192.65429688 C154.38918993 192.60741456 151.2901083 192.56301536 148.19091797 192.52319336 C137.12939047 192.37477016 126.12513611 192.07072973 115.1015625 191.09765625 C113.79230804 190.98472984 113.79230804 190.98472984 112.456604 190.86952209 C104.10900291 190.06426802 96.07710449 188.20674208 88 186 C88.31630371 186.7209082 88.63260742 187.44181641 88.95849609 188.18457031 C99.76403717 217.39448586 82.39873269 260.97598947 70.43969727 287.3684082 C67.35590009 294.03304772 64.25156315 300.68540209 60.8203125 307.1796875 C57.22018702 313.9936589 54.83939898 320.34135643 53.24023438 327.85009766 C52.1777026 332.8222974 52.1777026 332.8222974 50 335 C48.9275 334.87625 47.855 334.7525 46.75 334.625 C43.10307389 334.59322278 43.10307389 334.59322278 41.5234375 336.45703125 C40.54387264 337.8442921 39.58169756 339.24392012 38.6328125 340.65234375 C29.00047121 354.50171484 12.82569937 362.01618931 -3.20703125 365.74609375 C-24.62347383 369.57517411 -47.89577276 366.62811455 -66.11328125 354.140625 C-68.33094557 352.79992524 -70.56107685 351.99578043 -73 351.125 C-80.91112558 348.03092481 -85.47438704 343.68923818 -89.25 336.0625 C-92.59854616 328.18518239 -96 318.65342223 -96 310 C-96.61294922 310.02094727 -97.22589844 310.04189453 -97.85742188 310.06347656 C-121.14337381 310.75143101 -141.39939018 307.25193725 -160 292 C-161.26263672 290.98292969 -161.26263672 290.98292969 -162.55078125 289.9453125 C-186.32967972 269.75358845 -205.14784696 233.12826566 -208 202 C-208.05864439 200.1189981 -208.09641498 198.23726997 -208.1171875 196.35546875 C-208.13289795 195.37610352 -208.1486084 194.39673828 -208.16479492 193.38769531 C-208.17958155 191.46638728 -208.15812619 189.54435013 -208.0949707 187.62402344 C-208.11467308 182.45745204 -208.11467308 182.45745204 -210.55981445 178.05712891 C-212.63393503 176.25431534 -214.79111855 174.63384505 -217 173 C-218.31907627 171.80390088 -219.61766018 170.58480421 -220.89453125 169.34375 C-221.53471191 168.72153564 -222.17489258 168.09932129 -222.83447266 167.45825195 C-236.00254391 154.4218289 -250.93919452 138.40121382 -251.3125 118.8125 C-251.3125 112.75690297 -251.02299285 107.76167798 -247 103 C-233.04573105 89.27079991 -210.82206895 89.6121101 -192.58569336 89.70605469 C-183.17350103 89.85216893 -173.86546852 90.53596908 -164.51171875 91.5625 C-163.00782762 91.70848922 -161.50392284 91.85433789 -160 92 C-158.85015625 92.13019531 -157.7003125 92.26039063 -156.515625 92.39453125 C-151.29843872 91.80904701 -147.53483398 89.32460858 -143.0625 86.6875 C-135.27268565 82.28271288 -127.44106995 78.12228492 -119.3125 74.375 C-118.33547119 73.9227002 -117.35844238 73.47040039 -116.35180664 73.00439453 C-110.90072829 70.54966849 -105.43123957 68.4110948 -99.76171875 66.51171875 C-85.54259227 62.55026237 -85.54259227 62.55026237 -74.9375 53.1875 C-73.93853785 51.1345148 -72.95955086 49.07169876 -72 47 C-70.45757966 44.81467941 -68.90795358 42.71610977 -67.25 40.625 C-66.83427734 40.09060303 -66.41855469 39.55620605 -65.99023438 39.00561523 C-25.29022183 -12.96123869 -25.29022183 -12.96123869 0 0 Z " fill="#688490" transform="translate(251,74)"/>
<path d="M0 0 C3.59839403 1.90415017 5.78913005 3.37750971 7.0625 7.2421875 C7.03597628 9.22330534 7.00147008 11.20562521 6.88256836 13.18334961 C6.50084873 19.65149387 6.25083193 24.39413698 10.5 29.6796875 C11.66846554 30.88592163 12.85200416 32.07813754 14.0625 33.2421875 C15.5408226 36.19883269 15.12282783 38.98448487 15.0625 42.2421875 C11.7625 41.9121875 8.4625 41.5821875 5.0625 41.2421875 C2.8554206 44.81414215 2.8554206 44.81414215 3.20239258 47.35522461 C4.32956198 49.82808647 5.38042562 50.29124884 7.82421875 51.43359375 C8.60667969 51.81499512 9.38914063 52.19639648 10.1953125 52.58935547 C11.03835937 52.99041504 11.88140625 53.39147461 12.75 53.8046875 C35.4841476 65.22714809 50.42618637 82.51963328 61.6875 105.0546875 C62.04287842 105.7355542 62.39825684 106.4164209 62.7644043 107.11791992 C65.3206735 112.48147994 65.23523162 116.48278623 64.0625 122.2421875 C63.9284375 122.92821045 63.794375 123.6142334 63.65625 124.32104492 C63.22611207 126.36839295 62.74786952 128.39780262 62.25 130.4296875 C62.07549316 131.15800781 61.90098633 131.88632813 61.72119141 132.63671875 C60.28750245 138.53063073 58.64784804 144.34886103 56.921875 150.1640625 C56.19208368 152.77804231 55.65409346 155.32327289 55.1875 157.9921875 C54.48126105 161.52338227 53.1421183 163.69366613 51.0625 166.6171875 C47.54910776 172.111625 47.29326292 177.18154149 46.8137207 183.51489258 C45.5259883 199.42154168 40.44838353 214.95691683 36.0625 230.2421875 C35.05896484 230.35433594 35.05896484 230.35433594 34.03515625 230.46875 C11.8126079 233.51130024 -9.16508718 244.73562986 -27.74707031 256.77563477 C-50.11602636 271.19983138 -82.15283888 279.59564587 -108.515625 275.0546875 C-131.23934192 269.65910175 -147.67696239 254.54367691 -159.9375 235.2421875 C-176.50031042 208.32508441 -188.30493154 178.25486638 -181 146.3046875 C-180.11010968 142.57014335 -179.15238192 138.88683327 -177.9375 135.2421875 C-177.89795766 132.90918925 -177.89348268 130.57510561 -177.9375 128.2421875 C-180.2475 127.9121875 -182.5575 127.5821875 -184.9375 127.2421875 C-186.2575 129.8821875 -187.5775 132.5221875 -188.9375 135.2421875 C-193.74833534 132.83676983 -194.16652685 131.37903892 -196.15625 126.68359375 C-196.9107495 124.32578281 -197.08716085 122.50950208 -197.125 120.0546875 C-197.52644471 116.26045304 -197.52644471 116.26045304 -199.81640625 114.65625 C-201.41134143 113.66302842 -203.01854936 112.6892756 -204.63671875 111.734375 C-208.06488498 109.51101422 -210.240082 106.95376658 -211.9375 103.2421875 C-212.72739719 98.81876323 -212.20498814 96.18966917 -209.8125 92.4921875 C-207.44165174 89.17609908 -204.69988766 87.74625521 -200.9375 86.2421875 C-198.20696308 85.92581005 -195.78356997 85.76634486 -193.0625 85.8046875 C-192.33015137 85.80936035 -191.59780273 85.8140332 -190.84326172 85.81884766 C-182.26321553 86.04478336 -172.17506349 87.41714517 -164.9375 92.2421875 C-164.64453125 94.40625 -164.64453125 94.40625 -164.75 96.8671875 C-164.79060547 98.09308594 -164.79060547 98.09308594 -164.83203125 99.34375 C-164.86683594 99.97023438 -164.90164062 100.59671875 -164.9375 101.2421875 C-161.60921438 101.70916635 -159.03186896 102.02431778 -156.1953125 99.99707031 C-154.36640058 98.17974712 -152.64718579 96.29707751 -150.9375 94.3671875 C-143.91526072 86.94253262 -136.78107912 81.32719392 -127.9375 76.2421875 C-127.20418457 75.82050293 -126.47086914 75.39881836 -125.71533203 74.96435547 C-105.36811411 63.4704098 -82.76621275 52.60328542 -59.9375 47.2421875 C-59.25824463 47.07122559 -58.57898926 46.90026367 -57.87915039 46.72412109 C-51.01837214 45.06830668 -44.16216196 44.54902265 -37.13867188 44.03125 C-36.23826172 43.95648438 -35.33785156 43.88171875 -34.41015625 43.8046875 C-33.59812744 43.74410156 -32.78609863 43.68351562 -31.94946289 43.62109375 C-29.71551941 43.39622341 -29.71551941 43.39622341 -27.9375 41.2421875 C-27.35399495 38.78509375 -27.35399495 38.78509375 -27.9375 36.2421875 C-30.34608714 34.3797437 -30.34608714 34.3797437 -32.9375 33.2421875 C-31.47753014 21.7831217 -24.42177292 10.81876781 -15.75 3.3046875 C-10.69162889 -0.40478464 -6.35508367 -2.48565773 0 0 Z " fill="#B0B8C5" transform="translate(236.9375,96.7578125)"/>
<path d="M0 0 C3.62959201 1.37583813 6.96312748 3.03048629 10.375 4.875 C29.47673294 14.44921822 50.89001898 14.288735 71.75 14.5 C102.40198674 14.81257909 131.6180857 15.82577968 157.62890625 33.87109375 C160.12556432 37.7476711 159.37221006 42.73440572 158.64432907 47.16492271 C158.14404251 49.37751329 157.57933266 51.56184637 156.98388672 53.75073242 C156.76919235 54.57502243 156.55449799 55.39931244 156.33329773 56.24858093 C155.625902 58.95375408 154.90296426 61.65450253 154.1796875 64.35546875 C153.67745991 66.26263735 153.17618535 68.17005715 152.67581177 70.07771301 C151.35628729 75.09747096 150.02341149 80.11359012 148.68780518 85.12908936 C147.35113152 90.15870415 146.02790704 95.19185218 144.703125 100.22460938 C142.06108018 110.24767898 139.41109544 120.26849501 136.72585297 130.28008652 C135.93862425 133.22998696 135.16234046 136.18267481 134.38580322 139.13540649 C133.84880464 141.15455817 133.31151943 143.17363363 132.77392578 145.19262695 C132.52621367 146.14377727 132.27850155 147.09492758 132.023283 148.07490063 C131.67037288 149.39083438 131.67037288 149.39083438 131.31033325 150.73335266 C131.10519167 151.51037694 130.90005009 152.28740122 130.68869209 153.08797169 C130 155 130 155 128 157 C124.19233387 157.7139374 122.1621398 157.73054802 118.84375 155.64453125 C118.0703125 155.06058594 117.296875 154.47664062 116.5 153.875 C100.85584991 142.16559069 80.48945223 139.97216443 61.515625 139.75390625 C59.50650681 139.72092218 57.49739233 139.68771143 55.48828125 139.65429688 C52.38918993 139.60741456 49.2901083 139.56301536 46.19091797 139.52319336 C35.12076426 139.37465442 24.11301234 139.06687054 13.08203125 138.078125 C11.76884918 137.96127098 11.76884918 137.96127098 10.42913818 137.84205627 C4.6917119 137.28235369 -0.92114304 136.36948974 -6.5625 135.1875 C-7.58340729 134.97842262 -7.58340729 134.97842262 -8.62493896 134.76512146 C-13.40497836 133.60264575 -15.75051757 131.59882951 -19 128 C-21.03624625 126.45206501 -21.03624625 126.45206501 -23.0625 125.25 C-23.71347656 124.84265625 -24.36445313 124.4353125 -25.03515625 124.015625 C-27.02407839 122.98755391 -28.82917079 122.50480461 -31 122 C-29.48030274 114.92529287 -27.72008263 107.93380613 -25.875 100.9375 C-25.59785156 99.88111328 -25.32070313 98.82472656 -25.03515625 97.73632812 C-24.35826901 95.15715434 -23.67985409 92.57839302 -23 90 C-18.20012303 91.87606332 -13.76224337 94.21168092 -9.23046875 96.66015625 C-5.33719293 98.44248813 -5.33719293 98.44248813 2 99 C4.31 90.42 6.62 81.84 9 73 C5.7 72.01 2.4 71.02 -1 70 C-3.19652099 69.04509652 -5.37022199 68.03321474 -7.5 66.9375 C-8.5003125 66.43089844 -9.500625 65.92429687 -10.53125 65.40234375 C-13 64 -13 64 -15 62 C-14.61923712 55.79702647 -13.07589873 49.97533654 -11.4375 44 C-11.20353516 43.12988281 -10.96957031 42.25976562 -10.72851562 41.36328125 C-10.15709256 39.24085272 -9.58085043 37.11986406 -9 35 C-5.1653776 35 -2.61837352 36.57056902 0.6875 38.3125 C5.70025183 40.89402185 10.6584665 43.18387861 16 45 C15.35526842 51.34356592 14.03675927 57.33413185 12.4375 63.5 C11.633125 66.635 10.82875 69.77 10 73 C20.56 74.32 31.12 75.64 42 77 C39.73722628 90.57664234 39.73722628 90.57664234 37.9375 96.6875 C37.42509766 98.45673828 37.42509766 98.45673828 36.90234375 100.26171875 C36 103 36 103 35 104 C32.56942007 104.1299937 30.18151363 104.19000614 27.75 104.1875 C27.03360352 104.18741943 26.31720703 104.18733887 25.57910156 104.18725586 C17.58203213 104.10310415 9.73737954 103.04487888 2 101 C1.89042969 101.65484375 1.78085937 102.3096875 1.66796875 102.984375 C0.43477268 110.08277187 -1.17574825 117.0313583 -3 124 C7.73628851 125.26976168 18.1765123 126.2546703 29 126 C30.98 119.07 32.96 112.14 35 105 C46.22 105 57.44 105 69 105 C70.32 99.72 71.64 94.44 73 89 C73.99 85.04 74.98 81.08 76 77 C65.11 77 54.22 77 43 77 C43.67936837 70.8856847 44.38029513 65.96960818 46 60.1875 C46.350625 58.92292969 46.70125 57.65835938 47.0625 56.35546875 C47.371875 55.24816406 47.68125 54.14085937 48 53 C48.33982605 51.66830666 48.67696925 50.33586677 49 49 C48.41476562 49.03480469 47.82953125 49.06960937 47.2265625 49.10546875 C37.30369645 49.41835191 26.44914914 48.14971638 17 45 C17.76321867 39.97079064 18.8772911 35.06686041 20.0625 30.125 C20.24876953 29.34125 20.43503906 28.5575 20.62695312 27.75 C21.08284715 25.83290719 21.54117527 23.9163935 22 22 C20.80375 21.814375 19.6075 21.62875 18.375 21.4375 C13.82237203 20.41934039 9.69430741 18.6923768 5.5 16.6875 C4.87657715 16.40382568 4.2531543 16.12015137 3.61083984 15.82788086 C0.75604542 14.408372 -0.77947035 13.56248454 -1.96484375 10.5390625 C-2.01781516 6.71334991 -1.05784874 3.6713574 0 0 Z " fill="#E2E2E2" transform="translate(353,127)"/>
<path d="M0 0 C3.960716 2.70048818 5.97709026 5.77710212 7.625 10.25 C7.77478062 13.39539294 7.11973958 15.90997691 6.22265625 18.91015625 C5.59407689 21.18636047 5.59407689 21.18636047 5.75 24.875 C13.28348722 28.78641228 20.57175048 32.47792686 28.75 34.875 C28.19636539 42.90270189 26.09312056 50.21354067 23.75 57.875 C39.70328323 60.26994681 39.70328323 60.26994681 55.75 61.875 C55.17108303 68.46933006 53.95140347 74.56612499 52.1875 80.9375 C51.383125 83.886875 50.57875 86.83625 49.75 89.875 C60.64 89.875 71.53 89.875 82.75 89.875 C80.75 101.875 80.75 101.875 75.75 117.875 C64.53 117.875 53.31 117.875 41.75 117.875 C41.09 121.505 40.43 125.135 39.75 128.875 C39.27265507 130.76154027 38.76552839 132.64183544 38.1875 134.5 C37.93871094 135.31726563 37.68992187 136.13453125 37.43359375 136.9765625 C36.75 138.875 36.75 138.875 35.75 139.875 C25.57551666 140.59339538 13.52395921 140.1329864 3.75 136.875 C4.11620268 128.76361071 6.16540233 121.54464333 8.75 113.875 C9.7915625 114.019375 10.833125 114.16375 11.90625 114.3125 C21.95263685 115.63659797 31.61438566 116.05762368 41.75 115.875 C44.06 107.295 46.37 98.715 48.75 89.875 C45.45 89.875 42.15 89.875 38.75 89.875 C36.98431967 89.71910979 35.220541 89.5243819 33.46875 89.25390625 C32.60765625 89.12306641 31.7465625 88.99222656 30.859375 88.85742188 C29.99828125 88.71884766 29.1371875 88.58027344 28.25 88.4375 C26.91195312 88.23543945 26.91195312 88.23543945 25.546875 88.02929688 C19.0364011 87.01820055 19.0364011 87.01820055 16.75 85.875 C17.33346033 77.56069025 19.51622636 69.87004816 21.75 61.875 C22.08982605 60.54330666 22.42696925 59.21086677 22.75 57.875 C22.16734375 57.72804687 21.5846875 57.58109375 20.984375 57.4296875 C13.74866825 55.45010735 7.36699652 52.37195702 0.75 48.875 C-0.24 48.38 -0.24 48.38 -1.25 47.875 C-2.28862034 51.5994451 -3.30272543 55.33014035 -4.3125 59.0625 C-4.60705078 60.11759766 -4.90160156 61.17269531 -5.20507812 62.25976562 C-5.47900391 63.28134766 -5.75292969 64.30292969 -6.03515625 65.35546875 C-6.29176025 66.29285889 -6.54836426 67.23024902 -6.81274414 68.19604492 C-7.29282417 71.13737278 -7.18849553 73.0507226 -6.25 75.875 C-4.02321065 77.35549767 -2.097364 78.42506323 0.3125 79.5 C0.94494629 79.79849854 1.57739258 80.09699707 2.22900391 80.40454102 C6.65855424 82.46739406 11.12592827 84.30281561 15.75 85.875 C12.51595745 109.10904255 12.51595745 109.10904255 8.75 112.875 C-0.30384724 112.875 -8.86315968 107.79956021 -16.25 102.875 C-16.3325 103.885625 -16.415 104.89625 -16.5 105.9375 C-17.68616762 115.44378618 -20.63975265 125.02989398 -24.25 133.875 C-25.60931641 133.93107422 -25.60931641 133.93107422 -26.99609375 133.98828125 C-38.66971718 134.61828632 -46.25210306 136.29911402 -55.25 143.875 C-53.92087447 133.21907983 -51.01577287 122.97670188 -48.24804688 112.6262207 C-43.07957145 93.20018722 -38.18733598 73.70890364 -33.35449219 54.19702148 C-31.34356622 46.08353959 -29.31073411 37.97597675 -27.25 29.875 C-26.97768555 28.79841125 -26.70537109 27.72182251 -26.42480469 26.61260986 C-25.65052477 23.57277708 -24.8596078 20.5378226 -24.0625 17.50390625 C-23.72400024 16.16669777 -23.72400024 16.16669777 -23.37866211 14.80247498 C-21.73148326 8.64370408 -19.96510408 3.72620733 -14.5 0 C-9.26797201 -1.81108661 -5.23202799 -1.81108661 0 0 Z " fill="#FD528E" transform="translate(346.25,114.125)"/>
<path d="M0 0 C6.80939277 6.07392763 9.20860684 11.99437538 9.88378906 20.96679688 C11.33781939 58.91821042 -2.73082675 96.15444584 -20.1796875 129.1796875 C-23.77981298 135.9936589 -26.16060102 142.34135643 -27.75976562 149.85009766 C-28.8222974 154.8222974 -28.8222974 154.8222974 -31 157 C-33.9375 157.375 -33.9375 157.375 -37 157 C-39.09799451 154.88266913 -39.94433708 153.61532823 -40.21484375 150.625 C-39.02735599 139.38567921 -35.28130945 130.30694144 -29.8527832 120.48730469 C-25.9511893 113.2501594 -22.80569095 105.72155912 -19.6875 98.125 C-19.43315186 97.507388 -19.17880371 96.889776 -18.91674805 96.25344849 C-12.82473153 81.6357179 -12.82473153 81.6357179 -8.25 66.5 C-8.00765625 65.5203125 -7.7653125 64.540625 -7.515625 63.53125 C-6.90019776 60.94060065 -6.90019776 60.94060065 -7 58 C-8.175625 58.495 -8.175625 58.495 -9.375 59 C-18.85597302 61.61544083 -26.42532183 59.60873791 -35 55 C-41.8956309 50.05863748 -47.20022218 42.37879757 -49 34 C-50.02182203 22.93837108 -48.01303671 14.66133359 -41 6 C-30.70111404 -5.2095243 -13.29426715 -8.50738308 0 0 Z " fill="#688490" transform="translate(332,252)"/>
<path d="M0 0 C5.11412169 14.15697263 -12.78446413 44.30225903 -18.61132812 56.81738281 C-21.07164877 62.03938869 -23.61354381 67.20453764 -26.25 72.33984375 C-28.36741721 76.554007 -29.93257273 80.32426035 -30.875 84.9375 C-31.09929687 85.97777344 -31.32359375 87.01804687 -31.5546875 88.08984375 C-32.09289439 91.60707298 -32.4189008 94.65497515 -31.3515625 98.08203125 C-31 100 -31 100 -31.8984375 101.82421875 C-33.56038966 103.92144409 -35.2465479 105.97816238 -37 108 C-37.94746094 109.10794922 -37.94746094 109.10794922 -38.9140625 110.23828125 C-52.16303664 124.60374197 -71.70017593 131.12124087 -90.80859375 132.21875 C-107.95544209 132.77758837 -127.58365819 129.45297472 -141 118 C-141 117.67 -141 117.34 -141 117 C-140.22398437 116.98582031 -139.44796875 116.97164063 -138.6484375 116.95703125 C-117.76190095 116.03483334 -103.39595432 104.93020285 -89 91 C-88.3090625 90.33742188 -87.618125 89.67484375 -86.90625 88.9921875 C-83.02182838 85.19295056 -79.48619633 81.16642977 -76 77 C-73.0625 77.75 -73.0625 77.75 -70 79 C-68.47355625 82.40981714 -69.35230231 84.75924785 -70.5 88.1875 C-72.37167892 94.61817665 -72.4336671 99.70256568 -69.75 105.875 C-66.7261477 109.54682065 -64.30632488 110.85749183 -59.5625 111.375 C-55.72688046 110.97125057 -53.34001131 109.86419236 -50 108 C-49.34 108 -48.68 108 -48 108 C-46.21991796 102.94392361 -44.68980462 97.92420969 -43.421875 92.71484375 C-43.14730469 91.60689453 -42.87273437 90.49894531 -42.58984375 89.35742188 C-42.02991872 87.07735509 -41.48562465 84.7933929 -40.95703125 82.50585938 C-39.27440177 75.84900497 -37.41649858 71.78421516 -32.62646484 66.88598633 C-27.50219419 60.94407837 -27.73768891 53.65626436 -28.125 46.25 C-28.52577456 30.91213811 -24.29865754 16.29749493 -19 2 C-18.13117188 2.02320313 -17.26234375 2.04640625 -16.3671875 2.0703125 C-15.21476562 2.08835937 -14.06234375 2.10640625 -12.875 2.125 C-11.73804688 2.14820313 -10.60109375 2.17140625 -9.4296875 2.1953125 C-5.94242233 1.99672109 -3.2446138 1.2524801 0 0 Z " fill="#B0B8C5" transform="translate(325,309)"/>
<path d="M0 0 C2 2 2 2 2.25 5 C2 8 2 8 0 10 C0.33 10.99 0.66 11.98 1 13 C2.11375 12.67 3.2275 12.34 4.375 12 C11.53835789 10.25345691 18.55357462 9.76948236 25.12109375 13.55078125 C31.55442316 18.51287109 36.3320086 26.07457342 38 34 C38.99776617 43.63051769 39.47873456 53.63872566 34 62 C33.443125 63.051875 32.88625 64.10375 32.3125 65.1875 C27.00968964 71.63686396 19.98532835 75.35074404 11.6953125 76.25 C1.62091262 76.75215077 -6.61638742 72.6298688 -14 66 C-21.30635 59.07418906 -26.17880164 50.98195624 -26.5625 40.75 C-26.21712237 34.0496739 -24.57999637 30.49750981 -19.80078125 25.87109375 C-17.57147393 23.86435818 -15.2966683 21.92866933 -13 20 C-12.34 19.34 -11.68 18.68 -11 18 C-11.66 17.34 -12.32 16.68 -13 16 C-13.804375 16.04125 -14.60875 16.0825 -15.4375 16.125 C-18 16 -18 16 -19.875 14.3125 C-21 12 -21 12 -20.9375 9.4375 C-19.24718743 5.04268731 -15.7332198 3.78366842 -11.6875 1.8125 C-7.65508208 0.07576555 -4.43014884 -0.54246721 0 0 Z " fill="#688490" transform="translate(192,251)"/>
<path d="M0 0 C5.23236471 2.05733811 10.37277755 4.31894562 15.52734375 6.5625 C18.65384876 7.8567113 21.77637492 8.97631448 25 10 C24.44636539 18.02770189 22.34312056 25.33854067 20 33 C35.95328323 35.39494681 35.95328323 35.39494681 52 37 C51.42108303 43.59433006 50.20140347 49.69112499 48.4375 56.0625 C47.633125 59.011875 46.82875 61.96125 46 65 C56.89 65 67.78 65 79 65 C77 77 77 77 72 93 C60.78 93 49.56 93 38 93 C37.34 96.63 36.68 100.26 36 104 C35.52265507 105.88654027 35.01552839 107.76683544 34.4375 109.625 C34.18871094 110.44226563 33.93992187 111.25953125 33.68359375 112.1015625 C33 114 33 114 32 115 C21.82551666 115.71839538 9.77395921 115.2579864 0 112 C0.36620268 103.88861071 2.41540233 96.66964333 5 89 C6.0415625 89.144375 7.083125 89.28875 8.15625 89.4375 C18.20263685 90.76159797 27.86438566 91.18262368 38 91 C40.31 82.42 42.62 73.84 45 65 C41.7 65 38.4 65 35 65 C33.23431967 64.84410979 31.470541 64.6493819 29.71875 64.37890625 C28.85765625 64.24806641 27.9965625 64.11722656 27.109375 63.98242188 C26.24828125 63.84384766 25.3871875 63.70527344 24.5 63.5625 C23.60796875 63.42779297 22.7159375 63.29308594 21.796875 63.15429688 C15.2864011 62.14320055 15.2864011 62.14320055 13 61 C13.58346033 52.68569025 15.76622636 44.99504816 18 37 C18.33982605 35.66830666 18.67696925 34.33586677 19 33 C18.41734375 32.85304687 17.8346875 32.70609375 17.234375 32.5546875 C9.62548553 30.47301019 0.68014251 27.68014251 -5 22 C-4.44746441 18.93593899 -3.76964194 16.01127664 -3 13 C-2.45392209 10.64685266 -1.91236551 8.29265218 -1.375 5.9375 C-0.91702908 3.95824944 -0.45882227 1.97905338 0 0 Z " fill="#797879" transform="translate(350,139)"/>
<path d="M0 0 C0 3 0 3 -1.5 5.75 C-4.54275564 12.49886085 -4.10872049 21.80688498 -1.73046875 28.65625 C-1 32 -1 32 -2.5625 34.625 C-3.366875 35.40875 -4.17125 36.1925 -5 37 C-5.84820312 37.85464844 -6.69640625 38.70929688 -7.5703125 39.58984375 C-8.37210937 40.38519531 -9.17390625 41.18054688 -10 42 C-10.97280385 43.175675 -11.93333576 44.36173879 -12.875 45.5625 C-21.52773736 55.69311537 -35.47672859 66.82043935 -49.1015625 68.34765625 C-55.16985114 68.61968298 -60.36842812 68.53453071 -65.35546875 64.796875 C-72.70585143 56.76557801 -75.24876835 43.52682933 -75 33 C-73.48019531 32.60167969 -73.48019531 32.60167969 -71.9296875 32.1953125 C-70.57809823 31.83864311 -69.22653722 31.48186657 -67.875 31.125 C-67.20984375 30.95097656 -66.5446875 30.77695312 -65.859375 30.59765625 C-62.79069617 29.78535891 -59.81436278 28.93386389 -56.8203125 27.8671875 C-53.98494192 26.99536995 -51.93938893 26.92651528 -49 27 C-42.19692599 26.48517278 -37.87251114 22.75305204 -32.671875 18.76171875 C-22.69096117 11.10523699 -11.30359119 5.41666697 0 0 Z " fill="#B0B8C5" transform="translate(242,347)"/>
<path d="M0 0 C1.7590332 0.05419922 1.7590332 0.05419922 4.05078125 0.3046875 C5.30906738 0.43738037 5.30906738 0.43738037 6.59277344 0.57275391 C7.93903809 0.72236572 7.93903809 0.72236572 9.3125 0.875 C11.13663821 1.0684692 12.9608571 1.26117927 14.78515625 1.453125 C15.67605957 1.54787109 16.56696289 1.64261719 17.48486328 1.74023438 C22.31664515 2.23926523 27.15706515 2.62595219 32 3 C31.42233236 11.37618085 29.43012058 17.49457798 27 26 C37.89 26 48.78 26 60 26 C58.875 36.125 58.875 36.125 57.80859375 40.03515625 C57.58623047 40.86337891 57.36386719 41.69160156 57.13476562 42.54492188 C56.90466797 43.37572266 56.67457031 44.20652344 56.4375 45.0625 C56.20353516 45.92810547 55.96957031 46.79371094 55.72851562 47.68554688 C55.1582666 49.79197695 54.57998166 51.89622889 54 54 C55.258125 53.938125 56.51625 53.87625 57.8125 53.8125 C66.98212015 53.78607458 77.27791944 55.09263981 86 58 C85.36672776 64.15483693 84.1455841 69.96054983 82.5625 75.9375 C82.34529297 76.79923828 82.12808594 77.66097656 81.90429688 78.54882812 C81.68966797 79.36673828 81.47503906 80.18464844 81.25390625 81.02734375 C81.06127197 81.76718506 80.8686377 82.50702637 80.67016602 83.26928711 C80 85 80 85 78 86 C76.01977539 85.85400391 76.01977539 85.85400391 73.59765625 85.4765625 C72.71166748 85.34290283 71.82567871 85.20924316 70.9128418 85.0715332 C69.50192261 84.85049927 69.50192261 84.85049927 68.0625 84.625 C60.71981512 83.51976354 53.41340221 82.50348633 46 82 C48.33333333 72.66666667 50.66666667 63.33333333 53 54 C42.11 54 31.22 54 20 54 C20.67936837 47.8856847 21.38029513 42.96960818 23 37.1875 C23.5259375 35.29064453 23.5259375 35.29064453 24.0625 33.35546875 C24.371875 32.24816406 24.68125 31.14085937 25 30 C25.33982605 28.66830666 25.67696925 27.33586677 26 26 C25.41476562 26.03480469 24.82953125 26.06960937 24.2265625 26.10546875 C14.30369645 26.41835191 3.44914914 25.14971638 -6 22 C-5.29947234 17.3079241 -4.23215499 12.76343793 -3 8.1875 C-2.82210938 7.50751953 -2.64421875 6.82753906 -2.4609375 6.12695312 C-1.12421344 1.12421344 -1.12421344 1.12421344 0 0 Z " fill="#FCFCFC" transform="translate(376,150)"/>
<path d="M0 0 C11.22 0 22.44 0 34 0 C32.71177184 7.72936895 31.43449421 14.66405746 29 22 C30.08796875 22.04898438 31.1759375 22.09796875 32.296875 22.1484375 C52.4204631 23.14015437 52.4204631 23.14015437 61 26 C60.42100187 32.59525453 59.20265263 38.6891618 57.4375 45.0625 C57.20353516 45.92810547 56.96957031 46.79371094 56.72851562 47.68554688 C56.1582666 49.79197695 55.57998166 51.89622889 55 54 C55.64485352 54.16862549 56.28970703 54.33725098 56.95410156 54.51098633 C74.34315065 59.16150296 74.34315065 59.16150296 78.22192383 64.76538086 C79.25233362 67.72469708 78.74386086 69.34542983 77.91796875 72.3515625 C77.64533203 73.36734375 77.37269531 74.383125 77.09179688 75.4296875 C76.79337891 76.48414063 76.49496094 77.53859375 76.1875 78.625 C75.75727539 80.21828125 75.75727539 80.21828125 75.31835938 81.84375 C73.20368304 89.59263393 73.20368304 89.59263393 72 92 C67.03259791 90.52320478 62.46034214 88.41112605 57.76953125 86.2421875 C54.23128566 84.65521698 50.64941367 83.30828037 47 82 C49.33333333 72.66666667 51.66666667 63.33333333 54 54 C50.54209039 53.51774365 47.08359999 53.03977792 43.625 52.5625 C42.65949219 52.42779297 41.69398438 52.29308594 40.69921875 52.15429688 C34.47640284 51.29813764 28.25501114 50.57605167 22 50 C22.58346033 41.68569025 24.76622636 33.99504816 27 26 C27.33 24.68 27.66 23.36 28 22 C17.11 22 6.22 22 -5 22 C-4 14 -4 14 0 0 Z " fill="#797879" transform="translate(408,154)"/>
<path d="M0 0 C1.0621875 0.54269531 2.124375 1.08539063 3.21875 1.64453125 C4.64572284 2.36740565 6.07281246 3.09004957 7.5 3.8125 C8.19609375 4.16892578 8.8921875 4.52535156 9.609375 4.89257812 C14.31485367 7.26710208 19.03546301 9.22774974 24 11 C23.35526842 17.34356592 22.03675927 23.33413185 20.4375 29.5 C19.633125 32.635 18.82875 35.77 18 39 C28.56 40.32 39.12 41.64 50 43 C47.73722628 56.57664234 47.73722628 56.57664234 45.9375 62.6875 C45.42509766 64.45673828 45.42509766 64.45673828 44.90234375 66.26171875 C44 69 44 69 43 70 C40.56942007 70.1299937 38.18151363 70.19000614 35.75 70.1875 C35.03360352 70.18741943 34.31720703 70.18733887 33.57910156 70.18725586 C25.58203213 70.10310415 17.73737954 69.04487888 10 67 C9.89042969 67.67804688 9.78085937 68.35609375 9.66796875 69.0546875 C8.83274387 73.95738963 7.89694423 78.81524368 6.625 83.625 C6.41101563 84.44226563 6.19703125 85.25953125 5.9765625 86.1015625 C5 88 5 88 3.25390625 88.90625 C-4.53258577 89.23012488 -13.46583445 82.87759824 -20 79 C-19.44636539 70.97229811 -17.34312056 63.66145933 -15 56 C-10.1828538 57.82294198 -5.75582396 60.21514927 -1.23046875 62.66015625 C2.66280707 64.44248813 2.66280707 64.44248813 10 65 C12.31 56.42 14.62 47.84 17 39 C13.7 38.01 10.4 37.02 7 36 C4.80347901 35.04509652 2.62977801 34.03321474 0.5 32.9375 C-0.5003125 32.43089844 -1.500625 31.92429688 -2.53125 31.40234375 C-5 30 -5 30 -7 28 C-6.61475502 21.82920094 -5.10863318 16.01444276 -3.5 10.0625 C-3.27441406 9.20076172 -3.04882812 8.33902344 -2.81640625 7.45117188 C-1.13375235 1.13375235 -1.13375235 1.13375235 0 0 Z " fill="#FDFCFC" transform="translate(345,161)"/>
<path d="M0 0 C6.89196558 0.00082539 13.43043698 0.78913499 20.1875 2.1875 C21.59128906 2.46787109 21.59128906 2.46787109 23.0234375 2.75390625 C24.09464844 2.96853516 24.09464844 2.96853516 25.1875 3.1875 C24.63386539 11.21520189 22.53062056 18.52604067 20.1875 26.1875 C20.77015625 26.33445313 21.3528125 26.48140625 21.953125 26.6328125 C29.56201447 28.71448981 38.50735749 31.50735749 44.1875 37.1875 C44.00496065 40.91551526 43.01649004 44.55593448 42.1875 48.1875 C42.03974121 48.83702637 41.89198242 49.48655273 41.73974609 50.15576172 C41.26211789 52.21312445 40.76069133 54.26311188 40.25 56.3125 C40.09257324 56.97596436 39.93514648 57.63942871 39.77294922 58.32299805 C39.28515625 60.1953125 39.28515625 60.1953125 38.1875 63.1875 C35.1875 64.1875 35.1875 64.1875 32.62109375 63.11328125 C31.63238281 62.58089844 30.64367187 62.04851562 29.625 61.5 C24.25612901 58.69458508 18.85399805 56.31870502 13.1875 54.1875 C13.76649813 47.59224547 14.98484737 41.4983382 16.75 35.125 C16.98396484 34.25939453 17.21792969 33.39378906 17.45898438 32.50195312 C18.0292334 30.39552305 18.60751834 28.29127111 19.1875 26.1875 C18.50236328 26.10185791 17.81722656 26.01621582 17.11132812 25.92797852 C16.15677734 25.80865967 15.20222656 25.68934082 14.21875 25.56640625 C13.17203125 25.43556641 12.1253125 25.30472656 11.046875 25.16992188 C3.1171875 24.17871094 3.1171875 24.17871094 -4.8125 23.1875 C-5.65941406 23.08163574 -6.50632812 22.97577148 -7.37890625 22.86669922 C-9.19010417 22.64029948 -11.00130208 22.41389974 -12.8125 22.1875 C-12.11197234 17.4954241 -11.04465499 12.95093793 -9.8125 8.375 C-9.63460938 7.69501953 -9.45671875 7.01503906 -9.2734375 6.31445312 C-7.51357442 -0.27190011 -6.78245274 0.03435893 0 0 Z " fill="#FDFCFD" transform="translate(449.8125,153.8125)"/>
<path d="M0 0 C0.73234863 0.00467285 1.46469727 0.0093457 2.21923828 0.01416016 C10.79928447 0.24009586 20.88743651 1.61245767 28.125 6.4375 C29.24082276 11.09484716 29.06018987 15.67746715 26.80078125 19.9296875 C25.61066808 21.56107859 24.38164848 23.16459185 23.12109375 24.7421875 C20.14677869 28.75838591 18.18539398 33.22521914 16.09375 37.75 C13.51417844 41.27131991 11.26236126 41.40197215 7.125 42.4375 C5.69116701 44.07869399 5.69116701 44.07869399 5.1875 46.0625 C4.836875 47.17625 4.48625 48.29 4.125 49.4375 C1.67021539 48.4597032 0.35855485 47.79487599 -1.10546875 45.5546875 C-2.76827876 41.6589612 -3.99678324 38.51337448 -4.0625 34.25 C-4.46394471 30.45576554 -4.46394471 30.45576554 -6.75390625 28.8515625 C-8.34884143 27.85834092 -9.95604936 26.8845881 -11.57421875 25.9296875 C-15.00238498 23.70632672 -17.177582 21.14907908 -18.875 17.4375 C-19.66489719 13.01407573 -19.14248814 10.38498167 -16.75 6.6875 C-12.63962354 0.938346 -6.68469272 -0.0941941 0 0 Z " fill="#FDFEFE" transform="translate(43.875,182.5625)"/>
<path d="M0 0 C3.59839403 1.90415017 5.78913005 3.37750971 7.0625 7.2421875 C7.03597628 9.22330534 7.00147008 11.20562521 6.88256836 13.18334961 C6.50084873 19.65149387 6.25083193 24.39413698 10.5 29.6796875 C11.66846554 30.88592163 12.85200416 32.07813754 14.0625 33.2421875 C15.5408226 36.19883269 15.12282783 38.98448487 15.0625 42.2421875 C14.37542969 42.13519531 13.68835938 42.02820313 12.98046875 41.91796875 C12.07941406 41.79808594 11.17835938 41.67820313 10.25 41.5546875 C9.35667969 41.42707031 8.46335938 41.29945313 7.54296875 41.16796875 C6.72441406 41.19246094 5.90585938 41.21695313 5.0625 41.2421875 C4.58425781 41.75136719 4.10601562 42.26054687 3.61328125 42.78515625 C2.84564453 43.50638672 2.84564453 43.50638672 2.0625 44.2421875 C-0.62890625 44.0234375 -0.62890625 44.0234375 -3.9375 43.2421875 C-5.20464844 43.005 -6.47179687 42.7678125 -7.77734375 42.5234375 C-9.82784783 42.13342808 -11.87798511 41.74161377 -13.92773438 41.34765625 C-14.59998047 41.22003906 -15.27222656 41.09242188 -15.96484375 40.9609375 C-16.62436035 40.83525391 -17.28387695 40.70957031 -17.96337891 40.58007812 C-19.9083136 40.24718304 -21.87114704 40.02496737 -23.83203125 39.8046875 C-26.9375 39.2421875 -26.9375 39.2421875 -28.6875 36.7421875 C-29.1 35.9171875 -29.5125 35.0921875 -29.9375 34.2421875 C-30.9275 33.9121875 -31.9175 33.5821875 -32.9375 33.2421875 C-31.47753014 21.7831217 -24.42177292 10.81876781 -15.75 3.3046875 C-10.69162889 -0.40478464 -6.35508367 -2.48565773 0 0 Z " fill="#FEFEFE" transform="translate(236.9375,96.7578125)"/>
<path d="M0 0 C6.94478956 15.79995812 6.94478956 15.79995812 9 23 C9.20496094 23.71285156 9.40992188 24.42570312 9.62109375 25.16015625 C11.81433993 33.7365051 12.36945632 42.10136741 8 50 C6 52 6 52 2.75 52.375 C-4.87991447 51.61200855 -10.22438594 45.62654166 -15 40 C-29 20.92307692 -29 20.92307692 -29 14 C-29.66 13.67 -30.32 13.34 -31 13 C-27.35307438 11.30728752 -23.70518566 9.61667035 -20.05639648 7.92797852 C-18.81557069 7.35335703 -17.57500833 6.77816634 -16.3347168 6.20239258 C-14.55066379 5.37431191 -12.76557906 4.5484552 -10.98046875 3.72265625 C-9.90692139 3.22515869 -8.83337402 2.72766113 -7.72729492 2.21508789 C-2.75547519 0 -2.75547519 0 0 0 Z " fill="#91A2B5" transform="translate(153,153)"/>
<path d="M0 0 C2.38235135 0.01836534 4.76431331 0.02050805 7.14672852 0.02026367 C14.88128329 0.03867425 22.50265834 0.24034751 30.18774414 1.20581055 C30.18774414 1.86581055 30.18774414 2.52581055 30.18774414 3.20581055 C28.57836914 4.79174805 28.57836914 4.79174805 26.43774414 6.58081055 C23.56337094 9.02198921 20.80230422 11.48231047 18.18774414 14.20581055 C17.46586914 13.77268555 16.74399414 13.33956055 16.00024414 12.89331055 C7.97324088 8.97314616 -0.86003886 7.91772833 -9.68725586 7.76831055 C-10.38826416 7.74615479 -11.08927246 7.72399902 -11.81152344 7.70117188 C-17.32636727 7.72409853 -20.37351148 9.18724159 -24.81225586 12.20581055 C-27.2212891 15.08110829 -27.76168828 16.86447936 -28.31225586 20.58081055 C-27.66727385 25.25693014 -26.17295251 27.91448608 -22.81225586 31.20581055 C-21.26715895 32.15151641 -19.70337939 33.06719827 -18.12475586 33.95581055 C-15.22913044 35.73626122 -14.0345198 36.57401348 -12.89428711 39.81518555 C-12.59151669 41.73014374 -12.33557265 43.65313764 -12.12866211 45.58081055 C-11.7244108 48.9345992 -10.59380991 51.35532407 -8.81225586 54.20581055 C-8.21413086 54.65956055 -7.61600586 55.11331055 -6.99975586 55.58081055 C-5.81225586 57.20581055 -5.81225586 57.20581055 -6.07006836 59.1628418 C-6.57599602 61.19724106 -7.18883138 63.20428985 -7.81225586 65.20581055 C-22.33701342 59.29976256 -35.21780762 38.52073046 -41.39819336 24.8503418 C-43.27892026 20.00305395 -43.88070871 17.30150878 -42.81225586 12.20581055 C-39.44148787 6.44288463 -35.05685948 4.217525 -28.81225586 2.20581055 C-19.24704993 0.06797098 -9.74219704 -0.07756687 0 0 Z " fill="#B0B9C5" transform="translate(53.812255859375,175.794189453125)"/>
<path d="M0 0 C7.49358473 3.41441562 10.23807776 11.80656907 13 19 C13.9154866 21.65539045 14.51872324 24.2352186 15 27 C15.27457031 28.32257813 15.27457031 28.32257813 15.5546875 29.671875 C17.42323111 39.7568912 17.18325036 49.78888297 17 60 C10.53928571 58.82142857 10.53928571 58.82142857 8 56 C8.04125 54.96875 8.0825 53.9375 8.125 52.875 C7.96878749 48.03241207 6.31249068 45.92737259 3.5078125 42.11328125 C-0.65871167 36.27367094 -0.09817788 31.61714758 0.125 24.53125 C0.00866786 21.24486707 -0.1244434 19.63456111 -2 17 C-6.39862913 14.13577638 -9.79705825 13.28235286 -15 14 C-25.97554734 18.79514204 -32.81470049 30.03675122 -37.109375 40.7734375 C-37.79724783 42.83056663 -38.40870062 44.91306102 -39 47 C-47.415 47.495 -47.415 47.495 -56 48 C-49.24322431 37.52699768 -41.50692746 28.09979274 -33 19 C-31.69869141 17.60007812 -31.69869141 17.60007812 -30.37109375 16.171875 C-22.28933326 7.75672752 -12.52812586 -2.01933608 0 0 Z " fill="#B0B8C5" transform="translate(243,83)"/>
<path d="M0 0 C4.22946375 2.14180526 7.42826175 4.41153835 9 9 C10.10196084 18.88091551 8.94878351 27.76828733 4.0625 36.4375 C-0.17962511 41.70801908 -0.17962511 41.70801908 -3.97265625 42.31640625 C-9.78779069 42.6256158 -14.26673745 41.40794904 -19 38 C-23.46098131 33.82586671 -26.48350175 29.58830366 -27.37109375 23.421875 C-27.54452499 16.44381811 -26.49681287 11.45965986 -22 6 C-15.71115964 -0.3280639 -8.67290706 -1.44922929 0 0 Z " fill="#AFB8C5" transform="translate(321,259)"/>
<path d="M0 0 C4.83037154 2.46075532 7.35390562 5.29583221 10 10 C11.86391699 15.9066018 12.28536387 22.8316492 9.94140625 28.609375 C6.74168118 33.77749462 2.85071687 38.02443326 -3 40 C-8.8356109 40.80889656 -14.75103914 41.12322559 -20.0625 38.25 C-21.031875 37.5075 -22.00125 36.765 -23 36 C-23.78375 35.443125 -24.5675 34.88625 -25.375 34.3125 C-27.99857732 30.57894766 -28.57688896 27.5317833 -28 23 C-24.67116774 13.72379544 -19.61848776 5.07898848 -11.03515625 -0.2109375 C-7.32969973 -1.64760202 -3.7877749 -0.90247854 0 0 Z " fill="#AFB8C5" transform="translate(276,339)"/>
<path d="M0 0 C0.19916016 1.73636719 0.19916016 1.73636719 0.40234375 3.5078125 C0.83870778 7.00642079 1.44636987 10.4331101 2.15576172 13.88525391 C5.46757041 30.0864789 5.46757041 30.0864789 2.6875 37.5 C1 40 1 40 -2 42 C-9.64319233 41.66030256 -14.73648731 36.77806118 -19.83984375 31.546875 C-22.44824727 28.47150593 -24.68271325 25.2552013 -26.875 21.875 C-27.2563208 21.28928223 -27.6376416 20.70356445 -28.03051758 20.10009766 C-30.27808773 16.51590243 -31.82740374 13.060886 -33 9 C-8.94174757 0 -8.94174757 0 0 0 Z " fill="#91A2B5" transform="translate(188,142)"/>
<path d="M0 0 C2 1 2 1 3.25390625 4.16796875 C3.69788986 5.50525273 4.13374525 6.84525589 4.5625 8.1875 C4.78357422 8.84814453 5.00464844 9.50878906 5.23242188 10.18945312 C7.47495692 17.05255886 8.19999624 23.40571117 8.25 30.5625 C8.270625 31.30435547 8.29125 32.04621094 8.3125 32.81054688 C8.34520191 37.40107814 7.8759523 40.21623448 5 44 C4 45 4 45 0.9375 45.4375 C-7.26714171 44.52587314 -12.59011833 37.76021245 -17.8125 31.8125 C-21.4119597 27.18462324 -24.24162735 22.16197067 -27 17 C-9.73658326 4.13655455 -9.73658326 4.13655455 0 0 Z " fill="#91A2B4" transform="translate(120,167)"/>
<path d="M0 0 C1.73960997 2.60941495 3.11661019 5.13276151 4.5 7.9375 C4.9228125 8.79214844 5.345625 9.64679688 5.78125 10.52734375 C6.53656291 12.05975745 7.25335386 13.61263585 7.90625 15.19140625 C9.30986599 17.51238554 10.51219971 17.96782754 13 19 C18 21.5 18 21.5 23 24 C21.85910812 31.35575027 20.12306696 38.40122222 18.01953125 45.5390625 C16.60542729 50.33943074 15.30163779 55.16816276 14 60 C11.75452201 57.87340026 10.00830978 55.66368322 8.25 53.125 C3.31609163 46.5018964 -2.26991569 43.57669477 -10 41 C-9.3510228 34.33611215 -7.85825527 28.08454646 -6.125 21.625 C-5.86847656 20.64789063 -5.61195313 19.67078125 -5.34765625 18.6640625 C-3.69079979 12.40297679 -1.90164947 6.19098213 0 0 Z " fill="#FB538F" transform="translate(283,286)"/>
<path d="M0 0 C1.95654915 3.91309831 -0.60815789 9.00427431 -1.6875 13.0625 C-1.94466797 14.07505859 -2.20183594 15.08761719 -2.46679688 16.13085938 C-6.68524601 32.20657093 -6.68524601 32.20657093 -10.90136719 35.47314453 C-15.17243339 37.90767409 -19.09663168 38.80236936 -24 38 C-28.30764071 35.98441656 -30.59900305 33.71144619 -32.9375 29.5625 C-34.78479666 23.36862296 -33.8475468 18.74499878 -32 12.625 C-31.62875 11.37976563 -31.2575 10.13453125 -30.875 8.8515625 C-30.58625 7.91054688 -30.2975 6.96953125 -30 6 C-28.80503906 6.04640625 -27.61007812 6.0928125 -26.37890625 6.140625 C-15.93902803 6.4235842 -8.84555064 5.89703376 0 0 Z " fill="#FB538F" transform="translate(286,383)"/>
<path d="M0 0 C1.32 0.66 2.64 1.32 4 2 C3.50954789 7.65552584 2.63284583 12.85267175 1 18.3125 C-2.21865607 29.39075122 -4.93257694 40.59531662 -7.70117188 51.79223633 C-10.92913556 64.82997242 -14.38240678 77.7974587 -17.9375 90.75 C-20.15631902 98.8529878 -22.32574405 106.9675149 -24.43920898 115.09863281 C-25.22113629 118.09739145 -26.01965689 121.05897066 -27 124 C-29.97 124.495 -29.97 124.495 -33 125 C-32.39611663 117.61404188 -30.79975205 110.77096035 -28.875 103.625 C-28.23810346 101.21619284 -27.6013899 98.80733728 -26.96484375 96.3984375 C-26.6385498 95.1722168 -26.31225586 93.94599609 -25.97607422 92.68261719 C-24.4376583 86.87834863 -22.93903804 81.06389486 -21.4375 75.25 C-18.79344862 65.04532738 -16.13798498 54.84366587 -13.47265625 44.64453125 C-12.45461675 40.74738069 -11.44236949 36.84877722 -10.43359375 32.94921875 C-8.25022852 24.51698199 -6.06361851 16.08507831 -3.75 7.6875 C-3.45609375 6.61886719 -3.1621875 5.55023438 -2.859375 4.44921875 C-2 2 -2 2 0 0 Z " fill="#FC7DA4" transform="translate(338,124)"/>
<path d="M0 0 C3.73685978 1.42779469 7.25729576 3.10631355 10.8125 4.9375 C15.47022228 7.29226936 20.07118243 9.29387084 25 11 C21.76595745 34.23404255 21.76595745 34.23404255 18 38 C9.82676224 38 2.94543056 33.94668167 -4 30 C-6 28 -6 28 -6.06665039 26.18969727 C-5.30732132 20.29353664 -4.02337687 14.6635372 -2.4375 8.9375 C-2.20353516 8.07189453 -1.96957031 7.20628906 -1.72851562 6.31445312 C-1.1582666 4.20802305 -0.57998166 2.10377111 0 0 Z " fill="#797778" transform="translate(337,189)"/>
<path d="M0 0 C7.47945632 -0.47293986 14.72947004 0.35206104 22.125 1.375 C23.0739917 1.50108643 24.0229834 1.62717285 25.00073242 1.75708008 C25.88994385 1.88622803 26.77915527 2.01537598 27.6953125 2.1484375 C28.49984863 2.26364746 29.30438477 2.37885742 30.13330078 2.49755859 C31.05731689 2.74626709 31.05731689 2.74626709 32 3 C33.62925453 6.25850907 32.07365377 9.43910785 31.1875 12.8125 C30.91969727 13.88081055 30.91969727 13.88081055 30.64648438 14.97070312 C29.67209775 18.7732733 28.56771701 22.38928525 27 26 C26.04222656 25.86722656 25.08445312 25.73445313 24.09765625 25.59765625 C14.07558941 24.25341858 4.09878122 23.47494268 -6 23 C-5.37650642 20.47878568 -4.75124639 17.95803069 -4.125 15.4375 C-3.86396484 14.38079102 -3.86396484 14.38079102 -3.59765625 13.30273438 C-2.48705185 8.83975002 -1.28798784 4.41512948 0 0 Z " fill="#797879" transform="translate(422,232)"/>
<path d="M0 0 C11.22 0 22.44 0 34 0 C31.73654066 12.44902635 31.73654066 12.44902635 30.4375 16.625 C30.18871094 17.44226563 29.93992187 18.25953125 29.68359375 19.1015625 C29 21 29 21 28 22 C25.55169574 22.08843793 23.13179401 22.11528752 20.68359375 22.09765625 C19.95253922 22.0962413 19.22148468 22.09482635 18.46827698 22.09336853 C16.12464368 22.08775408 13.78110461 22.07519922 11.4375 22.0625 C9.85221492 22.05748686 8.26692834 22.05292363 6.68164062 22.04882812 C2.7877239 22.03777997 -1.10612205 22.02050572 -5 22 C-4.44762588 13.85248169 -2.54086634 8.25781559 0 0 Z " fill="#FDFDFD" transform="translate(388,232)"/>
<path d="M0 0 C1.99609375 1.2890625 1.99609375 1.2890625 3.99609375 3.2890625 C3.76871249 8.29145032 2.10594436 11.42276174 -1.00390625 15.2890625 C-6.47794802 19.42252262 -11.12037566 21.17567109 -18.00390625 20.2890625 C-23.42653265 18.42408445 -27.92613117 15.26737965 -32.00390625 11.2890625 C-32.8515625 9.38671875 -32.8515625 9.38671875 -33.00390625 7.2890625 C-25.58336974 -5.42837014 -12.0197367 -6.57719992 0 0 Z " fill="#F980A5" transform="translate(215.00390625,295.7109375)"/>
<path d="M0 0 C9.06029778 1.22305974 17.52365537 5.96784496 25 11 C24.4082517 13.91969213 23.80221445 16.83513587 23.1875 19.75 C23.02185547 20.575 22.85621094 21.4 22.68554688 22.25 C21.07315943 29.79475636 21.07315943 29.79475636 18 33 C17.26136719 32.61328125 16.52273438 32.2265625 15.76171875 31.828125 C8.98316622 28.34841061 2.22530372 25.4179166 -5 23 C-3.76595745 3.76595745 -3.76595745 3.76595745 0 0 Z " fill="#FDFDFD" transform="translate(455,236)"/>
<path d="M0 0 C4.78721492 -0.48792767 8.31177572 1.25156192 12.5 3.3125 C13.15097656 3.62123047 13.80195313 3.92996094 14.47265625 4.24804688 C18.10246615 5.98962233 21.58189356 7.86368348 25 10 C23.89644911 17.55607786 22.40656211 24.74822618 20 32 C16.36482678 31.41451192 13.55419771 30.4181915 10.3125 28.6875 C5.32884114 26.109487 0.24025707 23.99575748 -5 22 C-4.38955672 14.36945905 -2.20378179 7.29810526 0 0 Z " fill="#797879" transform="translate(475,158)"/>
<path d="M0 0 C1 1 1 1 1.25 4.4375 C1.1675 5.613125 1.085 6.78875 1 8 C-2.81542378 10.54361585 -4.22577599 9.91543568 -8.6875 9.3125 C-14.34655511 8.83410565 -17.82616018 8.87507827 -22.40234375 12.32421875 C-24.69010366 14.72384956 -26.17010323 17.43702571 -27.78125 20.31640625 C-29 22 -29 22 -32.125 23.1875 C-35 23 -35 23 -36.875 21.9375 C-38.60421288 18.95941115 -38.58060275 17.41910507 -38 14 C-33.83945153 6.60838729 -27.32730417 0.12400601 -19.171875 -2.53125 C-12.13290229 -4.05045274 -6.3203441 -3.36188516 0 0 Z " fill="#625F60" transform="translate(259,233)"/>
<path d="M0 0 C2.25 1.5625 2.25 1.5625 3.25 2.5625 C3.4375 5.5 3.4375 5.5 3.25 8.5625 C1.25 10.5625 1.25 10.5625 -2.19921875 10.6171875 C-3.61206896 10.55944842 -5.0248276 10.49943708 -6.4375 10.4375 C-14.83494631 10.28402768 -14.83494631 10.28402768 -21.75 14.5625 C-23.3239694 16.90131386 -24.79724036 19.28758547 -26.26953125 21.69140625 C-27.75 23.5625 -27.75 23.5625 -31 24.25 C-33.75 23.5625 -33.75 23.5625 -35.75 21.5625 C-36.4861846 16.96134628 -35.88203561 14.22633302 -33.25 10.5 C-25.37861572 0.91663616 -12.33423515 -6.12210212 0 0 Z " fill="#615E5F" transform="translate(149.75,280.4375)"/>
<path d="M0 0 C4.32730054 6.49095082 7.98378725 12.00820088 6.65625 20.01171875 C6.4396875 20.99785156 6.223125 21.98398437 6 23 C5.85820312 23.67111816 5.71640625 24.34223633 5.5703125 25.03369141 C2.66286401 38.67427198 2.66286401 38.67427198 0 44 C-4.95 42.515 -4.95 42.515 -10 41 C-9.3510228 34.33611215 -7.85825527 28.08454646 -6.125 21.625 C-5.86847656 20.64789063 -5.61195313 19.67078125 -5.34765625 18.6640625 C-3.69079979 12.40297679 -1.90164947 6.19098213 0 0 Z " fill="#FA538F" transform="translate(283,286)"/>
<path d="M0 0 C2 2 2 2 2.5 4.875 C2 8 2 8 -0.46484375 9.9296875 C-4.48138649 12.41759041 -8.74940995 14.33936126 -13.0625 16.25 C-13.85205078 16.61351562 -14.64160156 16.97703125 -15.45507812 17.3515625 C-22.80651046 20.62982067 -22.80651046 20.62982067 -27 20 C-28.8125 18.8125 -28.8125 18.8125 -30 17 C-30.375 14.5 -30.375 14.5 -30 12 C-26.51699354 7.70396551 -21.03052513 5.98494967 -16.125 3.75 C-15.13113281 3.27820313 -14.13726562 2.80640625 -13.11328125 2.3203125 C-12.15035156 1.87945312 -11.18742187 1.43859375 -10.1953125 0.984375 C-9.31891113 0.57928711 -8.44250977 0.17419922 -7.53955078 -0.24316406 C-4.56776981 -1.12881307 -2.92938237 -0.95386809 0 0 Z " fill="#91A2B5" transform="translate(284,241)"/>
<path d="M0 0 C2 2 2 2 2.3125 4.9375 C1.9559675 8.43151848 1.60422845 8.85067916 -1 11 C-4.14634706 12.77735137 -7.45648384 14.20399811 -10.75 15.6875 C-11.63171875 16.10322266 -12.5134375 16.51894531 -13.421875 16.94726562 C-18.47297992 19.23604754 -22.43560527 20.85213898 -28 20 C-30 17 -30 17 -30.1015625 14.07421875 C-28.69485029 10.14839425 -27.20847726 9.51442828 -23.56640625 7.77539062 C-22.48166016 7.29875977 -22.48166016 7.29875977 -21.375 6.8125 C-20.67503906 6.48314453 -19.97507812 6.15378906 -19.25390625 5.81445312 C-17.18106005 4.84725309 -15.09427728 3.91972492 -13 3 C-12.35039307 2.70504639 -11.70078613 2.41009277 -11.03149414 2.10620117 C-7.14153296 0.36962053 -4.28666398 -0.4984493 0 0 Z " fill="#91A2B5" transform="translate(133,309)"/>
<path d="M0 0 C2 3 2 3 1.85253906 5.42456055 C0.2567411 10.24531446 -3.7033961 13.31572442 -7.25 16.8125 C-8.01441406 17.60076172 -8.77882812 18.38902344 -9.56640625 19.20117188 C-10.68595703 20.31782227 -10.68595703 20.31782227 -11.828125 21.45703125 C-12.5077832 22.13741455 -13.18744141 22.81779785 -13.88769531 23.51879883 C-16.48026777 25.33677584 -17.89580965 25.39011774 -21 25 C-22.8125 23.8125 -22.8125 23.8125 -24 22 C-24.40278467 18.86491674 -24.34788057 17.48065518 -22.47119141 14.88769531 C-21.77171387 14.20803711 -21.07223633 13.52837891 -20.3515625 12.828125 C-19.59359375 12.08175781 -18.835625 11.33539063 -18.0546875 10.56640625 C-17.25289063 9.80199219 -16.45109375 9.03757812 -15.625 8.25 C-14.8309375 7.47011719 -14.036875 6.69023437 -13.21875 5.88671875 C-5.48885264 -1.64665579 -5.48885264 -1.64665579 0 0 Z " fill="#91A2B5" transform="translate(140,323)"/>
<path d="M0 0 C0.77923828 0.00451172 1.55847656 0.00902344 2.36132812 0.01367188 C4.26175268 0.02533092 6.16213706 0.04326123 8.0625 0.0625 C7.0725 4.0225 6.0825 7.9825 5.0625 12.0625 C1.62416807 12.17022842 -1.81080706 12.24968369 -5.25 12.3125 C-6.22646484 12.34601563 -7.20292969 12.37953125 -8.20898438 12.4140625 C-9.14677734 12.42695313 -10.08457031 12.43984375 -11.05078125 12.453125 C-12.34689331 12.4845459 -12.34689331 12.4845459 -13.66918945 12.51660156 C-15.9375 12.0625 -15.9375 12.0625 -17.75463867 10.20214844 C-18.9375 8.0625 -18.9375 8.0625 -18.75 5.4375 C-17.9375 3.0625 -17.9375 3.0625 -15.9375 1.0625 C-10.61384578 -0.01579429 -5.40210138 -0.06017765 0 0 Z " fill="#91A2B5" transform="translate(278.9375,262.9375)"/>
<path d="M0 0 C2 2 2 2 2.625 4.8125 C2 8 2 8 0.421875 9.3984375 C-1.67131658 10.71666884 -3.79924222 11.87171295 -6 13 C-7.03125 13.61875 -8.0625 14.2375 -9.125 14.875 C-12.60345688 16.2361353 -14.46137453 16.12592628 -18 15 C-20 12 -20 12 -20.125 9.625 C-18.0371809 4.75342209 -12.92966911 2.96483456 -8.375 0.6875 C-5.4530002 -0.15834205 -3.02581115 -0.26896099 0 0 Z " fill="#FCFCFD" transform="translate(218,210)"/>
<path d="M0 0 C2 3 2 3 2.125 5.375 C0.0371809 10.24657791 -5.07033089 12.03516544 -9.625 14.3125 C-12.5469998 15.15834205 -14.97418885 15.26896099 -18 15 C-20 13 -20 13 -20.625 10.1875 C-20 7 -20 7 -18.421875 5.6015625 C-16.32868342 4.28333116 -14.20075778 3.12828705 -12 2 C-10.96875 1.38125 -9.9375 0.7625 -8.875 0.125 C-5.39654312 -1.2361353 -3.53862547 -1.12592628 0 0 Z " fill="#FCFCFD" transform="translate(144,244)"/>
<path d="M0 0 C0.66 0.33 1.32 0.66 2 1 C2 1.66 2 2.32 2 3 C3.32 3.66 4.64 4.32 6 5 C3.69 14.57 1.38 24.14 -1 34 C-6 32 -6 32 -6.921875 30.30859375 C-7.03413463 26.99132171 -6.17221133 24.24680216 -5.25 21.0625 C-4.8731003 19.72970242 -4.49813801 18.39635561 -4.125 17.0625 C-3.93550781 16.38960938 -3.74601562 15.71671875 -3.55078125 15.0234375 C-2.19916778 10.05793554 -1.11793568 5.02224137 0 0 Z " fill="#FB7DA4" transform="translate(290,300)"/>
<path d="M0 0 C1.4540625 0.0309375 1.4540625 0.0309375 2.9375 0.0625 C2.32148318 3.02296916 1.69516298 5.9805858 1.0625 8.9375 C0.88847656 9.77925781 0.71445312 10.62101562 0.53515625 11.48828125 C0.36113281 12.29394531 0.18710937 13.09960938 0.0078125 13.9296875 C-0.14929199 14.67331543 -0.30639648 15.41694336 -0.46826172 16.18310547 C-1.0625 18.0625 -1.0625 18.0625 -3.0625 20.0625 C-5.1875 19.6875 -5.1875 19.6875 -7.0625 19.0625 C-8.67094243 15.0210339 -7.40040192 11.91103569 -6.1875 7.875 C-5.81882812 6.62332031 -5.45015625 5.37164062 -5.0703125 4.08203125 C-3.73330465 0.07618989 -3.73330465 0.07618989 0 0 Z " fill="#FC7CA4" transform="translate(271.0625,389.9375)"/>
</svg>
