<?xml version="1.0" encoding="UTF-8"?>
<svg version="1.1" xmlns="http://www.w3.org/2000/svg" width="512" height="512">
<path d="M0 0 C0.72026367 0.25249512 1.44052734 0.50499023 2.18261719 0.76513672 C12.82194592 4.56425432 22.91139571 9.30755063 32.9375 14.5 C34.01459229 15.0576001 35.09168457 15.6152002 36.20141602 16.18969727 C40.54668233 18.48205004 44.8091134 20.73527696 48.7734375 23.6484375 C55.09657238 28.28106846 59.12881419 29.39944297 66.7265625 28.703125 C68.51858527 28.57705136 70.31102024 28.45674322 72.10375977 28.34130859 C73.05783722 28.27981628 74.01191467 28.21832397 74.99490356 28.15496826 C83.68637669 27.70676219 92.40864163 27.85357065 101.10913086 27.86962891 C104.56173072 27.8749988 108.01420087 27.86964187 111.46679688 27.86328125 C113.72916704 27.86335201 115.99153752 27.86463857 118.25390625 27.8671875 C119.34943817 27.86783707 120.44497009 27.86848663 121.57369995 27.86915588 C126.5977976 27.89370806 131.58154827 27.99881937 136.59228516 28.37866211 C137.45063461 28.44219879 138.30898407 28.50573547 139.19334412 28.57119751 C140.75268377 28.69777231 142.3105862 28.84485499 143.8653717 29.01864624 C151.25266742 29.63690402 156.55486608 26.19498023 162.4375 22.02734375 C177.27867923 11.94573596 194.06376379 4.72540779 211 -1 C212.08023437 -1.38027344 213.16046875 -1.76054688 214.2734375 -2.15234375 C220.53217423 -4.05450883 226.75114074 -4.31952125 233.25 -4.4375 C234.09054932 -4.46005859 234.93109863 -4.48261719 235.79711914 -4.50585938 C242.77297947 -4.47826226 247.85886645 -2.64633552 253.20703125 1.859375 C260.93249015 10.9569957 262.37938216 20.26515419 262 32 C260.42143192 50.58810583 254.80532574 68.29438898 246.72021484 85.02294922 C244.39347229 89.90578678 244.39347229 89.90578678 244.57421875 95.18359375 C245.27998047 96.57771484 245.27998047 96.57771484 246 98 C246.65935547 99.58361328 246.65935547 99.58361328 247.33203125 101.19921875 C247.82058594 102.35035156 248.30914062 103.50148438 248.8125 104.6875 C263.62868769 141.01547685 262.94606422 186.71383339 248 223 C237.72920887 246.35483319 218.76307329 263.74128749 195 273 C192.34537294 273.74577553 189.68828191 274.37962725 187 275 C187.33773437 276.22074219 187.67546875 277.44148438 188.0234375 278.69921875 C193.99896947 300.57676408 198.11481196 324.83110092 191 347 C190.70996094 347.91523438 190.41992188 348.83046875 190.12109375 349.7734375 C187.6962875 356.53042898 184.23091398 362.4318376 178.5625 366.9375 C175.39483692 368.25092128 172.40101211 368.66656744 169 369 C168.04632548 371.70590396 168.04632548 371.70590396 168 375 C174.22168855 385.44354865 188.46109919 391.02193224 199.70703125 393.97265625 C213.10011341 396.89009563 227.16031727 397.73487243 239.5625 390.75 C244.6361684 387.15036579 246.78891729 382.46376696 248.375 376.625 C252.02220328 354.57599835 240.10620407 329.93234707 233.13916016 309.52612305 C223.31921847 280.66085573 223.31921847 280.66085573 228.75 267.875 C233.19646315 259.08794187 240.14546439 255.46218878 249.1640625 252.22265625 C250.9375 251.8125 250.9375 251.8125 254 252 C257 254.125 257 254.125 259 257 C259.0625 259.625 259.0625 259.625 258 262 C254.48157615 265.07076724 250.69257173 266.3278435 246.33984375 267.83984375 C243.62736017 269.18476466 242.56302614 270.43391035 241 273 C238.75658989 279.73023033 240.01570121 286.56327183 241.875 293.25 C242.19404297 294.43517212 242.19404297 294.43517212 242.51953125 295.64428711 C244.86515316 304.03860228 247.78478076 312.23999244 250.66546631 320.46182251 C267.32973437 368.04998926 267.32973437 368.04998926 259 387.3125 C253.66294163 397.70571894 246.05607856 403.32894333 235.06640625 406.97265625 C214.04713033 412.61453431 192.04074851 407.99632628 173.375 397.375 C170.17379531 395.47830768 167.57259582 393.66963969 165 391 C163.0496156 396.70030934 161.25836791 402.43326176 159.55102539 408.21069336 C156.53539377 418.38813035 153.20502856 428.24987883 149 438 C149.8765625 438.07476562 150.753125 438.14953125 151.65625 438.2265625 C173.22893874 440.46275585 203.90833203 445.37434923 218.6875 462.9375 C221.52260198 467.19426182 221.80053648 469.9566202 221 475 C216.90447036 484.89752995 207.80390511 489.15428638 198.37109375 493.26953125 C183.63383236 499.32626468 167.69311399 502.58463911 152 505 C151.06607422 505.15098145 150.13214844 505.30196289 149.16992188 505.45751953 C113.10917476 511.01778443 73.00859215 510.87626285 37 505 C35.89897949 504.82839355 34.79795898 504.65678711 33.66357422 504.47998047 C13.04408651 501.18333713 -13.71247954 496.68982363 -29 481 C-31.5439369 477.18409464 -32.69103945 473.72050803 -32.4609375 469.07421875 C-31.08275286 462.87238789 -26.27334108 458.90507597 -21.25 455.4375 C9.47221875 437.26087732 48.24908158 435.73825253 83 434 C83.66 430.37 84.32 426.74 85 423 C83.82244141 423.41572266 83.82244141 423.41572266 82.62109375 423.83984375 C81.57050781 424.20207031 80.51992187 424.56429688 79.4375 424.9375 C78.40496094 425.29714844 77.37242187 425.65679687 76.30859375 426.02734375 C55.19638362 432.23388486 26.50861755 429.29621482 7 419 C-4.34143315 412.70329523 -12.25716489 404.12810692 -17 392 C-20.86959821 377.09136396 -16.28837261 363.09764627 -9.015625 350.1015625 C-5.86042375 345.246466 -2.0762617 341.09474815 2 337 C1.72285156 336.33613281 1.44570312 335.67226563 1.16015625 334.98828125 C0.61681641 333.66376953 0.61681641 333.66376953 0.0625 332.3125 C-0.47697266 331.00732422 -0.47697266 331.00732422 -1.02734375 329.67578125 C-7.94936564 310.63327123 -0.25297677 288.7456165 7 271 C6.11699219 270.52691406 5.23398438 270.05382812 4.32421875 269.56640625 C-18.37309152 257.15947552 -36.12590216 238.2277798 -43.75 213.125 C-48.03151106 198.04748321 -50.53090135 181.65616754 -51 166 C-51.02578125 165.36175293 -51.0515625 164.72350586 -51.078125 164.06591797 C-51.89704622 142.0420553 -48.52598035 119.90382231 -38.46606445 100.16333008 C-36.32451666 95.7982057 -36.32451666 95.7982057 -36.5390625 91.0390625 C-37.02117187 90.03617187 -37.50328125 89.03328125 -38 88 C-38.58506885 86.59532003 -39.16252725 85.18745776 -39.734375 83.77734375 C-40.05841309 83.00205322 -40.38245117 82.2267627 -40.71630859 81.42797852 C-49.85986245 59.39836282 -59.1560791 33.62450499 -51 10 C-48.05407053 4.31856459 -43.50381901 -0.11677735 -37.86328125 -3.1484375 C-25.88535044 -6.7107689 -11.43077985 -4.10890195 0 0 Z " fill="#678490" transform="translate(152,4)"/>
<path d="M0 0 C16.87916833 11.22835879 16.87916833 11.22835879 18.4609375 16.17578125 C18.60789062 17.06716797 18.60789062 17.06716797 18.7578125 17.9765625 C17.7678125 18.4715625 17.7678125 18.4715625 16.7578125 18.9765625 C16.71539527 21.30951025 16.71688313 23.64358817 16.7578125 25.9765625 C17.83181109 27.26423231 17.83181109 27.26423231 20.3671875 27.2109375 C24.29598754 26.93936146 27.42687103 25.73283866 31.0078125 24.2265625 C37.0042988 21.83941274 42.95037151 20.03501651 49.2578125 18.6640625 C49.98645508 18.50518555 50.71509766 18.34630859 51.46582031 18.18261719 C60.78953997 16.24284012 69.78261885 15.80596087 79.29296875 15.7734375 C80.60325546 15.76773743 81.91354218 15.76203735 83.26353455 15.75616455 C86.03807963 15.74569834 88.8125962 15.73983013 91.5871582 15.73632812 C94.38254125 15.73198259 97.17760882 15.71823757 99.97290039 15.6953125 C144.06861691 15.34173505 144.06861691 15.34173505 163.3203125 23.1640625 C171.27482127 26.5160083 171.27482127 26.5160083 179.7578125 26.9765625 C181.17358727 25.79231924 181.17358727 25.79231924 180.8203125 22.4140625 C180.789375 20.7125 180.789375 20.7125 180.7578125 18.9765625 C180.0978125 18.6465625 179.4378125 18.3165625 178.7578125 17.9765625 C179.63908436 12.19082116 184.37258563 9.38198391 188.7578125 5.9765625 C207.72365448 -7.63395679 207.72365448 -7.63395679 219.7578125 -6.0234375 C224.89081668 -4.24662836 227.82837918 -1.58990709 230.7578125 2.9765625 C231.90014528 10.71904021 228.86838155 16.52929972 224.8828125 23.0390625 C223.56219085 26.48735235 224.12616809 28.23507613 225.19921875 31.6875 C226.25364336 36.00842881 226.2421727 40.56746008 225.7578125 44.9765625 C225.0978125 45.9665625 224.4378125 46.9565625 223.7578125 47.9765625 C221.30095825 47.55296694 220.0613213 47.32145887 218.3828125 45.4140625 C216.7269071 43.65920487 216.7269071 43.65920487 213.6328125 43.7265625 C210.86309692 43.65688072 210.86309692 43.65688072 209.7578125 44.9765625 C209.36541751 48.51308443 209.28960819 50.33015276 211.41015625 53.2578125 C212.54130859 54.35609375 212.54130859 54.35609375 213.6953125 55.4765625 C233.63944999 76.42260328 242.4596908 105.98664132 242.09570312 134.43994141 C241.31901256 163.84962826 236.93233402 194.25574215 216.7578125 216.9765625 C216.16613281 217.66234375 215.57445312 218.348125 214.96484375 219.0546875 C197.25816879 238.23377253 169.74057927 243.83882895 144.7578125 245.9765625 C142.75797198 246.00181881 140.75753894 246.00964068 138.7578125 245.9765625 C138.67144531 244.99816406 138.58507812 244.01976562 138.49609375 243.01171875 C137.50127827 233.72981652 136.12584684 226.34459684 129.3203125 219.5390625 C123.54755849 216.01909054 117.44822817 214.94981554 110.7578125 215.9765625 C108.48649382 217.39994881 108.48649382 217.39994881 106.7578125 218.9765625 C104.547517 217.95035388 102.68463753 216.91939456 100.7578125 215.4140625 C96.40543454 212.28579084 90.92172008 212.38956147 85.7578125 212.9765625 C78.14607381 215.14542452 74.32731384 220.37759062 70.60546875 227.0390625 C67.52298787 233.36687231 66.15787698 240.11412523 64.7578125 246.9765625 C37.21162301 246.00662625 6.72194527 241.21207379 -14.2421875 221.9765625 C-14.99757812 221.31269531 -15.75296875 220.64882812 -16.53125 219.96484375 C-34.43531852 203.3220584 -39.7926365 181.05389632 -42.87255859 157.65112305 C-43.13148389 155.77759159 -43.43626892 153.91009308 -43.77490234 152.04931641 C-48.11584813 123.50430928 -42.4953525 91.50779961 -25.97265625 67.58203125 C-22.60488117 63.02090486 -19.07897754 58.77561229 -15.1796875 54.6640625 C-12.8169859 52.06726835 -11.81883986 50.52172883 -11.8046875 46.9765625 C-11.9490625 45.9865625 -12.0934375 44.9965625 -12.2421875 43.9765625 C-17.49857248 43.54588025 -17.49857248 43.54588025 -21.9921875 46.0390625 C-22.7346875 46.6784375 -23.4771875 47.3178125 -24.2421875 47.9765625 C-25.7271875 47.4815625 -25.7271875 47.4815625 -27.2421875 46.9765625 C-29.41764559 42.62564631 -28.52255027 36.73700793 -28.2421875 31.9765625 C-27.7884375 30.7596875 -27.3346875 29.5428125 -26.8671875 28.2890625 C-25.9595363 23.47851114 -28.12321403 21.05594392 -30.76171875 17.11328125 C-31.49455078 16.05560547 -31.49455078 16.05560547 -32.2421875 14.9765625 C-34.12390345 11.2131306 -33.88993166 7.06468369 -33.2421875 2.9765625 C-31.20589726 -0.77485811 -28.52778519 -3.22428218 -24.9296875 -5.4609375 C-15.39452653 -7.45666887 -8.1550799 -5.08955589 0 0 Z " fill="#B0B8C5" transform="translate(157.2421875,28.0234375)"/>
<path d="M0 0 C0.0093457 0.8156543 0.01869141 1.63130859 0.02832031 2.47167969 C0.07288091 5.55859313 0.13473139 8.64458981 0.20751953 11.73095703 C0.24893359 13.69931469 0.27120453 15.66804576 0.29296875 17.63671875 C0.53471147 27.16138175 1.28986908 37.37715376 8 44.75 C12.01775863 47.62839424 15.97844095 47.84814821 20.81640625 47.5703125 C32.86522008 45.41187468 41.37436758 37.3863072 48.33984375 27.76953125 C53.87540442 19.55887979 58.47834653 10.7968953 63 2 C120.05727459 12.30955868 120.05727459 12.30955868 134.5625 28.9375 C136.35333715 32.75276175 136.76359292 35.90364216 136 40 C131.90447036 49.89752995 122.80390511 54.15428638 113.37109375 58.26953125 C98.63383236 64.32626468 82.69311399 67.58463911 67 70 C66.06607422 70.15098145 65.13214844 70.30196289 64.16992188 70.45751953 C28.10917476 76.01778443 -11.99140785 75.87626285 -48 70 C-49.10102051 69.82839355 -50.20204102 69.65678711 -51.33642578 69.47998047 C-71.95591349 66.18333713 -98.71247954 61.68982363 -114 46 C-116.5439369 42.18409464 -117.69103945 38.72050803 -117.4609375 34.07421875 C-116.08275286 27.87238789 -111.27334108 23.90507597 -106.25 20.4375 C-79.54358212 4.63680263 -46.17920013 1.66439868 -15.875 -0.3125 C-15.18980286 -0.35796967 -14.50460571 -0.40343933 -13.79864502 -0.45028687 C-2.37486554 -1.18743277 -2.37486554 -1.18743277 0 0 Z " fill="#E2E2E2" transform="translate(237,439)"/>
<path d="M0 0 C2.89745353 1.44872677 3.04798521 3.31398156 4.1875 6.3125 C13.82384274 29.90204422 30.90340596 46.71534642 54 57 C53.56584336 65.94432328 51.66582604 74.30626969 49.375 82.9375 C49.19703888 83.61708771 49.01907776 84.29667542 48.83572388 84.99685669 C45.80377776 96.54670026 42.38410805 107.88486334 38 119 C37.72333496 119.70608398 37.44666992 120.41216797 37.16162109 121.13964844 C31.08328607 136.40105403 22.87643082 154.58677164 8.09765625 163.13671875 C4.49973677 164.61742677 0.86063609 164.90169677 -3 165 C-6.44120877 158.416818 -7.15105486 153.63411308 -7.1328125 146.24609375 C-7.13376923 145.39000015 -7.13472595 144.53390656 -7.13571167 143.65187073 C-7.13639169 141.83879523 -7.13454979 140.02571729 -7.13037109 138.21264648 C-7.12506636 135.47178487 -7.13029815 132.73109059 -7.13671875 129.99023438 C-7.14842151 105.8539138 -7.14842151 105.8539138 -3 99 C-1.912103 92.37141831 -3.52504504 88.53820947 -7 83 C-7 81.68 -7 80.36 -7 79 C-6.07767578 78.60167969 -6.07767578 78.60167969 -5.13671875 78.1953125 C-4.32847656 77.84210938 -3.52023438 77.48890625 -2.6875 77.125 C-1.88699219 76.77695312 -1.08648437 76.42890625 -0.26171875 76.0703125 C2.1961834 74.97428106 2.1961834 74.97428106 5 73 C5.41666667 70 5.41666667 70 5 67 C3.18506707 64.77918788 3.18506707 64.77918788 0.625 64.6875 C-2.4678155 65.05569232 -3.64253627 66.03544689 -6 68 C-10.12215796 69.37405265 -13.69787586 69.74174554 -18 69 C-21.63221233 67.14501694 -25.10247798 64.89752202 -28 62 C-30.95804573 61.66659529 -30.95804573 61.66659529 -34 62 C-34.66 62.99 -35.32 63.98 -36 65 C-42.52075892 64.47833929 -48.47184358 62.81439751 -54.73046875 60.9375 C-59.1470524 59.67109609 -63.15112562 58.85956754 -67.75 58.875 C-68.52859375 58.87242187 -69.3071875 58.86984375 -70.109375 58.8671875 C-72.01176146 58.79315551 -72.01176146 58.79315551 -73 60 C-73.25005386 62.95817107 -73.25005386 62.95817107 -73 66 C-70.1080373 68.8919627 -66.70339594 68.92785992 -62.8125 69.625 C-46.67976485 72.78849561 -22.95144179 77.65088234 -13 92 C-12.75 94.875 -12.75 94.875 -14 98 C-21.80788007 107.04171791 -31.54971249 108.88350393 -43 110 C-62.49196506 111.1739709 -82.77912321 108.37773024 -98.6171875 96.1875 C-102.19689519 92.90121097 -104.70273469 89.25834545 -107 85 C-107.37125 84.40703125 -107.7425 83.8140625 -108.125 83.203125 C-111.00430097 75.95345647 -109.7565254 65.76907872 -107 58.6875 C-104.08761313 52.58812979 -100.16346366 47.29578641 -96 42 C-94.99712412 40.66882843 -93.99603619 39.336297 -93 38 C-90.60508673 38.92464478 -88.28572614 39.84497235 -86.02734375 41.0703125 C-75.33069139 46.46862304 -61.30657745 45.44677675 -50.125 42 C-31.70163778 34.89870403 -15.50012997 22.75019495 -4.5078125 6.26171875 C-3.07551082 4.11326623 -1.56762355 2.05105237 0 0 Z " fill="#B0B8C5" transform="translate(255,311)"/>
<path d="M0 0 C1.6640625 1.01953125 1.6640625 1.01953125 3 3 C3.28038472 5.77671322 3.37715503 8.29052549 3.3125 11.0625 C3.30049561 11.85744873 3.28849121 12.65239746 3.27612305 13.47143555 C2.72410162 37.34929833 -2.82081728 55.53733242 -20 73 C-21.14082031 74.16015625 -21.14082031 74.16015625 -22.3046875 75.34375 C-34.25676014 86.78639003 -49.41748075 94.72892172 -66.19628906 94.5390625 C-73.36640983 94.19284711 -78.81817851 92.24173026 -83.8671875 87.09765625 C-91.41236287 77.69326302 -91.08447509 66.51343911 -90 55 C-88.27458124 45.06577078 -84.24577403 36.07814212 -80 27 C-78.90498169 27.21934204 -78.90498169 27.21934204 -77.7878418 27.44311523 C-74.4222038 28.11379529 -71.05489289 28.7756897 -67.6875 29.4375 C-66.53958984 29.66759766 -65.39167969 29.89769531 -64.20898438 30.13476562 C-57.86806185 31.3742094 -51.67366139 32.32813088 -45.21801758 32.67602539 C-43 33 -43 33 -40 35 C-41.12019531 35.54269531 -42.24039063 36.08539063 -43.39453125 36.64453125 C-44.86734492 37.36686662 -46.33999254 38.08954062 -47.8125 38.8125 C-48.55048828 39.16892578 -49.28847656 39.52535156 -50.04882812 39.89257812 C-50.76103516 40.24384766 -51.47324219 40.59511719 -52.20703125 40.95703125 C-52.8616333 41.27647705 -53.51623535 41.59592285 -54.19067383 41.92504883 C-56.15289218 43.09083582 -57.53564334 44.25018717 -59 46 C-59.41679297 48.54230847 -59.41679297 48.54230847 -59 51 C-57.19911226 53.19329259 -57.19911226 53.19329259 -54.765625 53.3515625 C-51.08341162 52.88348453 -48.88234467 51.35683893 -45.75 49.375 C-39.5995737 45.61334041 -33.38628565 43.12812517 -26.51074219 40.99169922 C-22.0031929 39.59345784 -22.0031929 39.59345784 -19 36 C-18.64889661 33.20608058 -18.64889661 33.20608058 -18.5625 30.0625 C-17.84306454 19.11244846 -15.90108409 9.09144164 -8.0625 1 C-5.19198684 -0.39176396 -3.14573597 -0.40158332 0 0 Z " fill="#B0B8C5" transform="translate(251,251)"/>
<path d="M0 0 C4.2394621 1.19002445 5.29088497 2.29810884 7.5625 6 C9.88537417 10.53790061 9.83183276 14.587381 9.75 19.5625 C9.74572998 20.35664307 9.74145996 21.15078613 9.73706055 21.96899414 C9.67610781 27.60114094 9.26564232 33.13197789 8.48828125 38.71484375 C8.35674033 41.00286657 8.35674033 41.00286657 9.640625 42.56640625 C11.75212959 44.14145134 13.94477116 45.54077156 16.19677734 46.90600586 C22.0592161 50.46267903 27.38362619 54.29485395 32.4375 58.9375 C32.95497803 59.40994141 33.47245605 59.88238281 34.00561523 60.36914062 C35.23704049 61.53279844 36.40647735 62.7614043 37.5625 64 C37.5625 64.66 37.5625 65.32 37.5625 66 C41.56504456 66.09181134 41.56504456 66.09181134 45.5625 66 C46.86570542 64.90671776 46.86570542 64.90671776 46.8515625 62.234375 C46.31799333 56.26416862 41.81217492 52.8912686 37.5625 49 C32.00351457 44.52779231 26.07716997 39.95975129 19.5625 37 C19.519779 35.33388095 19.52186168 33.66617115 19.5625 32 C21.48367634 30.07882366 24.87154438 30.34987702 27.44140625 30.02734375 C28.1280687 29.93997452 28.81473114 29.85260529 29.52220154 29.7625885 C31.72264942 29.48354795 33.92379091 29.21046431 36.125 28.9375 C37.61398164 28.74973985 39.10291467 28.56159385 40.59179688 28.37304688 C44.24814383 27.91088038 47.90513582 27.45405462 51.5625 27 C56.45018992 41.28021051 58.82191057 53.78841209 58.875 68.875 C58.88047852 70.01590088 58.88595703 71.15680176 58.89160156 72.33227539 C58.8179808 81.0341229 57.97694669 89.27109676 54.625 97.375 C54.30660156 98.16648437 53.98820312 98.95796875 53.66015625 99.7734375 C52.4926854 102.14161681 51.34713816 104.04914554 49.5625 106 C38.09911068 107.60889675 28.34653123 100.57664514 19.5625 94 C5.0854932 82.37926751 -9.01652835 64.04986785 -11.4375 45 C-12.17145164 32.93246948 -12.99396817 11.29745124 -5.0546875 1.25 C-3.4375 0 -3.4375 0 0 0 Z " fill="#B0B8C5" transform="translate(275.4375,254)"/>
<path d="M0 0 C3.41335847 2.32728987 5.51091258 4.38465784 7.75 7.875 C8.89233278 15.61747771 5.86056905 21.42773722 1.875 27.9375 C0.55437835 31.38578985 1.11835559 33.13351363 2.19140625 36.5859375 C3.24583086 40.90686631 3.2343602 45.46589758 2.75 49.875 C2.09 50.865 1.43 51.855 0.75 52.875 C-1.70685425 52.45140444 -2.9464912 52.21989637 -4.625 50.3125 C-6.26433829 48.56562231 -6.26433829 48.56562231 -9.25 48.6875 C-10.24 48.749375 -11.23 48.81125 -12.25 48.875 C-16.4154752 48.875 -17.54043546 47.12051053 -20.625 44.375 C-25.93039227 39.72391194 -31.41079718 36.26201061 -37.6328125 32.95703125 C-41.00401315 30.27516566 -41.312021 27.98953676 -42.25 23.875 C-42.91 23.545 -43.57 23.215 -44.25 22.875 C-43.36872814 17.08925866 -38.63522687 14.28042141 -34.25 10.875 C-12.88221994 -4.45922998 -12.88221994 -4.45922998 0 0 Z " fill="#FDFEFE" transform="translate(380.25,23.125)"/>
<path d="M0 0 C16.69001 11.1025269 16.69001 11.1025269 18.54296875 16.08984375 C18.64931641 17.02376953 18.64931641 17.02376953 18.7578125 17.9765625 C17.78133233 18.99954172 16.77649912 19.99560502 15.7578125 20.9765625 C15.37882812 22.40935547 15.37882812 22.40935547 14.9921875 23.87109375 C13.43667242 27.78449404 12.03089446 28.42170851 8.3203125 30.2890625 C2.65927254 33.34465997 -2.07906577 36.89025747 -6.96484375 41.05859375 C-9.2421875 42.9765625 -9.2421875 42.9765625 -12.2421875 44.9765625 C-13.3559375 44.7703125 -14.4696875 44.5640625 -15.6171875 44.3515625 C-19.31468825 43.56099659 -19.31468825 43.56099659 -21.9921875 45.9765625 C-22.7346875 46.6365625 -23.4771875 47.2965625 -24.2421875 47.9765625 C-25.2321875 47.6465625 -26.2221875 47.3165625 -27.2421875 46.9765625 C-29.41764559 42.62564631 -28.52255027 36.73700793 -28.2421875 31.9765625 C-27.5615625 30.15125 -27.5615625 30.15125 -26.8671875 28.2890625 C-25.9595363 23.47851114 -28.12321403 21.05594392 -30.76171875 17.11328125 C-31.49455078 16.05560547 -31.49455078 16.05560547 -32.2421875 14.9765625 C-34.12390345 11.2131306 -33.88993166 7.06468369 -33.2421875 2.9765625 C-31.20589726 -0.77485811 -28.52778519 -3.22428218 -24.9296875 -5.4609375 C-15.39452653 -7.45666887 -8.1550799 -5.08955589 0 0 Z " fill="#FDFEFE" transform="translate(157.2421875,28.0234375)"/>
<path d="M0 0 C5.93143395 7.08140584 6.01787307 15.86793413 5.28222656 24.64208984 C3.42450108 40.16277559 -2.02390137 57.04780274 -9 71 C-13.55015893 69.48328036 -15.50057264 65.83108947 -18 62 C-17.51144531 61.61070313 -17.02289063 61.22140625 -16.51953125 60.8203125 C-14.49985219 58.40085121 -14.62972127 56.99505163 -14.6875 53.875 C-14.70554687 52.89660156 -14.72359375 51.91820312 -14.7421875 50.91015625 C-14.98299666 48.19193161 -15.52537891 45.91361855 -16.3125 43.3125 C-17.01063173 40.61626711 -17.19728473 39.46061327 -16.08984375 36.875 C-15.19955049 35.50451942 -14.27468548 34.15586659 -13.31640625 32.83203125 C-10.32519074 28.66918237 -9.48218541 23.99458689 -9.6171875 18.9609375 C-10.33989848 15.25888737 -12.26386269 13.55372816 -15 11 C-19.31773347 8.3613851 -24.08994021 8.39508063 -29 9 C-40.46057203 11.84130654 -51.82152605 20.70665984 -60 29 C-60.33 29.66 -60.66 30.32 -61 31 C-65.28379643 30.28739906 -69.25093853 28.93078264 -73.3125 27.4375 C-73.95767578 27.20353516 -74.60285156 26.96957031 -75.26757812 26.72851562 C-76.84621219 26.15552993 -78.42327026 25.57820536 -80 25 C-67.27953165 10.93629591 -18.38345236 -12.7558649 0 0 Z " fill="#B0B8C5" transform="translate(397,14)"/>
<path d="M0 0 C0.88067139 0.33942627 1.76134277 0.67885254 2.66870117 1.02856445 C16.74779084 6.61613007 30.59010579 13.38931996 43.3125 21.625 C39.85647345 23.38177063 36.35505129 24.88114289 32.75 26.3125 C31.04650391 26.99892578 31.04650391 26.99892578 29.30859375 27.69921875 C26.3125 28.625 26.3125 28.625 23.3125 27.625 C22.13234682 26.47856548 20.95703028 25.32653128 19.8125 24.14453125 C11.2929291 15.51402844 0.29169584 6.75500952 -12.3125 6.25 C-17.63840687 6.46083624 -21.047486 8.20077732 -25.0625 11.6875 C-27.48885795 16.0736086 -27.6323141 19.72851817 -26.6875 24.625 C-24.99868045 28.50377249 -22.93125182 32.04494169 -20.6875 35.625 C-20.3575 36.285 -20.0275 36.945 -19.6875 37.625 C-19.99042969 38.51960938 -20.29335937 39.41421875 -20.60546875 40.3359375 C-21.75239904 43.82227434 -21.98714852 46.591613 -22 50.25 C-22.01675781 51.35601562 -22.03351563 52.46203125 -22.05078125 53.6015625 C-21.65639304 56.8838902 -20.90103443 58.2304113 -18.6875 60.625 C-19.80549986 61.96420838 -20.93211897 63.29622556 -22.0625 64.625 C-22.68898437 65.3675 -23.31546875 66.11 -23.9609375 66.875 C-24.53070313 67.4525 -25.10046875 68.03 -25.6875 68.625 C-26.3475 68.625 -27.0075 68.625 -27.6875 68.625 C-46.20956656 23.74460795 -46.20956656 23.74460795 -40.78125 4.39453125 C-39.00649329 0.54353673 -37.33589084 -1.86231887 -34 -4.5 C-22.68785367 -7.48811413 -10.61320465 -4.14022969 0 0 Z " fill="#B0B8C5" transform="translate(151.6875,16.375)"/>
<path d="M0 0 C11.88 0 23.76 0 36 0 C36.78778913 37.81387843 36.78778913 37.81387843 25.23046875 52.203125 C22.69917527 54.56345967 20.72837294 55.80923566 17.375 56.6875 C12.52646645 55.28397713 10.00763547 51.29028507 7.4375 47.1875 C3.92740484 40.61022389 2.53061716 33.24041943 1 26 C0.80019531 25.06285156 0.60039062 24.12570313 0.39453125 23.16015625 C-0.16945508 18.64268161 -0.104332 14.17173065 -0.0625 9.625 C-0.0315625 4.860625 -0.0315625 4.860625 0 0 Z " fill="#91A2B5" transform="translate(238,44)"/>
<path d="M0 0 C0.81820452 14.54585809 -1.63288789 30.73874603 -10.0625 43 C-12.83396127 45.86086324 -14.26423551 46.98611765 -18.3125 47.0625 C-23.39567082 45.59785756 -25.40415741 43.56065162 -28 39 C-29.99795104 34.07687202 -31.55191467 29.10928221 -33 24 C-33.37318359 22.70255859 -33.37318359 22.70255859 -33.75390625 21.37890625 C-35.14726638 15.91264728 -35.21113265 10.61847452 -35 5 C-30.77135178 2.70197621 -26.71304933 2.09551599 -22 1.375 C-21.15655029 1.24311279 -20.31310059 1.11122559 -19.4440918 0.9753418 C-12.93545578 0.01411412 -6.58024732 -0.35462411 0 0 Z " fill="#91A2B4" transform="translate(235,44)"/>
<path d="M0 0 C9.12212743 0.30618252 18.0822354 0.78470337 27.0625 2.5 C27.74634766 2.63059814 28.43019531 2.76119629 29.13476562 2.89575195 C33.85281842 3.85281842 33.85281842 3.85281842 35 5 C34.92892411 18.61103264 32.49645855 31.37530737 25 43 C20.79638121 46.97155781 20.79638121 46.97155781 16.5 47.125 C11.35165956 45.47017629 9.36982979 42.52853887 6.91015625 37.98828125 C2.21624385 28.12220876 -0.16532102 17.52402811 -0.0625 6.625 C-0.05347656 5.37976562 -0.04445313 4.13453125 -0.03515625 2.8515625 C-0.02355469 1.91054688 -0.01195312 0.96953125 0 0 Z " fill="#91A2B5" transform="translate(277,44)"/>
<path d="M0 0 C0.91974609 -0.020625 1.83949219 -0.04125 2.78710938 -0.0625 C3.67076172 -0.06765625 4.55441406 -0.0728125 5.46484375 -0.078125 C6.27429443 -0.0874707 7.08374512 -0.09681641 7.91772461 -0.10644531 C10.58172297 0.3362909 11.4483518 1.1206846 13.0625 3.25 C13.5 5.75 13.5 5.75 13.0625 8.25 C11.25 10.0625 11.25 10.0625 9.0625 11.25 C8.0725 11.25 7.0825 11.25 6.0625 11.25 C7.13651108 14.16517292 7.84060176 16.02810176 10.0625 18.25 C11.7640625 18.7140625 11.7640625 18.7140625 13.5 19.1875 C18.61234894 20.71223565 18.61234894 20.71223565 20.0625 23.25 C19.9375 26.3125 19.9375 26.3125 19.0625 29.25 C15.30109311 31.75760459 13.65365718 31.36874217 9.33984375 30.81640625 C7.0625 30.25 7.0625 30.25 3.8125 28.0625 C2.905 27.464375 1.9975 26.86625 1.0625 26.25 C-1.48853367 26.71863044 -1.48853367 26.71863044 -3.9375 28.25 C-9.10499662 30.83374831 -12.26806092 31.80631661 -17.9375 30.25 C-19.9375 27.25 -19.9375 27.25 -19.75 24.1875 C-18.9375 21.25 -18.9375 21.25 -15.9375 19.25 C-14.761875 18.92 -13.58625 18.59 -12.375 18.25 C-8.90676675 17.54022994 -8.90676675 17.54022994 -6.9375 15.25 C-6.2949765 13.18125966 -6.2949765 13.18125966 -5.9375 11.25 C-6.72125 11.12625 -7.505 11.0025 -8.3125 10.875 C-10.9375 10.25 -10.9375 10.25 -12.9375 8.25 C-12.6875 4.6875 -12.6875 4.6875 -11.9375 1.25 C-8.29370011 -0.57189994 -4.01167515 0.02239595 0 0 Z " fill="#698591" transform="translate(255.9375,178.75)"/>
<path d="M0 0 C2.625 1.875 2.625 1.875 5 4 C9.51028847 6.70236693 13.87673838 6.64424248 19 6 C22.91041267 4.62747105 26.06651382 2.93348618 29 0 C32 -0.25 32 -0.25 35 0 C37 2 37 2 37.5625 4.75 C36.8444874 8.89851727 35.44983931 10.11610434 32.17578125 12.609375 C24.52124856 17.50167956 17.04550582 19.21014199 8 18 C4.72739899 17.0497261 1.93302197 15.72167829 -1 14 C-1.68449219 13.61457031 -2.36898438 13.22914063 -3.07421875 12.83203125 C-6.26314102 10.83329498 -7.83896546 9.44731817 -9.125 5.875 C-9 3 -9 3 -7.9375 1.125 C-5.0818263 -0.53313312 -3.25270549 -0.45537877 0 0 Z " fill="#615E5F" transform="translate(307,183)"/>
<path d="M0 0 C3.6890839 0.53659402 4.78426543 1.32128946 7.6875 3.5 C11.89275902 6.48255345 14.87484025 7.28881652 20.00390625 6.96875 C24.87132349 6.03120575 28.93794956 3.99955044 32.4375 0.5 C35.4375 0.25 35.4375 0.25 38.4375 0.5 C40.4375 2.5 40.4375 2.5 40.875 5.3125 C40.27911748 9.65392979 38.84868719 10.79947681 35.4375 13.5 C27.55957966 18.14875299 20.58416023 19.31790035 11.4375 18.5 C5.39514594 16.87321237 -0.64723954 13.4674867 -4.5625 8.5 C-5.125 5.25 -5.125 5.25 -4.5625 2.5 C-2.5625 0.5 -2.5625 0.5 0 0 Z " fill="#615E5F" transform="translate(172.5625,182.5)"/>
<path d="M0 0 C0.67434586 -0.00287018 1.34869171 -0.00574036 2.04347229 -0.00869751 C3.46819906 -0.01073673 4.89295392 -0.00521663 6.31762695 0.00732422 C8.49299129 0.02335705 10.6664909 0.00748599 12.84179688 -0.01171875 C14.22786867 -0.0097358 15.61393931 -0.00589105 17 0 C18.25868896 0.00338379 19.51737793 0.00676758 20.81420898 0.01025391 C24.25519623 0.42097155 25.69271183 0.90962164 28.06640625 3.3984375 C28.51267323 6.45855394 28.70366548 8.41570757 26.98828125 11.06103516 C24.03018978 13.11952412 21.44393077 12.78763691 17.87890625 12.796875 C17.17999268 12.79974518 16.4810791 12.80261536 15.76098633 12.80557251 C14.28498524 12.80761175 12.80895704 12.80209153 11.33300781 12.78955078 C9.07425487 12.7734933 6.81729107 12.7894022 4.55859375 12.80859375 C3.12369397 12.80661129 1.6887953 12.80276756 0.25390625 12.796875 C-1.05191406 12.79349121 -2.35773438 12.79010742 -3.703125 12.78662109 C-6.93359375 12.3984375 -6.93359375 12.3984375 -8.859375 11.06103516 C-10.54829859 8.44704206 -10.3117788 6.42391793 -9.93359375 3.3984375 C-7.41621715 -0.44105514 -4.30280855 0.01157781 0 0 Z " fill="#91A2B5" transform="translate(154.93359375,207.6015625)"/>
<path d="M0 0 C0.65073486 -0.00524185 1.30146973 -0.0104837 1.97192383 -0.0158844 C3.34357276 -0.02228907 4.71527674 -0.02098767 6.08691406 -0.01245117 C8.18133521 -0.00393133 10.27303497 -0.03273099 12.3671875 -0.06445312 C13.70312419 -0.06606517 15.03906568 -0.06548753 16.375 -0.0625 C18.19064453 -0.06527954 18.19064453 -0.06527954 20.04296875 -0.06811523 C23.76689335 0.52603578 24.94692499 1.45492689 27.1875 4.43359375 C27.66681554 7.24101334 27.69315018 8.67030931 26.109375 11.06103516 C23.15800069 13.1688383 20.58625084 12.82273815 17 12.83203125 C16.30108643 12.83490143 15.60217285 12.83777161 14.88208008 12.84072876 C13.40607899 12.842768 11.93005079 12.83724778 10.45410156 12.82470703 C8.19534862 12.80864955 5.93838482 12.82455845 3.6796875 12.84375 C2.24478772 12.84176754 0.80988905 12.83792381 -0.625 12.83203125 C-1.93082031 12.82864746 -3.23664063 12.82526367 -4.58203125 12.82177734 C-7.8125 12.43359375 -7.8125 12.43359375 -9.734375 11.09619141 C-11.44975923 8.45086382 -11.25876698 6.49371019 -10.8125 3.43359375 C-7.52794629 0.02837274 -4.58707578 0.0369433 0 0 Z " fill="#91A2B5" transform="translate(339.8125,207.56640625)"/>
<path d="M0 0 C1.9375 1.0625 1.9375 1.0625 3 3 C3.25 6.4375 3.25 6.4375 2 10 C-0.72168489 11.98313723 -3.84584315 12.88307708 -7 14 C-8.25557945 14.51758001 -9.50800716 15.04284747 -10.7578125 15.57421875 C-12.08835565 16.13325543 -13.41908537 16.69184829 -14.75 17.25 C-15.38760254 17.52078369 -16.02520508 17.79156738 -16.68212891 18.07055664 C-20.24359838 19.51743276 -23.14865539 20.43179632 -27 20 C-28.8125 18.875 -28.8125 18.875 -30 17 C-30.375 14 -30.375 14 -30 11 C-26.69960974 6.81872034 -21.50929416 5.62271872 -16.6875 3.8125 C-15.74970703 3.44447266 -14.81191406 3.07644531 -13.84570312 2.69726562 C-5.08275197 -0.63129722 -5.08275197 -0.63129722 0 0 Z " fill="#91A2B5" transform="translate(180,225)"/>
<path d="M0 0 C2.49609393 0.84556365 4.96197634 1.74896749 7.42724609 2.68041992 C8.27222656 2.98463867 9.11720703 3.28885742 9.98779297 3.60229492 C17.17849611 6.27524891 17.17849611 6.27524891 19.61474609 9.30541992 C20.05224609 12.30541992 20.05224609 12.30541992 19.61474609 15.30541992 C17.98974609 17.24291992 17.98974609 17.24291992 15.61474609 18.30541992 C9.71258096 17.8585683 4.33297567 15.48115502 -1.13525391 13.36791992 C-2.57191406 12.82748047 -2.57191406 12.82748047 -4.03759766 12.27612305 C-11.13076283 9.55991099 -11.13076283 9.55991099 -13.38525391 7.30541992 C-13.71144048 4.23926609 -13.81457888 2.13723705 -12.38525391 -0.63208008 C-8.60110985 -2.64240661 -3.95765132 -1.15245834 0 0 Z " fill="#91A2B5" transform="translate(342.38525390625,226.694580078125)"/>
<path d="M0 0 C1.47049805 -0.0309375 1.47049805 -0.0309375 2.97070312 -0.0625 C3.90720703 -0.06765625 4.84371094 -0.0728125 5.80859375 -0.078125 C6.67154053 -0.0874707 7.5344873 -0.09681641 8.42358398 -0.10644531 C9.48234741 0.06999512 9.48234741 0.06999512 10.5625 0.25 C12.5625 3.25 12.5625 3.25 12.375 6.3125 C11.5625 9.25 11.5625 9.25 8.5625 11.25 C5.70345836 11.49811058 2.98365622 11.62019957 0.125 11.625 C-0.63876953 11.64949219 -1.40253906 11.67398438 -2.18945312 11.69921875 C-5.95866313 11.71890131 -7.85077577 11.67024573 -10.984375 9.42578125 C-12.4375 7.25 -12.4375 7.25 -12.25 4.0625 C-10.56082757 -1.78463532 -5.30860442 0.02781194 0 0 Z " fill="#FAFBFB" transform="translate(210.4375,130.75)"/>
<path d="M0 0 C1.38638672 -0.0309375 1.38638672 -0.0309375 2.80078125 -0.0625 C3.68894531 -0.06765625 4.57710938 -0.0728125 5.4921875 -0.078125 C6.30800293 -0.0874707 7.12381836 -0.09681641 7.96435547 -0.10644531 C10.64804933 0.33628836 11.54782312 1.05872948 13.125 3.25 C13 6.3125 13 6.3125 12.125 9.25 C8.3016501 11.79889993 5.12035358 11.61755608 0.6875 11.625 C-0.07626953 11.64949219 -0.84003906 11.67398438 -1.62695312 11.69921875 C-5.39616313 11.71890131 -7.28827577 11.67024573 -10.421875 9.42578125 C-11.875 7.25 -11.875 7.25 -11.6875 4.0625 C-10.03146406 -1.66993211 -5.22759926 0.02892171 0 0 Z " fill="#FBFBFC" transform="translate(300.875,130.75)"/>
</svg>
