<svg xmlns="http://www.w3.org/2000/svg" viewBox="0 0 803.57 585.43"><defs><style>.cls-1{fill:#f77fbe;fill-rule:evenodd;}</style></defs><title>Asset 1</title><g id="Layer_2" data-name="Layer 2"><g id="RAD"><path d="M186.45,449.13l-21.34,52a50.25,50.25,0,0,0-20.65-4.15q-16.22,0-16.21,11.28a9.61,9.61,0,0,0,4.52,8.43q4.53,3,12.89,3,11.31,0,19.45-5.21l21.34,55.72a72.06,72.06,0,0,1-21.86,11.08,79.72,79.72,0,0,1-24.5,4.15q-29.34,0-46.71-21.64T76,510.53q0-33.43,18.09-55.18t46-21.74a80,80,0,0,1,24.91,4.2A64.52,64.52,0,0,1,186.45,449.13Z"/><path d="M199.36,436.33h75.33q19.57,0,30.76,12.57t11.18,31.46q0,20.81-13.15,32.56,18.66,27.17,22.29,70.41h-53q-1.44-27.84-6.54-41.13t-15.91-13.29v54.42h-51Zm51,30v28h1.42q13.56,0,13.56-13.61a18.28,18.28,0,0,0-2.76-10.05q-2.76-4.34-9.16-4.34Z"/><path d="M377.87,583.33H327.09l39.93-147h72.56l39.93,147H428.8l-6.67-25H384.54Zm16.05-60h18.84l-9.42-36.53Z"/><path d="M491.36,583.33v-147h94v37h-44v26h33v37h-33v47Z"/><path d="M589.36,501.33v-65h102v65h-26v82h-51v-82Z"/><path d="M801.61,443.45l-12.67,46.36q-12.44-21.49-28.57-21.5-9,0-9,8.68,0,2.7,2.83,5.49T769,491.25q13.2,6.66,20.32,12.1A33.5,33.5,0,0,1,800,517.28,51,51,0,0,1,803.57,537q0,23.61-14,36t-41.24,12.39q-30.52,0-52.62-11.09l12.44-49.16a50.12,50.12,0,0,0,13.46,17.16q8,6.36,15.41,6.36a8.29,8.29,0,0,0,6.07-2.41,7.93,7.93,0,0,0,2.45-5.88,9.94,9.94,0,0,0-2.37-6.26q-2.39-3-12.55-8.29a109.46,109.46,0,0,1-15.23-9.21,37.66,37.66,0,0,1-10.48-12.77q-4.46-8.28-4.45-20.91,0-24.5,13.95-36.92t41.16-12.44A108,108,0,0,1,801.61,443.45Z"/><path d="M76,418.64V296.45h45l18.93,25.46,19-25.46h44.94V418.64H157.29v-61L139.94,381.2l-17.35-23.56v61Z"/><path d="M309.32,387.89v30.75H222.09V296.45h86.24V327.2H268.68v15h27.75v30.75H267.69v15Z"/><path d="M371.8,420.17q-22.4,0-38-18.32t-15.58-44.68q0-26.26,15.58-44.51t38-18.24q22.45,0,38,18.24t15.58,44.51q0,26.35-15.58,44.68T371.8,420.17Zm0-79a9.14,9.14,0,0,0-7.4,3.63,15.68,15.68,0,0,0,0,18.28,9.42,9.42,0,0,0,14.86,0,15.63,15.63,0,0,0,0-18.28A9.2,9.2,0,0,0,371.8,341.13Z"/><path d="M557.6,420.17H523.46l-37-122.2H531.7l12.16,39.88L556.64,298h32.21l13.4,39.88L613.72,298h45.33l-35.31,122.2h-34.2L573,371.8Z"/><path class="cls-1" d="M737.66,158.12c1.14,8.91-8.21,11.63-14.22,12.87-89.78,10.89-66.82,57.54-101.3,67.69C439,305.57,489.74,121.08,502.93,103.21,600.37,34.51,612-14.79,630,4c11.36,16.54-9.08,45.62-13,65C630.32,109.71,690.27,150.29,737.66,158.12Z"/><path class="cls-1" d="M489.34,368c.88,40.32,2.93,132.11-41.1,73.12,9.63-47.24,27.85-94.95,23.47-121Z"/><path class="cls-1" d="M459.89,267.48C506.44,417,436.29,460,424.64,402.58c38.72-205.7-196.88-137-234-146.91C117.65,307.06,46,280.22,49.5,290.29c-31.79,65.93,144.82,360.5,18.65,201.39C-32.42,344-47,67.22,201.38,65.27c159.79-9.51,228.63,84.1,299.1,38.67C462.2,143.3,482,247.19,522.41,257.86Z"/><text/><text/></g></g></svg>