<?xml version="1.0" encoding="UTF-8"?>
<svg version="1.1" xmlns="http://www.w3.org/2000/svg" width="512" height="512">
<path d="M0 0 C4.00392306 2.37207206 7.12316629 5.66798774 10.28125 9.05078125 C12.3045368 11.10928348 14.34746033 12.97610874 16.53125 14.85546875 C21.53327627 19.18329367 26.12125512 23.88241245 30.75 28.6015625 C33.98997537 31.87950634 37.25697069 35.05385561 40.75 38.0625 C45.68462131 42.31282812 50.19253389 46.95508338 54.75 51.6015625 C58.66472579 55.56216398 62.68314641 59.30789408 66.90234375 62.94189453 C69.46760046 65.19191753 71.85376563 67.57048459 74.25 70 C75.1059375 70.86496094 75.961875 71.72992188 76.84375 72.62109375 C77.4728125 73.26175781 78.101875 73.90242188 78.75 74.5625 C81.84358159 71.55746458 84.69443253 68.49559036 87.43920898 65.16088867 C122.66243461 22.56113686 122.66243461 22.56113686 145.8515625 20.25390625 C154.39180514 19.94145835 160.26204728 20.76054945 166.75 26.5625 C180.11475513 41.10649823 182.99450688 63.46055144 182.78515625 82.5078125 C182.78886571 84.17839157 182.79479076 85.84896694 182.80273438 87.51953125 C182.81331221 90.11183781 182.81229592 92.70137486 182.77416992 95.29345703 C182.27470944 105.13759535 182.27470944 105.13759535 185.421875 114.12402344 C187.4410133 115.87514291 189.4491572 117.21292772 191.75 118.5625 C219.19277308 145.431842 231.4413999 185.12748965 234.75 222.5625 C235.1526709 222.05436768 235.5553418 221.54623535 235.97021484 221.02270508 C239.98829407 215.95227177 243.50913383 213.00797989 250.16015625 212.09375 C267.27315178 211.94732865 278.91046497 218.88399804 291.0625 230.4375 C298.55213019 238.17718144 303.6195428 246.50646608 304.25 257.375 C304.09385236 264.06469382 301.99303161 267.5494974 297.75 272.5625 C296.93789063 273.53703125 296.12578125 274.5115625 295.2890625 275.515625 C293.43762599 277.72092315 291.56628637 279.90783353 289.6875 282.08984375 C286.7031853 285.58113478 283.87547891 289.18267529 281.0625 292.8125 C276.83365918 298.26021546 272.43076276 303.49279134 267.75 308.5625 C268.17152344 309.29855469 268.59304688 310.03460938 269.02734375 310.79296875 C269.57519531 311.76878906 270.12304688 312.74460937 270.6875 313.75 C271.50541016 315.19439453 271.50541016 315.19439453 272.33984375 316.66796875 C275.92114212 324.01905488 275.27372704 331.39151738 272.76171875 338.984375 C268.59551176 349.60096423 260.68213533 357.95559593 253.42285156 366.56494141 C251.18070432 369.2422982 248.9986201 371.96424042 246.8125 374.6875 C238.28992653 385.08472456 238.28992653 385.08472456 232.3125 388.5625 C228.54325995 391.09482757 226.95420701 394.66204311 225 398.625 C221.05455298 406.56927648 216.13800627 412.45419457 209.75 418.5625 C208.98171875 419.30113281 208.2134375 420.03976562 207.421875 420.80078125 C195.06908268 431.61997861 178.00899674 437.65309849 161.75 438.5625 C160.90695312 438.61535156 160.06390625 438.66820312 159.1953125 438.72265625 C154.47425509 438.87305005 150.1025967 438.70536704 145.49609375 437.64453125 C134.66122802 435.22617818 127.71731987 435.92911857 117.33105469 439.89379883 C107.82729478 443.47234224 98.81863343 444.77256513 89.1875 440.5 C79.73909783 434.86850202 75.91829676 426.2357989 72.99609375 415.89453125 C68.96519952 396.3601977 71.70251231 374.65517082 76.75 355.5625 C76.17145264 355.70349121 75.59290527 355.84448242 74.99682617 355.98974609 C72.31116438 356.6422569 69.62434793 357.28989143 66.9375 357.9375 C66.02806641 358.15921875 65.11863281 358.3809375 64.18164062 358.609375 C43.71460829 363.52724849 21.96248725 365.74603205 1.75 358.5625 C0.69167969 358.18867188 -0.36664063 357.81484375 -1.45703125 357.4296875 C-34.00105918 344.81313238 -52.19161986 317.03974758 -66.25 286.5625 C-73.31601777 270.32661933 -78.61406393 253.47100092 -78.16796875 235.6328125 C-78.15343658 234.94197067 -78.13890442 234.25112885 -78.12393188 233.53935242 C-78.04239041 230.09140946 -77.90184417 226.66166703 -77.6640625 223.22094727 C-77.24485755 216.16878006 -77.24485755 216.16878006 -80.15722656 209.99926758 C-82.42818384 207.99036159 -84.76541477 206.29367434 -87.25 204.5625 C-89.72957022 202.01642048 -91.9662496 199.28454594 -94.25 196.5625 C-95.50103516 195.14324219 -95.50103516 195.14324219 -96.77734375 193.6953125 C-110.8532545 177.64431841 -122.94799897 160.58445713 -122.5234375 138.4921875 C-122.06106457 131.84722799 -119.95493202 127.964897 -115.25 123.375 C-102.89547712 113.68673099 -87.45316851 113.22330319 -72.4909668 113.30175781 C-70.08421174 113.31240396 -67.67821573 113.30184987 -65.27148438 113.2890625 C-63.68749841 113.29038579 -62.10351291 113.29295167 -60.51953125 113.296875 C-59.48116875 113.29080231 -59.48116875 113.29080231 -58.42182922 113.28460693 C-50.63667226 113.35431761 -42.95291523 114.52344202 -35.25 115.5625 C-35.25999275 113.74752014 -35.25999275 113.74752014 -35.27018738 111.89587402 C-35.33106991 100.47866602 -35.376007 89.06149107 -35.40543652 77.64415741 C-35.42107527 71.77474691 -35.44228108 65.90546774 -35.47631836 60.03613281 C-35.50897529 54.36919366 -35.52686648 48.70238063 -35.53463173 43.03535461 C-35.54016384 40.87606319 -35.55096668 38.71677846 -35.56719017 36.55754089 C-35.58904835 33.52714254 -35.59196338 30.49726171 -35.59057617 27.46679688 C-35.601362 26.57918671 -35.61214783 25.69157654 -35.6232605 24.77706909 C-35.5867099 17.37135604 -34.08598031 10.59738965 -28.87109375 4.94921875 C-20.8897284 -1.87821426 -9.86824631 -4.24609801 0 0 Z " fill="#B0B8C5" transform="translate(122.25,35.4375)"/>
<path d="M0 0 C12.35841072 8.69140688 16.31279313 23.81840791 18.984375 37.921875 C20.11785745 45.18228959 20.67839822 52.22419919 20.59765625 59.5703125 C20.60136571 61.24089157 20.60729076 62.91146694 20.61523438 64.58203125 C20.62581221 67.17433781 20.62479592 69.76387486 20.58666992 72.35595703 C20.08720944 82.20009535 20.08720944 82.20009535 23.234375 91.18652344 C25.2535133 92.93764291 27.2616572 94.27542772 29.5625 95.625 C57.00527308 122.494342 69.2538999 162.18998965 72.5625 199.625 C72.9651709 199.11686768 73.3678418 198.60873535 73.78271484 198.08520508 C77.80079407 193.01477177 81.32163383 190.07047989 87.97265625 189.15625 C105.08565178 189.00982865 116.72296497 195.94649804 128.875 207.5 C136.36463019 215.23968144 141.4320428 223.56896608 142.0625 234.4375 C141.90635236 241.12719382 139.80553161 244.6119974 135.5625 249.625 C134.75039063 250.59953125 133.93828125 251.5740625 133.1015625 252.578125 C131.25012599 254.78342315 129.37878637 256.97033353 127.5 259.15234375 C124.5156853 262.64363478 121.68797891 266.24517529 118.875 269.875 C114.64615918 275.32271546 110.24326276 280.55529134 105.5625 285.625 C105.98402344 286.36105469 106.40554688 287.09710938 106.83984375 287.85546875 C107.38769531 288.83128906 107.93554688 289.80710937 108.5 290.8125 C109.31791016 292.25689453 109.31791016 292.25689453 110.15234375 293.73046875 C113.73364212 301.08155488 113.08622704 308.45401738 110.57421875 316.046875 C106.40801176 326.66346423 98.49463533 335.01809593 91.23535156 343.62744141 C88.99320432 346.3047982 86.8111201 349.02674042 84.625 351.75 C76.10242653 362.14722456 76.10242653 362.14722456 70.125 365.625 C66.35575995 368.15732757 64.76670701 371.72454311 62.8125 375.6875 C58.86705298 383.63177648 53.95050627 389.51669457 47.5625 395.625 C46.79421875 396.36363281 46.0259375 397.10226562 45.234375 397.86328125 C32.88158268 408.68247861 15.82149674 414.71559849 -0.4375 415.625 C-1.28054688 415.67785156 -2.12359375 415.73070312 -2.9921875 415.78515625 C-7.71324491 415.93555005 -12.0849033 415.76786704 -16.69140625 414.70703125 C-27.52627198 412.28867818 -34.47018013 412.99161857 -44.85644531 416.95629883 C-54.36020522 420.53484224 -63.36886657 421.83506513 -73 417.5625 C-82.44840217 411.93100202 -86.26920324 403.2982989 -89.19140625 392.95703125 C-93.22230048 373.4226977 -90.48498769 351.71767082 -85.4375 332.625 C-86.01604736 332.76599121 -86.59459473 332.90698242 -87.19067383 333.05224609 C-89.87633562 333.7047569 -92.56315207 334.35239143 -95.25 335 C-96.15943359 335.22171875 -97.06886719 335.4434375 -98.00585938 335.671875 C-118.47289171 340.58974849 -140.22501275 342.80853205 -160.4375 335.625 C-161.49582031 335.25117188 -162.55414063 334.87734375 -163.64453125 334.4921875 C-196.18855918 321.87563238 -214.37911986 294.10224758 -228.4375 263.625 C-235.50351777 247.38911933 -240.80156393 230.53350092 -240.35546875 212.6953125 C-240.34093658 212.00447067 -240.32640442 211.31362885 -240.31143188 210.60185242 C-240.22989041 207.15390946 -240.08934417 203.72416703 -239.8515625 200.28344727 C-239.43235755 193.23128006 -239.43235755 193.23128006 -242.34472656 187.06176758 C-244.61568384 185.05286159 -246.95291477 183.35617434 -249.4375 181.625 C-251.91707022 179.07892048 -254.1537496 176.34704594 -256.4375 173.625 C-257.68853516 172.20574219 -257.68853516 172.20574219 -258.96484375 170.7578125 C-273.0407545 154.70681841 -285.13549897 137.64695713 -284.7109375 115.5546875 C-284.24856457 108.90972799 -282.14243202 105.027397 -277.4375 100.4375 C-265.08297712 90.74923099 -249.64066851 90.28580319 -234.6784668 90.36425781 C-232.27171174 90.37490396 -229.86571573 90.36434987 -227.45898438 90.3515625 C-217.30758051 90.34376662 -207.47363248 91.10926519 -197.4375 92.625 C-197.4375 96.585 -197.4375 100.545 -197.4375 104.625 C-198.60539062 104.480625 -199.77328125 104.33625 -200.9765625 104.1875 C-237.22156977 99.21384816 -237.22156977 99.21384816 -270.4375 110.625 C-273.38535373 114.9399743 -273.07457705 119.6029352 -272.4375 124.625 C-267.17361749 144.58175844 -251.68956702 161.37293298 -237.4375 175.625 C-237.11136719 174.74457031 -236.78523438 173.86414063 -236.44921875 172.95703125 C-235.79373047 171.21486328 -235.79373047 171.21486328 -235.125 169.4375 C-234.69574219 168.28894531 -234.26648438 167.14039063 -233.82421875 165.95703125 C-231.01179719 159.19929719 -231.01179719 159.19929719 -228.4375 156.625 C-221.7175 157.345 -221.7175 157.345 -220.4375 158.625 C-220.07240085 163.32995693 -220.98874037 166.59929412 -222.75 170.9375 C-234.11223833 201.79630637 -228.1458896 233.35665989 -214.98486328 262.54003906 C-207.38445289 278.83479 -198.38432857 294.03088951 -185.4375 306.625 C-184.86 307.21152344 -184.2825 307.79804688 -183.6875 308.40234375 C-170.34702092 320.97574528 -150.00530662 328.17407605 -131.93188477 327.97827148 C-107.05343193 327.16215293 -82.27728572 320.22566254 -59.05078125 311.65234375 C-58.15496338 311.32540527 -57.25914551 310.9984668 -56.33618164 310.66162109 C-54.61762528 310.0295776 -52.90412352 309.383549 -51.19702148 308.72119141 C-46.09442342 306.83959851 -42.75614179 306.36644439 -37.4375 307.625 C-36.09440201 314.0962903 -36.09440201 314.0962903 -37.47094727 316.2175293 C-40.26993427 318.22077698 -43.31274557 318.94824791 -46.58984375 319.83203125 C-48.02107514 320.25676851 -49.45139011 320.68460384 -50.88085938 321.11523438 C-53.12404702 321.78439281 -55.3656278 322.43501963 -57.62866211 323.03393555 C-62.63716249 324.37535119 -67.05710904 325.80101528 -71.4375 328.625 C-74.00502155 333.17251343 -74.7999796 337.48523923 -75.4375 342.625 C-75.76681519 344.35157837 -75.76681519 344.35157837 -76.1027832 346.11303711 C-77.73954307 354.71918198 -77.70434401 363.51750765 -77.8125 372.25 C-77.83860352 373.46502197 -77.86470703 374.68004395 -77.89160156 375.93188477 C-77.90935219 385.29850938 -76.93025215 395.66812053 -70.9375 403.3125 C-66.96276894 406.98912623 -64.41547228 408.11239214 -58.86328125 407.9296875 C-36.92354088 405.17397132 -8.37386845 391.62960497 7.5625 376.625 C8.2225 376.05394531 8.8825 375.48289062 9.5625 374.89453125 C15.00158312 369.94269932 18.60780731 364.04292817 19.0625 356.5625 C18.38012905 351.18882881 17.11186629 347.01335368 13.078125 343.234375 C5.73562567 338.62094622 -4.64676114 339.74394458 -12.8359375 341.25 C-31.29402074 346.35445759 -45.34821189 357.21119842 -56.4375 372.625 C-57.76667292 374.29498649 -59.09764102 375.96357487 -60.4375 377.625 C-63.3125 377.3125 -63.3125 377.3125 -66.4375 376.625 C-68.4375 373.625 -68.4375 373.625 -68.25390625 371.26953125 C-63.94744786 357.31990289 -50.02662356 345.8723815 -37.625 339.0859375 C-34.67673962 337.11692075 -34.86093438 335.21920482 -34.18359375 331.8984375 C-32.59204787 327.04880556 -28.71135396 323.43547062 -25.4375 319.625 C-23.76105106 317.59487206 -22.09538259 315.55613702 -20.42919922 313.51757812 C-15.52826309 307.52769246 -10.57709103 301.58248157 -5.5625 295.6875 C-1.86758666 291.34360491 1.73652387 286.93988282 5.28125 282.47265625 C12.96394186 272.88244672 20.83576897 263.4437355 28.80004883 254.08666992 C32.10413896 250.1946416 35.29577122 246.22466777 38.46484375 242.22265625 C40.96690192 239.12420433 43.54222189 236.09365888 46.125 233.0625 C50.94894233 227.37923535 50.94894233 227.37923535 55.6875 221.625 C56.49574219 220.635 56.49574219 220.635 57.3203125 219.625 C63.7193448 209.32215554 59.40195628 188.74364736 56.90966797 177.74365234 C50.93894964 152.7559459 42.21070921 127.86467413 24.5625 108.625 C23.90773682 107.89869385 23.90773682 107.89869385 23.23974609 107.15771484 C13.27641734 96.21035362 1.6291461 88.49893226 -11.4609375 81.68359375 C-13.4375 80.625 -13.4375 80.625 -14.4375 79.625 C-14.625 76.6875 -14.625 76.6875 -14.4375 73.625 C-12.4375 71.625 -12.4375 71.625 -9.6875 71.375 C-6.30724405 71.63501969 -3.59506096 72.42211963 -0.4375 73.625 C-0.55844705 66.24722997 -2.611466 62.11565894 -6.84375 56.10546875 C-9.78881168 51.5218556 -9.32782574 48.86802935 -8.4375 43.625 C-7.97497561 37.89997592 -8.05836143 33.51892483 -11.4375 28.625 C-14.59390287 25.66587231 -17.56724022 25.34484076 -21.75 25.125 C-29.63079165 25.3891016 -34.02594254 28.94102757 -39.375 34.4375 C-45.76537696 41.9414476 -51.03049185 51.37228313 -54.4375 60.625 C-53.81875 60.74875 -53.2 60.8725 -52.5625 61 C-50.4375 61.625 -50.4375 61.625 -48.4375 63.625 C-48.1875 66.625 -48.1875 66.625 -48.4375 69.625 C-50.4375 71.625 -50.4375 71.625 -52.77587891 71.85205078 C-54.20552979 71.83634033 -54.20552979 71.83634033 -55.6640625 71.8203125 C-56.6953125 71.81386719 -57.7265625 71.80742187 -58.7890625 71.80078125 C-59.86929688 71.78402344 -60.94953125 71.76726562 -62.0625 71.75 C-63.15046875 71.74097656 -64.2384375 71.73195313 -65.359375 71.72265625 C-68.05230152 71.69903409 -70.74479255 71.66609556 -73.4375 71.625 C-73.21707031 70.54734375 -72.99664062 69.4696875 -72.76953125 68.359375 C-72.11900095 64.78883128 -72.11900095 64.78883128 -73.51171875 62.515625 C-74.04410156 61.97421875 -74.57648438 61.4328125 -75.125 60.875 C-75.95451172 60.01455078 -75.95451172 60.01455078 -76.80078125 59.13671875 C-78.59166377 57.48261007 -80.39505724 55.96044334 -82.4375 54.625 C-80.76802835 44.6984118 -69.19109987 35.72007402 -62.4375 28.625 C-61.8280957 27.98159668 -61.21869141 27.33819336 -60.59082031 26.67529297 C-46.47736478 11.86848314 -22.51137254 -12.27578687 0 0 Z " fill="#AF85DB" transform="translate(284.4375,58.375)"/>
<path d="M0 0 C4.00392306 2.37207206 7.12316629 5.66798774 10.28125 9.05078125 C12.3045368 11.10928348 14.34746033 12.97610874 16.53125 14.85546875 C21.53327627 19.18329367 26.12125512 23.88241245 30.75 28.6015625 C33.98997537 31.87950634 37.25697069 35.05385561 40.75 38.0625 C45.68462131 42.31282812 50.19253389 46.95508338 54.75 51.6015625 C58.66176423 55.55916772 62.67746137 59.30099653 66.89306641 62.93261719 C69.52728 65.2447405 71.97502296 67.69266924 74.4375 70.1875 C75.77361328 71.53714844 75.77361328 71.53714844 77.13671875 72.9140625 C77.99910156 73.78804688 78.86148438 74.66203125 79.75 75.5625 C80.61496094 76.42746094 81.47992188 77.29242188 82.37109375 78.18359375 C83.54865234 79.36115234 83.54865234 79.36115234 84.75 80.5625 C85.65878906 81.45775391 85.65878906 81.45775391 86.5859375 82.37109375 C87.09382812 82.90863281 87.60171875 83.44617188 88.125 84 C88.64835938 84.53496094 89.17171875 85.06992188 89.7109375 85.62109375 C90.75 87.5625 90.75 87.5625 90.80078125 90.3359375 C89.34590683 94.80332141 86.8006793 97.42128447 83.5625 100.75 C82.93609619 101.40492432 82.30969238 102.05984863 81.66430664 102.73461914 C57.54103093 127.43075104 22.73123875 144.11191832 -12.0546875 144.71484375 C-13.03397217 144.73506592 -14.01325684 144.75528809 -15.0222168 144.77612305 C-16.91158321 144.79969859 -18.8017219 144.79142516 -20.69067383 144.74536133 C-26.01937454 144.78636273 -28.64552843 145.46281456 -32.58203125 149.171875 C-33.17346924 149.82639648 -33.76490723 150.48091797 -34.37426758 151.15527344 C-36.25 152.5625 -36.25 152.5625 -38.85424805 152.39941406 C-41.25 151.5625 -41.25 151.5625 -43.25 149.5625 C-42.875 145.9375 -42.875 145.9375 -42.25 142.5625 C-46.53352386 139.6558231 -50.82576952 138.31526397 -55.75 136.9375 C-56.49636719 136.7209375 -57.24273437 136.504375 -58.01171875 136.28125 C-66.88751541 133.73633131 -76.96126382 131.16068185 -85.75 135.25 C-89.68294905 137.5476272 -92.21293569 140.48837137 -94.25 144.5625 C-94.63227938 148.53820557 -94.54959782 150.96330437 -92.75 154.5625 C-89.25511035 158.75636758 -85.18988937 163.09255531 -80.25 165.5625 C-79.85442673 167.61069049 -79.55827251 169.67848887 -79.3125 171.75 C-78.21125986 180.01698461 -78.21125986 180.01698461 -73.0625 186.25 C-72.464375 186.683125 -71.86625 187.11625 -71.25 187.5625 C-71.25 190.57740557 -71.76952735 192.43114114 -72.75 195.25 C-73.0284375 196.05824219 -73.306875 196.86648437 -73.59375 197.69921875 C-73.8103125 198.31410156 -74.026875 198.92898437 -74.25 199.5625 C-88.96362364 187.79160109 -102.62249911 171.34053557 -109.25 153.5625 C-109.8996875 152.0465625 -109.8996875 152.0465625 -110.5625 150.5 C-111.90463272 144.76543292 -112.16613995 139.62381489 -109.75 134.1875 C-102.09316818 126.14782659 -89.73217429 124.46687165 -79.0859375 124.19921875 C-76.59890117 124.19773562 -74.11179207 124.21511289 -71.625 124.25 C-70.32208008 124.259104 -69.01916016 124.26820801 -67.67675781 124.27758789 C-41.14084601 124.617077 -41.14084601 124.617077 -35.25 127.5625 C-35.25276538 127.00296379 -35.25553076 126.44342758 -35.25837994 125.86693573 C-35.32474351 112.22810346 -35.37413917 98.58929962 -35.40543652 84.95034027 C-35.42108142 78.35452755 -35.44229861 71.75883151 -35.47631836 65.16308594 C-35.50895315 58.79589188 -35.52686186 52.42880995 -35.53463173 46.0615387 C-35.54016779 43.63430517 -35.55097834 41.20707767 -35.56719017 38.77989197 C-35.58901868 35.37591365 -35.59196458 31.97239661 -35.59057617 28.56835938 C-35.601362 27.56854034 -35.61214783 26.56872131 -35.6232605 25.53860474 C-35.58922813 17.80989133 -34.34404404 10.87689488 -28.87109375 4.94921875 C-20.8897284 -1.87821426 -9.86824631 -4.24609801 0 0 Z " fill="#B085DB" transform="translate(122.25,35.4375)"/>
<path d="M0 0 C2.40675505 0.01064615 4.81275106 0.00009206 7.21948242 -0.01269531 C17.37088629 -0.02049119 27.20483431 0.74500738 37.2409668 2.26074219 C37.2409668 6.22074219 37.2409668 10.18074219 37.2409668 14.26074219 C36.07307617 14.11636719 34.90518555 13.97199219 33.7019043 13.82324219 C-2.54310297 8.84959034 -2.54310297 8.84959034 -35.7590332 20.26074219 C-38.70688693 24.57571648 -38.39611025 29.23867739 -37.7590332 34.26074219 C-32.49515069 54.21750063 -17.01110023 71.00867516 -2.7590332 85.26074219 C-2.43290039 84.3803125 -2.10676758 83.49988281 -1.77075195 82.59277344 C-1.11526367 80.85060547 -1.11526367 80.85060547 -0.4465332 79.07324219 C-0.01727539 77.9246875 0.41198242 76.77613281 0.85424805 75.59277344 C3.66666961 68.83503938 3.66666961 68.83503938 6.2409668 66.26074219 C12.9609668 66.98074219 12.9609668 66.98074219 14.2409668 68.26074219 C14.60606594 72.96569912 13.68972643 76.23503631 11.9284668 80.57324219 C0.56622847 111.43204856 6.53257719 142.99240208 19.69360352 172.17578125 C27.2940139 188.47053219 36.29413822 203.6666317 49.2409668 216.26074219 C50.1072168 217.14052734 50.1072168 217.14052734 50.9909668 218.03808594 C64.33144587 230.61148747 84.67316017 237.80981824 102.74658203 237.61401367 C127.62503486 236.79789511 152.40118108 229.86140473 175.62768555 221.28808594 C176.52350342 220.96114746 177.41932129 220.63420898 178.34228516 220.29736328 C180.06084152 219.66531979 181.77434328 219.01929119 183.48144531 218.35693359 C188.58404337 216.4753407 191.92232501 216.00218658 197.2409668 217.26074219 C198.58406478 223.73203249 198.58406478 223.73203249 197.20751953 225.85327148 C194.40853253 227.85651917 191.36572123 228.5839901 188.08862305 229.46777344 C186.65739165 229.89251069 185.22707669 230.32034603 183.79760742 230.75097656 C181.55441977 231.420135 179.312839 232.07076182 177.04980469 232.66967773 C172.04130431 234.01109338 167.62135776 235.43675746 163.2409668 238.26074219 C160.67344525 242.80825562 159.8784872 247.12098142 159.2409668 252.26074219 C159.02142334 253.41179443 158.80187988 254.56284668 158.57568359 255.7487793 C156.93892373 264.35492417 156.97412278 273.15324984 156.8659668 281.88574219 C156.83986328 283.10076416 156.81375977 284.31578613 156.78686523 285.56762695 C156.76911461 294.93425157 157.74821465 305.30386272 163.7409668 312.94824219 C167.71569786 316.62486842 170.26299452 317.74813433 175.81518555 317.56542969 C197.75492591 314.80971351 226.30459835 301.26534716 242.2409668 286.26074219 C242.9009668 285.6896875 243.5609668 285.11863281 244.2409668 284.53027344 C249.68004992 279.57844151 253.2862741 273.67867035 253.7409668 266.19824219 C253.05859585 260.82457099 251.79033309 256.64909587 247.7565918 252.87011719 C240.41409247 248.25668841 230.03170566 249.37968676 221.8425293 250.88574219 C203.38444606 255.99019977 189.33025491 266.84694061 178.2409668 282.26074219 C176.91179387 283.93072868 175.58082578 285.59931705 174.2409668 287.26074219 C171.3659668 286.94824219 171.3659668 286.94824219 168.2409668 286.26074219 C166.2409668 283.26074219 166.2409668 283.26074219 166.42456055 280.90527344 C170.91165847 266.37051127 185.31875946 255.09241686 198.1472168 248.05371094 C202.1112045 245.96930693 206.15611071 244.09385642 210.2409668 242.26074219 C211.20260742 241.803125 212.16424805 241.34550781 213.1550293 240.87402344 C223.42276878 236.65744454 236.90512442 236.42889202 247.63549805 239.10839844 C255.56805922 242.70303061 261.39410325 249.76522176 264.58081055 257.78027344 C266.87613692 266.40472462 265.53220694 274.54415013 261.2409668 282.26074219 C249.25883377 301.01262146 228.78218649 310.43201913 209.2409668 319.26074219 C208.54874023 319.5770459 207.85651367 319.89334961 207.14331055 320.21923828 C193.75985383 326.30981035 179.1688361 332.81707261 164.2800293 328.37792969 C155.05488648 324.19475682 150.81832231 317.65729373 147.27612305 308.39746094 C140.45301192 287.72214685 143.77567663 262.93379632 149.2409668 242.26074219 C148.66241943 242.4017334 148.08387207 242.54272461 147.48779297 242.68798828 C144.80213118 243.34049909 142.11531473 243.98813361 139.4284668 244.63574219 C138.5190332 244.85746094 137.60959961 245.07917969 136.67260742 245.30761719 C116.20557509 250.22549068 94.45345405 252.44427424 74.2409668 245.26074219 C73.18264648 244.88691406 72.12432617 244.51308594 71.03393555 244.12792969 C38.48990761 231.51137457 20.29934693 203.73798977 6.2409668 173.26074219 C-0.82505097 157.02486152 -6.12309713 140.16924311 -5.67700195 122.33105469 C-5.66246979 121.64021286 -5.64793762 120.94937103 -5.63296509 120.2375946 C-5.55142361 116.78965165 -5.41087738 113.35990922 -5.1730957 109.91918945 C-4.75389075 102.86702225 -4.75389075 102.86702225 -7.66625977 96.69750977 C-9.93721704 94.68860378 -12.27444797 92.99191653 -14.7590332 91.26074219 C-17.23860342 88.71466266 -19.4752828 85.98278812 -21.7590332 83.26074219 C-22.59305664 82.31457031 -23.42708008 81.36839844 -24.28637695 80.39355469 C-38.36228771 64.3425606 -50.45703217 47.28269932 -50.0324707 25.19042969 C-49.57009778 18.54547018 -47.46396522 14.66313919 -42.7590332 10.07324219 C-30.40451032 0.38497318 -14.96220171 -0.07845462 0 0 Z " fill="#68828E" transform="translate(49.759033203125,148.7392578125)"/>
<path d="M0 0 C12.35841072 8.69140688 16.31279313 23.81840791 18.984375 37.921875 C20.11785745 45.18228959 20.67839822 52.22419919 20.59765625 59.5703125 C20.60136571 61.24089157 20.60729076 62.91146694 20.61523438 64.58203125 C20.62581221 67.17433781 20.62479592 69.76387486 20.58666992 72.35595703 C20.08720944 82.20009535 20.08720944 82.20009535 23.234375 91.18652344 C25.2535133 92.93764291 27.2616572 94.27542772 29.5625 95.625 C55.80781321 121.32190368 69.78470642 160.66505183 72.3125 196.8125 C72.09462334 203.80270952 68.35772037 207.87353164 63.5625 212.625 C62.44101562 213.75228516 62.44101562 213.75228516 61.296875 214.90234375 C60.72453125 215.47082031 60.1521875 216.03929687 59.5625 216.625 C59.57821045 215.78859985 59.57821045 215.78859985 59.59423828 214.93530273 C60.20036374 177.58953445 50.48313367 136.88308211 24.5625 108.625 C24.12599121 108.1407959 23.68948242 107.6565918 23.23974609 107.15771484 C13.27641734 96.21035362 1.6291461 88.49893226 -11.4609375 81.68359375 C-13.4375 80.625 -13.4375 80.625 -14.4375 79.625 C-14.625 76.6875 -14.625 76.6875 -14.4375 73.625 C-12.4375 71.625 -12.4375 71.625 -9.6875 71.375 C-6.30724405 71.63501969 -3.59506096 72.42211963 -0.4375 73.625 C-0.55844705 66.24722997 -2.611466 62.11565894 -6.84375 56.10546875 C-9.78881168 51.5218556 -9.32782574 48.86802935 -8.4375 43.625 C-7.97497561 37.89997592 -8.05836143 33.51892483 -11.4375 28.625 C-14.59390287 25.66587231 -17.56724022 25.34484076 -21.75 25.125 C-29.63079165 25.3891016 -34.02594254 28.94102757 -39.375 34.4375 C-45.76537696 41.9414476 -51.03049185 51.37228313 -54.4375 60.625 C-53.81875 60.74875 -53.2 60.8725 -52.5625 61 C-50.4375 61.625 -50.4375 61.625 -48.4375 63.625 C-48.1875 66.625 -48.1875 66.625 -48.4375 69.625 C-50.4375 71.625 -50.4375 71.625 -52.77587891 71.85205078 C-54.20552979 71.83634033 -54.20552979 71.83634033 -55.6640625 71.8203125 C-56.6953125 71.81386719 -57.7265625 71.80742187 -58.7890625 71.80078125 C-60.40941406 71.77564453 -60.40941406 71.77564453 -62.0625 71.75 C-63.15046875 71.74097656 -64.2384375 71.73195313 -65.359375 71.72265625 C-68.05230152 71.69903409 -70.74479255 71.66609556 -73.4375 71.625 C-73.21707031 70.54734375 -72.99664062 69.4696875 -72.76953125 68.359375 C-72.11900095 64.78883128 -72.11900095 64.78883128 -73.51171875 62.515625 C-74.04410156 61.97421875 -74.57648438 61.4328125 -75.125 60.875 C-75.95451172 60.01455078 -75.95451172 60.01455078 -76.80078125 59.13671875 C-78.59166377 57.48261007 -80.39505724 55.96044334 -82.4375 54.625 C-80.76802835 44.6984118 -69.19109987 35.72007402 -62.4375 28.625 C-61.8280957 27.98159668 -61.21869141 27.33819336 -60.59082031 26.67529297 C-46.47736478 11.86848314 -22.51137254 -12.27578687 0 0 Z " fill="#67838E" transform="translate(284.4375,58.375)"/>
<path d="M0 0 C2 2 2 2 2.125 5.125 C2.08375 6.07375 2.0425 7.0225 2 8 C0.02 8.99 0.02 8.99 -2 10 C-1.34 11.65 -0.68 13.3 0 15 C0.72445312 14.45730469 1.44890625 13.91460937 2.1953125 13.35546875 C3.16210938 12.64003906 4.12890625 11.92460937 5.125 11.1875 C6.07632813 10.47980469 7.02765625 9.77210938 8.0078125 9.04296875 C13.16455968 5.52210873 17.36471948 3.28489672 23.63671875 3.52734375 C31.36736615 5.07347323 37.66945247 11.73977844 42 18 C47.0515185 26.57861426 47.39002145 36.6393582 45.25 46.25 C44.8375 47.4875 44.425 48.725 44 50 C43.63261719 51.14662109 43.63261719 51.14662109 43.2578125 52.31640625 C39.17151205 63.87014955 31.51236082 73.90052727 20.34765625 79.27734375 C8.6261269 84.11398068 -2.79143247 84.52190297 -14.8984375 80.32421875 C-26.84920639 75.22181238 -36.72911757 67.03480451 -42 55 C-44.38376308 47.83352756 -44.32894574 37.59525217 -41.16796875 30.6796875 C-37.67643218 25.65841417 -32.33636775 22.43138632 -26.36328125 21.234375 C-21.25379692 20.72764928 -16.12625509 20.85934056 -11 21 C-11.66 19.35 -12.32 17.7 -13 16 C-13.928125 16.061875 -14.85625 16.12375 -15.8125 16.1875 C-19 16 -19 16 -20.875 14.875 C-22.54663625 12.08893958 -22.46376624 10.18011138 -22 7 C-18.94357006 4.14929131 -15.41840824 2.76561711 -11.5625 1.25 C-10.45003906 0.80140625 -9.33757812 0.3528125 -8.19140625 -0.109375 C-4.87327136 -1.03536613 -3.2237133 -1.11437003 0 0 Z " fill="#68828E" transform="translate(225,233)"/>
<path d="M0 0 C5.11917109 1.94661037 8.65452832 6.06838584 12.4140625 9.91796875 C13.33703125 10.8409375 14.26 11.76390625 15.2109375 12.71484375 C17.01044682 14.51435307 18.80062559 16.323278 20.578125 18.14453125 C22.74567349 20.26431008 24.92458886 22.24866305 27.21875 24.22265625 C32.43962957 28.74462948 37.22194109 33.67681052 42.05859375 38.6015625 C46.07871144 42.66577655 50.18842473 46.52451595 54.52148438 50.25244141 C57.44741706 52.82735276 60.1818898 55.57799217 62.9140625 58.35546875 C63.4503125 58.89623047 63.9865625 59.43699219 64.5390625 59.99414062 C65.83310286 61.29973492 67.12394424 62.60849871 68.4140625 63.91796875 C66.74881006 65.58604844 65.08193558 67.25250937 63.4140625 68.91796875 C62.88425781 69.45679687 62.35445313 69.995625 61.80859375 70.55078125 C48.00170083 83.57357901 28.69872138 92.41800597 10.4140625 96.91796875 C8.80144531 97.31628906 8.80144531 97.31628906 7.15625 97.72265625 C1.25658718 99.0841169 -4.29181416 100.01433508 -10.3347168 100.45849609 C-11.50536179 100.54545746 -12.67600677 100.63241882 -13.88212585 100.72201538 C-14.7743837 100.78667999 -15.66664154 100.8513446 -16.5859375 100.91796875 C-16.67865573 89.15673447 -16.74971197 77.39558727 -16.79318619 65.63406181 C-16.81405265 60.17257647 -16.84235349 54.71134134 -16.88769531 49.25 C-16.93118606 43.97857329 -16.95508169 38.70738712 -16.96544647 33.43579483 C-16.972832 31.42555073 -16.98725425 29.41531965 -17.00885773 27.40517807 C-17.0379344 24.58737585 -17.04189169 21.77056505 -17.04003906 18.95263672 C-17.05442017 18.12329117 -17.06880127 17.29394562 -17.08361816 16.43946838 C-17.0458233 11.11984171 -16.08711684 8.15239322 -12.5859375 3.91796875 C-8.50803077 0.21940218 -5.34197684 -0.90224024 0 0 Z " fill="#C1A8DE" transform="translate(114.5859375,45.08203125)"/>
<path d="M0 0 C5.83931674 4.09064435 9.87782071 9.15653778 11.94140625 16.03515625 C13.39240415 30.54513521 7.11179724 40.8448459 -1.77587891 51.74047852 C-4.21196769 54.68744328 -6.67105517 57.6145349 -9.13574219 60.53759766 C-11.37788943 63.21495445 -13.55997365 65.93689667 -15.74609375 68.66015625 C-23.82981984 78.52200323 -32.02825105 86.56111424 -44.80859375 89.53515625 C-52.04718454 90.17594953 -58.97107228 90.13992633 -65.80859375 87.53515625 C-64.83040351 86.22192837 -63.85101265 84.90959473 -62.87109375 83.59765625 C-62.32582031 82.86675781 -61.78054688 82.13585937 -61.21875 81.3828125 C-59.80859375 79.53515625 -59.80859375 79.53515625 -58.80859375 78.53515625 C-56.83008043 78.45458331 -54.85065279 78.39616353 -52.87109375 78.34765625 C-42.86434782 77.64542847 -36.37704699 72.79502562 -29.80859375 65.53515625 C-30.42605469 65.39980469 -31.04351562 65.26445312 -31.6796875 65.125 C-41.96274992 62.51119266 -49.34974978 56.61110656 -54.80859375 47.53515625 C-59.99184096 38.57346714 -60.44914335 28.07467422 -57.9609375 18.15625 C-54.34930514 8.57012072 -48.32709553 1.10242425 -39.08984375 -3.46875 C-24.93407027 -9.64978123 -13.07657523 -8.32889847 0 0 Z " fill="#68838F" transform="translate(384.80859375,341.46484375)"/>
<path d="M0 0 C3.00288197 1.43520094 5.85560708 3.07515759 8.72021484 4.76708984 C20.8577855 12.02485601 20.8577855 12.02485601 34.375 15.4375 C39.03328564 17.44538174 39.19604396 19.01519649 41.0625 23.625 C41.30162109 24.25712402 41.54074219 24.88924805 41.78710938 25.54052734 C45.03468749 34.0599489 50.64194521 40.21897521 59 44 C61.97526452 44.88516437 64.93383789 45.52446097 68 46 C63.21614225 52.13315097 57.98491104 56.50754448 51 60 C48.91689374 60.05178993 46.8334839 60.09170231 44.75 60.125 C39.93492497 60.38938664 39.93492497 60.38938664 35.80859375 62.62109375 C34.36259228 64.35281118 33.11891894 66.04316916 32 68 C41.89882674 71.76455381 52.24937636 70.77443496 62 67 C59.25523134 77.43012092 52.39311518 85.45339454 45 93 C44.41992188 93.61617188 43.83984375 94.23234375 43.2421875 94.8671875 C31.16027739 106.6240238 12.63490622 113.29338451 -4 114 C-4.86238281 114.0515625 -5.72476562 114.103125 -6.61328125 114.15625 C-12.94491856 114.36187828 -18.96321534 113.68583914 -25.1875 112.625 C-25.94289063 112.49899414 -26.69828125 112.37298828 -27.4765625 112.24316406 C-29.33262613 111.90175052 -31.16951643 111.45920071 -33 111 C-33.33 110.34 -33.66 109.68 -34 109 C-33.47792969 108.77449463 -32.95585937 108.54898926 -32.41796875 108.31665039 C2.4462211 93.29330119 2.4462211 93.29330119 25 64 C27.44763839 56.65708482 26.69920455 49.57347166 23.4375 42.625 C19.70816728 35.92795885 15.37727379 31.55507565 8.23657227 28.59106445 C3.34342241 27.29793971 -1.79308476 27.74268304 -6.8125 27.875 C-9.06893458 27.91822185 -11.32544947 27.95749139 -13.58203125 27.9921875 C-15.07053589 28.02868408 -15.07053589 28.02868408 -16.58911133 28.06591797 C-19 28 -19 28 -21 27 C-19.34170354 23.05439807 -16.65297045 20.06574047 -13.875 16.875 C-12.8856259 15.72359441 -11.89735583 14.57123929 -10.91015625 13.41796875 C-10.42047363 12.8461084 -9.93079102 12.27424805 -9.42626953 11.68505859 C-6.19259785 7.86465429 -3.09710016 3.93127613 0 0 Z " fill="#B0B8C5" transform="translate(288,360)"/>
<path d="M0 0 C0.66 0 1.32 0 2 0 C2.34998047 0.87398438 2.34998047 0.87398438 2.70703125 1.765625 C9.63924114 17.34472566 22.30692998 26.36219512 37.58984375 32.95703125 C39.77008738 33.90050783 41.88666119 34.91636224 44 36 C36.60421554 45.57957909 28.94770396 54.87331727 21 64 C19.58318366 63.68817931 18.16655349 63.37551263 16.75 63.0625 C15.96109375 62.88847656 15.1721875 62.71445312 14.359375 62.53515625 C12.84769577 62.19227537 11.33987411 61.83161423 9.83789062 61.44848633 C1.63313811 59.44634361 -6.50803517 61.51583356 -14 65 C-16.53765222 66.7091834 -18.8527353 68.50507893 -21.16015625 70.51171875 C-23 72 -23 72 -26 73 C-28.33741405 72.07038043 -30.46753022 71.09552858 -32.6875 69.9375 C-33.31092285 69.61966553 -33.9343457 69.30183105 -34.57666016 68.97436523 C-39.42347922 66.44271721 -43.82215685 63.54208441 -48 60 C-46.45555924 56.51490069 -44.37524647 53.85677663 -41.9375 50.9375 C-41.12925781 49.96425781 -40.32101562 48.99101562 -39.48828125 47.98828125 C-38.66714844 47.00214844 -37.84601563 46.01601563 -37 45 C-35.54022149 43.20951061 -34.08186408 41.41786157 -32.625 39.625 C-29.27290763 35.52409817 -25.86851766 31.47218812 -22.4375 27.4375 C-17.00752048 21.04950893 -11.77855173 14.51352348 -6.578125 7.9375 C-5.76859375 6.926875 -4.9590625 5.91625 -4.125 4.875 C-3.38507813 3.94429688 -2.64515625 3.01359375 -1.8828125 2.0546875 C-1.26148438 1.37664062 -0.64015625 0.69859375 0 0 Z " fill="#C1A8DF" transform="translate(359,274)"/>
<path d="M0 0 C3.57355319 1.54688529 6.12558556 3.70537105 9 6.3125 C10.2684375 7.45138672 10.2684375 7.45138672 11.5625 8.61328125 C13.93931502 10.94057929 15.98139525 13.35992666 18 16 C-5.89279624 41.3432864 -36.01086449 57.50885022 -71.36572266 59.10693359 C-75.59719815 59.22026859 -79.75978084 59.12849149 -84 59 C-84 51.41 -84 43.82 -84 36 C-73.1875 34.1875 -73.1875 34.1875 -69.85229492 33.63745117 C-42.95254356 29.03979569 -20.59518199 17.73474004 0 0 Z " fill="#C1A8DF" transform="translate(182,110)"/>
<path d="M0 0 C5.57702466 3.34269617 9.84707713 7.61563409 14.375 12.25 C15.11105469 12.99507812 15.84710938 13.74015625 16.60546875 14.5078125 C18.40830047 16.33405762 20.20626978 18.16482205 22 20 C20.33474756 21.66807969 18.66787308 23.33454062 17 25 C16.47019531 25.53882812 15.94039063 26.07765625 15.39453125 26.6328125 C1.58763833 39.65561026 -17.71534112 48.50003722 -36 53 C-37.61261719 53.39832031 -37.61261719 53.39832031 -39.2578125 53.8046875 C-47.35840415 55.6740548 -54.48701131 56.34515472 -63 57 C-63 47.1 -63 37.2 -63 27 C-59.3184375 26.195625 -59.3184375 26.195625 -55.5625 25.375 C-35.10742275 20.64910339 -16.88046931 12.4869225 0 0 Z " fill="#FEFD9D" transform="translate(161,89)"/>
<path d="M0 0 C1.8203125 0.9296875 1.8203125 0.9296875 3.8203125 2.9296875 C3.5078125 6.3046875 3.5078125 6.3046875 2.8203125 9.9296875 C2.71332031 10.56519531 2.60632813 11.20070312 2.49609375 11.85546875 C1.59673377 14.61593205 0.09690237 16.44742559 -1.6796875 18.7421875 C-4.17845646 22.05003908 -6.44299562 25.29465129 -8.46484375 28.9140625 C-8.84511719 29.58977295 -9.22539063 30.2654834 -9.6171875 30.96166992 C-10.3532661 32.29022152 -11.0715765 33.62881314 -11.76953125 34.9777832 C-13.78468945 38.58906412 -14.81483072 39.80819963 -18.8046875 41.13671875 C-20.4753125 41.52923828 -20.4753125 41.52923828 -22.1796875 41.9296875 C-23.80904971 43.56327124 -23.80904971 43.56327124 -24.6171875 45.5546875 C-25.1328125 46.6684375 -25.6484375 47.7821875 -26.1796875 48.9296875 C-30.29615466 45.79759293 -32.62446633 43.9985565 -34.1796875 38.9296875 C-34.46089992 36.66672343 -34.66673639 34.39338088 -34.8046875 32.1171875 C-34.91683594 30.37501953 -34.91683594 30.37501953 -35.03125 28.59765625 C-35.08023438 27.71722656 -35.12921875 26.83679688 -35.1796875 25.9296875 C-36.28763672 25.55457031 -36.28763672 25.55457031 -37.41796875 25.171875 C-40.40458253 23.82853245 -42.09105717 22.38805128 -44.3671875 20.0546875 C-45.04136719 19.37664062 -45.71554688 18.69859375 -46.41015625 18 C-49.10446938 14.84771311 -50.09516891 12.69035482 -50.5546875 8.5546875 C-49.99545787 3.14880109 -47.66588603 0.30156307 -43.7421875 -3.3203125 C-31.02253308 -12.00690576 -12.94164249 -5.30826692 0 0 Z " fill="#FDFDFE" transform="translate(77.1796875,175.0703125)"/>
<path d="M0 0 C1.75390625 1.12109375 1.75390625 1.12109375 3.4375 2.5 C4.10652344 3.04785156 4.77554688 3.59570312 5.46484375 4.16015625 C9.2202917 7.78174665 10.92222482 10.67620896 11.1875 15.9375 C10.76934939 21.77552588 8.79542981 25.78911789 5.4375 30.5 C4.84453125 31.34820312 4.2515625 32.19640625 3.640625 33.0703125 C-1.15877702 39.5015112 -6.39157396 43.91453698 -13.5625 47.5 C-18.10136362 48.05374136 -21.60920792 47.96730004 -25.75 45.9375 C-32.02122984 40.50243414 -36.92562248 34.96299382 -37.9140625 26.484375 C-38.24777799 18.93186647 -37.38769384 13.43602984 -32.5625 7.5 C-23.97180962 -1.36287067 -12.00826305 -5.35279576 0 0 Z " fill="#B0B8C5" transform="translate(374.5625,347.5)"/>
<path d="M0 0 C3.47322162 3.03906892 5.80730332 5.92756042 6.1328125 10.6953125 C6.13023437 11.41460937 6.12765625 12.13390625 6.125 12.875 C6.12693359 14.07189453 6.12693359 14.07189453 6.12890625 15.29296875 C6.00298037 17.69319243 5.55840735 19.84131648 5.0625 22.1875 C4.47448574 26.52505974 5.89068121 28.66594017 8.375 32.1875 C9.57496464 33.71494503 10.78170217 35.2371372 12 36.75 C13.20272819 39.15545638 13.10071472 40.69996953 13.0625 43.375 C13.05347656 44.19226563 13.04445313 45.00953125 13.03515625 45.8515625 C13.02355469 46.47804687 13.01195312 47.10453125 13 47.75 C12.15695312 47.65460938 11.31390625 47.55921875 10.4453125 47.4609375 C9.34960938 47.35007813 8.25390625 47.23921875 7.125 47.125 C5.48917969 46.95097656 5.48917969 46.95097656 3.8203125 46.7734375 C2.88960938 46.76570313 1.95890625 46.75796875 1 46.75 C0.34 47.41 -0.32 48.07 -1 48.75 C-6.78755304 48.49277542 -12.02816963 46.49366686 -17.50390625 44.71484375 C-21.04542492 43.73746374 -24.4148947 43.27299518 -28.0625 42.875 C-33.54229092 42.15623079 -33.54229092 42.15623079 -35.59765625 40.33203125 C-36.625 38.6875 -36.625 38.6875 -38 35.75 C-38.99 35.42 -39.98 35.09 -41 34.75 C-39.4344708 22.43924768 -29.04221124 9.70978595 -20 1.75 C-13.70780749 -2.04672873 -6.86827837 -2.86178265 0 0 Z " fill="#FDFDFE" transform="translate(271,84.25)"/>
<path d="M0 0 C7.23036469 3.75422782 10.90544244 9.72025734 14 17 C14.92894714 20.07098214 15.57839778 23.16418685 16.1875 26.3125 C16.35185547 27.09044922 16.51621094 27.86839844 16.68554688 28.66992188 C18.77488893 38.98129016 19.14605593 49.19158952 19.0625 59.6875 C19.05798828 60.78255859 19.05347656 61.87761719 19.04882812 63.00585938 C19.03719156 65.67063309 19.02084564 68.33528517 19 71 C15.99768716 70.29341172 13.49543245 69.35597343 10.75 67.9375 C10.04359375 67.57527344 9.3371875 67.21304688 8.609375 66.83984375 C7.81273437 66.42412109 7.81273437 66.42412109 7 66 C7.66 65.67 8.32 65.34 9 65 C8.87905295 57.62222997 6.826034 53.49065894 2.59375 47.48046875 C-0.35131168 42.8968556 0.10967426 40.24302935 1 35 C1.46252439 29.27497592 1.37913857 24.89392483 -2 20 C-5.15640287 17.04087231 -8.12974022 16.71984076 -12.3125 16.5 C-20.19329165 16.7641016 -24.58844254 20.31602757 -29.9375 25.8125 C-36.42803518 33.43405913 -41.29651673 42.74129182 -45 52 C-51.27 52 -57.54 52 -64 52 C-62.0756904 48.15138081 -59.83836388 45.22119478 -57.0625 42 C-56.57813477 41.4332959 -56.09376953 40.8665918 -55.59472656 40.28271484 C-50.53231879 34.39509212 -45.31129719 28.66314968 -40 23 C-39.40960938 22.35546875 -38.81921875 21.7109375 -38.2109375 21.046875 C-29.20119875 11.5489238 -13.94023731 -2.40348919 0 0 Z " fill="#B0B8C5" transform="translate(275,67)"/>
<path d="M0 0 C1.30291992 0.009104 2.60583984 0.01820801 3.94824219 0.02758789 C30.48415399 0.367077 30.48415399 0.367077 36.375 3.3125 C37.1538836 12.38216681 37.1538836 12.38216681 34.125 16 C29.75797851 18.08426026 26.64256703 16.08897804 22.19848633 14.54760742 C4.17543216 8.22883947 4.17543216 8.22883947 -14.125 11 C-18.05794905 13.2976272 -20.58793569 16.23837137 -22.625 20.3125 C-23.00727938 24.28820557 -22.92459782 26.71330437 -21.125 30.3125 C-17.63011035 34.50636758 -13.56488937 38.84255531 -8.625 41.3125 C-8.22942673 43.36069049 -7.93327251 45.42848887 -7.6875 47.5 C-6.58625986 55.76698461 -6.58625986 55.76698461 -1.4375 62 C-0.839375 62.433125 -0.24125 62.86625 0.375 63.3125 C0.375 66.32740557 -0.14452735 68.18114114 -1.125 71 C-1.4034375 71.80824219 -1.681875 72.61648437 -1.96875 73.44921875 C-2.1853125 74.06410156 -2.401875 74.67898437 -2.625 75.3125 C-17.33862364 63.54160109 -30.99749911 47.09053557 -37.625 29.3125 C-38.058125 28.301875 -38.49125 27.29125 -38.9375 26.25 C-40.27963272 20.51543292 -40.54113995 15.37381489 -38.125 9.9375 C-28.65055203 -0.01067037 -12.82679706 -0.17994666 0 0 Z " fill="#B0B8C5" transform="translate(50.625,159.6875)"/>
<path d="M0 0 C0.62003906 0.42410156 1.24007813 0.84820312 1.87890625 1.28515625 C16.24431945 10.79936732 30.66794536 17.62059487 48.125 17.1875 C49.176875 17.17396484 50.22875 17.16042969 51.3125 17.14648438 C53.87555954 17.11153356 56.43748913 17.06247682 59 17 C58.06092525 18.26118382 57.12056785 19.52141264 56.1796875 20.78125 C55.65616699 21.48314453 55.13264648 22.18503906 54.59326172 22.90820312 C52.48016216 25.68249626 50.25837346 28.34309004 48 31 C46.58318366 30.68817931 45.16655349 30.37551263 43.75 30.0625 C42.96109375 29.88847656 42.1721875 29.71445312 41.359375 29.53515625 C39.89431644 29.20284992 38.43423109 28.84649681 36.984375 28.453125 C28.6550492 26.55115297 20.61815492 28.45714838 13 32 C10.46234778 33.7091834 8.1472647 35.50507893 5.83984375 37.51171875 C4 39 4 39 1 40 C-1.33741405 39.07038043 -3.46753022 38.09552858 -5.6875 36.9375 C-6.62263428 36.46074829 -6.62263428 36.46074829 -7.57666016 35.97436523 C-12.42347922 33.44271721 -16.82215685 30.54208441 -21 27 C-19.45555924 23.51490069 -17.37524647 20.85677663 -14.9375 17.9375 C-14.14214844 16.97972656 -13.34679687 16.02195312 -12.52734375 15.03515625 C-11.69332031 14.03355469 -10.85929687 13.03195312 -10 12 C-8.32897066 9.96186502 -6.66489513 7.91815931 -5 5.875 C-1.12307692 1.12307692 -1.12307692 1.12307692 0 0 Z " fill="#FDFD9D" transform="translate(332,307)"/>
<path d="M0 0 C3.00288197 1.43520094 5.85560708 3.07515759 8.72021484 4.76708984 C20.8577855 12.02485601 20.8577855 12.02485601 34.375 15.4375 C38.83178185 17.35852666 39.67315164 19.63338657 41.4375 23.875 C42.37038936 26.2351797 43.19546722 28.58918552 44 31 C44.28488281 31.72058594 44.56976563 32.44117188 44.86328125 33.18359375 C45 35 45 35 43.671875 37.10546875 C43.03765625 37.79253906 42.4034375 38.47960937 41.75 39.1875 C41.12609375 39.88230469 40.5021875 40.57710938 39.859375 41.29296875 C36.14303545 44.70481829 31.47247937 44.5722108 26.65234375 44.546875 C24 44 24 44 22.37890625 42.390625 C21.57350217 40.98578902 20.81362063 39.55402071 20.09765625 38.1015625 C17.64094836 33.39797231 13.07557971 30.60694471 8.25195312 28.59985352 C3.35445753 27.29530596 -1.78637835 27.74250625 -6.8125 27.875 C-9.06893458 27.91822185 -11.32544947 27.95749139 -13.58203125 27.9921875 C-15.07053589 28.02868408 -15.07053589 28.02868408 -16.58911133 28.06591797 C-19 28 -19 28 -21 27 C-19.34170354 23.05439807 -16.65297045 20.06574047 -13.875 16.875 C-12.8856259 15.72359441 -11.89735583 14.57123929 -10.91015625 13.41796875 C-10.17563232 12.56017822 -10.17563232 12.56017822 -9.42626953 11.68505859 C-6.19259785 7.86465429 -3.09710016 3.93127613 0 0 Z " fill="#FDFD9D" transform="translate(288,360)"/>
<path d="M0 0 C0.64324219 0.42410156 1.28648437 0.84820312 1.94921875 1.28515625 C9.11384364 5.93551906 16.43736712 10.04434624 24 14 C23.72285156 14.54914063 23.44570313 15.09828125 23.16015625 15.6640625 C22.58587891 16.82035156 22.58587891 16.82035156 22 18 C21.37931641 19.24910156 21.37931641 19.24910156 20.74609375 20.5234375 C17.14331707 28.3742643 16.13998739 35.39713873 16 44 C2.46358595 42.83054738 -11.02073184 36.09790829 -21 27 C-18.16551557 22.56862293 -15.07112358 18.59306536 -11.625 14.625 C-7.55157114 9.87911916 -3.67507935 5.06564992 0 0 Z " fill="#C1A8DF" transform="translate(310,333)"/>
<path d="M0 0 C11.84223938 1.58141706 22.69053522 10.16577148 30.04296875 19.234375 C37.1548308 29.3833983 37.1548308 29.3833983 36.390625 35.3984375 C35.515625 38.3359375 35.515625 38.3359375 34.515625 39.3359375 C25.17939306 40.58816555 18.29822316 38.46824548 10.515625 33.3359375 C1.76370443 26.51240621 -8.3884677 17.63352135 -9.921875 6.0234375 C-8.96108879 0.12146504 -5.23974446 -0.21973122 0 0 Z " fill="#615C5F" transform="translate(378.484375,258.6640625)"/>
<path d="M0 0 C3.74276313 2.59726934 6.82016953 5.75134203 10 9 C11.09856881 10.09024884 12.19890411 11.17871989 13.30078125 12.265625 C16.2220608 15.15623942 19.1164048 18.07181312 22 21 C18.27296827 25.56112664 13.28221582 27.56661099 8.0625 30 C7.12623779 30.44134277 6.18997559 30.88268555 5.2253418 31.33740234 C-11.34270688 39 -11.34270688 39 -18 39 C-18.12415248 34.55266701 -18.21459457 30.1062674 -18.2746582 25.65771484 C-18.29971095 24.14646826 -18.33376377 22.63534176 -18.37719727 21.12451172 C-18.4382669 18.94468499 -18.46629916 16.76646738 -18.48828125 14.5859375 C-18.51446533 13.2767334 -18.54064941 11.9675293 -18.56762695 10.61865234 C-17.82536158 5.88667068 -16.3419616 4.35892108 -13 1 C-8.73448049 -1.83016409 -4.75125107 -1.61617359 0 0 Z " fill="#FEFD9D" transform="translate(117,46)"/>
<path d="M0 0 C-1.37854763 8.81957175 -6.83138074 15.77994727 -13.5859375 21.37109375 C-20.51684214 26.04777213 -28.81329382 27.06585925 -37 26 C-41.50941538 24.72634833 -45.80872463 23.09563769 -50 21 C-48.20661892 13.22868197 -43.04571123 7.14536062 -36.625 2.625 C-24.92961736 -4.46311069 -12.75092011 -4.83556338 0 0 Z " fill="#FA80A5" transform="translate(258,279)"/>
<path d="M0 0 C5.87628866 28.89175258 5.87628866 28.89175258 -1.25 39.9375 C-4.40193221 41.85117313 -6.37965185 41.58392712 -10 41 C-19.00767552 35.95440797 -27.96536347 25.54643506 -32 16 C-31.67 15.01 -31.34 14.02 -31 13 C-28.5859375 11.89453125 -28.5859375 11.89453125 -25.375 10.8125 C-19.21636676 8.59157695 -13.63148545 5.81491187 -7.93896484 2.59106445 C-3.29682248 0 -3.29682248 0 0 0 Z " fill="#91A2B5" transform="translate(179,159)"/>
<path d="M0 0 C5.90140073 8.85210109 6.95175847 24.46386671 6 35 C4.93746835 39.33073244 3.53179404 43.12287998 0 46 C-4.00527382 46.52899843 -6.32442297 46.3449755 -9.9375 44.5 C-17.28961501 38.49827346 -22.47327785 32.36757731 -27 24 C-26.03513672 23.34257812 -26.03513672 23.34257812 -25.05078125 22.671875 C-19.36019277 18.6779099 -14.10505659 14.46235993 -9 9.75 C-8.44868408 9.24307617 -7.89736816 8.73615234 -7.3293457 8.21386719 C-4.59166532 5.64927557 -2.12411006 3.09766051 0 0 Z " fill="#91A2B5" transform="translate(209,131)"/>
<path d="M0 0 C0.639375 0.70125 1.27875 1.4025 1.9375 2.125 C8.16645526 8.28376985 14.36405721 11.62921543 23 13 C18.21614225 19.13315097 12.98491104 23.50754448 6 27 C4.68708984 26.93039062 4.68708984 26.93039062 3.34765625 26.859375 C-2.99826777 26.60151196 -2.99826777 26.60151196 -8.60595703 29.23828125 C-11.68124796 32.35399762 -14.2255655 35.84133189 -16.77392578 39.39013672 C-19.51582316 42.99031022 -22.62222116 46.54074039 -27 48 C-27.99 47.67 -28.98 47.34 -30 47 C-29.54109375 46.46632813 -29.0821875 45.93265625 -28.609375 45.3828125 C-20.95601015 36.08944089 -17.95557463 28.10506129 -19 16 C-19.30424808 14.32777932 -19.62841079 12.65855671 -20 11 C-19.13117188 10.93683594 -18.26234375 10.87367188 -17.3671875 10.80859375 C-9.39409117 10.12800672 -9.39409117 10.12800672 -3.25 5.5 C-1.98679586 3.70411942 -0.98159985 1.9631997 0 0 Z " fill="#AF86DA" transform="translate(333,393)"/>
<path d="M0 0 C1.46810457 4.4043137 1.26550881 8.69796511 1.3125 13.3125 C1.34150391 14.25029297 1.37050781 15.18808594 1.40039062 16.15429688 C1.45468297 22.08051508 1.03422146 25.53922108 -3 30 C-6.1875 31.25 -6.1875 31.25 -10 31 C-20.60361924 26.23218559 -27.76345167 15.99704682 -33 6 C-33 5.67 -33 5.34 -33 5 C-32.20303711 4.88406494 -31.40607422 4.76812988 -30.58496094 4.64868164 C-26.97299861 4.1220468 -23.36149809 3.5923086 -19.75 3.0625 C-17.86861328 2.78889648 -17.86861328 2.78889648 -15.94921875 2.50976562 C-14.14130859 2.24389648 -14.14130859 2.24389648 -12.296875 1.97265625 C-11.18666992 1.81031494 -10.07646484 1.64797363 -8.93261719 1.48071289 C-5.93103188 0.98869479 -3.03733146 0 0 0 Z " fill="#91A2B5" transform="translate(141,175)"/>
<path d="M0 0 C1.1875 2.6875 1.1875 2.6875 2 6 C0.69538742 9.14641857 -0.86349804 10.87539706 -3.375 13.16796875 C-6.43589206 16.47027045 -8.06852848 19.70087892 -9.9375 23.75 C-19.06040581 42.60771384 -19.06040581 42.60771384 -28 47 C-32.40043526 47.37214363 -32.40043526 47.37214363 -34.8125 45.875 C-36.70985172 42.8791815 -36.72767787 41.5060843 -36 38 C-34.41796875 36.25390625 -34.41796875 36.25390625 -32.375 34.375 C-26.58011564 29.01958659 -23.94681478 22.40094286 -20.80078125 15.2890625 C-16.36314858 5.7061348 -11.07584888 -1.84597481 0 0 Z " fill="#FFCC6A" transform="translate(461,212)"/>
<path d="M0 0 C2 2 2 2 2.4375 5.4375 C2 9 2 9 0.0625 10.75 C-3 12 -3 12 -4.84375 12.453125 C-11.41546884 14.16961873 -15.73388997 17.70867955 -20.89160156 21.93701172 C-27.26123818 27.12908308 -33.60754665 31.1005752 -42.0625 31.25 C-42.94035156 31.27578125 -43.81820313 31.3015625 -44.72265625 31.328125 C-45.47417969 31.21984375 -46.22570312 31.1115625 -47 31 C-49.56687367 27.1496895 -48.83288724 25.41430237 -48 21 C-47.19949219 20.77957031 -47.19949219 20.77957031 -46.3828125 20.5546875 C-37.75779671 17.95822946 -30.83732629 13.61061411 -23.9375 7.875 C-16.65115104 1.94134297 -9.61823558 -1.5636451 0 0 Z " fill="#FE508E" transform="translate(490,253)"/>
<path d="M0 0 C3.5 0.5 3.5 0.5 5.5 2.125 C6.87544412 5.3916798 6.43514622 7.09339591 5.5 10.5 C5.00628906 11.48742187 4.51257813 12.47484375 4.00390625 13.4921875 C1.49273129 19.25530371 1.72083804 25.59718221 1.41601562 31.78710938 C0.87714772 40.01164881 -0.7897811 48.20443313 -6.5 54.5 C-10 55 -10 55 -13.5 54.5 C-15.5 52.8125 -15.5 52.8125 -16.5 50.5 C-16.33122203 47.37760757 -15.41480769 45.33117243 -14.00390625 42.53515625 C-11.87498707 37.61203065 -11.85456594 32.54278388 -11.5625 27.25 C-9.73621677 1.39088811 -9.73621677 1.39088811 0 0 Z " fill="#6CB84F" transform="translate(408.5,188.5)"/>
<path d="M0 0 C2 2 2 2 2.25 5 C2 8 2 8 0 10 C-3.9270444 10.24043129 -7.57229563 9.91434843 -11.4375 9.3125 C-16.22724514 8.76672972 -19.88226225 9.43727292 -24 12 C-27.00268861 14.81926645 -29.34633137 17.93778847 -31.5 21.4375 C-33 23 -33 23 -36.0625 23.375 C-39 23 -39 23 -41 21 C-41.7361846 16.39884628 -41.13203561 13.66383302 -38.5 9.9375 C-28.53411655 -2.13385179 -14.62250834 -6.8700578 0 0 Z " fill="#625E60" transform="translate(176,260)"/>
<path d="M0 0 C1 1 1 1 1.25 3.375 C1 6 1 6 -0.125 7.8125 C-2.81090902 9.51357571 -4.88657099 9.26497268 -8 9 C-8.66 8.67 -9.32 8.34 -10 8 C-15.87891335 7.5945577 -20.81446694 8.01134869 -26 11 C-28.68035641 13.8021908 -30.789988 16.69810775 -33 19.875 C-35 22 -35 22 -37.5625 22.5 C-40 22 -40 22 -41.875 20.9375 C-43 19 -43 19 -43.0625 15.8125 C-40.88650606 8.00452175 -35.94506113 3.33774046 -29.14453125 -0.8125 C-19.74102231 -6.0195432 -9.17425197 -5.42610152 0 0 Z " fill="#625E60" transform="translate(300,213)"/>
<path d="M0 0 C2 2 2 2 2.3125 4.8125 C2 8 2 8 0.5 10.4375 C-1.49350874 13.84307744 -1.42399489 16.11338018 -1 20 C-0.505 20.66 -0.01 21.32 0.5 22 C2.74823673 24.99764898 2.403129 27.371839 2 31 C-1.52572807 33.35048538 -2.85013645 33.66397817 -7 33 C-12.06399235 28.05109838 -14.28104503 23.35626388 -14.375 16.1875 C-14.25920808 9.47156849 -12.63181703 4.89499874 -8.125 -0.0625 C-5.09376807 -1.3998082 -3.13645535 -0.88638956 0 0 Z " fill="#FE508E" transform="translate(473,65)"/>
<path d="M0 0 C3 0.4375 3 0.4375 4.8125 1.5 C7.36128862 5.65854986 7.10857341 9.6774861 6.4375 14.375 C4.58662528 20.68758597 0.80661215 25.7542978 -4.9375 29 C-8.87698999 30.70887666 -11.83834677 30.68599597 -16 29.4375 C-18 26.4375 -18 26.4375 -17.9375 23.4375 C-17 20.4375 -17 20.4375 -14.75 18.8125 C-13.38875 18.131875 -13.38875 18.131875 -12 17.4375 C-9.14670688 15.92158701 -9.14670688 15.92158701 -7 13.4375 C-6.53329828 11.13793336 -6.37301302 8.9065744 -6.22265625 6.56640625 C-6 4.4375 -6 4.4375 -4.8125 1.875 C-3 0.4375 -3 0.4375 0 0 Z " fill="#FE508E" transform="translate(450,152.5625)"/>
<path d="M0 0 C2.83865506 1.95387946 5.42993788 3.85987576 7 7 C7.1875 10.5 7.1875 10.5 7 14 C5 16 5 16 1.6875 16.4375 C-2.93303372 15.88930108 -3.87075828 14.28971565 -7 11 C-10.41549906 9.93265654 -12.16365328 9.66546131 -15.5 11 C-18.74934574 12.29973829 -20.67144442 11.96158272 -24 11 C-26.1610211 7.75846834 -26.64247553 6.76307099 -26 3 C-18.71736278 -4.49683243 -8.87325242 -4.56236055 0 0 Z " fill="#6CB74F" transform="translate(505,149)"/>
<path d="M0 0 C1.69921875 1.34765625 1.69921875 1.34765625 3.4375 3 C6.12530604 5.51611799 6.7195831 5.96556284 10.5625 6.4375 C13.97456197 6.05315194 13.97456197 6.05315194 17.1875 5.3125 C20 5 20 5 22.375 6 C24 8 24 8 24.5 11.5 C24 15 24 15 22.1875 16.875 C15.71123151 20.20565236 7.51083378 20.04024705 0.625 18 C-3.10512518 15.15799987 -6.51878061 12.00812362 -9 8 C-9.28773623 5.13533194 -9.4016299 3.64707039 -7.875 1.1875 C-4.97370638 -0.64998596 -3.38577839 -0.58600011 0 0 Z " fill="#FFCC6A" transform="translate(393,110)"/>
<path d="M0 0 C4.27678892 1.54849254 4.49389034 2.30537005 6.375 6.25 C6.74109375 7.14589844 7.1071875 8.04179687 7.484375 8.96484375 C8.52565607 11.61170489 8.52565607 11.61170489 11.625 13.3125 C13.92785441 13.86666283 16.23144924 14.25743312 18.56640625 14.65234375 C20.625 15.3125 20.625 15.3125 22.625 18.3125 C22.4375 21.375 22.4375 21.375 21.625 24.3125 C17.54098942 27.03517372 14.41801092 26.92718809 9.625 26.3125 C2.4335657 24.13683056 -2.19430062 19.27740797 -5.75 12.8125 C-6.74894754 8.81670982 -7.29785958 5.04964744 -5.3125 1.3125 C-3.375 0.3125 -3.375 0.3125 0 0 Z " fill="#FE518E" transform="translate(486.375,208.6875)"/>
<path d="M0 0 C1.875 1.6875 1.875 1.6875 3 4 C2.9375 6.5625 2.9375 6.5625 2 9 C-2.56390833 13.01037303 -8.33248848 14.64604659 -13.9375 16.75 C-15.02224609 17.17410156 -16.10699219 17.59820312 -17.22460938 18.03515625 C-18.27326172 18.43089844 -19.32191406 18.82664063 -20.40234375 19.234375 C-21.83308228 19.77916504 -21.83308228 19.77916504 -23.29272461 20.33496094 C-26.33157909 21.08145202 -28.0553801 21.03262344 -31 20 C-33 17 -33 17 -32.9375 14.5 C-31.46227543 10.56606782 -28.17245572 9.54547954 -24.4921875 7.83325195 C-21.66512605 6.65047484 -18.83511282 5.47586109 -16 4.3125 C-15.01515625 3.89677734 -14.0303125 3.48105469 -13.015625 3.05273438 C-12.06171875 2.66021484 -11.1078125 2.26769531 -10.125 1.86328125 C-9.26132812 1.50532471 -8.39765625 1.14736816 -7.5078125 0.77856445 C-4.82692286 -0.05373277 -2.78943144 -0.26951458 0 0 Z " fill="#92A2B5" transform="translate(328,226)"/>
<path d="M0 0 C1 1 1 1 1.0625 4.5625 C1.041875 5.696875 1.02125 6.83125 1 8 C-4.5922773 10.87566478 -10.21532795 13.43890401 -16.0625 15.75 C-16.82626953 16.06582031 -17.59003906 16.38164062 -18.37695312 16.70703125 C-23.05825815 18.55712785 -26.88029629 19.54784091 -32 19 C-34 17 -34 17 -34.3125 13.6875 C-33 10 -33 10 -31.00390625 8.640625 C-28.04582698 7.28685321 -25.04579778 6.14305344 -22 5 C-20.72361139 4.44818285 -19.45025676 3.88930618 -18.1796875 3.32421875 C-16.8701795 2.75691643 -15.56028695 2.19050087 -14.25 1.625 C-13.03828125 1.10164063 -11.8265625 0.57828125 -10.578125 0.0390625 C-6.57896125 -1.12226671 -4.02579449 -0.94070072 0 0 Z " fill="#91A2B5" transform="translate(157,295)"/>
<path d="M0 0 C1.19496094 -0.00386719 2.38992188 -0.00773438 3.62109375 -0.01171875 C4.87019531 -0.00011719 6.11929687 0.01148438 7.40625 0.0234375 C8.65535156 0.01183594 9.90445312 0.00023437 11.19140625 -0.01171875 C12.98384766 -0.00591797 12.98384766 -0.00591797 14.8125 0 C15.90884766 0.00338379 17.00519531 0.00676758 18.13476562 0.01025391 C20.90625 0.3984375 20.90625 0.3984375 22.76367188 1.73193359 C24.54002504 4.32282818 24.29476428 6.35507564 23.90625 9.3984375 C18.83738716 12.77767939 12.85743586 11.72572673 6.90625 11.7109375 C5.60945313 11.72705078 4.31265625 11.74316406 2.9765625 11.75976562 C1.73648437 11.76041016 0.49640625 11.76105469 -0.78125 11.76171875 C-2.48861328 11.76619019 -2.48861328 11.76619019 -4.23046875 11.77075195 C-7.09375 11.3984375 -7.09375 11.3984375 -8.99609375 10.03198242 C-10.09375 8.3984375 -10.09375 8.3984375 -9.96875 5.8984375 C-8.08184342 0.50727585 -5.48678289 0.01693452 0 0 Z " fill="#92A2B5" transform="translate(311.09375,250.6015625)"/>
<path d="M0 0 C2.75 0.5625 2.75 0.5625 4.6875 1.75 C5.75 3.5625 5.75 3.5625 5.75 5.9375 C4.43480631 9.38988345 2.41804555 11.00088267 -0.25 13.5625 C-0.75515137 14.06120605 -1.26030273 14.55991211 -1.78076172 15.07373047 C-3.4009485 16.67003977 -5.04213568 18.24218739 -6.6875 19.8125 C-7.23470703 20.35390625 -7.78191406 20.8953125 -8.34570312 21.453125 C-11.80438945 24.72762093 -14.26261036 26.53444155 -19.25 26.5625 C-20.24 25.9025 -21.23 25.2425 -22.25 24.5625 C-22.78515625 21.28515625 -22.78515625 21.28515625 -22.25 17.5625 C-20.41039414 15.33624464 -18.88409648 13.78177043 -16.6875 12 C-16.13755371 11.53037842 -15.58760742 11.06075684 -15.02099609 10.5769043 C-13.93135132 9.64821883 -12.83545207 8.72681317 -11.73291016 7.81347656 C-9.87224733 6.24382949 -8.13712766 4.55359565 -6.375 2.875 C-3.25 0.5625 -3.25 0.5625 0 0 Z " fill="#91A2B5" transform="translate(159.25,309.4375)"/>
<path d="M0 0 C0.87011719 0.41572266 0.87011719 0.41572266 1.7578125 0.83984375 C6.17841841 2.88966266 10.09514353 4.4969378 15 5 C10.21614225 11.13315097 4.98491104 15.50754448 -2 19 C-4.04055005 19.07065617 -6.08334257 19.08421976 -8.125 19.0625 C-9.22070312 19.05347656 -10.31640625 19.04445313 -11.4453125 19.03515625 C-12.70988281 19.01775391 -12.70988281 19.01775391 -14 19 C-11.50573612 14.54778154 -8.48547614 10.66293205 -5.3125 6.6875 C-4.80138672 6.04232422 -4.29027344 5.39714844 -3.76367188 4.73242188 C-2.51173116 3.1528705 -1.25622486 1.57614631 0 0 Z " fill="#AFB7C5" transform="translate(341,401)"/>
<path d="M0 0 C1.8125 1.1875 1.8125 1.1875 3 3 C3.375 5.5 3.375 5.5 3 8 C-0.65291465 12.78657781 -7.4515591 14.39474879 -13 16 C-15.71728192 16.11010056 -17.37896036 15.79240733 -20 15 C-20.6875 11.6875 -20.6875 11.6875 -21 8 C-18.71422837 4.69924674 -15.26868871 3.70077041 -11.625 2.3125 C-10.50351563 1.87550781 -9.38203125 1.43851563 -8.2265625 0.98828125 C-5.22660305 0.06940747 -3.10091404 -0.30843905 0 0 Z " fill="#FBFCFC" transform="translate(256,188)"/>
<path d="M0 0 C2 1.1875 2 1.1875 3 3 C3.0625 5.4375 3.0625 5.4375 2 8 C-2.52069664 11.82520485 -8.27097829 14.52007839 -14 16 C-17.37080235 15.6614478 -18.57725828 15.42274172 -21 13 C-21.375 10.0625 -21.375 10.0625 -21 7 C-15.49605924 2.03272467 -7.35916197 -1.05130885 0 0 Z " fill="#FBFCFC" transform="translate(171,222)"/>
<path d="M0 0 C2 3 2 3 2 5 C4.31 5.33 6.62 5.66 9 6 C8.06725891 7.12894876 7.12859878 8.25300876 6.1875 9.375 C5.66542969 10.00148437 5.14335938 10.62796875 4.60546875 11.2734375 C3 13 3 13 0 15 C-3.32240324 14.6758631 -4.60776303 14.39223697 -7 12 C-7 8.5935135 -6.94152751 6.04846 -4.58984375 3.4296875 C-3.1183507 2.21214006 -1.56308608 1.09748597 0 0 Z " fill="#6A8390" transform="translate(86,173)"/>
<path d="M0 0 C-1.48777303 3.25964342 -3.35666816 5.93169293 -5.5625 8.75 C-6.49255859 9.94882812 -6.49255859 9.94882812 -7.44140625 11.171875 C-7.95574219 11.77515625 -8.47007812 12.3784375 -9 13 C-9.33 13 -9.66 13 -10 13 C-10.66 9.04 -11.32 5.08 -12 1 C-2.25 0 -2.25 0 0 0 Z " fill="#C2A9DD" transform="translate(325,403)"/>
</svg>
