<?xml version="1.0" encoding="UTF-8"?>
<svg version="1.1" xmlns="http://www.w3.org/2000/svg" width="512" height="512">
<path d="M0 0 C2.57404666 2.10031606 5.08481919 4.23388112 7.53515625 6.4765625 C10.85915365 4.9677434 13.52798866 3.0185812 16.41015625 0.7890625 C33.75879376 -11.91633115 51.32312473 -15.43508122 72.53515625 -13.5234375 C78.1796814 -12.5954789 83.29797577 -10.78426397 88.53515625 -8.5234375 C89.52386719 -8.100625 90.51257813 -7.6778125 91.53125 -7.2421875 C108.14573226 0.86473718 120.92496029 17.02439745 127.11083984 34.13793945 C129.7599234 41.88857213 131.50276578 49.21699232 131.53515625 57.4765625 C132.45554687 57.44175781 133.3759375 57.40695313 134.32421875 57.37109375 C155.44728968 56.91937838 172.69567796 63.17398858 188.22265625 77.6640625 C204.41928945 94.55607888 208.26157837 115.14095879 207.91796875 137.56640625 C207.57021177 146.68189217 205.58362282 154.91908135 202.53515625 163.4765625 C202.17421875 164.53101563 201.81328125 165.58546875 201.44140625 166.671875 C198.79955548 173.5972981 195.10330984 179.92862876 191.47216797 186.3671875 C180.18746085 206.48068982 171.66645628 227.7474443 166.16015625 250.1640625 C165.93368408 251.07494629 165.70721191 251.98583008 165.47387695 252.92431641 C161.4171578 270.49581018 160.08882841 288.10137844 160.15039062 306.08032227 C160.14627091 308.13454487 160.14080187 310.18876513 160.1341095 312.24298096 C160.12251498 316.61394014 160.11985227 320.98477353 160.12446594 325.35574532 C160.13134672 332.26896088 160.11529257 339.18201413 160.09606934 346.09519958 C160.05525607 361.99133056 160.04364837 377.88745581 160.03253937 393.78363037 C160.0220255 408.41345639 160.00531199 423.04320294 159.96444368 437.67297977 C159.94609642 444.54595452 159.94219039 451.41873951 159.94937897 458.29173291 C159.95089805 462.55305475 159.94013687 466.81428087 159.9260006 471.07557678 C159.92199159 473.05209938 159.92313374 475.02864005 159.92977333 477.00515556 C159.93813264 479.6999662 159.92819104 482.39411206 159.91369629 485.08888245 C159.92403719 486.26433848 159.92403719 486.26433848 159.934587 487.46354109 C159.88740596 491.95693845 159.36280283 494.92230912 156.53515625 498.4765625 C153.6664437 499.288891 151.56906555 498.81366353 148.53515625 498.4765625 C147.87515625 497.8165625 147.21515625 497.1565625 146.53515625 496.4765625 C146.53515625 495.1565625 146.53515625 493.8365625 146.53515625 492.4765625 C55.45515625 492.4765625 -35.62484375 492.4765625 -129.46484375 492.4765625 C-129.79484375 494.1265625 -130.12484375 495.7765625 -130.46484375 497.4765625 C-132.33102927 499.34274802 -134.96262029 498.8251151 -137.45703125 499 C-139.46484375 498.4765625 -139.46484375 498.4765625 -141.06709385 496.46597481 C-142.85426668 492.64369125 -142.87678039 489.25491124 -142.83665466 485.12252808 C-142.84239151 483.86450164 -142.84239151 483.86450164 -142.84824425 482.58106053 C-142.85752783 479.77115607 -142.84553779 476.96174456 -142.83374023 474.15185547 C-142.83620856 472.13583675 -142.8400473 470.11981931 -142.84515381 468.10380554 C-142.85349813 463.75823577 -142.85267799 459.41279702 -142.8449688 455.06722641 C-142.8333642 448.17033618 -142.84557175 441.27361342 -142.86158752 434.3767395 C-142.89776557 417.22567777 -142.90402941 400.07461938 -142.90148926 382.92352295 C-142.89976944 369.6294528 -142.90718249 356.33552007 -142.94146782 343.04148781 C-142.95539017 337.32238277 -142.96151464 331.60350763 -142.94842339 325.8843956 C-142.83227401 272.60832728 -150.7842877 223.96418077 -179.15673828 177.69726562 C-191.27252606 157.12891818 -193.79864346 131.9353232 -188.68359375 108.96875 C-185.11612358 96.20581793 -178.86127145 85.76131788 -169.46484375 76.4765625 C-168.77777344 75.76757812 -168.09070313 75.05859375 -167.3828125 74.328125 C-155.20239408 62.53187562 -138.17820725 57.10507194 -121.46484375 57.2265625 C-119.12778391 57.27624718 -116.80011124 57.36476778 -114.46484375 57.4765625 C-114.45066406 56.868125 -114.43648438 56.2596875 -114.421875 55.6328125 C-113.31188198 35.23294081 -103.42949804 16.84425876 -88.83984375 2.8515625 C-63.84206695 -18.74437617 -26.45155127 -20.06351317 0 0 Z " fill="#F3F3F3" transform="translate(247.46484375,13.5234375)"/>
<path d="M0 0 C10.51528937 9.81133694 18.61011896 22.51152406 26.39697266 34.50146484 C30.02134804 40.01940115 33.98004057 45.16412182 38.1171875 50.3046875 C51.82078971 67.49941423 61.67111391 86.56750397 60.26171875 109.11279297 C59.01481512 119.2529205 54.05408753 129.03198448 46.9921875 136.3046875 C46.39792969 136.93761719 45.80367187 137.57054687 45.19140625 138.22265625 C36.3230003 146.83400696 23.52756181 150.64989472 11.3828125 150.53515625 C10.57535583 150.53469803 9.76789917 150.53423981 8.93597412 150.5337677 C7.23497032 150.53076149 5.53396888 150.52292442 3.83300781 150.51049805 C1.26356964 150.49233862 -1.30550452 150.48998816 -3.875 150.49023438 C-11.37464375 150.47365866 -18.75481281 150.33089485 -26.21728516 149.52954102 C-31.85371744 149.0753718 -37.51624001 149.15760174 -43.16772461 149.17431641 C-45.30655082 149.17965316 -47.44516469 149.17435109 -49.58398438 149.16796875 C-57.25485097 149.16437475 -64.82155296 149.45814668 -72.47290039 150.06445312 C-78.32039625 150.46185184 -84.16299771 150.56555099 -90.02172852 150.59985352 C-91.38934634 150.61142554 -92.75691721 150.63195934 -94.12426758 150.66137695 C-109.44479331 150.98804451 -123.27286758 147.71211456 -134.7578125 137.0546875 C-142.43116455 128.85650713 -147.35992798 118.52234521 -148.0078125 107.3046875 C-148.12189453 105.79261719 -148.12189453 105.79261719 -148.23828125 104.25 C-149.07026094 84.41740304 -139.2529075 67.07402957 -127.28662109 51.93261719 C-124.83957572 48.81751628 -122.45452572 45.65549103 -120.0703125 42.4921875 C-119.56032715 41.81639648 -119.0503418 41.14060547 -118.52490234 40.44433594 C-115.14986538 35.93356203 -111.96731093 31.33041355 -108.8828125 26.6171875 C-96.68693388 8.04779079 -83.04801843 -8.7952739 -61.0078125 -15.6953125 C-37.91077004 -19.46190712 -18.09689199 -15.2802551 0 0 Z " fill="#F56495" transform="translate(300.0078125,163.6953125)"/>
<path d="M0 0 C2.57404666 2.10031606 5.08481919 4.23388112 7.53515625 6.4765625 C10.85915365 4.9677434 13.52798866 3.0185812 16.41015625 0.7890625 C33.75879376 -11.91633115 51.32312473 -15.43508122 72.53515625 -13.5234375 C78.1796814 -12.5954789 83.29797577 -10.78426397 88.53515625 -8.5234375 C89.52386719 -8.100625 90.51257813 -7.6778125 91.53125 -7.2421875 C108.14573226 0.86473718 120.92496029 17.02439745 127.11083984 34.13793945 C129.7599234 41.88857213 131.50276578 49.21699232 131.53515625 57.4765625 C132.45554687 57.44175781 133.3759375 57.40695313 134.32421875 57.37109375 C155.44728968 56.91937838 172.69567796 63.17398858 188.22265625 77.6640625 C204.41928945 94.55607888 208.26157837 115.14095879 207.91796875 137.56640625 C207.57021177 146.68189217 205.58362282 154.91908135 202.53515625 163.4765625 C202.17421875 164.53101563 201.81328125 165.58546875 201.44140625 166.671875 C198.79955548 173.5972981 195.10330984 179.92862876 191.47216797 186.3671875 C180.18746085 206.48068982 171.66645628 227.7474443 166.16015625 250.1640625 C165.93368408 251.07494629 165.70721191 251.98583008 165.47387695 252.92431641 C161.4171578 270.49581018 160.08882841 288.10137844 160.15039062 306.08032227 C160.14627091 308.13454487 160.14080187 310.18876513 160.1341095 312.24298096 C160.12251498 316.61394014 160.11985227 320.98477353 160.12446594 325.35574532 C160.13134672 332.26896088 160.11529257 339.18201413 160.09606934 346.09519958 C160.05525607 361.99133056 160.04364837 377.88745581 160.03253937 393.78363037 C160.0220255 408.41345639 160.00531199 423.04320294 159.96444368 437.67297977 C159.94609642 444.54595452 159.94219039 451.41873951 159.94937897 458.29173291 C159.95089805 462.55305475 159.94013687 466.81428087 159.9260006 471.07557678 C159.92199159 473.05209938 159.92313374 475.02864005 159.92977333 477.00515556 C159.93813264 479.6999662 159.92819104 482.39411206 159.91369629 485.08888245 C159.92403719 486.26433848 159.92403719 486.26433848 159.934587 487.46354109 C159.88740596 491.95693845 159.36280283 494.92230912 156.53515625 498.4765625 C153.6664437 499.288891 151.56906555 498.81366353 148.53515625 498.4765625 C145.98335185 495.9247581 146.28923828 494.27082263 146.25834525 490.79091406 C146.26299105 489.58893369 146.26299105 489.58893369 146.26773071 488.3626709 C146.2631996 487.51359366 146.25866849 486.66451642 146.25400007 485.78970957 C146.24127827 482.9268093 146.24298156 480.06409739 146.24462891 477.20117188 C146.23864751 475.15441644 146.23184287 473.10766327 146.22427368 471.06091309 C146.20654236 465.48093936 146.20191462 459.90102693 146.20064211 454.32102776 C146.19922115 450.82622007 146.19495205 447.33142797 146.18964767 443.83662415 C146.17110659 431.61698418 146.16298 419.39738793 146.16455078 407.17773438 C146.16574536 395.83897042 146.14478879 384.50039894 146.11306345 373.16168356 C146.08673771 363.3999498 146.07619063 353.63827809 146.0774616 343.87650919 C146.07796754 338.05958725 146.07249402 332.2428353 146.0511055 326.4259491 C145.89284677 280.16473846 145.89284677 280.16473846 150.53515625 258.4765625 C150.91918282 256.53408852 151.30097768 254.59117203 151.68057251 252.64782715 C157.14894984 224.75937748 168.66087895 198.81587888 182.40527344 174.11474609 C186.11958608 167.38879569 189.22352266 160.82715176 191.53515625 153.4765625 C191.8496875 152.59355469 192.16421875 151.71054688 192.48828125 150.80078125 C197.74715891 133.90066076 195.34904616 115.93068199 187.99609375 100.1796875 C180.59862374 86.36640227 169.25496831 77.56673715 154.46850586 72.81201172 C147.03981014 70.87905619 139.58339867 71.42828797 131.97851562 71.73046875 C130.94919922 71.75238281 129.91988281 71.77429688 128.859375 71.796875 C127.93213623 71.83055176 127.00489746 71.86422852 126.04956055 71.89892578 C122.70080863 71.33641089 121.57404743 70.14443924 119.53515625 67.4765625 C118.9609375 65.46875 118.9609375 65.46875 118.84765625 63.3515625 C118.7911792 62.56837646 118.73470215 61.78519043 118.67651367 60.97827148 C118.62986572 60.15270752 118.58321777 59.32714355 118.53515625 58.4765625 C117.89778153 50.64182486 116.64721054 43.759634 113.53515625 36.4765625 C113.16390625 35.60773437 112.79265625 34.73890625 112.41015625 33.84375 C105.49555825 18.96826615 94.12241266 7.95721098 78.78515625 2.1640625 C64.41130494 -2.93564223 49.27660946 -1.69849326 35.53515625 4.4765625 C27.21845871 8.80124522 19.00441987 14.86515373 13.12890625 22.2421875 C11.53515625 23.4765625 11.53515625 23.4765625 8.6640625 23.9765625 C4.45745395 23.3043454 3.26081986 21.64826021 0.47265625 18.4765625 C-10.41077006 6.77498973 -24.28979098 0.2550512 -40.19140625 -0.76171875 C-56.30835253 -1.0685544 -70.32938681 3.42553386 -82.27734375 14.7265625 C-95.03066175 28.3562387 -101.62048136 46.14324871 -101.9609375 64.6640625 C-102.60144606 68.23899399 -103.63530754 69.24618036 -106.46484375 71.4765625 C-109.17529297 71.85131836 -109.17529297 71.85131836 -112.26953125 71.69140625 C-113.9712146 71.63255249 -113.9712146 71.63255249 -115.70727539 71.57250977 C-116.90602295 71.52022217 -118.10477051 71.46793457 -119.33984375 71.4140625 C-136.88426935 71.04254983 -148.74318142 75.14954455 -161.71484375 87.2890625 C-170.76330404 96.79267673 -177.17492649 110.2646186 -177.46484375 123.4765625 C-177.50351563 124.60835937 -177.5421875 125.74015625 -177.58203125 126.90625 C-177.96299836 147.60546271 -171.34663638 163.38098183 -161.83291626 181.25082397 C-140.23388249 221.97157698 -129.10144961 263.713276 -129.20605469 309.80908203 C-129.20333609 311.85802331 -129.19977034 313.90696361 -129.19543457 315.9559021 C-129.18642188 321.45056955 -129.18980541 326.94516079 -129.19619274 332.43982935 C-129.2012986 338.20971521 -129.19654981 343.97959506 -129.19342041 349.7494812 C-129.18979928 359.41389121 -129.19453643 369.07827046 -129.20410156 378.74267578 C-129.21503813 389.92205082 -129.2114156 401.1013532 -129.20044875 412.28072655 C-129.19138892 421.90146989 -129.19008252 431.52219132 -129.19532609 441.14293754 C-129.19844587 446.88052241 -129.19885377 452.618073 -129.19225311 458.35565567 C-129.18649737 463.73204359 -129.19044377 469.10833687 -129.20204163 474.48471451 C-129.20469536 476.46088503 -129.20391105 478.43706347 -129.1995163 480.4132309 C-129.19408884 483.10031363 -129.20085995 485.78708873 -129.21087646 488.47415161 C-129.20641502 489.26400078 -129.20195358 490.05384995 -129.19735694 490.86763394 C-129.2365399 496.24825865 -129.2365399 496.24825865 -131.46484375 498.4765625 C-137.21037946 499.11495536 -137.21037946 499.11495536 -139.46484375 498.4765625 C-142.8139443 494.26356461 -142.88683694 490.29059455 -142.83665466 485.12252808 C-142.84239151 483.86450164 -142.84239151 483.86450164 -142.84824425 482.58106053 C-142.85752783 479.77115607 -142.84553779 476.96174456 -142.83374023 474.15185547 C-142.83620856 472.13583675 -142.8400473 470.11981931 -142.84515381 468.10380554 C-142.85349813 463.75823577 -142.85267799 459.41279702 -142.8449688 455.06722641 C-142.8333642 448.17033618 -142.84557175 441.27361342 -142.86158752 434.3767395 C-142.89776557 417.22567777 -142.90402941 400.07461938 -142.90148926 382.92352295 C-142.89976944 369.6294528 -142.90718249 356.33552007 -142.94146782 343.04148781 C-142.95539017 337.32238277 -142.96151464 331.60350763 -142.94842339 325.8843956 C-142.83227401 272.60832728 -150.7842877 223.96418077 -179.15673828 177.69726562 C-191.27252606 157.12891818 -193.79864346 131.9353232 -188.68359375 108.96875 C-185.11612358 96.20581793 -178.86127145 85.76131788 -169.46484375 76.4765625 C-168.77777344 75.76757812 -168.09070313 75.05859375 -167.3828125 74.328125 C-155.20239408 62.53187562 -138.17820725 57.10507194 -121.46484375 57.2265625 C-119.12778391 57.27624718 -116.80011124 57.36476778 -114.46484375 57.4765625 C-114.45066406 56.868125 -114.43648438 56.2596875 -114.421875 55.6328125 C-113.31188198 35.23294081 -103.42949804 16.84425876 -88.83984375 2.8515625 C-63.84206695 -18.74437617 -26.45155127 -20.06351317 0 0 Z " fill="#0D0E0E" transform="translate(247.46484375,13.5234375)"/>
<path d="M0 0 C16.5423469 6.30507484 27.50281353 17.25159964 34.859375 33.08984375 C42.17344378 50.22507004 40.41640612 70.12765583 34.02880859 87.26953125 C30.44370359 95.91569681 25.87818017 104.11184511 21.38232422 112.30908203 C14.34400851 125.16038307 8.75112921 138.27557373 3.859375 152.08984375 C3.61058594 152.79077148 3.36179687 153.49169922 3.10546875 154.21386719 C0.24010974 162.43744754 -1.86930898 170.78350253 -3.765625 179.27734375 C-3.95987061 180.13634277 -4.15411621 180.9953418 -4.35424805 181.88037109 C-8.03341872 199.07897205 -9.58896227 216.00872029 -9.57299805 233.56762695 C-9.58204455 235.61996539 -9.59237868 237.67229849 -9.60388184 239.72462463 C-9.6311392 245.22322052 -9.64069318 250.72171307 -9.64673591 256.22036767 C-9.65620216 261.99389144 -9.68241129 267.76734044 -9.70674133 273.54081726 C-9.75018525 284.44113758 -9.77886734 295.34144321 -9.80206472 306.24182338 C-9.82923582 318.66533407 -9.87313933 331.08876871 -9.91835344 343.51222479 C-10.01088259 369.03805799 -10.08211419 394.56391184 -10.140625 420.08984375 C-22.020625 420.08984375 -33.900625 420.08984375 -46.140625 420.08984375 C-46.2336258 393.82750298 -46.30480933 367.56520252 -46.34787369 341.30272961 C-46.36840974 329.10581508 -46.3963569 316.90900539 -46.44238281 304.7121582 C-46.48252712 294.06876765 -46.50812269 283.4254531 -46.51697898 272.78198892 C-46.52214749 267.15780323 -46.53410342 261.5338348 -46.56354523 255.90971947 C-46.67920788 232.92941623 -46.65074567 210.70812274 -42.140625 188.08984375 C-41.86915897 186.56800915 -41.6019452 185.04540631 -41.34013367 183.5218811 C-39.74601596 174.41791718 -37.03849062 165.75952603 -34.078125 157.02734375 C-33.84029297 156.31693939 -33.60246094 155.60653503 -33.35742188 154.87460327 C-29.10675186 142.2198273 -24.09020764 130.04954258 -18.140625 118.08984375 C-17.82867187 117.46126465 -17.51671875 116.83268555 -17.1953125 116.18505859 C-16.51405549 114.81816734 -15.82803639 113.45365033 -15.140625 112.08984375 C-15.800625 111.75984375 -16.460625 111.42984375 -17.140625 111.08984375 C-16.49996094 110.73792969 -15.85929687 110.38601562 -15.19921875 110.0234375 C-1.3732214 102.13169833 7.63812035 89.94875394 12.203125 74.7109375 C12.4196875 73.84597656 12.63625 72.98101562 12.859375 72.08984375 C13.04886719 71.3421875 13.23835938 70.59453125 13.43359375 69.82421875 C15.05764407 59.3945378 15.46229376 47.32331424 9.859375 38.08984375 C9.22322266 37.02056641 9.22322266 37.02056641 8.57421875 35.9296875 C4.9496644 30.52819285 0.37973116 27.39154248 -5.140625 24.08984375 C-8.60032935 21.78337419 -8.6596709 20.8030389 -10.140625 17.08984375 C-14.5453786 11.3234547 -19.55685811 6.38442114 -25.51171875 2.24609375 C-27.140625 1.08984375 -27.140625 1.08984375 -29.140625 -0.91015625 C-21.76602741 -4.59745504 -7.58230421 -2.2725967 0 0 Z " fill="#DDDDDD" transform="translate(404.140625,85.91015625)"/>
<path d="M0 0 C10.51528937 9.81133694 18.61011896 22.51152406 26.39697266 34.50146484 C30.02134804 40.01940115 33.98004057 45.16412182 38.1171875 50.3046875 C51.82078971 67.49941423 61.67111391 86.56750397 60.26171875 109.11279297 C59.01481512 119.2529205 54.05408753 129.03198448 46.9921875 136.3046875 C46.39792969 136.93761719 45.80367187 137.57054687 45.19140625 138.22265625 C36.3230003 146.83400696 23.52756181 150.64989472 11.3828125 150.53515625 C10.57535583 150.53469803 9.76789917 150.53423981 8.93597412 150.5337677 C7.23497032 150.53076149 5.53396888 150.52292442 3.83300781 150.51049805 C1.26356964 150.49233862 -1.30550452 150.48998816 -3.875 150.49023438 C-11.37464375 150.47365866 -18.75481281 150.33089485 -26.21728516 149.52954102 C-31.85371744 149.0753718 -37.51624001 149.15760174 -43.16772461 149.17431641 C-45.30655082 149.17965316 -47.44516469 149.17435109 -49.58398438 149.16796875 C-57.25485097 149.16437475 -64.82155296 149.45814668 -72.47290039 150.06445312 C-78.32039625 150.46185184 -84.16299771 150.56555099 -90.02172852 150.59985352 C-91.38934634 150.61142554 -92.75691721 150.63195934 -94.12426758 150.66137695 C-109.44479331 150.98804451 -123.27286758 147.71211456 -134.7578125 137.0546875 C-142.43116455 128.85650713 -147.35992798 118.52234521 -148.0078125 107.3046875 C-148.12189453 105.79261719 -148.12189453 105.79261719 -148.23828125 104.25 C-149.07026094 84.41740304 -139.2529075 67.07402957 -127.28662109 51.93261719 C-124.83957572 48.81751628 -122.45452572 45.65549103 -120.0703125 42.4921875 C-119.56032715 41.81639648 -119.0503418 41.14060547 -118.52490234 40.44433594 C-115.14986538 35.93356203 -111.96731093 31.33041355 -108.8828125 26.6171875 C-96.68693388 8.04779079 -83.04801843 -8.7952739 -61.0078125 -15.6953125 C-37.91077004 -19.46190712 -18.09689199 -15.2802551 0 0 Z M-83.4921875 12.33203125 C-91.7063631 22.03853379 -98.95382067 32.56749208 -105.8828125 43.21484375 C-108.63382201 47.21493294 -111.59615792 51.03155366 -114.5703125 54.8671875 C-126.58330184 70.40343921 -138.12118489 86.7883533 -136.0078125 107.3046875 C-133.83079764 118.12826423 -129.60952785 126.61290768 -120.34545898 132.89355469 C-111.16768454 138.43376735 -102.18412323 138.8481174 -91.6953125 138.6171875 C-89.72788086 138.60268555 -89.72788086 138.60268555 -87.72070312 138.58789062 C-81.48179864 138.51695894 -75.29012573 138.2859784 -69.0703125 137.79296875 C-61.8576273 137.23343861 -54.68657987 137.15274237 -47.45678711 137.17431641 C-45.31161525 137.17970936 -43.16665024 137.17431323 -41.02148438 137.16796875 C-35.19610618 137.16524236 -29.41036229 137.18649938 -23.609375 137.79296875 C-16.57118959 138.52640162 -9.52659792 138.56422206 -2.45629883 138.59985352 C-0.86734123 138.61139716 0.72157688 138.63188671 2.31030273 138.66137695 C14.35449726 138.88370456 26.26981775 138.44434589 35.9921875 130.3046875 C44.40667058 122.15025467 48.05248633 113.4098099 48.3046875 101.7421875 C48.11793312 83.81376664 37.37547565 69.02146823 26.71875 55.3984375 C25.92210937 54.3775 25.12546875 53.3565625 24.3046875 52.3046875 C23.89387939 51.77834717 23.48307129 51.25200684 23.05981445 50.7097168 C19.28972305 45.81680158 15.8256002 40.73332704 12.3671875 35.6171875 C7.84095663 28.93479866 3.2460816 22.44333299 -2.0078125 16.3046875 C-2.70003906 15.45648438 -3.39226562 14.60828125 -4.10546875 13.734375 C-12.56029813 3.74365951 -22.90830549 -2.93544882 -36.0078125 -4.6953125 C-55.01019511 -5.99492504 -69.94765484 -1.87023951 -83.4921875 12.33203125 Z " fill="#100F10" transform="translate(300.0078125,163.6953125)"/>
<path d="M0 0 C8.62410517 4.69800791 13.65782949 11.47003907 17.53125 20.37890625 C21.76364726 34.84641535 18.11246148 51.5634309 11.2578125 64.49609375 C2.91013984 78.43406303 -8.06847027 87.24547967 -23.46875 92.37890625 C-35.69520441 93.42992899 -44.94857904 92.5283437 -54.8046875 84.46875 C-62.76165864 76.55614858 -65.91038149 66.01732046 -66.09375 55.00390625 C-65.84149213 37.36787809 -57.84059744 22.60665564 -45.46875 10.37890625 C-32.94829895 -1.09259435 -16.33056343 -6.89245839 0 0 Z " fill="#F46494" transform="translate(400.46875,109.62109375)"/>
<path d="M0 0 C14.74975747 8.8660853 24.4154768 22.8037535 29.19921875 39.27734375 C32.25435952 52.18239191 30.29636025 64.33810351 23.73828125 75.82421875 C19.03155129 82.79228265 12.1597779 87.27676787 4.08984375 89.45703125 C-11.02781809 90.98813773 -22.05374461 86.97526747 -33.91015625 77.45703125 C-44.78974016 68.57390707 -52.36758124 54.35462297 -53.91015625 40.45703125 C-54.73859766 26.49836094 -53.93712922 15.71419755 -44.91015625 4.45703125 C-32.56353138 -8.86666465 -15.28403941 -8.10361821 0 0 Z " fill="#F46495" transform="translate(146.91015625,112.54296875)"/>
<path d="M0 0 C12.37228923 8.09680194 20.29678053 20.81019262 24.0859375 35.01953125 C26.91877015 50.31682754 25.63875626 65.50102352 17.48828125 79.02734375 C12.44089326 86.1977278 5.71198925 91.4295601 -2.7890625 93.83203125 C-4.3359375 93.92484375 -4.3359375 93.92484375 -5.9140625 94.01953125 C-6.70296875 94.09300781 -7.491875 94.16648437 -8.3046875 94.2421875 C-18.72563223 94.82278299 -27.84657574 90.81540776 -35.7578125 84.13671875 C-47.03667615 73.06218234 -53.8948077 58.36966532 -54.20678711 42.50488281 C-54.31231031 26.90829276 -52.27992467 15.03429842 -41.22265625 3.2109375 C-29.03723592 -8.12630972 -13.86202862 -7.55661655 0 0 Z " fill="#F46495" transform="translate(222.9140625,40.98046875)"/>
<path d="M0 0 C9.27258781 6.58230828 15.29494233 16.75572314 17.65234375 27.8828125 C19.20104306 45.70657721 17.0768061 63.0705785 5.6171875 77.43359375 C-3.07726198 87.50006613 -11.37666188 93.36898537 -24.8671875 95.23046875 C-34.11236943 95.60286662 -41.57839318 91.94933428 -48.34765625 85.8828125 C-56.96312931 77.77532724 -61.0480346 66.36407979 -61.56640625 54.7421875 C-62.05846141 37.26401679 -57.87841121 22.66597047 -46.41796875 9.0703125 C-34.25387282 -3.78231716 -16.02815592 -9.2511504 0 0 Z " fill="#F46495" transform="translate(325.34765625,40.1171875)"/>
<path d="M0 0 C8.62410517 4.69800791 13.65782949 11.47003907 17.53125 20.37890625 C21.76364726 34.84641535 18.11246148 51.5634309 11.2578125 64.49609375 C2.91013984 78.43406303 -8.06847027 87.24547967 -23.46875 92.37890625 C-35.69520441 93.42992899 -44.94857904 92.5283437 -54.8046875 84.46875 C-62.76165864 76.55614858 -65.91038149 66.01732046 -66.09375 55.00390625 C-65.84149213 37.36787809 -57.84059744 22.60665564 -45.46875 10.37890625 C-32.94829895 -1.09259435 -16.33056343 -6.89245839 0 0 Z M-43.578125 25.81640625 C-51.87157741 37.05711861 -54.4101811 48.6160802 -53.46875 62.37890625 C-52.11930335 69.64777435 -47.65992494 75.02351523 -41.84375 79.31640625 C-33.95909303 81.79861307 -26.2463287 81.05452626 -18.77734375 77.63671875 C-6.24221284 70.80708736 0.34156568 60.55998214 5.67578125 47.59765625 C6.80396348 43.3528062 6.89937247 39.37801578 6.90625 35.00390625 C6.94298828 33.78574219 6.94298828 33.78574219 6.98046875 32.54296875 C7.01334435 25.704844 5.27954007 20.56372561 0.78515625 15.35546875 C0.22699219 14.90945312 -0.33117187 14.4634375 -0.90625 14.00390625 C-1.46183594 13.54242188 -2.01742187 13.0809375 -2.58984375 12.60546875 C-17.67273346 2.75925801 -33.65460771 14.2519924 -43.578125 25.81640625 Z " fill="#0F0F0F" transform="translate(400.46875,109.62109375)"/>
<path d="M0 0 C14.74975747 8.8660853 24.4154768 22.8037535 29.19921875 39.27734375 C32.25435952 52.18239191 30.29636025 64.33810351 23.73828125 75.82421875 C19.03155129 82.79228265 12.1597779 87.27676787 4.08984375 89.45703125 C-11.02781809 90.98813773 -22.05374461 86.97526747 -33.91015625 77.45703125 C-44.78974016 68.57390707 -52.36758124 54.35462297 -53.91015625 40.45703125 C-54.73859766 26.49836094 -53.93712922 15.71419755 -44.91015625 4.45703125 C-32.56353138 -8.86666465 -15.28403941 -8.10361821 0 0 Z M-36.69921875 13.46484375 C-43.40885724 22.08243632 -43.0327185 31.88623673 -41.91015625 42.45703125 C-38.97712023 55.66165482 -29.58924465 66.56658466 -18.63671875 74 C-11.90240962 77.8902077 -5.57250999 78.50546073 2.08984375 77.45703125 C7.73318083 75.83298408 12.14808494 72.6162522 15.08984375 67.45703125 C19.50345584 57.65098182 19.34911986 47.36641507 16.02734375 37.26953125 C13.53656339 30.95487681 10.41080039 25.67779665 6.08984375 20.45703125 C5.30673828 19.48830078 5.30673828 19.48830078 4.5078125 18.5 C-1.03137725 12.31389758 -9.99862469 7.12554047 -18.328125 6.18359375 C-26.36089562 5.88902106 -31.29397839 7.39870064 -36.69921875 13.46484375 Z " fill="#0F0F0F" transform="translate(146.91015625,112.54296875)"/>
<path d="M0 0 C12.37228923 8.09680194 20.29678053 20.81019262 24.0859375 35.01953125 C26.91877015 50.31682754 25.63875626 65.50102352 17.48828125 79.02734375 C12.44089326 86.1977278 5.71198925 91.4295601 -2.7890625 93.83203125 C-4.3359375 93.92484375 -4.3359375 93.92484375 -5.9140625 94.01953125 C-6.70296875 94.09300781 -7.491875 94.16648437 -8.3046875 94.2421875 C-18.72563223 94.82278299 -27.84657574 90.81540776 -35.7578125 84.13671875 C-47.03667615 73.06218234 -53.8948077 58.36966532 -54.20678711 42.50488281 C-54.31231031 26.90829276 -52.27992467 15.03429842 -41.22265625 3.2109375 C-29.03723592 -8.12630972 -13.86202862 -7.55661655 0 0 Z M-37.58984375 17.6640625 C-41.47441043 24.57377846 -42.44163863 30.45773222 -42.3515625 38.26953125 C-42.34326416 39.19685059 -42.33496582 40.12416992 -42.32641602 41.07958984 C-42.01713698 53.66427495 -37.79333296 64.53326633 -29.1875 73.8984375 C-23.87719167 78.73591015 -18.19986551 82.18480829 -10.9140625 82.51953125 C-3.68152983 82.16510392 1.01983809 79.46326283 5.8984375 74.20703125 C13.61750881 64.72962935 13.75006884 53.82899399 13.0859375 42.01953125 C11.11867645 29.84419905 5.3932278 19.05094546 -4.12890625 11.19140625 C-16.60920261 2.5340856 -29.03417517 6.16661675 -37.58984375 17.6640625 Z " fill="#0F0F0F" transform="translate(222.9140625,40.98046875)"/>
<path d="M0 0 C9.27258781 6.58230828 15.29494233 16.75572314 17.65234375 27.8828125 C19.20104306 45.70657721 17.0768061 63.0705785 5.6171875 77.43359375 C-3.07726198 87.50006613 -11.37666188 93.36898537 -24.8671875 95.23046875 C-34.11236943 95.60286662 -41.57839318 91.94933428 -48.34765625 85.8828125 C-56.96312931 77.77532724 -61.0480346 66.36407979 -61.56640625 54.7421875 C-62.05846141 37.26401679 -57.87841121 22.66597047 -46.41796875 9.0703125 C-34.25387282 -3.78231716 -16.02815592 -9.2511504 0 0 Z M-39.75 19.54296875 C-48.59622275 32.49868373 -51.38726922 46.26801051 -48.6953125 61.59765625 C-46.36200786 70.1798111 -42.41909385 76.34989277 -35.03515625 81.3828125 C-29.35531623 83.6932559 -24.51880748 84.022372 -18.6953125 81.9296875 C-7.15902337 76.44778169 -0.69276295 68.32068205 4.08984375 56.5078125 C7.25669789 46.033888 8.05192707 30.85496916 2.98046875 20.890625 C-1.104904 14.71450267 -4.91669401 9.83191735 -12.34765625 7.8828125 C-24.09796579 6.2683932 -32.36255612 10.44401305 -39.75 19.54296875 Z " fill="#0F0F0F" transform="translate(325.34765625,40.1171875)"/>
<path d="M0 0 C15.91219075 1.81674619 27.38867105 9.73948307 37.296875 22.00390625 C42.85001068 29.07619031 48.01130431 36.36636794 52.91015625 43.90625 C55.48646054 47.72014345 58.22725163 51.39007643 61 55.0625 C61.51796143 55.75021484 62.03592285 56.43792969 62.56958008 57.14648438 C64.78830973 60.08743568 67.01566966 63.02031653 69.265625 65.9375 C80.04845768 80.20140465 87.51400965 94.7267447 86 113 C84.41900307 122.44645667 79.49750486 130.75500716 71.9765625 136.71875 C65.42357157 140.96653859 58.69894551 142.50329384 51 143 C51.70125 142.319375 52.4025 141.63875 53.125 140.9375 C54.08698848 139.96192411 55.04504098 138.98245784 56 138 C56.49242187 137.50371094 56.98484375 137.00742187 57.4921875 136.49609375 C66.89414177 126.38777504 68.47950039 115.0162139 68.27734375 101.83984375 C68.03883036 95.70613364 66.53697985 90.57342762 64 85 C63.5875 84.04222656 63.175 83.08445312 62.75 82.09765625 C57.0105197 69.68929116 48.14497925 59.14932005 39.82910156 48.40332031 C36.24990483 43.74169669 32.89946068 38.98336435 29.6875 34.0625 C25.78123324 28.08175824 21.62719811 22.45314828 17 17 C16.35417969 16.22011719 15.70835937 15.44023437 15.04296875 14.63671875 C10.98741066 9.87723736 6.74036788 5.99972791 1.6875 2.3125 C1.130625 1.879375 0.57375 1.44625 0 1 C0 0.67 0 0.34 0 0 Z " fill="#DD5B86" transform="translate(262,159)"/>
<path d="M0 0 C0.75821045 0.00563965 1.5164209 0.0112793 2.29760742 0.01708984 C18.54784094 0.36433909 31.67101322 6.80078762 43 18.3125 C43.57492187 18.88871094 44.14984375 19.46492188 44.7421875 20.05859375 C55.03429324 31.17726757 59.82819536 45.98556033 61.125 60.75 C61.21136719 61.67232422 61.29773438 62.59464844 61.38671875 63.54492188 C61.5970654 65.80030541 61.80134402 68.05606186 62 70.3125 C61.02160156 70.10753906 60.04320312 69.90257813 59.03515625 69.69140625 C52.03263899 68.24516624 45.13348978 66.93824472 38 66.3125 C38 68.6225 38 70.9325 38 73.3125 C37.67 73.3125 37.34 73.3125 37 73.3125 C36.97421875 72.21292969 36.9484375 71.11335938 36.921875 69.98046875 C36.46086969 56.3769574 33.83674946 43.87153052 24.3046875 33.4609375 C20.54476304 30.038226 16.75551722 28.05942469 12 26.3125 C12 25.3225 12 24.3325 12 23.3125 C6.57874069 14.37280749 -1.93806752 5.59356494 -12 2.3125 C-8.22005782 -0.15824346 -4.36247635 -0.03367965 0 0 Z " fill="#DBDBDB" transform="translate(306,11.6875)"/>
<path d="M0 0 C9.36187913 -0.79238475 15.63821567 -0.06111572 23 6 C31.07899487 13.24212687 36.96735048 24.14052436 38 35 C38.54978131 46.04343333 38.42289915 56.56342383 32 66 C27.58421337 70.71202389 23.14738682 74.82692512 16.47265625 75.10546875 C13.97722847 75.12296824 11.49373859 75.0871598 9 75 C9.37511719 74.57332031 9.75023437 74.14664063 10.13671875 73.70703125 C16.27340576 66.21007105 20.43782315 56.74439875 21 47 C21.05027344 46.36449219 21.10054687 45.72898438 21.15234375 45.07421875 C21.84392661 29.94238586 15.81174616 16.53048778 6.80859375 4.7421875 C4.69869369 2.70975677 2.76036616 1.91540348 0 1 C0 0.67 0 0.34 0 0 Z " fill="#DD5A86" transform="translate(198,48)"/>
<path d="M0 0 C8.61726934 -0.51703616 15.01737887 -0.3684841 21.6796875 5.47265625 C29.5076342 13.70952553 30.67269389 22.93971749 30.60888672 33.89038086 C30.16661572 45.97591667 26.27310934 56.74310435 18.22265625 65.94140625 C12.35680136 71.37428064 5.89182774 75.16742633 -2.1875 75.0625 C-3.53908203 75.04896484 -3.53908203 75.04896484 -4.91796875 75.03515625 C-5.60503906 75.02355469 -6.29210937 75.01195313 -7 75 C-6.29875 74.319375 -5.5975 73.63875 -4.875 72.9375 C-3.91299239 71.96194298 -2.95492295 70.9824929 -2 70 C-1.51917969 69.5153125 -1.03835938 69.030625 -0.54296875 68.53125 C9.83272099 57.36164205 13.69918724 42.67851901 13.34765625 27.74609375 C12.45969166 18.17802588 9.30575774 9.34830968 3 2 C2.01 1.34 1.02 0.68 0 0 Z " fill="#DD5B86" transform="translate(301,48)"/>
<path d="M0 0 C9.84287005 -0.87190778 17.68352275 1.14175651 25.734375 6.984375 C36.29768521 16.01120372 43.73429967 27.40428009 45.41015625 41.43359375 C45.64098011 49.95400508 44.61312434 58.06868567 39.25 64.9375 C35.1269739 69.19093812 31.5238239 70.86996692 25.6640625 71.171875 C22.4359803 71.1858797 19.22516827 71.13094668 16 71 C16.90878906 70.62101562 16.90878906 70.62101562 17.8359375 70.234375 C20.29840731 68.82978933 21.17687518 67.66042712 22.625 65.25 C23.02976563 64.59515625 23.43453125 63.9403125 23.8515625 63.265625 C28.62301331 53.85255878 28.72949743 41.68396769 25.9375 31.5859375 C22.18629561 20.15888153 15.35941347 8.5754361 5 2 C2.35780002 1.29453341 2.35780002 1.29453341 0 1 C0 0.67 0 0.34 0 0 Z " fill="#DD5A86" transform="translate(120,119)"/>
<path d="M0 0 C7.21439914 -0.47742347 13.05084968 -0.45209936 19 4 C23.986259 8.68641715 26.94570919 13.2398072 27.37109375 20.1875 C27.77006451 35.65726934 24.28851189 47.06990736 14 59 C8.10557363 65.14622711 0.67450616 70.69550611 -8.140625 71.09765625 C-9.18476563 71.08025391 -9.18476563 71.08025391 -10.25 71.0625 C-12.10625 71.0315625 -12.10625 71.0315625 -14 71 C-13.26394531 70.42765625 -12.52789062 69.8553125 -11.76953125 69.265625 C-1.40953063 60.79058923 7.67821991 47.81385866 9.82421875 34.265625 C10.78855237 21.83643616 10.03265732 11.88634747 2 2 C1.34 1.34 0.68 0.68 0 0 Z " fill="#DD5B86" transform="translate(380,119)"/>
</svg>
