<?xml version="1.0" encoding="UTF-8"?>
<svg version="1.1" xmlns="http://www.w3.org/2000/svg" width="512" height="512">
<path d="M0 0 C19.18623479 15.88047866 31.55961881 37.95707123 35.13671875 62.62890625 C36.99110408 93.86698633 30.93142779 119.6350112 10.13671875 143.62890625 C-6.74340427 162.63110187 -31.54135673 174.12709352 -56.81201172 175.75439453 C-67.80797434 176.27626349 -78.1184312 174.88814881 -88.86328125 172.62890625 C-88.87786377 173.37648193 -88.89244629 174.12405762 -88.9074707 174.89428711 C-89.90653378 221.15832133 -94.98337894 267.22187675 -128.86328125 301.62890625 C-129.61996094 302.41007812 -130.37664062 303.19125 -131.15625 303.99609375 C-142.60646316 315.07185932 -156.98939515 322.34342509 -171.86328125 327.62890625 C-174.53275494 328.62153923 -177.19775808 329.62568965 -179.86328125 330.62890625 C-179.11304688 331.53769531 -178.3628125 332.44648438 -177.58984375 333.3828125 C-160.6123148 354.14211882 -141.76889011 379.44004367 -142.86328125 407.62890625 C-144.15742839 417.90813211 -148.06293238 424.59896177 -155.86328125 431.25390625 C-183.27673318 451.22397057 -226.58341843 450.1846758 -258.4140625 445.55859375 C-266.4463736 444.26681094 -274.14750196 442.20083268 -281.86328125 439.62890625 C-284.51577614 440.29577373 -284.51577614 440.29577373 -287.48828125 441.37890625 C-292.78963827 443.08883056 -298.00209723 444.35789487 -303.48828125 445.31640625 C-304.15553223 445.43532227 -304.8227832 445.55423828 -305.51025391 445.67675781 C-336.88736882 450.94805235 -376.79939194 450.06086517 -404.61328125 432.87890625 C-411.63918709 427.87135154 -417.43592371 421.98668525 -419.4609375 413.41015625 C-423.21748379 387.44257416 -409.19340867 364.50536073 -394.28271484 344.50927734 C-386.46289063 334.22851563 -386.46289063 334.22851563 -382.86328125 330.62890625 C-383.87390625 330.25765625 -384.88453125 329.88640625 -385.92578125 329.50390625 C-387.57191931 328.87970928 -389.21769601 328.25455917 -390.86328125 327.62890625 C-391.97832031 327.21511719 -393.09335937 326.80132812 -394.2421875 326.375 C-408.0912832 321.13216746 -419.60506162 314.36772388 -430.86328125 304.62890625 C-432.15492188 303.61183594 -432.15492188 303.61183594 -433.47265625 302.57421875 C-460.29984802 280.74424898 -468.94293907 242.83875698 -472.52734375 210.30859375 C-475.75372582 174.96845524 -473.68980639 138.76011746 -455.8671875 107.1796875 C-454.40378707 103.46139769 -455.39316217 100.86580576 -456.78369141 97.20727539 C-457.15284668 96.36801514 -457.52200195 95.52875488 -457.90234375 94.6640625 C-458.31468262 93.71039795 -458.72702148 92.7567334 -459.15185547 91.77416992 C-459.59287598 90.75685791 -460.03389648 89.7395459 -460.48828125 88.69140625 C-465.35967753 77.19836443 -469.50172613 65.65019448 -472.86328125 53.62890625 C-473.19996826 52.44965576 -473.19996826 52.44965576 -473.54345703 51.24658203 C-476.31120017 41.235551 -477.24648009 31.5102519 -477.36328125 21.12890625 C-477.38189209 20.05479492 -477.40050293 18.98068359 -477.41967773 17.87402344 C-477.33735542 7.55735939 -474.65579963 -2.35635599 -467.3359375 -9.95703125 C-459.92700382 -16.84515554 -451.80504731 -18.34761851 -441.86328125 -18.37109375 C-411.30785902 -16.75737455 -378.62501326 -0.53549068 -353.54296875 16.08984375 C-343.25583412 22.87729168 -337.41772252 26.10566763 -324.92337036 23.94854736 C-310.87395339 21.7686556 -296.15933946 22.43163956 -281.98828125 22.44140625 C-280.37401749 22.4403186 -280.37401749 22.4403186 -278.72714233 22.43920898 C-263.95449065 22.44030754 -249.34477421 22.78579684 -234.6328125 24.19140625 C-233.78581787 24.2672998 -232.93882324 24.34319336 -232.06616211 24.42138672 C-230.2846327 24.58921338 -228.50667408 24.7946762 -226.73046875 25.01171875 C-222.20578719 24.40760595 -218.95830609 21.95505555 -215.17578125 19.50390625 C-184.94135123 0.68298066 -143.10678332 -24.61786921 -105.86328125 -16.37109375 C-105.01765625 -16.14550781 -104.17203125 -15.91992188 -103.30078125 -15.6875 C-100.31303671 -15.29966778 -98.85702381 -15.91524511 -96.11328125 -17.12109375 C-63.72938571 -29.58975941 -26.49781261 -21.34447217 0 0 Z " fill="#AEB7C4" transform="translate(476.86328125,43.37109375)"/>
<path d="M0 0 C19.18623479 15.88047866 31.55961881 37.95707123 35.13671875 62.62890625 C36.99110408 93.86698633 30.93142779 119.6350112 10.13671875 143.62890625 C-6.74340427 162.63110187 -31.54135673 174.12709352 -56.81201172 175.75439453 C-67.80797434 176.27626349 -78.1184312 174.88814881 -88.86328125 172.62890625 C-88.87786377 173.37648193 -88.89244629 174.12405762 -88.9074707 174.89428711 C-89.90653378 221.15832133 -94.98337894 267.22187675 -128.86328125 301.62890625 C-129.61996094 302.41007812 -130.37664062 303.19125 -131.15625 303.99609375 C-142.60646316 315.07185932 -156.98939515 322.34342509 -171.86328125 327.62890625 C-174.53275494 328.62153923 -177.19775808 329.62568965 -179.86328125 330.62890625 C-179.11304688 331.53769531 -178.3628125 332.44648438 -177.58984375 333.3828125 C-160.6123148 354.14211882 -141.76889011 379.44004367 -142.86328125 407.62890625 C-144.15742839 417.90813211 -148.06293238 424.59896177 -155.86328125 431.25390625 C-183.27673318 451.22397057 -226.58341843 450.1846758 -258.4140625 445.55859375 C-266.4463736 444.26681094 -274.14750196 442.20083268 -281.86328125 439.62890625 C-284.51577614 440.29577373 -284.51577614 440.29577373 -287.48828125 441.37890625 C-292.78963827 443.08883056 -298.00209723 444.35789487 -303.48828125 445.31640625 C-304.15553223 445.43532227 -304.8227832 445.55423828 -305.51025391 445.67675781 C-336.88736882 450.94805235 -376.79939194 450.06086517 -404.61328125 432.87890625 C-411.63918709 427.87135154 -417.43592371 421.98668525 -419.4609375 413.41015625 C-423.21748379 387.44257416 -409.19340867 364.50536073 -394.28271484 344.50927734 C-386.46289063 334.22851563 -386.46289063 334.22851563 -382.86328125 330.62890625 C-383.87390625 330.25765625 -384.88453125 329.88640625 -385.92578125 329.50390625 C-387.57191931 328.87970928 -389.21769601 328.25455917 -390.86328125 327.62890625 C-391.97832031 327.21511719 -393.09335937 326.80132812 -394.2421875 326.375 C-408.0912832 321.13216746 -419.60506162 314.36772388 -430.86328125 304.62890625 C-432.15492188 303.61183594 -432.15492188 303.61183594 -433.47265625 302.57421875 C-460.29984802 280.74424898 -468.94293907 242.83875698 -472.52734375 210.30859375 C-475.75372582 174.96845524 -473.68980639 138.76011746 -455.8671875 107.1796875 C-454.40378707 103.46139769 -455.39316217 100.86580576 -456.78369141 97.20727539 C-457.15284668 96.36801514 -457.52200195 95.52875488 -457.90234375 94.6640625 C-458.31468262 93.71039795 -458.72702148 92.7567334 -459.15185547 91.77416992 C-459.59287598 90.75685791 -460.03389648 89.7395459 -460.48828125 88.69140625 C-465.35967753 77.19836443 -469.50172613 65.65019448 -472.86328125 53.62890625 C-473.19996826 52.44965576 -473.19996826 52.44965576 -473.54345703 51.24658203 C-476.31120017 41.235551 -477.24648009 31.5102519 -477.36328125 21.12890625 C-477.38189209 20.05479492 -477.40050293 18.98068359 -477.41967773 17.87402344 C-477.33735542 7.55735939 -474.65579963 -2.35635599 -467.3359375 -9.95703125 C-459.92700382 -16.84515554 -451.80504731 -18.34761851 -441.86328125 -18.37109375 C-411.30785902 -16.75737455 -378.62501326 -0.53549068 -353.54296875 16.08984375 C-343.25583412 22.87729168 -337.41772252 26.10566763 -324.92337036 23.94854736 C-310.87395339 21.7686556 -296.15933946 22.43163956 -281.98828125 22.44140625 C-280.37401749 22.4403186 -280.37401749 22.4403186 -278.72714233 22.43920898 C-263.95449065 22.44030754 -249.34477421 22.78579684 -234.6328125 24.19140625 C-233.78581787 24.2672998 -232.93882324 24.34319336 -232.06616211 24.42138672 C-230.2846327 24.58921338 -228.50667408 24.7946762 -226.73046875 25.01171875 C-222.20578719 24.40760595 -218.95830609 21.95505555 -215.17578125 19.50390625 C-184.94135123 0.68298066 -143.10678332 -24.61786921 -105.86328125 -16.37109375 C-105.01765625 -16.14550781 -104.17203125 -15.91992188 -103.30078125 -15.6875 C-100.31303671 -15.29966778 -98.85702381 -15.91524511 -96.11328125 -17.12109375 C-63.72938571 -29.58975941 -26.49781261 -21.34447217 0 0 Z M-460.390625 -0.67578125 C-467.87951171 10.04743625 -466.79994671 24.40541783 -464.73828125 36.69140625 C-461.2374909 55.72372029 -454.05978247 73.74780373 -446.86328125 91.62890625 C-446.20328125 91.62890625 -445.54328125 91.62890625 -444.86328125 91.62890625 C-443.59406512 90.00812322 -442.39825504 88.32958495 -441.23828125 86.62890625 C-433.89105723 76.34013058 -433.89105723 76.34013058 -428.86328125 72.62890625 C-425.42578125 72.06640625 -425.42578125 72.06640625 -422.86328125 72.62890625 C-421.86328125 73.62890625 -421.86328125 73.62890625 -421.5234375 76.375 C-421.96231135 80.57709096 -423.31895909 81.75496951 -426.30078125 84.69140625 C-431.91198485 90.54037271 -436.46814562 96.83043803 -440.86328125 103.62890625 C-441.46914063 104.54929687 -442.075 105.4696875 -442.69921875 106.41796875 C-457.04857706 129.46784295 -462.30850961 156.13102626 -462.30078125 182.94140625 C-462.30184875 183.73627441 -462.30291626 184.53114258 -462.30401611 185.35009766 C-462.22540676 226.40663955 -453.74038311 265.63442712 -424.0078125 295.4921875 C-400.33282793 317.45086188 -368.84841366 322.00662078 -338.0769043 326.06884766 C-337.33877502 326.167043 -336.60064575 326.26523834 -335.84014893 326.3664093 C-333.81977309 326.63304317 -331.79845991 326.89254637 -329.77709961 327.15161133 C-326.86328125 327.62890625 -326.86328125 327.62890625 -325.86328125 328.62890625 C-325.67578125 331.56640625 -325.67578125 331.56640625 -325.86328125 334.62890625 C-327.86328125 336.62890625 -327.86328125 336.62890625 -330.3828125 336.7109375 C-339.70454325 335.94794886 -348.92594234 334.72170448 -358.17578125 333.34765625 C-358.99054932 333.23204346 -359.80531738 333.11643066 -360.64477539 332.99731445 C-362.86328125 332.62890625 -362.86328125 332.62890625 -366.171875 331.703125 C-369.06846061 331.32641558 -369.06846061 331.32641558 -371.3984375 333.7421875 C-372.26375367 334.79012295 -373.10466286 335.85849103 -373.92578125 336.94140625 C-374.38911865 337.52317627 -374.85245605 338.10494629 -375.32983398 338.7043457 C-376.86805908 340.65974256 -378.36709457 342.64119594 -379.86328125 344.62890625 C-380.394375 345.32081055 -380.92546875 346.01271484 -381.47265625 346.72558594 C-395.49004349 365.05665723 -410.93750205 386.41941749 -407.86328125 410.62890625 C-405.55299217 417.99728566 -401.63909399 421.53181358 -395.04296875 425.1953125 C-376.82960773 434.12299192 -357.39041794 435.99904003 -337.40966797 435.94458008 C-334.99661076 435.94141717 -332.58478252 435.9650132 -330.171875 435.99023438 C-316.20739879 436.0479282 -301.96038435 434.83023541 -288.80078125 429.81640625 C-288.10307617 429.55923828 -287.40537109 429.30207031 -286.68652344 429.03710938 C-278.07915326 425.73554228 -270.13192834 421.16620044 -265.86328125 412.62890625 C-265.34489359 407.42803333 -265.19732726 403.01204147 -267.48828125 398.25390625 C-277.88605326 386.76163192 -292.86465657 383.58869294 -307.86328125 382.62890625 C-313.00929319 382.46774149 -318.15268578 382.43799154 -323.30078125 382.44140625 C-323.99972504 382.43968414 -324.69866882 382.43796204 -325.41879272 382.43618774 C-335.05644555 382.42118333 -344.56378463 382.75277698 -354.11303711 384.1809082 C-359.42240043 384.91086491 -359.42240043 384.91086491 -361.87890625 383.33984375 C-362.86328125 381.62890625 -362.86328125 381.62890625 -362.80078125 379.06640625 C-361.86328125 376.62890625 -361.86328125 376.62890625 -360.07763672 375.51611328 C-341.11253149 367.91752536 -309.79091633 370.64022535 -290.41943359 375.29345703 C-285.50980869 376.46769877 -281.90286447 376.68987114 -276.86328125 375.62890625 C-253.60546579 370.80746867 -225.08847031 369.42259268 -201.86328125 375.62890625 C-200.86328125 376.62890625 -200.86328125 376.62890625 -200.67578125 379.56640625 C-200.86328125 382.62890625 -200.86328125 382.62890625 -202.86328125 384.62890625 C-205.83984375 384.640625 -205.83984375 384.640625 -209.48828125 384.31640625 C-211.27105469 384.16751953 -211.27105469 384.16751953 -213.08984375 384.015625 C-215.51953774 383.76661909 -217.94467385 383.4645829 -220.359375 383.09765625 C-226.28177201 382.34302362 -232.25650114 382.4429007 -238.21704102 382.44360352 C-240.29268855 382.44141478 -242.36780524 382.42319902 -244.44335938 382.40429688 C-251.53228106 382.37532091 -258.01325619 382.7096855 -264.86328125 384.62890625 C-264.43329834 385.17039307 -264.00331543 385.71187988 -263.56030273 386.26977539 C-256.40201297 395.38232573 -254.89390815 401.99642899 -255.86328125 413.62890625 C-257.34406892 421.32900216 -262.47289404 426.2866475 -267.86328125 431.62890625 C-255.60285883 435.38398701 -243.00908169 435.94928446 -230.27124023 435.8347168 C-228.16572992 435.81631842 -226.06066115 435.8142094 -223.95507812 435.81445312 C-209.72328503 435.77929394 -196.52081786 434.71748864 -182.86328125 430.62890625 C-182.16702637 430.42136719 -181.47077148 430.21382813 -180.75341797 430 C-171.37343052 427.10384487 -163.09303628 423.65005007 -156.86328125 415.62890625 C-152.6648154 405.6992013 -154.46189938 395.38057677 -158.19140625 385.5859375 C-164.81850999 369.40300386 -174.59274172 355.33343892 -185.8515625 342.05078125 C-187.86328125 339.62890625 -187.86328125 339.62890625 -189.40625 337.39453125 C-191.94519027 333.80299917 -191.94519027 333.80299917 -195.90820312 332.28393555 C-202.88487094 332.4144956 -209.56066038 333.42763714 -216.42578125 334.62890625 C-226.68867556 336.33184275 -236.47947798 337.14954263 -246.86328125 336.62890625 C-247.48828125 333.75390625 -247.48828125 333.75390625 -247.86328125 330.62890625 C-244.92374257 327.68936757 -241.47434686 327.78929534 -237.5078125 327.26171875 C-236.66249466 327.14235458 -235.81717682 327.02299042 -234.94624329 326.90000916 C-233.13238304 326.64438654 -231.31802355 326.39228675 -229.50323486 326.14334106 C-224.79080791 325.49428245 -220.08338505 324.81045466 -215.375 324.1328125 C-213.53697237 323.86977438 -211.69891972 323.60691106 -209.86083984 323.34423828 C-208.57351959 323.15997284 -208.57351959 323.15997284 -207.26019287 322.97198486 C-205.16650036 322.6723071 -203.07275647 322.37298838 -200.97900391 322.07373047 C-171.68369383 317.79160559 -145.38876497 306.45129255 -126.87890625 282.45703125 C-110.50938893 259.48894881 -105.41151333 235.20444002 -101.86328125 207.62890625 C-101.71971191 206.59733398 -101.71971191 206.59733398 -101.57324219 205.54492188 C-96.32425933 164.56899116 -105.94133175 123.87649853 -131.19775391 91.16918945 C-134.18388511 87.37273666 -137.35500834 83.81319537 -140.78125 80.41015625 C-141.86328125 78.62890625 -141.86328125 78.62890625 -141.6015625 75.97265625 C-140.86328125 73.62890625 -140.86328125 73.62890625 -139.86328125 72.62890625 C-137.1484375 72.21875 -137.1484375 72.21875 -133.86328125 72.62890625 C-131.70433853 74.45247923 -130.08327451 76.05507053 -128.30078125 78.19140625 C-127.82406982 78.73700195 -127.3473584 79.28259766 -126.85620117 79.84472656 C-123.60786386 83.60648736 -120.59987967 87.47682589 -117.86328125 91.62890625 C-114.55186283 87.83712776 -112.94263408 83.43774049 -111.11328125 78.81640625 C-110.76765137 77.94564453 -110.42202148 77.07488281 -110.06591797 76.17773438 C-103.04593369 58.09430614 -97.85390553 40.44903503 -97.42578125 21.00390625 C-97.39105713 20.03710938 -97.35633301 19.0703125 -97.32055664 18.07421875 C-97.27495014 9.85662879 -99.48645918 3.0923135 -105.30078125 -2.87109375 C-115.17328748 -8.65012179 -126.39997072 -7.11447821 -136.98828125 -4.37109375 C-162.02522667 2.57135587 -186.02906068 14.68527034 -207.86328125 28.62890625 C-205.48052626 31.39131484 -203.28822117 32.41708337 -199.86328125 33.6015625 C-198.89390625 33.94380859 -197.92453125 34.28605469 -196.92578125 34.63867188 C-195.91515625 34.98607422 -194.90453125 35.33347656 -193.86328125 35.69140625 C-191.86201714 36.38699869 -189.86195807 37.08607045 -187.86328125 37.7890625 C-186.97640625 38.09465088 -186.08953125 38.40023926 -185.17578125 38.71508789 C-182.86328125 39.62890625 -182.86328125 39.62890625 -179.86328125 41.62890625 C-179.55078125 44.62890625 -179.55078125 44.62890625 -179.86328125 47.62890625 C-180.52328125 48.28890625 -181.18328125 48.94890625 -181.86328125 49.62890625 C-187.48699975 49.32279405 -192.51831435 46.89741528 -197.67578125 44.81640625 C-222.7875589 35.01573155 -247.86322636 34.27141642 -274.49975586 34.31323242 C-277.68447058 34.31784478 -280.86880167 34.31100326 -284.0534668 34.29272461 C-314.35403856 34.12050673 -344.28752804 34.57564781 -372.29736328 47.48144531 C-376.21985996 49.23353871 -378.7232828 50.05428289 -382.86328125 48.62890625 C-383.86328125 42.87890625 -383.86328125 42.87890625 -383.86328125 40.62890625 C-383.07179688 40.37109375 -382.2803125 40.11328125 -381.46484375 39.84765625 C-377.02859739 38.34645358 -372.63370829 36.74507096 -368.23828125 35.12890625 C-367.39265625 34.82082031 -366.54703125 34.51273438 -365.67578125 34.1953125 C-364.85851562 33.89496094 -364.04125 33.59460938 -363.19921875 33.28515625 C-362.4623584 33.01509766 -361.72549805 32.74503906 -360.96630859 32.46679688 C-358.86442922 31.62936363 -356.87105829 30.66993383 -354.86328125 29.62890625 C-360.09245129 25.26556314 -365.75635894 22.21423789 -371.73828125 19.00390625 C-372.88852783 18.38652588 -374.03877441 17.76914551 -375.22387695 17.13305664 C-417.78811072 -6.62107151 -417.78811072 -6.62107151 -460.390625 -0.67578125 Z " fill="#67828E" transform="translate(476.86328125,43.37109375)"/>
<path d="M0 0 C20.87299457 16.34004784 34.61531536 38.88777633 38.4375 65.25 C40.29188533 96.48808008 34.23220904 122.25610495 13.4375 146.25 C-3.44262302 165.25219562 -28.24057548 176.74818727 -53.51123047 178.37548828 C-64.14075502 178.87996607 -77.84655616 179.10797192 -87.5625 174.25 C-87.96972656 172.26660156 -87.96972656 172.26660156 -88.203125 169.640625 C-88.30077148 168.66867188 -88.39841797 167.69671875 -88.49902344 166.6953125 C-88.65419434 165.11363281 -88.65419434 165.11363281 -88.8125 163.5 C-90.9094269 144.85570566 -95.89534215 126.53635522 -105.33203125 110.18359375 C-106.85796568 106.54557229 -106.66240933 105.01707142 -105.5625 101.25 C-104.42751895 98.58378516 -103.24799877 95.98626982 -102 93.375 C-94.35308587 76.72884599 -88.94309954 59.24166533 -85.5625 41.25 C-85.37042969 40.32960937 -85.17835938 39.40921875 -84.98046875 38.4609375 C-84.3532464 33.64246298 -84.33749015 28.8543366 -84.3125 24 C-84.291875 23.01386719 -84.27125 22.02773438 -84.25 21.01171875 C-84.1854587 8.76500687 -87.76253998 -1.03896089 -96.4375 -9.8125 C-97.13875 -10.451875 -97.84 -11.09125 -98.5625 -11.75 C-66.90049796 -27.12356668 -27.58733723 -20.88978708 0 0 Z " fill="#FC80A6" transform="translate(473.5625,40.75)"/>
<path d="M0 0 C2.33321734 1.39829018 4.65893353 2.80666158 6.97363281 4.23535156 C5.97363281 6.23535156 5.97363281 6.23535156 4.11938477 7.05737305 C2.92768677 7.45291382 2.92768677 7.45291382 1.71191406 7.85644531 C0.83986328 8.15228516 -0.0321875 8.448125 -0.93066406 8.75292969 C-1.84912109 9.05650391 -2.76757812 9.36007813 -3.71386719 9.67285156 C-9.37278255 11.55915668 -14.71026392 13.49776768 -20.02636719 16.23535156 C-20.68636719 16.23535156 -21.34636719 16.23535156 -22.02636719 16.23535156 C-22.00703125 17.26789063 -21.98769531 18.30042969 -21.96777344 19.36425781 C-22.3475113 21.98161911 -22.7647189 22.9935126 -24.72900391 24.80908203 C-27.09098309 26.36992821 -29.49571298 27.78597734 -31.96386719 29.17285156 C-33.71134487 30.21131366 -35.45616658 31.25425871 -37.19824219 32.30175781 C-38.45604492 33.05223389 -38.45604492 33.05223389 -39.73925781 33.81787109 C-44.1634318 36.55983888 -48.05381002 39.89394834 -52.02636719 43.23535156 C-54.67090348 45.26558865 -57.34311803 47.25664269 -60.02636719 49.23535156 C-60.35636719 48.90535156 -60.68636719 48.57535156 -61.02636719 48.23535156 C-64.5510858 47.84975822 -66.38740765 47.78775554 -69.33496094 49.85253906 C-73.94925868 54.74623465 -77.970761 59.70217599 -81.61621094 65.36425781 C-82.31423828 66.29044922 -82.31423828 66.29044922 -83.02636719 67.23535156 C-83.68636719 67.23535156 -84.34636719 67.23535156 -85.02636719 67.23535156 C-109.95389356 5.51599517 -109.95389356 5.51599517 -102.02636719 -18.76464844 C-99.7264638 -24.13729724 -96.83527238 -27.83243495 -91.38574219 -30.14746094 C-62.88958955 -37.60175252 -23.41884981 -13.65532804 0 0 Z " fill="#B0B8C5" transform="translate(115.0263671875,67.7646484375)"/>
<path d="M0 0 C5.38972651 5.26995481 8.09265591 10.73314975 8.3984375 18.1875 C8.411587 20.12497113 8.40286244 22.0626846 8.375 24 C8.36412354 25.02673828 8.35324707 26.05347656 8.34204102 27.11132812 C8.16946833 35.40002695 7.24372758 42.99675351 5 51 C4.76893555 51.84498047 4.53787109 52.68996094 4.29980469 53.56054688 C-5.35061564 88.35061564 -5.35061564 88.35061564 -12 95 C-12.4846875 94.38253906 -12.969375 93.76507813 -13.46875 93.12890625 C-14.87590493 91.35102012 -16.29611482 89.58341844 -17.7265625 87.82421875 C-19.17610727 86.0234956 -20.59189513 84.19469249 -21.9609375 82.33203125 C-23.85366701 79.9023846 -25.54597622 77.86650427 -28 76 C-30.36358885 75.71400795 -30.36358885 75.71400795 -32.8125 76.0625 C-36.37910076 76.40398305 -37.5935807 76.29269647 -40.5546875 74.16015625 C-42.36735901 72.41472033 -44.16203493 70.65046507 -45.94140625 68.87109375 C-49.20332465 65.6785548 -52.81593012 63.18344066 -56.625 60.6875 C-57.2648584 60.26509033 -57.9047168 59.84268066 -58.56396484 59.4074707 C-62.67839372 56.73898182 -66.85346394 54.37574035 -71.36328125 52.42578125 C-73 51 -73 51 -73.6953125 47.5859375 C-74.59236592 44.03805951 -74.59236592 44.03805951 -76.69311523 42.83959961 C-78.95486433 41.8661919 -81.21856728 41.06669399 -83.5625 40.3125 C-85.19712844 39.73582951 -86.83124957 39.15771885 -88.46484375 38.578125 C-89.64022705 38.1749707 -89.64022705 38.1749707 -90.83935547 37.76367188 C-94.66943472 36.40994443 -98.31692912 34.70512541 -102 33 C-99.7993174 30.60672507 -97.61734805 29.06759687 -94.7734375 27.50390625 C-93.91935303 27.03364014 -93.06526855 26.56337402 -92.18530273 26.07885742 C-91.25790283 25.57845947 -90.33050293 25.07806152 -89.375 24.5625 C-87.91912476 23.77613159 -87.91912476 23.77613159 -86.43383789 22.97387695 C-21.52325871 -11.7399593 -21.52325871 -11.7399593 0 0 Z " fill="#B0B8C5" transform="translate(371,40)"/>
<path d="M0 0 C20.87299457 16.34004784 34.61531536 38.88777633 38.4375 65.25 C40.29188533 96.48808008 34.23220904 122.25610495 13.4375 146.25 C-3.44262302 165.25219562 -28.24057548 176.74818727 -53.51123047 178.37548828 C-64.14075502 178.87996607 -77.84655616 179.10797192 -87.5625 174.25 C-87.9765625 171.52734375 -87.9765625 171.52734375 -88.1875 168.1875 C-88.26226562 167.08277344 -88.33703125 165.97804687 -88.4140625 164.83984375 C-88.48753906 163.55787109 -88.48753906 163.55787109 -88.5625 162.25 C-87.51835937 162.4665625 -86.47421875 162.683125 -85.3984375 162.90625 C-59.28752771 167.98036179 -34.49857309 166.14054904 -11.69140625 151.40234375 C7.06002562 138.50341871 20.82336397 119.31768317 25.1171875 96.6640625 C27.94704155 77.8629774 26.94462825 59.45071411 18.4375 42.25 C17.95667969 41.21617188 17.47585938 40.18234375 16.98046875 39.1171875 C6.74188305 18.44072489 -10.8166189 4.79592203 -32.2265625 -3.1015625 C-51.39204694 -9.2257058 -71.32126004 -7.67996944 -90.5625 -2.75 C-91.14 -3.4925 -91.7175 -4.235 -92.3125 -5 C-94.28503526 -7.41087643 -96.32294282 -9.59042701 -98.5625 -11.75 C-66.90049796 -27.12356668 -27.58733723 -20.88978708 0 0 Z " fill="#FD518E" transform="translate(473.5625,40.75)"/>
<path d="M0 0 C2.42650723 0.01619307 4.85137239 -0.00000617 7.27783203 -0.01904297 C27.11207756 -0.04646854 27.11207756 -0.04646854 34.72705078 5.70361328 C38.31203275 10.67633021 39.37381839 15.31167663 38.66455078 21.39111328 C35.38320952 31.12363518 28.75647519 37.39350621 19.85205078 42.20361328 C8.60172192 47.34265239 -4.05513167 49.79471665 -16.02294922 45.76611328 C-26.53972851 41.38794898 -34.0628877 36.00669241 -40.27294922 26.39111328 C-42.15553127 21.07558748 -41.79508933 16.98633485 -40.27294922 11.70361328 C-37.17982539 6.41536931 -34.07461195 4.16926449 -28.29833984 2.52832031 C-18.80444524 0.51458237 -9.69521299 -0.07686792 0 0 Z " fill="#FDFEFE" transform="translate(197.33544921875,258.60888671875)"/>
<path d="M0 0 C3.80755987 2.55461513 5.70278503 5.1317926 7.13671875 9.43359375 C7.77100531 16.66446057 6.27187236 23.45338525 1.6875 29.2734375 C1.21699219 29.82128906 0.74648438 30.36914062 0.26171875 30.93359375 C-1.48411924 33.17444069 -1.87717507 34.06135506 -1.76953125 36.9453125 C-1.26229219 39.5001563 -0.62251475 41.94314101 0.13671875 44.43359375 C1.85567603 50.60998506 2.06201239 56.17651664 -0.86328125 61.99609375 C-1.52328125 63.13046875 -2.18328125 64.26484375 -2.86328125 65.43359375 C-3.85328125 65.43359375 -4.84328125 65.43359375 -5.86328125 65.43359375 C-6.88421875 64.19609375 -6.88421875 64.19609375 -7.92578125 62.93359375 C-10.49460632 60.19443215 -10.49460632 60.19443215 -13.0234375 60.453125 C-13.83683594 60.54980469 -14.65023437 60.64648438 -15.48828125 60.74609375 C-19.07955185 60.93121079 -20.47371937 60.71524046 -23.4296875 58.578125 C-25.23921952 56.83870898 -27.0298672 55.0795078 -28.8046875 53.3046875 C-32.0666059 50.11214855 -35.67921137 47.61703441 -39.48828125 45.12109375 C-40.44806885 44.48747925 -40.44806885 44.48747925 -41.42724609 43.84106445 C-44.91901388 41.57641392 -48.43854873 39.58762862 -52.17578125 37.74609375 C-55.53530486 35.96863473 -55.77611664 35.64060969 -57.36328125 31.87109375 C-57.52828125 30.73671875 -57.69328125 29.60234375 -57.86328125 28.43359375 C-58.08242188 27.76714844 -58.3015625 27.10070312 -58.52734375 26.4140625 C-58.86328125 24.43359375 -58.86328125 24.43359375 -56.73828125 21.30859375 C-43.46691645 7.02811596 -19.39192618 -10.74623225 0 0 Z " fill="#FDFDFE" transform="translate(353.86328125,55.56640625)"/>
<path d="M0 0 C10.14825196 5.37834249 22.96579652 14.16875739 28.93017578 24.02294922 C28.43517578 25.50794922 28.43517578 25.50794922 27.93017578 27.02294922 C27.27017578 27.02294922 26.61017578 27.02294922 25.93017578 27.02294922 C25.94951172 28.05548828 25.96884766 29.08802734 25.98876953 30.15185547 C25.60903167 32.76921676 25.19182407 33.78111026 23.22753906 35.59667969 C20.86555988 37.15752586 18.46082999 38.573575 15.99267578 39.96044922 C14.2451981 40.99891131 12.50037638 42.04185637 10.75830078 43.08935547 C9.91976562 43.58967285 9.08123047 44.08999023 8.21728516 44.60546875 C3.79311117 47.34743653 -0.09726706 50.681546 -4.06982422 54.02294922 C-6.71436051 56.05318631 -9.38657506 58.04424034 -12.06982422 60.02294922 C-12.56482422 59.52794922 -12.56482422 59.52794922 -13.06982422 59.02294922 C-15.85706079 58.43655102 -15.85706079 58.43655102 -19.06982422 59.02294922 C-20.84485361 60.45550235 -22.28564354 61.98325553 -23.77294922 63.71044922 C-24.20091797 64.14357422 -24.62888672 64.57669922 -25.06982422 65.02294922 C-25.72982422 65.02294922 -26.38982422 65.02294922 -27.06982422 65.02294922 C-31.19159383 58.3250736 -31.98956291 52.83578326 -31.06982422 45.02294922 C-30.4811449 43.11552538 -29.85685337 41.21867157 -29.19482422 39.33544922 C-28.20115932 36.1336401 -27.76722764 34.7290079 -29.10107422 31.61669922 C-30.16716064 30.09073239 -31.27776168 28.59496109 -32.42919922 27.13232422 C-36.56696616 21.81233815 -37.65782722 15.99288509 -37.41357422 9.34716797 C-36.63983521 4.11563716 -33.55611149 1.2298838 -29.50732422 -1.78955078 C-20.03528773 -8.30816832 -9.53707703 -4.60962706 0 0 Z " fill="#FDFEFE" transform="translate(67.06982421875,56.97705078125)"/>
<path d="M0 0 C11.43043838 -0.39459197 23.08054608 1.25372696 31.97265625 9.015625 C36.78673981 14.49915167 40.15222389 21.01478091 40.5078125 28.37890625 C39.84850125 37.53600689 35.09431935 43.80954162 28.8828125 50.19140625 C28.31304687 50.78824219 27.74328125 51.38507813 27.15625 52 C24.11528208 55.11733926 20.95659263 58.00304208 17.6328125 60.81640625 C13.84951591 64.08844655 11.63828923 67.0760714 9.9453125 71.81640625 C8.62906201 74.75861323 7.77410017 75.74576241 4.8828125 77.19140625 C2.12295538 77.65706116 -0.39122366 77.86757306 -3.1171875 77.19140625 C-6.24989771 74.94980266 -7.02624122 73.69338245 -7.71875 69.87109375 C-7.80041472 56.6141869 -3.19520992 49.90433748 5.9296875 40.515625 C9.00698828 36.85363707 9.91970514 34.27973911 9.7578125 29.50390625 C9.21267078 26.2358934 9.21267078 26.2358934 7.3203125 24.75390625 C-0.54254406 22.93940089 -6.0014105 24.93044256 -13.1171875 28.19140625 C-14.60798828 28.87396484 -14.60798828 28.87396484 -16.12890625 29.5703125 C-18.046127 30.44997849 -19.95930502 31.33854122 -21.8671875 32.23828125 C-24.1171875 33.19140625 -24.1171875 33.19140625 -26.1171875 33.19140625 C-25.68041515 30.14427681 -25.2190155 27.10452459 -24.72265625 24.06640625 C-24.30751824 21.40952298 -23.95740449 18.79708206 -23.66796875 16.12890625 C-22.42234906 6.29136874 -22.42234906 6.29136874 -18.98046875 3.390625 C-16.3423682 2.27963319 -13.93779856 1.65797349 -11.1171875 1.19140625 C-9.2609375 0.82015625 -9.2609375 0.82015625 -7.3671875 0.44140625 C-4.91379752 0.2492733 -2.4565983 0.15084376 0 0 Z " fill="#FEFDFD" transform="translate(412.1171875,61.80859375)"/>
<path d="M0 0 C14.85 0 29.7 0 45 0 C45.91246769 50.1857231 45.91246769 50.1857231 31.4296875 66.58203125 C30.95789063 67.04996094 30.48609375 67.51789063 30 68 C28.7934375 69.2684375 28.7934375 69.2684375 27.5625 70.5625 C25 72 25 72 21.5 72 C16.63444282 70.60984081 13.97962122 68.42971746 11.12109375 64.2578125 C-0.02147846 43.52383822 -0.24834602 22.97200662 0 0 Z " fill="#91A2B5" transform="translate(173,78)"/>
<path d="M0 0 C0.60257513 19.28240418 -0.99339226 40.85043205 -13.5078125 56.6171875 C-16.09905708 59.01849792 -18.39042719 59.9204905 -21.875 60.375 C-26.49146871 59.82102375 -29.30510924 58.00763846 -32.3125 54.4453125 C-41.31102634 41.34120852 -44.89553805 22.65533187 -44 7 C-44.66 6.67 -45.32 6.34 -46 6 C-37.82424814 3.46484295 -29.81560952 2.17746334 -21.3125 1.3125 C-20.14138672 1.18294922 -18.97027344 1.05339844 -17.76367188 0.91992188 C-11.80831208 0.28508657 -5.98842304 -0.15506398 0 0 Z " fill="#91A2B5" transform="translate(169,78)"/>
<path d="M0 0 C15.52024949 -0.90117578 32.14542538 1.49570963 47 6 C46.34 6.66 45.68 7.32 45 8 C44.60212444 10.99143477 44.30127485 13.93322621 44.0625 16.9375 C43.37963254 24.24275204 42.40500945 31.03484275 40 38 C39.65066406 39.07894531 39.30132812 40.15789062 38.94140625 41.26953125 C36.42565607 48.48684735 33.24594539 56.3770273 26 60 C21.72391427 60.58691373 18.88958351 60.37471309 15.4375 57.8125 C3.79394549 46.53362058 0.3364813 24.07294917 -0.09765625 8.49609375 C-0.08605469 7.48675781 -0.07445312 6.47742188 -0.0625 5.4375 C-0.05347656 4.40496094 -0.04445312 3.37242188 -0.03515625 2.30859375 C-0.02355469 1.54675781 -0.01195312 0.78492187 0 0 Z " fill="#91A2B4" transform="translate(221,78)"/>
<path d="M0 0 C5.09620539 3.01237564 8.70841667 7.93775001 10.5625 13.5 C11.30231962 20.32817124 10.69478576 25.88587416 6.5625 31.5 C1.60322712 36.67789512 -2.87832424 39.77654665 -10.1875 39.9375 C-17.09129067 39.81136497 -21.09653027 37.76406762 -25.96484375 33.0078125 C-30.38128196 28.06652222 -32.00062332 23.49994402 -31.8046875 16.96875 C-30.82319486 10.36977823 -27.68148161 4.97940549 -22.4375 0.875 C-15.67600202 -3.09836776 -7.16657735 -3.04785474 0 0 Z " fill="#615D5E" transform="translate(284.4375,222.5)"/>
<path d="M0 0 C5.95988295 2.72451792 10.12209239 7.21450292 12.61328125 13.3125 C13.51928877 19.82007327 13.58220222 25.71128161 9.98828125 31.375 C6.33855381 36.06627702 2.54003583 39.11607104 -3.38671875 40.3125 C-10.68268455 41.01377583 -15.86470308 39.60590555 -22.07421875 35.5625 C-27.15492583 30.61910933 -28.65719811 26.88349531 -28.94921875 19.875 C-28.75343336 13.79166818 -27.46835087 9.82906014 -23.38671875 5.3125 C-16.57760506 -0.99838586 -9.05298192 -2.60773293 0 0 Z " fill="#605C5E" transform="translate(124.38671875,221.6875)"/>
<path d="M0 0 C3.46236126 2.39067801 5.74528805 5.0530761 7.625 8.8125 C8.14092086 13.98862405 8.22238983 18.44348164 6.125 23.25 C1.94638494 27.53308044 -2.10044135 29.58118895 -8.0625 30.1875 C-14.45582818 29.463727 -17.10236095 27.38526258 -21.140625 22.56640625 C-23.84732712 18.72049089 -24.09236828 14.34239855 -23.375 9.8125 C-21.66108988 5.81574693 -19.38841033 2.73904658 -16.1875 -0.1875 C-10.7326305 -2.12700915 -5.42795881 -1.90983736 0 0 Z " fill="#FEFDFD" transform="translate(421.375,148.1875)"/>
<path d="M0 0 C0.83208984 -0.00287018 1.66417969 -0.00574036 2.52148438 -0.00869751 C4.27995484 -0.01073812 6.03844801 -0.00520843 7.796875 0.00732422 C10.49009913 0.02337848 13.1818226 0.00747605 15.875 -0.01171875 C17.58333665 -0.00973632 19.29167236 -0.00589264 21 0 C22.20946289 -0.00910904 22.20946289 -0.00910904 23.44335938 -0.0184021 C29.06674837 0.05241821 29.06674837 0.05241821 31.21289062 1.76644897 C32.5 3.3984375 32.5 3.3984375 32.875 5.8984375 C32.42906266 8.87135311 31.80959503 9.55386409 29.5 11.3984375 C26.59376282 11.69679217 23.90630697 11.81876378 21 11.796875 C20.16791016 11.79974518 19.33582031 11.80261536 18.47851562 11.80557251 C16.72004516 11.80761312 14.96155199 11.80208343 13.203125 11.78955078 C10.50990087 11.77349652 7.8181774 11.78939895 5.125 11.80859375 C3.41666335 11.80661132 1.70832764 11.80276764 0 11.796875 C-0.80630859 11.80294769 -1.61261719 11.80902039 -2.44335938 11.8152771 C-8.06674837 11.74445679 -8.06674837 11.74445679 -10.21289062 10.03042603 C-11.5 8.3984375 -11.5 8.3984375 -11.875 5.8984375 C-10.89040347 -0.66553938 -5.49210912 -0.04136368 0 0 Z " fill="#91A2B5" transform="translate(69.5,265.6015625)"/>
<path d="M0 0 C1.2148407 -0.00642769 1.2148407 -0.00642769 2.45422363 -0.01298523 C4.16559922 -0.01872513 5.8769992 -0.01923129 7.58837891 -0.01489258 C10.20908084 -0.01173042 12.82865622 -0.03520247 15.44921875 -0.06054688 C17.11197774 -0.06281966 18.77473977 -0.06352346 20.4375 -0.0625 C21.22193481 -0.07170975 22.00636963 -0.08091949 22.8145752 -0.09040833 C28.20156025 -0.04449736 28.20156025 -0.04449736 30.71289062 1.63208008 C32.29489724 4.25659833 32.09920954 6.32051489 31.71875 9.30078125 C27.87621112 11.86247384 24.67701091 11.62441265 20.21875 11.63671875 C19.38666016 11.64337555 18.55457031 11.65003235 17.69726562 11.65689087 C15.93882457 11.6670113 14.18034515 11.67170808 12.421875 11.67138672 C9.72852628 11.67576536 7.03680932 11.71210425 4.34375 11.75 C2.63542228 11.75586717 0.92708676 11.75983723 -0.78125 11.76171875 C-1.58755859 11.77608978 -2.39386719 11.79046082 -3.22460938 11.80526733 C-8.77937968 11.75974742 -8.77937968 11.75974742 -11.3203125 9.43603516 C-12.59378767 6.60630603 -12.344578 5.18695726 -11.28125 2.30078125 C-7.4829162 -0.23144129 -4.40248906 -0.0051151 0 0 Z " fill="#91A2B5" transform="translate(300.28125,265.69921875)"/>
<path d="M0 0 C2 2 2 2 2.3125 4.4375 C1.93109323 7.56503553 1.417607 8.05377233 -1 10 C-3.73974609 11.25854492 -3.73974609 11.25854492 -7.0234375 12.48046875 C-8.209375 12.92197266 -9.3953125 13.36347656 -10.6171875 13.81835938 C-12.47730469 14.49608398 -12.47730469 14.49608398 -14.375 15.1875 C-15.60734375 15.65091797 -16.8396875 16.11433594 -18.109375 16.59179688 C-19.89214844 17.24825195 -19.89214844 17.24825195 -21.7109375 17.91796875 C-22.79681152 18.31781982 -23.88268555 18.7176709 -25.00146484 19.12963867 C-27.88539084 19.9667333 -30.02351835 20.31529141 -33 20 C-35.3578135 17.87796785 -35.95033439 16.66220815 -36.1875 13.5 C-33.25920924 7.33517735 -21.91908153 4.93081773 -15.8125 2.6875 C-14.84119141 2.31560547 -13.86988281 1.94371094 -12.86914062 1.56054688 C-11.92876953 1.21443359 -10.98839844 0.86832031 -10.01953125 0.51171875 C-9.17495361 0.19678467 -8.33037598 -0.11814941 -7.46020508 -0.44262695 C-4.5883154 -1.09326942 -2.79891807 -0.8712804 0 0 Z " fill="#91A2B5" transform="translate(100,288)"/>
<path d="M0 0 C3.35720324 0.80097134 6.4801951 1.83778768 9.71044922 3.05297852 C10.90927734 3.50092773 12.10810547 3.94887695 13.34326172 4.41040039 C14.59330646 4.8835895 15.84330591 5.35689827 17.09326172 5.83032227 C18.36651233 6.30803423 19.63994824 6.7852526 20.91357422 7.26196289 C24.01699239 8.4257447 27.11843619 9.59451195 30.21826172 10.76782227 C31.34326172 17.51782227 31.34326172 17.51782227 30.21826172 19.76782227 C26.40522897 21.67433864 22.31293002 20.12249017 18.44677734 18.86987305 C15.27120974 17.72900219 12.11825415 16.53996479 8.96826172 15.33032227 C7.88029297 14.92233398 6.79232422 14.5143457 5.67138672 14.09399414 C-2.36538195 11.04539316 -2.36538195 11.04539316 -5.78173828 8.76782227 C-6.15673828 5.26782227 -6.15673828 5.26782227 -5.78173828 1.76782227 C-2.78173828 -0.23217773 -2.78173828 -0.23217773 0 0 Z " fill="#91A2B5" transform="translate(294.78173828125,287.232177734375)"/>
<path d="M0 0 C0.969375 -0.00386719 1.93875 -0.00773438 2.9375 -0.01171875 C3.948125 -0.00011719 4.95875 0.01148438 6 0.0234375 C7.010625 0.01183594 8.02125 0.00023437 9.0625 -0.01171875 C10.031875 -0.00785156 11.00125 -0.00398437 12 0 C12.886875 0.00338379 13.77375 0.00676758 14.6875 0.01025391 C17.46359864 0.47625864 18.36212206 1.13707933 20 3.3984375 C20.3125 6.4609375 20.3125 6.4609375 20 9.3984375 C16.95896434 12.43947316 13.95158914 11.69174597 9.79492188 11.72070312 C8.72822266 11.71748047 7.66152344 11.71425781 6.5625 11.7109375 C5.49966797 11.72705078 4.43683594 11.74316406 3.34179688 11.75976562 C1.81329102 11.76073242 1.81329102 11.76073242 0.25390625 11.76171875 C-0.68122803 11.76469971 -1.6163623 11.76768066 -2.57983398 11.77075195 C-5 11.3984375 -5 11.3984375 -6.80493164 10.03198242 C-8.51144345 7.69934289 -8.42303099 6.21864408 -8 3.3984375 C-5.65980595 0.24578092 -3.82571222 0.01459665 0 0 Z " fill="#FCFCFD" transform="translate(246,188.6015625)"/>
<path d="M0 0 C0.96292969 -0.01611328 1.92585938 -0.03222656 2.91796875 -0.04882812 C3.84222656 -0.04947266 4.76648438 -0.05011719 5.71875 -0.05078125 C6.9862207 -0.05525269 6.9862207 -0.05525269 8.27929688 -0.05981445 C10.99996879 0.39632282 11.88471746 1.10440876 13.5 3.3125 C13.8125 6.375 13.8125 6.375 13.5 9.3125 C10.45896434 12.35353566 7.45158914 11.60580847 3.29492188 11.63476562 C2.22822266 11.63154297 1.16152344 11.62832031 0.0625 11.625 C-1.00033203 11.64111328 -2.06316406 11.65722656 -3.15820312 11.67382812 C-4.68670898 11.67479492 -4.68670898 11.67479492 -6.24609375 11.67578125 C-7.18122803 11.67876221 -8.1163623 11.68174316 -9.07983398 11.68481445 C-11.5 11.3125 -11.5 11.3125 -13.33618164 9.98120117 C-14.5 8.3125 -14.5 8.3125 -14.375 5.25 C-12.36239976 -1.50658653 -5.81347844 -0.01945609 0 0 Z " fill="#FCFCFD" transform="translate(138.5,188.6875)"/>
</svg>
