<?xml version="1.0" encoding="UTF-8"?>
<svg version="1.1" xmlns="http://www.w3.org/2000/svg" width="512" height="512">
<path d="M0 0 C5.97871274 3.00827861 10.05213239 4.47814513 16.83325195 4.3137207 C17.55821365 4.30083008 18.28317535 4.28793945 19.03010559 4.2746582 C20.62307694 4.24419282 22.21591929 4.20629341 23.80856323 4.16189575 C26.45086038 4.08844675 29.09298979 4.03481864 31.73583984 3.98535156 C35.68842484 3.90926377 39.640728 3.82524192 43.59301758 3.73510742 C85.81194147 2.78074633 127.99555296 2.84305168 170.21357727 3.80563354 C174.04689626 3.89065541 177.88037161 3.96506481 181.71395874 4.03686523 C183.44571642 4.0723815 185.17737005 4.1135174 186.90884399 4.16088867 C189.23776325 4.22455225 191.5663315 4.26936376 193.89575195 4.30981445 C195.17788574 4.34010742 196.46001953 4.37040039 197.78100586 4.40161133 C203.15878666 3.93455294 207.35459264 1.74760495 212.0637207 -0.8269043 C217.36596622 -3.53544977 222.96631253 -5.35067523 228.60668945 -7.22143555 C229.60063721 -7.55852539 230.59458496 -7.89561523 231.61865234 -8.24291992 C245.35729682 -12.75898468 260.17971211 -15.85378161 274.00512695 -10.1237793 C277.85658079 -8.13407474 281.36641582 -5.88948281 283.35668945 -1.90893555 C284.00895508 -2.04170898 284.6612207 -2.17448242 285.33325195 -2.3112793 C288.00627151 -2.85140272 290.68137222 -3.38032837 293.35668945 -3.90893555 C294.36731445 -4.11518555 295.37793945 -4.32143555 296.41918945 -4.53393555 C308.63128443 -6.0929264 320.93088901 -3.54595364 330.8215332 3.9621582 C341.0576291 12.59742106 347.98202828 23.61938492 349.35668945 37.09106445 C350.12962799 47.38434356 347.73738997 57.27239906 343.9074707 66.7980957 C341.97986936 74.82293249 344.41964462 80.64041477 347.54418945 87.96606445 C353.96013114 103.70732772 358.06549336 119.25402564 360.35668945 136.09106445 C360.61579102 137.88592285 360.61579102 137.88592285 360.88012695 139.71704102 C361.47417429 144.53174257 361.53682353 149.31481453 361.55981445 154.16137695 C361.56551453 155.11889862 361.5712146 156.07642029 361.5770874 157.06295776 C361.58649721 159.08842888 361.59305531 161.11391502 361.59692383 163.1394043 C361.6065075 166.15874096 361.63751807 169.17735941 361.66918945 172.1965332 C361.81873654 199.54504357 357.09672808 225.8837764 346.0871582 250.9855957 C342.2860413 259.72950773 342.52223802 265.21819801 345.79418945 274.21606445 C346.24665039 275.35301758 346.69911133 276.4899707 347.1652832 277.66137695 C351.51372152 290.17917645 349.61375607 303.33454715 344.23168945 315.21606445 C339.14314194 324.66405416 331.91865033 331.36485793 322.35668945 336.09106445 C321.72375977 336.41848633 321.09083008 336.7459082 320.4387207 337.08325195 C310.35791796 341.59704423 298.31174504 340.83892476 288.0949707 337.30981445 C282.752674 335.14679031 278.24434494 332.08872341 273.6184082 328.67700195 C269.29878171 325.64804106 266.71469869 324.84751858 261.35668945 325.09106445 C262.03473633 325.49196289 262.7127832 325.89286133 263.41137695 326.3059082 C269.50575608 330.02837523 274.82320066 334.03692875 280.02856445 338.9230957 C282.05668143 340.81169457 284.13940596 342.53984688 286.29418945 344.27856445 C301.6182323 357.74514756 312.30064266 377.96437242 315.35668945 398.09106445 C315.49910369 400.81336738 315.58685662 403.49400866 315.60668945 406.21606445 C315.63762695 407.28920898 315.63762695 407.28920898 315.66918945 408.3840332 C315.70780609 413.54900826 315.70780609 413.54900826 314.0637207 416.0871582 C312.35668945 417.09106445 312.35668945 417.09106445 308.79418945 417.02856445 C307.09262695 416.56450195 307.09262695 416.56450195 305.35668945 416.09106445 C304.69668945 414.77106445 304.03668945 413.45106445 303.35668945 412.09106445 C172.67668945 412.09106445 41.99668945 412.09106445 -92.64331055 412.09106445 C-93.30331055 413.41106445 -93.96331055 414.73106445 -94.64331055 416.09106445 C-98.08081055 417.02856445 -98.08081055 417.02856445 -101.64331055 417.09106445 C-103.33862305 416.04418945 -103.33862305 416.04418945 -104.64331055 414.09106445 C-107.26471582 394.56041434 -99.66183825 374.32418913 -88.26831055 358.71606445 C-86.75318006 356.81955695 -85.21139992 354.94402339 -83.64331055 353.09106445 C-82.84924805 352.14618164 -82.05518555 351.20129883 -81.23706055 350.2277832 C-72.78386363 340.55743293 -62.23990355 330.88936096 -50.64331055 325.09106445 C-57.53027814 324.2301935 -61.50373754 327.85649292 -66.83862305 331.65356445 C-77.3308718 338.96523606 -88.96088444 341.54970416 -101.76831055 339.52856445 C-114.25588158 336.41690741 -125.18835497 328.99706295 -132.08081055 318.09106445 C-139.02953609 305.44988013 -140.38252594 291.97957879 -136.64331055 278.09106445 C-135.62454451 275.08920422 -134.57277116 272.10957017 -133.44799805 269.14575195 C-131.22753463 260.71661414 -133.52620062 254.96388564 -136.83081055 247.21606445 C-143.24675224 231.47480118 -147.35211445 215.92810327 -149.64331055 199.09106445 C-149.81604492 197.899729 -149.9887793 196.70839355 -150.16674805 195.48095703 C-150.77166184 190.57768853 -150.82365836 185.70239683 -150.84643555 180.7668457 C-150.85213562 179.78475632 -150.85783569 178.80266693 -150.8637085 177.79081726 C-150.87311897 175.71407126 -150.87967668 173.63731059 -150.88354492 171.56054688 C-150.89314276 168.45780497 -150.9241591 165.35575765 -150.95581055 162.25317383 C-151.10631275 133.77588537 -145.56356574 107.53635662 -134.20581055 81.46606445 C-130.71783333 72.63996558 -133.02751522 66.12562707 -136.4519043 57.52075195 C-140.57416111 45.65405857 -139.37128865 32.20779985 -134.16674805 20.8762207 C-127.63026158 9.04189703 -118.77129386 0.58897921 -105.72924805 -3.3503418 C-93.90072982 -6.51790379 -84.08014369 -4.05231055 -72.64331055 -0.90893555 C-72.39967773 -1.50448242 -72.15604492 -2.1000293 -71.9050293 -2.71362305 C-69.13077375 -7.54065591 -63.42425578 -10.14068466 -58.45581055 -12.28393555 C-38.9844191 -15.47596693 -17.14905066 -9.43030992 0 0 Z " fill="#AFB7C4" transform="translate(150.643310546875,53.908935546875)"/>
<path d="M0 0 C-0.51422807 3.18821403 -1.38051818 6.0268668 -2.51953125 9.03125 C-4.27199869 14.25591565 -4.45778612 19.08748108 -4.375 24.5625 C-4.36702393 25.52196533 -4.35904785 26.48143066 -4.35083008 27.4699707 C-4.18370835 35.92830444 -3.00490201 43.78456431 -1 52 C-0.79503906 52.89847656 -0.59007813 53.79695313 -0.37890625 54.72265625 C3.09154342 68.66912171 8.33351722 82.35123477 14.59838867 95.26391602 C17.34669798 101.09286637 17.34669798 101.09286637 16 105 C15.47373139 106.26852801 14.91451585 107.52374427 14.328125 108.765625 C-1.78596111 143.52517365 -4.07094633 179.27901233 2 217 C2.20882812 218.37043457 2.20882812 218.37043457 2.421875 219.76855469 C6.18208955 244.04456947 14.74229129 269.82865303 33.9375 286.3125 C38.90773602 291.04320658 38.90936641 295.5313791 39.43359375 302.140625 C40.8050979 311.4857705 46.54231863 320.25984525 54 326 C64.9323332 333.89453221 76.02662496 336.15605791 89.3359375 334.75390625 C99.027371 333.05703071 109.46885541 327.84700729 115.546875 320.00390625 C121.79629246 311.07837686 124.6127697 302.78754089 126 292 C127.89468335 291.68060166 129.79084994 291.37000421 131.6875 291.0625 C132.74324219 290.88847656 133.79898438 290.71445312 134.88671875 290.53515625 C149.06324009 288.57219788 163.34348781 288.7628472 177.625 288.75 C178.80387787 288.74766357 179.98275574 288.74532715 181.19735718 288.74291992 C198.31112786 288.73009155 215.08593005 289.1553495 232 292 C232.15891724 293.17103271 232.15891724 293.17103271 232.32104492 294.36572266 C233.25219685 300.62703293 234.36714545 305.77164256 237.3125 311.375 C237.88613281 312.49648438 238.45976562 313.61796875 239.05078125 314.7734375 C245.06058512 324.72152968 254.10221676 330.72025933 265.05078125 334.34375 C276.46030429 336.88255778 288.72578466 334.93627663 298.96875 329.33203125 C307.94214674 323.44755377 314.27701545 316.13728323 318 306 C318.32450497 303.46676768 318.57392868 300.92285563 318.75 298.375 C319.47195822 290.70027022 322.35236836 287.84266883 327.984375 282.859375 C343.4523327 268.89662189 350.99526286 245.1104885 354.625 225.375 C354.83664795 224.23329346 355.0482959 223.09158691 355.26635742 221.9152832 C362.24809115 183.39228524 362.01904304 141.6886619 342.1875 106.8125 C340.51531357 102.85205845 341.47989162 100.39215677 342.95214844 96.45141602 C343.52497559 95.11614868 343.52497559 95.11614868 344.109375 93.75390625 C344.53210693 92.75842773 344.95483887 91.76294922 345.39038086 90.73730469 C346.06339233 89.16577637 346.06339233 89.16577637 346.75 87.5625 C352.07517126 74.93917255 357.16441314 62.4567446 360 49 C360.16918945 48.21157715 360.33837891 47.4231543 360.51269531 46.61083984 C361.89747178 39.70058232 362.36595203 33.03932303 362.375 26 C362.39949219 24.99710938 362.42398437 23.99421875 362.44921875 22.9609375 C362.47455002 16.42547101 361.389845 11.31006377 358.86181641 5.27734375 C358 3 358 3 358 0 C371.9508383 -4.9292962 384.28583383 -5.4698247 398.125 0.625 C408.81131648 6.51247166 416.85013174 16.35414298 420.875 27.8125 C424.83164089 41.55151071 422.8417127 54.54753507 417.55078125 67.70703125 C415.62317991 75.73186804 418.06295517 81.54935031 421.1875 88.875 C427.60344169 104.61626327 431.7088039 120.16296119 434 137 C434.25910156 138.7948584 434.25910156 138.7948584 434.5234375 140.62597656 C435.11748484 145.44067811 435.18013408 150.22375007 435.203125 155.0703125 C435.20882507 156.02783417 435.21452515 156.98535583 435.22039795 157.97189331 C435.22980776 159.99736442 435.23636586 162.02285057 435.24023438 164.04833984 C435.24981805 167.0676765 435.28082861 170.08629496 435.3125 173.10546875 C435.46204708 200.45397912 430.74003862 226.79271194 419.73046875 251.89453125 C415.92935185 260.63844328 416.16554856 266.12713355 419.4375 275.125 C419.88996094 276.26195312 420.34242188 277.39890625 420.80859375 278.5703125 C425.15703207 291.088112 423.25706662 304.24348269 417.875 316.125 C412.78645249 325.57298971 405.56196088 332.27379348 396 337 C395.36707031 337.32742188 394.73414063 337.65484375 394.08203125 337.9921875 C384.00122851 342.50597977 371.95505559 341.74786031 361.73828125 338.21875 C356.39598455 336.05572586 351.88765548 332.99765896 347.26171875 329.5859375 C342.94209226 326.55697661 340.35800924 325.75645413 335 326 C335.67804688 326.40089844 336.35609375 326.80179687 337.0546875 327.21484375 C343.14906662 330.93731078 348.46651121 334.9458643 353.671875 339.83203125 C355.69999198 341.72063011 357.78271651 343.44878242 359.9375 345.1875 C375.26154285 358.65408311 385.9439532 378.87330797 389 399 C389.14241424 401.72230292 389.23016717 404.40294421 389.25 407.125 C389.2809375 408.19814453 389.2809375 408.19814453 389.3125 409.29296875 C389.35111664 414.4579438 389.35111664 414.4579438 387.70703125 416.99609375 C386 418 386 418 382.4375 417.9375 C380.7359375 417.4734375 380.7359375 417.4734375 379 417 C378.34 415.68 377.68 414.36 377 413 C246.32 413 115.64 413 -19 413 C-19.66 414.32 -20.32 415.64 -21 417 C-24.4375 417.9375 -24.4375 417.9375 -28 418 C-29.6953125 416.953125 -29.6953125 416.953125 -31 415 C-33.62140528 395.46934988 -26.0185277 375.23312468 -14.625 359.625 C-13.10986952 357.72849249 -11.56808937 355.85295894 -10 354 C-9.2059375 353.05511719 -8.411875 352.11023438 -7.59375 351.13671875 C0.85944692 341.46636848 11.40340699 331.7982965 23 326 C16.1130324 325.13912905 12.139573 328.76542847 6.8046875 332.5625 C-3.68756125 339.8741716 -15.31757389 342.45863971 -28.125 340.4375 C-40.61257103 337.32584296 -51.54504443 329.9059985 -58.4375 319 C-65.38622554 306.35881568 -66.7392154 292.88851434 -63 279 C-61.98123396 275.99813977 -60.92946062 273.01850571 -59.8046875 270.0546875 C-57.58422409 261.62554968 -59.88289007 255.87282119 -63.1875 248.125 C-69.60344169 232.38373673 -73.7088039 216.83703881 -76 200 C-76.17273438 198.80866455 -76.34546875 197.6173291 -76.5234375 196.38989258 C-77.1283513 191.48662408 -77.18034782 186.61133237 -77.203125 181.67578125 C-77.20882507 180.69369186 -77.21452515 179.71160248 -77.22039795 178.69975281 C-77.22980842 176.62300681 -77.23636613 174.54624614 -77.24023438 172.46948242 C-77.24983222 169.36674052 -77.28084855 166.2646932 -77.3125 163.16210938 C-77.4630022 134.68482092 -71.92025519 108.44529217 -60.5625 82.375 C-57.07452278 73.54890113 -59.38420467 67.03456261 -62.80859375 58.4296875 C-66.93085056 46.56299411 -65.72797811 33.1167354 -60.5234375 21.78515625 C-53.98695103 9.95083258 -45.12798332 1.49791476 -32.0859375 -2.44140625 C-20.8006727 -5.46349027 -10.93966476 -3.64655492 0 0 Z " fill="#65DFE7" transform="translate(77,53)"/>
<path d="M0 0 C5.97871274 3.00827861 10.05213239 4.47814513 16.83325195 4.3137207 C17.55821365 4.30083008 18.28317535 4.28793945 19.03010559 4.2746582 C20.62307694 4.24419282 22.21591929 4.20629341 23.80856323 4.16189575 C26.45086038 4.08844675 29.09298979 4.03481864 31.73583984 3.98535156 C35.68842484 3.90926377 39.640728 3.82524192 43.59301758 3.73510742 C85.81194147 2.78074633 127.99555296 2.84305168 170.21357727 3.80563354 C174.04689626 3.89065541 177.88037161 3.96506481 181.71395874 4.03686523 C183.44571642 4.0723815 185.17737005 4.1135174 186.90884399 4.16088867 C189.23776325 4.22455225 191.5663315 4.26936376 193.89575195 4.30981445 C195.17788574 4.34010742 196.46001953 4.37040039 197.78100586 4.40161133 C203.15878666 3.93455294 207.35459264 1.74760495 212.0637207 -0.8269043 C217.36596622 -3.53544977 222.96631253 -5.35067523 228.60668945 -7.22143555 C229.60063721 -7.55852539 230.59458496 -7.89561523 231.61865234 -8.24291992 C245.31763819 -12.74594839 260.25689534 -15.92501399 274.02075195 -10.0925293 C282.37597855 -5.85902819 285.45586901 0.74208904 288.4699707 9.22387695 C295.21567935 38.64348737 282.34055982 71.45522037 269.39355469 97.30932617 C267.75697988 101.69998624 269.10423497 103.53192899 270.9934082 107.71606445 C271.32058838 108.41183594 271.64776855 109.10760742 271.98486328 109.82446289 C287.75666086 143.57080276 289.46898547 179.6544033 283.35668945 216.09106445 C283.2174707 216.98760742 283.07825195 217.88415039 282.93481445 218.80786133 C279.14396017 243.11495938 270.65395877 268.8857449 251.41918945 285.40356445 C246.44763074 290.13552997 246.44957248 294.62569727 245.91918945 301.2355957 C244.31440407 312.23506215 237.02873101 321.04731875 228.38793945 327.5793457 C218.15246742 334.46391915 206.45847043 336.0029317 194.35668945 335.09106445 C183.14394408 332.64518307 172.92028358 326.1841816 166.1496582 316.94262695 C158.49871958 304.77446749 156.88257709 293.95424545 158.98168945 279.84106445 C161.38879148 269.84744087 166.92245499 261.90070731 175.35668945 256.09106445 C183.71311319 251.24735742 191.91668089 250.84794824 201.2199707 252.97387695 C215.42609145 256.89286595 231.5495529 264.06011725 240.04418945 276.65356445 C240.47731445 277.45793945 240.91043945 278.26231445 241.35668945 279.09106445 C243.05102607 277.44656126 244.71150026 275.7840032 246.35668945 274.09106445 C246.81430664 273.62958008 247.27192383 273.1680957 247.7434082 272.69262695 C273.23443015 245.17629093 275.33447522 200.41491831 274.35668945 165.09106445 C272.92288015 134.0893097 259.59888893 104.83285868 238.73168945 82.09106445 C236.35668945 79.09106445 236.35668945 79.09106445 235.79418945 76.34106445 C236.35668945 74.09106445 236.35668945 74.09106445 237.48168945 72.21606445 C239.35668945 71.09106445 239.35668945 71.09106445 242.1184082 71.1574707 C246.2901642 72.36018444 248.3340258 74.69306289 251.04418945 77.90356445 C251.51663086 78.43788086 251.98907227 78.97219727 252.47583008 79.52270508 C259.35668945 87.36862187 259.35668945 87.36862187 259.35668945 90.09106445 C260.01668945 90.09106445 260.67668945 90.09106445 261.35668945 90.09106445 C261.52104492 88.81489258 261.52104492 88.81489258 261.6887207 87.51293945 C262.405118 83.84297436 263.58722046 80.78272349 265.04418945 77.34106445 C272.09560843 60.17622796 277.51461214 43.30450694 277.73168945 24.59106445 C277.74570801 23.76622559 277.75972656 22.94138672 277.77416992 22.09155273 C277.71323429 14.39022651 275.8722914 7.77380585 270.35668945 2.09106445 C263.92585501 -2.34290942 252.18457951 -0.77509659 244.83374023 0.54370117 C231.70264795 3.59509221 219.4410315 9.24658191 207.35668945 15.09106445 C206.6399707 15.43427734 205.92325195 15.77749023 205.18481445 16.13110352 C195.00134068 21.02663626 185.15179134 26.46409103 175.35668945 32.09106445 C175.92589111 32.28216797 176.49509277 32.47327148 177.08154297 32.67016602 C179.69669742 33.55294995 182.30790106 34.44691259 184.91918945 35.34106445 C186.26207031 35.7915918 186.26207031 35.7915918 187.63208008 36.2512207 C192.92495229 38.07367487 197.59682896 40.13982036 202.35668945 43.09106445 C202.54418945 46.46606445 202.54418945 46.46606445 202.35668945 50.09106445 C199.35668945 52.09106445 199.35668945 52.09106445 196.2277832 51.9230957 C191.73648867 50.95776196 187.68256834 49.45864701 183.41918945 47.77856445 C159.29600738 38.64841579 135.54828768 37.73140877 109.98852539 37.77539062 C107.07430573 37.78001817 104.1605038 37.77310043 101.24633789 37.75488281 C72.60084036 37.57758769 44.99998394 39.27245258 18.45825195 50.9543457 C15.45404884 52.05538236 13.51224893 52.50920396 10.35668945 52.09106445 C8.35668945 50.09106445 8.35668945 50.09106445 8.23168945 46.46606445 C8.27293945 45.35231445 8.31418945 44.23856445 8.35668945 43.09106445 C27.45668945 33.09106445 27.45668945 33.09106445 35.35668945 33.09106445 C35.35668945 32.43106445 35.35668945 31.77106445 35.35668945 31.09106445 C34.65882324 30.82696777 33.96095703 30.56287109 33.24194336 30.29077148 C30.11623171 28.99108059 27.18245522 27.48337918 24.19262695 25.89575195 C22.98536609 25.2590308 21.77783594 24.62282002 20.57006836 23.98706055 C19.63000946 23.49142609 19.63000946 23.49142609 18.67095947 22.98577881 C-12.41772742 6.2576048 -12.41772742 6.2576048 -46.58081055 -0.22143555 C-47.75933594 -0.26494141 -47.75933594 -0.26494141 -48.96166992 -0.30932617 C-54.35623513 -0.36801182 -57.37063465 0.5046062 -61.64331055 4.09106445 C-66.78059031 10.6167982 -66.84459879 16.48951485 -66.89331055 24.46606445 C-66.91393555 25.27172852 -66.93456055 26.07739258 -66.95581055 26.9074707 C-67.03479728 39.64408182 -63.41341143 51.73066807 -59.30932617 63.65551758 C-58.63498012 65.61527398 -57.97407341 67.5791876 -57.31518555 69.54418945 C-54.87942203 76.7696721 -54.87942203 76.7696721 -51.99487305 83.82348633 C-50.64331055 87.09106445 -50.64331055 87.09106445 -50.64331055 90.09106445 C-49.98331055 90.09106445 -49.32331055 90.09106445 -48.64331055 90.09106445 C-48.41643555 89.57543945 -48.18956055 89.05981445 -47.95581055 88.52856445 C-46.16113437 85.19559441 -44.14366039 81.94402774 -41.64331055 79.09106445 C-40.98331055 79.09106445 -40.32331055 79.09106445 -39.64331055 79.09106445 C-39.39581055 78.51356445 -39.14831055 77.93606445 -38.89331055 77.34106445 C-37.42173988 74.69223726 -36.01363379 72.98732304 -33.64331055 71.09106445 C-30.74435204 70.59612032 -29.32529522 70.70460647 -26.76831055 72.15356445 C-25.64331055 74.09106445 -25.64331055 74.09106445 -25.51831055 77.34106445 C-26.81578976 81.66599517 -28.27483014 82.94907128 -31.4909668 85.9152832 C-46.49298715 101.08066494 -55.64837708 122.82479822 -60.39331055 143.21606445 C-60.60439453 144.12251709 -60.81547852 145.02896973 -61.03295898 145.96289062 C-68.87399197 181.54045123 -64.51760928 229.38224258 -45.64331055 261.09106445 C-41.43556024 267.48030861 -36.72180613 273.37775692 -31.64331055 279.09106445 C-29.53401666 277.05710249 -27.62610813 275.0681153 -25.8659668 272.7199707 C-16.43452443 261.56467946 1.27936179 253.22787851 15.63012695 251.75512695 C26.43861799 251.61899986 34.28287975 254.04245141 42.2434082 261.53637695 C50.85844428 271.95085679 52.89659368 282.91448304 52.35668945 296.09106445 C51.39066089 306.2106096 46.06656746 317.38610645 38.35668945 324.09106445 C26.65849269 332.58111937 15.93273718 336.31741462 1.35668945 335.09106445 C-12.81199104 332.31747841 -23.15180439 324.68792215 -31.1784668 312.8215332 C-34.08557429 307.71078737 -34.86489806 303.50897801 -35.26831055 297.65356445 C-36.08962408 289.91307178 -38.93909453 286.98380009 -44.62768555 281.95043945 C-60.07603146 268.00538969 -67.62959431 244.23989095 -71.26831055 224.52856445 C-71.58578247 222.82095947 -71.58578247 222.82095947 -71.90966797 221.07885742 C-78.5239704 184.5600932 -80.46076354 137.94819627 -58.86987305 105.41918945 C-57.28816855 102.41697328 -57.7884778 101.32746947 -58.64331055 98.09106445 C-59.3029257 96.32549457 -60.00961697 94.57707297 -60.75268555 92.8449707 C-61.17541748 91.84949219 -61.59814941 90.85401367 -62.03369141 89.82836914 C-62.48236572 88.78068359 -62.93104004 87.73299805 -63.39331055 86.65356445 C-68.72053095 74.02537952 -73.79873913 61.54944298 -76.64331055 48.09106445 C-76.84956055 47.14618164 -77.05581055 46.20129883 -77.26831055 45.2277832 C-78.59693844 38.11408802 -78.87711224 31.05847979 -78.95581055 23.84106445 C-78.97345459 22.91825684 -78.99109863 21.99544922 -79.00927734 21.04467773 C-79.00316727 14.85794639 -77.96208487 9.81532018 -75.64331055 4.09106445 C-75.35343262 3.35621826 -75.06355469 2.62137207 -74.76489258 1.86425781 C-72.13149982 -4.51738891 -67.65105122 -7.86259397 -61.6159668 -10.9440918 C-43.10715765 -18.35450887 -16.67336478 -9.16872895 0 0 Z " fill="#68828E" transform="translate(150.643310546875,53.908935546875)"/>
<path d="M0 0 C-0.02356567 1.01030273 -0.02356567 1.01030273 -0.04760742 2.04101562 C-0.31779402 15.42038248 -0.27841242 27.97784089 3 41 C3.20496094 41.89460938 3.40992187 42.78921875 3.62109375 43.7109375 C7.07660462 57.66175778 12.33361929 71.35144514 18.59838867 84.26391602 C21.34669798 90.09286637 21.34669798 90.09286637 20 94 C19.47373139 95.26852801 18.91451585 96.52374427 18.328125 97.765625 C2.21403889 132.52517365 -0.07094633 168.27901233 6 206 C6.20882812 207.37043457 6.20882812 207.37043457 6.421875 208.76855469 C10.18208955 233.04456947 18.74229129 258.82865303 37.9375 275.3125 C42.94330203 280.05848531 43.10409454 284.79487553 43.60546875 291.453125 C44.12298708 296.10566598 45.651088 299.0068496 48 303 C48 303.66 48 304.32 48 305 C43.6552203 305.15799199 39.90468341 305.08093871 35.6875 304 C24.80407573 301.46550394 17.53413189 303.2403395 8 309 C6.40691306 310.04781901 4.82269331 311.10931335 3.25 312.1875 C-5.11289693 317.86711449 -12.82560898 319.37491771 -23 318 C-31.57904962 314.94945186 -38.79012752 310.46826931 -43.6875 302.6875 C-44.55955078 301.33205078 -44.55955078 301.33205078 -45.44921875 299.94921875 C-49.6546562 291.95147246 -50.19517997 282.85864792 -49 274 C-47.87890625 270.703125 -47.87890625 270.703125 -46.5 267.625 C-42.44286462 258.13106937 -41.99810562 247.91703841 -45.625 238.1875 C-47.29463345 234.14643775 -49.14440485 230.19180751 -50.99560547 226.23144531 C-59.00970342 208.42666765 -62.0843266 186.95374375 -62.203125 167.546875 C-62.21013931 166.77280807 -62.21715363 165.99874115 -62.22438049 165.20121765 C-62.24177733 162.71741843 -62.24823281 160.23385792 -62.25 157.75 C-62.25067474 156.89963165 -62.25134949 156.04926331 -62.25204468 155.17312622 C-62.23571561 142.21715284 -61.69936248 129.71102119 -59 117 C-58.73461426 115.68974854 -58.73461426 115.68974854 -58.46386719 114.35302734 C-55.89039446 101.84790554 -52.52068178 89.93008524 -46.73046875 78.4921875 C-42.55232839 69.78157685 -42.19020054 58.64857825 -45.12890625 49.4765625 C-46.03415956 47.3875164 -46.94934779 45.30274402 -47.875 43.22265625 C-50.60952156 35.38939137 -50.17338177 25.74443799 -47.0234375 18.04296875 C-42.1845377 8.38363823 -35.64013064 2.00685161 -25.6875 -2.5 C-16.38128587 -3.76185954 -8.66755213 -3.60593003 0 0 Z " fill="#DBFAFA" transform="translate(73,64)"/>
<path d="M0 0 C0.68835938 0.43441406 1.37671875 0.86882812 2.0859375 1.31640625 C3.24222656 2.04537109 3.24222656 2.04537109 4.421875 2.7890625 C12.06099789 8.15675184 16.62256439 15.33951955 19.0859375 24.31640625 C19.93802481 32.56819911 19.73565515 39.53575959 16.5859375 47.25390625 C10.88437527 61.96228418 14.06031377 72.51551608 20.08813477 86.51489258 C23.28087716 94.00527514 25.71351422 101.39189078 27.5859375 109.31640625 C27.81619629 110.26902344 28.04645508 111.22164063 28.28369141 112.203125 C31.63908379 127.07540083 32.46628983 141.93798959 32.3984375 157.12890625 C32.39694702 157.96057312 32.39545654 158.79223999 32.3939209 159.64910889 C32.35640924 171.31607418 31.9432518 182.65206063 29.53466797 194.10644531 C29.05298444 196.4786974 28.66109582 198.85613237 28.27734375 201.24609375 C26.45837608 212.03821926 23.3070593 221.71755536 18.98828125 231.765625 C13.87749804 243.78200392 11.55011093 254.68392085 16.5859375 267.31640625 C20.37434664 276.83047921 20.65963374 287.25981816 17.18359375 296.9765625 C12.54234418 306.87018704 5.9711652 313.16330293 -4.1640625 317.19140625 C-12.32240298 319.57329936 -21.11395649 319.57295065 -28.73828125 315.65625 C-32.08934719 313.5926672 -35.25590145 311.28652129 -38.45703125 309 C-46.43768365 303.53154025 -53.26261982 302.44014038 -62.9140625 303.31640625 C-65.26136315 303.93209167 -67.59863207 304.5899967 -69.9140625 305.31640625 C-72.60748739 305.47935366 -75.21226651 305.41120611 -77.9140625 305.31640625 C-76.12335241 299.80652905 -76.12335241 299.80652905 -75.1484375 297.5234375 C-73.43937559 293.46022658 -72.86996009 290.42674792 -72.9140625 286.00390625 C-72.5141699 280.05448373 -69.77636698 277.60780254 -65.48730469 273.71459961 C-49.27914962 258.82940011 -41.16434381 235.76195952 -37.2890625 214.69140625 C-37.07741455 213.54969971 -36.8657666 212.40799316 -36.64770508 211.23168945 C-29.66597135 172.70869149 -29.89501946 131.00506815 -49.7265625 96.12890625 C-51.39874893 92.1684647 -50.43417088 89.70856302 -48.96191406 85.76782227 C-48.5800293 84.87764404 -48.19814453 83.98746582 -47.8046875 83.0703125 C-47.38195557 82.07483398 -46.95922363 81.07935547 -46.52368164 80.05371094 C-46.07500732 79.00602539 -45.62633301 77.95833984 -45.1640625 76.87890625 C-39.83889124 64.2555788 -34.74964936 51.77315085 -31.9140625 38.31640625 C-31.65592773 37.1718396 -31.65592773 37.1718396 -31.39257812 36.00415039 C-29.80234235 28.33884868 -29.67962928 20.93654573 -29.7890625 13.12890625 C-29.79808594 11.89076172 -29.80710937 10.65261719 -29.81640625 9.37695312 C-29.83972974 6.35656114 -29.87245773 3.33659226 -29.9140625 0.31640625 C-20.14214569 -3.31897947 -9.62391572 -5.13394761 0 0 Z " fill="#DBFAFA" transform="translate(468.9140625,63.68359375)"/>
<path d="M0 0 C-0.60698743 4.12751449 -2.03810791 7.3321148 -4 11 C-5.03125 10.67 -6.0625 10.34 -7.125 10 C-17.38553262 7.46676015 -28.21705366 7.91662093 -37.3359375 13.40625 C-45.39544601 19.08271446 -49.72843177 26.48397095 -52 36 C-52.80715168 43.62970746 -52.65679419 50.25666257 -49.5 57.3125 C-44.58699326 69.06099438 -45.5878877 79.33878042 -50.28491211 90.91113281 C-51.1844224 93.0264323 -52.0902764 95.13904452 -53.00219727 97.24902344 C-56.20302153 104.72270753 -58.63157257 112.08691124 -60.5 120 C-60.73025879 120.95269775 -60.96051758 121.90539551 -61.19775391 122.88696289 C-64.54375979 137.71636991 -65.38047391 152.5400107 -65.3125 167.6875 C-65.31100952 168.51527954 -65.30951904 169.34305908 -65.3079834 170.19592285 C-65.2655754 183.34303529 -64.51036292 196.06848962 -62 209 C-61.79914795 210.14807129 -61.79914795 210.14807129 -61.59423828 211.31933594 C-59.17812998 225.10140344 -54.37411411 237.96282119 -48.28515625 250.54296875 C-46.73348553 254.71691583 -46.46582299 258.2095202 -46.5 262.625 C-46.50064453 263.41696777 -46.50128906 264.20893555 -46.50195312 265.02490234 C-46.65896936 271.2814928 -48.33735083 276.00158649 -50.87109375 281.71875 C-53.95923002 290.69464782 -52.90464878 301.05015492 -49.1875 309.671875 C-45.45243592 316.99456642 -41.14494723 320.88510892 -34 325 C-32.948125 325.61875 -31.89625 326.2375 -30.8125 326.875 C-22.33073607 329.37781559 -13.42226511 329.04618494 -5.36328125 325.33984375 C-1.87381408 323.36151773 1.32464056 321.0344309 4.5703125 318.68359375 C13.20462218 312.70065569 20.79673472 311.85590461 31.03515625 313.68359375 C34.70674352 314.38529973 38.35462409 315.17351801 42 316 C34.91232084 321.50531358 28.37115443 325.25215358 19.3359375 325.6796875 C15.20354792 326.24633624 12.29542793 328.57689123 9 331 C-2.35585833 339.12004923 -13.94606093 342.67507815 -28.125 340.4375 C-40.61257103 337.32584296 -51.54504443 329.9059985 -58.4375 319 C-65.38622554 306.35881568 -66.7392154 292.88851434 -63 279 C-61.98123396 275.99813977 -60.92946062 273.01850571 -59.8046875 270.0546875 C-57.58422409 261.62554968 -59.88289007 255.87282119 -63.1875 248.125 C-69.60344169 232.38373673 -73.7088039 216.83703881 -76 200 C-76.17273438 198.80866455 -76.34546875 197.6173291 -76.5234375 196.38989258 C-77.1283513 191.48662408 -77.18034782 186.61133237 -77.203125 181.67578125 C-77.20882507 180.69369186 -77.21452515 179.71160248 -77.22039795 178.69975281 C-77.22980842 176.62300681 -77.23636613 174.54624614 -77.24023438 172.46948242 C-77.24983222 169.36674052 -77.28084855 166.2646932 -77.3125 163.16210938 C-77.4630022 134.68482092 -71.92025519 108.44529217 -60.5625 82.375 C-57.07452278 73.54890113 -59.38420467 67.03456261 -62.80859375 58.4296875 C-66.93085056 46.56299411 -65.72797811 33.1167354 -60.5234375 21.78515625 C-53.98695103 9.95083258 -45.12798332 1.49791476 -32.0859375 -2.44140625 C-20.8006727 -5.46349027 -10.93966476 -3.64655492 0 0 Z " fill="#65E0E8" transform="translate(77,53)"/>
<path d="M0 0 C0.79019531 -0.01482422 1.58039063 -0.02964844 2.39453125 -0.04492188 C8.82077104 0.07101544 12.5443905 2.23138746 17.0625 6.875 C24.49427354 18.2880808 21.48393759 36.10493232 18.86865234 48.68579102 C15.43745794 63.41982792 9.47795575 77.57252924 3.8125 91.5625 C3.1525 91.5625 2.4925 91.5625 1.8125 91.5625 C0.33203125 89.875 0.33203125 89.875 -1.375 87.5625 C-1.99632812 86.7478125 -2.61765625 85.933125 -3.2578125 85.09375 C-3.89460938 84.2584375 -4.53140625 83.423125 -5.1875 82.5625 C-9.38027481 76.85159718 -9.38027481 76.85159718 -15.375 73.5 C-18.09202199 73.39121721 -18.09202199 73.39121721 -20.0625 74.3359375 C-22.1875 74.5625 -22.1875 74.5625 -24.45703125 72.82421875 C-25.29621094 71.97472656 -26.13539063 71.12523438 -27 70.25 C-31.36166699 66.01699575 -35.92527188 62.46906587 -41 59.125 C-41.62173096 58.7127417 -42.24346191 58.3004834 -42.8840332 57.87573242 C-45.7472022 56.01565035 -48.32626876 54.5062424 -51.51171875 53.21484375 C-54.1875 51.5625 -54.1875 51.5625 -55.16796875 48.07421875 C-55.83554164 44.36135558 -55.83554164 44.36135558 -58.98828125 42.70703125 C-60.14714844 42.26746094 -61.30601562 41.82789063 -62.5 41.375 C-63.11504395 41.13507324 -63.73008789 40.89514648 -64.36376953 40.64794922 C-70.52806819 38.29642421 -76.84077321 36.35476504 -83.1875 34.5625 C-81.12916119 32.35547044 -79.15634891 30.82269191 -76.51953125 29.36328125 C-75.79967041 28.96286621 -75.07980957 28.56245117 -74.33813477 28.14990234 C-73.56655029 27.72918457 -72.79496582 27.3084668 -72 26.875 C-71.19554443 26.43365723 -70.39108887 25.99231445 -69.56225586 25.53759766 C-23.26955726 0.30523339 -23.26955726 0.30523339 0 0 Z " fill="#AFB7C4" transform="translate(408.1875,52.4375)"/>
<path d="M0 0 C2.1865088 0.74524175 4.35552585 1.52827737 6.5234375 2.32592773 C7.66304932 2.73609131 7.66304932 2.73609131 8.82568359 3.15454102 C26.89732012 9.74537316 46.92961214 17.9041346 62.5234375 29.32592773 C62.5234375 29.98592773 62.5234375 30.64592773 62.5234375 31.32592773 C61.32847656 31.70104492 60.13351563 32.07616211 58.90234375 32.46264648 C46.29715097 35.74666805 46.29715097 35.74666805 35.5234375 42.32592773 C35.42675781 43.27983398 35.33007812 44.23374023 35.23046875 45.21655273 C34.5234375 48.32592773 34.5234375 48.32592773 31.6015625 50.52905273 C30.33499773 51.22877979 29.05816252 51.91013055 27.7734375 52.57592773 C19.42718999 57.22366961 10.85259748 62.48697882 4.43359375 69.66186523 C2.5234375 71.32592773 2.5234375 71.32592773 0.375 71.25170898 C-0.35976562 71.04932617 -1.09453125 70.84694336 -1.8515625 70.63842773 C-4.19232673 70.14161958 -4.19232673 70.14161958 -6.4765625 70.32592773 C-8.51000701 71.95096372 -9.81487583 73.61902777 -11.28515625 75.75952148 C-11.67832031 76.27643555 -12.07148437 76.79334961 -12.4765625 77.32592773 C-13.1365625 77.32592773 -13.7965625 77.32592773 -14.4765625 77.32592773 C-14.7034375 77.84155273 -14.9303125 78.35717773 -15.1640625 78.88842773 C-16.95873868 82.22139778 -18.97621265 85.47296445 -21.4765625 88.32592773 C-22.1365625 88.32592773 -22.7965625 88.32592773 -23.4765625 88.32592773 C-40.486797 44.07318341 -40.486797 44.07318341 -40.7890625 23.13842773 C-40.80694824 22.30641846 -40.82483398 21.47440918 -40.84326172 20.6171875 C-40.83406778 14.00214844 -40.01215698 7.4431842 -35.72265625 2.16967773 C-35.12582031 1.72624023 -34.52898437 1.28280273 -33.9140625 0.82592773 C-33.31464844 0.36186523 -32.71523437 -0.10219727 -32.09765625 -0.58032227 C-23.74729269 -6.2143025 -9.01257155 -2.89076557 0 0 Z " fill="#AFB7C4" transform="translate(123.4765625,55.674072265625)"/>
<path d="M0 0 C1.08442383 0.0195575 2.16884766 0.03911499 3.28613281 0.05926514 C15.42416414 0.28520454 27.51656637 0.6599599 39.625 1.5625 C37.0815063 3.54635434 34.58933427 5.20406056 31.7109375 6.65625 C30.58268555 7.23475708 30.58268555 7.23475708 29.43164062 7.82495117 C28.62919922 8.23334229 27.82675781 8.6417334 27 9.0625 C20.91364301 12.17196207 15.1180957 15.47748598 9.41674805 19.24707031 C-1.42262597 26.35553803 -1.42262597 26.35553803 -7.3125 25.8125 C-8.10363693 25.61272049 -8.89477386 25.41294098 -9.70988464 25.20710754 C-18.91765239 22.98003826 -28.69866415 23.40249283 -38.10546875 23.39453125 C-39.50873343 23.3913058 -40.9119978 23.38794084 -42.31526184 23.38444519 C-45.24249041 23.37849789 -48.16968966 23.37660066 -51.09692383 23.37719727 C-54.80002515 23.37729852 -58.50293315 23.3636648 -62.20598888 23.34642506 C-65.10182005 23.33516264 -67.99760661 23.33328238 -70.89345741 23.33380699 C-72.90702878 23.33209374 -74.92058624 23.32134629 -76.93412781 23.31025696 C-85.0289464 23.32995018 -92.75007995 23.99920196 -100.73262024 25.23075867 C-107.18692312 25.81860485 -111.59387625 24.83966658 -116.9375 21.25 C-124.04174212 16.66875975 -131.40635051 12.67173643 -138.85961914 8.68823242 C-139.77348389 8.19685791 -140.68734863 7.7054834 -141.62890625 7.19921875 C-142.44689697 6.76311279 -143.2648877 6.32700684 -144.10766602 5.87768555 C-146.33913454 4.58330406 -148.34642857 3.15261855 -150.375 1.5625 C-137.17308005 0.57845347 -123.98367306 0.23866821 -110.75 0 C-109.06777344 -0.03126984 -109.06777344 -0.03126984 -107.3515625 -0.06317139 C-71.56467033 -0.7146989 -35.78621904 -0.6652072 0 0 Z " fill="#65DFE7" transform="translate(311.375,57.4375)"/>
<path d="M0 0 C6.80801454 4.81542492 11.32083327 10.76943825 13.5625 18.8125 C14.39295148 27.59017906 14.20950402 35.19077022 9.5625 42.8125 C8.964375 43.864375 8.36625 44.91625 7.75 46 C2.07869458 53.2916784 -5.31446681 57.99816319 -14.4375 59.8125 C-25.35559258 60.78904494 -34.02370148 58.45334092 -42.6171875 51.58203125 C-48.5193235 45.84454711 -52.02150187 39.11114732 -52.8125 30.9375 C-52.60970635 24.67475478 -49.64397761 19.85850529 -45.5 15.3125 C-34.01652392 4.58805966 -15.90424019 -5.49419207 0 0 Z " fill="#AFB7C4" transform="translate(178.4375,318.1875)"/>
<path d="M0 0 C9.42361416 5.00308243 18.56936029 11.44418552 22 22 C23.04560441 30.23413473 19.9020595 36.43549365 15.375 43.1875 C10.3945606 49.47263889 3.22345272 53.41653181 -4.65234375 54.75 C-16.15761437 55.97518689 -24.0384237 53.93223395 -33.1484375 46.69140625 C-39.86204964 40.5585074 -43.4671365 33.67072017 -44.31640625 24.6328125 C-44.64776508 14.69204767 -42.89076173 8.29395892 -36.625 0.625 C-25.87033576 -10.76496086 -12.45122237 -5.88180637 0 0 Z " fill="#AFB7C4" transform="translate(364,323)"/>
<path d="M0 0 C11.78878547 5.43657582 24.08186043 14.11673566 31.9375 24.5 C31.504375 25.2734375 31.504375 25.2734375 31.0625 26.0625 C29.78072713 28.58159309 29.78072713 28.58159309 29.29296875 31.8828125 C27.59267032 36.42020832 25.23339869 37.70897125 21.125 39.8125 C12.78459826 44.43190826 4.26243945 49.68285662 -2.15625 56.83203125 C-4.0625 58.5 -4.0625 58.5 -6.17578125 58.4609375 C-7.26439453 58.17089844 -7.26439453 58.17089844 -8.375 57.875 C-11.34835672 57.35810852 -12.56395507 57.20796912 -15.203125 58.75390625 C-16.9271235 60.26415697 -18.52847784 61.79827124 -20.0625 63.5 C-23.17596899 60.65726744 -24.00146769 58.64258165 -24.23046875 54.35546875 C-24.23691406 53.14503906 -24.24335937 51.93460938 -24.25 50.6875 C-24.26417969 49.48480469 -24.27835937 48.28210938 -24.29296875 47.04296875 C-24.0625 43.5 -24.0625 43.5 -22.98828125 40.36328125 C-21.52000253 35.82214918 -22.58177597 33.45453117 -24.69140625 29.265625 C-25.00489014 28.69585937 -25.31837402 28.12609375 -25.64135742 27.5390625 C-28.85637736 21.69154051 -31.78980428 16.29687214 -30.0625 9.5 C-24.49918673 -2.55384543 -11.58956728 -4.16179308 0 0 Z " fill="#FEFEFE" transform="translate(130.0625,68.5)"/>
<path d="M0 0 C3.00342657 2.25076063 4.95793932 4.88853489 6.62109375 8.21484375 C7.5740318 15.36187915 5.59617946 20.0824584 2.19921875 26.25292969 C0.3783794 29.56678237 -1.01311219 32.4262624 -1.37890625 36.21484375 C-0.88093937 37.80833775 -0.38191667 39.40151794 0.125 40.9921875 C1.34151766 46.44256975 1.8875635 53.15329079 -0.27734375 58.38671875 C-1.37890625 60.02734375 -1.37890625 60.02734375 -3.37890625 62.21484375 C-3.86359375 61.77011719 -4.34828125 61.32539063 -4.84765625 60.8671875 C-6.96563147 59.07912765 -8.93889451 57.53774168 -11.37890625 56.21484375 C-13.32450184 56.59758387 -15.27004904 56.98206591 -17.20703125 57.40625 C-21.54271316 57.02414854 -24.28831441 53.05415269 -27.23828125 50.12890625 C-30.59193462 46.88617138 -34.2992126 44.33080281 -38.19140625 41.77734375 C-38.81345947 41.36508545 -39.4355127 40.95282715 -40.07641602 40.52807617 C-42.92826472 38.67435541 -45.65032943 37.08935377 -48.75 35.65625 C-51.37890625 34.21484375 -51.37890625 34.21484375 -52.62890625 30.58984375 C-53.00015625 28.91921875 -53.00015625 28.91921875 -53.37890625 27.21484375 C-54.03890625 26.88484375 -54.69890625 26.55484375 -55.37890625 26.21484375 C-54.79793185 20.1361301 -51.15408969 17.74544872 -46.75 13.9140625 C-34.15764723 3.61463442 -16.51452368 -9.64777787 0 0 Z " fill="#FEFEFE" transform="translate(405.37890625,69.78515625)"/>
<path d="M0 0 C13.86 0 27.72 0 42 0 C42.45125956 29.03103184 42.45125956 29.03103184 39 41 C38.73461426 41.95205322 38.73461426 41.95205322 38.46386719 42.92333984 C35.92120751 51.89291219 33.09775187 61.60149875 25 67 C18.02843726 67.67466736 18.02843726 67.67466736 14.43359375 65.31640625 C4.10841936 55.48843127 0.48065669 36.33708576 -0.15820312 22.59765625 C-0.19525975 19.14553924 -0.17535838 15.70199976 -0.125 12.25 C-0.08375 8.2075 -0.0425 4.165 0 0 Z " fill="#90A1B4" transform="translate(235,91)"/>
<path d="M0 0 C6.11894532 -0.07306203 12.10079788 0.12367892 18.1875 0.75 C19.00323486 0.83362793 19.81896973 0.91725586 20.65942383 1.00341797 C28.0583427 1.84987686 34.93305418 3.62513729 42 6 C43.28384366 21.63436275 39.32144797 40.71830331 29.30859375 53.08984375 C26.36535965 55.99357135 24.66773521 56.92845694 20.5 57.375 C13.53485985 54.63869494 10.22054921 49.01871336 7.25 42.375 C2.04940839 28.66589949 1.09635321 14.4907582 0 0 Z " fill="#8FA0B3" transform="translate(280,91)"/>
<path d="M0 0 C-2.91879834 42.51834905 -2.91879834 42.51834905 -15.4375 54.8125 C-18.0760005 56.75513223 -19.08688352 57.00930895 -22.5 57.375 C-29.38359348 54.67073113 -32.72988669 49.12894422 -35.6875 42.5625 C-39.66394383 32.19487418 -42.2856232 21.11218477 -42.7265625 10.00390625 C-42.82538255 7.77127478 -42.82538255 7.77127478 -45 6 C-36.82363117 3.78720153 -28.63742325 2.42262976 -20.25 1.3125 C-19.28054443 1.18125732 -18.31108887 1.05001465 -17.31225586 0.91479492 C-11.49022638 0.17355626 -5.86836729 -0.12678571 0 0 Z " fill="#90A1B3" transform="translate(232,91)"/>
<path d="M0 0 C1.24696655 -0.00175232 2.49393311 -0.00350464 3.77868652 -0.00531006 C7.16484975 -0.00893105 10.55095104 -0.00811943 13.93711066 -0.00493097 C17.49809835 -0.00237871 21.0590836 -0.00475268 24.62007141 -0.00631714 C30.59388701 -0.00812981 36.5676902 -0.00575554 42.54150391 -0.00097656 C49.43130793 0.00447181 56.32108239 0.00269559 63.2108857 -0.00280297 C69.14919019 -0.00735093 75.0874858 -0.00797664 81.02579147 -0.0053643 C84.56269268 -0.00381174 88.09958003 -0.00357977 91.63648033 -0.00690079 C95.57797763 -0.01034419 99.51944215 -0.0055623 103.4609375 0 C105.20123985 -0.00303635 105.20123985 -0.00303635 106.97669983 -0.00613403 C112.75982011 0.00895804 118.31766725 0.25413751 124.03637695 1.12939453 C109.11389427 13.47023097 109.11389427 13.47023097 100.99731445 14.52392578 C98.28637695 14.25439453 98.28637695 14.25439453 95.79866028 13.71003723 C86.45661638 11.74630326 76.80494438 11.96946542 67.3059082 11.96142578 C65.90264352 11.95820033 64.49937915 11.95483537 63.09611511 11.95133972 C60.16888654 11.94539242 57.2416873 11.9434952 54.31445312 11.9440918 C50.6113518 11.94419305 46.9084438 11.93055933 43.20538807 11.91331959 C40.3095569 11.90205717 37.41377034 11.90017691 34.51791954 11.90070152 C32.50434817 11.89898827 30.49079071 11.88824082 28.47724915 11.87715149 C20.38243055 11.89684472 12.661297 12.5660965 4.67875671 13.7976532 C-2.27203999 14.43071914 -6.76924432 13.05990781 -12.58862305 9.31689453 C-13.67401367 8.62982422 -14.7594043 7.94275391 -15.87768555 7.23486328 C-18.69088924 5.31547494 -21.34058734 3.29900585 -23.96362305 1.12939453 C-15.95568867 0.24997416 -8.05215956 -0.01412271 0 0 Z " fill="#D9F9F9" transform="translate(205.963623046875,68.87060546875)"/>
<path d="M0 0 C14.78402688 2.45612184 28.92887573 13.35174279 40 23 C41.44052734 24.19882812 41.44052734 24.19882812 42.91015625 25.421875 C60.01744414 40.14713546 72.57813937 60.46410976 76 83 C76.14241424 85.72230292 76.23016717 88.40294421 76.25 91.125 C76.270625 91.84042969 76.29125 92.55585938 76.3125 93.29296875 C76.33482663 96.27915546 76.34905125 98.45361278 74.71484375 101.01171875 C71.82027558 102.67988674 69.13653052 101.65097803 66 101 C64.37121441 97.45202519 63.84727447 95.00108238 64.125 91.125 C64.42646128 70.70784994 52.17884788 52.14039706 38.5 38 C26.09829052 25.66089482 10.11349572 15.67675074 -6 9 C-4.47291037 5.56404834 -2.40072955 2.88087546 0 0 Z " fill="#01D3D6" transform="translate(390,369)"/>
<path d="M0 0 C2.01755238 1.82110649 3.3738889 3.78668211 5 6 C5 6.66 5 7.32 5 8 C4.00742188 8.47308594 3.01484375 8.94617188 1.9921875 9.43359375 C-25.64796869 22.80322191 -51.216414 41.79840547 -61.8828125 71.63671875 C-64.37910858 79.15179191 -65.20759768 85.34961798 -64.875 93.30078125 C-65.00714588 96.15430645 -65.3456063 97.68065706 -67 100 C-70.4375 100.9375 -70.4375 100.9375 -74 101 C-75.6953125 99.953125 -75.6953125 99.953125 -77 98 C-79.62140528 78.46934988 -72.0185277 58.23312468 -60.625 42.625 C-59.10986952 40.72849249 -57.56808937 38.85295894 -56 37 C-55.2059375 36.05511719 -54.411875 35.11023438 -53.59375 34.13671875 C-47.94061403 27.66960276 -41.82837711 22.1959371 -35 17 C-34.28070313 16.43023437 -33.56140625 15.86046875 -32.8203125 15.2734375 C-26.96452866 10.87638985 -20.56446592 7.45279381 -14.125 4 C-13.1963916 3.4942041 -12.2677832 2.9884082 -11.31103516 2.46728516 C-10.42722168 2.00370605 -9.5434082 1.54012695 -8.6328125 1.0625 C-7.83762207 0.64097656 -7.04243164 0.21945312 -6.22314453 -0.21484375 C-3.64741616 -1.12452335 -2.51212215 -0.99280863 0 0 Z " fill="#01D3D6" transform="translate(123,370)"/>
<path d="M0 0 C1.01513672 -0.020625 2.03027344 -0.04125 3.07617188 -0.0625 C4.05005859 -0.06765625 5.02394531 -0.0728125 6.02734375 -0.078125 C6.9205835 -0.0874707 7.81382324 -0.09681641 8.73413086 -0.10644531 C11.52664249 0.32105463 12.40094787 1.0014847 14.0625 3.25 C14.4959014 6.13934264 14.48775784 7.60092224 12.875 10.0625 C10.51035444 11.61175054 8.83716419 11.33628252 6.0625 11.25 C6.81121944 18.26864768 6.81121944 18.26864768 10.6875 23.9375 C15.90545444 25.9667045 19.76555379 25.01564874 25.0625 23.25 C25.371875 22.321875 25.68125 21.39375 26 20.4375 C27.16909688 16.93020937 28.03007852 15.35584825 31.0625 13.25 C36.375 13.5625 36.375 13.5625 38.0625 15.25 C38.62867343 20.9117343 37.51170805 24.78631899 34.0625 29.25 C29.0087528 34.1914417 23.7716457 37.3191162 16.625 37.6875 C11.73933305 37.52936087 8.21255595 35.68153058 4.0625 33.25 C1.57936936 31.65311361 1.57936936 31.65311361 -0.9375 31.25 C-4.01428035 32.96760829 -4.01428035 32.96760829 -6.9375 35.25 C-12.12075077 38.05175717 -17.64797033 38.11913994 -23.2734375 36.6328125 C-29.31299505 34.30356334 -33.28026535 30.55081332 -36.9375 25.25 C-38.118433 21.707201 -38.20778374 18.96640139 -37.9375 15.25 C-34.9375 13.25 -34.9375 13.25 -32 13.1875 C-28.64926067 14.3500014 -28.26595825 14.77767807 -26.5625 17.6875 C-24.9375 21.25 -24.9375 21.25 -24.9375 23.25 C-21.09927822 25.05622201 -18.17384378 25.76873597 -13.9375 25.25 C-10.52939711 24.03421903 -10.52939711 24.03421903 -7.9375 21.25 C-6.8531554 17.95565782 -6.3184252 14.69146219 -5.9375 11.25 C-6.72382813 11.27191406 -7.51015625 11.29382813 -8.3203125 11.31640625 C-10.9375 11.25 -10.9375 11.25 -12.8125 10.1875 C-14.61686761 7.07997801 -13.74927938 4.62200667 -12.9375 1.25 C-9.05869395 -0.68940303 -4.26635864 0.02158815 0 0 Z " fill="#69828E" transform="translate(255.9375,207.75)"/>
<path d="M0 0 C1.17887787 -0.00233643 2.35775574 -0.00467285 3.57235718 -0.00708008 C20.71358898 -0.01992903 37.42635301 0.49891527 54.375 3.25 C54.87 8.695 54.87 8.695 55.375 14.25 C52.79154437 14.10613458 50.20825309 13.95992586 47.625 13.8125 C46.91472656 13.77318359 46.20445312 13.73386719 45.47265625 13.69335938 C42.2763066 13.50949855 39.08925573 13.322745 35.90356445 12.99829102 C25.31171937 11.93710427 14.69587033 12.05485956 4.0625 12.0625 C3.03709106 12.0617749 2.01168213 12.0610498 0.9552002 12.06030273 C-12.19011491 12.06133192 -25.16560942 12.27523973 -38.234375 13.8125 C-43.04301499 14.37154261 -47.7874834 14.31837479 -52.625 14.25 C-52.295 10.62 -51.965 6.99 -51.625 3.25 C-49.73031665 2.93060166 -47.83415006 2.62000421 -45.9375 2.3125 C-44.88175781 2.13847656 -43.82601562 1.96445312 -42.73828125 1.78515625 C-28.56175991 -0.17780212 -14.28151219 0.0128472 0 0 Z " fill="#03D2D5" transform="translate(254.625,341.75)"/>
<path d="M0 0 C1.11181641 -0.02416992 1.11181641 -0.02416992 2.24609375 -0.04882812 C5.48873932 -0.05173894 7.85597509 0.10251807 10.7421875 1.640625 C12.25 3.3125 12.25 3.3125 12.625 6.375 C12.25 9.3125 12.25 9.3125 10.25 11.3125 C7.44115827 11.51946729 4.68690094 11.6316212 1.875 11.6875 C-11.17755608 12.18996967 -22.15252465 16.15429871 -32.5 24.1875 C-35.75 26.3125 -35.75 26.3125 -38.5625 26.3125 C-40.75 25.3125 -40.75 25.3125 -42.75 22.3125 C-42.73828125 19.41015625 -42.73828125 19.41015625 -41.75 16.3125 C-30.7108179 5.8894583 -15.0695264 -0.06691619 0 0 Z " fill="#625E60" transform="translate(202.75,201.6875)"/>
<path d="M0 0 C0.74983154 0.00572021 1.49966309 0.01144043 2.2722168 0.01733398 C16.8487193 0.46881185 31.16455438 5.94888076 42.1875 15.5625 C44.375 18.5 44.375 18.5 44.4375 21.75 C43.375 24.5 43.375 24.5 40.375 26.5 C36.63012284 26.5 34.57096595 24.98831245 31.75 22.75 C21.58399063 14.75555785 10.2214135 12.27478366 -2.39257812 11.93359375 C-8.42235525 11.70264475 -8.42235525 11.70264475 -10.625 9.5 C-11.17086343 4.36888374 -11.17086343 4.36888374 -9.58203125 1.83984375 C-6.5801656 -0.21532575 -3.51568488 -0.03109832 0 0 Z " fill="#625E5F" transform="translate(307.625,201.5)"/>
<path d="M0 0 C1.14825256 -0.00430527 1.14825256 -0.00430527 2.31970215 -0.00869751 C3.93693787 -0.0107375 5.5541983 -0.00521213 7.17138672 0.00732422 C9.64737091 0.02337992 12.12172285 0.00747453 14.59765625 -0.01171875 C16.16927444 -0.00973631 17.74089161 -0.0058926 19.3125 0 C20.05318726 -0.00607269 20.79387451 -0.01214539 21.55700684 -0.0184021 C26.64311697 0.05122087 26.64311697 0.05122087 29.12695312 1.73193359 C30.72481644 4.31898648 30.47110659 6.43878555 30.15625 9.3984375 C27.581925 11.9727625 25.84912354 11.64619496 22.33972168 11.67633057 C21.54698853 11.6722821 20.75425537 11.66823364 19.9375 11.6640625 C18.71697937 11.66693268 18.71697937 11.66693268 17.47180176 11.66986084 C15.750241 11.67122277 14.02866997 11.66752578 12.30712891 11.65917969 C9.6667583 11.64848008 7.02706811 11.6590745 4.38671875 11.671875 C2.71614433 11.67055341 1.04557033 11.66799102 -0.625 11.6640625 C-1.81409973 11.67013519 -1.81409973 11.67013519 -3.02722168 11.67633057 C-8.61382973 11.62835777 -8.61382973 11.62835777 -10.84375 9.3984375 C-11.38826055 4.28003831 -11.38826055 4.28003831 -9.81445312 1.73193359 C-6.75658923 -0.33720077 -3.56692755 -0.02924427 0 0 Z " fill="#91A1B4" transform="translate(354.84375,244.6015625)"/>
<path d="M0 0 C1.14825256 -0.00430527 1.14825256 -0.00430527 2.31970215 -0.00869751 C3.93693787 -0.0107375 5.5541983 -0.00521213 7.17138672 0.00732422 C9.64737091 0.02337992 12.12172285 0.00747453 14.59765625 -0.01171875 C16.16927444 -0.00973631 17.74089161 -0.0058926 19.3125 0 C20.05318726 -0.00607269 20.79387451 -0.01214539 21.55700684 -0.0184021 C26.64311697 0.05122087 26.64311697 0.05122087 29.12695312 1.73193359 C30.72481644 4.31898648 30.47110659 6.43878555 30.15625 9.3984375 C27.581925 11.9727625 25.84912354 11.64619496 22.33972168 11.67633057 C21.54698853 11.6722821 20.75425537 11.66823364 19.9375 11.6640625 C18.71697937 11.66693268 18.71697937 11.66693268 17.47180176 11.66986084 C15.750241 11.67122277 14.02866997 11.66752578 12.30712891 11.65917969 C9.6667583 11.64848008 7.02706811 11.6590745 4.38671875 11.671875 C2.71614433 11.67055341 1.04557033 11.66799102 -0.625 11.6640625 C-1.81409973 11.67013519 -1.81409973 11.67013519 -3.02722168 11.67633057 C-8.61382973 11.62835777 -8.61382973 11.62835777 -10.84375 9.3984375 C-11.38826055 4.28003831 -11.38826055 4.28003831 -9.81445312 1.73193359 C-6.75658923 -0.33720077 -3.56692755 -0.02924427 0 0 Z " fill="#91A1B4" transform="translate(137.84375,244.6015625)"/>
<path d="M0 0 C4.12138372 1.29611293 8.14521659 2.85161114 12.1875 4.375 C13.27998047 4.77460938 14.37246094 5.17421875 15.49804688 5.5859375 C16.54412109 5.9778125 17.59019531 6.3696875 18.66796875 6.7734375 C20.09532349 7.30590088 20.09532349 7.30590088 21.55151367 7.84912109 C23.97401613 8.98778662 25.40348326 9.86166981 27 12 C26.875 15.0625 26.875 15.0625 26 18 C23 20 23 20 20.17285156 19.74975586 C17.08266363 19.0195337 14.2077715 18.11456902 11.234375 17.00390625 C10.17992187 16.61009766 9.12546875 16.21628906 8.0390625 15.81054688 C6.95367187 15.39869141 5.86828125 14.98683594 4.75 14.5625 C3.09871094 13.95051758 3.09871094 13.95051758 1.4140625 13.32617188 C0.36476563 12.93107422 -0.68453125 12.53597656 -1.765625 12.12890625 C-2.72243164 11.76869385 -3.67923828 11.40848145 -4.66503906 11.03735352 C-7 10 -7 10 -9 8 C-9.33302312 4.8695827 -9.47671956 2.82101702 -7.875 0.0625 C-5.05713099 -1.53429244 -3.11548095 -0.66228906 0 0 Z " fill="#90A1B4" transform="translate(353,266)"/>
<path d="M0 0 C2 2 2 2 2.4375 4.9375 C2.293125 5.948125 2.14875 6.95875 2 8 C-3.126999 11.64081246 -9.16133118 13.54133888 -15 15.75 C-16.08023438 16.17410156 -17.16046875 16.59820312 -18.2734375 17.03515625 C-19.31757813 17.43089844 -20.36171875 17.82664062 -21.4375 18.234375 C-22.38496094 18.59756836 -23.33242187 18.96076172 -24.30859375 19.33496094 C-27.34039985 20.08411186 -29.06087167 20.02970319 -32 19 C-34 16 -34 16 -33.875 13.5 C-32.78891684 10.39690527 -31.73019492 9.77563227 -29 8 C-25.10230107 6.21190893 -21.07627885 4.75665233 -17.0625 3.25 C-15.97775391 2.82589844 -14.89300781 2.40179688 -13.77539062 1.96484375 C-12.72673828 1.56910156 -11.67808594 1.17335938 -10.59765625 0.765625 C-9.64383057 0.40243164 -8.69000488 0.03923828 -7.70727539 -0.33496094 C-4.68554281 -1.07724604 -2.94448446 -0.95168872 0 0 Z " fill="#90A1B4" transform="translate(166,266)"/>
<path d="M0 0 C0.92425781 -0.00386719 1.84851563 -0.00773438 2.80078125 -0.01171875 C4.24517578 0.00568359 4.24517578 0.00568359 5.71875 0.0234375 C6.68167969 0.01183594 7.64460938 0.00023437 8.63671875 -0.01171875 C9.56097656 -0.00785156 10.48523438 -0.00398437 11.4375 0 C12.28248047 0.00338379 13.12746094 0.00676758 13.99804688 0.01025391 C16.21875 0.3984375 16.21875 0.3984375 18.02929688 1.69677734 C19.21875 3.3984375 19.21875 3.3984375 19.03125 7.0234375 C18.763125 8.1371875 18.495 9.2509375 18.21875 10.3984375 C14.45720432 12.27921034 9.92051726 11.62646395 5.78125 11.6484375 C4.33008789 11.679375 4.33008789 11.679375 2.84960938 11.7109375 C1.45645508 11.71867188 1.45645508 11.71867188 0.03515625 11.7265625 C-1.24186157 11.74058105 -1.24186157 11.74058105 -2.54467773 11.75488281 C-5.27320895 11.32003339 -6.14433698 10.58883439 -7.78125 8.3984375 C-8.15625 5.8984375 -8.15625 5.8984375 -7.78125 3.3984375 C-5.47827673 0.33056122 -3.75063738 0.01501971 0 0 Z " fill="#FDFDFD" transform="translate(303.78125,172.6015625)"/>
<path d="M0 0 C1.45116211 -0.0309375 1.45116211 -0.0309375 2.93164062 -0.0625 C4.32479492 -0.07023438 4.32479492 -0.07023438 5.74609375 -0.078125 C7.02311157 -0.09214355 7.02311157 -0.09214355 8.32592773 -0.10644531 C11.05445895 0.32840411 11.92558698 1.05960311 13.5625 3.25 C13.9375 5.75 13.9375 5.75 13.5625 8.25 C11.93242438 10.42148431 11.04289886 11.16602526 8.34179688 11.63818359 C7.07432617 11.64325928 7.07432617 11.64325928 5.78125 11.6484375 C4.85699219 11.65230469 3.93273437 11.65617188 2.98046875 11.66015625 C2.01753906 11.64855469 1.05460938 11.63695312 0.0625 11.625 C-1.38189453 11.64240234 -1.38189453 11.64240234 -2.85546875 11.66015625 C-3.77972656 11.65628906 -4.70398438 11.65242187 -5.65625 11.6484375 C-6.50123047 11.64505371 -7.34621094 11.64166992 -8.21679688 11.63818359 C-10.4375 11.25 -10.4375 11.25 -12.24804688 9.95166016 C-13.4375 8.25 -13.4375 8.25 -13.25 4.625 C-12.981875 3.51125 -12.71375 2.3975 -12.4375 1.25 C-8.67595432 -0.63077284 -4.13926726 0.02197355 0 0 Z " fill="#FDFDFD" transform="translate(202.4375,172.75)"/>
</svg>
