<?xml version="1.0" encoding="UTF-8"?>
<svg version="1.1" xmlns="http://www.w3.org/2000/svg" width="512" height="512">
<path d="M0 0 C1.11882568 0.00749268 1.11882568 0.00749268 2.26025391 0.01513672 C9.50847759 0.23994793 15.44961416 2.28589624 21.9375 5.5 C22.84628906 5.93441406 23.75507813 6.36882813 24.69140625 6.81640625 C40.96370255 15.13019955 55.03453586 27.6107803 68.3046875 39.98486328 C70.04829826 41.6028131 71.80436857 43.20644061 73.5625 44.80859375 C84.73687582 55.02681012 84.73687582 55.02681012 89.5078125 60.81640625 C92.84934251 64.75137738 94.90493095 66.91332381 100.14453125 67.703125 C101.1902832 67.87440918 102.23603516 68.04569336 103.31347656 68.22216797 C104.4475293 68.39635254 105.58158203 68.57053711 106.75 68.75 C134.03501416 73.37652494 162.67417209 80.00744268 187.91918945 91.45532227 C197.3706367 95.4849557 206.69027893 91.68358949 216.1875 89.1875 C287.45883234 70.96233566 287.45883234 70.96233566 312.234375 85.2890625 C318.92147651 90.04365302 323.13014075 95.39877797 324.9375 103.5 C327.95111977 129.71280596 312.84050162 154.37943211 297.54199219 174.49267578 C295.83882257 176.62345189 294.06443782 178.67119899 292.2578125 180.71484375 C285.86886264 187.4303617 285.86886264 187.4303617 282.30859375 195.69921875 C282.55649945 198.49483226 283.11815216 200.8226361 283.9375 203.5 C290.29452606 241.45595512 280.21478475 279.09284792 263.8125 313.125 C263.25127441 314.2910376 262.69004883 315.4570752 262.11181641 316.65844727 C248.82801032 343.35523433 227.98601035 363.75907462 199.9375 374.5 C191.80144021 377.22010948 183.36576221 378.95943328 174.9375 380.5 C175.07824951 381.52270996 175.21899902 382.54541992 175.36401367 383.59912109 C176.74906149 394.14188173 177.3033882 404.49717967 177.25 415.125 C177.24676727 416.29571548 177.24676727 416.29571548 177.24346924 417.49008179 C177.11643865 446.33153152 174.27393676 482.65111607 152.9375 504.5 C146.25277322 510.40356139 140.71489107 512.89484042 131.6875 512.875 C130.93114258 512.87338867 130.17478516 512.87177734 129.39550781 512.87011719 C123.51122014 512.74104249 118.93108002 511.75717606 113.9375 508.5 C113.03 507.943125 112.1225 507.38625 111.1875 506.8125 C100.15819457 495.47682497 99.73713633 479.07967164 99.8359375 464.2265625 C100.00646149 457.96964371 100.44811663 451.73963803 100.9375 445.5 C99.019375 445.933125 99.019375 445.933125 97.0625 446.375 C89.10405561 447.98508991 81.00690705 448.67372085 72.9375 449.5 C72.76210693 450.07331055 72.58671387 450.64662109 72.40600586 451.23730469 C61.96687753 484.959037 61.96687753 484.959037 47.25 493.4375 C40.47098138 496.98956127 33.49675175 497.63518582 26.05078125 495.78125 C17.8095887 492.99296111 12.15146907 489.3660756 7.9375 481.5 C4.16075147 471.08370067 2.7771121 461.57865314 2.875 450.5625 C2.87951172 449.59248047 2.88402344 448.62246094 2.88867188 447.62304688 C2.9003685 445.2486324 2.91675914 442.87434979 2.9375 440.5 C1.71933594 440.41363281 0.50117188 440.32726562 -0.75390625 440.23828125 C-7.07156854 439.53274924 -12.96025078 437.60339051 -19 435.6875 C-20.11568359 435.34396484 -21.23136719 435.00042969 -22.38085938 434.64648438 C-28.39082354 432.76991091 -34.15239728 430.73198294 -39.84594727 428.0324707 C-42.81923734 427.318213 -44.32352888 428.27085042 -47.0625 429.5 C-52.48803191 429.07446809 -52.48803191 429.07446809 -55.0625 426.5 C-59.27915313 397.08148981 -46.1922446 358.88817383 -30.0625 334.5 C-28.46019383 332.42943997 -26.7898696 330.47023352 -25.0625 328.5 C-25.80113281 327.96632813 -26.53976563 327.43265625 -27.30078125 326.8828125 C-52.77593539 308.17297884 -69.64221116 284.30023269 -74.66552734 252.72827148 C-75.34108396 247.23449219 -75.40192419 241.77960467 -75.375 236.25 C-75.37008545 235.03417236 -75.3651709 233.81834473 -75.36010742 232.56567383 C-74.83340331 191.08569911 -63.96773217 147.25021196 -36.0625 115.5 C-35.43472656 114.99339844 -34.80695313 114.48679687 -34.16015625 113.96484375 C-32.05131595 112.1716122 -31.08203345 111.10260649 -30.0625 108.5 C-29.87070841 103.22641128 -30.85406292 98.01354656 -31.69677734 92.8269043 C-33.18575008 83.35334014 -33.28040955 73.90320657 -33.30273438 64.33422852 C-33.31241245 61.83510691 -33.34350813 59.33681939 -33.375 56.83789062 C-33.49062067 39.20726623 -31.50422722 20.98322927 -19.0625 7.5 C-13.33505319 2.19163467 -7.80273972 -0.06908215 0 0 Z " fill="#B0B8C5" transform="translate(131.0625,-0.5)"/>
<path d="M0 0 C1.11882568 0.00749268 1.11882568 0.00749268 2.26025391 0.01513672 C9.50847759 0.23994793 15.44961416 2.28589624 21.9375 5.5 C22.84628906 5.93441406 23.75507813 6.36882813 24.69140625 6.81640625 C40.96370255 15.13019955 55.03453586 27.6107803 68.3046875 39.98486328 C70.04829826 41.6028131 71.80436857 43.20644061 73.5625 44.80859375 C84.73687582 55.02681012 84.73687582 55.02681012 89.5078125 60.81640625 C92.84934251 64.75137738 94.90493095 66.91332381 100.14453125 67.703125 C101.1902832 67.87440918 102.23603516 68.04569336 103.31347656 68.22216797 C104.4475293 68.39635254 105.58158203 68.57053711 106.75 68.75 C134.03501416 73.37652494 162.67417209 80.00744268 187.91918945 91.45532227 C197.3706367 95.4849557 206.69027893 91.68358949 216.1875 89.1875 C287.45883234 70.96233566 287.45883234 70.96233566 312.234375 85.2890625 C318.92147651 90.04365302 323.13014075 95.39877797 324.9375 103.5 C327.95111977 129.71280596 312.84050162 154.37943211 297.54199219 174.49267578 C295.83882257 176.62345189 294.06443782 178.67119899 292.2578125 180.71484375 C285.86886264 187.4303617 285.86886264 187.4303617 282.30859375 195.69921875 C282.55649945 198.49483226 283.11815216 200.8226361 283.9375 203.5 C290.29452606 241.45595512 280.21478475 279.09284792 263.8125 313.125 C263.25127441 314.2910376 262.69004883 315.4570752 262.11181641 316.65844727 C248.82801032 343.35523433 227.98601035 363.75907462 199.9375 374.5 C191.80144021 377.22010948 183.36576221 378.95943328 174.9375 380.5 C175.07824951 381.52270996 175.21899902 382.54541992 175.36401367 383.59912109 C176.74906149 394.14188173 177.3033882 404.49717967 177.25 415.125 C177.24676727 416.29571548 177.24676727 416.29571548 177.24346924 417.49008179 C177.11643865 446.33153152 174.27393676 482.65111607 152.9375 504.5 C146.25277322 510.40356139 140.71489107 512.89484042 131.6875 512.875 C130.93114258 512.87338867 130.17478516 512.87177734 129.39550781 512.87011719 C123.51122014 512.74104249 118.93108002 511.75717606 113.9375 508.5 C113.03 507.943125 112.1225 507.38625 111.1875 506.8125 C100.19939333 495.51916815 99.71359097 479.153149 99.84204102 464.34423828 C99.93202825 460.72035347 100.15376653 457.13735356 100.4296875 453.5234375 C100.97113853 445.63788858 101.15600619 437.77994748 101.1875 429.875 C101.208125 428.57304687 101.22875 427.27109375 101.25 425.9296875 C101.28029986 418.35472327 100.58926024 411.68009782 98.48730469 404.38916016 C97.85406121 401.06153879 98.02031717 398.75513377 98.9375 395.5 C101.9375 393.5 101.9375 393.5 104.4375 393.625 C107.53437666 394.70890683 108.19109321 395.76062422 109.9375 398.5 C113.20831048 406.96918386 113.31645241 415.66197342 113.16299438 424.61201859 C113.12401966 426.90934795 113.10498944 429.20614604 113.09057617 431.50375366 C113.05663039 436.37774415 112.99889541 441.25128807 112.9375 446.125 C112.86627651 451.78782606 112.80526727 457.45039569 112.76968384 463.11356735 C112.75046838 465.35932166 112.71296869 467.60426674 112.67456055 469.84976196 C112.5656759 479.91418184 113.13126015 489.52697618 119.9375 497.5 C124.76181022 500.86579782 129.25123634 501.18833718 134.9375 500.5 C141.88786704 498.67095604 145.93321406 494.36454476 149.9375 488.5 C162.22095763 466.25631414 165.13866192 439.81551672 165.125 414.8125 C165.1259668 412.9706311 165.1259668 412.9706311 165.12695312 411.09155273 C165.08059378 403.10562899 164.62122567 395.38801448 163.375 387.50390625 C162.97830146 384.78014573 162.85537046 382.24620647 162.9375 379.5 C162.08929688 379.52320313 161.24109375 379.54640625 160.3671875 379.5703125 C138.12101749 379.91256127 138.12101749 379.91256127 133.06640625 376.08203125 C131.4211738 373.77642868 131.523302 372.26132001 131.9375 369.5 C133.57884202 367.30457437 134.4298189 366.57455457 137.171875 366.171875 C138.00203125 366.19765625 138.8321875 366.2234375 139.6875 366.25 C140.50734375 366.26546875 141.3271875 366.2809375 142.171875 366.296875 C144.9375 366.5 144.9375 366.5 148.0625 366.9921875 C174.5056703 370.45752232 200.75656758 364.25633001 222.1953125 348.09765625 C251.97716527 324.66333341 267.27231247 281.32692324 272.56030273 244.86254883 C273.18421663 239.30062899 273.27705574 233.77996155 273.25 228.1875 C273.24480347 226.42200806 273.24480347 226.42200806 273.23950195 224.62084961 C273.12657979 215.54777244 272.13883975 207.29507238 269.9375 198.5 C269.74414062 197.51128906 269.55078125 196.52257812 269.3515625 195.50390625 C267.23568353 185.37791404 262.74010791 175.4959446 257.80688477 166.41992188 C256.60804027 163.77243152 257.07710376 162.2245881 257.9375 159.5 C259.9375 157.5 259.9375 157.5 263.29296875 157.390625 C267.14761493 158.56395781 267.47347398 158.67369739 269.30078125 161.921875 C269.97750188 163.35212604 270.62655999 164.79573337 271.25 166.25 C271.58322266 166.96671875 271.91644531 167.6834375 272.25976562 168.421875 C273.93817025 172.06679363 275.48652606 175.75840224 276.9375 179.5 C288.39276522 168.74477876 296.81821565 154.38904311 303.9375 140.5 C304.52402344 139.35660156 305.11054688 138.21320313 305.71484375 137.03515625 C310.45405853 127.29021827 315.55839297 115.25191046 312.28125 104.30859375 C310.44289955 100.00590284 308.30085111 97.32019227 303.95214844 95.23144531 C283.97755297 87.97939877 258.14158925 92.09227644 237.9375 96.5 C236.95233398 96.71382324 235.96716797 96.92764648 234.95214844 97.14794922 C223.21319185 99.56319439 223.21319185 99.56319439 211.9375 103.5 C212.62525513 103.96841309 212.62525513 103.96841309 213.3269043 104.44628906 C215.42768494 105.87879614 217.52635165 107.3143711 219.625 108.75 C220.34623047 109.24113281 221.06746094 109.73226562 221.81054688 110.23828125 C232.71491 117.70702311 232.71491 117.70702311 233.9375 122.0625 C233.9375 125.5 233.9375 125.5 232.875 127.5 C229.92366732 129.02326848 228.11318321 128.32445622 224.9375 127.5 C222.03515625 125.53125 222.03515625 125.53125 219 123 C206.72484844 113.17351399 193.85234093 106.84993967 179.16015625 101.34619141 C177.32160956 100.64623503 175.50163983 99.89769808 173.6875 99.13671875 C163.1673608 94.74856286 152.05689635 92.17974427 141.04785156 89.32128906 C138.3833532 88.61772764 135.73338213 87.88180464 133.0859375 87.1171875 C108.92434506 80.21349561 83.00144838 75.56407846 57.9375 79.5 C55.19809589 79.69470145 52.69821607 79.64037539 49.9375 79.5 C47.9375 77.5 47.9375 77.5 47.625 74 C47.728125 72.845 47.83125 71.69 47.9375 70.5 C51.26052018 68.28465322 53.00054935 68.06884348 56.91796875 67.6484375 C58.08134766 67.51953125 59.24472656 67.390625 60.44335938 67.2578125 C61.65830078 67.13148437 62.87324219 67.00515625 64.125 66.875 C65.35154297 66.7409375 66.57808594 66.606875 67.84179688 66.46875 C70.87298419 66.13850391 73.90478964 65.81590073 76.9375 65.5 C64.26360204 52.39024995 64.26360204 52.39024995 50.48046875 40.4921875 C48.69143704 39.09064192 46.94694301 37.63129155 45.23828125 36.1328125 C32.83467422 25.26908029 14.48235404 10.99201164 -2.9140625 12.08984375 C-7.89924058 13.04155956 -10.818109 15.83349557 -13.6875 19.8125 C-17.19522916 25.80958534 -18.52953255 32.78951015 -20.0625 39.5 C-20.24047119 40.2645752 -20.41844238 41.02915039 -20.60180664 41.81689453 C-21.5555156 47.3713521 -21.25274986 53.06678651 -21.25 58.6875 C-21.25108765 59.69369385 -21.25108765 59.69369385 -21.25219727 60.72021484 C-21.25105764 70.24978406 -20.83614872 79.59254316 -19.5 89.03125 C-19.09599671 92.23441895 -18.98290712 95.27648828 -19.0625 98.5 C-17.41582211 97.45966892 -15.77021339 96.41764553 -14.125 95.375 C-13.12339844 94.74335937 -12.12179688 94.11171875 -11.08984375 93.4609375 C-7.67876472 91.25143857 -4.39115962 88.8970239 -1.1328125 86.46875 C1.62448327 85.17854368 3.08816197 85.55962441 5.9375 86.5 C7.9375 88.5 7.9375 88.5 8.32421875 91.421875 C7.9375 94.5 7.9375 94.5 6.20703125 96.265625 C5.39621094 96.75546875 4.58539063 97.2453125 3.75 97.75 C-23.06300547 115.03285402 -41.31235831 138.4394186 -52.0625 168.5 C-52.41828125 169.46164063 -52.7740625 170.42328125 -53.140625 171.4140625 C-64.73935945 205.56589171 -68.82104847 246.24058699 -53.20703125 279.59375 C-49.16376042 287.74975664 -44.20136649 294.74943151 -38.0625 301.5 C-37.46179688 302.19351562 -36.86109375 302.88703125 -36.2421875 303.6015625 C-21.13218933 320.01978562 3.27474404 329.39338839 23.62036133 337.44604492 C25.9375 338.5 25.9375 338.5 27.9375 340.5 C27.36057692 347.07692308 27.36057692 347.07692308 25.9375 348.5 C20.51533834 348.9120826 16.94598757 347.97702184 12.05078125 345.69140625 C11.11434029 345.26214088 11.11434029 345.26214088 10.15898132 344.82420349 C8.18334187 343.91594579 6.21659438 342.99015708 4.25 342.0625 C2.2712612 341.14191545 0.29085338 340.22511518 -1.69111633 339.31150818 C-3.48306799 338.48352316 -5.27035674 337.6454685 -7.05737305 336.80688477 C-9.43073154 335.77474665 -11.53793961 335.00058271 -14.0625 334.5 C-23.59827808 346.69869484 -30.56034071 359.64593705 -35.0625 374.5 C-35.2697168 375.1693457 -35.47693359 375.83869141 -35.69042969 376.52832031 C-39.66431763 389.67641854 -41.29185098 402.98178384 -42.63110352 416.60473633 C-42.70521957 417.30974777 -42.77933563 418.01475922 -42.85569763 418.74113464 C-43.0588874 420.68004028 -43.24693802 422.62051505 -43.43408203 424.56103516 C-44.0625 427.5 -44.0625 427.5 -47.0625 429.5 C-52.50694444 429.05555556 -52.50694444 429.05555556 -55.0625 426.5 C-59.27915313 397.08148981 -46.1922446 358.88817383 -30.0625 334.5 C-28.46019383 332.42943997 -26.7898696 330.47023352 -25.0625 328.5 C-25.80113281 327.96632813 -26.53976563 327.43265625 -27.30078125 326.8828125 C-52.77593539 308.17297884 -69.64221116 284.30023269 -74.66552734 252.72827148 C-75.34108396 247.23449219 -75.40192419 241.77960467 -75.375 236.25 C-75.37008545 235.03417236 -75.3651709 233.81834473 -75.36010742 232.56567383 C-74.83340331 191.08569911 -63.96773217 147.25021196 -36.0625 115.5 C-35.43472656 114.99339844 -34.80695313 114.48679687 -34.16015625 113.96484375 C-32.05131595 112.1716122 -31.08203345 111.10260649 -30.0625 108.5 C-29.87070841 103.22641128 -30.85406292 98.01354656 -31.69677734 92.8269043 C-33.18575008 83.35334014 -33.28040955 73.90320657 -33.30273438 64.33422852 C-33.31241245 61.83510691 -33.34350813 59.33681939 -33.375 56.83789062 C-33.49062067 39.20726623 -31.50422722 20.98322927 -19.0625 7.5 C-13.33505319 2.19163467 -7.80273972 -0.06908215 0 0 Z " fill="#678490" transform="translate(131.0625,-0.5)"/>
<path d="M0 0 C1.80210937 0.50853516 1.80210937 0.50853516 3.640625 1.02734375 C6.75 2.0625 6.75 2.0625 9.75 4.0625 C10.14907251 7.18856798 10.21880951 9.20761207 8.6875 12 C5.62530347 13.67926907 3.05629059 12.74871125 -0.25 12.0625 C-0.58 14.7025 -0.91 17.3425 -1.25 20.0625 C-0.54359375 20.18367188 0.1628125 20.30484375 0.890625 20.4296875 C11.97652381 22.88312412 21.79243069 28.38628508 28.25 37.8125 C32.73922156 44.94537425 32.69061128 52.23478427 31.1015625 60.390625 C29.48552765 66.21940026 27.61232619 70.52609157 23.8125 75.25 C21.26117296 78.45455845 21.26117296 78.45455845 20.96875 82.33984375 C21.55172741 83.9619244 22.17149849 85.57108156 22.8203125 87.16796875 C25.57420776 95.74207123 24.62063651 106.52321123 21.15234375 114.71875 C17.80805204 120.30809548 12.93860005 124.10247418 6.75 126.0625 C-2.45054072 127.12971779 -9.49720718 126.1618513 -17.25 121.0625 C-18.61125 120.19625 -18.61125 120.19625 -20 119.3125 C-26.13200511 113.18049489 -31.38392722 104.95558209 -31.4375 96.0625 C-31.375625 95.0725 -31.31375 94.0825 -31.25 93.0625 C-32.054375 92.85625 -32.85875 92.65 -33.6875 92.4375 C-45.87987461 87.7316712 -53.67181188 78.55091779 -59.0625 66.890625 C-63.78750793 55.63764559 -63.90664061 43.1618553 -59.5078125 31.71875 C-56.02624805 24.36637788 -51.54942788 19.68886822 -44.25 16.0625 C-39.72180427 14.55310142 -35.242986 14.87807986 -30.5 14.875 C-29.52289063 14.86275391 -28.54578125 14.85050781 -27.5390625 14.83789062 C-22.03707809 14.82676802 -17.44652655 15.22629718 -12.25 17.0625 C-11.92 14.7525 -11.59 12.4425 -11.25 10.0625 C-12.24 9.52625 -13.23 8.99 -14.25 8.4375 C-17.25 6.0625 -17.25 6.0625 -17.8125 3 C-17.25 0.0625 -17.25 0.0625 -16.1875 -1.875 C-11.59907703 -4.39123195 -4.74612792 -1.36117305 0 0 Z " fill="#688490" transform="translate(254.25,225.9375)"/>
<path d="M0 0 C19.17140329 5.14051876 35.47164232 18.7919657 49.78515625 31.96875 C51.75839244 33.77841988 53.77107813 35.51839891 55.8125 37.25 C59.69981207 40.63236226 63.34985596 44.24110509 67 47.875 C67.58885986 48.45926758 68.17771973 49.04353516 68.78442383 49.64550781 C73 53.87664881 73 53.87664881 73 55 C72.19780029 55.07516846 71.39560059 55.15033691 70.5690918 55.2277832 C66.9404206 55.57558672 63.31410355 55.94378613 59.6875 56.3125 C57.79354492 56.48942383 57.79354492 56.48942383 55.86132812 56.66992188 C54.65283203 56.79560547 53.44433594 56.92128906 52.19921875 57.05078125 C51.08377686 57.16075439 49.96833496 57.27072754 48.8190918 57.3840332 C45.80518948 58.04256577 44.78098551 58.53222681 43 61 C42.67 61.99 42.34 62.98 42 64 C40.22509766 64.81201172 40.22509766 64.81201172 37.9140625 65.4296875 C37.07053223 65.66518311 36.22700195 65.90067871 35.35791016 66.14331055 C34.4560498 66.38476807 33.55418945 66.62622559 32.625 66.875 C23.74326831 69.38648914 15.624281 72.39358707 7.5625 76.9375 C5 78 5 78 2.9375 77.25 C2.298125 76.8375 1.65875 76.425 1 76 C-1.20499846 74.95797071 -1.20499846 74.95797071 -4 75 C-6.71593448 76.29877527 -9.07562118 78.03862283 -11.5 79.8125 C-19.44620111 85.48498614 -19.44620111 85.48498614 -24 87 C-24.31936576 85.25123994 -24.62997349 83.50088083 -24.9375 81.75 C-25.11152344 80.77546875 -25.28554687 79.8009375 -25.46484375 78.796875 C-28.57692539 56.71699652 -31.55656574 27.78610359 -19 8 C-13.01197959 1.26347704 -8.99991244 -1.25269052 0 0 Z " fill="#B0B8C5" transform="translate(136,11)"/>
<path d="M0 0 C1.27617187 -0.01611328 2.55234375 -0.03222656 3.8671875 -0.04882812 C13.69787532 -0.05385404 25.39251656 0.27557782 33 7.3125 C37.57309156 13.64004806 37.6617418 19.32997354 36.66796875 26.8125 C33.42047186 43.26025402 23.84099245 58.95901866 14 72.3125 C13.5555957 72.91626465 13.11119141 73.5200293 12.65332031 74.14208984 C8.70704089 79.45982142 4.79869124 84.72197117 0 89.3125 C-0.47050781 88.28769531 -0.94101562 87.26289063 -1.42578125 86.20703125 C-2.0545395 84.84628577 -2.68345404 83.4856125 -3.3125 82.125 C-3.62123047 81.45146484 -3.92996094 80.77792969 -4.24804688 80.08398438 C-5.62988937 77.10211373 -7.02777519 74.26654241 -8.73046875 71.44921875 C-10 69.3125 -10 69.3125 -10 67.3125 C-11.19496094 67.4671875 -12.38992188 67.621875 -13.62109375 67.78125 C-16.31657184 67.7765034 -17.5668327 67.66763395 -19.67236328 65.94140625 C-21.26418529 63.9645587 -22.67441919 61.9373332 -24.0625 59.8125 C-25.09683261 58.33314688 -26.13327156 56.8552641 -27.171875 55.37890625 C-27.65978516 54.67008301 -28.14769531 53.96125977 -28.65039062 53.23095703 C-31.64236188 48.97789803 -35.04263583 45.00681918 -38.9765625 41.6015625 C-43.81538158 37.34108833 -43.81538158 37.34108833 -44.4375 33.875 C-44.4375 31.64227926 -44.31552529 29.52117703 -44 27.3125 C-44.58644287 27.03398193 -45.17288574 26.75546387 -45.77709961 26.46850586 C-47.8645202 25.38295545 -49.67162691 24.20525382 -51.56640625 22.81640625 C-52.21673828 22.34009766 -52.86707031 21.86378906 -53.53710938 21.37304688 C-54.20548828 20.87869141 -54.87386719 20.38433594 -55.5625 19.875 C-56.23474609 19.38451172 -56.90699219 18.89402344 -57.59960938 18.38867188 C-60.60837019 16.17467807 -63.40387774 14.01019894 -66 11.3125 C-53.24022725 7.22663359 -40.15276335 4.76258648 -27 2.3125 C-26.03739258 2.12051025 -25.07478516 1.92852051 -24.08300781 1.73071289 C-16.03517402 0.2222489 -8.17538339 -0.02064491 0 0 Z " fill="#B0B8C5" transform="translate(408,90.6875)"/>
<path d="M0 0 C7.11300863 5.64624632 12.55116332 14.67348485 14.63671875 23.4609375 C15.56973134 32.73394018 15.56137296 42.23031764 10.63671875 50.4609375 C6.11961823 55.66644791 1.38491469 59.02616508 -5.5625 59.83203125 C-13.80030205 59.98885391 -19.45308544 59.00607585 -26.36328125 54.4609375 C-27.27078125 53.8834375 -28.17828125 53.3059375 -29.11328125 52.7109375 C-36.50719106 45.31702769 -40.49717166 37.11435632 -40.61328125 26.7109375 C-40.56231118 23.12604238 -40.39877633 19.90145342 -39.36328125 16.4609375 C-40.08773437 15.98785156 -40.8121875 15.51476562 -41.55859375 15.02734375 C-50.4192216 8.9666743 -55.73010046 2.55310637 -59.36328125 -7.5390625 C-59.36328125 -8.5290625 -59.36328125 -9.5190625 -59.36328125 -10.5390625 C-39.23549385 -17.50744131 -17.21292872 -11.20974201 0 0 Z " fill="#FC528E" transform="translate(263.36328125,292.5390625)"/>
<path d="M0 0 C7.17477958 2.30134439 12.06848515 7.10875265 15.99609375 13.43359375 C20.79744436 23.02204764 22.51344384 33.30016336 22.36254883 43.93457031 C22.35313011 45.06539787 22.35313011 45.06539787 22.34352112 46.21907043 C22.32974668 47.84502268 22.31382932 49.47095793 22.29596901 51.09687042 C22.26912587 53.67962925 22.25138335 56.2622998 22.23649597 58.84515381 C22.19395753 66.18517813 22.14634782 73.52502928 22.06567383 80.86474609 C22.01685897 85.36618074 21.98807417 89.86737614 21.97192955 94.36904144 C21.96210129 96.07373613 21.94499819 97.77840647 21.92014503 99.4829483 C21.76440117 110.40877922 22.13213934 119.66132274 28.3125 129.125 C31.84505467 132.54716233 34.80479171 133.36911473 39.6875 133.4375 C44.74969712 133.3164913 47.50458062 132.60475058 51.3125 129.0625 C62.29720297 116.77548689 65.97405031 100.77498602 69.3125 85.0625 C69.5703125 83.96679688 69.828125 82.87109375 70.09375 81.7421875 C72.41778895 70.98188715 73.01593966 60.15611524 73.49047852 49.18188477 C73.55549561 47.91916748 73.6205127 46.6564502 73.6875 45.35546875 C73.76097656 43.64653442 73.76097656 43.64653442 73.8359375 41.90307617 C74.3125 39.0625 74.3125 39.0625 75.625 37.1574707 C77.3125 36.0625 77.3125 36.0625 80.9375 36.25 C82.05125 36.518125 83.165 36.78625 84.3125 37.0625 C91.03386335 50.50522669 83.52008007 78.84471485 80.3125 93.0625 C80.10004639 94.04307373 80.10004639 94.04307373 79.88330078 95.04345703 C76.21233166 111.8487886 70.51927891 131.99834695 55.26953125 141.984375 C47.78045036 146.11009621 40.87326059 147.46971288 32.44140625 145.3359375 C24.18835286 142.58118698 18.52328584 138.92263356 14.3125 131.0625 C10.74408066 121.22077407 9.1322176 112.04869424 9.1875 101.625 C9.18943359 100.71177979 9.19136719 99.79855957 9.19335938 98.85766602 C9.23482223 92.06178818 9.49024881 85.28759205 9.8125 78.5 C10.23146301 69.43685521 10.45184548 60.38541359 10.5 51.3125 C10.51289063 50.17095459 10.52578125 49.02940918 10.5390625 47.85327148 C10.55194811 36.84332647 9.97234153 25.29019088 3.3125 16.0625 C1.28297714 14.38910096 -0.81566271 12.95607132 -3.00390625 11.5 C-4.6875 10.0625 -4.6875 10.0625 -5.875 6.375 C-5.6875 3.0625 -5.6875 3.0625 -4.625 1.0625 C-2.6875 0.0625 -2.6875 0.0625 0 0 Z " fill="#688591" transform="translate(124.6875,349.9375)"/>
<path d="M0 0 C3.69806227 2.7319732 6.76572745 6.23067364 8.82421875 10.34765625 C9.56554666 17.76093534 6.89822104 22.92972458 2.38671875 28.59765625 C-0.17578125 31.34765625 -0.17578125 31.34765625 -2.80078125 33.03515625 C-5.52640815 35.22665533 -5.52640815 35.22665533 -5.7421875 38.95703125 C-5.75914578 40.33713601 -5.75708822 41.71757544 -5.73828125 43.09765625 C-5.9020403 50.29251559 -6.62689702 55.65443941 -11.80859375 61.046875 C-12.48535156 61.69076172 -12.48535156 61.69076172 -13.17578125 62.34765625 C-16.92954277 61.09640241 -17.41651414 59.78241585 -19.17578125 56.34765625 C-19.17578125 55.68765625 -19.17578125 55.02765625 -19.17578125 54.34765625 C-20.37074219 54.50234375 -21.56570313 54.65703125 -22.796875 54.81640625 C-25.49235309 54.81165965 -26.74261395 54.7027902 -28.84814453 52.9765625 C-30.43996654 50.99971495 -31.85020044 48.97248945 -33.23828125 46.84765625 C-34.27261386 45.36830313 -35.30905281 43.89042035 -36.34765625 42.4140625 C-37.07952148 41.35082764 -37.07952148 41.35082764 -37.82617188 40.26611328 C-40.83267267 35.99240069 -44.27157474 32.06370006 -48.15234375 28.56640625 C-53.10232131 24.07001229 -53.10232131 24.07001229 -53.55078125 19.66015625 C-53.42703125 18.56703125 -53.30328125 17.47390625 -53.17578125 16.34765625 C-53.6043312 14.0372871 -53.6043312 14.0372871 -54.17578125 12.34765625 C-42.13758172 1.87166582 -14.97972004 -8.47736692 0 0 Z " fill="#FEFEFE" transform="translate(417.17578125,103.65234375)"/>
<path d="M0 0 C2.58760866 1.49659498 4.9326766 3.12312637 7.3046875 4.94140625 C8.04203125 5.48667969 8.779375 6.03195313 9.5390625 6.59375 C18.64030106 13.96833515 25.92174971 24.58960281 31.3046875 34.94140625 C31.3046875 35.93140625 31.3046875 36.92140625 31.3046875 37.94140625 C30.6859375 38.16828125 30.0671875 38.39515625 29.4296875 38.62890625 C28.7284375 39.06203125 28.0271875 39.49515625 27.3046875 39.94140625 C27.12550781 40.73160156 26.94632813 41.52179688 26.76171875 42.3359375 C25.03329693 45.42670789 24.38641287 45.53512674 21.12109375 46.56640625 C19.37453149 47.04248262 17.6228047 47.4998899 15.8671875 47.94140625 C14.04136055 48.44208857 12.21711381 48.94857079 10.39453125 49.4609375 C9.07557861 49.8314624 9.07557861 49.8314624 7.72998047 50.20947266 C1.75203147 52.0135688 -3.71313067 54.82417649 -9.1328125 57.87890625 C-11.6953125 58.94140625 -11.6953125 58.94140625 -13.7578125 58.19140625 C-14.716875 57.57265625 -14.716875 57.57265625 -15.6953125 56.94140625 C-18.05993742 55.93505379 -18.05993742 55.93505379 -20.6953125 55.94140625 C-23.87819604 57.81318741 -23.87819604 57.81318741 -26.6953125 59.94140625 C-27.3553125 59.94140625 -28.0153125 59.94140625 -28.6953125 59.94140625 C-31.06081798 56.24530394 -31.12024962 53.26160032 -30.6953125 48.94140625 C-29.13626363 44.40087732 -27.01260121 40.39742231 -24.3203125 36.44140625 C-22.09810984 31.6551236 -23.14467976 28.79049475 -24.6953125 23.94140625 C-26.36340038 18.1548669 -26.51055479 12.25841065 -24.5078125 6.56640625 C-18.87418085 -1.59264649 -9.13220495 -3.58670658 0 0 Z " fill="#FEFEFE" transform="translate(152.6953125,30.05859375)"/>
<path d="M0 0 C14.06584293 3.420847 28.03071141 7.20705672 42 11 C36.45961219 31.5715583 29.56070185 54.13438588 13 68.625 C8.82393679 70.53902897 6.582819 70.65468843 2 70 C-3.10275144 66.48477123 -4.65602033 61.81757986 -6 56 C-6.44169997 51.7212314 -6.47477523 47.48637236 -6.4375 43.1875 C-6.43282715 42.00494629 -6.4281543 40.82239258 -6.42333984 39.60400391 C-6.26096346 29.8284175 -4.90558862 20.64917186 -2.54003906 11.18261719 C-1.62178429 7.47140667 -0.81776338 3.73441609 0 0 Z " fill="#91A2B5" transform="translate(253,83)"/>
<path d="M0 0 C13.74233915 -0.63136277 26.8996417 0.08092778 40.4375 2.375 C41.44360321 2.54157608 41.44360321 2.54157608 42.47003174 2.71151733 C50.73928006 4.10038065 50.73928006 4.10038065 54 5 C55 7 55 7 54.58203125 8.76489258 C54.20111328 9.81906372 54.20111328 9.81906372 53.8125 10.89453125 C53.52955078 11.67908691 53.24660156 12.46364258 52.95507812 13.27197266 C52.63990234 14.11034668 52.32472656 14.9487207 52 15.8125 C51.67966797 16.6689209 51.35933594 17.5253418 51.02929688 18.40771484 C46.01612436 31.48758228 39.1519987 47.29850448 26 54 C22.79282898 54.87306322 21.42181246 54.67314343 18 54 C12.41073897 49.28017957 10.49327452 42.51784142 9.71264648 35.36816406 C9.59892491 32.67583697 9.58473569 30.00685346 9.625 27.3125 C9.63080078 26.36294434 9.63660156 25.41338867 9.64257812 24.43505859 C9.79126312 16.28078806 11.06236171 8.91202303 13 1 C8.71 1 4.42 1 0 1 C0 0.67 0 0.34 0 0 Z " fill="#91A2B4" transform="translate(196,77)"/>
<path d="M0 0 C4.18097157 0.58276228 7.81980107 1.54843744 11.73828125 3.109375 C12.80626953 3.53476563 13.87425781 3.96015625 14.97460938 4.3984375 C16.07611328 4.84445313 17.17761719 5.29046875 18.3125 5.75 C19.40240234 6.18054688 20.49230469 6.61109375 21.61523438 7.0546875 C28.0175444 9.62639111 34.07405182 12.46172342 40 16 C39.01 16.495 39.01 16.495 38 17 C37.79375 18.175625 37.5875 19.35125 37.375 20.5625 C34.68510962 33.65747021 25.74623048 48.83901309 15.4375 57.25 C10.94784732 59.53564137 8.9725195 59.8822212 4 59 C-1.19791676 54.49513881 -3.51566938 48.35635991 -4.27124023 41.56030273 C-4.3661756 39.01215682 -4.36437178 36.48683149 -4.3125 33.9375 C-4.3026709 33.02790527 -4.2928418 32.11831055 -4.28271484 31.18115234 C-4.08361735 20.56199921 -3.10184368 10.19177211 0 0 Z " fill="#91A2B5" transform="translate(297,96)"/>
<path d="M0 0 C0.81726563 -0.01224609 1.63453125 -0.02449219 2.4765625 -0.03710938 C16.26914016 -0.06984492 28.80316531 4.24589569 38.80859375 13.9140625 C45.41003127 21.17689168 46.2289748 28.45879242 46.1640625 38.01171875 C45.75811285 42.47167909 44.60848484 44.67301949 41.875 48.1875 C37.36646832 51.19318779 33.15442746 50.998093 27.875 50.1875 C21.67592317 47.38337901 16.8969686 43.11671557 13.7734375 37.046875 C12.39788015 32.66901421 12.82742698 28.33230195 13.04101562 23.80664062 C13.13560818 21.4688476 13.13560818 21.4688476 12.875 18.1875 C11.885 17.5275 10.895 16.8675 9.875 16.1875 C8.699375 16.455625 7.52375 16.72375 6.3125 17 C2.1828986 17.64763122 0.11370543 16.49379649 -3.3125 14.1875 C-7.52827412 10.95908746 -10.36270256 7.69925249 -13.125 3.1875 C-10.89013391 -1.28223218 -4.3512978 0.00333688 0 0 Z " fill="#FC7FA5" transform="translate(221.125,290.8125)"/>
<path d="M0 0 C4.88433338 1.3502241 6.49594916 3.57075726 9.41796875 7.53125 C12.42814064 11.90283801 12.42814064 11.90283801 16.67358398 14.79101562 C20.66151012 15.25678646 24.49826534 12.7740213 28.06640625 11.125 C32.3859154 9.24392344 35.17814041 8.71093725 39.73046875 10.03125 C40.73046875 11.03125 40.73046875 11.03125 41.10546875 14.40625 C40.73046875 18.03125 40.73046875 18.03125 38.79296875 19.71875 C37.78234375 20.151875 36.77171875 20.585 35.73046875 21.03125 C34.9828125 21.381875 34.23515625 21.7325 33.46484375 22.09375 C27.14105903 25.03125 27.14105903 25.03125 24.73046875 25.03125 C27.06360402 28.76426642 29.48737144 31.85342879 32.54296875 35.03125 C35.71358077 38.57527457 35.71358077 38.57527457 35.85546875 42.40625 C34.73046875 45.03125 34.73046875 45.03125 31.73046875 47.03125 C28.9649537 47.0641728 27.34109809 46.54767812 25.22070312 44.75439453 C23.57659669 43.08315931 22.02192583 41.3600029 20.48046875 39.59375 C19.9390625 38.99498047 19.39765625 38.39621094 18.83984375 37.77929688 C14.91259835 33.39550919 14.91259835 33.39550919 13.73046875 31.03125 C8.98621305 32.51172696 4.4586494 34.11366004 -0.01953125 36.28125 C-2.82560287 37.56430543 -4.06590912 38.03991477 -7.20703125 37.90625 C-9.26953125 37.03125 -9.26953125 37.03125 -11.26953125 35.03125 C-11.76953125 32.15625 -11.76953125 32.15625 -11.26953125 29.03125 C-6.72358356 24.84419292 -1.15297666 23.56606184 4.73046875 22.03125 C1.80606947 17.46918712 -1.43047437 13.37910755 -4.9765625 9.27734375 C-6.26953125 7.03125 -6.26953125 7.03125 -6.09375 4.37890625 C-4.78228265 0.64339972 -4.00287451 0.03825925 0 0 Z " fill="#625E5F" transform="translate(173.26953125,188.96875)"/>
<path d="M0 0 C6.99873063 2.70405501 11.54958647 10.13883989 15.75 16.0625 C19.25866431 15.33397066 22.30240839 13.96892446 25.5625 12.5 C30.29216527 10.51007986 33.66146636 9.19636661 38.75 10.0625 C40.75 11.25 40.75 11.25 41.75 13.0625 C41.8125 15.5 41.8125 15.5 40.75 18.0625 C36.27749431 21.68309985 30.61595595 25.0625 24.75 25.0625 C27.30349999 29.63785645 30.46343464 33.05390699 34.10546875 36.78125 C36.05281962 39.48256332 36.17505931 40.80371198 35.75 44.0625 C34.6875 45.9375 34.6875 45.9375 32.75 47.0625 C29.42367928 47.03451413 26.82692031 46.91891353 24.14868164 44.7890625 C22.60300736 43.13006751 21.19940872 41.41858182 19.8125 39.625 C19.31943359 39.02623047 18.82636719 38.42746094 18.31835938 37.81054688 C14.75 33.3909284 14.75 33.3909284 14.75 31.0625 C12.52040136 31.85296664 10.29131666 32.64483394 8.0625 33.4375 C6.82113281 33.87835938 5.57976562 34.31921875 4.30078125 34.7734375 C2.17931978 35.54360503 0.07069676 36.35349231 -2.00390625 37.2421875 C-5.06193737 38.35903365 -7.1506895 37.9077665 -10.25 37.0625 C-11.60439668 34.35370665 -11.31501451 32.05316732 -11.25 29.0625 C-5.91666667 26.39583333 -0.58333333 23.72916667 4.75 21.0625 C3.6671875 19.88494141 3.6671875 19.88494141 2.5625 18.68359375 C1.62409497 17.62319606 0.68664487 16.56195276 -0.25 15.5 C-0.96542969 14.72946289 -0.96542969 14.72946289 -1.6953125 13.94335938 C-4.25557534 10.99905711 -5.23384626 9.18453644 -5.75 5.28515625 C-5.585 4.22167969 -5.42 3.15820312 -5.25 2.0625 C-2.25 0.0625 -2.25 0.0625 0 0 Z " fill="#615E5F" transform="translate(311.25,229.9375)"/>
<path d="M0 0 C0.73863281 0.22598877 1.47726562 0.45197754 2.23828125 0.68481445 C3.74461273 1.14629079 5.24999557 1.61087544 6.75439453 2.07861328 C8.79832826 2.70719948 10.84761752 3.31014509 12.90234375 3.90234375 C14.06894531 4.24394531 15.23554688 4.58554687 16.4375 4.9375 C17.99984375 5.39189453 17.99984375 5.39189453 19.59375 5.85546875 C21.9375 6.75 21.9375 6.75 22.9375 8.75 C23.1875 11.75 23.1875 11.75 22.9375 14.75 C18.70487465 17.57175023 15.78671245 16.61630811 10.9375 15.75 C7.88162427 15.06830966 4.88162778 14.2466367 1.875 13.375 C1.12412109 13.16617187 0.37324219 12.95734375 -0.40039062 12.7421875 C-13.89628883 8.91621117 -13.89628883 8.91621117 -17.0625 5.75 C-16.8125 2.1875 -16.8125 2.1875 -16.0625 -1.25 C-10.86484296 -3.84882852 -5.21343306 -1.63808437 0 0 Z " fill="#91A2B5" transform="translate(341.0625,288.25)"/>
<path d="M0 0 C1.79244141 0.56557617 1.79244141 0.56557617 3.62109375 1.14257812 C6.5419362 2.06556434 9.45964879 2.99734236 12.375 3.9375 C13.0625 7.25 13.0625 7.25 13.375 10.9375 C12.15209961 12.67822266 12.15209961 12.67822266 10.375 13.9375 C4.39011974 14.42326865 -1.9891213 12.21448899 -7.6875 10.5625 C-8.43837891 10.35367188 -9.18925781 10.14484375 -9.96289062 9.9296875 C-23.45878883 6.10371117 -23.45878883 6.10371117 -26.625 2.9375 C-26.375 -0.625 -26.375 -0.625 -25.625 -4.0625 C-18.43119493 -7.65940253 -6.99784638 -2.25850226 0 0 Z " fill="#91A2B5" transform="translate(143.625,234.0625)"/>
<path d="M0 0 C1.44968434 2.47299093 1.48567323 3.99134512 1.0625 6.8125 C-0.48828488 8.79785375 -1.46970473 9.68903885 -3.92358398 10.33666992 C-5.04228882 10.43878784 -5.04228882 10.43878784 -6.18359375 10.54296875 C-7.43197021 10.66430176 -7.43197021 10.66430176 -8.70556641 10.78808594 C-9.58647949 10.85801758 -10.46739258 10.92794922 -11.375 11 C-12.27138184 11.07895508 -13.16776367 11.15791016 -14.09130859 11.23925781 C-28.76732243 12.46115696 -28.76732243 12.46115696 -33.9375 11.8125 C-35.9375 9.8125 -35.9375 9.8125 -36.25 6.3125 C-36.146875 5.1575 -36.04375 4.0025 -35.9375 2.8125 C-30.55005208 -0.77913195 -23.76839322 -0.40457559 -17.4375 -0.75 C-16.71691406 -0.79318359 -15.99632812 -0.83636719 -15.25390625 -0.88085938 C-2.61209664 -1.60096245 -2.61209664 -1.60096245 0 0 Z " fill="#91A2B5" transform="translate(150.9375,257.1875)"/>
<path d="M0 0 C5.14094142 0.76529923 8.37329205 3.59070326 12.4375 6.69921875 C13.21867187 7.27736328 13.99984375 7.85550781 14.8046875 8.45117188 C17.035886 10.11330207 19.24035852 11.80491871 21.4375 13.51171875 C22.05818359 13.98343506 22.67886719 14.45515137 23.31835938 14.94116211 C27.37789572 18.13174149 27.37789572 18.13174149 27.9375 21.69921875 C27.4375 24.51171875 27.4375 24.51171875 25.4375 26.51171875 C22.27017044 27.14421901 20.20117992 26.93285521 17.359375 25.36572266 C14.99301107 23.75384408 12.71169052 22.06363675 10.4375 20.32421875 C9.65632813 19.74607422 8.87515625 19.16792969 8.0703125 18.57226562 C5.839114 16.91013543 3.63464148 15.21851879 1.4375 13.51171875 C0.50647461 12.80414429 0.50647461 12.80414429 -0.44335938 12.08227539 C-4.50289572 8.89169601 -4.50289572 8.89169601 -5.0625 5.32421875 C-4.41290731 1.67025985 -3.65667545 0.73022025 0 0 Z " fill="#91A2B5" transform="translate(323.5625,304.48828125)"/>
<path d="M0 0 C5.91549422 0.18235186 9.59658739 2.2006921 14.3125 5.4375 C14.93189453 5.84548828 15.55128906 6.25347656 16.18945312 6.67382812 C18.6522581 8.31302405 20.90363277 9.90363277 23 12 C23.35877543 14.79844834 23.33812547 16.403308 21.9375 18.875 C18.78739188 20.70409504 16.48814021 19.77357948 13 19 C10.18012055 17.69926747 7.64461798 16.09303336 5.0625 14.375 C4.37865234 13.96121094 3.69480469 13.54742187 2.99023438 13.12109375 C1.0717851 11.86001521 -0.48979123 10.73064824 -2 9 C-2.56640625 5.2890625 -2.56640625 5.2890625 -2 2 C-1.34 1.34 -0.68 0.68 0 0 Z " fill="#FCFCFC" transform="translate(311,184)"/>
<path d="M0 0 C0.87140625 -0.00386719 1.7428125 -0.00773438 2.640625 -0.01171875 C3.54296875 -0.00011719 4.4453125 0.01148438 5.375 0.0234375 C6.72851562 0.00603516 6.72851562 0.00603516 8.109375 -0.01171875 C9.41648438 -0.00591797 9.41648438 -0.00591797 10.75 0 C11.54148438 0.00338379 12.33296875 0.00676758 13.1484375 0.01025391 C15.93264012 0.49565765 17.32740403 1.47680319 19.375 3.3984375 C19.8125 5.8984375 19.8125 5.8984375 19.375 8.3984375 C17.6876086 10.69742668 16.80354604 11.33251067 13.95483398 11.77075195 C13.01969971 11.767771 12.08456543 11.76479004 11.12109375 11.76171875 C10.10208984 11.76107422 9.08308594 11.76042969 8.03320312 11.75976562 C6.97037109 11.74365234 5.90753906 11.72753906 4.8125 11.7109375 C3.21245117 11.71577148 3.21245117 11.71577148 1.58007812 11.72070312 C-6.35803472 11.66540278 -6.35803472 11.66540278 -8.625 9.3984375 C-9 6.4609375 -9 6.4609375 -8.625 3.3984375 C-5.82778422 0.71068484 -3.83482507 0.01639481 0 0 Z " fill="#FBFCFC" transform="translate(213.625,159.6015625)"/>
</svg>
