<?xml version="1.0" encoding="UTF-8"?>
<svg version="1.1" xmlns="http://www.w3.org/2000/svg" width="512" height="512">
<path d="M0 0 C20.69102192 16.9187936 35.96618965 44.74351485 39.09936523 71.29638672 C39.09399374 73.00226844 39.06848563 74.70813986 39.02905273 76.41357422 C38.43988614 86.89258808 38.43988614 86.89258808 42.32983398 96.12841797 C45.14147338 98.0282529 45.14147338 98.0282529 48.16967773 99.60498047 C55.74405499 103.97792093 60.10030987 112.82419169 62.47436523 120.99560547 C65.00414231 134.35599066 63.15349001 146.64490938 55.53686523 158.04638672 C48.52004026 167.03466714 39.38520713 173.20044465 28.09936523 175.29638672 C23.09431737 175.68403258 18.1104351 175.54283278 13.09936523 175.29638672 C13.24374023 176.30830078 13.38811523 177.32021484 13.53686523 178.36279297 C17.74485211 210.76504065 17.84115115 247.81912094 2.09936523 277.29638672 C1.55280273 278.32248047 1.00624023 279.34857422 0.44311523 280.40576172 C-8.86156328 297.06959505 -21.85807615 310.15404429 -37.90063477 320.29638672 C-38.80942383 320.87259766 -39.71821289 321.44880859 -40.65454102 322.04248047 C-42.90063477 323.29638672 -42.90063477 323.29638672 -44.90063477 323.29638672 C-44.57063477 324.28638672 -44.24063477 325.27638672 -43.90063477 326.29638672 C-42.82199787 340.54034482 -42.15326474 355.6978726 -50.96313477 367.67138672 C-53.78661875 371.51329154 -54.5555893 374.79344447 -55.33813477 379.48388672 C-57.36669215 391.31120665 -62.88770325 401.33877276 -70.90063477 410.29638672 C-71.54387695 411.03244141 -72.18711914 411.76849609 -72.84985352 412.52685547 C-89.11653849 429.99625282 -115.16029699 440.41441725 -138.78271484 441.41894531 C-153.64762484 441.79229338 -168.63378345 442.05200382 -182.90063477 437.29638672 C-182.96532959 438.00545166 -183.03002441 438.7145166 -183.09667969 439.44506836 C-186.61447053 476.69137739 -186.61447053 476.69137739 -198.90063477 489.29638672 C-208.60991715 496.57114578 -218.11807685 497.29735865 -229.90063477 496.29638672 C-233.3619058 495.48224367 -235.95512004 494.2600632 -238.90063477 492.29638672 C-239.58125977 491.88388672 -240.26188477 491.47138672 -240.96313477 491.04638672 C-252.99388455 483.02588686 -257.78499127 469.24186191 -260.65063477 455.67138672 C-266.83192837 421.48219781 -260.98686836 385.2367199 -247.90063477 353.29638672 C-249.09817383 353.07724609 -250.29571289 352.85810547 -251.52954102 352.63232422 C-272.0741592 348.70370957 -290.00125041 341.08989235 -305.90063477 327.29638672 C-306.72047852 326.62091797 -307.54032227 325.94544922 -308.38500977 325.24951172 C-338.53145141 299.59694957 -349.05297843 255.03065925 -352.67358398 217.19628906 C-354.27768281 196.70866986 -353.64751053 172.27173809 -344.94067383 153.19287109 C-343.04194801 148.74892974 -343.04194801 148.74892974 -343.54711914 144.07275391 C-344.78056962 141.69904234 -346.15763091 139.51591256 -347.65063477 137.29638672 C-348.69601286 135.61819765 -349.73894072 133.93848005 -350.77954102 132.25732422 C-351.30821777 131.42297852 -351.83689453 130.58863281 -352.3815918 129.72900391 C-366.36411908 107.33718426 -378.65766835 79.20478224 -374.42797852 52.28857422 C-372.55271496 44.94472772 -368.57173789 38.92390952 -362.40063477 34.48388672 C-345.43199853 24.84335634 -322.59614751 29.85595491 -304.87158203 34.50292969 C-288.45236274 39.04245992 -271.98812023 44.50679047 -256.54907227 51.74951172 C-255.74332764 52.1272876 -254.93758301 52.50506348 -254.10742188 52.89428711 C-252.66168654 53.58845783 -251.22602441 54.30431293 -249.80517578 55.0480957 C-241.09942022 59.30071211 -231.74517963 55.93887037 -222.71313477 54.04638672 C-211.04175413 51.69788778 -199.33182113 50.04018927 -187.52563477 48.54638672 C-186.27104965 48.38656311 -186.27104965 48.38656311 -184.99111938 48.22351074 C-171.87130077 46.56188933 -158.89629718 45.11071532 -145.65063477 45.23388672 C-144.70317383 45.23839844 -143.75571289 45.24291016 -142.77954102 45.24755859 C-140.48650035 45.25913961 -138.19360563 45.27544193 -135.90063477 45.29638672 C-135.6312207 44.57451172 -135.36180664 43.85263672 -135.08422852 43.10888672 C-130.78576316 32.89471162 -123.23262706 24.45111082 -115.90063477 16.29638672 C-114.80428711 15.07242187 -114.80428711 15.07242187 -113.68579102 13.82373047 C-84.16149201 -17.34997072 -34.97011505 -27.43864467 0 0 Z " fill="#B0B8C5" transform="translate(411.900634765625,15.70361328125)"/>
<path d="M0 0 C20.69102192 16.9187936 35.96618965 44.74351485 39.09936523 71.29638672 C39.09399374 73.00226844 39.06848563 74.70813986 39.02905273 76.41357422 C38.43988614 86.89258808 38.43988614 86.89258808 42.32983398 96.12841797 C45.14147338 98.0282529 45.14147338 98.0282529 48.16967773 99.60498047 C55.74405499 103.97792093 60.10030987 112.82419169 62.47436523 120.99560547 C65.00414231 134.35599066 63.15349001 146.64490938 55.53686523 158.04638672 C48.48571442 167.07863721 39.40150216 173.11503339 28.09936523 175.29638672 C14.4819676 176.67391061 3.06240337 173.49593929 -7.90063477 165.29638672 C-13.23037672 160.33484801 -17.18302624 155.04445813 -19.90063477 148.29638672 C-20.1984082 147.63380859 -20.49618164 146.97123047 -20.80297852 146.28857422 C-23.93117393 138.47529352 -24.51265896 128.84161987 -21.33813477 120.98388672 C-20.52404072 117.42449044 -20.52404072 117.42449044 -22.17407227 115.27294922 C-24.58200826 112.71740029 -27.17021807 110.49183833 -29.90063477 108.29638672 C-30.51503418 107.79413574 -31.12943359 107.29188477 -31.76245117 106.77441406 C-41.29817428 99.04394129 -51.15864764 92.22712997 -61.90063477 86.29638672 C-62.62476563 85.89323242 -63.34889648 85.49007812 -64.0949707 85.07470703 C-78.59994182 77.05474637 -93.29147958 70.43219756 -109.03344727 65.23779297 C-109.844897 64.96992981 -110.65634674 64.70206665 -111.49238586 64.42608643 C-115.61797305 63.06949123 -119.7488406 61.73240601 -123.88867188 60.41992188 C-125.42521852 59.92433788 -126.96175852 59.42873331 -128.49829102 58.93310547 C-129.21514069 58.7115126 -129.93199036 58.48991974 -130.67056274 58.26161194 C-134.3492795 57.06586479 -135.68590808 56.61847675 -137.90063477 53.29638672 C-137.55233167 36.22953502 -120.7500459 21.1738467 -109.43579102 9.82373047 C-103.1961456 3.92792289 -96.35817626 -0.48848113 -88.90063477 -4.70361328 C-88.07950195 -5.17669922 -87.25836914 -5.64978516 -86.41235352 -6.13720703 C-58.36099441 -21.27079741 -25.0857839 -19.68308968 0 0 Z " fill="#C0A7DF" transform="translate(411.900634765625,15.70361328125)"/>
<path d="M0 0 C0.80574463 0.37777588 1.61148926 0.75555176 2.44165039 1.14477539 C3.88738573 1.83894611 5.32304785 2.55480121 6.74389648 3.29858398 C15.44965204 7.55120039 24.80389264 4.18935865 33.8359375 2.296875 C45.50731814 -0.05162394 57.21725114 -1.70932245 69.0234375 -3.203125 C69.85982758 -3.30967407 70.69621765 -3.41622314 71.55795288 -3.52600098 C84.6777715 -5.18762239 97.65277509 -6.6387964 110.8984375 -6.515625 C111.84589844 -6.51111328 112.79335938 -6.50660156 113.76953125 -6.50195312 C116.06257192 -6.49037211 118.35546664 -6.47406979 120.6484375 -6.453125 C120.29036458 -4.5 119.93229167 -2.546875 119.57421875 -0.59375 C119.67262692 2.2445489 120.81365383 3.45267461 122.6484375 5.546875 C121.84664062 5.5562207 121.04484375 5.56556641 120.21875 5.57519531 C79.44660827 6.16458852 31.1556251 8.30431966 -5.25 28.1875 C-6.0961084 28.64809814 -6.9422168 29.10869629 -7.81396484 29.58325195 C-9.46861951 30.49686203 -11.11293519 31.42953179 -12.74462891 32.38354492 C-17.82578248 35.22797448 -20.66812683 36.0659848 -26.3515625 34.546875 C-26.8465625 31.081875 -26.8465625 31.081875 -27.3515625 27.546875 C-19.55971263 21.51506651 -11.3149957 17.47883436 -2.3515625 13.546875 C-4.8563627 11.0420748 -7.11760408 10.34202667 -10.43359375 9.0859375 C-11.0436174 8.8540976 -11.65364105 8.62225769 -12.28215027 8.38339233 C-13.57993234 7.89164577 -14.87873733 7.40259172 -16.1784668 6.91601562 C-18.12105904 6.18799138 -20.05972483 5.45024375 -21.99804688 4.7109375 C-30.02363344 1.67088906 -38.11056251 -1.04905625 -46.3515625 -3.453125 C-47.08624756 -3.66791504 -47.82093262 -3.88270508 -48.57788086 -4.10400391 C-59.93005006 -7.35247527 -70.79091854 -9.59684985 -82.6015625 -9.765625 C-83.34639893 -9.78334961 -84.09123535 -9.80107422 -84.85864258 -9.81933594 C-90.58745915 -9.81169327 -96.44982011 -9.01085337 -100.91870117 -5.07177734 C-107.00823567 1.8433648 -106.05950993 11.18256323 -105.61230469 19.88720703 C-103.54865858 40.93717022 -91.31342051 62.87113799 -80.3515625 80.546875 C-79.3615625 81.041875 -79.3615625 81.041875 -78.3515625 81.546875 C-78.08988281 80.8353125 -77.82820313 80.12375 -77.55859375 79.390625 C-74.70996877 72.67930143 -70.36390501 64.8634286 -64.3515625 60.546875 C-59.1515625 60.746875 -59.1515625 60.746875 -57.3515625 62.546875 C-56.70550477 66.34246416 -56.7107471 68.44398796 -58.66796875 71.8125 C-59.88337007 73.49829154 -61.11372594 75.17335994 -62.35546875 76.83984375 C-78.34657952 98.52641863 -83.8152667 124.83709601 -83.7890625 151.296875 C-83.78937469 152.01794434 -83.78968689 152.73901367 -83.79000854 153.48193359 C-83.76079964 162.345256 -83.04380539 170.82892288 -81.3515625 179.546875 C-81.10614347 181.11628604 -80.86626188 182.68657639 -80.6328125 184.2578125 C-76.38515756 210.51196491 -67.68576367 238.69033943 -49.3515625 258.546875 C-48.74054688 259.2378125 -48.12953125 259.92875 -47.5 260.640625 C-30.64127568 278.71891662 -5.77841594 288.7849031 18.66064453 289.92578125 C20.74228031 289.99444047 22.8241817 290.05540086 24.90625 290.109375 C27.18229309 290.18485291 29.45833472 290.26037498 31.734375 290.3359375 C35.27857238 290.44375707 38.8228485 290.54831168 42.3671875 290.65136719 C45.81801069 290.75447567 49.2683201 290.86895764 52.71875 290.984375 C53.78634552 291.01152588 54.85394104 291.03867676 55.95388794 291.06665039 C56.93606293 291.10008545 57.91823792 291.13352051 58.93017578 291.16796875 C59.79554962 291.1930249 60.66092346 291.21808105 61.55252075 291.24389648 C63.6484375 291.546875 63.6484375 291.546875 65.6484375 293.546875 C65.07151442 300.12379808 65.07151442 300.12379808 63.6484375 301.546875 C60.54592549 301.63561635 57.4657563 301.66205955 54.36328125 301.64453125 C53.43246231 301.6431163 52.50164337 301.64170135 51.5426178 301.64024353 C48.55702559 301.63462672 45.57150721 301.6220714 42.5859375 301.609375 C40.56705837 301.60436216 38.54817807 301.59979888 36.52929688 301.59570312 C31.56898178 301.58465183 26.60872218 301.56737595 21.6484375 301.546875 C21.44338593 302.16701477 21.23833435 302.78715454 21.02706909 303.42608643 C20.75758453 304.23841736 20.48809998 305.05074829 20.21044922 305.88769531 C19.94352264 306.69346008 19.67659607 307.49922485 19.40158081 308.32940674 C18.6012733 310.68573984 17.69894473 312.98720209 16.7734375 315.296875 C13.55021643 324.1391213 11.61110931 333.35907544 9.6484375 342.546875 C9.39416992 343.71500732 9.39416992 343.71500732 9.13476562 344.90673828 C4.14874497 368.61102525 3.19823189 398.4842837 14.6484375 420.546875 C18.38338157 426.23604408 22.98622209 430.68331824 29.6484375 432.546875 C35.81287435 433.41205912 41.43556627 433.13037661 46.87109375 429.91796875 C55.33514133 423.38856062 57.99763948 412.70067593 59.6484375 402.546875 C59.75413208 399.67002828 59.81236754 396.81823214 59.81640625 393.94140625 C59.81973465 393.10332932 59.82306305 392.26525238 59.82649231 391.40177917 C59.83154841 389.6240595 59.83390104 387.84633037 59.83374023 386.06860352 C59.83589368 383.4134028 59.85397021 380.75864105 59.87304688 378.10351562 C59.91378987 365.67342377 59.91376255 352.63144517 56.6484375 340.546875 C56.53552245 339.00807919 56.47383783 337.46475411 56.4609375 335.921875 C56.44675781 335.14585937 56.43257812 334.36984375 56.41796875 333.5703125 C56.6484375 331.546875 56.6484375 331.546875 58.6484375 329.546875 C61.5859375 329.171875 61.5859375 329.171875 64.6484375 329.546875 C68.33379877 332.98775284 68.58253225 337.42190138 69.2734375 342.171875 C69.39460937 342.92855469 69.51578125 343.68523437 69.640625 344.46484375 C71.57554363 356.89459281 72.10748995 369.35821163 72.55322266 381.9140625 C72.63018187 384.0420834 72.72112187 386.16959586 72.81640625 388.296875 C73.25806726 404.78555283 70.14600594 423.68043817 58.98046875 436.37890625 C51.27091913 443.5460755 43.3127023 445.3371412 33.09472656 445.12207031 C27.25834255 444.81149219 22.57423083 443.83073722 17.6484375 440.546875 C16.9678125 440.134375 16.2871875 439.721875 15.5859375 439.296875 C3.55518771 431.27637514 -1.23591901 417.49235019 -4.1015625 403.921875 C-10.2828561 369.73268609 -4.4377961 333.48720819 8.6484375 301.546875 C7.45089844 301.32773437 6.25335938 301.10859375 5.01953125 300.8828125 C-15.52508693 296.95419785 -33.45217815 289.34038063 -49.3515625 275.546875 C-50.17140625 274.87140625 -50.99125 274.1959375 -51.8359375 273.5 C-81.98237915 247.84743785 -92.50390617 203.28114753 -96.12451172 165.44677734 C-97.72861055 144.95915814 -97.09843826 120.52222637 -88.39160156 101.44335938 C-86.49287574 96.99941802 -86.49287574 96.99941802 -86.99804688 92.32324219 C-88.23149735 89.94953062 -89.60855865 87.76640084 -91.1015625 85.546875 C-92.1469406 83.86868593 -93.18986845 82.18896833 -94.23046875 80.5078125 C-94.75914551 79.6734668 -95.28782227 78.83912109 -95.83251953 77.97949219 C-109.81504681 55.58767254 -122.10859608 27.45527052 -117.87890625 0.5390625 C-116.0036427 -6.804784 -112.02266563 -12.82560219 -105.8515625 -17.265625 C-76.40034976 -33.99798387 -27.10820698 -12.71692317 0 0 Z " fill="#678490" transform="translate(155.3515625,67.453125)"/>
<path d="M0 0 C4.08470085 0.74267288 8.0142804 1.84512718 12 3 C16.48907068 36.70811111 17.44387225 75.20804314 1 106 C0.4534375 107.02609375 -0.093125 108.0521875 -0.65625 109.109375 C-9.96092851 125.77320834 -22.95744138 138.85765757 -39 149 C-39.90878906 149.57621094 -40.81757813 150.15242187 -41.75390625 150.74609375 C-44 152 -44 152 -46 152 C-45.67 152.99 -45.34 153.98 -45 155 C-43.82704454 170.48948349 -43.75733738 186.01595959 -53.23046875 199.0625 C-58.37530282 204.69569581 -65.07420003 208.54111907 -72.68359375 209.25 C-85.37499272 209.76735639 -95.45244698 204.18537954 -105.12109375 196.26171875 C-123.24037986 179.23615212 -133.98745604 153.71496191 -135.1875 129.1640625 C-135.40421453 115.80902943 -134.07373743 102.99975396 -124.8515625 92.5703125 C-118.11957136 86.29784294 -112.08823487 83.4066939 -102.82421875 83.72265625 C-88.85428113 85.09453118 -76.95192635 93.92842855 -68.125 104.4375 C-60.5738478 114.18801691 -50 128.34791913 -50 141 C-26.54945272 127.23044017 -8.98952471 106.67975955 -2 80 C0.76362982 67.07948784 1.43312246 54.21500897 1.28125 41.04125977 C1.24957533 38.27541758 1.2402038 35.51014799 1.234375 32.74414062 C1.22521961 30.95051395 1.21484856 29.15689298 1.203125 27.36328125 C1.19675018 26.14902214 1.19675018 26.14902214 1.19024658 24.91023254 C1.13188534 20.1986023 0.80646727 15.59380711 0.22114563 10.91766357 C-0.19910247 7.27348363 -0.05813106 3.6622566 0 0 Z " fill="#688591" transform="translate(413,187)"/>
<path d="M0 0 C8.90652476 7.09636214 14.99486294 16.18771363 17.125 27.4375 C18.45245953 41.22372037 16.12502545 52.78115963 7.44921875 63.89453125 C-0.43698815 72.52296939 -9.93954423 77.63475632 -21.58203125 78.8125 C-34.55210354 79.23300893 -46.52302345 75.28156798 -56.13671875 66.33203125 C-60.38426812 61.77043017 -63.54912883 57.21285159 -65.875 51.4375 C-66.17277344 50.77492187 -66.47054688 50.11234375 -66.77734375 49.4296875 C-70.68323978 39.67394717 -69.87299333 28.94936618 -66.203125 19.2578125 C-59.85139176 5.76972015 -50.09137025 -0.7189648 -36.875 -6.5625 C-24.83896161 -10.53644816 -10.20033476 -6.8612749 0 0 Z " fill="#FEFEFE" transform="translate(457.875,112.5625)"/>
<path d="M0 0 C0.96715942 0.36002609 0.96715942 0.36002609 1.95385742 0.72732544 C3.80408669 1.41879811 5.65017336 2.12132424 7.49609375 2.82421875 C8.56915771 3.23115967 9.64222168 3.63810059 10.74780273 4.05737305 C13.36528641 5.22455872 15.36566856 6.49024503 17.5625 8.3125 C16.43972656 8.82039063 15.31695312 9.32828125 14.16015625 9.8515625 C1.87299713 14.68934544 1.87299713 14.68934544 -8.4375 22.3125 C-8.61925781 23.99666016 -8.61925781 23.99666016 -8.8046875 25.71484375 C-9.4375 29.3125 -9.4375 29.3125 -11.8515625 31.65625 C-12.91117187 32.3678125 -13.97078125 33.079375 -15.0625 33.8125 C-22.85271584 39.30531838 -29.3235707 45.9130734 -35.92626953 52.75366211 C-36.42497559 53.26807861 -36.92368164 53.78249512 -37.4375 54.3125 C-37.93620605 54.88556885 -38.43491211 55.4586377 -38.94873047 56.04907227 C-39.44002441 56.46600342 -39.93131836 56.88293457 -40.4375 57.3125 C-41.8915625 57.0340625 -41.8915625 57.0340625 -43.375 56.75 C-44.8909375 56.5334375 -44.8909375 56.5334375 -46.4375 56.3125 C-50.21170052 59.34894527 -52.58564113 63.37954596 -55.125 67.4375 C-55.52783203 68.07042969 -55.93066406 68.70335937 -56.34570312 69.35546875 C-58.51023191 72.76582294 -58.51023191 72.76582294 -60.4375 76.3125 C-64.06849036 75.10216988 -64.28621096 74.33186597 -66.07421875 71.0703125 C-66.565271 70.17852295 -67.05632324 69.2867334 -67.56225586 68.36791992 C-68.07796143 67.40088135 -68.59366699 66.43384277 -69.125 65.4375 C-69.92466187 63.94923706 -69.92466187 63.94923706 -70.74047852 62.4309082 C-75.57995068 53.28400658 -79.836215 44.01283809 -83.4375 34.3125 C-83.84186279 33.24056396 -83.84186279 33.24056396 -84.25439453 32.14697266 C-87.30506332 23.83442486 -88.86864149 16.06336151 -88.9375 7.1875 C-88.94394531 6.40568359 -88.95039062 5.62386719 -88.95703125 4.81835938 C-88.80831383 -1.8110057 -87.44435261 -6.68064739 -82.625 -11.5 C-60.83126009 -26.45648818 -21.67565632 -8.11967946 0 0 Z " fill="#B0B8C5" transform="translate(137.4375,72.6875)"/>
<path d="M0 0 C16.85528575 8.86016576 27.92961323 27.24891414 33.66796875 44.87109375 C38.66776982 61.78113523 39.70306183 77.71650694 31.76171875 93.8828125 C27.70749044 98.27489317 23.12566996 100.4906157 17.13671875 100.8828125 C5.25236987 100.23049832 -3.53801245 90.69113621 -11.17578125 82.5078125 C-25.20252598 65.74815741 -31.6798905 42.94088466 -30.67626953 21.35546875 C-29.97547926 13.76873143 -27.60265227 6.97711681 -22.48828125 1.3203125 C-14.7922447 -4.1557135 -8.43941562 -3.6962831 0 0 Z " fill="#B0B8C5" transform="translate(319.48828125,284.6796875)"/>
<path d="M0 0 C20.72785294 16.94890987 35.89895618 44.72044098 39.09936523 71.29638672 C39.21308097 75.08922712 39.19368655 78.87730648 39.16186523 82.67138672 C39.15735352 83.69361328 39.1528418 84.71583984 39.14819336 85.76904297 C39.13646824 88.27821866 39.120057 90.78727161 39.09936523 93.29638672 C35.13500991 92.74322086 31.78312744 91.84017803 28.09936523 90.29638672 C28.03467041 89.58732178 27.96997559 88.87825684 27.90332031 88.14770508 C26.09628527 68.2415077 26.09628527 68.2415077 20.09936523 49.29638672 C19.81963867 48.65588379 19.53991211 48.01538086 19.25170898 47.35546875 C10.23911776 27.14053877 -3.34226404 8.71628029 -24.25610352 -0.12158203 C-43.85930195 -6.86703043 -62.53333462 -3.82165479 -80.81933594 5.03417969 C-98.86535459 14.23100867 -114.80773415 30.1105855 -123.90063477 48.29638672 C-122.02698242 48.67150391 -122.02698242 48.67150391 -120.11547852 49.05419922 C-81.64900923 57.64896892 -43.35741966 79.23796963 -14.90063477 106.29638672 C-16.18695022 110.33429871 -17.59296532 113.72998848 -19.90063477 117.29638672 C-20.78750977 116.53326172 -21.67438477 115.77013672 -22.58813477 114.98388672 C-23.23137695 114.43603516 -23.87461914 113.88818359 -24.53735352 113.32373047 C-26.28014742 111.82867256 -28.01005745 110.31856452 -29.73266602 108.80029297 C-56.87400301 85.06233904 -90.04507213 71.04622545 -124.0925293 60.31787109 C-124.85886185 60.07246078 -125.6251944 59.82705048 -126.41474915 59.57420349 C-127.86447661 59.11050116 -129.31703005 58.65551562 -130.77262878 58.21058655 C-134.42911339 57.03463871 -135.69863798 56.5993819 -137.90063477 53.29638672 C-137.55233167 36.22953502 -120.7500459 21.1738467 -109.43579102 9.82373047 C-103.1961456 3.92792289 -96.35817626 -0.48848113 -88.90063477 -4.70361328 C-88.07950195 -5.17669922 -87.25836914 -5.64978516 -86.41235352 -6.13720703 C-58.36099441 -21.27079741 -25.0857839 -19.68308968 0 0 Z " fill="#AA8CDC" transform="translate(411.900634765625,15.70361328125)"/>
<path d="M0 0 C6.65778098 -0.22452927 6.65778098 -0.22452927 8.953125 1.51953125 C10.1640625 3.16015625 10.1640625 3.16015625 10.0390625 5.66015625 C9.10449097 8.33036063 8.46884261 9.53827395 6.1640625 11.16015625 C4.8440625 11.16015625 3.5240625 11.16015625 2.1640625 11.16015625 C1.86295432 14.04919988 1.86295432 14.04919988 3.1640625 17.16015625 C5.22219686 18.24838521 5.22219686 18.24838521 7.7265625 19.03515625 C16.26100875 22.03012598 20.56952812 27.55224667 24.6015625 35.47265625 C29.32089931 45.5157136 29.95611574 57.16398041 27.1875 67.97265625 C23.64902972 76.6560189 19.13159586 81.84485994 10.9140625 86.41015625 C3.5053335 88.4307187 -2.75428344 87.56409578 -9.4453125 83.83984375 C-17.99224331 77.83464727 -23.57884841 68.981626 -25.515625 58.76953125 C-26.97522136 46.87916089 -25.93294965 36.68529466 -18.9609375 26.72265625 C-16.88615394 24.11993794 -15.40928503 22.88645466 -12.5234375 21.03515625 C-9.51786934 19.36656446 -9.51786934 19.36656446 -8.9609375 15.91015625 C-8.9196875 15.00265625 -8.8784375 14.09515625 -8.8359375 13.16015625 C-9.7434375 13.24265625 -10.6509375 13.32515625 -11.5859375 13.41015625 C-14.8359375 13.16015625 -14.8359375 13.16015625 -17.2734375 11.47265625 C-18.8359375 9.16015625 -18.8359375 9.16015625 -18.8359375 6.59765625 C-17.61971385 3.6331111 -16.54422918 2.82823902 -13.8359375 1.16015625 C-9.29967078 0.2108736 -4.61885858 0.26084463 0 0 Z " fill="#688490" transform="translate(247.8359375,215.83984375)"/>
<path d="M0 0 C8.90652476 7.09636214 14.99486294 16.18771363 17.125 27.4375 C18.45245953 41.22372037 16.12502545 52.78115963 7.44921875 63.89453125 C-0.43698815 72.52296939 -9.93954423 77.63475632 -21.58203125 78.8125 C-34.55210354 79.23300893 -46.52302345 75.28156798 -56.13671875 66.33203125 C-60.38426812 61.77043017 -63.54912883 57.21285159 -65.875 51.4375 C-66.17277344 50.77492187 -66.47054688 50.11234375 -66.77734375 49.4296875 C-70.68323978 39.67394717 -69.87299333 28.94936618 -66.203125 19.2578125 C-59.85139176 5.76972015 -50.09137025 -0.7189648 -36.875 -6.5625 C-24.83896161 -10.53644816 -10.20033476 -6.8612749 0 0 Z M-50.33984375 14.40234375 C-56.37998032 22.40975126 -58.74206817 30.5299711 -57.875 40.4375 C-56.07666551 49.1983052 -51.60728916 55.63560484 -44.875 61.4375 C-36.27437564 66.84396184 -28.12681853 68.92608411 -18.05859375 66.859375 C-9.90963241 64.30920218 -3.10506663 59.37659659 1.6015625 52.1796875 C6.03753046 43.53114566 6.8987325 32.74498821 4.25390625 23.33984375 C0.18658045 14.71177885 -6.09274028 8.98858763 -14.875 5.4375 C-27.71238833 1.15837056 -41.23246659 4.60599243 -50.33984375 14.40234375 Z " fill="#E2E2E3" transform="translate(457.875,112.5625)"/>
<path d="M0 0 C8.93814904 4.13024596 19.3276588 9.05037408 25.6640625 16.7578125 C25.6640625 18.0778125 25.6640625 19.3978125 25.6640625 20.7578125 C25.1690625 21.2528125 25.1690625 21.2528125 24.6640625 21.7578125 C24.59445313 22.840625 24.52484375 23.9234375 24.453125 25.0390625 C23.44380448 29.79586018 22.01800071 30.5858248 18.0390625 33.2578125 C10.24884666 38.75063088 3.7779918 45.3583859 -2.82470703 52.19897461 C-3.32341309 52.71339111 -3.82211914 53.22780762 -4.3359375 53.7578125 C-4.83464355 54.33088135 -5.33334961 54.9039502 -5.84716797 55.49438477 C-6.33846191 55.91131592 -6.82975586 56.32824707 -7.3359375 56.7578125 C-8.79 56.479375 -8.79 56.479375 -10.2734375 56.1953125 C-11.2840625 56.0509375 -12.2946875 55.9065625 -13.3359375 55.7578125 C-16.01206091 57.83924182 -17.45038975 59.92949088 -19.3359375 62.7578125 C-21.69470921 62.38615729 -22.98921879 62.1484061 -24.6015625 60.33203125 C-28.41855661 53.01612587 -28.20802086 45.43253963 -26.3984375 37.5078125 C-26.32680546 33.2098901 -26.76275378 32.78869079 -29.5234375 29.7578125 C-30.16796875 29.09523437 -30.8125 28.43265625 -31.4765625 27.75 C-35.65777956 23.27012457 -37.55217336 18.74747198 -37.8359375 12.6328125 C-37.53715549 6.33911397 -34.84733806 3.33791309 -30.5859375 -1.1171875 C-22.03912755 -6.75405573 -8.70524149 -3.50210864 0 0 Z " fill="#FEFEFE" transform="translate(104.3359375,73.2421875)"/>
<path d="M0 0 C1.92941845 8.29781782 2.31222389 16.41090013 2.26074219 24.89746094 C2.25001513 26.99703843 2.26070107 29.09576069 2.2734375 31.1953125 C2.28518285 41.35354241 1.63172007 50.96880232 -2.3125 60.4375 C-2.70050781 61.40558594 -3.08851563 62.37367188 -3.48828125 63.37109375 C-5.25714714 66.44718353 -7.06062413 68.03740134 -10 70 C-13.62321296 70.75198759 -15.80931732 70.72225519 -19.015625 68.77734375 C-34.28085593 56.45445695 -39.34063592 32.56340417 -42 14 C-42.11196073 11.32189925 -42.04625299 8.68267314 -42 6 C-42.99 5.67 -43.98 5.34 -45 5 C-40.03896943 4.27984422 -35.0768289 3.56809004 -30.11352539 2.86376953 C-28.42863246 2.62350822 -26.74405294 2.38103735 -25.05981445 2.13623047 C-22.62532278 1.78277834 -20.18977827 1.43754459 -17.75390625 1.09375 C-17.01290176 0.9843811 -16.27189728 0.87501221 -15.50843811 0.7623291 C-10.29683941 0.03781261 -5.26209689 -0.09100038 0 0 Z " fill="#91A2B5" transform="translate(246,74)"/>
<path d="M0 0 C0.04995979 4.37417135 0.08598048 8.74818533 0.10986328 13.12255859 C0.11983431 14.60631204 0.13341605 16.09004629 0.15087891 17.57373047 C0.30419156 30.94800489 -0.341311 44.67839853 -8.125 56.125 C-10.62059771 58.62059771 -11.63289368 58.95681102 -15.1875 59.375 C-20.09804492 58.89199558 -22.58112369 57.50572999 -26 54 C-28.33510597 50.82562612 -30.19125417 47.49657272 -32 44 C-32.43183594 43.18789062 -32.86367187 42.37578125 -33.30859375 41.5390625 C-36.16355573 35.75798684 -38.06633398 29.8114878 -39.8125 23.625 C-40.03172119 22.8515625 -40.25094238 22.078125 -40.47680664 21.28125 C-41.51512364 17.43457662 -42.28050596 14.02325694 -42 10 C-31.71478325 5.6883986 -20.86042053 3.38207204 -10 1 C-9.18128418 0.81332764 -8.36256836 0.62665527 -7.51904297 0.43432617 C-4.96122688 -0.00668515 -2.59002681 -0.07400077 0 0 Z " fill="#91A2B4" transform="translate(201,80)"/>
<path d="M0 0 C1.369844 16.24510452 0.64490397 34.19934248 -9 48 C-11.55405733 49.96369326 -13.33275427 50.8898317 -16.5078125 51.4140625 C-21.93608138 50.51218711 -25.53295082 45.99334616 -29 42 C-36.93970712 29.51676106 -43.78650521 11.94359906 -43 -3 C-44.32 -3.33 -45.64 -3.66 -47 -4 C-42.70007204 -4.24588691 -38.39995776 -4.45981223 -34.09716797 -4.64697266 C-32.640379 -4.7145144 -31.18393492 -4.79007769 -29.72802734 -4.87451172 C-6.2210142 -6.2210142 -6.2210142 -6.2210142 0 0 Z " fill="#91A2B5" transform="translate(293,77)"/>
<path d="M0 0 C1.109375 1.671875 1.109375 1.671875 0.984375 4.734375 C0.109375 7.671875 0.109375 7.671875 -2.890625 9.671875 C-5.28138364 9.9320543 -7.67897196 10.1310895 -10.078125 10.296875 C-22.44745957 11.4951454 -34.7022137 17.51652444 -42.890625 26.984375 C-44.890625 28.671875 -44.890625 28.671875 -48.015625 29.109375 C-48.964375 28.965 -49.913125 28.820625 -50.890625 28.671875 C-53.06346014 25.41262229 -53.41104211 24.45204765 -52.890625 20.671875 C-45.28035612 9.71859395 -30.37990115 1.64383118 -17.5 -0.9765625 C-3.98268943 -2.79775704 -3.98268943 -2.79775704 0 0 Z " fill="#625E5F" transform="translate(200.890625,217.328125)"/>
<path d="M0 0 C2.0390625 1.4296875 2.0390625 1.4296875 4.0390625 4.4296875 C3.7149256 7.75209074 3.43129947 9.03745053 1.0390625 11.4296875 C-4.36566834 12.16669625 -6.57272605 10.3551618 -10.9609375 7.4296875 C-22.64118409 2.12682764 -34.13137153 0.92793755 -46.7734375 3.078125 C-49.9609375 3.4296875 -49.9609375 3.4296875 -52.9609375 1.4296875 C-53.2734375 -2.0703125 -53.2734375 -2.0703125 -52.9609375 -5.5703125 C-40.51914668 -18.01210332 -12.38822429 -6.92393201 0 0 Z " fill="#625E60" transform="translate(336.9609375,211.5703125)"/>
<path d="M0 0 C4.29776651 1.5723536 6.08493995 4.91905702 7.9765625 8.953125 C12.30563013 20.51592498 13.88013773 29.53198195 13.5625 41.9375 C11.94000059 42.77569158 10.31441503 43.6079116 8.6875 44.4375 C7.78257812 44.9015625 6.87765625 45.365625 5.9453125 45.84375 C3.5625 46.9375 3.5625 46.9375 1.5625 46.9375 C1.62050781 45.82375 1.67851562 44.71 1.73828125 43.5625 C2.17675319 31.2527056 0.54099771 20.72756544 -5.11328125 9.65625 C-6.4375 6.9375 -6.4375 6.9375 -6.3125 4.1875 C-5.048881 0.938194 -3.48055209 -0.08924493 0 0 Z " fill="#AA8DDC" transform="translate(406.4375,65.0625)"/>
<path d="M0 0 C3.64134944 1.57114062 7.16636552 3.14064936 8.84765625 6.890625 C9.15643964 11.16608738 6.39997068 14.63757322 4 18 C0.71625694 20.92681447 -1.15653408 21.87950487 -5.5 22.5 C-12.00822018 21.57025426 -15.44971528 17.83384737 -19.3125 12.87890625 C-20 11 -20 11 -19.37890625 8.484375 C-15.52486055 1.54054195 -7.65473025 -1.82255482 0 0 Z " fill="#F980A5" transform="translate(256,270)"/>
<path d="M0 0 C2 2 2 2 2.375 4.9375 C2 8 2 8 0.27319336 9.63208008 C-2.18908395 11.11378342 -3.91198045 11.56819199 -6.74609375 11.94921875 C-7.66028076 12.07538574 -8.57446777 12.20155273 -9.51635742 12.33154297 C-10.48033447 12.44900879 -11.44431152 12.56647461 -12.4375 12.6875 C-13.42145752 12.8127002 -14.40541504 12.93790039 -15.41918945 13.06689453 C-35.06292119 15.43944285 -35.06292119 15.43944285 -38.83984375 12.6328125 C-40 11 -40 11 -39.875 8.5 C-38.90951562 5.7414732 -38.29067506 4.77275917 -36 3 C-33.32373047 2.3840332 -33.32373047 2.3840332 -30.1171875 2.05078125 C-28.94929688 1.92509766 -27.78140625 1.79941406 -26.578125 1.66992188 C-25.35609375 1.55197266 -24.1340625 1.43402344 -22.875 1.3125 C-21.07675781 1.11817383 -21.07675781 1.11817383 -19.2421875 0.91992188 C-12.81152618 0.2535869 -6.46345324 -0.35609462 0 0 Z " fill="#92A2B5" transform="translate(376,239)"/>
<path d="M0 0 C1.125 1.9375 1.125 1.9375 1.0625 5.5 C0.125 8.9375 0.125 8.9375 -1.55541992 10.09912109 C-4.36423534 11.11432709 -6.95505309 11.46789056 -9.92578125 11.7890625 C-11.68631836 11.98242188 -11.68631836 11.98242188 -13.48242188 12.1796875 C-14.70509766 12.30601562 -15.92777344 12.43234375 -17.1875 12.5625 C-18.39857422 12.6965625 -19.60964844 12.830625 -20.85742188 12.96875 C-36.59563818 14.65714102 -36.59563818 14.65714102 -39.875 12.8125 C-41.41797074 9.91942987 -40.78756088 8.00109725 -39.875 4.9375 C-36.42643332 2.63845555 -34.28168681 2.39806224 -30.1953125 1.8671875 C-29.54553436 1.78123322 -28.89575623 1.69527893 -28.22628784 1.60671997 C-26.85332494 1.42665487 -25.47986036 1.25037989 -24.10595703 1.07763672 C-22.01344697 0.81419295 -19.92274754 0.53900338 -17.83203125 0.26171875 C-2.95252337 -1.67309658 -2.95252337 -1.67309658 0 0 Z " fill="#91A2B5" transform="translate(158.875,267.0625)"/>
<path d="M0 0 C2 3 2 3 2.125 5.375 C0.85661342 8.3345687 0.20532923 8.72555495 -2.46875 10.328125 C-3.5513208 10.9775708 -3.5513208 10.9775708 -4.65576172 11.64013672 C-8.61857498 13.93891508 -12.59587736 16.19415743 -16.625 18.375 C-17.44484375 18.83777344 -18.2646875 19.30054688 -19.109375 19.77734375 C-22.81439643 21.77281349 -25.19512946 23.00545059 -29.4609375 22.9765625 C-32 22 -32 22 -34 19 C-34.125 16.625 -34.125 16.625 -33 14 C-31.47851562 12.83886719 -31.47851562 12.83886719 -29.53125 11.671875 C-28.80953613 11.23891113 -28.08782227 10.80594727 -27.34423828 10.35986328 C-23.38142502 8.06108492 -19.40412264 5.80584257 -15.375 3.625 C-14.55515625 3.16222656 -13.7353125 2.69945312 -12.890625 2.22265625 C-5.1126957 -1.96642142 -5.1126957 -1.96642142 0 0 Z " fill="#92A2B5" transform="translate(161,287)"/>
<path d="M0 0 C3.55036655 0.86230792 7.08824361 1.67692352 10.67578125 2.3671875 C11.94119751 2.61553345 11.94119751 2.61553345 13.23217773 2.86889648 C14.93237735 3.20237305 16.63370574 3.53015283 18.33618164 3.85180664 C26.12816712 5.4323423 26.12816712 5.4323423 28.9375 8.4375 C29.3966488 11.5859489 29.40562618 13.53050552 27.9375 16.375 C22.16238361 19.44303058 11.5455557 15.04202523 5.5625 13.5625 C4.47066406 13.30597656 3.37882812 13.04945313 2.25390625 12.78515625 C1.21363281 12.52863281 0.17335938 12.27210938 -0.8984375 12.0078125 C-1.84251465 11.77852051 -2.7865918 11.54922852 -3.75927734 11.31298828 C-6.0625 10.4375 -6.0625 10.4375 -8.0625 7.4375 C-8.4375 4.9375 -8.4375 4.9375 -8.0625 2.4375 C-5.24118684 -0.25925187 -3.77460473 -0.97961611 0 0 Z " fill="#91A2B5" transform="translate(347.0625,262.5625)"/>
<path d="M0 0 C2.32064221 1.8365173 2.92882439 2.52549591 3.375 5.5 C2.9173959 8.55069397 2.44803819 9.16775699 0 11 C-7.08573141 12.68364901 -14.72139672 13.55989256 -22 13 C-24 11 -24 11 -24.3125 7.5 C-24.209375 6.345 -24.10625 5.19 -24 4 C-17.42387113 -0.38408591 -7.73593979 -0.61396348 0 0 Z " fill="#FBFBFC" transform="translate(194,173)"/>
<path d="M0 0 C2 3 2 3 1.75 5.5625 C1 8 1 8 -1 10 C-7.94923138 11.78129032 -15.83728259 12.97024857 -23 12 C-25 10 -25 10 -25.3125 7.0625 C-25 4 -25 4 -23.96875 2.38671875 C-20.97519369 0.27816222 -17.73670533 0.12326185 -14.1875 -0.25 C-13.13852539 -0.38535156 -13.13852539 -0.38535156 -12.06835938 -0.5234375 C-7.8540505 -1.01228156 -4.10176492 -1.15266339 0 0 Z " fill="#FCFCFD" transform="translate(303,160)"/>
</svg>
