<?xml version="1.0" encoding="UTF-8"?>
<svg version="1.1" xmlns="http://www.w3.org/2000/svg" width="500" height="500">
<path d="M0 0 C6.5188333 3.64740129 13.70624633 7.78896152 16.625 15 C16.46 16.258125 16.295 17.51625 16.125 18.8125 C15.94100192 20.92601581 15.94100192 20.92601581 16.625 23 C19.90660669 26.21800966 23.76817407 28.52598727 27.625 31 C42.76306373 41.62801884 53.34736343 53.82092286 63.625 69 C64.31988525 70.02383789 64.31988525 70.02383789 65.02880859 71.06835938 C76.19459427 87.72046227 85.35185104 106.26433653 89.01757812 126.12719727 C89.53972134 128.35887735 89.53972134 128.35887735 92.4375 130.0625 C96.9434877 133.57436092 98.15194761 138.67022863 99.625 144 C99.89207764 144.94891113 99.89207764 144.94891113 100.16455078 145.91699219 C101.84395145 152.51152887 102.00932894 158.96884213 102 165.75 C101.99911377 166.90072998 101.99822754 168.05145996 101.99731445 169.23706055 C101.85087122 179.73116746 100.26512014 187.9984329 94.625 197 C95.099375 197.7425 95.57375 198.485 96.0625 199.25 C100.18970198 206.51387549 98.69530608 214.8347255 96.6875 222.6484375 C93.01049069 233.80041968 86.95452387 242.83312095 76.85546875 249.09765625 C74.625 250 74.625 250 71.15234375 250.2578125 C67.46522211 250.67927914 67.46522211 250.67927914 65.25390625 253.5546875 C64.57199219 254.65039062 63.89007813 255.74609375 63.1875 256.875 C62.41768853 258.06706677 61.6468372 259.2584626 60.875 260.44921875 C60.49730469 261.04782715 60.11960937 261.64643555 59.73046875 262.26318359 C52.63566404 273.40992403 44.17277289 282.58614292 33.578125 290.4765625 C31.42188762 292.08185564 31.42188762 292.08185564 29.0625 294.6875 C26.44573055 297.17007614 24.12932464 298.28982001 20.8984375 299.78515625 C18.2456507 301.20271071 16.00760545 302.91474985 13.625 304.75 C6.17642756 310.32078107 -2.49630874 314.95660464 -11.296875 318.015625 C-11.98265625 318.34046875 -12.6684375 318.6653125 -13.375 319 C-13.808125 320.670625 -13.808125 320.670625 -14.25 322.375 C-15.4263934 326.16560095 -15.56781612 326.54119912 -18.75 328.375 C-23.59655244 330.54759247 -27.12248409 331.13817228 -32.4375 331.125 C-33.48035156 331.12757813 -34.52320313 331.13015625 -35.59765625 331.1328125 C-38.375 331 -38.375 331 -41.375 330 C-41.9525 330.94875 -42.53 331.8975 -43.125 332.875 C-45.3427145 335.95515902 -45.9855394 336.74530493 -49.375 338 C-55.81834954 338.69099988 -61.92423702 338.85541772 -67.375 335 C-68.12048096 334.15381104 -68.86596191 333.30762207 -69.6340332 332.43579102 C-72.93270662 329.50438773 -74.4444529 329.34009155 -78.79296875 329.21484375 C-80.66142456 329.13508301 -80.66142456 329.13508301 -82.56762695 329.05371094 C-83.88593506 329.01536133 -85.20424316 328.97701172 -86.5625 328.9375 C-108.46908122 327.94964144 -128.11102153 322.97517977 -147.73120117 313.09643555 C-149.25324055 312.34289025 -150.81177295 311.66389426 -152.375 311 C-153.035 311.33 -153.695 311.66 -154.375 312 C-161.73143408 313.10980686 -167.23416194 310.96552424 -173.375 307 C-176.92212574 304.32170466 -179.10309756 302.04876656 -180.25 297.625 C-180.29125 296.75875 -180.3325 295.8925 -180.375 295 C-180.890625 295.20625 -181.40625 295.4125 -181.9375 295.625 C-185.53799853 296.17892285 -188.19955696 295.67421218 -191.375 294 C-196.2217131 290.00344805 -200.46719443 286.11093971 -202.375 280 C-202.58155066 276.55748903 -202.46883931 274.28151792 -201.375 271 C-202.78312482 268.91366387 -204.20737296 267.05012754 -205.8125 265.125 C-214.77333519 253.92002721 -223.41683153 240.71206932 -228.42578125 227.15625 C-229.84211099 223.93890837 -232.26158954 223.46513434 -235.375 222 C-244.4011662 214.07458577 -249.76270032 203.35340551 -250.55200195 191.29614258 C-250.61876566 188.13484102 -250.65984499 184.97438935 -250.6875 181.8125 C-250.71650391 180.72646484 -250.74550781 179.64042969 -250.77539062 178.52148438 C-250.83186483 171.28844186 -249.88319078 165.39947684 -246.375 159 C-245.385 158.01 -245.385 158.01 -244.375 157 C-244.65214844 156.46890625 -244.92929688 155.9378125 -245.21484375 155.390625 C-245.57707031 154.68421875 -245.93929687 153.9778125 -246.3125 153.25 C-246.67214844 152.55390625 -247.03179687 151.8578125 -247.40234375 151.140625 C-251.67058879 141.7470576 -249.62190333 130.40303205 -246.375 121 C-243.79005542 114.95012971 -240.82882237 110.71324076 -235.375 107 C-234.3538208 106.80458618 -234.3538208 106.80458618 -233.31201172 106.60522461 C-231.2560147 106.18304174 -231.2560147 106.18304174 -230.28173828 104.39282227 C-230.00571777 103.70760498 -229.72969727 103.0223877 -229.4453125 102.31640625 C-228.96856079 101.17945313 -228.96856079 101.17945313 -228.48217773 100.01953125 C-228.15805908 99.20871094 -227.83394043 98.39789063 -227.5 97.5625 C-225.28217918 92.22173214 -223.1078385 87.28553819 -219.8125 82.5 C-216.98970133 78.11565313 -217.40001077 75.48264547 -218.23046875 70.484375 C-218.82545092 60.25711384 -206.84136501 49.04853886 -200.45703125 41.83203125 C-192.71342447 33.79413062 -179.92700412 21.58098057 -168.19140625 20.8671875 C-167.44761719 20.86976562 -166.70382813 20.87234375 -165.9375 20.875 C-159.66274919 20.37863912 -154.96169014 17.19913154 -149.7265625 14.01171875 C-139.71092233 8 -139.71092233 8 -134.375 8 C-133.99988281 7.1028125 -133.99988281 7.1028125 -133.6171875 6.1875 C-129.97739461 -0.22219817 -121.53197837 -3.10960749 -114.82421875 -5.12109375 C-103.06086065 -8.11855193 -91.83073134 -9.26833662 -79.6875 -9.3125 C-78.02146729 -9.32071777 -78.02146729 -9.32071777 -76.32177734 -9.32910156 C-69.83663818 -9.27185943 -64.25692038 -8.94096019 -58.375 -6 C-57.04270139 -6.6039349 -55.73426623 -7.26062905 -54.4375 -7.9375 C-37.16691914 -14.98924147 -15.68061358 -8.30301993 0 0 Z " fill="#3FC5C1" transform="translate(318.375,89)"/>
<path d="M0 0 C6.5188333 3.64740129 13.70624633 7.78896152 16.625 15 C16.46 16.258125 16.295 17.51625 16.125 18.8125 C15.94100192 20.92601581 15.94100192 20.92601581 16.625 23 C19.90660669 26.21800966 23.76817407 28.52598727 27.625 31 C42.76306373 41.62801884 53.34736343 53.82092286 63.625 69 C64.31988525 70.02383789 64.31988525 70.02383789 65.02880859 71.06835938 C76.19459427 87.72046227 85.35185104 106.26433653 89.01757812 126.12719727 C89.53972134 128.35887735 89.53972134 128.35887735 92.4375 130.0625 C96.9434877 133.57436092 98.15194761 138.67022863 99.625 144 C99.89207764 144.94891113 99.89207764 144.94891113 100.16455078 145.91699219 C101.84395145 152.51152887 102.00932894 158.96884213 102 165.75 C101.99911377 166.90072998 101.99822754 168.05145996 101.99731445 169.23706055 C101.85087122 179.73116746 100.26512014 187.9984329 94.625 197 C95.099375 197.7425 95.57375 198.485 96.0625 199.25 C100.18970198 206.51387549 98.69530608 214.8347255 96.6875 222.6484375 C93.01049069 233.80041968 86.95452387 242.83312095 76.85546875 249.09765625 C74.625 250 74.625 250 71.15234375 250.2578125 C67.46522211 250.67927914 67.46522211 250.67927914 65.25390625 253.5546875 C64.57199219 254.65039062 63.89007813 255.74609375 63.1875 256.875 C62.41768853 258.06706677 61.6468372 259.2584626 60.875 260.44921875 C60.49730469 261.04782715 60.11960937 261.64643555 59.73046875 262.26318359 C52.63566404 273.40992403 44.17277289 282.58614292 33.578125 290.4765625 C31.42188762 292.08185564 31.42188762 292.08185564 29.0625 294.6875 C26.45103723 297.1650416 24.14100862 298.28373991 20.91796875 299.77734375 C18.17134328 301.24189873 15.8001238 303.0048463 13.3125 304.875 C5.61288894 310.58039046 -1.58283055 315.63048417 -11.375 316 C-11.375 316.33 -11.375 316.66 -11.375 317 C-13.025 317 -14.675 317 -16.375 317 C-16.88244423 315.10614563 -17.38064574 313.20981334 -17.875 311.3125 C-18.1534375 310.25675781 -18.431875 309.20101563 -18.71875 308.11328125 C-19.32448778 305.23963239 -19.67950985 302.91530741 -19.375 300 C-17.0625 297.1875 -17.0625 297.1875 -14.375 295 C-13.385 295 -12.395 295 -11.375 295 C-11.375 294.34 -11.375 293.68 -11.375 293 C-9.4765625 291.4921875 -9.4765625 291.4921875 -7 289.875 C-6.18789063 289.33617187 -5.37578125 288.79734375 -4.5390625 288.2421875 C-2.375 287 -2.375 287 -0.375 287 C-0.375 286.34 -0.375 285.68 -0.375 285 C0.79261167 284.05170163 2.01350978 283.1690505 3.25 282.3125 C8.04965764 278.70892318 12.05659113 274.57282637 16.125 270.1875 C16.74842285 269.5169458 17.3718457 268.8463916 18.01416016 268.15551758 C21.17628946 264.83066943 21.17628946 264.83066943 23.625 261 C24.285 261 24.945 261 25.625 261 C25.8725 260.29875 26.12 259.5975 26.375 258.875 C27.79680238 255.60485452 29.49746288 252.858878 31.625 250 C32.285 250 32.945 250 33.625 250 C33.955 248.35 34.285 246.7 34.625 245 C38.915 244.67 43.205 244.34 47.625 244 C47.625 243.34 47.625 242.68 47.625 242 C48.24375 241.938125 48.8625 241.87625 49.5 241.8125 C50.20125 241.544375 50.9025 241.27625 51.625 241 C52.32711894 239.34795544 52.99471413 237.68076231 53.625 236 C54.615 235.67 55.605 235.34 56.625 235 C57.85020264 231.99152582 57.85020264 231.99152582 58.625 229 C59.285 229 59.945 229 60.625 229 C60.7075 228.195625 60.79 227.39125 60.875 226.5625 C61.67353004 222.76948229 63.00547424 219.71527187 64.6875 216.24609375 C66.61098097 211.63775391 66.76130081 207.26790366 66.75 202.3125 C66.75386719 200.60513672 66.75386719 200.60513672 66.7578125 198.86328125 C66.82137785 196.05501397 66.82137785 196.05501397 65.625 194 C62.9043516 193.0931172 61.30080746 192.86941949 58.50268555 192.85473633 C57.67298752 192.84835648 56.84328949 192.84197662 55.9884491 192.83540344 C55.08862808 192.83429062 54.18880707 192.8331778 53.26171875 192.83203125 C51.84811821 192.82703865 51.84811821 192.82703865 50.40596008 192.82194519 C48.39767951 192.81687317 46.38939048 192.81453695 44.38110352 192.81469727 C41.38998185 192.81255548 38.39925721 192.79453059 35.40820312 192.77539062 C25.49453052 192.74489018 15.65087793 192.98782747 5.76953125 193.82421875 C4.45875862 193.9282476 4.45875862 193.9282476 3.12150574 194.03437805 C-2.21042598 194.54180436 -7.06691229 195.64118108 -12.15924072 197.3026886 C-15.38601755 198.31817268 -18.60858889 198.89670219 -21.9375 199.5 C-26.93067431 200.45945301 -31.63903082 201.6002495 -36.41796875 203.3203125 C-38.93313626 204.19384373 -41.504363 204.78696776 -44.08984375 205.4140625 C-53.28467241 207.77171087 -61.82869877 210.89824824 -70.375 215 C-72.60321185 216.02291576 -74.83240817 217.04368935 -77.0625 218.0625 C-81.88134258 220.28790821 -86.64636604 222.58932386 -91.375 225 C-91.375 224.01 -91.375 223.02 -91.375 222 C-88.9 221.01 -88.9 221.01 -86.375 220 C-86.375 219.34 -86.375 218.68 -86.375 218 C-85.7459375 217.75765625 -85.116875 217.5153125 -84.46875 217.265625 C-80.35420358 215.65450743 -76.3033988 214.02859938 -72.375 212 C-68.7314567 210.12742197 -65.00910815 208.61326484 -61.19140625 207.1328125 C-57.98174077 205.84182361 -54.84380705 204.416246 -51.6875 203 C-45.5675313 200.35155367 -39.47935939 198.5959838 -33.015625 197 C-29.54335851 196.0462444 -26.37608918 194.83620096 -23.0625 193.4375 C-16.50164973 190.80995557 -10.05032633 189.77693383 -3.10546875 188.75 C0.83963051 188.15721728 4.70312942 187.35433618 8.59204102 186.47021484 C21.04940981 183.64082183 33.60514864 182.28585665 46.3671875 181.80078125 C47.09977783 181.76944092 47.83236816 181.73810059 48.5871582 181.70581055 C50.54832707 181.63035467 52.51054197 181.58360999 54.47265625 181.5390625 C58.22730947 180.89700284 59.33823338 179.98916838 61.625 177 C66.32425976 168.95805524 64.77039123 155.14908329 62.6796875 146.390625 C61.88085012 143.49812419 60.9678529 140.64714337 60.0546875 137.7890625 C57.96608998 131.16052844 56.77630559 124.31958953 55.5012207 117.49658203 C54.37587085 111.74156708 52.79930729 106.5767918 50.51000977 101.17871094 C49.46756524 98.6124282 48.84257661 96.1025302 48.375 93.375 C48.15070313 92.11816406 48.15070313 92.11816406 47.921875 90.8359375 C47.82390625 90.23007813 47.7259375 89.62421875 47.625 89 C46.965 89 46.305 89 45.625 89 C45.09390625 87.91460937 44.5628125 86.82921875 44.015625 85.7109375 C43.3023009 84.26551761 42.58874699 82.82021111 41.875 81.375 C41.52695312 80.66214844 41.17890625 79.94929688 40.8203125 79.21484375 C37.27454816 72.05765277 32.83280983 65.85804701 27.875 59.625 C27.36839844 58.98433594 26.86179687 58.34367187 26.33984375 57.68359375 C25.10359362 56.12078698 23.86458287 54.56016464 22.625 53 C19.10794042 53.65271556 15.73174923 54.51393024 12.3125 55.5625 C11.42949219 55.83191406 10.54648437 56.10132813 9.63671875 56.37890625 C8.97285156 56.58386719 8.30898438 56.78882813 7.625 57 C7.625 57.66 7.625 58.32 7.625 59 C6.25214844 59.59748047 6.25214844 59.59748047 4.8515625 60.20703125 C3.66304687 60.73683594 2.47453125 61.26664062 1.25 61.8125 C0.06664062 62.33457031 -1.11671875 62.85664063 -2.3359375 63.39453125 C-5.58858245 64.80405927 -5.58858245 64.80405927 -7.375 68 C-8.97144943 68.67934018 -10.57085482 69.35247895 -12.18359375 69.9921875 C-16.86764346 72.1463494 -21.08824002 75.15680488 -25.375 78 C-26.12136719 78.47050781 -26.86773437 78.94101563 -27.63671875 79.42578125 C-29.77371829 80.77637216 -29.77371829 80.77637216 -32.375 83 C-32.375 84.32 -32.375 85.64 -32.375 87 C-31.715 87 -31.055 87 -30.375 87 C-30.375 87.66 -30.375 88.32 -30.375 89 C-29.715 89 -29.055 89 -28.375 89 C-23.60755814 93.30232558 -23.60755814 93.30232558 -22.375 97 C-21.715 97 -21.055 97 -20.375 97 C-15.375 102.47619048 -15.375 102.47619048 -15.375 105 C-14.4159375 105.37125 -14.4159375 105.37125 -13.4375 105.75 C-11.375 107 -11.375 107 -10.625 109.125 C-10.5425 109.74375 -10.46 110.3625 -10.375 111 C-9.715 111 -9.055 111 -8.375 111 C-7.13818359 112.43701172 -7.13818359 112.43701172 -5.7734375 114.4296875 C-5.03867187 115.49896484 -5.03867187 115.49896484 -4.2890625 116.58984375 C-3.78117188 117.34394531 -3.27328125 118.09804687 -2.75 118.875 C-2.234375 119.62136719 -1.71875 120.36773437 -1.1875 121.13671875 C2.625 126.734437 2.625 126.734437 2.625 129 C3.285 129 3.945 129 4.625 129 C5.285 130.98 5.945 132.96 6.625 135 C7.285 135 7.945 135 8.625 135 C8.295 136.32 7.965 137.64 7.625 139 C6.64402344 139.24234375 5.66304687 139.4846875 4.65234375 139.734375 C-3.64587451 141.79261488 -11.91784104 143.92443456 -20.16796875 146.16796875 C-22.89538946 146.87556998 -25.60606036 147.48375702 -28.375 148 C-28.375 148.66 -28.375 149.32 -28.375 150 C-30.355 150 -32.335 150 -34.375 150 C-34.705 149.01 -35.035 148.02 -35.375 147 C-37.39739937 145.59757507 -39.50313122 144.46401241 -41.66015625 143.28125 C-42.22605469 142.8584375 -42.79195312 142.435625 -43.375 142 C-43.375 141.01 -43.375 140.02 -43.375 139 C-43.9421875 138.7525 -44.509375 138.505 -45.09375 138.25 C-48.59412089 136.33198855 -51.24951276 133.58264565 -54.15625 130.875 C-56.17710453 129.1672356 -57.96362556 128.05223612 -60.375 127 C-60.375 126.34 -60.375 125.68 -60.375 125 C-60.9525 124.731875 -61.53 124.46375 -62.125 124.1875 C-64.375 123 -64.375 123 -66.125 121.4375 C-68.67669472 119.80725059 -70.98711656 118.71915014 -74.02734375 118.41796875 C-81.58013535 120.29045785 -87.88065445 130.33998282 -92.125 136.30859375 C-93.96170912 138.79389077 -96.16609101 140.84368408 -98.375 143 C-101.11084635 145.94243066 -103.76337272 148.94697093 -106.375 152 C-106.92285156 152.63550781 -107.47070312 153.27101562 -108.03515625 153.92578125 C-110.28518574 156.75241997 -111.35696676 158.5401523 -111.5 162.1875 C-110.12271245 165.63071887 -108.34605278 166.86693647 -105.375 169 C-105.375 169.66 -105.375 170.32 -105.375 171 C-104.385 171 -103.395 171 -102.375 171 C-102.375 171.66 -102.375 172.32 -102.375 173 C-101.1684375 173.37125 -101.1684375 173.37125 -99.9375 173.75 C-99.091875 174.1625 -98.24625 174.575 -97.375 175 C-96.71484375 177.078125 -96.71484375 177.078125 -96.375 179 C-104.13814514 186.20450691 -104.13814514 186.20450691 -109.375 188 C-109.849375 188.474375 -110.32375 188.94875 -110.8125 189.4375 C-113.02940851 191.65440851 -115.53283105 192.73009472 -118.375 194 C-119.035 194 -119.695 194 -120.375 194 C-120.375 194.66 -120.375 195.32 -120.375 196 C-121.138125 196.45375 -121.90125 196.9075 -122.6875 197.375 C-125.45416215 198.80589007 -125.45416215 198.80589007 -126.9375 201.1875 C-127.411875 201.785625 -127.88625 202.38375 -128.375 203 C-129.695 203 -131.015 203 -132.375 203 C-132.375 203.66 -132.375 204.32 -132.375 205 C-133.695 205.33 -135.015 205.66 -136.375 206 C-136.375 206.66 -136.375 207.32 -136.375 208 C-144.77113647 203.82973354 -152.60775017 198.98362737 -160.43432617 193.83422852 C-161.49744019 193.13704712 -161.49744019 193.13704712 -162.58203125 192.42578125 C-163.2160083 192.00723877 -163.84998535 191.58869629 -164.50317383 191.1574707 C-166.37043403 189.94880596 -166.37043403 189.94880596 -168.48706055 189.03588867 C-170.375 188 -170.375 188 -172.375 185 C-174.1831337 184.28356967 -175.99764098 183.58036039 -177.8359375 182.9453125 C-182.06060832 181.37243506 -186.0981778 179.39645806 -190.1796875 177.48828125 C-193.59141373 175.89920094 -197.02487931 174.36819101 -200.47265625 172.859375 C-202.4682608 171.95786987 -204.42269177 170.99137256 -206.375 170 C-206.375 169.34 -206.375 168.68 -206.375 168 C-207.37466797 167.85304688 -207.37466797 167.85304688 -208.39453125 167.703125 C-214.44311962 166.72181556 -219.89447319 165.21969594 -225.6015625 163.00390625 C-228.45785066 161.97001039 -231.30114846 161.22337779 -234.25 160.5 C-238.44446524 159.38107703 -241.41695085 158.33973292 -244.375 155 C-245.6875 151.75 -245.6875 151.75 -246.375 149 C-247.035 149 -247.695 149 -248.375 149 C-251.54031954 138.17664932 -249.11926603 125.91503768 -244.0625 116.0625 C-241.67863132 112.10613963 -239.19194388 109.5987703 -235.375 107 C-234.3538208 106.80458618 -234.3538208 106.80458618 -233.31201172 106.60522461 C-231.2560147 106.18304174 -231.2560147 106.18304174 -230.28173828 104.39282227 C-230.00571777 103.70760498 -229.72969727 103.0223877 -229.4453125 102.31640625 C-228.96856079 101.17945313 -228.96856079 101.17945313 -228.48217773 100.01953125 C-228.15805908 99.20871094 -227.83394043 98.39789063 -227.5 97.5625 C-225.28217918 92.22173214 -223.1078385 87.28553819 -219.8125 82.5 C-216.98970133 78.11565313 -217.40001077 75.48264547 -218.23046875 70.484375 C-218.82545092 60.25711384 -206.84136501 49.04853886 -200.45703125 41.83203125 C-192.71342447 33.79413062 -179.92700412 21.58098057 -168.19140625 20.8671875 C-167.44761719 20.86976562 -166.70382813 20.87234375 -165.9375 20.875 C-159.66274919 20.37863912 -154.96169014 17.19913154 -149.7265625 14.01171875 C-139.71092233 8 -139.71092233 8 -134.375 8 C-133.99988281 7.1028125 -133.99988281 7.1028125 -133.6171875 6.1875 C-129.97739461 -0.22219817 -121.53197837 -3.10960749 -114.82421875 -5.12109375 C-103.06086065 -8.11855193 -91.83073134 -9.26833662 -79.6875 -9.3125 C-78.02146729 -9.32071777 -78.02146729 -9.32071777 -76.32177734 -9.32910156 C-69.83663818 -9.27185943 -64.25692038 -8.94096019 -58.375 -6 C-57.04270139 -6.6039349 -55.73426623 -7.26062905 -54.4375 -7.9375 C-37.16691914 -14.98924147 -15.68061358 -8.30301993 0 0 Z " fill="#38AFA6" transform="translate(318.375,89)"/>
<path d="M0 0 C6.48915726 3.63079703 13.77604237 7.79381305 16.625 15 C16.85154275 18.04802972 16.7622558 20.93462043 16.625 24 C13.325 24.66 10.025 25.32 6.625 26 C6.295 26.99 5.965 27.98 5.625 29 C2.98486892 30.86362194 0.38796049 32.09590367 -2.609375 33.30859375 C-6.54092359 34.98266587 -9.9765669 37.16156413 -13.5 39.5625 C-14.47114746 40.21786743 -14.47114746 40.21786743 -15.46191406 40.88647461 C-25.07801845 47.44557854 -34.13534447 54.69292166 -43.03515625 62.1875 C-45.10006232 63.78702657 -46.99696365 64.94553584 -49.375 66 C-49.375 66.66 -49.375 67.32 -49.375 68 C-50.703125 69.33984375 -50.703125 69.33984375 -52.625 70.9375 C-56.34015834 74.09637795 -59.96975342 77.32868282 -63.5625 80.625 C-64.06104492 81.0799585 -64.55958984 81.53491699 -65.07324219 82.00366211 C-75.08555848 91.18605384 -84.05516452 101.27386049 -92.375 112 C-92.77219238 112.50821289 -93.16938477 113.01642578 -93.57861328 113.54003906 C-100.86439168 122.86381704 -107.72952955 132.39633222 -114.1875 142.3125 C-114.57301025 142.8995874 -114.95852051 143.4866748 -115.35571289 144.09155273 C-117.42037968 147.29588263 -119.1002485 150.40506589 -120.375 154 C-122.355 154 -124.335 154 -126.375 154 C-126.375 153.34 -126.375 152.68 -126.375 152 C-127.7053125 151.62875 -127.7053125 151.62875 -129.0625 151.25 C-132.50986008 149.9491094 -134.60793107 148.39314069 -137.375 146 C-140.35762118 144.01158588 -143.35140675 142.46328268 -146.5625 140.875 C-147.64917969 140.33617187 -148.73585937 139.79734375 -149.85546875 139.2421875 C-150.68691406 138.83226562 -151.51835937 138.42234375 -152.375 138 C-152.375 137.34 -152.375 136.68 -152.375 136 C-152.93445313 135.88527344 -153.49390625 135.77054688 -154.0703125 135.65234375 C-156.67931201 134.91386423 -158.85018069 133.82221824 -161.25 132.5625 C-164.16334511 131.06494594 -166.81736052 129.85254649 -169.9375 128.8125 C-170.741875 128.544375 -171.54625 128.27625 -172.375 128 C-172.705 127.34 -173.035 126.68 -173.375 126 C-175.39169827 124.86649466 -175.39169827 124.86649466 -177.375 124 C-177.32901861 111.81493259 -173.79504918 100.59320184 -170.375 89 C-169.715 89 -169.055 89 -168.375 89 C-168.25125 87.7625 -168.1275 86.525 -168 85.25 C-167.67781259 82.02812589 -166.81817981 79.87554928 -165.375 77 C-164.89979123 75.17607731 -164.46586889 73.34114391 -164.0625 71.5 C-162.51292132 65.01413459 -160.09899983 59.07247393 -157.375 53 C-156.715 53 -156.055 53 -155.375 53 C-155.30152344 52.20851562 -155.22804687 51.41703125 -155.15234375 50.6015625 C-154.11756059 45.80724051 -152.09254127 41.75927801 -149.9375 37.375 C-149.52951172 36.529375 -149.12152344 35.68375 -148.70117188 34.8125 C-146.95228069 31.19489148 -145.17603286 27.59192191 -143.375 24 C-144.138125 24.04125 -144.90125 24.0825 -145.6875 24.125 C-148.375 24 -148.375 24 -151.375 22 C-153.5020431 21.72558628 -153.5020431 21.72558628 -155.82421875 21.8046875 C-156.67177734 21.81113281 -157.51933594 21.81757812 -158.39257812 21.82421875 C-159.71418945 21.84935547 -159.71418945 21.84935547 -161.0625 21.875 C-162.40151367 21.88853516 -162.40151367 21.88853516 -163.76757812 21.90234375 C-165.97032314 21.92590252 -168.17252588 21.95879671 -170.375 22 C-170.375 21.67 -170.375 21.34 -170.375 21 C-169.81554687 21.020625 -169.25609375 21.04125 -168.6796875 21.0625 C-161.18156891 20.86962235 -155.94774679 17.79860088 -149.7265625 14.01171875 C-139.71092233 8 -139.71092233 8 -134.375 8 C-133.99988281 7.1028125 -133.99988281 7.1028125 -133.6171875 6.1875 C-129.97739461 -0.22219817 -121.53197837 -3.10960749 -114.82421875 -5.12109375 C-103.06086065 -8.11855193 -91.83073134 -9.26833662 -79.6875 -9.3125 C-78.02146729 -9.32071777 -78.02146729 -9.32071777 -76.32177734 -9.32910156 C-69.83663818 -9.27185943 -64.25692038 -8.94096019 -58.375 -6 C-57.04270139 -6.6039349 -55.73426623 -7.26062905 -54.4375 -7.9375 C-37.16691914 -14.98924147 -15.68061358 -8.30301993 0 0 Z " fill="#3FC5C1" transform="translate(318.375,89)"/>
<path d="M0 0 C3.08720891 1.68723872 5.72499661 3.83341306 8.4375 6.0625 C9.14970703 6.62388672 9.86191406 7.18527344 10.59570312 7.76367188 C21.00915407 16.03957522 30.60168794 24.54318333 38.3125 35.4375 C38.87227539 36.22390869 39.43205078 37.01031738 40.00878906 37.82055664 C53.79092332 57.35702644 65.99188323 78.28188968 70.39257812 102.12719727 C70.91472134 104.35887735 70.91472134 104.35887735 73.8125 106.0625 C78.3184877 109.57436092 79.52694761 114.67022863 81 120 C81.17805176 120.63260742 81.35610352 121.26521484 81.53955078 121.91699219 C83.21895145 128.51152887 83.38432894 134.96884213 83.375 141.75 C83.37367065 143.47609497 83.37367065 143.47609497 83.37231445 145.23706055 C83.22587122 155.73116746 81.64012014 163.9984329 76 173 C76.474375 173.7425 76.94875 174.485 77.4375 175.25 C81.56470198 182.51387549 80.07030608 190.8347255 78.0625 198.6484375 C74.38549069 209.80041968 68.32952387 218.83312095 58.23046875 225.09765625 C56 226 56 226 52.52734375 226.2578125 C48.84022211 226.67927914 48.84022211 226.67927914 46.62890625 229.5546875 C45.94699219 230.65039062 45.26507813 231.74609375 44.5625 232.875 C43.79268853 234.06706677 43.0218372 235.2584626 42.25 236.44921875 C41.87230469 237.04782715 41.49460937 237.64643555 41.10546875 238.26318359 C34.01066404 249.40992403 25.54777289 258.58614292 14.953125 266.4765625 C12.79688762 268.08185564 12.79688762 268.08185564 10.4375 270.6875 C7.82603723 273.1650416 5.51600862 274.28373991 2.29296875 275.77734375 C-0.45365672 277.24189873 -2.8248762 279.0048463 -5.3125 280.875 C-13.01211106 286.58039046 -20.20783055 291.63048417 -30 292 C-30 292.33 -30 292.66 -30 293 C-31.65 293 -33.3 293 -35 293 C-35.50744423 291.10614563 -36.00564574 289.20981334 -36.5 287.3125 C-36.7784375 286.25675781 -37.056875 285.20101563 -37.34375 284.11328125 C-37.94948778 281.23963239 -38.30450985 278.91530741 -38 276 C-35.6875 273.1875 -35.6875 273.1875 -33 271 C-32.01 271 -31.02 271 -30 271 C-30 270.34 -30 269.68 -30 269 C-28.1015625 267.4921875 -28.1015625 267.4921875 -25.625 265.875 C-24.40683594 265.06675781 -24.40683594 265.06675781 -23.1640625 264.2421875 C-21 263 -21 263 -19 263 C-19 262.34 -19 261.68 -19 261 C-17.83238833 260.05170163 -16.61149022 259.1690505 -15.375 258.3125 C-10.57534236 254.70892318 -6.56840887 250.57282637 -2.5 246.1875 C-1.87657715 245.5169458 -1.2531543 244.8463916 -0.61083984 244.15551758 C2.55128946 240.83066943 2.55128946 240.83066943 5 237 C5.66 237 6.32 237 7 237 C7.2475 236.29875 7.495 235.5975 7.75 234.875 C9.17180238 231.60485452 10.87246288 228.858878 13 226 C13.66 226 14.32 226 15 226 C15.33 224.35 15.66 222.7 16 221 C20.29 220.67 24.58 220.34 29 220 C29 219.34 29 218.68 29 218 C29.61875 217.938125 30.2375 217.87625 30.875 217.8125 C31.57625 217.544375 32.2775 217.27625 33 217 C33.70211894 215.34795544 34.36971413 213.68076231 35 212 C35.99 211.67 36.98 211.34 38 211 C39.22520264 207.99152582 39.22520264 207.99152582 40 205 C40.66 205 41.32 205 42 205 C42.0825 204.195625 42.165 203.39125 42.25 202.5625 C43.04853004 198.76948229 44.38047424 195.71527187 46.0625 192.24609375 C47.98598097 187.63775391 48.13630081 183.26790366 48.125 178.3125 C48.12757813 177.17425781 48.13015625 176.03601563 48.1328125 174.86328125 C48.19637785 172.05501397 48.19637785 172.05501397 47 170 C44.2793516 169.0931172 42.67580746 168.86941949 39.87768555 168.85473633 C39.04798752 168.84835648 38.21828949 168.84197662 37.3634491 168.83540344 C36.46362808 168.83429062 35.56380707 168.8331778 34.63671875 168.83203125 C33.22311821 168.82703865 33.22311821 168.82703865 31.78096008 168.82194519 C29.77267951 168.81687317 27.76439048 168.81453695 25.75610352 168.81469727 C22.76498185 168.81255548 19.77425721 168.79453059 16.78320312 168.77539062 C6.86953052 168.74489018 -2.97412207 168.98782747 -12.85546875 169.82421875 C-14.16624138 169.9282476 -14.16624138 169.9282476 -15.50349426 170.03437805 C-20.83542598 170.54180436 -25.69191229 171.64118108 -30.78424072 173.3026886 C-34.01101755 174.31817268 -37.23358889 174.89670219 -40.5625 175.5 C-45.55567431 176.45945301 -50.26403082 177.6002495 -55.04296875 179.3203125 C-57.55813626 180.19384373 -60.129363 180.78696776 -62.71484375 181.4140625 C-71.90967241 183.77171087 -80.45369877 186.89824824 -89 191 C-91.22821185 192.02291576 -93.45740817 193.04368935 -95.6875 194.0625 C-100.50634258 196.28790821 -105.27136604 198.58932386 -110 201 C-110 200.01 -110 199.02 -110 198 C-107.525 197.01 -107.525 197.01 -105 196 C-105 195.34 -105 194.68 -105 194 C-104.3709375 193.75765625 -103.741875 193.5153125 -103.09375 193.265625 C-98.97920358 191.65450743 -94.9283988 190.02859938 -91 188 C-87.3564567 186.12742197 -83.63410815 184.61326484 -79.81640625 183.1328125 C-76.60674077 181.84182361 -73.46880705 180.416246 -70.3125 179 C-64.1925313 176.35155367 -58.10435939 174.5959838 -51.640625 173 C-48.16835851 172.0462444 -45.00108918 170.83620096 -41.6875 169.4375 C-35.12664973 166.80995557 -28.67532633 165.77693383 -21.73046875 164.75 C-17.78536949 164.15721728 -13.92187058 163.35433618 -10.03295898 162.47021484 C2.42440981 159.64082183 14.98014864 158.28585665 27.7421875 157.80078125 C28.47477783 157.76944092 29.20736816 157.73810059 29.9621582 157.70581055 C31.92332707 157.63035467 33.88554197 157.58360999 35.84765625 157.5390625 C39.60230947 156.89700284 40.71323338 155.98916838 43 153 C47.69925976 144.95805524 46.14539123 131.14908329 44.0546875 122.390625 C43.25585012 119.49812419 42.3428529 116.64714337 41.4296875 113.7890625 C39.34108998 107.16052844 38.15130559 100.31958953 36.8762207 93.49658203 C35.75087085 87.74156708 34.17430729 82.5767918 31.88500977 77.17871094 C30.84256524 74.6124282 30.21757661 72.1025302 29.75 69.375 C29.52570313 68.11816406 29.52570313 68.11816406 29.296875 66.8359375 C29.19890625 66.23007813 29.1009375 65.62421875 29 65 C28.34 65 27.68 65 27 65 C26.46890625 63.91460937 25.9378125 62.82921875 25.390625 61.7109375 C24.6773009 60.26551761 23.96374699 58.82021111 23.25 57.375 C22.72792969 56.30572266 22.72792969 56.30572266 22.1953125 55.21484375 C18.64954816 48.05765277 14.20780983 41.85804701 9.25 35.625 C8.74339844 34.98433594 8.23679687 34.34367187 7.71484375 33.68359375 C6.47859362 32.12078698 5.23958287 30.56016464 4 29 C0.48294042 29.65271556 -2.89325077 30.51393024 -6.3125 31.5625 C-7.19550781 31.83191406 -8.07851563 32.10132813 -8.98828125 32.37890625 C-9.65214844 32.58386719 -10.31601562 32.78882813 -11 33 C-11 33.66 -11 34.32 -11 35 C-11.91523438 35.39832031 -12.83046875 35.79664063 -13.7734375 36.20703125 C-15.55621094 37.00173828 -15.55621094 37.00173828 -17.375 37.8125 C-18.55835938 38.33457031 -19.74171875 38.85664063 -20.9609375 39.39453125 C-24.21358245 40.80405927 -24.21358245 40.80405927 -26 44 C-27.59644943 44.67934018 -29.19585482 45.35247895 -30.80859375 45.9921875 C-36.96699055 48.82439138 -42.60843099 52.94088576 -48.0625 56.9375 C-51 59 -51 59 -53 59 C-53 59.66 -53 60.32 -53 61 C-54.051875 61.556875 -55.10375 62.11375 -56.1875 62.6875 C-58.85498372 64.19333758 -60.4643868 65.4643868 -62.6875 67.6875 C-65.08577101 70.08577101 -65.89695344 70.25098876 -69 71 C-70.28436734 72.9837767 -70.28436734 72.9837767 -71 75 C-72.32 75 -73.64 75 -75 75 C-75.25136719 75.58910156 -75.50273437 76.17820312 -75.76171875 76.78515625 C-77.15455401 79.27644202 -78.6208572 80.62300414 -80.8125 82.4375 C-83.34746555 84.54845153 -85.40366842 86.47258742 -87.5625 89 C-90 91 -90 91 -93.8125 90.8125 C-94.864375 90.544375 -95.91625 90.27625 -97 90 C-97 89.34 -97 88.68 -97 88 C-99.97 87.01 -102.94 86.02 -106 85 C-104.747167 78.59571552 -102.00221856 75.17702987 -97.5 70.5625 C-96.60861328 69.60827148 -96.60861328 69.60827148 -95.69921875 68.63476562 C-92.47631992 65.24817554 -92.47631992 65.24817554 -91 64 C-90.34 64 -89.68 64 -89 64 C-88.61606079 63.12251099 -88.61606079 63.12251099 -88.22436523 62.22729492 C-86.88273752 59.78668284 -85.43750774 58.26521379 -83.41015625 56.36328125 C-82.70826172 55.70392578 -82.00636719 55.04457031 -81.28320312 54.36523438 C-80.55037109 53.68783203 -79.81753906 53.01042969 -79.0625 52.3125 C-78.33353516 51.62349609 -77.60457031 50.93449219 -76.85351562 50.22460938 C-71.38720902 45.12906967 -71.38720902 45.12906967 -68 44 C-68 43.34 -68 42.68 -68 42 C-66.49576101 40.60126876 -64.91734851 39.28204731 -63.3125 38 C-62.30960937 37.19820312 -61.30671875 36.39640625 -60.2734375 35.5703125 C-59.18317796 34.71241412 -58.09201667 33.85566061 -57 33 C-56.46020508 32.57557617 -55.92041016 32.15115234 -55.36425781 31.71386719 C-48.39738571 26.25087565 -41.32278187 20.97949167 -34 16 C-32.99710937 15.30648437 -31.99421875 14.61296875 -30.9609375 13.8984375 C-22.14641916 7.88356766 -22.14641916 7.88356766 -18.0625 6.25 C-14.82541201 4.92873959 -12.66922304 3.22435254 -10 1 C-6.26585977 -0.24471341 -3.94037601 -0.45296286 0 0 Z " fill="#229C93" transform="translate(337,113)"/>
<path d="M0 0 C1.66603271 -0.00821777 1.66603271 -0.00821777 3.36572266 -0.01660156 C9.07420276 0.03378527 13.92929205 0.38838149 19.3125 2.3125 C20.3025 2.6425 21.2925 2.9725 22.3125 3.3125 C21.5 5.25 21.5 5.25 20.3125 7.3125 C19.3225 7.6425 18.3325 7.9725 17.3125 8.3125 C17.3125 8.9725 17.3125 9.6325 17.3125 10.3125 C15.64583333 11.64583333 13.97916667 12.97916667 12.3125 14.3125 C9.66571339 17.10592299 7.54764908 19.60705276 6.3125 23.3125 C4.25033068 25.76746347 2.14586981 26.8958151 -0.6875 28.3125 C-1.0175 28.9725 -1.3475 29.6325 -1.6875 30.3125 C-2.3475 30.3125 -3.0075 30.3125 -3.6875 30.3125 C-3.77 30.89 -3.8525 31.4675 -3.9375 32.0625 C-4.90148944 34.95446832 -6.53471823 36.15971823 -8.6875 38.3125 C-10.14126413 40.59417048 -11.40325372 42.92747119 -12.6875 45.3125 C-13.3475 45.3125 -14.0075 45.3125 -14.6875 45.3125 C-15.0175 46.3025 -15.3475 47.2925 -15.6875 48.3125 C-17.35416667 49.97916667 -19.02083333 51.64583333 -20.6875 53.3125 C-24.89819844 58.40523087 -24.89819844 58.40523087 -27.6875 64.3125 C-28.3475 64.3125 -29.0075 64.3125 -29.6875 64.3125 C-29.93628906 65.00472656 -30.18507813 65.69695312 -30.44140625 66.41015625 C-31.87801263 69.75623319 -33.67877233 72.67300318 -35.625 75.75 C-38.21628078 79.85245761 -40.58304182 83.93865745 -42.6875 88.3125 C-43.3475 88.3125 -44.0075 88.3125 -44.6875 88.3125 C-44.78546875 88.89257812 -44.8834375 89.47265625 -44.984375 90.0703125 C-45.99679656 95.35934235 -47.4394331 98.91189324 -50.6875 103.3125 C-51.1825 104.7975 -51.1825 104.7975 -51.6875 106.3125 C-52.3475 106.3125 -53.0075 106.3125 -53.6875 106.3125 C-53.96335938 107.15039062 -54.23921875 107.98828125 -54.5234375 108.8515625 C-55.74377945 112.4798275 -57.0207102 116.08408635 -58.3125 119.6875 C-58.54195312 120.32816406 -58.77140625 120.96882813 -59.0078125 121.62890625 C-59.56712276 123.19031405 -60.12722808 124.75143701 -60.6875 126.3125 C-61.3475 126.3125 -62.0075 126.3125 -62.6875 126.3125 C-63.1678318 127.89548026 -63.64671612 129.47889978 -64.125 131.0625 C-64.39183594 131.94421875 -64.65867188 132.8259375 -64.93359375 133.734375 C-65.57218494 135.91815835 -66.15525833 138.10085498 -66.6875 140.3125 C-67.3475 140.3125 -68.0075 140.3125 -68.6875 140.3125 C-69.1825 143.2825 -69.1825 143.2825 -69.6875 146.3125 C-74.16955969 145.7786076 -77.30595133 144.65596754 -81.1875 142.375 C-84.97563801 140.21256155 -88.51964621 138.62866435 -92.6875 137.3125 C-93.0175 136.6525 -93.3475 135.9925 -93.6875 135.3125 C-95.70419827 134.17899466 -95.70419827 134.17899466 -97.6875 133.3125 C-97.64151861 121.12743259 -94.10754918 109.90570184 -90.6875 98.3125 C-90.0275 98.3125 -89.3675 98.3125 -88.6875 98.3125 C-88.56375 97.075 -88.44 95.8375 -88.3125 94.5625 C-87.99031259 91.34062589 -87.13067981 89.18804928 -85.6875 86.3125 C-85.21229123 84.48857731 -84.77836889 82.65364391 -84.375 80.8125 C-82.82542132 74.32663459 -80.41149983 68.38497393 -77.6875 62.3125 C-77.0275 62.3125 -76.3675 62.3125 -75.6875 62.3125 C-75.61402344 61.52101562 -75.54054687 60.72953125 -75.46484375 59.9140625 C-74.43006059 55.11974051 -72.40504127 51.07177801 -70.25 46.6875 C-69.84201172 45.841875 -69.43402344 44.99625 -69.01367188 44.125 C-67.26478069 40.50739148 -65.48853286 36.90442191 -63.6875 33.3125 C-64.450625 33.35375 -65.21375 33.395 -66 33.4375 C-68.6875 33.3125 -68.6875 33.3125 -71.6875 31.3125 C-73.8145431 31.03808628 -73.8145431 31.03808628 -76.13671875 31.1171875 C-76.98427734 31.12363281 -77.83183594 31.13007812 -78.70507812 31.13671875 C-80.02668945 31.16185547 -80.02668945 31.16185547 -81.375 31.1875 C-82.71401367 31.20103516 -82.71401367 31.20103516 -84.08007812 31.21484375 C-86.28282314 31.23840252 -88.48502588 31.27129671 -90.6875 31.3125 C-90.6875 30.9825 -90.6875 30.6525 -90.6875 30.3125 C-90.12804687 30.333125 -89.56859375 30.35375 -88.9921875 30.375 C-81.49406891 30.18212235 -76.26024679 27.11110088 -70.0390625 23.32421875 C-60.02342233 17.3125 -60.02342233 17.3125 -54.6875 17.3125 C-54.31238281 16.4153125 -54.31238281 16.4153125 -53.9296875 15.5 C-50.28989461 9.09030183 -41.84447837 6.20289251 -35.13671875 4.19140625 C-23.37336065 1.19394807 -12.14323134 0.04416338 0 0 Z " fill="#79DCD7" transform="translate(238.6875,79.6875)"/>
<path d="M0 0 C0.391875 0.556875 0.78375 1.11375 1.1875 1.6875 C5.47962839 7.16366381 9.06302664 9.80858614 15.8125 11.5 C17.31812004 11.90864235 18.82331829 12.31884145 20.328125 12.73046875 C21.09576172 12.93591309 21.86339844 13.14135742 22.65429688 13.35302734 C26.48709336 14.41015793 30.27304954 15.61072615 34.0625 16.8125 C35.40754626 17.23569559 36.75259778 17.65887446 38.09765625 18.08203125 C39.53431641 18.53642578 39.53431641 18.53642578 41 19 C41 19.66 41 20.32 41 21 C41.64066406 21.17015625 42.28132813 21.3403125 42.94140625 21.515625 C47.7141732 22.8528533 51.90267939 24.27993958 56.16015625 26.89453125 C61.36178754 30.01992754 66.82323928 32.66048603 72.5625 34.625 C73.696875 35.07875 74.83125 35.5325 76 36 C76.33 36.99 76.66 37.98 77 39 C78.98375801 39.71354651 80.9869585 40.37381444 83 41 C85.54541016 42.48046875 85.54541016 42.48046875 88.0390625 44.1875 C88.94914062 44.80367188 89.85921875 45.41984375 90.796875 46.0546875 C91.73015625 46.69664062 92.6634375 47.33859375 93.625 48 C95.49081682 49.2728449 97.35795386 50.5437572 99.2265625 51.8125 C100.04721191 52.37582031 100.86786133 52.93914062 101.71337891 53.51953125 C103.76088516 54.84518552 105.79545719 55.96256809 108 57 C107.67 58.65 107.34 60.3 107 62 C106.34 62 105.68 62 105 62 C105 62.66 105 63.32 105 64 C103.30447324 65.23008804 101.60440098 66.45472897 99.875 67.63671875 C97.31251732 69.4998572 95.20628896 71.73408161 93 74 C89.37931034 77 89.37931034 77 87 77 C86.505 78.485 86.505 78.485 86 80 C85.34 80 84.68 80 84 80 C83.505 81.485 83.505 81.485 83 83 C82.34 83 81.68 83 81 83 C81 83.66 81 84.32 81 85 C80.34 85 79.68 85 79 85 C78.5978125 85.8971875 78.5978125 85.8971875 78.1875 86.8125 C76.9624691 89.06913586 76.0220917 90.42519126 74 92 C71.94921875 91.92578125 71.94921875 91.92578125 69.6875 91.3125 C68.89859375 91.10496094 68.1096875 90.89742188 67.296875 90.68359375 C64.50645653 89.85311206 61.74042118 88.98374094 59 88 C59 87.34 59 86.68 59 86 C58.278125 86.061875 57.55625 86.12375 56.8125 86.1875 C54 86 54 86 51.7265625 84.609375 C48.70106193 82.82354945 45.95134076 81.97533225 42.5625 81.0625 C41.34433594 80.72863281 40.12617187 80.39476562 38.87109375 80.05078125 C38.23929199 79.8801416 37.60749023 79.70950195 36.95654297 79.53369141 C33.67037359 78.63731428 30.39853568 77.69126281 27.125 76.75 C25.95195313 76.41484375 24.77890625 76.0796875 23.5703125 75.734375 C22.29800781 75.37085938 22.29800781 75.37085938 21 75 C21.33 77.31 21.66 79.62 22 82 C23.65 82 25.3 82 27 82 C28 85 28 85 27 88 C26.96125079 89.66621616 26.9549714 91.33394172 27 93 C23.51226641 88.81266203 21.82208639 84.00352413 19.79296875 78.99609375 C17.63645221 75.39250293 15.81278281 74.5945279 12 73 C2.9738338 65.07458577 -2.38770032 54.35340551 -3.17700195 42.29614258 C-3.24376566 39.13484102 -3.28484499 35.97438935 -3.3125 32.8125 C-3.34150391 31.72646484 -3.37050781 30.64042969 -3.40039062 29.52148438 C-3.45686483 22.28844186 -2.50819078 16.39947684 1 10 C1.66 9.34 2.32 8.68 3 8 C2.505 7.236875 2.01 6.47375 1.5 5.6875 C0 3 0 3 0 0 Z " fill="#7ADCD7" transform="translate(71,238)"/>
<path d="M0 0 C2.0859375 0.15234375 2.0859375 0.15234375 4.0859375 2.15234375 C6.65655061 2.80002168 6.65655061 2.80002168 9.0859375 3.15234375 C8.40773846 6.35535989 7.27181724 9.05844738 5.8359375 11.99609375 C5.17078125 13.37087891 5.17078125 13.37087891 4.4921875 14.7734375 C3.5546875 16.69270833 2.6171875 18.61197917 1.6796875 20.53125 C1.01453125 21.90603516 1.01453125 21.90603516 0.3359375 23.30859375 C-0.07140625 24.14197266 -0.47875 24.97535156 -0.8984375 25.83398438 C-1.82191435 27.94199787 -2.43851744 29.90642714 -2.9140625 32.15234375 C-3.5740625 32.15234375 -4.2340625 32.15234375 -4.9140625 32.15234375 C-5.09582031 32.78140625 -5.27757812 33.41046875 -5.46484375 34.05859375 C-6.67735355 38.18734506 -7.91090883 42.26735323 -9.4765625 46.27734375 C-10.7110181 49.47541525 -11.5912941 52.65421038 -12.375 55.98828125 C-13.39610278 60.08749094 -14.6731548 64.11525738 -15.9140625 68.15234375 C-16.5740625 68.15234375 -17.2340625 68.15234375 -17.9140625 68.15234375 C-18.02363281 68.81878906 -18.13320312 69.48523438 -18.24609375 70.171875 C-19.08605216 75.05456009 -20.05034848 79.78028825 -21.4765625 84.52734375 C-23.23581788 90.66696734 -23.62096563 96.79517371 -23.9140625 103.15234375 C-21.9340625 104.14234375 -21.9340625 104.14234375 -19.9140625 105.15234375 C-20.9040625 105.64734375 -20.9040625 105.64734375 -21.9140625 106.15234375 C-23.578125 105.48046875 -23.578125 105.48046875 -25.5390625 104.40234375 C-33.60483199 100.18909743 -42.22638766 97.76129488 -50.9140625 95.15234375 C-50.9140625 94.49234375 -50.9140625 93.83234375 -50.9140625 93.15234375 C-51.49671875 93.11496094 -52.079375 93.07757813 -52.6796875 93.0390625 C-57.63227621 92.64192095 -62.23729381 91.88497729 -67.0390625 90.58984375 C-73.39523005 88.94375933 -78.14906618 87.89552724 -84.3515625 90.71484375 C-87.58959126 93.79491989 -87.58536995 95.79716746 -87.9140625 100.15234375 C-89.9140625 101.15234375 -91.9140625 102.15234375 -93.9140625 103.15234375 C-93.33145087 96.93781972 -89.76824127 91.91607478 -85.3515625 87.71484375 C-82.9140625 86.15234375 -82.9140625 86.15234375 -80.88232422 85.78491211 C-78.79943846 85.33812261 -78.79943846 85.33812261 -77.82080078 83.54516602 C-77.54478027 82.85994873 -77.26875977 82.17473145 -76.984375 81.46875 C-76.50762329 80.33179688 -76.50762329 80.33179688 -76.02124023 79.171875 C-75.69712158 78.36105469 -75.37300293 77.55023438 -75.0390625 76.71484375 C-72.82124168 71.37407589 -70.646901 66.43788194 -67.3515625 61.65234375 C-64.52876383 57.26799688 -64.93907327 54.63498922 -65.76953125 49.63671875 C-66.36451342 39.40945759 -54.38042751 28.20088261 -47.99609375 20.984375 C-37.91212572 10.51716828 -26.32759129 1.35175275 -11.5390625 0.58984375 C-10.78367187 0.54666016 -10.02828125 0.50347656 -9.25 0.45898438 C-6.16741687 0.28922674 -3.083051 0.16117827 0 0 Z " fill="#38AFA6" transform="translate(165.9140625,109.84765625)"/>
<path d="M0 0 C0.99 1.98 0.99 1.98 2 4 C2.66 4 3.32 4 4 4 C4 4.66 4 5.32 4 6 C4.66 6 5.32 6 6 6 C10.76744186 10.30232558 10.76744186 10.30232558 12 14 C12.66 14 13.32 14 14 14 C19 19.47619048 19 19.47619048 19 22 C19.639375 22.2475 20.27875 22.495 20.9375 22.75 C23 24 23 24 23.75 26.125 C23.8325 26.74375 23.915 27.3625 24 28 C24.66 28 25.32 28 26 28 C27.23681641 29.43701172 27.23681641 29.43701172 28.6015625 31.4296875 C29.09140625 32.14253906 29.58125 32.85539062 30.0859375 33.58984375 C30.59382813 34.34394531 31.10171875 35.09804687 31.625 35.875 C32.140625 36.62136719 32.65625 37.36773437 33.1875 38.13671875 C37 43.734437 37 43.734437 37 46 C37.66 46 38.32 46 39 46 C39.99 48.97 39.99 48.97 41 52 C41.66 52 42.32 52 43 52 C42.67 53.32 42.34 54.64 42 56 C41.01902344 56.24234375 40.03804688 56.4846875 39.02734375 56.734375 C30.72912549 58.79261488 22.45715896 60.92443456 14.20703125 63.16796875 C11.47961054 63.87556998 8.76893964 64.48375702 6 65 C6 65.66 6 66.32 6 67 C4.02 67 2.04 67 0 67 C-0.33 66.01 -0.66 65.02 -1 64 C-3.02239937 62.59757507 -5.12813122 61.46401241 -7.28515625 60.28125 C-7.85105469 59.8584375 -8.41695313 59.435625 -9 59 C-9 58.01 -9 57.02 -9 56 C-9.5671875 55.7525 -10.134375 55.505 -10.71875 55.25 C-14.21912089 53.33198855 -16.87451276 50.58264565 -19.78125 47.875 C-21.80210453 46.1672356 -23.58862556 45.05223612 -26 44 C-26 43.34 -26 42.68 -26 42 C-26.5775 41.731875 -27.155 41.46375 -27.75 41.1875 C-30 40 -30 40 -31.75 38.4375 C-34.30169472 36.80725059 -36.61211656 35.71915014 -39.65234375 35.41796875 C-47.20513535 37.29045785 -53.50565445 47.33998282 -57.75 53.30859375 C-59.58670912 55.79389077 -61.79109101 57.84368408 -64 60 C-69.31905431 65.62868741 -73.89888051 71.42888809 -78 78 C-81.81583379 77.34820749 -84.02881405 76.53101025 -87 74 C-83.94307976 58.7153988 -71.29722545 45.02199532 -62 33 C-61.57702637 32.45166504 -61.15405273 31.90333008 -60.71826172 31.33837891 C-54.42420316 23.21210158 -54.42420316 23.21210158 -52 22 C-52.33 23.32 -52.66 24.64 -53 26 C-52.2575 26.12375 -51.515 26.2475 -50.75 26.375 C-48.19858515 26.95486701 -46.2732427 27.73708739 -44 29 C-44 29.66 -44 30.32 -44 31 C-40.71000718 31.41831404 -40.71000718 31.41831404 -37 31 C-34.45757422 28.9614968 -34.45757422 28.9614968 -32 26 C-29.65534595 23.89303425 -27.27360945 21.83294328 -24.890625 19.76953125 C-22.92091997 18.13136012 -22.92091997 18.13136012 -22 16 C-20.33333333 15.33333333 -18.66666667 14.66666667 -17 14 C-16.67 13.34 -16.34 12.68 -16 12 C-14.28365243 11.04280616 -12.56617528 10.08750537 -10.83984375 9.1484375 C-8.71824549 7.92018203 -8.71824549 7.92018203 -6.3125 5.3125 C-4.06519042 3.06519042 -3.08783226 2.34309247 0 2 C0 1.34 0 0.68 0 0 Z " fill="#36AEA6" transform="translate(284,172)"/>
<path d="M0 0 C4.49403163 7.52192529 7.75084587 15.18658458 10.703125 23.3984375 C11.47680097 25.54701956 12.28727737 27.68372015 13.171875 29.7890625 C14 32 14 32 14 35 C14.66 35 15.32 35 16 35 C17.13764351 39.26616316 18 42.56486311 18 47 C18.99 47.33 19.98 47.66 21 48 C21.72054048 53.66138945 22.38273804 59.32644329 23 65 C23.59296875 64.67257812 24.1859375 64.34515625 24.796875 64.0078125 C27.6240243 62.71454208 29.92768711 62.86034941 33 63 C30.61426621 64.89213369 28.92824652 66.02391783 26 67 C25.62875 68.6396875 25.62875 68.6396875 25.25 70.3125 C23.81925146 74.5332082 23.81925146 74.5332082 20.625 76.375 C12.55653937 79.99189615 3.60039591 79.91119909 -5 78 C-5.15855469 77.31035156 -5.31710937 76.62070312 -5.48046875 75.91015625 C-6.88503543 70.25308934 -8.55116403 65.42551032 -11.62109375 60.4609375 C-12.85314983 58.26208388 -13.83830119 56.09909196 -14.828125 53.78515625 C-16.94342317 48.9541586 -19.52565644 44.53239559 -22.3125 40.0625 C-22.7967041 39.27834717 -23.2809082 38.49419434 -23.77978516 37.6862793 C-27.77897256 31.25468571 -31.99035772 25.01285638 -36.53515625 18.953125 C-40 14.28185933 -40 14.28185933 -40 11 C-31.96034007 6.9352055 -23.66385073 4.7646988 -14.9375 2.6875 C-13.81867432 2.42114746 -12.69984863 2.15479492 -11.54711914 1.88037109 C-3.43732431 0 -3.43732431 0 0 0 Z " fill="#38AFA6" transform="translate(279,341)"/>
<path d="M0 0 C2.01928055 2.10760504 3.40201958 3.83491048 4.9375 6.25 C5.3593457 6.87680664 5.78119141 7.50361328 6.21582031 8.14941406 C7.50472813 10.08326144 8.75724264 12.03623467 10 14 C10.37334473 14.58523438 10.74668945 15.17046875 11.13134766 15.7734375 C13.48277283 19.47936043 15.74561487 23.2345938 18 27 C18.556875 27.88558594 19.11375 28.77117187 19.6875 29.68359375 C22.7127062 34.53148668 24.99833768 39.27536031 26.99609375 44.625 C28.00092244 47.00218228 29.19097662 48.98441699 30.625 51.125 C33.18234816 54.99240075 34.07837941 58.46869878 35 63 C35.33 63.99 35.66 64.98 36 66 C31.48505048 70.63376398 29.70533798 72.15365167 23.25 72.25 C18.37864829 72.19761987 15.07536457 71.88257494 11 69 C10.2675708 68.15671143 9.5351416 67.31342285 8.78051758 66.44458008 C5.33194683 63.4126599 3.48674924 63.28661379 -1.05078125 63.07421875 C-1.70958786 63.0369014 -2.36839447 62.99958405 -3.04716492 62.96113586 C-5.1351782 62.84789215 -7.22296579 62.76722747 -9.3125 62.6875 C-10.73513573 62.61608482 -12.1576662 62.54253888 -13.58007812 62.46679688 C-17.05250941 62.28653059 -20.52549789 62.13542788 -24 62 C-20.49714126 59.66476084 -19.34370062 59.81504058 -15.23828125 60.0234375 C-14.12001953 60.075 -13.00175781 60.1265625 -11.84960938 60.1796875 C-10.68236328 60.24414062 -9.51511719 60.30859375 -8.3125 60.375 C-7.13365234 60.43171875 -5.95480469 60.4884375 -4.74023438 60.546875 C-1.82621648 60.68844672 1.08695257 60.83986942 4 61 C3.51104248 60.20424561 3.02208496 59.40849121 2.51831055 58.58862305 C1.35205078 56.69059245 0.18579102 54.79256185 -0.98046875 52.89453125 C-3.07956364 49.88596391 -5.35987173 47.54012342 -8 45 C-9.69931976 43.17761702 -11.38676119 41.34408969 -13.0625 39.5 C-13.89910156 38.5821875 -14.73570312 37.664375 -15.59765625 36.71875 C-22 29.47317073 -22 29.47317073 -22 27 C-22.56074219 26.92394531 -23.12148437 26.84789062 -23.69921875 26.76953125 C-26.81947227 25.72591505 -28.48027243 23.98958569 -30.8125 21.6875 C-31.62332031 20.90761719 -32.43414062 20.12773437 -33.26953125 19.32421875 C-35 17 -35 17 -34.99609375 14.87109375 C-32.4460778 10.08106379 -25.87218219 7.78250568 -21 6 C-14.97551266 3.49133243 -14.97551266 3.49133243 -9.375 0.1875 C-5.85011457 -1.57494271 -3.77018093 -0.99384706 0 0 Z " fill="#77DBD6" transform="translate(240,355)"/>
<path d="M0 0 C1.32700717 3.98102152 1.03374068 7.84989611 1 12 C2.01199463 12.03758423 2.01199463 12.03758423 3.04443359 12.07592773 C6.15475193 12.1932631 9.26486696 12.31535527 12.375 12.4375 C13.43589844 12.47681641 14.49679688 12.51613281 15.58984375 12.55664062 C22.09206713 12.81593174 28.53417092 13.26216036 35 14 C35 14.66 35 15.32 35 16 C39.62 16 44.24 16 49 16 C49.33 15.01 49.66 14.02 50 13 C50.495 13.99 50.495 13.99 51 15 C50.27931168 16.73620367 49.55252881 18.47067912 48.76953125 20.1796875 C47.82647752 22.41046435 47.36199988 24.61080078 47 27 C46.34 27 45.68 27 45 27 C44.89042969 27.66644531 44.78085938 28.33289063 44.66796875 29.01953125 C43.82801034 33.90221634 42.86371402 38.6279445 41.4375 43.375 C39.67824462 49.51462359 39.29309687 55.64282996 39 62 C40.32 62.66 41.64 63.32 43 64 C42.01 64.495 42.01 64.495 41 65 C39.3359375 64.328125 39.3359375 64.328125 37.375 63.25 C29.30923051 59.03675368 20.68767484 56.60895113 12 54 C12 53.34 12 52.68 12 52 C11.41734375 51.96261719 10.8346875 51.92523438 10.234375 51.88671875 C5.28178629 51.4895772 0.67676869 50.73263354 -4.125 49.4375 C-10.48116755 47.79141558 -15.23500368 46.74318349 -21.4375 49.5625 C-24.67552876 52.64257614 -24.67130745 54.64482371 -25 59 C-27 60 -29 61 -31 62 C-30.41738837 55.78547597 -26.85417877 50.76373103 -22.4375 46.5625 C-20 45 -20 45 -17.96826172 44.63256836 C-15.88537596 44.18577886 -15.88537596 44.18577886 -14.90673828 42.39282227 C-14.49270752 41.36499634 -14.49270752 41.36499634 -14.0703125 40.31640625 C-13.75247803 39.5584375 -13.43464355 38.80046875 -13.10717773 38.01953125 C-12.78305908 37.20871094 -12.45894043 36.39789063 -12.125 35.5625 C-9.90717918 30.22173214 -7.7328385 25.28553819 -4.4375 20.5 C-1.62739597 16.14208465 -1.85137586 13.27028194 -2.765625 8.2734375 C-3.11332122 4.9007842 -1.81721823 2.7621717 0 0 Z " fill="#40C5C1" transform="translate(103,151)"/>
<path d="M0 0 C2.9719385 1.12451727 5.33440687 2.22293791 8 4 C8 4.66 8 5.32 8 6 C8.66 6 9.32 6 10 6 C10 6.66 10 7.32 10 8 C11.32 8 12.64 8 14 8 C14.495 9.98 14.495 9.98 15 12 C15.66 12 16.32 12 17 12 C17 12.66 17 13.32 17 14 C15.00715862 15.3440093 13.00580329 16.67541292 11 18 C9.700625 19.3303125 9.700625 19.3303125 8.375 20.6875 C5.93853264 23.0598498 5.10953791 23.24942188 2 24 C0.71563266 25.9837767 0.71563266 25.9837767 0 28 C-1.32 28 -2.64 28 -4 28 C-4.25136719 28.58910156 -4.50273437 29.17820313 -4.76171875 29.78515625 C-6.15455401 32.27644202 -7.6208572 33.62300414 -9.8125 35.4375 C-12.34746555 37.54845153 -14.40366842 39.47258742 -16.5625 42 C-19 44 -19 44 -22.8125 43.8125 C-23.864375 43.544375 -24.91625 43.27625 -26 43 C-26 42.34 -26 41.68 -26 41 C-28.97 40.01 -31.94 39.02 -35 38 C-33.747167 31.59571552 -31.00221856 28.17702987 -26.5 23.5625 C-25.90574219 22.92634766 -25.31148437 22.29019531 -24.69921875 21.63476562 C-21.47631992 18.24817554 -21.47631992 18.24817554 -20 17 C-19.34 17 -18.68 17 -18 17 C-17.73832031 16.40316406 -17.47664063 15.80632812 -17.20703125 15.19140625 C-14.36031332 10.02309311 -8.94438879 6.93990685 -4 4 C-2.63015802 2.70420353 -1.2848951 1.38007251 0 0 Z " fill="#158278" transform="translate(266,160)"/>
<path d="M0 0 C0.495 0.99 0.495 0.99 1 2 C0.67 2.66 0.34 3.32 0 4 C0.7425 4.12375 1.485 4.2475 2.25 4.375 C4.80141485 4.95486701 6.7267573 5.73708739 9 7 C9 7.66 9 8.32 9 9 C10.98 9.33 12.96 9.66 15 10 C12.52728234 12.48153306 10.04790009 14.95346631 7.53515625 17.39453125 C3.03678355 21.79341387 -1.05516453 26.15600304 -4.71484375 31.2734375 C-6.5703234 33.76620955 -8.77849753 35.83139045 -11 38 C-16.31905431 43.62868741 -20.89888051 49.42888809 -25 56 C-28.81583379 55.34820749 -31.02881405 54.53101025 -34 52 C-30.43746721 34.18733607 -12.68518922 12.68518922 0 0 Z " fill="#209C93" transform="translate(231,194)"/>
<path d="M0 0 C0.66 0 1.32 0 2 0 C1.4454626 3.32722441 0.75986957 6.1013913 -1 9 C-1.99 9.495 -1.99 9.495 -3 10 C-3.72159424 11.64363134 -4.39351421 13.31050386 -5 15 C-6.051875 14.690625 -7.10375 14.38125 -8.1875 14.0625 C-14.03583137 12.43263716 -19.24014826 11.86695436 -25.3125 11.9375 C-26.05306641 11.94201172 -26.79363281 11.94652344 -27.55664062 11.95117188 C-29.37112899 11.96287825 -31.18557534 11.98081102 -33 12 C-33 11.67 -33 11.34 -33 11 C-32.40574219 10.99742188 -31.81148437 10.99484375 -31.19921875 10.9921875 C-24.59012753 10.68383177 -20.39047313 8.78527133 -14.75390625 5.42578125 C-11.22452539 3.59851315 -7.90808733 2.94764694 -3.99609375 2.421875 C-1.77922247 2.14296037 -1.77922247 2.14296037 0 0 Z " fill="#55C8C3" transform="translate(181,99)"/>
<path d="M0 0 C0.66 0.33 1.32 0.66 2 1 C1.01 1.66 0.02 2.32 -1 3 C-0.39671875 2.84402344 0.2065625 2.68804687 0.828125 2.52734375 C2.02695312 2.23537109 2.02695312 2.23537109 3.25 1.9375 C4.03890625 1.74027344 4.8278125 1.54304688 5.640625 1.33984375 C8.10394822 0.98502733 9.65604132 1.23122456 12 2 C7.13122167 3.69054803 2.29770903 5.19829423 -2.71484375 6.4140625 C-11.90967241 8.77171087 -20.45369877 11.89824824 -29 16 C-31.22821185 17.02291576 -33.45740817 18.04368935 -35.6875 19.0625 C-40.50634258 21.28790821 -45.27136604 23.58932386 -50 26 C-50 25.01 -50 24.02 -50 23 C-48.35 22.34 -46.7 21.68 -45 21 C-45 20.34 -45 19.68 -45 19 C-44.05640625 18.63648438 -44.05640625 18.63648438 -43.09375 18.265625 C-38.97920358 16.65450743 -34.9283988 15.02859938 -31 13 C-27.37109338 11.13494441 -23.66216329 9.6274541 -19.86328125 8.14453125 C-15.20289452 6.28164815 -10.60823747 4.26592075 -6.00390625 2.26953125 C-3 1 -3 1 0 0 Z " fill="#26A7A2" transform="translate(277,288)"/>
<path d="M0 0 C4 4.7 4 4.7 4 7 C-8.52181447 7.2342959 -21.08597155 7.15605643 -33 3 C-33 2.67 -33 2.34 -33 2 C-29.00043584 1.66129817 -25.00028974 1.33001275 -21 1 C-19.87464844 0.90460938 -18.74929687 0.80921875 -17.58984375 0.7109375 C-4.69009536 -0.34518225 -4.69009536 -0.34518225 0 0 Z " fill="#279E96" transform="translate(241,410)"/>
<path d="M0 0 C4.34271252 0.48252361 6.1398221 1.7453148 9 5 C9.66 5.66 10.32 6.32 11 7 C9.7625 6.7525 9.7625 6.7525 8.5 6.5 C2.91090346 5.70155764 -1.19951316 5.18159689 -6.4375 7.5625 C-9.67552876 10.64257614 -9.67130745 12.64482371 -10 17 C-12 18 -14 19 -16 20 C-15.41738837 13.78547597 -11.85417877 8.76373103 -7.4375 4.5625 C-5.17531339 3.11238038 -3.58024607 2.55290987 -1 2 C-0.67 1.34 -0.34 0.68 0 0 Z " fill="#43BCB6" transform="translate(88,193)"/>
<path d="M0 0 C0 0.66 0 1.32 0 2 C-1.98 2 -3.96 2 -6 2 C-6 1.34 -6 0.68 -6 0 C-18.37622921 0.18279126 -30.3697684 0.47511036 -42.37646484 3.71582031 C-46.28250886 4.75282315 -49.09536985 5.19792537 -53 4 C-39.58695052 -3.91025995 -14.58737011 -3.30080385 0 0 Z " fill="#98DCDA" transform="translate(256,81)"/>
<path d="M0 0 C0.80219971 -0.00193359 1.60439941 -0.00386719 2.4309082 -0.00585938 C12.46909538 0.24907871 21.87114161 3.3648263 31.3125 6.5625 C27.5625 9.5625 27.5625 9.5625 25.3125 9.5625 C24.6525 8.5725 23.9925 7.5825 23.3125 6.5625 C10.63846233 1.99984644 -4.0910337 0.33729916 -16.6875 5.5625 C-16.6875 4.9025 -16.6875 4.2425 -16.6875 3.5625 C-10.95030711 1.13148606 -6.22110218 -0.01590227 0 0 Z " fill="#74C9C5" transform="translate(278.6875,78.4375)"/>
<path d="M0 0 C2.97 1.32 5.94 2.64 9 4 C9 5.32 9 6.64 9 8 C10.98 8.66 12.96 9.32 15 10 C12 11 12 11 9.58984375 9.96875 C8.27693359 9.24171875 8.27693359 9.24171875 6.9375 8.5 C4.37394066 7.03877219 4.37394066 7.03877219 2 6 C1.01 6.495 1.01 6.495 0 7 C-2.05859375 7.16796875 -2.05859375 7.16796875 -4.4375 7.1875 C-5.61119141 7.20876953 -5.61119141 7.20876953 -6.80859375 7.23046875 C-9 7 -9 7 -12 5 C-6.06 4.505 -6.06 4.505 0 4 C0 2.68 0 1.36 0 0 Z " fill="#8AD9D7" transform="translate(164,394)"/>
<path d="M0 0 C0.33 0.66 0.66 1.32 1 2 C0.690625 2.598125 0.38125 3.19625 0.0625 3.8125 C-1.19051283 5.94246829 -1.19051283 5.94246829 -0.875 8.3125 C-1.03210407 11.69023746 -2.29406212 13.46095014 -4.04296875 16.28515625 C-5.25742866 18.46127012 -5.70165844 20.53868216 -6 23 C-7.32 23 -8.64 23 -10 23 C-9.35592303 17.96814871 -7.1775132 13.76491374 -5 9.25 C-4.63132812 8.47011719 -4.26265625 7.69023437 -3.8828125 6.88671875 C-1.14835963 1.14835963 -1.14835963 1.14835963 0 0 Z " fill="#8ADAD6" transform="translate(99,170)"/>
<path d="M0 0 C0.66 0.33 1.32 0.66 2 1 C2 1.66 2 2.32 2 3 C1.154375 3.38671875 0.30875 3.7734375 -0.5625 4.171875 C-6.76155072 7.01780283 -12.92291969 9.90188063 -19 13 C-19 12.01 -19 11.02 -19 10 C-17.35 9.34 -15.7 8.68 -14 8 C-14 7.34 -14 6.68 -14 6 C-13.32453125 5.73445313 -12.6490625 5.46890625 -11.953125 5.1953125 C-11.06109375 4.84210938 -10.1690625 4.48890625 -9.25 4.125 C-8.36828125 3.77695312 -7.4865625 3.42890625 -6.578125 3.0703125 C-4.02311179 2.06169378 -4.02311179 2.06169378 -1.796875 0.8046875 C-0.90742188 0.40636719 -0.90742188 0.40636719 0 0 Z " fill="#2AAFAA" transform="translate(246,301)"/>
<path d="M0 0 C0.33 0.99 0.66 1.98 1 3 C-3.51494952 7.63376398 -5.29466202 9.15365167 -11.75 9.25 C-16.74490502 9.22598603 -19.85980317 8.76013122 -24 6 C-21.43162348 4.71581174 -20.5480858 5.21711338 -17.8125 5.9375 C-13.73107796 6.92153218 -10.18465075 7.17807024 -6 7 C-6 6.34 -6 5.68 -6 5 C-5.01 5 -4.02 5 -3 5 C-2.690625 4.360625 -2.38125 3.72125 -2.0625 3.0625 C-1 1 -1 1 0 0 Z " fill="#AEE7E4" transform="translate(275,418)"/>
<path d="M0 0 C2.89887118 0.03311275 5.79016622 0.10037894 8.6875 0.1875 C9.91243164 0.19620117 9.91243164 0.19620117 11.16210938 0.20507812 C15.32869145 0.35689691 18.04712261 0.51587261 21.08203125 3.55078125 C21.71496094 4.35902344 22.34789062 5.16726563 23 6 C14.97229811 5.44636539 7.66145933 3.34312056 0 1 C0 0.67 0 0.34 0 0 Z " fill="#87D0CC" transform="translate(192,410)"/>
<path d="M0 0 C0 3.6404329 -0.63096927 4.06307093 -3.125 6.5625 C-6.19262122 9.5239103 -8.7640173 11.07015014 -13 12 C-13 10 -13 10 -11 8 C-10.71125 7.319375 -10.4225 6.63875 -10.125 5.9375 C-9 4 -9 4 -7 3.1875 C-5 3 -5 3 -3 4 C-2.67 3.01 -2.34 2.02 -2 1 C-1.34 0.67 -0.68 0.34 0 0 Z " fill="#3EA59E" transform="translate(406,326)"/>
<path d="M0 0 C0.66 0.33 1.32 0.66 2 1 C1.319375 1.495 0.63875 1.99 -0.0625 2.5 C-2.47172138 4.55040117 -4.34460168 6.48252162 -6.375 8.875 C-9.62755493 12.69228425 -13.11784351 15.83089266 -17 19 C-17.66 18.67 -18.32 18.34 -19 18 C-17.625 16 -17.625 16 -16 14 C-15.34 14 -14.68 14 -14 14 C-14 13.34 -14 12.68 -14 12 C-12.35648543 10.63823078 -10.68477344 9.31037934 -9 8 C-8.154375 7.154375 -7.30875 6.30875 -6.4375 5.4375 C-4.38305069 3.38305069 -2.36883834 1.66696031 0 0 Z " fill="#54CCC8" transform="translate(166,309)"/>
<path d="M0 0 C0.33 0.99 0.66 1.98 1 3 C-3.625 7.875 -3.625 7.875 -7 9 C-7.28875 9.763125 -7.5775 10.52625 -7.875 11.3125 C-9.26905716 14.64274767 -11.14138539 15.8743635 -14 18 C-14.33 18.66 -14.66 19.32 -15 20 C-15.66 19.67 -16.32 19.34 -17 19 C-15.60770997 17.26797907 -14.21099444 15.53951516 -12.8125 13.8125 C-12.03519531 12.84957031 -11.25789062 11.88664063 -10.45703125 10.89453125 C-8.08616114 8.10150303 -5.69738499 5.47978083 -3 3 C-2.34 3 -1.68 3 -1 3 C-0.67 2.01 -0.34 1.02 0 0 Z " fill="#20978E" transform="translate(249,174)"/>
<path d="M0 0 C2.69082872 0.17635452 5.32851446 0.61835921 8 1 C8 1.33 8 1.66 8 2 C6.948125 2 5.89625 2 4.8125 2 C0.57082755 3.11256982 0.23071176 3.52981015 -1.9375 7.0625 C-2.6481158 8.36262987 -3.34344024 9.67175237 -4 11 C-5.5 9.66015625 -5.5 9.66015625 -7 8 C-7 5.4375 -7 5.4375 -6 3 C-3.5 1.75 -3.5 1.75 -1 1 C-0.67 0.67 -0.34 0.34 0 0 Z " fill="#42A39C" transform="translate(385,337)"/>
<path d="M0 0 C0.66 0.33 1.32 0.66 2 1 C0.6875 3 0.6875 3 -1 5 C-1.99 5 -2.98 5 -4 5 C-4.33 5.99 -4.66 6.98 -5 8 C-9.64652186 11.85321325 -13.17047614 12.59796387 -19 13 C-17.66876597 10.33753193 -16.3235622 10.05398348 -13.625 8.875 C-12.83351562 8.52179688 -12.04203125 8.16859375 -11.2265625 7.8046875 C-9 7 -9 7 -6 7 C-5.7525 6.401875 -5.505 5.80375 -5.25 5.1875 C-3.83629988 2.71352479 -2.34944617 1.56629745 0 0 Z " fill="#B6EAE9" transform="translate(190,90)"/>
<path d="M0 0 C0.89385014 3.06462904 1.13472008 5.81181379 1.125 9 C1.12757812 9.845625 1.13015625 10.69125 1.1328125 11.5625 C1.00545515 13.89988203 0.84828188 15.81591792 0 18 C-0.99 18.33 -1.98 18.66 -3 19 C-2.814375 18.030625 -2.62875 17.06125 -2.4375 16.0625 C-2.293125 15.051875 -2.14875 14.04125 -2 13 C-2.33 12.67 -2.66 12.34 -3 12 C-2.94921875 10.0390625 -2.94921875 10.0390625 -2.6875 7.625 C-2.60886719 6.83351562 -2.53023438 6.04203125 -2.44921875 5.2265625 C-2 3 -2 3 0 0 Z " fill="#80C9C4" transform="translate(103,151)"/>
<path d="M0 0 C0.33 0.66 0.66 1.32 1 2 C0.67 2.66 0.34 3.32 0 4 C-0.66 4 -1.32 4 -2 4 C-2.33 5.65 -2.66 7.3 -3 9 C-3.99 9.33 -4.98 9.66 -6 10 C-6.33 10.66 -6.66 11.32 -7 12 C-8.65 12 -10.3 12 -12 12 C-8.32167983 7.47384007 -4.58913637 3.60575001 0 0 Z " fill="#70C0BA" transform="translate(128,122)"/>
<path d="M0 0 C2.88461151 1.29310171 5.12852073 2.41557624 7 5 C6.85546875 7.91796875 6.85546875 7.91796875 6.1875 11.1875 C5.97480469 12.27417969 5.76210937 13.36085938 5.54296875 14.48046875 C5.36378906 15.31191406 5.18460937 16.14335937 5 17 C5.66 17 6.32 17 7 17 C7 17.99 7 18.98 7 20 C6.34 20 5.68 20 5 20 C2.69949306 15.11142275 2.28183195 11.15450416 4 6 C2.12821884 2.81711646 2.12821884 2.81711646 0 0 Z " fill="#81D2CF" transform="translate(113,354)"/>
<path d="M0 0 C4.63288815 1.29068732 7.69753944 3.0438844 11.375 6.125 C12.24898438 6.84945312 13.12296875 7.57390625 14.0234375 8.3203125 C15.00183594 9.15175781 15.00183594 9.15175781 16 10 C15.67 10.66 15.34 11.32 15 12 C9.67285087 10.09026729 7.772401 9.04072908 5 4 C2.41556677 2.26509754 2.41556677 2.26509754 0 1 C0 0.67 0 0.34 0 0 Z " fill="#98DDDD" transform="translate(316,89)"/>
<path d="M0 0 C0.66 0.66 1.32 1.32 2 2 C4.90819084 2.98792045 7.50992487 3.08264163 10.5625 3 C13.50447059 2.92062137 15.14674472 3.04891491 18 4 C18 4.66 18 5.32 18 6 C5.33029613 6.18451025 5.33029613 6.18451025 0 5 C0 3.35 0 1.7 0 0 Z " fill="#60BBB3" transform="translate(274,414)"/>
<path d="M0 0 C0.99 0.33 1.98 0.66 3 1 C2.74438677 3.3431213 2.40729228 5.67843403 2 8 C0 9 -2 10 -4 11 C-3.39301257 6.87248551 -1.96189209 3.6678852 0 0 Z " fill="#56B2AB" transform="translate(76,202)"/>
<path d="M0 0 C0.99 0 1.98 0 3 0 C3.433125 0.9590625 3.433125 0.9590625 3.875 1.9375 C4.82823451 4.15206079 4.82823451 4.15206079 7 5 C7.625 7.5625 7.625 7.5625 8 10 C8.66 10 9.32 10 10 10 C9.67 11.32 9.34 12.64 9 14 C7.6827656 12.23268551 6.37136412 10.46102239 5.0625 8.6875 C4.33160156 7.70136719 3.60070312 6.71523438 2.84765625 5.69921875 C1 3 1 3 0 0 Z " fill="#7DD3CF" transform="translate(102,338)"/>
<path d="M0 0 C3.37889673 -0.28527271 6.63115091 -0.44483998 10 0 C12.60078552 2.83026659 13 4.17745143 13 8 C13.66 8.33 14.32 8.66 15 9 C14.01 9 13.02 9 12 9 C9.89229241 6.11165997 9 4.61537605 9 1 C8.443125 1.185625 7.88625 1.37125 7.3125 1.5625 C4.600867 2.07551165 2.65628961 1.6640724 0 1 C0 0.67 0 0.34 0 0 Z " fill="#87D5D1" transform="translate(129,383)"/>
<path d="M0 0 C1.98 0.66 3.96 1.32 6 2 C2.45960866 4.9156164 -1.1626772 7.50127818 -5 10 C-5.33 9.34 -5.66 8.68 -6 8 C-3.82575883 5.49962266 -2.26954202 4.56371414 1 4 C1 3.34 1 2.68 1 2 C0.34 1.67 -0.32 1.34 -1 1 C-0.67 0.67 -0.34 0.34 0 0 Z " fill="#46A39C" transform="translate(336,384)"/>
<path d="M0 0 C1.34209166 2.68418333 0.63233676 4.11935477 0 7 C0 7.99 0 8.98 0 10 C-0.66 10 -1.32 10 -2 10 C-2.99 10.33 -3.98 10.66 -5 11 C-4.54663921 6.12637153 -3.2910841 3.60957611 0 0 Z " fill="#5EB8AF" transform="translate(109,142)"/>
<path d="M0 0 C2.475 0.495 2.475 0.495 5 1 C4.67 4.3 4.34 7.6 4 11 C0.88776687 6.85035583 0.47996422 4.99162787 0 0 Z " fill="#6AD0CC" transform="translate(94,320)"/>
<path d="M0 0 C0.66 0 1.32 0 2 0 C2 0.66 2 1.32 2 2 C4.31 2.33 6.62 2.66 9 3 C6 4 6 4 3 3 C3.66 6.3 4.32 9.6 5 13 C2.55638016 9.74184022 1.43562175 7.63690843 0 4 C-0.66 3.34 -1.32 2.68 -2 2 C-1.34 1.34 -0.68 0.68 0 0 Z " fill="#99E2E0" transform="translate(89,310)"/>
<path d="M0 0 C1.75091019 0.08754551 3.50079551 0.19573373 5.25 0.3125 C6.22453125 0.37050781 7.1990625 0.42851562 8.203125 0.48828125 C11.25341611 1.04636524 12.70711276 1.96369776 15 4 C10.84773144 5.18956883 8.61274007 4.78960563 4.6875 3.0625 C3.80449219 2.68222656 2.92148438 2.30195313 2.01171875 1.91015625 C1.34785156 1.60980469 0.68398437 1.30945313 0 1 C0 0.67 0 0.34 0 0 Z " fill="#91E2DD" transform="translate(179,405)"/>
<path d="M0 0 C0.33 0.66 0.66 1.32 1 2 C0.12287337 4.49643733 -0.93307848 6.85828384 -2.0625 9.25 C-3.37561871 13.10181488 -3.66552165 16.95985361 -4 21 C-4.33 21 -4.66 21 -5 21 C-5.57679965 13.46956015 -4.39973144 7.75850226 -1 1 C-0.67 0.67 -0.34 0.34 0 0 Z " fill="#A7E5E1" transform="translate(73,247)"/>
<path d="M0 0 C0.33 0.99 0.66 1.98 1 3 C0.21625 3.0825 -0.5675 3.165 -1.375 3.25 C-2.24125 3.4975 -3.1075 3.745 -4 4 C-4.33 4.66 -4.66 5.32 -5 6 C-5.33 6.66 -5.66 7.32 -6 8 C-8.625 8.75 -8.625 8.75 -11 9 C-8.07392202 4.7234245 -5.92799877 3.42364409 -1 2 C-0.67 1.34 -0.34 0.68 0 0 Z " fill="#70C0BA" transform="translate(88,193)"/>
<path d="M0 0 C1.48285242 0.95262034 2.96118201 1.91228405 4.4375 2.875 C5.67306641 3.67550781 5.67306641 3.67550781 6.93359375 4.4921875 C9 6 9 6 10 8 C4.25 7.25 4.25 7.25 2 5 C1.34 5 0.68 5 0 5 C0 3.35 0 1.7 0 0 Z " fill="#44A49A" transform="translate(344,119)"/>
<path d="M0 0 C0.66 0.66 1.32 1.32 2 2 C4.57061311 2.64767793 4.57061311 2.64767793 7 3 C6.67 3.99 6.34 4.98 6 6 C5.29488281 5.69320312 4.58976563 5.38640625 3.86328125 5.0703125 C0.95734427 3.98405502 -1.75754152 3.3902942 -4.8125 2.875 C-5.78832031 2.70742187 -6.76414063 2.53984375 -7.76953125 2.3671875 C-8.50558594 2.24601562 -9.24164063 2.12484375 -10 2 C-10 1.67 -10 1.34 -10 1 C-6.60598928 0.22422612 -3.48397425 -0.2824844 0 0 Z " fill="#3EBDB5" transform="translate(168,110)"/>
<path d="M0 0 C-0.33 0.66 -0.66 1.32 -1 2 C-3.3984375 2.703125 -3.3984375 2.703125 -6.375 3.25 C-7.84066406 3.53617187 -7.84066406 3.53617187 -9.3359375 3.828125 C-12 4 -12 4 -15 2 C-13.43883181 1.66048381 -11.87598662 1.32867456 -10.3125 1 C-9.44238281 0.814375 -8.57226562 0.62875 -7.67578125 0.4375 C-5.06287036 0.01027953 -2.64186962 -0.07616201 0 0 Z " fill="#A9E1DD" transform="translate(218,82)"/>
<path d="M0 0 C3.81921776 1.10332958 6.42204028 1.93100033 9 5 C9.556875 5.556875 10.11375 6.11375 10.6875 6.6875 C11.3371875 7.3371875 11.3371875 7.3371875 12 8 C9.03 7.505 9.03 7.505 6 7 C6 6.34 6 5.68 6 5 C5.34 5 4.68 5 4 5 C4 4.34 4 3.68 4 3 C2.68 2.67 1.36 2.34 0 2 C0 1.34 0 0.68 0 0 Z " fill="#6FCBC5" transform="translate(310,86)"/>
<path d="M0 0 C0.99386719 0.00902344 1.98773438 0.01804687 3.01171875 0.02734375 C4.15060547 0.04474609 4.15060547 0.04474609 5.3125 0.0625 C5.3125 0.3925 5.3125 0.7225 5.3125 1.0625 C4.62542969 1.11148438 3.93835938 1.16046875 3.23046875 1.2109375 C1.87888672 1.32308594 1.87888672 1.32308594 0.5 1.4375 C-0.39332031 1.50710937 -1.28664063 1.57671875 -2.20703125 1.6484375 C-4.93148499 1.92895036 -4.93148499 1.92895036 -7.6875 4.0625 C-10.375 4.1875 -10.375 4.1875 -12.6875 4.0625 C-8.41027069 0.67021469 -5.42406114 -0.06381248 0 0 Z M-15.6875 3.0625 C-14.2025 4.0525 -14.2025 4.0525 -12.6875 5.0625 C-13.6775 5.0625 -14.6675 5.0625 -15.6875 5.0625 C-15.6875 4.4025 -15.6875 3.7425 -15.6875 3.0625 Z " fill="#50C3BF" transform="translate(276.6875,79.9375)"/>
<path d="M0 0 C4.66154042 1.49835228 5.86610751 4.88463591 8 9 C6.25 8.875 6.25 8.875 4 8 C0 2.77777778 0 2.77777778 0 0 Z " fill="#64B3AE" transform="translate(368,142)"/>
<path d="M0 0 C0.66 0.33 1.32 0.66 2 1 C0.59447701 2.03612271 -0.82491694 3.05344925 -2.25 4.0625 C-3.43335938 4.91521484 -3.43335938 4.91521484 -4.640625 5.78515625 C-7 7 -7 7 -9.296875 6.68359375 C-9.85890625 6.45800781 -10.4209375 6.23242188 -11 6 C-9.73168307 5.18357746 -8.46024069 4.37200895 -7.1875 3.5625 C-6.47980469 3.11003906 -5.77210938 2.65757813 -5.04296875 2.19140625 C-3 1 -3 1 0 0 Z " fill="#78C5BE" transform="translate(146,111)"/>
<path d="M0 0 C-1 3 -1 3 -3.25 4.1875 C-5.99791147 4.99938294 -8.15447889 5.16260121 -11 5 C-7.92351092 1.43774949 -4.70156256 0 0 0 Z " fill="#B9E9E6" transform="translate(203,85)"/>
<path d="M0 0 C-0.165 0.598125 -0.33 1.19625 -0.5 1.8125 C-1.1114124 4.11344336 -1.1114124 4.11344336 -1 7 C-1.66 7.66 -2.32 8.32 -3 9 C-3 8.34 -3 7.68 -3 7 C-3.66 7 -4.32 7 -5 7 C-5.1875 4.625 -5.1875 4.625 -5 2 C-2 0 -2 0 0 0 Z " fill="#73BCB8" transform="translate(415,280)"/>
<path d="M0 0 C2.97 0.33 5.94 0.66 9 1 C9 1.99 9 2.98 9 4 C6.1875 4.25 6.1875 4.25 3 4 C1.125 2 1.125 2 0 0 Z " fill="#66CAC6" transform="translate(124,379)"/>
<path d="M0 0 C2.25 -0.25 2.25 -0.25 5 0 C7.3125 1.875 7.3125 1.875 9 4 C9 4.66 9 5.32 9 6 C4.64464931 4.83857315 2.35380297 3.92300495 0 0 Z " fill="#89DAD6" transform="translate(143,393)"/>
<path d="M0 0 C0.99 0.33 1.98 0.66 3 1 C3 1.66 3 2.32 3 3 C-0.96 4.98 -0.96 4.98 -5 7 C-5 6.01 -5 5.02 -5 4 C-3.35 3.34 -1.7 2.68 0 2 C0 1.34 0 0.68 0 0 Z " fill="#32B8B3" transform="translate(232,307)"/>
<path d="M0 0 C0 4.07546013 -1.55304448 5.80536362 -4 9 C-6.25 10.375 -6.25 10.375 -8 11 C-7.67 10.01 -7.34 9.02 -7 8 C-6.34 8 -5.68 8 -5 8 C-4.67 6.68 -4.34 5.36 -4 4 C-3.34 4 -2.68 4 -2 4 C-1.34 2.68 -0.68 1.36 0 0 Z " fill="#52CCC7" transform="translate(239,106)"/>
<path d="M0 0 C4.42857143 5.14285714 4.42857143 5.14285714 5 9 C2.525 8.01 2.525 8.01 0 7 C0 4.69 0 2.38 0 0 Z " fill="#4EA7A1" transform="translate(387,167)"/>
<path d="M0 0 C0.66 1.32 1.32 2.64 2 4 C1.01 4.33 0.02 4.66 -1 5 C-1 6.65 -1 8.3 -1 10 C-2.32 9.34 -3.64 8.68 -5 8 C-3.62845496 5.04590299 -2.01136276 2.55991624 0 0 Z " fill="#70C4BC" transform="translate(115,134)"/>
<path d="M0 0 C1.5 1.0625 1.5 1.0625 3 3 C3.1875 6.6875 3.1875 6.6875 3 10 C2.34 10 1.68 10 1 10 C1 8.02 1 6.04 1 4 C0.34 4 -0.32 4 -1 4 C-0.67 2.68 -0.34 1.36 0 0 Z " fill="#61C3BD" transform="translate(332,101)"/>
<path d="M0 0 C0 3 0 3 -1.3125 4.38671875 C-2.875 5.59114583 -4.4375 6.79557292 -6 8 C-6.33 7.01 -6.66 6.02 -7 5 C-6.34 4.34 -5.68 3.68 -5 3 C-4.34 3.33 -3.68 3.66 -3 4 C-2.67 3.01 -2.34 2.02 -2 1 C-1.34 0.67 -0.68 0.34 0 0 Z " fill="#6AB7AF" transform="translate(406,326)"/>
<path d="M0 0 C3.57104439 1.87949705 5.54744301 3.17053157 7 7 C5.02 6.34 3.04 5.68 1 5 C0.67 3.35 0.34 1.7 0 0 Z " fill="#7CC2BE" transform="translate(407,217)"/>
<path d="M0 0 C2 1 4 2 6 3 C5.67 3.99 5.34 4.98 5 6 C3.68 6 2.36 6 1 6 C0.67 4.02 0.34 2.04 0 0 Z " fill="#3DA099" transform="translate(335,113)"/>
<path d="M0 0 C-3.00617269 3.00617269 -5.82381598 2.59585316 -10 3 C-9 1 -9 1 -6.6875 -0.1875 C-3.88010429 -1.03624754 -2.698065 -0.99928333 0 0 Z " fill="#92DAD9" transform="translate(181,100)"/>
<path d="M0 0 C0.66 0.33 1.32 0.66 2 1 C-1.465 3.97 -1.465 3.97 -5 7 C-5.33 6.01 -5.66 5.02 -6 4 C-5.01 4 -4.02 4 -3 4 C-3 3.01 -3 2.02 -3 1 C-2.01 0.67 -1.02 0.34 0 0 Z " fill="#88C6C1" transform="translate(361,369)"/>
</svg>
