<?xml version="1.0" encoding="UTF-8"?>
<svg version="1.1" xmlns="http://www.w3.org/2000/svg" width="320" height="320">
<path d="M0 0 C105.6 0 211.2 0 320 0 C320 105.6 320 211.2 320 320 C214.4 320 108.8 320 0 320 C0 214.4 0 108.8 0 0 Z " fill="#F87BA6" transform="translate(0,0)"/>
<path d="M0 0 C105.6 0 211.2 0 320 0 C320 105.6 320 211.2 320 320 C214.4 320 108.8 320 0 320 C0 214.4 0 108.8 0 0 Z M139 12 C139 12.66 139 13.32 139 14 C137.9378125 14.02578125 136.875625 14.0515625 135.78125 14.078125 C127.88760666 14.36174013 121.84869607 14.70277893 115 19 C114.01 19.33 113.02 19.66 112 20 C112 19.34 112 18.68 112 18 C108.22718603 17.64904056 106.40824943 17.75150035 103.125 19.75 C100.54225098 21.96886633 100.54225098 21.96886633 101 26 C100.29875 26.268125 99.5975 26.53625 98.875 26.8125 C95.95757369 27.95293871 95.95757369 27.95293871 93.1875 29.5625 C90.36805077 30.83401632 88.7893298 31.23284861 85.8125 31.5 C82.15748461 31.70254438 82.15748461 31.70254438 80.0625 33.25 C78.83929172 35.02546649 78.83929172 35.02546649 78.5625 37.5 C78 40 78 40 76.375 41.75 C74 43 74 43 70.5 43.375 C66.921039 43.69107255 66.921039 43.69107255 64.6875 46.125 C62.8306095 48.99217708 62.8306095 48.99217708 62.0625 52.5625 C60.53262735 57.512088 57.59082681 58.97732562 53.375 61.6875 C50.45299679 64.53260839 49.79976801 66.96173456 48.69140625 70.8125 C47.84829746 73.47996282 46.49607833 75.64901976 45 78 C45 78.66 45 79.32 45 80 C44.21625 80.103125 43.4325 80.20625 42.625 80.3125 C39.66954819 80.77595022 39.66954819 80.77595022 38 84 C37.76320773 86.20234741 37.76320773 86.20234741 37.75 88.6875 C37.09223884 97.83525249 33.0965504 106.32696597 29.37890625 114.61328125 C20.32654405 136.84670341 25.5936488 166.5832871 34.21826172 188.20117188 C35.59195851 191.36213314 37.28786356 194.2884586 39.21484375 197.140625 C41.27717617 202.02455651 37.3431597 209.61679797 35.81640625 214.49804688 C34.34226809 219.36095826 33.48194262 223.93711821 33 229 C32.93345215 229.66781494 32.8669043 230.33562988 32.79833984 231.02368164 C31.47498694 246.42087446 35.94430759 258.86518141 45.3125 271.125 C58.86442913 286.19034253 78.90914712 294.46955241 98 300 C99.80791016 300.54914063 99.80791016 300.54914063 101.65234375 301.109375 C112.8986284 304.34035181 124.44086985 306.26084947 136 308 C137.17062988 308.18167725 138.34125977 308.36335449 139.54736328 308.55053711 C150.70934938 310.13150101 161.73803192 310.35595423 173 310.3125 C174.43533081 310.31026428 174.43533081 310.31026428 175.8996582 310.3079834 C200.12533366 310.24055007 224.41578613 308.9433967 248 303 C248.86125488 302.78472656 249.72250977 302.56945312 250.60986328 302.34765625 C265.98612761 298.41967676 282.10323318 294.04895125 294 283 C294.52980469 282.52046875 295.05960937 282.0409375 295.60546875 281.546875 C298.91778253 277.87271181 299.63955356 274.21165861 299.48828125 269.37890625 C298.52334906 264.67775663 295.78236235 261.80034198 292 259 C282.55838368 254.63845227 273.18400714 253.81926337 262.9375 253.8125 C261.95716797 253.80025391 260.97683594 253.78800781 259.96679688 253.77539062 C259.01740234 253.77345703 258.06800781 253.77152344 257.08984375 253.76953125 C256.23253662 253.76542236 255.37522949 253.76131348 254.49194336 253.75708008 C251.69884992 254.02935675 249.54691741 254.84951263 247 256 C246.9175 257.258125 246.835 258.51625 246.75 259.8125 C246.70359375 260.52019531 246.6571875 261.22789062 246.609375 261.95703125 C246.82069379 264.13857973 246.82069379 264.13857973 248.67138672 265.58642578 C251.48142809 267.29224876 253.37770175 267.47696732 256.6484375 267.66015625 C257.73640625 267.73169922 258.824375 267.80324219 259.9453125 267.87695312 C261.64300781 267.96879883 261.64300781 267.96879883 263.375 268.0625 C265.61240436 268.19207445 267.84942028 268.32857801 270.0859375 268.47265625 C271.0764209 268.52687744 272.0669043 268.58109863 273.08740234 268.63696289 C276.30938293 269.03856265 279.01409514 269.71982375 282 271 C282.33 271.99 282.66 272.98 283 274 C263.19265554 284.30997673 241.96561663 288.99158197 220 292 C218.71996094 292.18095215 217.43992188 292.3619043 216.12109375 292.54833984 C204.17404728 294.12303137 192.30704293 294.30769699 180.26855469 294.26074219 C177.00436842 294.25001436 173.74073229 294.26070596 170.4765625 294.2734375 C154.38053716 294.28478201 138.77982509 293.13665694 122.9375 290.1875 C122.01759277 290.01645752 121.09768555 289.84541504 120.14990234 289.66918945 C99.79102463 285.73746719 74.57993287 278.5734547 60 263 C59.195625 262.20916016 59.195625 262.20916016 58.375 261.40234375 C51.01783061 253.56445022 48.38873154 244.5442975 48.60400391 233.95922852 C48.86674858 227.8816066 49.73903287 221.94455932 51 216 C51.66 216.33 52.32 216.66 53 217 C53.28562755 218.44833365 53.50497976 219.91009733 53.6875 221.375 C54.31047461 224.81360722 54.31047461 224.81360722 56.61328125 227.26171875 C59.05927594 228.29987385 61.32884307 229 64 229 C64.226875 230.0725 64.45375 231.145 64.6875 232.25 C66.64808266 237.85166473 69.94522438 239.53189127 75.0625 242 C78.32772149 243.57716359 80.72846461 245.0924347 83 248 C83.165 248.680625 83.33 249.36125 83.5 250.0625 C83.87246634 252.11510453 83.87246634 252.11510453 85.5 253.6875 C88.06876696 255.03610265 89.47255507 255.22462508 92.3125 255.4375 C97.16275766 255.83033079 100.03173535 257.18914587 104 260 C104.33 260.99 104.66 261.98 105 263 C108.36371637 265.24247758 109.1328113 265.15671564 113 264.9375 C119.10273747 264.81641394 124.22005173 266.17904451 130 268 C131.19625 268.309375 132.3925 268.61875 133.625 268.9375 C137.15520542 270.04886097 140.36813729 271.48175483 143.69140625 273.09765625 C157.05440115 278.32075578 177.00302788 276.42785426 190 271 C197.23367081 268.08455652 197.23367081 268.08455652 203.4206543 263.52954102 C205.10451647 261.89877946 206.58094904 261.05598966 208.6953125 260.0625 C209.7632605 259.55855713 209.7632605 259.55855713 210.8527832 259.04443359 C211.60261475 258.69977051 212.35244629 258.35510742 213.125 258 C213.88965576 257.64115723 214.65431152 257.28231445 215.44213867 256.91259766 C219.34888361 255.1073118 223.15645581 253.53061698 227.3125 252.375 C231.78735731 250.70640914 232.61893041 249.02318654 235 245 C238.18146384 242.52552812 240.88329154 241.0415403 244.6875 239.6875 C248.37115017 237.8109235 248.77895602 236.81358884 250.0625 233.03515625 C252.41333822 227.93187829 257.1187528 223.81877035 261.1171875 219.953125 C264.42410088 216.52271693 266.49247771 212.52256688 268 208 C268.78375 207.87625 269.5675 207.7525 270.375 207.625 C273.14057822 207.20882007 273.14057822 207.20882007 275 205 C274.9175 203.72125 274.835 202.4425 274.75 201.125 C274.6953125 198.9375 274.6953125 198.9375 275 197 C276.95597184 195.60287726 278.9659094 194.28072371 281 193 C286.87341441 185.18256814 289.35932304 177.44443677 289.1875 167.75 C289.18685547 167.04359375 289.18621094 166.3371875 289.18554688 165.609375 C289.15887779 162.48020291 288.99604825 159.98814475 288 157 C287.90331405 154.15629549 287.86076163 151.3429273 287.875 148.5 C287.87113281 147.72785156 287.86726563 146.95570313 287.86328125 146.16015625 C287.86900949 142.85496263 287.94792499 140.15622502 289 137 C289.30677549 132.3983677 289.46041061 129.98727223 287.484375 125.75 C285.64341223 121.68245267 285.75421785 118.14130774 286 113.75 C286.46555547 108.62903952 286.46555547 108.62903952 284.625 104.015625 C283.03671347 102.82333369 283.03671347 102.82333369 281 103 C279.4731499 98.12425867 278.03112846 93.35687634 277.1875 88.3125 C276.30193116 84.07069969 274.45541464 81.82882519 271.50390625 78.7421875 C269.92967684 76.91853473 269.04681179 75.25270027 268.0625 73.0625 C266.22964615 69.1001894 263.72296733 66.31854411 260.78515625 63.125 C258.91425853 60.89793576 257.50826682 58.64622825 256.0625 56.125 C244.78998813 36.8049206 227.03829795 26.46253366 205.9375 20.75 C205.05715088 20.52803955 204.17680176 20.3060791 203.26977539 20.07739258 C199.31690272 19.06320594 195.9027807 18.0993868 192.44140625 15.90234375 C188.21216366 13.56449909 184.74980636 13.16714158 180 12.8125 C178.45824979 12.67410464 176.91658143 12.53479419 175.375 12.39453125 C174.63209717 12.33217285 173.88919434 12.26981445 173.1237793 12.20556641 C171.20642104 12.01998006 169.29875945 11.74011385 167.39453125 11.44921875 C163.77661023 10.97043749 160.33427393 10.93732719 156.6875 11 C150.21993834 11.10996917 150.21993834 11.10996917 148 10 C143.94857881 9.74139865 142.45662331 9.69558446 139 12 Z " fill="#FEFDFE" transform="translate(0,0)"/>
<path d="M0 0 C0.66 0.33 1.32 0.66 2 1 C3.36719899 1.06011441 4.73735093 1.06051655 6.10546875 1.02734375 C7.33426758 1.00897461 7.33426758 1.00897461 8.58789062 0.99023438 C10.30152493 0.95547245 12.01507989 0.91650835 13.72851562 0.87304688 C18.9048188 0.80435277 23.0128799 1.45594502 28 3 C31.24486451 3.27040538 34.46441636 3.37404995 37.71875 3.4609375 C41.09033582 4.01484089 43.17807516 5.1820263 46.05322266 6.96142578 C49.76458814 8.94137923 53.88084078 9.72766543 57.9375 10.75 C71.47089036 14.40117125 83.31933977 19.74649695 94 29 C95.03125 29.763125 96.0625 30.52625 97.125 31.3125 C102.07066966 35.93562599 105.7779392 41.59134765 108.9375 47.5625 C110.56175235 50.55896555 112.60943825 52.82807589 114.9375 55.3125 C118.49804646 59.17635227 120.67692938 62.96834154 122.84375 67.7265625 C123.9383124 69.87870884 125.03677557 71.32540045 126.6875 73.0625 C129.70387652 76.89411342 130.21183256 80.27895663 131 85 C131.73668492 90.43609516 131.73668492 90.43609516 135.0625 94.4375 C136.0215625 94.7159375 136.0215625 94.7159375 137 95 C137.33 95.33 137.66 95.66 138 96 C137.99241515 99.25390159 137.92284951 102.49533539 137.78515625 105.74609375 C137.67827566 110.98324253 138.79784595 114.26479829 141 119 C141.54072239 122.83655411 141.23113636 126.30659091 140 130 C139.90331405 132.84370451 139.86076163 135.6570727 139.875 138.5 C139.87113281 139.27214844 139.86726562 140.04429687 139.86328125 140.83984375 C139.86900949 144.14503737 139.94792499 146.84377498 141 150 C141.89871488 162.84720283 140.67231241 173.84704888 132 184 C131.071875 184.474375 130.14375 184.94875 129.1875 185.4375 C128.465625 185.953125 127.74375 186.46875 127 187 C126.76657109 189.08324292 126.8771734 191.03477439 127.0078125 193.125 C127 195 127 195 125.75 197 C124 198 124 198 120 198 C119.62875 199.1446875 119.62875 199.1446875 119.25 200.3125 C117.78787875 203.45606069 117.12314134 204.49056444 114 206 C110.94015419 205.41761243 108.35040703 204.71043802 105.4375 203.6875 C104.59759521 203.40551758 103.75769043 203.12353516 102.89233398 202.83300781 C49.34259888 184.44229055 -3.27633876 148.86669598 -37 103 C-37.7528125 102.11183594 -38.505625 101.22367187 -39.28125 100.30859375 C-41 98 -41 98 -41 95 C-40.01349757 90.3038374 -38.37727567 85.74627076 -36.921875 81.1796875 C-35.82989432 77.41327956 -35.30591435 73.9004079 -35 70 C-34.34 70 -33.68 70 -33 70 C-31.57926047 49.90668379 -31.17392882 29.98436051 -34 10 C-26.20501374 4.13210756 -18.36759507 4.1264338 -9 4 C-8.67 3.01 -8.34 2.02 -8 1 C-5.26094655 -0.36952673 -3.02912668 -0.12621361 0 0 Z " fill="#8C0D4D" transform="translate(148,10)"/>
<path d="M0 0 C0.66 0.33 1.32 0.66 2 1 C4.09123135 0.97692724 6.18265545 0.94783328 8.27294922 0.88110352 C27.46553035 0.36263444 27.46553035 0.36263444 34 5 C36.90314695 9.72485556 37.94148928 14.63650954 39 20 C39.18353027 20.86093262 39.36706055 21.72186523 39.55615234 22.60888672 C46.45482712 55.05992793 46.81872068 91.11882411 34.3125 122.44140625 C33.08150953 125.77900243 32.70916087 127.82058214 32.9375 131.3125 C33.16703482 135.06156877 33.19583506 135.7062474 31 139 C41.85252057 148.07106908 53.72318269 155.04079369 66 162 C67.38880371 162.79422363 67.38880371 162.79422363 68.80566406 163.60449219 C81.84496601 171.03380835 95.07919328 177.40218408 109 183 C109.69609375 183.28520508 110.3921875 183.57041016 111.109375 183.86425781 C118.32848011 186.97481503 118.32848011 186.97481503 126 188 C127.33827893 194.44807122 127.33827893 194.44807122 125.8125 196.9375 C124 198 124 198 120 198 C119.62875 199.1446875 119.62875 199.1446875 119.25 200.3125 C117.78787875 203.45606069 117.12314134 204.49056444 114 206 C110.94015419 205.41761243 108.35040703 204.71043802 105.4375 203.6875 C104.59759521 203.40551758 103.75769043 203.12353516 102.89233398 202.83300781 C49.34259888 184.44229055 -3.27633876 148.86669598 -37 103 C-37.7528125 102.11183594 -38.505625 101.22367187 -39.28125 100.30859375 C-41 98 -41 98 -41 95 C-40.01349757 90.3038374 -38.37727567 85.74627076 -36.921875 81.1796875 C-35.82989432 77.41327956 -35.30591435 73.9004079 -35 70 C-34.34 70 -33.68 70 -33 70 C-31.57926047 49.90668379 -31.17392882 29.98436051 -34 10 C-26.20501374 4.13210756 -18.36759507 4.1264338 -9 4 C-8.67 3.01 -8.34 2.02 -8 1 C-5.26094655 -0.36952673 -3.02912668 -0.12621361 0 0 Z " fill="#8C0E4E" transform="translate(148,10)"/>
<path d="M0 0 C3.36202939 1.42609159 5.23675579 3.14348515 7.5625 5.9375 C10.03190133 8.88306043 10.03190133 8.88306043 12.71484375 11.62890625 C14 13 14 13 14 15 C14.99 15.33 15.98 15.66 17 16 C18.17927664 17.41513197 19.35441072 18.83400986 20.50390625 20.2734375 C22.69152143 22.79804823 25.18866963 24.87924062 27.73046875 27.0390625 C30.1973281 29.17049692 32.55951801 31.39496529 34.9375 33.625 C63.78526061 59.88283735 102.28949291 85.32865123 142 89 C138.91220113 92.70761252 134.53521886 94.30850275 130.26953125 96.30664062 C126.40823452 98.16287428 123.30515032 100.29925114 120 103 C103.81395499 112.02634106 83.75930678 113.87932141 65.75 109.6875 C63.05697488 108.91631553 61.3171425 108.25597455 59.13671875 106.49609375 C56.23576907 104.46489864 53.52508987 104.04756281 50.0625 103.375 C48.85722656 103.13523437 47.65195313 102.89546875 46.41015625 102.6484375 C45.28480469 102.43445313 44.15945312 102.22046875 43 102 C42.1234375 101.8040625 41.246875 101.608125 40.34375 101.40625 C37.95108328 100.9915211 35.85696287 100.99876715 33.4375 101.125 C30.44558441 101.1598476 29.20245609 101.10628945 26.5 99.6875 C25 98 25 98 24 95 C20.47920866 92.71148563 17.55190818 91.85785818 13.4375 91.5625 C9.2042929 91.19842991 6.90902984 90.27265857 4 87 C3.855625 86.175 3.71125 85.35 3.5625 84.5 C3.21235811 81.73291952 3.21235811 81.73291952 0.4375 79.9375 C-2.74981181 78.14101516 -5.95452137 76.48256944 -9.265625 74.9296875 C-12.50166786 73.19505191 -13.01937421 71.93757198 -14.125 68.375 C-14.41375 67.26125 -14.7025 66.1475 -15 65 C-16.27875 64.731875 -17.5575 64.46375 -18.875 64.1875 C-22.49675855 63.42809901 -22.80051868 63.29922197 -25 60 C-25.38063221 57.6739143 -25.71269945 55.33944736 -26 53 C-26.33 51.68 -26.66 50.36 -27 49 C-24.36 48.34 -21.72 47.68 -19 47 C-18.32326553 43.59679066 -18.32326553 43.59679066 -18 40 C-18.66 39.34 -19.32 38.68 -20 38 C-20.34490322 33.94738713 -20.30163882 32.45245824 -18 29 C-17.34 29 -16.68 29 -16 29 C-15.5875 29.495 -15.175 29.99 -14.75 30.5 C-12.9985986 32.28028033 -12.9985986 32.28028033 -10 32.375 C-6.99636794 32.26514017 -6.99636794 32.26514017 -5.125 30.5 C-4.75375 30.005 -4.3825 29.51 -4 29 C-5.01479164 26.26786866 -5.99159681 24.01182671 -7.6875 21.625 C-9.06665598 18.86668804 -9.36678773 17.14579132 -8.7890625 14.109375 C-6.95194098 9.19825806 -3.72656715 3.72656715 0 0 Z " fill="#8C0E4D" transform="translate(79,164)"/>
<path d="M0 0 C0.66 0 1.32 0 2 0 C3.41015625 1.58203125 3.41015625 1.58203125 5.0625 3.8125 C7.85935911 7.50855807 10.70144653 11.15290667 13.625 14.75 C14.33914062 15.63171875 15.05328125 16.5134375 15.7890625 17.421875 C18.07688762 20.08965694 20.49034782 22.5407736 23 25 C23.79019531 25.80179688 24.58039063 26.60359375 25.39453125 27.4296875 C32.68779657 34.80542916 40.30981145 41.49273352 48.375 48 C48.97530029 48.48645996 49.57560059 48.97291992 50.1940918 49.47412109 C70.909402 66.0452634 95.14276252 80.64159487 120 90 C121.3087599 90.50608095 122.6173411 91.01262419 123.92578125 91.51953125 C127.93380889 93.06115245 131.96180348 94.5391971 136 96 C136.93070313 96.34546875 137.86140625 96.6909375 138.8203125 97.046875 C145.23927159 99.23468742 151.25818562 99.31276458 158 99 C156.33847182 101.90767432 154.94799581 104.04940398 152.5 106.375 C149.76607416 108.88556424 149.76607416 108.88556424 148.75 112.5625 C146.54933692 116.88523105 144.56198234 117.55300317 140.15625 119.17578125 C137.75880344 120.00114826 137.75880344 120.00114826 135 122 C129.6837622 122.41145329 124.95851825 121.50614398 119.875 120.0625 C119.10003174 119.84287598 118.32506348 119.62325195 117.52661133 119.39697266 C83.45364822 109.26836461 51.6272428 89.24028634 25 66 C23.92685547 65.07767578 23.92685547 65.07767578 22.83203125 64.13671875 C20.87110142 62.44263711 18.93299623 60.72588949 17 59 C16.08734375 58.19175781 15.1746875 57.38351563 14.234375 56.55078125 C7.0144556 50.09190257 0.43083319 43.23857069 -6 36 C-6.66644531 35.29488281 -7.33289063 34.58976562 -8.01953125 33.86328125 C-11.88278492 29.69241488 -11.88278492 29.69241488 -12.37890625 26.76171875 C-11.85745463 22.96103528 -10.1283244 20.02671539 -8.25 16.75 C-7.51325814 15.42188312 -6.77887089 14.09245727 -6.046875 12.76171875 C-5.69302734 12.12024902 -5.33917969 11.4787793 -4.97460938 10.81787109 C-3.0913401 7.30513988 -1.54553934 3.67065594 0 0 Z " fill="#EC6092" transform="translate(100,123)"/>
<path d="M0 0 C2.58360444 0.36715292 3.73903255 0.70807892 5.50463867 2.68310547 C5.9710376 3.40385254 6.43743652 4.12459961 6.91796875 4.8671875 C7.44551758 5.66519775 7.97306641 6.46320801 8.51660156 7.28540039 C9.34369629 8.5672522 9.34369629 8.5672522 10.1875 9.875 C17.06022013 20.21965527 24.54535103 29.51725979 32.921875 38.69921875 C34.80655836 40.78583247 36.63034896 42.90883214 38.4375 45.0625 C40.66388997 47.99029015 40.66388997 47.99029015 43 49 C43 49.66 43 50.32 43 51 C43.59337158 51.26361328 44.18674316 51.52722656 44.7980957 51.79882812 C47.08981423 53.04899501 48.46041751 54.31615413 50.23046875 56.21875 C53.97177785 60.06866168 58.02085284 63.28768345 62.3125 66.5 C63.06813232 67.06968506 63.82376465 67.63937012 64.60229492 68.22631836 C66.72977787 69.82450165 68.86383236 71.41345497 71 73 C71.86625 73.65097656 72.7325 74.30195313 73.625 74.97265625 C95.08593847 90.57015974 119.44898928 103.12758086 144 113 C144.69609375 113.28520508 145.3921875 113.57041016 146.109375 113.86425781 C153.32848011 116.97481503 153.32848011 116.97481503 161 118 C162.33827893 124.44807122 162.33827893 124.44807122 160.8125 126.9375 C159 128 159 128 155 128 C154.62875 129.1446875 154.62875 129.1446875 154.25 130.3125 C152.78787875 133.45606069 152.12314134 134.49056444 149 136 C145.94015419 135.41761243 143.35040703 134.71043802 140.4375 133.6875 C139.59759521 133.40551758 138.75769043 133.12353516 137.89233398 132.83300781 C84.34259888 114.44229055 31.72366124 78.86669598 -2 33 C-2.7528125 32.11183594 -3.505625 31.22367188 -4.28125 30.30859375 C-6 28 -6 28 -6 25 C-5.01349757 20.3038374 -3.37727567 15.74627076 -1.921875 11.1796875 C-0.82989432 7.41327956 -0.30591435 3.9004079 0 0 Z " fill="#EC6092" transform="translate(113,80)"/>
<path d="M0 0 C0.66 0.33 1.32 0.66 2 1 C3.36719899 1.06011441 4.73735093 1.06051655 6.10546875 1.02734375 C7.33426758 1.00897461 7.33426758 1.00897461 8.58789062 0.99023438 C10.30152493 0.95547245 12.01507989 0.91650835 13.72851562 0.87304688 C18.91290467 0.80424546 23.09130857 1.30620255 28 3 C27.34 3.66 26.68 4.32 26 5 C26.39832031 5.76183594 26.39832031 5.76183594 26.8046875 6.5390625 C27.15789062 7.22742188 27.51109375 7.91578125 27.875 8.625 C28.39707031 9.63433594 28.39707031 9.63433594 28.9296875 10.6640625 C31.21543641 15.65266778 32.47506492 20.7618385 33.5625 26.125 C33.81128906 27.32382812 34.06007812 28.52265625 34.31640625 29.7578125 C38.8077539 55.08057645 39.8033071 94.22073223 25.81762695 116.91894531 C23.8474586 119.1064032 22.25676756 119.95109189 19.375 120.5 C16.56074458 119.90752517 15.77990577 119.21421416 14 117 C13.25806619 109.27607855 15.08842464 102.28073343 16.9375 94.8125 C17.48979653 92.5277095 18.04062767 90.24256418 18.58984375 87.95703125 C18.83597412 86.95647705 19.08210449 85.95592285 19.33569336 84.92504883 C20.70454683 78.89776715 21.17080024 73.23438334 21.203125 67.078125 C21.21167511 65.78983795 21.21167511 65.78983795 21.22039795 64.4755249 C21.22981973 62.65670998 21.23637068 60.83787819 21.24023438 59.01904297 C21.2498232 56.30013026 21.28082353 53.58201311 21.3125 50.86328125 C21.40146986 36.22511238 20.48038995 21.73396697 14.76953125 8.06640625 C14 6 14 6 14 3 C9.545 3.495 9.545 3.495 5 4 C5.38671875 4.53625 5.7734375 5.0725 6.171875 5.625 C20.04401147 26.50187864 17.85283951 56.49931335 13.14453125 79.87109375 C9.2497554 97.83859659 9.2497554 97.83859659 5 101 C1.4375 101.3125 1.4375 101.3125 -2 101 C-4.34179133 98.65820867 -4.29546326 98.18019135 -4.3125 95 C-4.24141351 91.54957101 -3.71412146 88.70486438 -2.625 85.4375 C4.89482868 61.95139999 4.06592483 31.32248468 -6.75024414 9.13574219 C-9.09568362 4.28705087 -9.09568362 4.28705087 -8 1 C-5.26094655 -0.36952673 -3.02912668 -0.12621361 0 0 Z " fill="#E6407B" transform="translate(148,10)"/>
<path d="M0 0 C1.32 1.65 2.64 3.3 4 5 C4.90969793 6.02900257 5.8313899 7.04764246 6.76953125 8.05078125 C7.26187256 8.58002197 7.75421387 9.1092627 8.26147461 9.65454102 C8.77331299 10.20166748 9.28515137 10.74879395 9.8125 11.3125 C13.09806046 14.83763772 16.34558967 18.36463739 19.4375 22.0625 C50.4119415 57.78484859 100.69110344 87.22342947 147 96 C145.28125 100.78125 145.28125 100.78125 142.75 102.75 C129.91468962 108.58423199 112.00437417 100.59574835 99.62841797 96.02099609 C80.36385636 88.53777144 62.90648479 77.98845539 46.66552734 65.29980469 C45.27152261 64.21190067 43.86565406 63.13922136 42.45703125 62.0703125 C33.74324638 55.4357732 25.13865298 48.43814423 17.5390625 40.5390625 C15.93472396 38.93472396 14.25071305 37.50471736 12.5 36.0625 C8.55473467 32.74109623 5.33208952 28.92052235 2 25 C0.56672195 23.37127495 -0.87079354 21.74626918 -2.3125 20.125 C-2.96863281 19.38507813 -3.62476562 18.64515625 -4.30078125 17.8828125 C-5.49846409 16.55572485 -6.73595771 15.26404229 -8 14 C-5.36 9.38 -2.72 4.76 0 0 Z " fill="#ED6092" transform="translate(87,149)"/>
<path d="M0 0 C3.3 0 6.6 0 10 0 C16.93155791 17.04122141 18.58749744 33.85916313 18.5 52.125 C18.49989929 53.01476532 18.49979858 53.90453064 18.49969482 54.82125854 C18.46726259 69.43885967 17.00426373 82.88620623 13 97 C11.27687335 103.34376112 11.27687335 103.34376112 10.75 109.875 C10.74484375 110.61492187 10.7396875 111.35484375 10.734375 112.1171875 C10.8417642 114.24269329 10.8417642 114.24269329 13 116 C16.49721894 116.07216639 16.49721894 116.07216639 20 115 C23.43313004 110.71928923 24.3163486 105.54870096 25.5 100.3125 C25.71358154 99.3747876 25.92716309 98.4370752 26.1472168 97.47094727 C26.7785999 94.65013285 27.39058068 91.82562841 28 89 C28.17096191 88.24493164 28.34192383 87.48986328 28.51806641 86.71191406 C32.81372666 67.43274103 32.51671853 46.39655932 29 27 C28.78214844 25.7728125 28.56429687 24.545625 28.33984375 23.28125 C26.80325269 15.42196458 24.58418645 8.16837289 21 1 C23.97 1.33 26.94 1.66 30 2 C43.59057193 38.26009151 44.86074958 83.13441635 30.3046875 119.44140625 C28.77840378 123.60441363 28.89866919 126.48161889 29.28515625 130.80078125 C29 133 29 133 26.99609375 134.79296875 C26.33738281 135.19128906 25.67867187 135.58960938 25 136 C14.74609375 127.2109375 14.74609375 127.2109375 12.89013672 125.61230469 C11.59461093 124.50720881 10.28830392 123.41466384 8.97314453 122.33300781 C8.3336084 121.80288086 7.69407227 121.27275391 7.03515625 120.7265625 C6.16129272 120.01234131 6.16129272 120.01234131 5.26977539 119.28369141 C4 118 4 118 4 116 C3.44828125 115.78601563 2.8965625 115.57203125 2.328125 115.3515625 C-0.78119236 113.546489 -2.91272137 111.05199936 -5.25 108.375 C-5.70890625 107.859375 -6.1678125 107.34375 -6.640625 106.8125 C-7.76592296 105.5465398 -8.88372177 104.27392058 -10 103 C-9.34 101.35 -8.68 99.7 -8 98 C-7.37351563 97.95101562 -6.74703125 97.90203125 -6.1015625 97.8515625 C-4.87566406 97.73941406 -4.87566406 97.73941406 -3.625 97.625 C-2.81289062 97.55539063 -2.00078125 97.48578125 -1.1640625 97.4140625 C1.20334191 97.17107412 1.20334191 97.17107412 3 95 C13.42467345 69.98954394 15.70469188 35.56049521 5.5 10.1875 C3.89829714 6.62987152 2.04963597 3.31874197 0 0 Z " fill="#8D0D4D" transform="translate(152,13)"/>
<path d="M0 0 C2.91606962 3.52997902 4.82621211 7.46997929 6.8125 11.5625 C7.53137176 13.01490772 8.25142685 14.46673033 8.97265625 15.91796875 C9.32215332 16.62228027 9.67165039 17.3265918 10.03173828 18.05224609 C15.77476006 29.6049006 22.6390354 40.97552732 30.66918945 51.10571289 C32 53 32 53 32 55.25 C30.56533715 59.19532284 28.33451011 62.52838533 26 66 C23.78716301 63.78716301 23.58333274 62.94543631 22.96484375 59.97265625 C22.79533203 59.18052734 22.62582031 58.38839844 22.45117188 57.57226562 C22.28166016 56.74404297 22.11214844 55.91582031 21.9375 55.0625 C21.5937542 53.42811013 21.24875235 51.79398381 20.90234375 50.16015625 C20.67792603 49.07166382 20.67792603 49.07166382 20.44897461 47.96118164 C19.98842299 45.80435665 19.98842299 45.80435665 19 43 C16.89415562 42.19436362 16.89415562 42.19436362 14.4375 41.8125 C13.19806641 41.57466797 13.19806641 41.57466797 11.93359375 41.33203125 C11.29550781 41.22246094 10.65742187 41.11289063 10 41 C9.52995877 49.12126783 10.03620785 56.35896425 11.875 64.25 C12.05377686 65.02061768 12.23255371 65.79123535 12.41674805 66.58520508 C13.17343154 69.76478023 13.97435325 72.91176164 14.88671875 76.05078125 C16.11784283 80.62657769 16.33005053 83.15693424 14 87.375 C13.53207031 88.09300781 13.06414063 88.81101562 12.58203125 89.55078125 C10.70701807 92.45357944 9.21065102 95.46166989 7.6875 98.5625 C7.17574219 99.59503906 6.66398437 100.62757813 6.13671875 101.69140625 C5.76160156 102.45324219 5.38648437 103.21507812 5 104 C-6.59878372 93.38416406 -10.24798517 72.32964431 -11.17285156 57.16601562 C-11.86189601 39.41298812 -10.71318321 23.22514268 -3 7 C-2.38953441 5.58603622 -1.78426816 4.16979913 -1.1875 2.75 C-0.5996875 1.38875 -0.5996875 1.38875 0 0 Z " fill="#E6447B" transform="translate(37,96)"/>
<path d="M0 0 C0.44988281 1.20011719 0.89976563 2.40023437 1.36328125 3.63671875 C7.19129737 18.85868831 13.85584453 33.90271266 23.3125 47.25 C25.57705862 50.67934355 26.44570468 52.60008749 25.6875 56.6875 C24.93359375 58.8984375 24.93359375 58.8984375 24 61 C23.72285156 61.63164063 23.44570312 62.26328125 23.16015625 62.9140625 C22.16947351 64.98046514 21.08709929 66.98259458 20 69 C18.91133335 71.16399179 17.82824429 73.33079627 16.75 75.5 C15.83333333 77.33333333 14.91666667 79.16666667 14 81 C10.20422604 79.73474201 9.70851398 78.45709053 7.5625 75.125 C6.86382812 74.04476562 6.16515625 72.96453125 5.4453125 71.8515625 C4.62974031 70.5680056 3.81467453 69.28412683 3 68 C2.01828405 66.46611071 1.03651018 64.93225848 0.0546875 63.3984375 C-20.66503444 30.91631392 -20.66503444 30.91631392 -19.4375 23.6875 C-18.50879167 21.95121921 -17.53197566 20.23946045 -16.5 18.5625 C-14.80917456 15.95294551 -14.80917456 15.95294551 -14.125 12.4375 C-12.78487537 8.34267473 -11.50681579 7.39101077 -8 5 C-6.93085352 4.09109415 -5.868413 3.17424659 -4.8125 2.25 C-2 0 -2 0 0 0 Z " fill="#EA6192" transform="translate(64,55)"/>
<path d="M0 0 C11.75118244 -0.62703938 11.75118244 -0.62703938 16 3 C17.02306711 5.54899771 17.68244138 8.03906516 18.26171875 10.72265625 C18.87923108 13.46388822 19.61572263 16.07324981 20.4453125 18.75390625 C29.15761466 47.47639917 27.68495236 77.28568188 20 106 C19.4759917 108.16590099 18.95486735 110.3325031 18.4375 112.5 C14.96739729 126.32413891 14.96739729 126.32413891 11 131 C5.24712644 132.64367816 5.24712644 132.64367816 2.0625 131 C-0.07501222 126.97644759 0.81327734 122.69561842 1.953125 118.44921875 C2.38109375 117.20785156 2.8090625 115.96648437 3.25 114.6875 C14.15923512 81.54364913 14.90520258 47.1310233 5.90625 13.453125 C5.13020391 10.49612179 4.50389849 7.56441198 3.9375 4.5625 C3.628125 3.386875 3.31875 2.21125 3 1 C2.01 0.67 1.02 0.34 0 0 Z " fill="#E6407A" transform="translate(179,14)"/>
<path d="M0 0 C3.40764945 3.27726982 6.3025213 6.60330993 9.0625 10.4375 C23.76989215 31.30163264 23.76989215 31.30163264 43 47 C43 47.66 43 48.32 43 49 C43.556875 49.24234375 44.11375 49.4846875 44.6875 49.734375 C47.48122539 51.26337335 49.60485859 53.14728865 52 55.25 C73.68293224 73.74629221 99.48661974 89.52054942 126 100 C126.90234375 100.39574219 127.8046875 100.79148437 128.734375 101.19921875 C137.91450096 105.21869379 147.42617235 108.08579096 157 111 C155.75023244 114.65316671 155.32901247 115.78065836 152 118 C149.04818046 117.34742833 146.35210841 116.58660862 143.5 115.625 C142.6555835 115.3475293 141.81116699 115.07005859 140.94116211 114.78417969 C87.38390461 96.76454413 34.61798193 60.72296423 1 15 C0.24460937 14.12472656 -0.51078125 13.24945313 -1.2890625 12.34765625 C-3 10 -3 10 -2.875 6.375 C-2 3 -2 3 0 0 Z " fill="#8D0E4D" transform="translate(110,98)"/>
<path d="M0 0 C0.66 0 1.32 0 2 0 C3.41015625 1.58203125 3.41015625 1.58203125 5.0625 3.8125 C7.85935911 7.50855807 10.70144653 11.15290667 13.625 14.75 C14.33914062 15.63171875 15.05328125 16.5134375 15.7890625 17.421875 C18.07688762 20.08965694 20.49034782 22.5407736 23 25 C24.18529297 26.20269531 24.18529297 26.20269531 25.39453125 27.4296875 C32.68779657 34.80542916 40.30981145 41.49273352 48.375 48 C48.97530029 48.48645996 49.57560059 48.97291992 50.1940918 49.47412109 C70.909402 66.0452634 95.14276252 80.64159487 120 90 C121.3087599 90.50608095 122.6173411 91.01262419 123.92578125 91.51953125 C127.93380889 93.06115245 131.96180348 94.5391971 136 96 C136.93070313 96.34546875 137.86140625 96.6909375 138.8203125 97.046875 C145.23927159 99.23468742 151.25818562 99.31276458 158 99 C155.87960395 103.12299232 153.44385502 107.22474569 149 109 C145.15325282 108.70341442 141.77251201 107.37014388 138.1875 106 C137.13433594 105.62061279 136.08117187 105.24122559 134.99609375 104.8503418 C96.25555749 90.5894409 58.97161926 70.19515659 28.875 41.6640625 C26.07193242 38.98805987 26.07193242 38.98805987 23.125 36.7734375 C22.42375 36.18820313 21.7225 35.60296875 21 35 C21 34.34 21 33.68 21 33 C20.34 33 19.68 33 19 33 C17.625 31.63671875 17.625 31.63671875 16 29.6875 C12.21591376 25.2291007 8.28864335 20.91882292 4.33203125 16.61328125 C-2.02489927 9.48968574 -2.02489927 9.48968574 -1.8125 5.3125 C-1 2 -1 2 0 0 Z " fill="#8D0E4D" transform="translate(100,123)"/>
<path d="M0 0 C3.41090079 2.66216647 6.37078617 5.32484311 9.16796875 8.62890625 C19.019133 20.01334082 29.94374672 30.96950757 42 40 C43.022146 40.772229 43.022146 40.772229 44.06494141 41.56005859 C75.32957183 65.13307184 110.50503834 90.01273188 150 96 C147.32490747 99.2425364 145.94685301 100.87576751 141.6953125 101.43359375 C137.64134845 100.95791721 133.79300215 100.17515465 129.875 99.0625 C129.10003174 98.84287598 128.32506348 98.62325195 127.52661133 98.39697266 C93.45364822 88.26836461 61.6272428 68.24028634 35 45 C33.92685547 44.07767578 33.92685547 44.07767578 32.83203125 43.13671875 C30.87110142 41.44263711 28.93299623 39.72588949 27 38 C26.08734375 37.19175781 25.1746875 36.38351563 24.234375 35.55078125 C17.0144556 29.09190257 10.43083319 22.23857069 4 15 C3.33355469 14.29488281 2.66710937 13.58976563 1.98046875 12.86328125 C-0.3249133 10.37433248 -1.88389956 8.63855244 -2.5 5.25 C-2 3 -2 3 0 0 Z " fill="#8D0F4D" transform="translate(90,144)"/>
<path d="M0 0 C0.28875 0.598125 0.5775 1.19625 0.875 1.8125 C2.04742026 4.19327792 2.04742026 4.19327792 4 7 C4.23046875 8.9375 4.23046875 8.9375 4.1875 11 C4.18105469 11.680625 4.17460937 12.36125 4.16796875 13.0625 C4 15 4 15 3 18 C2.90331405 20.84370451 2.86076163 23.6570727 2.875 26.5 C2.87113281 27.27214844 2.86726563 28.04429687 2.86328125 28.83984375 C2.86900949 32.14503737 2.94792499 34.84377498 4 38 C4.80075641 49.44687853 3.99121254 59.09013517 -2.375 69 C-5.14315908 72.16361038 -6.99103157 73.74719737 -11 75 C-13.875 74.1875 -13.875 74.1875 -16 73 C-15.7791536 68.69349519 -14.54190173 66.07686212 -12.125 62.625 C-6.84869317 54.96992654 -5.61310493 48.72166424 -5.46557617 39.54663086 C-5.31687944 34.44627188 -5.31687944 34.44627188 -3.59375 32.01953125 C-2 31 -2 31 0 31 C0 28.03 0 25.06 0 22 C-0.886875 22.969375 -1.77375 23.93875 -2.6875 24.9375 C-12.93598821 35.18598821 -25.4615367 41.35712642 -39 46 C-40.41152344 46.54333984 -40.41152344 46.54333984 -41.8515625 47.09765625 C-45.58340467 48.16720407 -48.87157712 48.3010027 -52.75 48.3125 C-54.72226563 48.33763672 -54.72226563 48.33763672 -56.734375 48.36328125 C-57.81203125 48.24339844 -58.8896875 48.12351563 -60 48 C-62.31361802 44.52957297 -62.51020728 43.08165827 -62 39 C-58.89911202 35.92126122 -56.1280272 35.51854749 -51.875 35.0625 C-45.66634407 34.20114374 -40.6472747 32.66545038 -35 30 C-34.4028418 29.72913574 -33.80568359 29.45827148 -33.19042969 29.17919922 C-20.42486724 23.36321653 -8.50384728 16.34123311 -1 4 C-0.30685716 1.84324415 -0.30685716 1.84324415 0 0 Z " fill="#E5417B" transform="translate(285,122)"/>
<path d="M0 0 C3.39549568 22.25262346 2.7379088 43.60580716 -5 65 C-5.66 65 -6.32 65 -7 65 C-8.94787332 62.50825716 -10.42760297 59.67715978 -12 56.9375 C-12.72388916 55.68235596 -12.72388916 55.68235596 -13.46240234 54.40185547 C-19.69567734 43.32250875 -26.80649762 30.63580949 -29 18 C-28.21625 17.46375 -27.4325 16.9275 -26.625 16.375 C-23.6361868 13.67083568 -23.07675478 11.81005538 -22 8 C-19.61771099 5.61771099 -18.57560519 5.61471563 -15.3125 5.125 C-9.90941942 4.15681793 -5.1777494 0 0 0 Z " fill="#EB6193" transform="translate(102,26)"/>
<path d="M0 0 C0.495 0.99 0.495 0.99 1 2 C2.31647119 2.69937532 3.65022151 3.36729133 5 4 C6 5 6 5 6.1328125 7.21484375 C6.13023437 8.11332031 6.12765625 9.01179688 6.125 9.9375 C6.12886719 11.28134766 6.12886719 11.28134766 6.1328125 12.65234375 C6 15 6 15 5 17 C4.34 17 3.68 17 3 17 C2.74605469 17.74765625 2.49210937 18.4953125 2.23046875 19.265625 C-3.65372416 32.34160924 -25.30999731 40.94004191 -38 46 C-49.640209 50.35622139 -62.46803457 54.16036717 -75 53 C-77 51.875 -77 51.875 -78 50 C-78.64424846 44.84601231 -78.64424846 44.84601231 -76.76049805 42.37231445 C-74.61091131 40.69670399 -73.14596591 40.42309968 -70.45703125 40.04296875 C-69.55621826 39.9035083 -68.65540527 39.76404785 -67.72729492 39.62036133 C-66.28447144 39.40609497 -66.28447144 39.40609497 -64.8125 39.1875 C-41.80520735 35.34702746 -17.63062998 25.22546665 -3.33984375 6.04296875 C-2.05512363 4.08405148 -0.99504967 2.11864642 0 0 Z " fill="#E6407B" transform="translate(280,101)"/>
<path d="M0 0 C4.875 3.75 4.875 3.75 6 6 C6.29270285 12.13403364 4.75048422 16.31428063 0.84375 20.9765625 C0.2353125 21.64429687 -0.373125 22.31203125 -1 23 C-1.6290625 23.70898438 -2.258125 24.41796875 -2.90625 25.1484375 C-17.37471695 40.53468034 -37.6949046 51.71327104 -58.7734375 54.08203125 C-61.40148626 53.9852084 -62.83750199 53.49088519 -65 52 C-66.0929644 48.31124515 -66.6159157 46.13944404 -64.75 42.6875 C-61.95648353 40.97329671 -60.6045642 40.68836503 -57.4375 40.25 C-43.32083591 38.07675185 -27.32695041 30.53512417 -17.28125 20.23828125 C-16 19 -16 19 -14 19 C-14 18.34 -14 17.68 -14 17 C-12.3451323 15.32161731 -10.67599046 13.65729042 -9 12 C-7.36081167 9.92299984 -5.75625564 7.81819796 -4.1875 5.6875 C-3.57745117 4.86282227 -3.57745117 4.86282227 -2.95507812 4.02148438 C-1.96631389 2.68374453 -0.98261415 1.34226377 0 0 Z " fill="#E6407B" transform="translate(271,80)"/>
<path d="M0 0 C4.39731149 1.6522188 6.14755164 6.71735239 7.99609375 10.75 C8.33640625 11.48863281 8.67671875 12.22726563 9.02734375 12.98828125 C15.47438471 31.36754722 17.20196615 55.06291409 10.99609375 73.75 C8.60283618 76.75253903 7.77159586 77.63921398 3.93359375 78.1875 C0.99609375 77.75 0.99609375 77.75 -0.81640625 76.75 C-3.00543212 73.06321959 -3.44618336 68.91723765 -2.59790039 64.76049805 C-2.41348389 64.08027588 -2.22906738 63.40005371 -2.0390625 62.69921875 C-0.74998756 57.1902742 -0.61987574 51.82795419 -0.62890625 46.1875 C-0.63051758 45.13336914 -0.63212891 44.07923828 -0.63378906 42.99316406 C-0.77358351 34.01068532 -2.21154507 26.27904876 -5.00390625 17.75 C-5.36226563 16.57179688 -5.720625 15.39359375 -6.08984375 14.1796875 C-7.68168856 8.46697534 -7.68168856 8.46697534 -11.00390625 3.75 C-7.49198446 1.11605866 -4.36312065 -0.13196584 0 0 Z " fill="#E7417A" transform="translate(129.00390625,14.25)"/>
<path d="M0 0 C0.32871094 0.7528125 0.65742187 1.505625 0.99609375 2.28125 C7.41311435 16.61085699 15.3496842 29.92163708 24 43 C24.75798441 44.15613731 25.51579773 45.31238681 26.2734375 46.46875 C29.7886147 52.01181842 29.7886147 52.01181842 34 57 C32.87616008 58.93817313 31.75088679 60.87551518 30.625 62.8125 C29.99851563 63.89144531 29.37203125 64.97039062 28.7265625 66.08203125 C27.53944654 68.08831093 26.29310627 70.06034059 25 72 C24.43667969 70.989375 23.87335938 69.97875 23.29296875 68.9375 C21.13736325 65.16590039 18.75851598 61.58726501 16.3125 58 C-8.0676045 21.63530625 -8.0676045 21.63530625 -7.3125 8.5 C-6.66374076 5.36924516 -5.96677081 3.9539079 -4.0625 1.3125 C-2 0 -2 0 0 0 Z " fill="#EB6091" transform="translate(44,80)"/>
<path d="M0 0 C2.91606962 3.52997902 4.82621211 7.46997929 6.8125 11.5625 C7.53137176 13.01490772 8.25142685 14.46673033 8.97265625 15.91796875 C9.32215332 16.62228027 9.67165039 17.3265918 10.03173828 18.05224609 C15.77476006 29.6049006 22.6390354 40.97552732 30.66918945 51.10571289 C32 53 32 53 32 55.25 C30.56533715 59.19532284 28.33451011 62.52838533 26 66 C23.78716301 63.78716301 23.58333274 62.94543631 22.96484375 59.97265625 C22.79533203 59.18052734 22.62582031 58.38839844 22.45117188 57.57226562 C22.28166016 56.74404297 22.11214844 55.91582031 21.9375 55.0625 C21.5937542 53.42811013 21.24875235 51.79398381 20.90234375 50.16015625 C20.67792603 49.07166382 20.67792603 49.07166382 20.44897461 47.96118164 C19.98842299 45.80435665 19.98842299 45.80435665 19 43 C16.89415562 42.19436362 16.89415562 42.19436362 14.4375 41.8125 C13.19806641 41.57466797 13.19806641 41.57466797 11.93359375 41.33203125 C11.29550781 41.22246094 10.65742187 41.11289063 10 41 C9.28157224 53.41283522 11.79586151 64.28890719 14.81640625 76.2265625 C15.12384766 77.53753906 15.12384766 77.53753906 15.4375 78.875 C15.62183594 79.59429687 15.80617188 80.31359375 15.99609375 81.0546875 C16.00168524 83.83924819 14.87943353 85.02770034 13 87 C12.34 87 11.68 87 11 87 C4.13881437 70.70190857 -2.10675307 49.69549319 3 32 C3.60976061 25.04872907 2.02996564 19.29215493 -1 13 C-1.66 12.67 -2.32 12.34 -3 12 C-2.14285714 3.42857143 -2.14285714 3.42857143 0 0 Z " fill="#8E0F4E" transform="translate(37,96)"/>
<path d="M0 0 C3.25666272 0.56149357 4.95623323 1.37229986 7 4 C7.90223977 6.3841308 8.14634417 7.56769596 7.3203125 10.0078125 C-1.37603939 25.41115473 -14.75196202 35.48407731 -31 42 C-31.83789062 42.3403125 -32.67578125 42.680625 -33.5390625 43.03125 C-38.51968887 44.87972989 -42.6918505 45.46562715 -48 45 C-50 43 -50 43 -50.1953125 41.0546875 C-50.09765625 38.02734375 -50.09765625 38.02734375 -50 35 C-48.25 34.27083333 -46.5 33.54166667 -44.75 32.8125 C-43.65300781 32.35101563 -42.55601562 31.88953125 -41.42578125 31.4140625 C-39.26900007 30.52380619 -37.10076123 29.66036356 -34.91796875 28.8359375 C-20.59316659 23.31628896 -8.21298557 12.99595397 0 0 Z " fill="#E6407A" transform="translate(260,66)"/>
<path d="M0 0 C1.97509766 0.88842773 1.97509766 0.88842773 3.18847656 2.91943359 C3.52282715 3.8051001 3.85717773 4.6907666 4.20166016 5.60327148 C4.58902344 6.59157959 4.97638672 7.5798877 5.37548828 8.59814453 C5.98166992 10.19589722 5.98166992 10.19589722 6.60009766 11.82592773 C10.67813181 22.13249783 15.4447633 31.63113469 21.04150391 41.17895508 C21.97509766 42.88842773 21.97509766 42.88842773 23.13134766 45.81420898 C23.78171245 48.06673286 23.78171245 48.06673286 25.97509766 48.88842773 C25.70955078 49.5290918 25.44400391 50.16975586 25.17041016 50.82983398 C23.13964268 55.80299083 21.33116931 60.69015305 19.97509766 65.88842773 C16.31099572 61.60793482 13.52660015 57.00189499 10.72509766 52.13842773 C10.24419678 51.3044043 9.7632959 50.47038086 9.26782227 49.61108398 C-7.02490234 20.96405897 -7.02490234 20.96405897 -7.02490234 11.88842773 C-7.68490234 11.55842773 -8.34490234 11.22842773 -9.02490234 10.88842773 C-8.17433962 6.86758575 -7.51228058 4.40145746 -4.64990234 1.38842773 C-2.02490234 -0.11157227 -2.02490234 -0.11157227 0 0 Z " fill="#EB6193" transform="translate(71.02490234375,43.111572265625)"/>
<path d="M0 0 C14.39006973 2.36549092 26.97924964 8.4518499 38 18 C39.03125 18.763125 40.0625 19.52625 41.125 20.3125 C46.82848046 25.64401434 53.40830945 33.79312316 54.3125 41.75 C54 44 54 44 52 46 C48.875 46.125 48.875 46.125 46 46 C46 45.34 46 44.68 46 44 C45.01 43.67 44.02 43.34 43 43 C41.54011723 41.17442667 40.1542515 39.28907382 38.8125 37.375 C30.15547997 25.48537278 17.55051616 16.04110571 3.3046875 11.94921875 C0.47209325 10.782574 -1.05520013 9.34885647 -3 7 C-3.25 4.25 -3.25 4.25 -3 2 C-2.01 2 -1.02 2 0 2 C0 1.34 0 0.68 0 0 Z " fill="#D11F61" transform="translate(204,21)"/>
<path d="M0 0 C6.08790047 1.42482777 12.04449583 2.96178957 17.9375 5.0625 C24.18534318 7.22235042 30.45470614 8.19767366 37 9 C34.61753661 11.68125418 32.1454496 13.11423459 28.9375 14.6875 C28.05964844 15.12449219 27.18179688 15.56148438 26.27734375 16.01171875 C24 17 24 17 22 17 C22 15.68 22 14.36 22 13 C17.17918023 13.30608379 13.23669867 13.69396065 8.875 15.8125 C-10.77544827 25.09376709 -29.45935373 22.31046909 -50 18 C-49.67 17.34 -49.34 16.68 -49 16 C-49.66 15.34 -50.32 14.68 -51 14 C-49.6696875 13.1646875 -49.6696875 13.1646875 -48.3125 12.3125 C-45.15720622 10.22146208 -42.60131889 7.75433765 -40 5 C-39.67 6.32 -39.34 7.64 -39 9 C-38.34 9 -37.68 9 -37 9 C-36.5875 9.45375 -36.175 9.9075 -35.75 10.375 C-31.49931869 14.32206122 -25.77370873 14.3554732 -20.25 14.3125 C-19.54915283 14.31048584 -18.84830566 14.30847168 -18.1262207 14.30639648 C-12.37827844 14.19597357 -7.36026285 13.10698723 -2 11 C-1.01 10.67 -0.02 10.34 1 10 C0.65213292 8.02463255 0.65213292 8.02463255 0 6 C-0.66 5.67 -1.32 5.34 -2 5 C-2 4.34 -2 3.68 -2 3 C-1.34 3 -0.68 3 0 3 C0 2.01 0 1.02 0 0 Z " fill="#8C0D4D" transform="translate(184,244)"/>
<path d="M0 0 C4.25888265 1.60420627 8.26780227 3.6164526 12.3125 5.6875 C32.39631971 16.82404496 32.39631971 16.82404496 54 22 C55.33827893 28.44807122 55.33827893 28.44807122 53.8125 30.9375 C52 32 52 32 48 32 C47.505 32.99 47.505 32.99 47 34 C43.70659837 32.92189502 40.41563107 31.83652913 37.125 30.75 C36.2071875 30.44964844 35.289375 30.14929688 34.34375 29.83984375 C25.24361725 26.82782798 16.41563079 23.25020049 7.625 19.4375 C6.94050781 19.14681641 6.25601563 18.85613281 5.55078125 18.55664062 C2.03736487 17.03188614 -1.06438996 15.47645052 -4 13 C-3.01 13 -2.02 13 -1 13 C-0.1276588 10.00519083 0.10829766 7.36424089 0.0625 4.25 C0.05347656 3.45078125 0.04445312 2.6515625 0.03515625 1.828125 C0.02355469 1.22484375 0.01195312 0.6215625 0 0 Z " fill="#E63F7B" transform="translate(220,176)"/>
<path d="M0 0 C0.53778076 0.24645264 1.07556152 0.49290527 1.62963867 0.74682617 C18.91550809 8.64930675 35.41223399 14.90072669 54 19 C52.28125 23.78125 52.28125 23.78125 49.75 25.75 C36.94587156 31.57005838 19.05975381 23.62415807 6.703125 19.06494141 C-0.72440695 16.13874069 -7.87580389 12.59059484 -15 9 C-15 8.67 -15 8.34 -15 8 C-14.16855469 7.92523438 -13.33710938 7.85046875 -12.48046875 7.7734375 C-11.39378906 7.64195312 -10.30710938 7.51046875 -9.1875 7.375 C-8.10855469 7.25898438 -7.02960938 7.14296875 -5.91796875 7.0234375 C-2.69997254 6.24018451 -2.69997254 6.24018451 -1.11328125 2.9140625 C-0.74589844 1.95242187 -0.37851563 0.99078125 0 0 Z " fill="#E6417B" transform="translate(180,226)"/>
<path d="M0 0 C0.60134766 0.26103516 1.20269531 0.52207031 1.82226562 0.79101562 C16.9838133 7.33466167 32.25428085 13.02566911 48 18 C47.671875 21.37109375 47.671875 21.37109375 47 25 C42.56862405 28.32353197 39.27862141 28.1571106 33.875 27.4375 C17.6706626 24.37832875 3.59167816 17.41414999 -11 10 C-11 9.67 -11 9.34 -11 9 C-7.7 8.34 -4.4 7.68 -1 7 C-0.67 4.69 -0.34 2.38 0 0 Z " fill="#E7407B" transform="translate(201,213)"/>
<path d="M0 0 C3.0625 1.25 3.0625 1.25 5.0625 3.25 C5.50069562 6.79987687 5.40272822 8.67823985 3.55859375 11.77734375 C2.87925781 12.57269531 2.19992188 13.36804688 1.5 14.1875 C0.7678125 15.04601562 0.035625 15.90453125 -0.71875 16.7890625 C-7.83906433 24.68659424 -14.77920331 30.3636733 -24.375 35.0625 C-25.30602539 35.53429687 -25.30602539 35.53429687 -26.25585938 36.015625 C-31.01799108 38.25956141 -34.67592641 38.709212 -39.9375 38.25 C-42.9375 36.25 -42.9375 36.25 -44.9375 34.25 C-44.640625 32.328125 -44.640625 32.328125 -43.9375 30.25 C-42.13979501 29.55857501 -40.33505922 28.88251974 -38.5078125 28.2734375 C-26.34443092 23.43026733 -16.48559065 14.56881603 -8.25 4.625 C-4.45926331 0.28312783 -4.45926331 0.28312783 0 0 Z " fill="#E6417B" transform="translate(127.9375,216.75)"/>
<path d="M0 0 C3.3125 0.6875 3.3125 0.6875 5.3125 1.75 C6.54828991 4.14434295 6.65355405 5.96053187 6.140625 8.59765625 C1.62886158 19.98347432 -11.20551934 29.23017052 -21.6875 34.6875 C-26.43986528 36.60406703 -31.05297983 38.38057504 -36.15234375 37.0390625 C-39.16144298 35.59164768 -41.32572676 34.04927324 -43.6875 31.6875 C-43.74609375 29.7109375 -43.74609375 29.7109375 -42.6875 27.6875 C-40.33440889 26.69768361 -38.19378858 25.97850536 -35.75 25.3125 C-23.22089199 21.49632458 -13.97938336 15.17056328 -6.625 4.1875 C-4.34646163 1.01871304 -4.08848371 0.76225968 0 0 Z " fill="#E6417B" transform="translate(109.6875,204.3125)"/>
<path d="M0 0 C-0.20355941 3.56228965 -0.88569192 4.8796757 -3.375 7.5 C-7.82275565 10.86758642 -12.82297473 12.99931693 -18 15 C-19.25490234 15.48533203 -19.25490234 15.48533203 -20.53515625 15.98046875 C-33.61481134 20.08351225 -53.20611691 20.59157121 -66 15 C-67.33572186 14.00319265 -68.66928903 13.00348696 -70 12 C-73.15118325 11.27954633 -73.15118325 11.27954633 -76 11 C-75.34 10.34 -74.68 9.68 -74 9 C-73.3574765 6.93125966 -73.3574765 6.93125966 -73 5 C-67.9467159 4.84411463 -63.55129801 5.40300993 -58.625 6.5 C-41.74700721 9.89064168 -26.64521751 8.34271559 -11.07421875 0.75 C-7.3719735 -0.58866495 -3.89105915 -0.24705137 0 0 Z " fill="#CF1F61" transform="translate(206,257)"/>
<path d="M0 0 C2.375 0.5 2.375 0.5 4.1875 1.625 C5.93519534 4.38451895 5.69228072 6.27627119 5.375 9.5 C-1.85510564 21.46285595 -13.47491846 30.09797403 -25.625 36.5 C-26.30820313 36.89703125 -26.99140625 37.2940625 -27.6953125 37.703125 C-30.06579069 38.95745875 -31.90268745 39.65841462 -34.56640625 39.07421875 C-39.2629717 37.2240566 -39.2629717 37.2240566 -40.625 34.5 C-40.664992 32.50039988 -40.66846799 30.49952758 -40.625 28.5 C-39.57441406 28.00371094 -38.52382813 27.50742188 -37.44140625 26.99609375 C-25.08918717 21.06137648 -15.34483804 14.20848214 -6.19140625 3.8828125 C-4.16810216 1.65150518 -3.00530973 0.57243995 0 0 Z " fill="#E6407B" transform="translate(94.625,189.5)"/>
<path d="M0 0 C0.79096069 0.36182373 0.79096069 0.36182373 1.59790039 0.73095703 C23.46095561 10.80737517 23.46095561 10.80737517 46.3671875 18.04296875 C47.23601562 18.35878906 48.10484375 18.67460937 49 19 C49.495 20.485 49.495 20.485 50 22 C47.11917594 25.07950158 45.25922795 26.75081848 40.93920898 27.22729492 C33.73448194 27.42605111 27.81001587 25.70788964 21.0625 23.3125 C20.05509766 22.97283203 19.04769531 22.63316406 18.00976562 22.28320312 C12.00110809 20.21591581 6.21947934 17.84303202 0.47045898 15.13745117 C-1.99039343 14.00442307 -4.4768307 12.98529127 -7 12 C-6.21625 11.505 -5.4325 11.01 -4.625 10.5 C-1.93049643 7.93380613 -1.58117172 7.27043443 -0.8359375 3.84375 C-0.56007812 2.5753125 -0.28421875 1.306875 0 0 Z " fill="#E6407C" transform="translate(213,196)"/>
<path d="M0 0 C2.9375 0.5625 2.9375 0.5625 4.8125 1.6875 C6.58330745 4.63884574 6.50822835 6.13812991 5.9375 9.5625 C4.24417053 12.8050458 2.15740852 15.66181953 -0.0625 18.5625 C-0.58070313 19.25859375 -1.09890625 19.9546875 -1.6328125 20.671875 C-6.77370061 27.07935874 -13.49353136 32.0703696 -21.33984375 34.6328125 C-24.20074424 35.25404955 -24.20074424 35.25404955 -25.0625 37.5625 C-26.8117214 37.64392927 -28.56204542 37.70188541 -30.3125 37.75 C-31.28703125 37.78480469 -32.2615625 37.81960938 -33.265625 37.85546875 C-36.43718742 37.52325202 -37.73290307 36.67577721 -40.0625 34.5625 C-39.0625 31.5625 -39.0625 31.5625 -36.47265625 30.01953125 C-35.36792969 29.47683594 -34.26320313 28.93414062 -33.125 28.375 C-21.83209473 22.56575837 -11.27852558 14.11072983 -4.875 2.9375 C-3.0625 0.5625 -3.0625 0.5625 0 0 Z " fill="#E6417B" transform="translate(144.0625,227.4375)"/>
<path d="M0 0 C11.14603367 0.71144896 20.28530268 6.06708329 28 14 C31 19.22580645 31 19.22580645 31 22 C31.66 22 32.32 22 33 22 C33.1875 25.375 33.1875 25.375 33 29 C29.75617644 31.16254904 28.76294751 31.5144429 25 31 C23.11328125 29.49609375 23.11328125 29.49609375 21.3125 27.4375 C17.00075646 22.83288331 12.23163951 19.48209772 7 16 C0.15702479 11.31404959 0.15702479 11.31404959 -1 9 C-1.18704404 6.30986661 -1.08581391 3.70313823 -1 1 C-0.67 0.67 -0.34 0.34 0 0 Z " fill="#D21C61" transform="translate(211,47)"/>
<path d="M0 0 C2.21740671 2.74944339 3.6454468 5.26164198 4.875 8.56640625 C10.51126754 23.15078226 17.54538806 37.04289164 26.203125 50.06030273 C26.68523437 50.78677002 27.16734375 51.5132373 27.6640625 52.26171875 C28.09154785 52.89037842 28.5190332 53.51903809 28.95947266 54.16674805 C30.07699551 56.13565445 30.65374539 57.76479769 31 60 C30.0625 62.25 30.0625 62.25 29 64 C25.20422604 62.73474201 24.70851398 61.45709053 22.5625 58.125 C21.86382812 57.04476562 21.16515625 55.96453125 20.4453125 54.8515625 C19.62974031 53.5680056 18.81467453 52.28412683 18 51 C17.01828405 49.46611071 16.03651018 47.93225848 15.0546875 46.3984375 C-5.6552702 13.93162122 -5.6552702 13.93162122 -4.4375 6.625 C-3.11966373 4.21851638 -1.77142227 2.09349905 0 0 Z " fill="#8E0F4E" transform="translate(49,72)"/>
<path d="M0 0 C0.44988281 1.20011719 0.89976563 2.40023437 1.36328125 3.63671875 C7.52988186 19.74302401 14.66502763 35.80053057 24.953125 49.74609375 C26.38500742 52.82891522 25.83616222 54.76654292 25 58 C24.67 58.66 24.34 59.32 24 60 C19.85945133 58.61981711 18.80806519 55.79527069 16.75 52.1875 C16.35232422 51.50461914 15.95464844 50.82173828 15.54492188 50.11816406 C14.73567627 48.72763851 13.92966651 47.3352246 13.12695312 45.94091797 C12.16390562 44.28228979 11.17086405 42.64113831 10.171875 41.00390625 C5.10253373 32.65370627 1.02595347 23.86816825 -3.05786133 15.0078125 C-3.70740626 13.62355297 -4.38915165 12.25410434 -5.09643555 10.8984375 C-6.30083331 8.36793304 -6.41570613 6.77137419 -6 4 C-2.75675676 0 -2.75675676 0 0 0 Z " fill="#8D0F4D" transform="translate(64,55)"/>
<path d="M0 0 C3.44113828 2.76764332 4.82152029 6.63279687 6.5625 10.5625 C9.13600614 16.28510808 11.95005448 21.69615439 15.18603516 27.07202148 C22.3160764 39.00137214 22.3160764 39.00137214 20.66796875 47.03125 C20 49 20 49 19 51 C18.34 51 17.68 51 17 51 C15.05212668 48.50825716 13.57239703 45.67715978 12 42.9375 C11.27611084 41.68235596 11.27611084 41.68235596 10.53759766 40.40185547 C4.30432266 29.32250875 -2.80649762 16.63580949 -5 4 C-3.35 2.68 -1.7 1.36 0 0 Z " fill="#8C0F4C" transform="translate(78,40)"/>
<path d="M0 0 C3 1 3 1 4.66015625 3.58203125 C8.08574445 12.32077666 6.84420809 23.15518113 3.19921875 31.66015625 C0.76693575 36.40588106 -1.49977395 39.96859459 -6 43.0625 C-9 44 -9 44 -11.875 43.1875 C-12.57625 42.795625 -13.2775 42.40375 -14 42 C-13.7791536 37.69349519 -12.54190173 35.07686212 -10.125 31.625 C-4.84869317 23.96992654 -3.61310493 17.72166424 -3.46557617 8.54663086 C-3.31577573 3.40841402 -3.31577573 3.40841402 -1.46875 1.01953125 C-0.74171875 0.51486328 -0.74171875 0.51486328 0 0 Z " fill="#CF2060" transform="translate(283,153)"/>
<path d="M0 0 C3.8088536 -0.44288995 5.46405767 -0.41075275 8.55859375 1.9609375 C11.66755537 5.83097292 12.44323186 9.14163457 13.375 13.9375 C13.63990234 15.11602539 13.63990234 15.11602539 13.91015625 16.31835938 C15.14516746 22.22171298 15.3428702 26.53324084 12.37109375 31.9921875 C11.73300781 32.94351563 11.09492187 33.89484375 10.4375 34.875 C9.79683594 35.84179688 9.15617187 36.80859375 8.49609375 37.8046875 C8.00238281 38.52914062 7.50867187 39.25359375 7 40 C5 39 5 39 4 36.2265625 C-3.89539749 7.79079498 -3.89539749 7.79079498 0 0 Z " fill="#E6407B" transform="translate(47,137)"/>
<path d="M0 0 C1.61953939 0.12822711 3.239338 0.25322082 4.859375 0.375 C5.65021484 0.43558594 6.44105469 0.49617187 7.25585938 0.55859375 C10.26402094 0.73138632 13.24093989 0.62096724 16.25 0.5 C21.28811084 0.42302886 23.74677182 1.35129717 27.5 4.6875 C26.5 7.6875 26.5 7.6875 24.57421875 8.8203125 C23.78660156 9.14773437 22.99898437 9.47515625 22.1875 9.8125 C21.40761719 10.14507812 20.62773437 10.47765625 19.82421875 10.8203125 C11.80822638 13.81115335 0.686189 14.20127431 -7.4375 11.375 C-10.5 9.6875 -10.5 9.6875 -11.5 6.6875 C-12.16 6.6875 -12.82 6.6875 -13.5 6.6875 C-13.1561757 4.19477381 -12.69802867 2.90390246 -10.984375 1.03125 C-7.34739804 -0.93591993 -3.98110891 -0.37410545 0 0 Z " fill="#D11B61" transform="translate(158.5,246.3125)"/>
<path d="M0 0 C0.515625 0.2475 1.03125 0.495 1.5625 0.75 C2.04454016 9.74808306 0.00815675 15.60509554 -5.9375 22.40234375 C-8.59495552 24.78990144 -11.22549067 24.86822966 -14.625 24.8125 C-16.5121875 24.7815625 -16.5121875 24.7815625 -18.4375 24.75 C-18.7675 23.76 -19.0975 22.77 -19.4375 21.75 C-18.109375 19.55078125 -18.109375 19.55078125 -16.1875 17.0625 C-13.81725469 13.86640151 -12.05559888 11.19517116 -10.9375 7.375 C-9.45234676 3.78587967 -9.08779973 3.10023852 -6 1.1875 C-2.4375 -0.25 -2.4375 -0.25 0 0 Z " fill="#D11C62" transform="translate(270.4375,164.25)"/>
<path d="M0 0 C0.78579793 4.14923058 1.11854983 8.05293431 1.09765625 12.2734375 C1.09443359 13.42714844 1.09121094 14.58085938 1.08789062 15.76953125 C1.07951172 16.95933594 1.07113281 18.14914063 1.0625 19.375 C1.05798828 20.58800781 1.05347656 21.80101563 1.04882812 23.05078125 C1.03708354 26.03390507 1.0206584 29.01692679 1 32 C-1.26133307 29.04242056 -3.1198049 26.09993298 -4.875 22.8125 C-7.21528789 18.43105877 -9.65582134 14.13221159 -12.21484375 9.875 C-13 8 -13 8 -12 5 C-10.0390625 3.61328125 -10.0390625 3.61328125 -7.625 2.3125 C-6.83351563 1.87550781 -6.04203125 1.43851563 -5.2265625 0.98828125 C-3 0 -3 0 0 0 Z " fill="#8B104E" transform="translate(102,26)"/>
<path d="M0 0 C4.06809929 0.52537408 6.17603456 1.61400461 9.1875 4.375 C9.86167969 4.98085937 10.53585938 5.58671875 11.23046875 6.2109375 C13 8 13 8 15 11 C14.875 13.5625 14.875 13.5625 14 16 C11.65185049 17.82633851 9.89915854 18.01234793 6.9375 18.375 C4 18 4 18 2.1875 16.25 C0.1561679 12.40116023 -0.1193644 9.07169473 -0.0625 4.75 C-0.05347656 3.85796875 -0.04445312 2.9659375 -0.03515625 2.046875 C-0.02355469 1.37140625 -0.01195312 0.6959375 0 0 Z " fill="#D11D61" transform="translate(212,72)"/>
<path d="M0 0 C0.27328125 0.5775 0.5465625 1.155 0.828125 1.75 C2.35628828 4.68407351 4.25704616 7.30661438 6.171875 10 C7 12 7 12 6.265625 14.125 C5 16 5 16 3 18 C0.125 18.375 0.125 18.375 -3 18 C-5.375 16 -5.375 16 -7 14 C-5.23570801 9.02790438 -2.6060834 4.56561939 0 0 Z " fill="#E2417A" transform="translate(69,179)"/>
<path d="M0 0 C0.28875 0.61875 0.5775 1.2375 0.875 1.875 C1.93720042 4.13325765 1.93720042 4.13325765 4 6 C3.8125 9.5 3.8125 9.5 3 13 C-0.4352048 15.29013653 -1.985331 15.17842973 -6 15 C-5.37806106 13.24890978 -4.75232002 11.49916969 -4.125 9.75 C-3.77695312 8.77546875 -3.42890625 7.8009375 -3.0703125 6.796875 C-2.16725355 4.43705673 -1.17921582 2.23094884 0 0 Z " fill="#E0437A" transform="translate(58,198)"/>
<path d="M0 0 C0.28875 0.598125 0.5775 1.19625 0.875 1.8125 C2.04742026 4.19327792 2.04742026 4.19327792 4 7 C4.25760279 9.69452521 4.08900053 12.28548375 4 15 C3.67 15 3.34 15 3 15 C2.34 12.69 1.68 10.38 1 8 C-0.46207343 9.26652863 -1.91952926 10.53838918 -3.375 11.8125 C-4.18710937 12.52019531 -4.99921875 13.22789062 -5.8359375 13.95703125 C-8.16183188 15.99981253 -8.16183188 15.99981253 -10 19 C-10.66 19 -11.32 19 -12 19 C-10.51981447 15.59248957 -8.55504624 13.30216242 -6 10.625 C-2.91247403 7.24102679 -0.94196697 4.59208897 0 0 Z " fill="#DD437E" transform="translate(285,122)"/>
<path d="M0 0 C3.3125 0.6875 3.3125 0.6875 5.25 1.875 C6.64101983 4.24791618 6.53167317 5.98436424 6.3125 8.6875 C5.3225 9.1825 5.3225 9.1825 4.3125 9.6875 C4.3125 7.7075 4.3125 5.7275 4.3125 3.6875 C0.47776716 3.33078067 -1.24092875 3.38978584 -4.5 5.5625 C-6.72750167 7.49255154 -6.72750167 7.49255154 -7.6875 9.6875 C-8.3475 9.3575 -9.0075 9.0275 -9.6875 8.6875 C-4.9566963 0.92412982 -4.9566963 0.92412982 0 0 Z " fill="#D73F7C" transform="translate(109.6875,204.3125)"/>
<path d="M0 0 C2.1875 0.125 2.1875 0.125 5 1 C6.28068309 2.47278556 7.55844388 3.95121522 8.74609375 5.5 C10.54916594 7.65694617 12.46354033 8.8293263 15 10 C16.32 10 17.64 10 19 10 C19.66 11.65 20.32 13.3 21 15 C12.93528359 12.00049144 6.30186756 6.7655384 0 1 C0 0.67 0 0.34 0 0 Z " fill="#E990AE" transform="translate(47,272)"/>
<path d="M0 0 C3.3 0 6.6 0 10 0 C2.58636588 3.70681706 -3.84723008 4.30071692 -12 4 C-12 3.34 -12 2.68 -12 2 C-8.04 2 -4.08 2 0 2 C0 1.34 0 0.68 0 0 Z " fill="#C53D6E" transform="translate(178,271)"/>
<path d="M0 0 C1.65 1.65 3.3 3.3 5 5 C3.35 6.65 1.7 8.3 0 10 C-2 8 -2 8 -2.25 5.5625 C-2 3 -2 3 0 0 Z " fill="#911252" transform="translate(90,144)"/>
<path d="M0 0 C0.33 0.66 0.66 1.32 1 2 C0.2884375 2.61875 0.2884375 2.61875 -0.4375 3.25 C-2.16266518 5.182185 -2.56584875 6.48192275 -3 9 C-2.195625 9.12375 -1.39125 9.2475 -0.5625 9.375 C0.283125 9.58125 1.12875 9.7875 2 10 C2.33 10.66 2.66 11.32 3 12 C0.125 11.6875 0.125 11.6875 -3 11 C-5.29013653 7.5647952 -5.17842973 6.014669 -5 2 C-3.35 1.34 -1.7 0.68 0 0 Z " fill="#D54575" transform="translate(59,216)"/>
<path d="M0 0 C0.33 0.66 0.66 1.32 1 2 C-4.3358349 8.81801126 -4.3358349 8.81801126 -8 10 C-9.32 10 -10.64 10 -12 10 C-11.34 10.33 -10.68 10.66 -10 11 C-10.33 11.66 -10.66 12.32 -11 13 C-13.475 12.01 -13.475 12.01 -16 11 C-16 10.34 -16 9.68 -16 9 C-15.26394531 8.85304687 -14.52789062 8.70609375 -13.76953125 8.5546875 C-7.14077153 7.03103599 -3.7217611 5.77514654 0 0 Z " fill="#A21050" transform="translate(268,181)"/>
<path d="M0 0 C2.46254526 2.1413437 3.69050349 3.69870394 4 7 C3.01 8.485 3.01 8.485 2 10 C1.01 10 0.02 10 -1 10 C-1.33 10.66 -1.66 11.32 -2 12 C-3 9 -3 9 -2.125 7.125 C-1.75375 6.42375 -1.3825 5.7225 -1 5 C-0.62331656 3.34259285 -0.27942455 1.67654729 0 0 Z " fill="#891350" transform="translate(267,74)"/>
<path d="M0 0 C0.99 0.33 1.98 0.66 3 1 C3.33 3.64 3.66 6.28 4 9 C3.38125 8.79375 2.7625 8.5875 2.125 8.375 C1.42375 8.25125 0.7225 8.1275 0 8 C-0.66 8.66 -1.32 9.32 -2 10 C-1.125 2.25 -1.125 2.25 0 0 Z " fill="#FCE0ED" transform="translate(51,216)"/>
<path d="M0 0 C0.886875 0.144375 1.77375 0.28875 2.6875 0.4375 C2.06875 0.685 1.45 0.9325 0.8125 1.1875 C-1.42988845 2.24712759 -1.42988845 2.24712759 -2.25 4.3125 C-3.68148744 7.17547489 -5.76691327 8.56180451 -8.3125 10.4375 C-8.3125 6.58102838 -7.05410258 4.93195653 -4.82421875 1.890625 C-3.3125 0.4375 -3.3125 0.4375 0 0 Z " fill="#D63B77" transform="translate(144.3125,227.5625)"/>
<path d="M0 0 C0.33 0 0.66 0 1 0 C1.04254356 1.99954746 1.04080783 4.00041636 1 6 C0.67 6.33 0.34 6.66 0 7 C-0.12375 8.134375 -0.2475 9.26875 -0.375 10.4375 C-0.58125 11.613125 -0.7875 12.78875 -1 14 C-1.99 14.66 -2.98 15.32 -4 16 C-3.39891424 10.34979382 -1.92471317 5.33835539 0 0 Z " fill="#EE92B1" transform="translate(38,209)"/>
<path d="M0 0 C0.33 0.99 0.66 1.98 1 3 C-0.98 3.99 -0.98 3.99 -3 5 C-3 5.66 -3 6.32 -3 7 C-5.97 6.505 -5.97 6.505 -9 6 C-9.33 5.01 -9.66 4.02 -10 3 C-8 2 -8 2 -5.5625 2.5 C-2.89551669 3.23853737 -2.89551669 3.23853737 0 2 C0 1.34 0 0.68 0 0 Z " fill="#981052" transform="translate(260,92)"/>
<path d="M0 0 C0.99 0.33 1.98 0.66 3 1 C2.01 3.31 1.02 5.62 0 8 C-0.99 7.67 -1.98 7.34 -3 7 C-3 5.35 -3 3.7 -3 2 C-2.01 2 -1.02 2 0 2 C0 1.34 0 0.68 0 0 Z " fill="#C12167" transform="translate(204,21)"/>
<path d="M0 0 C0.28875 0.598125 0.5775 1.19625 0.875 1.8125 C2.04742026 4.19327792 2.04742026 4.19327792 4 7 C4.25760279 9.69452521 4.08900053 12.28548375 4 15 C3.67 15 3.34 15 3 15 C2.67 12.36 2.34 9.72 2 7 C1.01 7.33 0.02 7.66 -1 8 C-0.67 5.36 -0.34 2.72 0 0 Z " fill="#D05784" transform="translate(285,122)"/>
<path d="M0 0 C1.48206495 0.254496 2.96068615 0.52911762 4.4375 0.8125 C5.67306641 1.03873047 5.67306641 1.03873047 6.93359375 1.26953125 C7.95646484 1.63111328 7.95646484 1.63111328 9 2 C9.33 2.99 9.66 3.98 10 5 C7.36 5 4.72 5 2 5 C1.34 3.35 0.68 1.7 0 0 Z " fill="#86154B" transform="translate(194,18)"/>
<path d="M0 0 C2.875 -0.125 2.875 -0.125 6 0 C8 2 8 2 8.25 5 C8 8 8 8 6 10 C5.67 7.69 5.34 5.38 5 3 C2.525 2.01 2.525 2.01 0 1 C0 0.67 0 0.34 0 0 Z " fill="#E24680" transform="translate(142,229)"/>
<path d="M0 0 C4.62 0 9.24 0 14 0 C13.34 1.32 12.68 2.64 12 4 C11.34 3.67 10.68 3.34 10 3 C8.12943209 2.7724985 6.25314042 2.59037189 4.375 2.4375 C3.37210938 2.35371094 2.36921875 2.26992187 1.3359375 2.18359375 C0.56507813 2.12300781 -0.20578125 2.06242188 -1 2 C-0.67 1.34 -0.34 0.68 0 0 Z " fill="#981751" transform="translate(244,222)"/>
<path d="M0 0 C2 2 2 2 2.375 4.4375 C2 7 2 7 0 8.8125 C-0.66 9.204375 -1.32 9.59625 -2 10 C-2 8.35 -2 6.7 -2 5 C-1.34 5 -0.68 5 0 5 C0 3.35 0 1.7 0 0 Z " fill="#D65581" transform="translate(273,198)"/>
<path d="M0 0 C0.33 0 0.66 0 1 0 C1 5.28 1 10.56 1 16 C-2 12 -2 12 -2 10 C-1.34 10 -0.68 10 0 10 C0 6.7 0 3.4 0 0 Z " fill="#880745" transform="translate(102,42)"/>
<path d="M0 0 C0.33 0.99 0.66 1.98 1 3 C-1.25 5.0625 -1.25 5.0625 -4 7 C-5.32 6.67 -6.64 6.34 -8 6 C-5.36 4.02 -2.72 2.04 0 0 Z " fill="#9A0B4F" transform="translate(276,151)"/>
<path d="M0 0 C0.66 0 1.32 0 2 0 C3.625 2.5 3.625 2.5 5 5 C2.69 5.33 0.38 5.66 -2 6 C-1.34 4.02 -0.68 2.04 0 0 Z " fill="#97154A" transform="translate(100,123)"/>
<path d="M0 0 C0.33 0.99 0.66 1.98 1 3 C-1.31 5.31 -3.62 7.62 -6 10 C-6.66 9.67 -7.32 9.34 -8 9 C-5.50174717 5.78796065 -2.9297008 2.82506863 0 0 Z " fill="#DE4482" transform="translate(269,100)"/>
<path d="M0 0 C0 1.32 0 2.64 0 4 C-1.98 4.66 -3.96 5.32 -6 6 C-3.84615385 0 -3.84615385 0 0 0 Z " fill="#E0789B" transform="translate(44,80)"/>
<path d="M0 0 C2.15377564 2.62198774 3.40072174 4.64404172 4 8 C2.68 8.33 1.36 8.66 0 9 C0 6.03 0 3.06 0 0 Z " fill="#98134F" transform="translate(80,43)"/>
<path d="M0 0 C7.50769231 0.61538462 7.50769231 0.61538462 10 2.5625 C10.33 3.036875 10.66 3.51125 11 4 C10.01 4.33 9.02 4.66 8 5 C7.34 4.67 6.68 4.34 6 4 C6 3.34 6 2.68 6 2 C4.02 2 2.04 2 0 2 C0 1.34 0 0.68 0 0 Z " fill="#F9D3E6" transform="translate(128,267)"/>
<path d="M0 0 C1.32 0 2.64 0 4 0 C2.25 4.875 2.25 4.875 0 6 C-0.38218767 4.34385343 -0.71395102 2.67542976 -1 1 C-0.67 0.67 -0.34 0.34 0 0 Z " fill="#811B49" transform="translate(263,209)"/>
<path d="M0 0 C2.33944736 0.28730055 4.6739143 0.61936779 7 1 C7 1.33 7 1.66 7 2 C5.576875 2.12375 5.576875 2.12375 4.125 2.25 C0.89538209 2.65074923 0.89538209 2.65074923 -0.375 5.0625 C-0.58125 5.701875 -0.7875 6.34125 -1 7 C-1.04254356 5.00045254 -1.04080783 2.99958364 -1 1 C-0.67 0.67 -0.34 0.34 0 0 Z " fill="#C71D66" transform="translate(211,47)"/>
<path d="M0 0 C0.99 0.33 1.98 0.66 3 1 C2.67 1.99 2.34 2.98 2 4 C1.34 4 0.68 4 0 4 C0 5.65 0 7.3 0 9 C-0.33 9 -0.66 9 -1 9 C-1.625 5.625 -1.625 5.625 -2 2 C-1.34 1.34 -0.68 0.68 0 0 Z " fill="#991354" transform="translate(151,228)"/>
<path d="M0 0 C0.33 0 0.66 0 1 0 C1.3125 2.6875 1.3125 2.6875 1 6 C-1.5 8.875 -1.5 8.875 -4 11 C-3.34 8.69 -2.68 6.38 -2 4 C-1.34 4 -0.68 4 0 4 C0 2.68 0 1.36 0 0 Z " fill="#D63F7C" transform="translate(132,220)"/>
<path d="M0 0 C0.66 0 1.32 0 2 0 C1.25 2.875 1.25 2.875 0 6 C-1.98 6.99 -1.98 6.99 -4 8 C-2.68 5.36 -1.36 2.72 0 0 Z " fill="#DC4182" transform="translate(174,121)"/>
<path d="M0 0 C0.66 0 1.32 0 2 0 C2 0.66 2 1.32 2 2 C2.804375 2.12375 3.60875 2.2475 4.4375 2.375 C5.7059375 2.684375 5.7059375 2.684375 7 3 C7.33 3.66 7.66 4.32 8 5 C5.125 4.75 5.125 4.75 2 4 C0.625 1.9375 0.625 1.9375 0 0 Z " fill="#D55B85" transform="translate(54,223)"/>
<path d="M0 0 C-2 3 -2 3 -5 5 C-5.33 3.35 -5.66 1.7 -6 0 C-3.50907189 -1.24546405 -2.58919267 -0.7767578 0 0 Z " fill="#9B0D51" transform="translate(202,23)"/>
</svg>
