<?xml version="1.0" encoding="UTF-8"?>
<svg version="1.1" xmlns="http://www.w3.org/2000/svg" width="512" height="512">
<path d="M0 0 C2.75106024 0.003146 5.50102579 -0.02034655 8.25195312 -0.0456543 C25.23071785 -0.10721205 41.78704251 1.96612726 58.27539062 6.06567383 C59.32404297 6.32461426 60.37269531 6.58355469 61.453125 6.8503418 C97.47489172 16.03139233 131.3071632 34.79410963 157.97900391 60.69555664 C159.13239453 61.81356719 160.2926831 62.92449008 161.45849609 64.02954102 C171.31141764 73.37198837 179.75273301 83.27862421 187.65039062 94.31567383 C188.08657715 94.91250977 188.52276367 95.5093457 188.97216797 96.12426758 C223.06046655 143.01062914 235.37660073 203.59801921 226.90039062 260.44067383 C225.18454564 271.28205485 222.82554354 281.81248526 219.65039062 292.31567383 C219.45864258 292.96503906 219.26689453 293.6144043 219.06933594 294.28344727 C212.72939363 315.50752264 202.53370069 336.31399445 189.65039062 354.31567383 C188.96460938 355.27602539 188.27882813 356.23637695 187.57226562 357.22583008 C170.2470995 380.87655146 149.39337762 401.44565494 124.43432617 416.96313477 C123.72302048 417.40590759 123.01171478 417.84868042 122.27885437 418.30487061 C121.47276482 418.8052182 121.47276482 418.8052182 120.65039062 419.31567383 C121.55890778 419.32154007 122.46742493 419.32740631 123.4034729 419.33345032 C132.02293964 419.39168405 140.64215566 419.46393266 149.26137733 419.55138874 C153.69115965 419.59585619 158.12085497 419.63516223 162.55078125 419.66210938 C166.83685762 419.6883808 171.12259484 419.72894543 175.40845871 419.77886009 C177.03242098 419.79536947 178.65644168 419.80698176 180.28047562 419.81328773 C198.21690337 419.88988585 213.87584076 422.07679959 227.39257812 434.93676758 C236.59669645 444.63453239 240.28719285 455.79332288 240.12304688 469.01879883 C239.57341697 482.30550436 233.59687886 493.23951563 224.13476562 502.38989258 C216.7478266 508.11593179 207.83911196 512.3913571 198.42626953 512.49267578 C197.38483795 512.50551102 196.34340637 512.51834625 195.27041626 512.53157043 C193.59065201 512.54265083 193.59065201 512.54265083 191.87695312 512.55395508 C190.72045258 512.56202682 189.56395203 512.57009857 188.37240601 512.57841492 C185.92634575 512.59223953 183.48026634 512.60296893 181.03417969 512.61083984 C177.29650406 512.62807646 173.55970759 512.67198155 169.82226562 512.71606445 C167.44466795 512.72618969 165.06706278 512.73470632 162.68945312 512.74145508 C161.57365875 512.75896317 160.45786438 512.77647125 159.30825806 512.79450989 C153.1038452 512.77718546 149.35510825 512.50620394 144.65039062 508.31567383 C141.35435225 504.37419713 140.32768118 500.27241123 140.58789062 495.19067383 C141.34318478 490.18106972 142.96321033 487.74560899 146.65039062 484.31567383 C149.50255712 482.60705591 151.59899354 482.06387434 154.90893555 482.04443359 C156.15624702 482.02915367 156.15624702 482.02915367 157.42875671 482.01356506 C158.32045059 482.01142502 159.21214447 482.00928497 160.13085938 482.00708008 C162.03646122 481.9819074 163.94206011 481.95650957 165.84765625 481.9309082 C168.83828881 481.90225808 171.82886961 481.8782307 174.81958008 481.859375 C177.71528492 481.83756675 180.61037195 481.79810434 183.50585938 481.75708008 C184.3874321 481.75696426 185.26900482 481.75684845 186.17729187 481.75672913 C193.16297402 481.64675598 200.09713109 480.93276485 205.15039062 475.75317383 C207.96077606 471.1862975 208.29521154 467.63544642 207.65039062 462.31567383 C205.43000349 457.87489956 203.15501008 455.40318041 198.65039062 453.31567383 C194.23165934 452.14735475 189.85211168 452.1714149 185.31413269 452.17764282 C184.47741525 452.17482154 183.64069782 452.17200026 182.77862531 452.16909349 C179.97569848 452.16076317 177.17281124 452.15941049 174.36987305 452.15795898 C172.35883982 452.15328907 170.34780764 452.14814522 168.33677673 452.14256287 C164.00270372 452.13128438 159.66863758 452.12284846 155.33455467 452.11644363 C148.45952699 452.10573683 141.58454808 452.08547967 134.70954895 452.06332397 C115.15754461 452.0015065 95.60554207 451.94757287 76.0534668 451.91430664 C65.25693689 451.8958568 54.46048784 451.86678431 43.6640175 451.82630193 C37.96127057 451.80538793 32.2586249 451.78979725 26.55583763 451.78749466 C-19.7462961 451.76351148 -19.7462961 451.76351148 -38.34960938 448.31567383 C-39.6475795 448.07886902 -40.94554962 447.84206421 -42.28285217 447.5980835 C-45.20942516 447.02646553 -48.08514332 446.36300602 -50.97460938 445.62817383 C-51.9976416 445.37398682 -53.02067383 445.1197998 -54.07470703 444.85791016 C-100.70584916 432.84228114 -143.64448715 405.34244377 -173.34960938 367.31567383 C-174.13851562 366.3437207 -174.92742187 365.37176758 -175.74023438 364.37036133 C-186.49997985 350.86992597 -195.1329715 335.97629401 -202.34960938 320.31567383 C-202.68057617 319.6039502 -203.01154297 318.89222656 -203.35253906 318.15893555 C-212.69599237 297.81345421 -218.33421694 276.47067007 -221.34960938 254.31567383 C-221.45273438 253.56922607 -221.55585938 252.82277832 -221.66210938 252.05371094 C-228.50191748 194.60542981 -212.47844282 135.17633012 -177.34960938 89.31567383 C-176.72699219 88.49969727 -176.104375 87.6837207 -175.46289062 86.84301758 C-155.50868253 61.30325022 -130.82270882 40.72547725 -102.34960938 25.31567383 C-101.30426025 24.74985596 -101.30426025 24.74985596 -100.23779297 24.17260742 C-79.69782795 13.29184984 -56.32740078 5.7231358 -33.34960938 2.31567383 C-32.30804688 2.14269775 -31.26648438 1.96972168 -30.19335938 1.79150391 C-20.10470907 0.24568446 -10.19070874 -0.02423794 0 0 Z M-30.34960938 33.31567383 C-30.67960938 33.97567383 -31.00960937 34.63567383 -31.34960938 35.31567383 C-30.17495117 35.64607666 -30.17495117 35.64607666 -28.9765625 35.9831543 C-11.23047206 41.02053694 5.80729991 46.70518244 22.65039062 54.31567383 C23.50697266 54.69723633 24.36355469 55.07879883 25.24609375 55.47192383 C55.85187532 69.16961628 83.10347646 88.57298159 107.65039062 111.31567383 C108.31039062 110.98567383 108.97039062 110.65567383 109.65039062 110.31567383 C110.19906744 108.3565187 110.19906744 108.3565187 110.46679688 105.96020508 C110.59159424 105.03788086 110.7163916 104.11555664 110.8449707 103.1652832 C111.35336428 98.96859036 111.84706942 94.77153582 112.296875 90.56811523 C112.52837557 88.43824601 112.77645993 86.31009861 113.04296875 84.18432617 C113.40486666 81.23087923 113.6933307 78.27880816 113.96289062 75.31567383 C114.082854 74.4156665 114.20281738 73.51565918 114.32641602 72.58837891 C114.52475494 69.85016401 114.50851814 67.92839099 113.65039062 65.31567383 C110.72643374 62.24738513 107.34757808 60.33983932 103.65039062 58.31567383 C102.35065308 57.55601318 102.35065308 57.55601318 101.0246582 56.78100586 C63.07548615 35.06633689 13.1622315 22.88101606 -30.34960938 33.31567383 Z M-101.53710938 61.00317383 C-102.22224609 61.43823242 -102.90738281 61.87329102 -103.61328125 62.3215332 C-107.67741931 64.96185389 -111.05401464 67.76411057 -114.34960938 71.31567383 C-108.84944618 73.03598919 -103.2959113 74.15979781 -97.64331055 75.26806641 C-51.36104655 84.38642647 -7.22771428 101.82713534 30.65039062 130.31567383 C31.20275391 130.72527344 31.75511719 131.13487305 32.32421875 131.55688477 C39.26085391 136.70510588 45.83185867 142.12925252 52.16601562 148.01489258 C54.31041575 150.00082288 56.49082656 151.91803111 58.71289062 153.81567383 C68.31159449 162.17520076 77.07349579 171.4253031 84.38867188 181.84692383 C84.80503906 182.33161133 85.22140625 182.81629883 85.65039062 183.31567383 C86.31039062 183.31567383 86.97039062 183.31567383 87.65039062 183.31567383 C93.54509237 169.72943689 93.54509237 169.72943689 98.77539062 155.87817383 C99.19046875 154.70383789 99.60554687 153.52950195 100.03320312 152.31958008 C100.74754867 148.84279699 100.44847577 148.24239997 98.65039062 145.31567383 C97.03296554 143.39315734 97.03296554 143.39315734 95.12304688 141.52270508 C94.41921875 140.8146875 93.71539062 140.10666992 92.99023438 139.37719727 C92.23871094 138.63501953 91.4871875 137.8928418 90.71289062 137.12817383 C89.93945312 136.36150391 89.16601562 135.59483398 88.36914062 134.80493164 C82.72508838 129.26217081 76.93421526 124.12593312 70.65039062 119.31567383 C69.41234975 118.3274191 68.17545775 117.33772411 66.93945312 116.34692383 C23.78852811 82.11771618 -30.53146353 61.24628095 -85.34960938 56.31567383 C-86.38782837 56.20074585 -86.38782837 56.20074585 -87.44702148 56.08349609 C-93.34563774 55.69763217 -96.84090763 57.83492289 -101.53710938 61.00317383 Z M142.65039062 90.31567383 C142.56063965 91.04753906 142.47088867 91.7794043 142.37841797 92.53344727 C133.97211119 159.88858777 110.72765343 224.43748693 63.92382812 274.85864258 C61.90854646 277.03667035 59.95766626 279.25176669 58.02539062 281.50317383 C52.07812953 288.32789968 45.5729334 294.49419691 38.65039062 300.31567383 C38.13041504 300.76007813 37.61043945 301.20448242 37.07470703 301.66235352 C-5.64773834 338.0498035 -58.12611069 359.88821193 -113.34960938 368.31567383 C-114.78983056 368.54279765 -116.2299454 368.77059741 -117.66992188 368.99926758 C-120.56137317 369.45203263 -123.45360646 369.89322427 -126.34960938 370.31567383 C-123.10669279 373.62833056 -119.79717693 376.73664035 -116.22460938 379.69067383 C-115.37640625 380.3996582 -114.52820313 381.10864258 -113.65429688 381.83911133 C-112.55698703 382.67027659 -111.45469984 383.49488174 -110.34960938 384.31567383 C-109.57222412 384.92934814 -108.79483887 385.54302246 -107.99389648 386.17529297 C-100.51107623 391.60232614 -95.18862071 392.09371396 -86.16210938 391.00317383 C-84.93959473 390.88288818 -83.71708008 390.76260254 -82.45751953 390.63867188 C-78.74621192 390.25128581 -75.04976329 389.79736257 -71.34960938 389.31567383 C-70.28887207 389.18193359 -69.22813477 389.04819336 -68.13525391 388.91040039 C-28.74621585 383.72112142 9.73081428 369.63631427 42.65039062 347.31567383 C43.54975342 346.70925049 43.54975342 346.70925049 44.46728516 346.09057617 C53.34702347 340.05350267 61.58711322 333.39679962 69.65039062 326.31567383 C70.94396484 325.19032227 70.94396484 325.19032227 72.26367188 324.04223633 C82.62814745 314.88447003 92.14521358 305.23504468 100.65039062 294.31567383 C101.64622589 293.07197723 102.64233765 291.82850199 103.63867188 290.58520508 C112.24802375 279.71800527 119.66305015 268.28249832 126.65039062 256.31567383 C127.2763916 255.24978027 127.2763916 255.24978027 127.91503906 254.16235352 C138.83407916 235.31717031 146.93465232 214.30630095 152.65039062 193.31567383 C152.90127441 192.39705566 153.1521582 191.4784375 153.41064453 190.53198242 C158.63832876 170.99355298 161.90336541 151.12051526 163.43432617 130.95263672 C163.60901706 128.8206183 163.86017089 126.69495214 164.13476562 124.57348633 C164.77195063 117.05845144 163.35538293 112.7718435 158.71289062 107.06567383 C156.74622305 104.76298301 154.70717481 102.53766962 152.65039062 100.31567383 C151.74675773 99.28522084 150.84681174 98.25151915 149.95117188 97.21411133 C147.89510409 94.8633736 145.84848651 92.53421712 143.65039062 90.31567383 C143.32039063 90.31567383 142.99039062 90.31567383 142.65039062 90.31567383 Z M-157.06152344 114.23754883 C-158.22017921 116.10685853 -159.42920296 117.9174958 -160.68554688 119.72192383 C-163.22068997 123.40249459 -163.22068997 123.40249459 -165.34960938 127.31567383 C-165.01960938 128.30567383 -164.68960938 129.29567383 -164.34960938 130.31567383 C-163.69814941 130.4054248 -163.04668945 130.49517578 -162.37548828 130.58764648 C-84.58142613 141.4839716 -7.9836587 176.29601128 40.65039062 240.06567383 C41.10768555 240.68700195 41.56498047 241.30833008 42.03613281 241.94848633 C43.17371051 243.45729156 44.405487 244.89412847 45.65039062 246.31567383 C48.61180752 246.6623318 48.61180752 246.6623318 50.04150391 244.97729492 C50.51313965 244.35419434 50.98477539 243.73109375 51.47070312 243.08911133 C52.00236084 242.39333984 52.53401855 241.69756836 53.08178711 240.98071289 C53.64067627 240.225 54.19956543 239.46928711 54.77539062 238.69067383 C55.6340271 237.54163574 55.6340271 237.54163574 56.51000977 236.36938477 C58.24134768 234.0305896 59.95033163 231.67728295 61.65039062 229.31567383 C62.15135254 228.623125 62.65231445 227.93057617 63.16845703 227.21704102 C64.50150329 225.34994396 65.80142972 223.4650803 67.08789062 221.56567383 C67.82910156 220.47770508 68.5703125 219.38973633 69.33398438 218.26879883 C70.91878916 215.45969915 70.91878916 215.45969915 70.19726562 212.81958008 C68.22518062 209.62739197 65.93250381 206.81335197 63.46289062 204.00317383 C62.9653125 203.42704346 62.46773437 202.85091309 61.95507812 202.25732422 C60.52582468 200.60509796 59.08852816 198.96016431 57.65039062 197.31567383 C57.02519531 196.58864258 56.4 195.86161133 55.75585938 195.11254883 C54.07251526 193.16298241 52.36673855 191.23626357 50.65039062 189.31567383 C49.79574219 188.35661133 48.94109375 187.39754883 48.06054688 186.40942383 C42.88582834 180.65044837 37.59605627 175.28411069 31.65039062 170.31567383 C30.64575535 169.42864602 29.64334242 168.53909792 28.64257812 167.64770508 C15.42819184 155.95746279 1.05876953 145.90417623 -14.34960938 137.31567383 C-15.18202148 136.85161133 -16.01443359 136.38754883 -16.87207031 135.90942383 C-51.83194772 116.62814135 -90.25952121 104.80433186 -129.96679688 100.59985352 C-132.14023065 100.34064482 -134.26170021 99.97614829 -136.41210938 99.57348633 C-147.77568671 98.15303916 -151.64749289 105.4693845 -157.06152344 114.23754883 Z M-180.34960938 159.31567383 C-181.29839447 162.31248369 -182.23352617 165.31259623 -183.16210938 168.31567383 C-183.42314453 169.13551758 -183.68417969 169.95536133 -183.953125 170.80004883 C-186.42389787 178.85293817 -187.90152613 187.0312604 -189.34960938 195.31567383 C-187.99488525 195.52546875 -187.99488525 195.52546875 -186.61279297 195.73950195 C-150.18893503 201.46423718 -113.96361404 209.54001373 -81.2734375 227.28686523 C-79.1340321 228.43095843 -76.97142721 229.52113085 -74.80273438 230.60864258 C-52.62372341 241.82467868 -32.47484272 256.33646189 -14.34960938 273.31567383 C-12.97999156 274.50937743 -11.605365 275.69737107 -10.22460938 276.87817383 C-5.70737931 280.79560571 -1.53173543 285.04642015 2.65039062 289.31567383 C14.19131983 280.9482405 14.19131983 280.9482405 24.65039062 271.31567383 C23.18419875 266.74759624 20.5795083 263.54996066 17.46289062 260.00317383 C17.00591797 259.47272461 16.54894531 258.94227539 16.078125 258.39575195 C15.12004138 257.28618215 14.1577101 256.18026903 13.19165039 255.07763672 C12.136427 253.87130895 11.08772952 252.65925013 10.04467773 251.44238281 C-0.9777192 238.65054667 -13.00680951 226.51655973 -26.66796875 216.55297852 C-28.39152445 215.28483387 -30.08219329 213.98059797 -31.77148438 212.66723633 C-74.27200934 180.01382111 -127.32486683 163.09273671 -180.34960938 159.31567383 Z M188.65039062 171.31567383 C188.4405957 172.33830322 188.4405957 172.33830322 188.2265625 173.3815918 C181.61044392 205.25490259 172.04069671 235.53908205 156.65039062 264.31567383 C156.26915039 265.03416504 155.88791016 265.75265625 155.49511719 266.49291992 C137.20041105 300.78996571 111.71434272 333.63785164 80.65039062 357.31567383 C79.46277981 358.24391748 78.27528777 359.17231312 77.08789062 360.10083008 C43.07606375 386.42785045 2.83800032 405.55227682 -39.34960938 414.31567383 C-39.34960938 414.97567383 -39.34960938 415.63567383 -39.34960938 416.31567383 C0.7684726 424.70755078 41.80627615 421.30023428 79.65039062 405.31567383 C80.318125 405.03530273 80.98585938 404.75493164 81.67382812 404.46606445 C128.41685862 384.4900335 165.64042691 344.75211162 184.81933594 297.91235352 C193.84196973 274.91026028 198.07640775 251.07329354 198.02539062 226.44067383 C198.02584381 225.58727417 198.026297 224.73387451 198.02676392 223.85461426 C197.99850316 205.68018484 195.60318503 188.80594653 190.65039062 171.31567383 C189.99039063 171.31567383 189.33039063 171.31567383 188.65039062 171.31567383 Z M-191.34960938 226.31567383 C-192.86052457 265.87926806 -178.92302971 303.66815317 -157.34960938 336.31567383 C-156.93582031 337.11618164 -156.52203125 337.91668945 -156.09570312 338.74145508 C-153.1290083 341.41612625 -149.50866925 340.85496083 -145.72460938 340.75317383 C-144.4031189 340.7311792 -144.4031189 340.7311792 -143.05493164 340.70874023 C-101.66340539 339.57670128 -60.38062163 327.56443555 -24.34960938 307.31567383 C-33.24599693 296.54636257 -43.19377339 287.63566562 -54.34960938 279.31567383 C-54.9822168 278.8387207 -55.61482422 278.36176758 -56.26660156 277.87036133 C-92.24547303 250.91773653 -145.23624948 225.18139118 -191.34960938 226.31567383 Z " fill="#000000" transform="translate(247.349609375,-0.315673828125)"/>
</svg>
