<?xml version="1.0" encoding="UTF-8"?>
<svg version="1.1" xmlns="http://www.w3.org/2000/svg" width="512" height="512">
<path d="M0 0 C0.87245361 0.01353516 1.74490723 0.02707031 2.64379883 0.04101562 C19.81355255 0.58214208 38.76455996 7.54464776 51.375 19.5 C51.99117188 20.06460938 52.60734375 20.62921875 53.2421875 21.2109375 C56.35228148 24.3783604 56.35228148 24.3783604 57.375 26.5 C57.25898437 28.44326172 57.25898437 28.44326172 57.140625 30.42578125 C57.01811283 32.52772868 57.01811283 32.52772868 57.375 34.5 C59.49856233 36.57580606 61.0706699 37.7823612 63.5625 39.25 C64.85668866 40.08980889 66.14563834 40.9377372 67.4296875 41.79296875 C68.08807617 42.23044434 68.74646484 42.66791992 69.42480469 43.11865234 C74.34755927 46.60550079 78.62012566 50.9245683 82.94238281 55.11425781 C84.2276861 56.35750618 85.53073077 57.58235104 86.8359375 58.8046875 C108.88988569 79.93004839 127.6804784 112.8611701 130.375 143.5 C131.096875 143.5 131.81875 143.5 132.5625 143.5 C136.30912126 144.83213201 137.31228866 146.60576124 139.2421875 149.9921875 C145.86620557 164.65639303 146.36314715 184.12669534 142.375 199.5 C140.66892501 203.92853509 138.42004354 207.84594775 135.375 211.5 C136.014375 212.2425 136.65375 212.985 137.3125 213.75 C140.90554972 218.54073295 140.95835067 223.64149257 140.375 229.5 C137.88519244 242.08402735 132.65999086 254.36268705 122.375 262.5 C118.98214218 264.62053614 116.96143301 265.46510925 112.9609375 265.703125 C109.22493582 266.17332859 109.22493582 266.17332859 107.0390625 269.0546875 C106.36617188 270.15039062 105.69328125 271.24609375 105 272.375 C104.22620395 273.57651096 103.44878966 274.7756986 102.66796875 275.97265625 C102.28302246 276.57223145 101.89807617 277.17180664 101.50146484 277.78955078 C94.20769569 288.86457174 83.42998155 301.1300123 72.375 308.5 C71.76850301 315.41406568 72.9263858 321.87846451 75.5 328.3125 C80.36499421 333.98832658 88.1729005 335.85250834 95.375 336.5 C116.76294551 336.72834106 132.74826313 326.4443779 149.79296875 314.91796875 C175.20789828 297.73575612 202.40879269 290.06083025 233.125 295.6875 C250.8915798 299.66233315 265.67177164 307.62864068 278.375 320.5 C279.41140625 321.53833984 279.41140625 321.53833984 280.46875 322.59765625 C290.05765764 332.83844138 296.3278419 347.0500986 296.75 361.0625 C296.79898438 362.17753906 296.84796875 363.29257812 296.8984375 364.44140625 C296.375 367.5 296.375 367.5 294.04296875 369.87109375 C290.79024818 371.85701538 289.1223767 372.13785135 285.375 371.5 C282.70506596 369.86837364 281.62949841 368.46345825 280.828125 365.4296875 C280.51214363 363.73537362 280.20980544 362.03848294 279.91796875 360.33984375 C277.00550568 345.1070333 269.30878291 332.86269058 256.60107422 324.06518555 C238.44935464 311.98633857 216.38504097 308.53010293 195.0625 312.625 C179.39577824 316.60123231 166.77988513 324.04107293 153.59375 333.0859375 C133.91792584 346.55716206 111.83931168 357.328552 87.2265625 352.81640625 C76.89993132 350.62192168 68.37120902 346.91915813 61.66015625 338.48828125 C57.95059905 332.74917908 56.11711499 327.33395266 56.375 320.5 C55.37082031 321.08007812 54.36664063 321.66015625 53.33203125 322.2578125 C30.21994323 335.5 30.21994323 335.5 25.375 335.5 C25.313125 336.5725 25.25125 337.645 25.1875 338.75 C24.375 342.5 24.375 342.5 22.125 344.8125 C17.27933238 347.78597786 13.58084729 348.77666284 7.875 348.75 C6.7715625 348.75515625 5.668125 348.7603125 4.53125 348.765625 C1.41107666 348.50303615 -0.80804814 347.82438782 -3.625 346.5 C-3.9653125 347.8921875 -3.9653125 347.8921875 -4.3125 349.3125 C-5.88999171 353.14355129 -6.95173885 353.74591462 -10.625 355.5 C-17.93529431 356.61923127 -24.55803017 355.87114212 -30.625 351.5 C-32.33984375 349.98828125 -32.33984375 349.98828125 -33.625 348.5 C-33.625 347.84 -33.625 347.18 -33.625 346.5 C-34.69234375 346.53480469 -35.7596875 346.56960938 -36.859375 346.60546875 C-61.51975153 347.16351002 -85.25648164 341.78113879 -107.44384766 330.99609375 C-113.27921722 328.30552611 -118.0685428 328.11770841 -124.49609375 328.52734375 C-130.37409848 328.47597542 -134.94040452 325.81794934 -139.3125 322.04296875 C-142.32406802 318.80039977 -143.31385384 315.85604629 -143.625 311.5 C-144.6459375 311.809375 -144.6459375 311.809375 -145.6875 312.125 C-150.20525244 312.70173435 -153.73761904 311.78932197 -157.5234375 309.203125 C-163.03444055 304.69200858 -165.75062718 300.66148196 -166.609375 293.5625 C-166.625 291.5 -166.625 291.5 -165.89453125 289.0625 C-165.33965697 286.3773264 -165.33965697 286.3773264 -167.21484375 284.0625 C-167.98957031 283.216875 -168.76429688 282.37125 -169.5625 281.5 C-176.89232068 273.00329906 -182.1996842 263.45836814 -187.5 253.625 C-187.8815625 252.92358887 -188.263125 252.22217773 -188.65625 251.49951172 C-190.91277962 247.23097749 -192.46202048 243.18864374 -193.625 238.5 C-194.470625 238.45875 -195.31625 238.4175 -196.1875 238.375 C-201.96257897 236.9049799 -205.16140841 233.84585008 -208.296875 228.8203125 C-213.96005661 218.02662477 -216.13291816 208.01485827 -216 195.875 C-216.01160156 194.80765625 -216.02320313 193.7403125 -216.03515625 192.640625 C-216.00730169 185.08275424 -215.50408389 177.87264113 -210.4375 171.9375 C-209.839375 171.463125 -209.24125 170.98875 -208.625 170.5 C-209.24375 169.84 -209.8625 169.18 -210.5 168.5 C-214.90645674 162.2791199 -215.40395023 154.90976406 -214.625 147.5 C-211.2392024 128.39717603 -211.2392024 128.39717603 -204.625 122.5 C-202.484375 121.89453125 -202.484375 121.89453125 -200.1875 121.5 C-197.76002979 121.02803213 -197.76002979 121.02803213 -195.625 119.5 C-193.49213475 115.52323834 -192.00175261 111.47449495 -190.46484375 107.2421875 C-188.66491094 102.35968069 -186.29160785 97.93295343 -183.6875 93.4375 C-183.2853125 92.74116455 -182.883125 92.0448291 -182.46875 91.32739258 C-181.52888978 89.71354287 -180.5782213 88.10599417 -179.625 86.5 C-180.615 86.17 -181.605 85.84 -182.625 85.5 C-182.36823112 72.14801819 -172.43024899 62.49206474 -163.625 53.5 C-162.84769531 52.67242187 -162.07039063 51.84484375 -161.26953125 50.9921875 C-152.78084205 42.12789259 -141.67618941 32.88713378 -128.953125 32.203125 C-122.79682322 31.68589473 -118.18652613 29.12282227 -112.875 26.125 C-111.06780027 25.1378525 -109.26051102 24.15086888 -107.453125 23.1640625 C-106.61539551 22.69782471 -105.77766602 22.23158691 -104.91455078 21.7512207 C-103.03633306 20.72479014 -101.12014117 19.76813813 -99.1953125 18.83203125 C-96.81664323 17.59931663 -95.17130483 16.40090589 -93.25 14.5625 C-79.73290774 2.68739725 -58.60156968 1.14118573 -41.4375 1.1875 C-40.23158203 1.17138672 -39.02566406 1.15527344 -37.78320312 1.13867188 C-32.38097432 1.13572145 -27.84788881 1.17442877 -22.82421875 3.26953125 C-20.21386664 4.29990968 -19.12845179 4.65383404 -16.41577148 3.82495117 C-14.90342426 3.0819776 -13.40173766 2.31693508 -11.91113281 1.53125 C-8.01922626 -0.22434731 -4.20758867 -0.09588062 0 0 Z " fill="#3FC5C1" transform="translate(215.625,70.5)"/>
<path d="M0 0 C0.87245361 0.01353516 1.74490723 0.02707031 2.64379883 0.04101562 C19.81355255 0.58214208 38.76455996 7.54464776 51.375 19.5 C51.99117188 20.06460938 52.60734375 20.62921875 53.2421875 21.2109375 C56.35228148 24.3783604 56.35228148 24.3783604 57.375 26.5 C57.25898437 28.44326172 57.25898437 28.44326172 57.140625 30.42578125 C57.01811283 32.52772868 57.01811283 32.52772868 57.375 34.5 C59.49856233 36.57580606 61.0706699 37.7823612 63.5625 39.25 C64.85668866 40.08980889 66.14563834 40.9377372 67.4296875 41.79296875 C68.08807617 42.23044434 68.74646484 42.66791992 69.42480469 43.11865234 C74.34755927 46.60550079 78.62012566 50.9245683 82.94238281 55.11425781 C84.2276861 56.35750618 85.53073077 57.58235104 86.8359375 58.8046875 C108.88988569 79.93004839 127.6804784 112.8611701 130.375 143.5 C131.096875 143.5 131.81875 143.5 132.5625 143.5 C136.30912126 144.83213201 137.31228866 146.60576124 139.2421875 149.9921875 C145.86620557 164.65639303 146.36314715 184.12669534 142.375 199.5 C140.66892501 203.92853509 138.42004354 207.84594775 135.375 211.5 C136.014375 212.2425 136.65375 212.985 137.3125 213.75 C140.90554972 218.54073295 140.95835067 223.64149257 140.375 229.5 C137.88519244 242.08402735 132.65999086 254.36268705 122.375 262.5 C118.98214218 264.62053614 116.96143301 265.46510925 112.9609375 265.703125 C109.22493582 266.17332859 109.22493582 266.17332859 107.0390625 269.0546875 C106.36617188 270.15039062 105.69328125 271.24609375 105 272.375 C104.22620395 273.57651096 103.44878966 274.7756986 102.66796875 275.97265625 C102.28302246 276.57223145 101.89807617 277.17180664 101.50146484 277.78955078 C94.20769569 288.86457174 83.42998155 301.1300123 72.375 308.5 C71.76850301 315.41406568 72.9263858 321.87846451 75.5 328.3125 C80.36499421 333.98832658 88.1729005 335.85250834 95.375 336.5 C116.76294551 336.72834106 132.74826313 326.4443779 149.79296875 314.91796875 C175.20789828 297.73575612 202.40879269 290.06083025 233.125 295.6875 C250.8915798 299.66233315 265.67177164 307.62864068 278.375 320.5 C279.41140625 321.53833984 279.41140625 321.53833984 280.46875 322.59765625 C290.05765764 332.83844138 296.3278419 347.0500986 296.75 361.0625 C296.79898437 362.17753906 296.84796875 363.29257812 296.8984375 364.44140625 C296.375 367.5 296.375 367.5 294.04296875 369.87109375 C290.79024818 371.85701538 289.1223767 372.13785135 285.375 371.5 C282.70506596 369.86837364 281.62949841 368.46345825 280.828125 365.4296875 C280.51214363 363.73537362 280.20980544 362.03848294 279.91796875 360.33984375 C277.00550568 345.1070333 269.30878291 332.86269058 256.60107422 324.06518555 C238.44935464 311.98633857 216.38504097 308.53010293 195.0625 312.625 C179.39577824 316.60123231 166.77988513 324.04107293 153.59375 333.0859375 C133.91792584 346.55716206 111.83931168 357.328552 87.2265625 352.81640625 C76.89993132 350.62192168 68.37120902 346.91915813 61.66015625 338.48828125 C57.95059905 332.74917908 56.11711499 327.33395266 56.375 320.5 C55.34761719 321.09167969 54.32023437 321.68335938 53.26171875 322.29296875 C31.25933567 334.87906644 31.25933567 334.87906644 24.375 334.5 C23.69951422 332.44037148 23.03495688 330.37715678 22.375 328.3125 C22.00375 327.16394531 21.6325 326.01539063 21.25 324.83203125 C19.81787846 319.37846128 19.81787846 319.37846128 20.375 316.5 C22.5078125 314.6484375 22.5078125 314.6484375 25.5 312.875 C44.34181163 301.01327333 63.53469906 284.82444631 73.875 264.75 C74.98046875 262.86328125 74.98046875 262.86328125 76.375 261.5 C78.88536422 260.98741254 81.26139074 260.93552666 83.8203125 260.8671875 C89.48453911 260.05306319 92.78054446 255.42663378 96.25 251.234375 C104.59105092 240.08900523 109.54783839 226.5195101 108.375 212.5 C108.07121283 211.15962608 107.74590106 209.82337496 107.375 208.5 C101.76560819 207.70879471 96.3137667 207.32955471 90.65234375 207.296875 C89.83789291 207.28990601 89.02344208 207.28293701 88.18431091 207.27575684 C85.56032098 207.25841649 82.93654491 207.25203326 80.3125 207.25 C79.41517151 207.24899292 78.51784302 207.24798584 77.59332275 207.24694824 C64.53325995 207.25686322 51.8060604 207.74187566 38.91992188 210.046875 C36.27969731 210.51696871 33.63440821 210.93283315 30.984375 211.34375 C3.52221186 215.76641278 -23.70259271 224.3429588 -48.26831055 237.47631836 C-49.04601807 237.8141333 -49.82372559 238.15194824 -50.625 238.5 C-51.285 238.17 -51.945 237.84 -52.625 237.5 C-7.98834068 213.31339387 40.5861701 197.23652838 91.84423828 197.05322266 C95.73595501 196.97318531 97.89816276 196.77889287 101.3203125 194.77734375 C106.14181894 189.43335467 105.75996957 183.50834426 105.75 176.6875 C105.74983887 175.66374268 105.74967773 174.63998535 105.74951172 173.58520508 C105.61659657 164.65540555 103.93752689 157.02189176 101.375 148.5 C101.01541517 146.85970209 100.67879513 145.21404079 100.375 143.5625 C100.04360236 141.87461879 99.71000616 140.1871687 99.375 138.5 C99.13523437 137.28441406 98.89546875 136.06882813 98.6484375 134.81640625 C93.12292925 108.40346989 80.47625783 84.20288637 63.375 63.5 C55.26612815 66.68689674 47.66694477 70.33210007 40.125 74.6875 C39.12702393 75.25919922 38.12904785 75.83089844 37.10083008 76.41992188 C0.96789703 97.23509612 -34.85567273 123.77611101 -60.63671875 156.9453125 C-62.14402283 158.88200576 -63.67491781 160.75462439 -65.26953125 162.6171875 C-65.9510022 163.41588257 -65.9510022 163.41588257 -66.64624023 164.23071289 C-67.91580205 165.71411975 -69.18826768 167.19504001 -70.4609375 168.67578125 C-72.62381443 171.49845277 -74.14773105 174.27383524 -75.625 177.5 C-75.06683594 177.74105469 -74.50867188 177.98210937 -73.93359375 178.23046875 C-71.13607791 179.76886579 -69.04013085 181.65561964 -66.6875 183.8125 C-65.85347656 184.57175781 -65.01945313 185.33101562 -64.16015625 186.11328125 C-61.59648085 188.52684931 -59.10130334 190.99711737 -56.625 193.5 C-57.12725098 193.81114746 -57.62950195 194.12229492 -58.14697266 194.44287109 C-70.88052547 202.35185565 -70.88052547 202.35185565 -83.25 210.8125 C-83.81340088 211.21621826 -84.37680176 211.61993652 -84.95727539 212.03588867 C-89.01477448 214.98103275 -92.89166017 218.11213952 -96.66015625 221.41796875 C-99.39306601 222.92297074 -100.65722513 222.34600995 -103.625 221.5 C-106.04663086 220.1081543 -106.04663086 220.1081543 -108.58984375 218.32421875 C-109.54366943 217.66679687 -110.49749512 217.009375 -111.48022461 216.33203125 C-112.49737549 215.62433594 -113.51452637 214.91664063 -114.5625 214.1875 C-125.87415882 206.48653024 -137.4417285 199.71698797 -149.625 193.5 C-150.35170898 193.12439941 -151.07841797 192.74879883 -151.82714844 192.36181641 C-166.03962383 185.08135695 -181.26652493 179.43447357 -196.60546875 175.03125 C-197.33757568 174.81944092 -198.06968262 174.60763184 -198.82397461 174.3894043 C-200.71483345 173.85755101 -202.61493333 173.35884785 -204.515625 172.86328125 C-208.6374636 171.05609322 -210.05328265 169.17853242 -212.625 165.5 C-216.88798217 153.32005095 -214.44371316 140.18205911 -209.33984375 128.578125 C-206.00305159 122.88977737 -206.00305159 122.88977737 -202.484375 121.89453125 C-201.72640625 121.76433594 -200.9684375 121.63414062 -200.1875 121.5 C-197.76002979 121.02803213 -197.76002979 121.02803213 -195.625 119.5 C-193.49213475 115.52323834 -192.00175261 111.47449495 -190.46484375 107.2421875 C-188.66491094 102.35968069 -186.29160785 97.93295343 -183.6875 93.4375 C-183.2853125 92.74116455 -182.883125 92.0448291 -182.46875 91.32739258 C-181.52888978 89.71354287 -180.5782213 88.10599417 -179.625 86.5 C-180.615 86.17 -181.605 85.84 -182.625 85.5 C-182.36823112 72.14801819 -172.43024899 62.49206474 -163.625 53.5 C-162.84769531 52.67242187 -162.07039063 51.84484375 -161.26953125 50.9921875 C-152.78084205 42.12789259 -141.67618941 32.88713378 -128.953125 32.203125 C-122.79682322 31.68589473 -118.18652613 29.12282227 -112.875 26.125 C-111.06780027 25.1378525 -109.26051102 24.15086888 -107.453125 23.1640625 C-106.61539551 22.69782471 -105.77766602 22.23158691 -104.91455078 21.7512207 C-103.03633306 20.72479014 -101.12014117 19.76813813 -99.1953125 18.83203125 C-96.81664323 17.59931663 -95.17130483 16.40090589 -93.25 14.5625 C-79.73290774 2.68739725 -58.60156968 1.14118573 -41.4375 1.1875 C-40.23158203 1.17138672 -39.02566406 1.15527344 -37.78320312 1.13867188 C-32.38097432 1.13572145 -27.84788881 1.17442877 -22.82421875 3.26953125 C-20.21386664 4.29990968 -19.12845179 4.65383404 -16.41577148 3.82495117 C-14.90342426 3.0819776 -13.40173766 2.31693508 -11.91113281 1.53125 C-8.01922626 -0.22434731 -4.20758867 -0.09588062 0 0 Z " fill="#1F9B92" transform="translate(215.625,70.5)"/>
<path d="M0 0 C0.87245361 0.01353516 1.74490723 0.02707031 2.64379883 0.04101562 C21.86688386 0.64685541 41.63442068 9.08507104 54.9375 23.0625 C56.90748294 25.20332157 57.37989145 26.5213785 58.0390625 29.40234375 C57.375 32.5 57.375 32.5 55.92260742 33.78735352 C53.72678653 35.14204764 51.48639021 36.3285409 49.1875 37.5 C47.43804691 38.45087647 45.6920716 39.40817313 43.94921875 40.37109375 C43.03446777 40.87495605 42.1197168 41.37881836 41.17724609 41.89794922 C28.22874185 49.30064001 15.97816131 58.14724549 4.375 67.5 C3.44816406 68.23476562 2.52132812 68.96953125 1.56640625 69.7265625 C-4.46400215 74.56799676 -10.18386806 79.68329648 -15.84765625 84.94140625 C-18.11430455 87.0295281 -20.40832891 89.06006496 -22.75 91.0625 C-30.30466466 97.62767636 -37.15596216 104.8767355 -43.625 112.5 C-44.41132813 113.3971875 -45.19765625 114.294375 -46.0078125 115.21875 C-58.57966209 129.65717264 -69.37721461 145.23966236 -79.39550781 161.52978516 C-81.07948707 164.22829838 -82.84139989 166.86646839 -84.625 169.5 C-89.18255241 166.94318443 -93.5770585 164.26066458 -97.9375 161.375 C-110.55362166 153.17546537 -123.76040382 146.23473596 -137.44140625 139.99609375 C-140.625 138.5 -140.625 138.5 -141.625 137.5 C-141.79649856 122.68252477 -135.7954381 107.01333865 -131.125 93.125 C-130.8662207 92.35096832 -130.60744141 91.57693665 -130.34082031 90.77944946 C-106.85030097 20.88281546 -106.85030097 20.88281546 -86.125 9.4375 C-72.16610578 2.85763956 -56.66681164 1.14640634 -41.4375 1.1875 C-39.62862305 1.16333008 -39.62862305 1.16333008 -37.78320312 1.13867188 C-32.38097432 1.13572145 -27.84788881 1.17442877 -22.82421875 3.26953125 C-20.21386664 4.29990968 -19.12845179 4.65383404 -16.41577148 3.82495117 C-14.90342426 3.0819776 -13.40173766 2.31693508 -11.91113281 1.53125 C-8.01922626 -0.22434731 -4.20758867 -0.09588062 0 0 Z " fill="#40C5C1" transform="translate(215.625,70.5)"/>
<path d="M0 0 C-1.44910514 3.82808205 -3.19467602 7.38042718 -5.125 10.98828125 C-5.75121555 12.16847833 -6.37667222 13.34907831 -7.00146484 14.5300293 C-7.32765808 15.14615082 -7.65385132 15.76227234 -7.9899292 16.39706421 C-15.14109598 29.95809458 -21.56323593 43.64928126 -27 58 C-27.38881348 59.02625488 -27.77762695 60.05250977 -28.17822266 61.10986328 C-32.85500356 73.64101542 -36.78756096 86.28518852 -40.0625 99.25 C-40.5114563 101.02648926 -40.5114563 101.02648926 -40.96948242 102.83886719 C-42.23015442 108.03852599 -43.15476343 112.62358823 -43 118 C-42.34741211 118.30067383 -41.69482422 118.60134766 -41.02246094 118.91113281 C-19.75687264 128.76555429 -0.30600362 139.80227414 18.43798828 153.88354492 C20.01697844 155.07360138 20.01697844 155.07360138 22 156 C22 156.66 22 157.32 22 158 C22.55816406 158.24105469 23.11632812 158.48210937 23.69140625 158.73046875 C26.48892209 160.26886579 28.58486915 162.15561964 30.9375 164.3125 C31.77152344 165.07175781 32.60554687 165.83101562 33.46484375 166.61328125 C36.02851915 169.02684931 38.52369666 171.49711737 41 174 C40.49774902 174.31114746 39.99549805 174.62229492 39.47802734 174.94287109 C26.74447453 182.85185565 26.74447453 182.85185565 14.375 191.3125 C13.81159912 191.71621826 13.24819824 192.11993652 12.66772461 192.53588867 C8.61022552 195.48103275 4.73333983 198.61213952 0.96484375 201.91796875 C-1.76806601 203.42297074 -3.03222513 202.84600995 -6 202 C-8.42163086 200.6081543 -8.42163086 200.6081543 -10.96484375 198.82421875 C-11.91866943 198.16679687 -12.87249512 197.509375 -13.85522461 196.83203125 C-14.87237549 196.12433594 -15.88952637 195.41664063 -16.9375 194.6875 C-28.24915882 186.98653024 -39.8167285 180.21698797 -52 174 C-52.72670898 173.62439941 -53.45341797 173.24879883 -54.20214844 172.86181641 C-68.41462383 165.58135695 -83.64152493 159.93447357 -98.98046875 155.53125 C-99.71257568 155.31944092 -100.44468262 155.10763184 -101.19897461 154.8894043 C-103.08983345 154.35755101 -104.98993333 153.85884785 -106.890625 153.36328125 C-111.0124636 151.55609322 -112.42828265 149.67853242 -115 146 C-119.26298217 133.82005095 -116.81871316 120.68205911 -111.71484375 109.078125 C-108.37805159 103.38977737 -108.37805159 103.38977737 -104.859375 102.39453125 C-104.10140625 102.26433594 -103.3434375 102.13414062 -102.5625 102 C-100.13502979 101.52803213 -100.13502979 101.52803213 -98 100 C-95.86713475 96.02323834 -94.37675261 91.97449495 -92.83984375 87.7421875 C-91.03991094 82.85968069 -88.66660785 78.43295343 -86.0625 73.9375 C-85.6603125 73.24116455 -85.258125 72.5448291 -84.84375 71.82739258 C-83.90388978 70.21354287 -82.9532213 68.60599417 -82 67 C-82.99 66.67 -83.98 66.34 -85 66 C-84.74323112 52.64801819 -74.80524899 42.99206474 -66 34 C-65.22269531 33.17242187 -64.44539063 32.34484375 -63.64453125 31.4921875 C-55.16428433 22.63670842 -44.05445599 13.37834487 -31.33984375 12.7109375 C-25.11196948 12.18972305 -20.42933195 9.53725201 -15.0625 6.5 C-13.22088434 5.48806724 -11.37847194 4.4775827 -9.53515625 3.46875 C-8.734729 3.01951172 -7.93430176 2.57027344 -7.10961914 2.10742188 C-4.72063352 0.85334957 -2.72462906 0 0 0 Z " fill="#37AFA6" transform="translate(118,90)"/>
<path d="M0 0 C1.22267578 -0.01611328 2.44535156 -0.03222656 3.70507812 -0.04882812 C10.08077407 -0.05229129 15.13368484 0.01867889 20.6875 3.3125 C21.1825 4.3025 21.1825 4.3025 21.6875 5.3125 C17.3538983 10.5584389 12.65838308 15.35983858 7.8125 20.125 C1.99205821 25.88061769 -3.25975702 31.86589688 -8.3125 38.3125 C-9.25288186 39.46544314 -10.19573859 40.61637064 -11.140625 41.765625 C-18.3865298 50.61494887 -25.06085987 59.73538451 -31.3125 69.3125 C-31.81894043 70.08803223 -32.32538086 70.86356445 -32.84716797 71.66259766 C-48.65487869 96.0820806 -61.28446455 122.01395905 -71.3125 149.3125 C-75.16557384 148.6950314 -78.287697 147.53699823 -81.796875 145.84375 C-82.81394531 145.35519531 -83.83101562 144.86664063 -84.87890625 144.36328125 C-85.92949219 143.85152344 -86.98007813 143.33976563 -88.0625 142.8125 C-89.12855469 142.30074219 -90.19460937 141.78898438 -91.29296875 141.26171875 C-99.16290794 137.46209206 -99.16290794 137.46209206 -100.3125 136.3125 C-100.48399856 121.49502477 -94.4829381 105.82583865 -89.8125 91.9375 C-89.5537207 91.16346832 -89.29494141 90.38943665 -89.02832031 89.59194946 C-65.53780097 19.69531546 -65.53780097 19.69531546 -44.8125 8.25 C-30.80911614 1.6491683 -15.27551435 -0.04090925 0 0 Z " fill="#79DCD7" transform="translate(174.3125,71.6875)"/>
<path d="M0 0 C6.49649268 1.10150195 12.72799906 3.36167892 18.953125 5.46875 C19.95072342 5.80388107 19.95072342 5.80388107 20.96847534 6.14578247 C32.56514818 10.05747939 43.73184821 14.53626044 54.703125 19.96875 C55.52474121 20.36610352 56.34635742 20.76345703 57.19287109 21.17285156 C73.97455376 29.33101514 90.21276806 39.17107658 104.703125 50.96875 C103.12922214 55.27413589 99.82283101 57.65488477 96.390625 60.46875 C95.12068116 61.53311374 93.85249461 62.59957716 92.5859375 63.66796875 C91.94043945 64.21243652 91.29494141 64.7569043 90.62988281 65.31787109 C83.00886536 71.84768863 75.71537992 78.79341938 68.703125 85.96875 C60.65301424 83.35225502 52.75867832 80.38529985 44.84960938 77.37304688 C31.14021683 72.15056235 31.14021683 72.15056235 16.95825195 68.50195312 C3.80784523 65.90572216 3.80784523 65.90572216 -0.296875 59.96875 C-7.22476289 48.62163386 -9.81627642 37.53241303 -9.671875 24.34375 C-9.68347656 23.27640625 -9.69507813 22.2090625 -9.70703125 21.109375 C-9.68143742 14.1649165 -9.41652067 6.86640022 -4.89892578 1.22216797 C-3.296875 -0.03125 -3.296875 -0.03125 0 0 Z " fill="#79DCD7" transform="translate(9.296875,242.03125)"/>
<path d="M0 0 C-1.44910514 3.82808205 -3.19467602 7.38042718 -5.125 10.98828125 C-5.75121555 12.16847833 -6.37667222 13.34907831 -7.00146484 14.5300293 C-7.32765808 15.14615082 -7.65385132 15.76227234 -7.9899292 16.39706421 C-15.14109598 29.95809458 -21.56323593 43.64928126 -27 58 C-27.38881348 59.02625488 -27.77762695 60.05250977 -28.17822266 61.10986328 C-35.04175965 79.50029636 -40.92170683 98.5736686 -44 118 C-44.91942383 117.6757605 -44.91942383 117.6757605 -45.85742188 117.3449707 C-69.76751522 108.73182872 -69.76751522 108.73182872 -94.40234375 102.67578125 C-95.68818359 102.34126953 -95.68818359 102.34126953 -97 102 C-97.33 101.34 -97.66 100.68 -98 100 C-97.12950324 97.38850972 -96.1885901 94.90790256 -95.125 92.375 C-94.8148999 91.62677979 -94.5047998 90.87855957 -94.18530273 90.10766602 C-90.74923114 82.05133996 -86.46467076 74.5221097 -82 67 C-82.99 66.67 -83.98 66.34 -85 66 C-84.74323112 52.64801819 -74.80524899 42.99206474 -66 34 C-65.22269531 33.17242187 -64.44539063 32.34484375 -63.64453125 31.4921875 C-55.16428433 22.63670842 -44.05445599 13.37834487 -31.33984375 12.7109375 C-25.11196948 12.18972305 -20.42933195 9.53725201 -15.0625 6.5 C-13.22088434 5.48806724 -11.37847194 4.4775827 -9.53515625 3.46875 C-8.734729 3.01951172 -7.93430176 2.57027344 -7.10961914 2.10742188 C-4.72063352 0.85334957 -2.72462906 0 0 0 Z " fill="#37AFA6" transform="translate(118,90)"/>
<path d="M0 0 C3.65137849 3.05956147 7.03149816 6.35050779 10.37646484 9.73974609 C11.06740234 10.43197266 11.75833984 11.12419922 12.47021484 11.83740234 C22.05912248 22.07818747 28.32930675 36.28984469 28.75146484 50.30224609 C28.80044922 51.41728516 28.84943359 52.53232422 28.89990234 53.68115234 C28.37646484 56.73974609 28.37646484 56.73974609 26.04443359 59.11083984 C22.79171303 61.09676148 21.12384155 61.37759745 17.37646484 60.73974609 C14.7065308 59.10811973 13.63096325 57.70320434 12.82958984 54.66943359 C12.51360848 52.97511971 12.21127028 51.27822904 11.91943359 49.57958984 C9.00697052 34.34677939 1.31024775 22.10243667 -11.39746094 13.30493164 C-29.54918052 1.22608466 -51.61349419 -2.23015098 -72.93603516 1.86474609 C-88.60275691 5.8409784 -101.21865003 13.28081903 -114.40478516 22.32568359 C-134.08060931 35.79690815 -156.15922348 46.56829809 -180.77197266 42.05615234 C-191.09214994 39.86303927 -199.64634816 36.16447648 -206.33837891 27.72021484 C-209.90268261 22.22750366 -212.25671273 16.29791225 -212.11376953 9.69067383 C-211.14659431 5.84172104 -207.89573242 4.2235823 -204.68603516 2.23974609 C-204.02667969 1.79888672 -203.36732422 1.35802734 -202.68798828 0.90380859 C-197.89767627 -2.26025391 -197.89767627 -2.26025391 -196.62353516 -2.26025391 C-196.44177734 -1.09107422 -196.26001953 0.07810547 -196.07275391 1.28271484 C-195.819401 2.83098258 -195.5654639 4.37915479 -195.31103516 5.92724609 C-195.19308594 6.69617188 -195.07513672 7.46509766 -194.95361328 8.25732422 C-194.10718039 13.31421813 -193.22679492 17.74972535 -188.93212891 21.03271484 C-175.99715091 27.21666048 -162.51298037 26.70275067 -149.02978516 22.15380859 C-137.98917379 17.57043553 -128.06933627 10.82804696 -118.20556641 4.15771484 C-84.02708366 -18.94925294 -35.16655133 -27.29770496 0 0 Z " fill="#3FC6C2" transform="translate(483.62353515625,381.26025390625)"/>
<path d="M0 0 C10.23661068 5.59699577 17.9008745 15.97894543 25 25 C25.88307744 26.09328646 26.76723606 27.1857003 27.65234375 28.27734375 C32.60301823 34.42490376 37.28827817 40.69429688 41.6875 47.25 C42.1218335 47.89420898 42.55616699 48.53841797 43.00366211 49.20214844 C46 53.74713473 46 53.74713473 46 56 C45.1843457 56.19110352 44.36869141 56.38220703 43.52832031 56.57910156 C40.44083072 57.30531267 37.35458494 58.03655758 34.26904297 58.77099609 C32.30134609 59.2378185 30.33232847 59.69906278 28.36328125 60.16015625 C21.25962633 61.85493687 14.40774067 63.75795607 7.57714844 66.35449219 C4.60810662 67.09815897 2.89869172 66.93655183 0 66 C-1.95792442 64.25508375 -3.6782427 62.54968045 -5.4375 60.625 C-15.41182765 50.20702176 -27.06996197 42.02602226 -39 34 C-37.40777621 29.89322767 -34.4437744 27.32281946 -31.25 24.4375 C-30.39088013 23.65403198 -30.39088013 23.65403198 -29.5144043 22.85473633 C-20.24745732 14.51058667 -10.33199342 6.97528588 0 0 Z " fill="#36AFA6" transform="translate(220,167)"/>
<path d="M0 0 C1.60801735 2.68412838 2.91455259 5.22190719 4.1875 8.0625 C4.76407349 9.31571045 4.76407349 9.31571045 5.35229492 10.59423828 C13.28820669 28.19987725 20.72320134 46.89971309 24 66 C25.485 66.495 25.485 66.495 27 67 C26.34 67 25.68 67 25 67 C24.9071875 68.60875 24.9071875 68.60875 24.8125 70.25 C24 74 24 74 21.75 76.3125 C16.94916798 79.2584651 13.21509431 80.29252617 7.5625 80.3125 C6.47066406 80.32925781 5.37882812 80.34601563 4.25390625 80.36328125 C0.21196798 79.91202044 -1.70449827 79.45959093 -5 77 C-7.25172057 73.35542214 -8.9130326 69.48331725 -10.625 65.5625 C-18.69420609 47.95246542 -28.31372527 30.70554957 -40.83984375 15.8125 C-41.22269531 15.214375 -41.60554687 14.61625 -42 14 C-41 11 -41 11 -39.10498047 9.98852539 C-37.87352295 9.54754517 -37.87352295 9.54754517 -36.6171875 9.09765625 C-35.24699463 8.60060181 -35.24699463 8.60060181 -33.84912109 8.09350586 C-32.37693115 7.58315796 -32.37693115 7.58315796 -30.875 7.0625 C-29.88193848 6.71131104 -28.88887695 6.36012207 -27.86572266 5.99829102 C-5.07883629 -1.94158949 -5.07883629 -1.94158949 0 0 Z " fill="#37AFA6" transform="translate(216,339)"/>
<path d="M0 0 C1.9352295 2.11910645 3.50849906 4.09483075 5.125 6.4375 C5.83668335 7.44296875 5.83668335 7.44296875 6.56274414 8.46875 C36.77977177 51.7683601 36.77977177 51.7683601 37.0625 66.1875 C35.93924637 69.16081843 34.85021423 70.7081904 32.06640625 72.3046875 C25.99747304 74.34678601 19.1889403 73.94096218 13.4375 71.1875 C8.8156267 68.59328725 6.72091941 65.55565643 4.16064453 60.93115234 C2.08103798 57.47097401 -0.49432602 54.41796001 -3.0625 51.3125 C-3.63758301 50.61261963 -4.21266602 49.91273926 -4.80517578 49.19165039 C-14.52248447 37.4533668 -25.16196193 26.69499798 -36 16 C-33.70376788 13.46098627 -31.38882279 11.98113399 -28.359375 10.40625 C-27.45316406 9.93316406 -26.54695312 9.46007812 -25.61328125 8.97265625 C-24.19595703 8.24369141 -24.19595703 8.24369141 -22.75 7.5 C-21.82058594 7.01402344 -20.89117187 6.52804687 -19.93359375 6.02734375 C-17.30054076 4.66053972 -14.65552513 3.32253103 -12 2 C-11.32130859 1.65453125 -10.64261719 1.3090625 -9.94335938 0.953125 C-6.26031372 -0.80260641 -3.80007733 -1.73806816 0 0 Z " fill="#79DCD7" transform="translate(175,353)"/>
<path d="M0 0 C0.74805908 0.00523682 1.49611816 0.01047363 2.2668457 0.01586914 C3.04648682 0.0178833 3.82612793 0.01989746 4.62939453 0.02197266 C15.3800434 0.1967034 26.01476583 1.80495669 36.6418457 3.32836914 C37.38772949 3.4342334 38.13361328 3.54009766 38.90209961 3.64916992 C40.48225514 3.8738873 42.06209876 4.1007972 43.6418457 4.32836914 C43.455979 4.93495361 43.2701123 5.54153809 43.07861328 6.16650391 C38.53574232 21.09427989 34.71735885 36.03065886 31.6418457 51.32836914 C31.02889648 51.11220947 30.41594727 50.8960498 29.78442383 50.67333984 C5.87433048 42.06019786 5.87433048 42.06019786 -18.76049805 36.00415039 C-20.04633789 35.66963867 -20.04633789 35.66963867 -21.3581543 35.32836914 C-21.6881543 34.66836914 -22.0181543 34.00836914 -22.3581543 33.32836914 C-21.46523589 30.6768555 -20.50383099 28.15200144 -19.4206543 25.57836914 C-19.10652588 24.82354248 -18.79239746 24.06871582 -18.46875 23.29101562 C-8.56991552 0.11426554 -8.56991552 0.11426554 0 0 Z " fill="#40C5C1" transform="translate(42.358154296875,156.671630859375)"/>
<path d="M0 0 C3.67127899 1.60564211 6.48705241 3.889272 9.5625 6.4375 C10.98755859 7.61119141 10.98755859 7.61119141 12.44140625 8.80859375 C16.55715959 12.33368936 16.55715959 12.33368936 18 14 C18 14.66 18 15.32 18 16 C16.15625 17.48828125 16.15625 17.48828125 13.5 19.3125 C-9.58140132 35.71009785 -31.62740568 55.61017313 -49 78 C-50.77617316 80.15886948 -52.57526109 82.2982612 -54.375 84.4375 C-57.00252247 87.56967361 -59.58304327 90.70202356 -62 94 C-65.45925163 92.7508258 -68.14693203 91.32472205 -71 89 C-69.45375639 84.73977672 -67.33464363 80.92892338 -65 77.0625 C-64.60482178 76.40717285 -64.20964355 75.7518457 -63.80249023 75.07666016 C-59.55131195 68.12625483 -54.86737327 61.52889603 -50 55 C-49.59668457 54.45633789 -49.19336914 53.91267578 -48.77783203 53.35253906 C-34.5233788 34.2202016 -18.38969671 15.25953557 0 0 Z " fill="#168277" transform="translate(202,152)"/>
<path d="M0 0 C1.91847937 1.1010141 3.83471354 2.20594096 5.75 3.3125 C7.35101563 4.23482422 7.35101563 4.23482422 8.984375 5.17578125 C11.46086193 6.67386337 13.70718811 8.2457826 16 10 C15.20734741 10.77694214 15.20734741 10.77694214 14.39868164 11.56958008 C5.10432843 20.7037732 -4.00439796 29.69525553 -12 40 C-13.77617316 42.15886948 -15.57526109 44.2982612 -17.375 46.4375 C-20.00252247 49.56967361 -22.58304327 52.70202356 -25 56 C-28.45925163 54.7508258 -31.14693203 53.32472205 -34 51 C-32.45375639 46.73977672 -30.33464363 42.92892338 -28 39.0625 C-27.60482178 38.40717285 -27.20964355 37.7518457 -26.80249023 37.07666016 C-20.30210514 26.44894518 -12.76389373 16.57085517 -5.12890625 6.7421875 C-3.39640213 4.51059504 -1.68633727 2.26652405 0 0 Z " fill="#1F9B92" transform="translate(165,190)"/>
<path d="M0 0 C3.00786341 0.75196585 3.42989923 1.98399127 5.0625 4.5625 C5.80929064 5.8860428 6.54406697 7.21672128 7.25 8.5625 C-2.47019395 8.87946285 -11.87000867 8.654219 -21.5 7.1875 C-22.33241211 7.06141357 -23.16482422 6.93532715 -24.02246094 6.80541992 C-28.43384213 6.08589977 -32.5421295 5.12348422 -36.75 3.5625 C-36.75 3.2325 -36.75 2.9025 -36.75 2.5625 C-35.68471069 2.52491577 -35.68471069 2.52491577 -34.59790039 2.48657227 C-31.33596536 2.36951528 -28.07424278 2.24729254 -24.8125 2.125 C-23.13704102 2.06602539 -23.13704102 2.06602539 -21.42773438 2.00585938 C-14.23592258 1.73168473 -7.06973353 1.44608186 0 0 Z " fill="#219E96" transform="translate(174.75,408.4375)"/>
<path d="M0 0 C-1.42749981 3.79049707 -3.16236542 7.27122456 -5.125 10.8125 C-5.66382812 11.78832031 -6.20265625 12.76414062 -6.7578125 13.76953125 C-7.16773437 14.50558594 -7.57765625 15.24164063 -8 16 C-11.33531035 15.68458836 -14.66800718 15.34869692 -18 15 C-18.721875 14.9278125 -19.44375 14.855625 -20.1875 14.78125 C-21.8017184 14.59292452 -23.40383387 14.30564883 -25 14 C-25.33 13.34 -25.66 12.68 -26 12 C-22.5644212 10.18384089 -19.12621865 8.3727061 -15.6875 6.5625 C-14.71103516 6.04623047 -13.73457031 5.52996094 -12.72851562 4.99804688 C-11.79072266 4.50498047 -10.85292969 4.01191406 -9.88671875 3.50390625 C-8.59060669 2.82050171 -8.59060669 2.82050171 -7.26831055 2.12329102 C-4.81435938 0.90806883 -2.76652334 0 0 0 Z " fill="#40C6C2" transform="translate(118,90)"/>
<path d="M0 0 C-2.78545731 2.78545731 -6.17480871 3.9286155 -9.75 5.4375 C-11.16211937 6.03881457 -12.57358864 6.64165833 -13.984375 7.24609375 C-14.66435547 7.53597168 -15.34433594 7.82584961 -16.04492188 8.12451172 C-17.86151018 8.93798395 -19.62940739 9.85787924 -21.390625 10.78515625 C-22.68226563 11.38650391 -22.68226563 11.38650391 -24 12 C-24.66 11.67 -25.32 11.34 -26 11 C-22.91702588 9.37431783 -19.83355811 7.74957416 -16.75 6.125 C-15.87730469 5.66480469 -15.00460938 5.20460938 -14.10546875 4.73046875 C-13.26113281 4.28574219 -12.41679687 3.84101563 -11.546875 3.3828125 C-10.77182617 2.97434082 -9.99677734 2.56586914 -9.19824219 2.14501953 C-8.47282227 1.76716309 -7.74740234 1.38930664 -7 1 C-6.3080957 0.60022949 -5.61619141 0.20045898 -4.90332031 -0.21142578 C-3 -1 -3 -1 0 0 Z " fill="#24A29A" transform="translate(189,297)"/>
</svg>
