<?xml version="1.0" encoding="UTF-8"?>
<svg version="1.1" xmlns="http://www.w3.org/2000/svg" width="512" height="512">
<path d="M0 0 C1.41952217 -0.01058945 1.41952217 -0.01058945 2.86772156 -0.02139282 C42.38370862 -0.24928599 42.38370862 -0.24928599 58.8671875 3.203125 C59.84204102 3.40180176 60.81689453 3.60047852 61.82128906 3.80517578 C80.77670168 7.77030832 100.17365847 12.96761602 117.59765625 21.5859375 C120.74323544 22.44136179 122.00081505 21.70721849 124.8671875 20.203125 C127.0544092 18.90378538 129.22003933 17.56766776 131.3671875 16.203125 C137.62421082 12.22669896 143.2092394 8.7267278 150.8671875 10.203125 C163.72906071 15.38899573 169.84642039 30.33331732 174.9453125 42.2578125 C176.11226691 45.05185702 177.00916028 47.73885926 177.78662109 50.67260742 C180.54703124 60.6362218 184.71517632 66.28850381 192.30123901 73.21908569 C195.18195224 75.8537823 197.97672903 78.57781091 200.78515625 81.2890625 C201.32908524 81.8096373 201.87301422 82.3302121 202.4334259 82.86656189 C208.29404551 88.50300448 213.1720646 94.56490506 217.8671875 101.203125 C218.71263453 102.34538847 219.56036448 103.48596512 220.41015625 104.625 C226.46807033 112.82019549 231.83090047 121.3484329 236.8671875 130.203125 C237.23166992 130.83492676 237.59615234 131.46672852 237.97167969 132.11767578 C259.57753748 169.86595072 269.34416845 212.63252497 269.1796875 255.828125 C269.17753235 256.84603119 269.1753772 257.86393738 269.17315674 258.91268921 C269.12348604 273.52176023 268.87258941 287.85388353 265.8671875 302.203125 C265.56917236 303.66540527 265.56917236 303.66540527 265.26513672 305.15722656 C255.14451556 353.5391024 233.2279998 397.52740769 198.8671875 433.203125 C198.23506348 433.86248047 197.60293945 434.52183594 196.95166016 435.20117188 C187.80721271 444.68942805 178.50984741 453.4293294 167.8671875 461.203125 C166.71613733 462.06118652 165.56509573 462.91925951 164.4140625 463.77734375 C156.22442769 469.81489896 147.72180474 475.19769802 138.8671875 480.203125 C138.15997559 480.6053125 137.45276367 481.0075 136.72412109 481.421875 C113.58872914 494.4472991 88.41756341 503.19613961 62.4296875 508.515625 C61.71079346 508.66298096 60.99189941 508.81033691 60.2512207 508.9621582 C45.57558252 511.75152625 31.05049912 512.55205119 16.13989258 512.51879883 C13.20030263 512.5156471 10.2617317 512.53917426 7.32226562 512.56445312 C-6.05087442 512.60911237 -18.94697961 511.40364042 -32.1328125 509.203125 C-33.83836304 508.92094116 -33.83836304 508.92094116 -35.57836914 508.63305664 C-38.1740747 508.16679902 -40.74556189 507.6480668 -43.3203125 507.078125 C-44.70923706 506.77116699 -44.70923706 506.77116699 -46.1262207 506.45800781 C-90.57690835 496.12218161 -131.31221814 473.81404602 -164.1328125 442.203125 C-164.79216797 441.57100098 -165.45152344 440.93887695 -166.13085938 440.28759766 C-175.61911555 431.14315021 -184.3590169 421.84578491 -192.1328125 411.203125 C-192.99087402 410.05207483 -193.84894701 408.90103323 -194.70703125 407.75 C-200.74458646 399.56036519 -206.12738552 391.05774224 -211.1328125 382.203125 C-211.535 381.49591309 -211.9371875 380.78870117 -212.3515625 380.06005859 C-225.3769866 356.92466664 -234.12582711 331.75350091 -239.4453125 305.765625 C-239.59266846 305.04673096 -239.74002441 304.32783691 -239.8918457 303.5871582 C-242.86570338 287.94086891 -243.50581612 272.46744454 -243.4453125 256.578125 C-243.44315735 255.56021881 -243.4410022 254.54231262 -243.43878174 253.49356079 C-243.38911104 238.88448977 -243.13821441 224.55236647 -240.1328125 210.203125 C-239.93413574 209.22827148 -239.73545898 208.25341797 -239.53076172 207.24902344 C-229.32742517 158.47172468 -206.5784354 109.16002852 -168.90625 75.37890625 C-158.49179299 65.87197056 -153.72096184 58.07758301 -149.88964844 44.6015625 C-146.14903053 32.74742369 -138.41664042 16.87260833 -127.109375 10.95703125 C-121.86513967 8.95675967 -118.79822862 9.51032733 -113.76171875 11.60546875 C-108.58868957 14.04300729 -103.6768607 16.572129 -99.3203125 20.328125 C-96.46719917 22.46801186 -96.46719917 22.46801186 -94.25927734 21.8815918 C-93.56527832 21.62031494 -92.8712793 21.35903809 -92.15625 21.08984375 C-90.96020142 20.65188477 -90.96020142 20.65188477 -89.73999023 20.20507812 C-88.87962158 19.87443359 -88.01925293 19.54378906 -87.1328125 19.203125 C-85.29832655 18.51913024 -83.46368421 17.83555482 -81.62890625 17.15234375 C-80.65324707 16.78641113 -79.67758789 16.42047852 -78.67236328 16.04345703 C-59.28124042 8.8370284 -39.65327125 3.8369108 -19.1328125 1.203125 C-18.13200401 1.07213158 -18.13200401 1.07213158 -17.11097717 0.93849182 C-11.39460774 0.24225009 -5.75538618 0.02856336 0 0 Z " fill="#595453" transform="translate(243.1328125,-0.203125)"/>
<path d="M0 0 C7.74095161 3.65265682 14.39958052 7.89544566 20.734375 13.703125 C21.27594238 14.19699707 21.81750977 14.69086914 22.37548828 15.19970703 C33.57386656 25.53262964 42.07390727 36.42890203 47.734375 50.703125 C48.71792969 50.20683594 49.70148438 49.71054687 50.71484375 49.19921875 C70.86638787 39.25158075 92.02558221 31.75838324 114.734375 32.703125 C114.734375 33.033125 114.734375 33.363125 114.734375 33.703125 C114.14011719 33.85007813 113.54585937 33.99703125 112.93359375 34.1484375 C95.0730718 38.9816114 80.84325908 51.41666986 69.921875 66.015625 C69.41414551 66.69206055 68.90641602 67.36849609 68.38330078 68.06542969 C61.83712278 77.01262094 56.66178705 86.79346048 51.734375 96.703125 C48.41434932 96.10001628 45.35242876 95.25462606 42.171875 94.140625 C31.63579242 90.99226896 21.77142604 92.46174648 11.734375 96.703125 C0.93878992 102.76443357 -5.89659053 113.01143336 -9.265625 124.703125 C-10.5687782 136.67841703 -8.36956997 147.10352911 -1.515625 157.078125 C6.16808969 166.36914735 15.61637079 170.01857657 26.734375 173.703125 C26.42986979 175.83466147 26.12527679 177.96618542 25.8203125 180.09765625 C25.54933015 181.99718939 25.27985502 183.89693802 25.01171875 185.796875 C24.36562035 190.36144055 23.70855459 194.92163003 22.97265625 199.47265625 C21.25477965 210.30117088 20.17629742 221.16125225 19.296875 232.0859375 C19.20074669 233.26997099 19.20074669 233.26997099 19.10267639 234.47792435 C17.39809619 255.65349275 16.33052703 276.8641509 15.234375 298.078125 C14.07442026 320.4968866 12.89142976 342.90531208 11.16796875 365.2890625 C11.10655701 366.09280682 11.04514526 366.89655113 10.98187256 367.72465134 C5.89487155 433.75616872 5.89487155 433.75616872 -9.265625 459.703125 C-10.255625 460.033125 -11.245625 460.363125 -12.265625 460.703125 C-26.2465642 453.40872194 -38.99640637 441.55699243 -50.265625 430.703125 C-50.92498047 430.07100098 -51.58433594 429.43887695 -52.26367188 428.78759766 C-61.75192805 419.64315021 -70.4918294 410.34578491 -78.265625 399.703125 C-79.12368652 398.55207483 -79.98175951 397.40103323 -80.83984375 396.25 C-86.87739896 388.06036519 -92.26019802 379.55774224 -97.265625 370.703125 C-97.6678125 369.99591309 -98.07 369.28870117 -98.484375 368.56005859 C-111.5097991 345.42466664 -120.25863961 320.25350091 -125.578125 294.265625 C-125.72548096 293.54673096 -125.87283691 292.82783691 -126.0246582 292.0871582 C-128.99851588 276.44086891 -129.63862862 260.96744454 -129.578125 245.078125 C-129.57596985 244.06021881 -129.5738147 243.04231262 -129.57159424 241.99356079 C-129.52192354 227.38448977 -129.27102691 213.05236647 -126.265625 198.703125 C-126.06694824 197.72827148 -125.86827148 196.75341797 -125.66357422 195.74902344 C-115.46023767 146.97172468 -92.7112479 97.66002852 -55.0390625 63.87890625 C-44.62460549 54.37197056 -39.85377434 46.57758301 -36.02246094 33.1015625 C-32.28184303 21.24742369 -24.54945292 5.37260833 -13.2421875 -0.54296875 C-8.07635994 -2.51333381 -4.98961125 -1.98152026 0 0 Z " fill="#454045" transform="translate(129.265625,11.296875)"/>
<path d="M0 0 C5.9487348 2.51318872 10.08836061 7.74315975 14.5625 12.25 C15.05899048 12.74798096 15.55548096 13.24596191 16.0670166 13.7590332 C23.67775222 21.41104112 30.70712065 29.2219666 37 38 C37.85019038 39.14555087 38.70178501 40.29006071 39.5546875 41.43359375 C45.60520862 49.62727013 50.96643048 58.15008578 56 67 C56.36448242 67.63180176 56.72896484 68.26360352 57.10449219 68.91455078 C78.71034998 106.66282572 88.47698095 149.42939997 88.3125 192.625 C88.30926727 194.15185928 88.30926727 194.15185928 88.30596924 195.70956421 C88.25629854 210.31863523 88.00540191 224.65075853 85 239 C84.80132324 239.97485352 84.60264648 240.94970703 84.39794922 241.95410156 C77.93990437 272.82694218 66.5898407 300.69253473 51 328 C50.34 327.67 49.68 327.34 49 327 C48.46923828 324.91577148 48.46923828 324.91577148 48.0703125 322.12109375 C47.91691406 321.07115234 47.76351562 320.02121094 47.60546875 318.93945312 C47.44691406 317.78380859 47.28835938 316.62816406 47.125 315.4375 C46.95355469 314.23673828 46.78210938 313.03597656 46.60546875 311.79882812 C45.20761233 301.8658849 43.96640067 291.91386856 42.75054932 281.95724487 C41.63009529 272.78371557 40.39386935 263.63668096 39 254.5 C37.52513998 244.82987985 36.24215051 235.14783673 35.0625 225.4375 C33.70476809 214.26461049 32.17462772 203.12974054 30.5 192 C28.72465484 180.20088148 27.13181274 168.39352942 25.69287109 156.54882812 C24.5927664 147.5098918 23.37257742 138.50149215 22 129.5 C20.61802456 120.423072 19.37432105 111.33642521 18.25109863 102.22402954 C17.99947477 100.18324015 17.74558517 98.14274316 17.49121094 96.10229492 C16.68310698 89.60477188 15.89516737 83.10557862 15.140625 76.6015625 C12.02813436 50.65950878 6.02107845 25.39141628 0 0 Z " fill="#FED839" transform="translate(424,63)"/>
<path d="M0 0 C1.25147509 3.57805706 0.73192331 5.91677071 -0.2578125 9.53125 C-0.55429688 10.6553125 -0.85078125 11.779375 -1.15625 12.9375 C-1.77673169 15.21927138 -2.39896494 17.50056761 -3.0234375 19.78125 C-9.47407175 44.27179361 -12.46048197 69.5564362 -15.78353882 94.6187439 C-16.37117434 99.03942893 -16.96614946 103.45912622 -17.56054688 107.87890625 C-18.42793807 114.33241236 -19.29346451 120.78616271 -20.15645218 127.24025917 C-21.6819689 138.64769177 -23.22274157 150.0529957 -24.7734375 161.45703125 C-24.88634251 162.28739773 -24.99924751 163.11776421 -25.11557388 163.9732933 C-25.68373515 168.15125318 -26.25217268 172.32917541 -26.82073975 176.50708008 C-27.84118945 184.00643111 -28.8592251 191.50610999 -29.87744522 199.00576401 C-30.33312872 202.36194978 -30.78891558 205.71812151 -31.24470329 209.07429314 C-32.58577093 218.9491971 -33.92662598 228.82412994 -35.26745605 238.69906616 C-36.14766751 245.18163643 -37.02791952 251.66420118 -37.90818024 258.14676476 C-38.50628503 262.55145183 -39.10436722 266.95614198 -39.70239258 271.36083984 C-39.81582253 272.1962348 -39.92925247 273.03162975 -40.04611969 273.89233971 C-40.27021219 275.54294754 -40.49424769 277.19356312 -40.71822357 278.84418678 C-41.24726338 282.74231289 -41.7773142 286.64029501 -42.30993652 290.53793335 C-43.19818489 297.04412966 -44.07668561 303.55092252 -44.90625 310.06494141 C-45.04071533 311.10395096 -45.17518066 312.14296051 -45.3137207 313.2134552 C-45.55324766 315.07173497 -45.78671713 316.93081161 -46.01245117 318.79081726 C-46.49712822 322.51862235 -46.88216556 324.82324835 -49 328 C-72.99988263 285.88523963 -86.49758354 241.98120309 -86.3125 193.375 C-86.31034485 192.35709381 -86.3081897 191.33918762 -86.30596924 190.29043579 C-86.25629854 175.68136477 -86.00540191 161.34924147 -83 147 C-82.80132324 146.02514648 -82.60264648 145.05029297 -82.39794922 144.04589844 C-70.27854375 86.10878554 -41.58917555 41.07921584 0 0 Z " fill="#FED838" transform="translate(86,63)"/>
<path d="M0 0 C1.01790619 0.00215515 2.03581238 0.0043103 3.08456421 0.00653076 C17.69363523 0.05620146 32.02575853 0.30709809 46.375 3.3125 C47.34985352 3.51117676 48.32470703 3.70985352 49.32910156 3.91455078 C69.52533293 8.13924036 89.96708786 13.8209203 108.375 23.3125 C108.375 23.9725 108.375 24.6325 108.375 25.3125 C106.94140625 26.6875 106.94140625 26.6875 104.9375 28.3125 C93.56035321 38.0643401 85.72844714 49.81142483 79.375 63.3125 C75.37574951 61.78469644 71.58960397 59.95250461 67.75 58.0625 C53.30326676 51.20935456 38.20946275 47.27225524 22.375 45.3125 C21.26523804 45.17110596 21.26523804 45.17110596 20.13305664 45.02685547 C-10.92226535 41.46985824 -41.56047417 45.31954314 -69.625 59.3125 C-71.39138121 60.11405114 -73.16178477 60.90684501 -74.9375 61.6875 C-76.16670418 62.22908154 -77.39587786 62.77073229 -78.625 63.3125 C-79.181875 62.20132813 -79.73875 61.09015625 -80.3125 59.9453125 C-87.49777886 45.83675942 -96.31791806 35.28036948 -107.625 24.3125 C-105.71016178 20.48282355 -100.38956633 19.6050963 -96.5625 18.125 C-95.53406982 17.72643799 -94.50563965 17.32787598 -93.44604492 16.91723633 C-79.03719787 11.44849594 -64.28913714 7.09116984 -49.1875 4 C-48.46860596 3.85264404 -47.74971191 3.70528809 -47.0090332 3.5534668 C-31.36274391 0.57960912 -15.88931954 -0.06050362 0 0 Z " fill="#FED839" transform="translate(255.625,-0.3125)"/>
<path d="M0 0 C6.51816724 4.75533837 12.55701762 10.60664545 16.125 17.9375 C16.43695313 18.56527344 16.74890625 19.19304687 17.0703125 19.83984375 C21.30527539 29.67990458 21.53852838 39.8304024 17.875 49.9375 C13.25769415 60.50427558 6.1454302 68.72514345 -4.25 73.9375 C-13.64430624 77.49306654 -25.69233323 78.24345066 -35.1875 74.59765625 C-44.87969996 70.18466482 -51.71330909 64.19230806 -57 55 C-57.41765625 54.29488281 -57.8353125 53.58976562 -58.265625 52.86328125 C-62.66880355 43.9794034 -62.35193327 32.41568335 -60.33984375 22.8671875 C-56.54563376 12.38794086 -48.33251863 3.87222894 -38.56640625 -1.28515625 C-25.8002435 -7.13369387 -12.53355137 -6.47616676 0 0 Z " fill="#FBFBFB" transform="translate(373,108)"/>
<path d="M0 0 C6.55757329 5.99483933 13.25987361 14.73083457 14.19287109 23.89428711 C14.74622455 38.54473896 13.07917232 49.26268953 3.23828125 60.80859375 C-4.03758906 67.93208981 -13.78507371 72.31847264 -23.95166016 72.46850586 C-24.7513623 72.45827393 -25.55106445 72.44804199 -26.375 72.4375 C-27.21208496 72.42920166 -28.04916992 72.42090332 -28.91162109 72.41235352 C-40.64990941 72.09155416 -48.2975273 67.32165039 -56.71875 59.37890625 C-65.04394662 50.52276597 -67.50716554 39.67751377 -67.27734375 27.8984375 C-66.63000798 18.79926704 -62.95514305 11.75872862 -57 5 C-56.47535156 4.38253906 -55.95070312 3.76507813 -55.41015625 3.12890625 C-40.7144283 -12.94994904 -16.72589188 -12.53757525 0 0 Z " fill="#FBFBFB" transform="translate(186,112)"/>
<path d="M0 0 C1.20629059 -0.00855011 1.20629059 -0.00855011 2.43695068 -0.01727295 C4.14171024 -0.02672801 5.84648811 -0.03325894 7.55126953 -0.03710938 C10.14779044 -0.04678525 12.7435097 -0.07779063 15.33984375 -0.109375 C16.99739114 -0.11590819 18.65494419 -0.12115742 20.3125 -0.125 C21.08458801 -0.1373468 21.85667603 -0.1496936 22.65216064 -0.16241455 C28.14537472 -0.13995019 32.40104274 0.84994904 36.56640625 4.73828125 C41.13968016 10.71871637 41.87396564 14.69951959 40.921875 22.203125 C39.40612272 26.49276388 37.20679091 30.27903028 34.921875 34.203125 C34.11575875 35.65676069 33.31116256 37.11124001 32.5078125 38.56640625 C31.64810494 40.0924278 30.7861307 41.61717465 29.921875 43.140625 C29.31786865 44.2236792 29.31786865 44.2236792 28.70166016 45.32861328 C26.00160807 49.96299871 23.34943275 53.12910053 18.921875 56.203125 C17.931875 56.203125 16.941875 56.203125 15.921875 56.203125 C16.03675248 57.78722494 16.16422008 59.37041463 16.296875 60.953125 C16.40128906 62.27570313 16.40128906 62.27570313 16.5078125 63.625 C16.93010307 66.2543564 17.49238269 67.96650438 18.921875 70.203125 C23.1477535 73.02037733 26.95812188 73.00270884 31.921875 72.203125 C34.74611788 70.01289582 36.33696103 68.37295293 37.921875 65.203125 C38.19758979 62.12212159 38.36851033 59.04141024 38.54296875 55.953125 C38.921875 53.203125 38.921875 53.203125 40.921875 51.203125 C43.68383534 50.84902752 45.2523969 50.72148608 47.55078125 52.375 C50.47739283 56.27714877 49.51580423 61.59737188 48.921875 66.203125 C46.51869362 73.65914929 42.75546454 78.21547584 36.15234375 82.296875 C31.05434557 84.36821576 25.28404089 83.89353263 19.921875 83.203125 C16.22724312 81.62233723 13.09424966 79.65915699 9.921875 77.203125 C9.261875 77.80125 8.601875 78.399375 7.921875 79.015625 C2.44585845 83.00855373 -3.2433671 85.14585023 -10.078125 84.203125 C-17.42415643 81.67243475 -22.23612997 77.97978044 -26.078125 71.203125 C-27.26840838 67.63227486 -27.26210898 64.3570567 -27.265625 60.640625 C-27.27787109 59.95548828 -27.29011719 59.27035156 -27.30273438 58.56445312 C-27.30800033 56.77578388 -27.20012521 54.98763652 -27.078125 53.203125 C-25.078125 51.203125 -25.078125 51.203125 -22.640625 50.890625 C-20.078125 51.203125 -20.078125 51.203125 -18.44140625 52.32421875 C-16.47097809 55.03990914 -16.74110329 57.25882225 -16.703125 60.578125 C-16.44609814 64.76999946 -16.28726061 66.84557057 -14.140625 70.515625 C-9.72844767 72.94682476 -5.99848888 73.16457541 -1.078125 72.203125 C2.21131876 70.58080949 2.21131876 70.58080949 3.921875 67.203125 C4.60209717 63.53404782 4.85006946 59.93048522 4.921875 56.203125 C4.220625 56.038125 3.519375 55.873125 2.796875 55.703125 C-4.57955374 51.85455348 -8.45959136 42.38620042 -12.390625 35.390625 C-13.1959668 33.98006836 -13.1959668 33.98006836 -14.01757812 32.54101562 C-18.1939548 25.17310773 -19.96287714 19.78030544 -19.078125 11.203125 C-14.82225427 2.53375871 -9.10102801 0.04957576 0 0 Z " fill="#211F21" transform="translate(245.078125,121.796875)"/>
<path d="M0 0 C5.05591023 3.17464131 8.75499059 8.2023298 10.62109375 13.89453125 C12.08473894 22.02756999 11.74674672 30.05321618 7 37 C1.79733796 42.90479121 -3.80987772 46.30538213 -11.59765625 47.34765625 C-19.53905031 47.78326014 -25.8273181 45.62688807 -31.8515625 40.390625 C-37.66959891 34.14268442 -39.68753986 27.26682401 -39.40625 18.8046875 C-38.25979605 10.88974579 -34.05861838 5.40400251 -28.0625 0.375 C-19.70408608 -5.19727595 -8.71239927 -4.35619963 0 0 Z " fill="#232123" transform="translate(366,122)"/>
<path d="M0 0 C6.38247552 4.15739231 10.85940944 9.59386481 13.0625 16.9375 C14.16599577 25.90170024 12.12777428 32.33958859 7.1875 39.75 C1.62354226 45.47760356 -4.31165919 47.96514612 -12.1875 48.375 C-19.30838451 48.21052305 -24.76924685 45.79479497 -30.046875 41.03515625 C-36.15675315 34.45820063 -37.3631274 28.7683631 -37.1875 19.91015625 C-36.61046928 13.04890039 -34.22435613 8.46909097 -28.9375 3.9375 C-27.7309375 2.8546875 -27.7309375 2.8546875 -26.5 1.75 C-19.06924981 -3.50589648 -8.08539363 -4.16603333 0 0 Z " fill="#222022" transform="translate(171.9375,121.0625)"/>
<path d="M0 0 C9.23949268 2.97542985 13.66855904 10.55195636 17.98828125 18.76171875 C22.07147632 26.99381548 24.75611629 35.30379945 21.99609375 44.48828125 C19.31927706 50.43551834 15.16535945 54.06352252 9.27734375 56.734375 C1.33322158 59.3512623 -6.8324844 61.99995658 -15.3125 61.1875 C-17.8581686 59.32805511 -18.29378364 58.24364907 -19.3125 55.1875 C-20.89465991 37.18142908 -18.30390045 19.5588853 -8.3125 4.1875 C-4.13164648 0.23386678 -4.13164648 0.23386678 0 0 Z " fill="#211F21" transform="translate(113.3125,34.8125)"/>
<path d="M0 0 C6.59015373 5.46500553 9.67692061 12.11341877 12.1875 20.0625 C12.44724609 20.85205078 12.70699219 21.64160156 12.97460938 22.45507812 C15.40619567 29.95089842 16.20670343 36.63084908 16.25 44.5 C16.270625 45.43714844 16.29125 46.37429687 16.3125 47.33984375 C16.3411139 52.38304277 16.31763186 55.91160518 13 60 C11.46129279 61.53870721 10.08925942 61.28160143 7.9375 61.375 C2.91222996 61.33149117 -1.48789978 60.22125363 -6.25 58.75 C-6.92297119 58.54552246 -7.59594238 58.34104492 -8.28930664 58.13037109 C-15.85766392 55.65651398 -21.25233 51.8084225 -25.25 44.8125 C-28.21946338 33.67701231 -24.06575532 23.43102405 -18.75 13.6875 C-14.72920692 7.07012564 -8.60766949 -1.20107016 0 0 Z " fill="#454045" transform="translate(402,35)"/>
</svg>
