<?xml version="1.0" encoding="UTF-8"?>
<svg version="1.1" xmlns="http://www.w3.org/2000/svg" width="512" height="512">
<path d="M0 0 C11.48038926 4.8051403 22.2767148 12.10944947 31 21 C36.19719648 19.31337129 41.32860521 17.51768922 46.42651367 15.55200195 C71.09807423 6.11867986 97.62808793 -0.07158492 124.1328125 -0.203125 C125.55233467 -0.21371445 125.55233467 -0.21371445 127.00053406 -0.22451782 C166.51652112 -0.45241099 166.51652112 -0.45241099 183 3 C183.97485352 3.19867676 184.94970703 3.39735352 185.95410156 3.60205078 C203.88079222 7.35199312 222.70467542 11.94816142 239.02734375 20.45654297 C241.041602 21.21786731 241.041602 21.21786731 243.10986328 20.21972656 C245.56178713 18.63747242 247.67595737 16.79331378 249.875 14.875 C256.12957074 9.66426071 262.81530836 5.81658142 270 2 C270.70898438 1.60683594 271.41796875 1.21367187 272.1484375 0.80859375 C275.75181654 -0.7650338 279.16928387 -0.6662115 283 0 C295.25962821 4.97981456 301.9923911 18.62356754 307.0234375 30.1171875 C311.98144971 42.0352009 316.02113047 54.40486329 318.87475586 66.98999023 C320.64458842 74.6874182 322.22807435 79.54244299 328.48046875 84.7890625 C331.55236421 87.4847103 333.94797896 90.46005131 336.4375 93.6875 C336.89962891 94.28546387 337.36175781 94.88342773 337.83789062 95.49951172 C339.23601148 97.32516116 340.62092858 99.15992612 342 101 C342.43489746 101.57943359 342.86979492 102.15886719 343.31787109 102.75585938 C349.82249568 111.48789238 355.61830759 120.53802355 361 130 C361.36448242 130.63180176 361.72896484 131.26360352 362.10449219 131.91455078 C383.71034998 169.66282572 393.47698095 212.42939997 393.3125 255.625 C393.31034485 256.64290619 393.3081897 257.66081238 393.30596924 258.70956421 C393.25629854 273.31863523 393.00540191 287.65075853 390 302 C389.70198486 303.46228027 389.70198486 303.46228027 389.39794922 304.95410156 C379.27732806 353.3359774 357.3608123 397.32428269 323 433 C322.36787598 433.65935547 321.73575195 434.31871094 321.08447266 434.99804688 C311.94002521 444.48630305 302.64265991 453.2262044 292 461 C290.84894983 461.85806152 289.69790823 462.71613451 288.546875 463.57421875 C280.35724019 469.61177396 271.85461724 474.99457302 263 480 C262.29278809 480.4021875 261.58557617 480.804375 260.85693359 481.21875 C237.72154164 494.2441741 212.55037591 502.99301461 186.5625 508.3125 C185.84360596 508.45985596 185.12471191 508.60721191 184.3840332 508.7590332 C169.70839502 511.54840125 155.18331162 512.34892619 140.27270508 512.31567383 C137.33311513 512.3125221 134.3945442 512.33604926 131.45507812 512.36132812 C118.08193808 512.40598737 105.18583289 511.20051542 92 509 C90.29444946 508.71781616 90.29444946 508.71781616 88.55444336 508.42993164 C45.28697241 500.65794532 4.23706784 480.67095309 -29 452 C-29.74507813 451.36578125 -30.49015625 450.7315625 -31.2578125 450.078125 C-44.76279833 438.26698485 -57.43418743 425.51639772 -68 411 C-68.85649066 409.85005169 -69.71326433 408.70031411 -70.5703125 407.55078125 C-76.61034209 399.36065742 -81.99367614 390.85620382 -87 382 C-87.4021875 381.29278809 -87.804375 380.58557617 -88.21875 379.85693359 C-101.2441741 356.72154164 -109.99301461 331.55037591 -115.3125 305.5625 C-115.45985596 304.84360596 -115.60721191 304.12471191 -115.7590332 303.3840332 C-118.73289088 287.73774391 -119.37300362 272.26431954 -119.3125 256.375 C-119.31034485 255.35709381 -119.3081897 254.33918762 -119.30596924 253.29043579 C-119.25629854 238.68136477 -119.00540191 224.34924147 -116 210 C-115.80132324 209.02514648 -115.60264648 208.05029297 -115.39794922 207.04589844 C-106.3637595 163.85773457 -87.85343825 120.07395988 -56.96875 87.77734375 C-56.47181641 87.25624023 -55.97488281 86.73513672 -55.46289062 86.19824219 C-54.09592862 84.78656648 -52.70503145 83.39817812 -51.3125 82.01171875 C-48.36867742 78.17778765 -47.27633959 74.61429211 -46 70 C-45.71979004 69.02796631 -45.43958008 68.05593262 -45.15087891 67.05444336 C-44.52950534 64.89492918 -43.91223304 62.73423164 -43.29858398 60.57250977 C-29.62982483 12.78430772 -29.62982483 12.78430772 -12.625 1.5 C-7.97230239 -0.42525418 -4.94388339 -1.15738311 0 0 Z " fill="#DA4A54" transform="translate(119,0)"/>
<path d="M0 0 C1.23105469 0.15984375 2.46210938 0.3196875 3.73046875 0.484375 C22.97282631 3.48529061 42.03750328 10.50862543 59 20 C60.72089844 20.90105469 60.72089844 20.90105469 62.4765625 21.8203125 C103.71122632 44.06655325 133.87398693 84.09727848 147.71875 128.375 C157.76900934 162.1459194 158.00553306 198.17176917 148 232 C147.80067871 232.6894873 147.60135742 233.37897461 147.39599609 234.08935547 C139.1242168 262.21595217 124.0995084 286.78019113 104 308 C103.13117188 308.93328125 102.26234375 309.8665625 101.3671875 310.828125 C75.30290251 338.24563472 39.8363791 355.02836449 3 362 C1.85144531 362.226875 0.70289063 362.45375 -0.48046875 362.6875 C-46.3703193 370.29180205 -95.56653236 357.82503154 -133.3125 331.0625 C-166.05190086 307.17373631 -188.53215026 276.10067396 -202 238 C-202.4125 236.84757813 -202.825 235.69515625 -203.25 234.5078125 C-208.72278028 218.04671556 -210.65600642 201.33826133 -210.46655273 184.06860352 C-210.43733171 181.17081124 -210.44606591 178.27483356 -210.45898438 175.37695312 C-210.44599687 164.20734573 -209.49724029 153.89345431 -207 143 C-206.70047549 141.47472901 -206.4040709 139.94883535 -206.11328125 138.421875 C-196.14613859 92.71887939 -165.89654657 52.29096129 -127 27 C-121.15680685 23.36373208 -115.14468936 20.0952827 -109 17 C-108.2894043 16.64067383 -107.57880859 16.28134766 -106.84667969 15.91113281 C-88.33410808 6.72679802 -68.45163518 1.51292033 -48 -1 C-47.11183594 -1.13019531 -46.22367188 -1.26039062 -45.30859375 -1.39453125 C-30.33001093 -3.34825944 -14.88069263 -2.13428261 0 0 Z " fill="#EEE6E3" transform="translate(284,79)"/>
<path d="M0 0 C1.59224425 4.01123072 0.32138121 7.45907068 -0.75 11.4375 C-2.86853313 19.82119063 -4.12960739 28.20704118 -5.27734375 36.76953125 C-6.03990318 42.43890361 -6.9859619 48.0712126 -7.99829102 53.70092773 C-8.51497543 56.66356116 -8.97920874 59.53672816 -9.11425781 62.54589844 C-9.48139099 70.37340209 -11.98728614 76.06719527 -15.5 83 C-30.43404912 113.96300911 -38.45733617 146.94695247 -38.375 181.3125 C-38.37478851 182.1350528 -38.37457703 182.95760559 -38.37435913 183.80508423 C-38.31933363 205.40924412 -35.42774276 226.33240329 -29 247 C-28.76474609 247.77263184 -28.52949219 248.54526367 -28.28710938 249.34130859 C-20.32218674 275.04867432 -7.66661537 298.91043398 9 320 C9.76441406 320.969375 10.52882813 321.93875 11.31640625 322.9375 C15.6064738 328.28012219 20.04501617 333.27138599 25 338 C30 343 30 343 31.7109375 344.8515625 C59.07443542 373.68283425 98.85986929 391.78066081 137.0625 400.6875 C138.35474487 400.99143677 138.35474487 400.99143677 139.6730957 401.30151367 C152.86345092 404.25667597 165.70529572 405.31201075 179.1706543 405.20581055 C181.56374809 405.18749045 183.9564524 405.1853024 186.34960938 405.18554688 C200.05685306 405.15642384 213.39762274 404.43155064 226.875 401.75 C228.00703857 401.52675049 229.13907715 401.30350098 230.30541992 401.07348633 C239.10819751 399.28425276 247.54169477 397.04563617 256 394 C256.77021484 393.73380859 257.54042969 393.46761719 258.33398438 393.19335938 C278.5440899 386.18233608 297.69252576 376.61633132 315 364 C315.5583252 363.59571777 316.11665039 363.19143555 316.69189453 362.77490234 C324.96770531 356.73152446 332.60772064 350.08906663 340 343 C340.79688232 342.24396484 340.79688232 342.24396484 341.60986328 341.47265625 C383.98940608 301.09440461 406.14886273 244.73084099 408.3203125 186.7890625 C408.70272453 170.21416883 407.13765943 154.2658121 404 138 C403.81808105 137.05688965 403.63616211 136.1137793 403.44873047 135.14208984 C399.75636507 116.73305806 393.59251515 99.08017438 384.76171875 82.5078125 C381.1496718 75.31575449 379.44313068 68.796626 378.5 60.8125 C378.24924817 58.85149206 377.99793222 56.89055618 377.74609375 54.9296875 C377.62218262 53.9406543 377.49827148 52.95162109 377.37060547 51.93261719 C375.65690599 38.37203869 373.52493588 24.94686728 370.8671875 11.5390625 C370.11371215 7.70421036 369.5116906 3.87422884 369 0 C373.63953817 3.80062663 377.8130837 7.73498107 381.6875 12.3125 C382.19514893 12.91006104 382.70279785 13.50762207 383.22583008 14.12329102 C393.04757183 25.88550305 401.45762282 38.680629 409 52 C409.54237305 52.94117676 409.54237305 52.94117676 410.09570312 53.90136719 C431.70669318 91.6538992 441.47700596 134.42283072 441.3125 177.625 C441.31034485 178.64290619 441.3081897 179.66081238 441.30596924 180.70956421 C441.25629854 195.31863523 441.00540191 209.65075853 438 224 C437.70198486 225.46228027 437.70198486 225.46228027 437.39794922 226.95410156 C427.27732806 275.3359774 405.3608123 319.32428269 371 355 C370.36787598 355.65935547 369.73575195 356.31871094 369.08447266 356.99804688 C359.94002521 366.48630305 350.64265991 375.2262044 340 383 C338.84894983 383.85806152 337.69790823 384.71613451 336.546875 385.57421875 C328.35724019 391.61177396 319.85461724 396.99457302 311 402 C310.29278809 402.4021875 309.58557617 402.804375 308.85693359 403.21875 C285.72154164 416.2441741 260.55037591 424.99301461 234.5625 430.3125 C233.84360596 430.45985596 233.12471191 430.60721191 232.3840332 430.7590332 C217.70839502 433.54840125 203.18331162 434.34892619 188.27270508 434.31567383 C185.33311513 434.3125221 182.3945442 434.33604926 179.45507812 434.36132812 C166.08193808 434.40598737 153.18583289 433.20051542 140 431 C138.29444946 430.71781616 138.29444946 430.71781616 136.55444336 430.42993164 C93.28697241 422.65794532 52.23706784 402.67095309 19 374 C18.25492187 373.36578125 17.50984375 372.7315625 16.7421875 372.078125 C3.23720167 360.26698485 -9.43418743 347.51639772 -20 333 C-20.85649066 331.85005169 -21.71326433 330.70031411 -22.5703125 329.55078125 C-28.61034209 321.36065742 -33.99367614 312.85620382 -39 304 C-39.4021875 303.29278809 -39.804375 302.58557617 -40.21875 301.85693359 C-53.2441741 278.72154164 -61.99301461 253.55037591 -67.3125 227.5625 C-67.45985596 226.84360596 -67.60721191 226.12471191 -67.7590332 225.3840332 C-70.73289088 209.73774391 -71.37300362 194.26431954 -71.3125 178.375 C-71.31034485 177.35709381 -71.3081897 176.33918762 -71.30596924 175.29043579 C-71.25629854 160.68136477 -71.00540191 146.34924147 -68 132 C-67.80132324 131.02514648 -67.60264648 130.05029297 -67.39794922 129.04589844 C-57.26977217 80.62790149 -35.18300228 35.18300228 0 0 Z " fill="#FED839" transform="translate(71,78)"/>
<path d="M0 0 C24.09601847 10.16294656 40.69745644 28.83863558 52 52 C52.69222656 51.75354736 53.38445312 51.50709473 54.09765625 51.25317383 C76.6030458 43.3121664 99.02388905 36.7200317 123.0625 36.9375 C124.50399414 36.94426758 124.50399414 36.94426758 125.97460938 36.95117188 C128.31647422 36.96282294 130.65820181 36.97917975 133 37 C133 37.33 133 37.66 133 38 C132.43418213 38.08451416 131.86836426 38.16902832 131.28540039 38.25610352 C107.68990675 41.86454806 85.62682909 47.83172323 64 58 C63.29085449 58.32581055 62.58170898 58.65162109 61.85107422 58.98730469 C38.85230946 69.59873571 19.26454631 84.61922206 1 102 C0.22398438 102.72316406 -0.55203125 103.44632812 -1.3515625 104.19140625 C-7.97926908 110.54978907 -13.48881611 117.68219602 -19 125 C-19.62841797 125.82129395 -19.62841797 125.82129395 -20.26953125 126.65917969 C-44.07983189 157.89602648 -59.1809119 195.92469859 -63 235 C-63.11214844 236.06734375 -63.22429688 237.1346875 -63.33984375 238.234375 C-65.01675324 257.0708925 -64.58749668 276.2739169 -62 295 C-61.89236328 295.78020508 -61.78472656 296.56041016 -61.67382812 297.36425781 C-55.29689396 340.36352855 -33.82916181 381.69242492 -4 413 C-3.41508789 413.61746094 -2.83017578 414.23492187 -2.22753906 414.87109375 C35.82275068 454.78899811 86.36847825 477.68077967 141 483 C141 483.33 141 483.66 141 484 C102.16192952 485.23885392 65.22690878 476.47224798 31 458 C29.2675 457.07960938 29.2675 457.07960938 27.5 456.140625 C12.81329381 448.0629366 -0.46543727 438.08248955 -13 427 C-13.91652344 426.2059375 -14.83304687 425.411875 -15.77734375 424.59375 C-20.28253479 420.63731155 -24.44372699 416.59216397 -28.3046875 412.00390625 C-30.06368174 409.92472642 -31.90257115 407.93825797 -33.75 405.9375 C-42.66123773 395.90372263 -50.41086631 384.67250316 -57 373 C-57.44988281 372.20658203 -57.89976563 371.41316406 -58.36328125 370.59570312 C-66.5804584 355.92836712 -72.91499893 341.01966503 -78 325 C-78.26393555 324.17081055 -78.52787109 323.34162109 -78.79980469 322.48730469 C-80.48316511 317.04648389 -81.84075827 311.57514886 -83 306 C-83.29197266 304.60031982 -83.29197266 304.60031982 -83.58984375 303.17236328 C-92.91239851 256.18638264 -86.33728953 207.00169479 -65.6862793 163.89013672 C-60.76959654 153.58904963 -57.68322529 145.44682366 -57 134 C-56.61352578 130.20196633 -56.15512748 126.41381098 -55.6875 122.625 C-55.56294434 121.60422363 -55.43838867 120.58344727 -55.31005859 119.53173828 C-53.82819158 107.89211619 -51.46786381 96.46404507 -49 85 C-48.80148438 84.04851074 -48.60296875 83.09702148 -48.3984375 82.11669922 C-35.10949373 18.4294362 -35.10949373 18.4294362 -13.625 2.4375 C-8.90066545 -0.37649122 -5.38536199 -1.43822724 0 0 Z " fill="#C32530" transform="translate(119,0)"/>
<path d="M0 0 C31.54898795 -1.08016024 61.2810042 5.48982033 89 21 C90.14726562 21.60070312 91.29453125 22.20140625 92.4765625 22.8203125 C133.71122632 45.06655325 163.87398693 85.09727848 177.71875 129.375 C187.76900934 163.1459194 188.00553306 199.17176917 178 233 C177.80067871 233.6894873 177.60135742 234.37897461 177.39599609 235.08935547 C169.1242168 263.21595217 154.0995084 287.78019113 134 309 C133.13117188 309.93328125 132.26234375 310.8665625 131.3671875 311.828125 C104.53740473 340.05087618 62.13516433 362.82941049 22.59130859 364.07592773 C20.05999789 364.09767775 17.53125969 364.08777371 15 364.0625 C14.12988281 364.05798828 13.25976562 364.05347656 12.36328125 364.04882812 C10.24215707 364.0371736 8.1210689 364.01924357 6 364 C6 363.67 6 363.34 6 363 C7.09054687 362.76925781 8.18109375 362.53851563 9.3046875 362.30078125 C60.30707939 351.35741089 102.32302206 326.8152888 132.3828125 283.5234375 C134.88001485 279.62683673 137.06515367 275.5596116 139.2265625 271.46875 C141.27001523 268.62411977 142.7068978 268.00652958 146 267 C146.33 266.67 146.66 266.34 147 266 C146.8453125 264.2365625 146.8453125 264.2365625 146.6875 262.4375 C146.63620907 257.77735266 147.92701404 253.96334218 149.625 249.6875 C155.77844444 234.02636617 159.65427579 218.95874582 161.70751953 202.20410156 C161.85044434 201.05264648 161.99336914 199.90119141 162.140625 198.71484375 C162.25954102 197.68480225 162.37845703 196.65476074 162.50097656 195.59350586 C163 193 163 193 165 190 C165.66 190 166.32 190 167 190 C168.79840245 186.1783948 169.61508797 183.2177461 169 179 C166.666508 176.16588845 166.666508 176.16588845 164 174 C162.05486895 172.05486895 162.45399367 168.42269574 162.1875 165.75 C160.06369037 146.70278101 156.35126892 127.75640978 148.296875 110.23828125 C147.01389715 107.03470101 146.67236752 104.97239026 146.8125 101.5625 C146.85310547 100.26505859 146.85310547 100.26505859 146.89453125 98.94140625 C146.92933594 98.30074219 146.96414063 97.66007812 147 97 C146.11441406 96.83757812 145.22882813 96.67515625 144.31640625 96.5078125 C139.62601373 94.37531366 138.33792999 91.28330247 135.9375 86.875 C113.41931766 48.08015109 74.91012822 19.65574032 31.92480469 7.54248047 C30.01066804 7.00300665 28.1029274 6.44100633 26.1953125 5.87890625 C17.49016505 3.40852657 8.97674539 1.96770589 0 1 C0 0.67 0 0.34 0 0 Z " fill="#FEFDFD" transform="translate(254,78)"/>
<path d="M0 0 C1.01790619 0.00215515 2.03581238 0.0043103 3.08456421 0.00653076 C17.69363523 0.05620146 32.02575853 0.30709809 46.375 3.3125 C47.34985352 3.51117676 48.32470703 3.70985352 49.32910156 3.91455078 C61.19565864 6.39682181 72.79667921 9.59080747 84.3125 13.375 C85.75870728 13.84909302 85.75870728 13.84909302 87.23413086 14.33276367 C93.56785221 16.49235173 99.46694692 19.17442321 105.375 22.3125 C103.96881608 25.24120273 102.57890659 27.29429819 100.3125 29.625 C94.11462964 36.51296937 89.45183219 45.02991499 85.375 53.3125 C84.67528076 53.0858667 83.97556152 52.8592334 83.25463867 52.62573242 C80.02475659 51.58123259 76.79364096 50.5405987 73.5625 49.5 C72.46228516 49.14357422 71.36207031 48.78714844 70.22851562 48.41992188 C49.69957594 41.81917136 28.98010675 37.6964927 7.375 37.3125 C6.03139404 37.2818042 6.03139404 37.2818042 4.66064453 37.25048828 C-24.71623276 36.64688798 -51.76187809 41.67860347 -79.4621582 51.54394531 C-81.17627212 52.15304686 -82.89923289 52.7372443 -84.625 53.3125 C-85.181875 52.27351563 -85.73875 51.23453125 -86.3125 50.1640625 C-91.46802787 40.68876172 -96.82605213 31.89613949 -104.625 24.3125 C-103.625 21.3125 -103.625 21.3125 -102.05639648 20.34863281 C-101.37649658 20.07374023 -100.69659668 19.79884766 -99.99609375 19.515625 C-99.22072266 19.20012695 -98.44535156 18.88462891 -97.64648438 18.55957031 C-96.79376953 18.23053711 -95.94105469 17.90150391 -95.0625 17.5625 C-94.17498047 17.21541992 -93.28746094 16.86833984 -92.37304688 16.51074219 C-78.3505794 11.1635209 -63.88979854 7.00438274 -49.1875 4 C-48.46884766 3.85272461 -47.75019531 3.70544922 -47.00976562 3.55371094 C-31.36344722 0.5790992 -15.88942807 -0.06050404 0 0 Z " fill="#FED839" transform="translate(255.625,-0.3125)"/>
<path d="M0 0 C10.20977516 8.68819913 15.17468595 17.66320841 16.5625 31.02734375 C16.99760418 41.86284147 13.55260683 51.00378333 6.24609375 58.98046875 C-1.57613424 67.31588466 -9.98621805 72.03921921 -21.51025391 72.51928711 C-35.00947257 72.65425147 -43.58155326 68.52132173 -53.47265625 59.39453125 C-60.93039018 51.59435035 -64.17328646 40.39835767 -64.03125 29.79296875 C-62.87807414 18.09879097 -56.94067062 7.94466162 -47.96484375 0.55078125 C-33.58354334 -9.66349926 -14.45482839 -10.60020749 0 0 Z " fill="#FDFDFD" transform="translate(356.75390625,187.01953125)"/>
<path d="M0 0 C8.76099891 6.47235194 15.50095087 14.44484221 17.53515625 25.421875 C18.39024245 38.78084457 17.47660696 49.71097596 8.5078125 60.35546875 C0.53674096 68.70536349 -8.08299872 73.36598886 -19.69116211 73.94384766 C-30.80970005 74.14763228 -39.24343721 71.46540863 -47.83984375 64.171875 C-56.98096491 55.29486328 -61.46952521 46.27346465 -61.90234375 33.484375 C-61.6135296 21.91925174 -57.34035543 13.46367475 -49.39453125 5.29296875 C-36.06134929 -7.32012847 -15.78228075 -10.10466152 0 0 Z " fill="#FDFDFD" transform="translate(200.46484375,185.578125)"/>
<path d="M0 0 C7.64006617 5.55194519 13.81034977 12.3455008 15.71484375 21.8125 C17.13403275 32.69942934 15.28192164 41.77010704 8.875 50.8125 C2.71088366 58.19356634 -5.62892691 62.34614769 -15.12109375 63.3203125 C-26.3193887 63.88452013 -34.60922451 60.3471467 -43 53 C-50.33934911 44.00337851 -53.07620237 35.56917548 -52 24 C-50.36195926 14.5266644 -45.43949085 7.26703612 -37.94921875 1.3203125 C-27.1409361 -6.00072865 -11.27346211 -6.99190333 0 0 Z " fill="#464146" transform="translate(274,231)"/>
<path d="M0 0 C18 18 36 36 54 54 C54.47123291 53.59442871 54.94246582 53.18885742 55.42797852 52.77099609 C56.05115967 52.23555176 56.67434082 51.70010742 57.31640625 51.1484375 C57.93201416 50.61911621 58.54762207 50.08979492 59.18188477 49.54443359 C61.4159457 47.64666678 63.69760111 45.81401125 66 44 C68.86818404 52.10104646 70.96294614 60.36402595 73.0625 68.6875 C73.59083908 70.77691784 74.12019741 72.86605749 74.65220642 74.95454407 C75.13261608 76.8410709 75.60950621 78.72849297 76.08618164 80.6159668 C76.95413163 83.99233098 76.95413163 83.99233098 78.11499023 87.19067383 C79 90 79 90 79 94 C73.0640355 93.49973957 67.57788727 92.51248838 61.875 90.8125 C60.32344709 90.36534292 58.77133161 89.92013465 57.21875 89.4765625 C55.97738281 89.12126465 55.97738281 89.12126465 54.7109375 88.75878906 C49.61718342 87.3330517 44.4951857 86.0145297 39.375 84.6875 C38.34874512 84.42106689 37.32249023 84.15463379 36.26513672 83.88012695 C33.8437379 83.2521965 31.42204551 82.62543058 29 82 C30.50946511 78.81913482 32.07941825 76.70130094 34.625 74.25 C35.25664062 73.63640625 35.88828125 73.0228125 36.5390625 72.390625 C37.26222656 71.70226562 37.26222656 71.70226562 38 71 C36.42122567 67.1760508 34.00498287 64.76357901 31.09130859 61.86425781 C30.59358444 61.36624161 30.09586029 60.8682254 29.58305359 60.3551178 C27.9428793 58.71633267 26.29574339 57.08473866 24.6484375 55.453125 C23.50742744 54.31584653 22.36685923 53.1781246 21.22671509 52.03997803 C18.22921238 49.05010021 15.22575149 46.06627809 12.2210083 43.0836792 C9.15413288 40.03728679 6.09293306 36.98520297 3.03125 33.93359375 C-2.97362783 27.95014566 -8.98481232 21.97308337 -15 16 C-14.2265625 15.38769531 -13.453125 14.77539062 -12.65625 14.14453125 C-7.49435615 9.97706107 -3.72771079 5.43180716 0 0 Z " fill="#9C9696" transform="translate(286,275)"/>
<path d="M0 0 C6.9067043 3.93560197 11.25700796 9.30730344 13.625 16.9375 C14.66739619 24.81338235 12.90775194 32.34612211 8.0625 38.6875 C2.6539932 44.38835852 -3.66962062 47.20339472 -11.5 47.5 C-16.95991732 47.25468921 -20.86192839 45.96378867 -25.375 42.9375 C-26.261875 42.380625 -27.14875 41.82375 -28.0625 41.25 C-33.67792641 35.63457359 -35.72400934 30.47870846 -36.0625 22.5 C-35.78891107 15.31469082 -34.26953904 10.26976204 -29.375 4.9375 C-20.71221452 -2.25202265 -10.6319918 -4.92072458 0 0 Z " fill="#474247" transform="translate(344.375,197.0625)"/>
<path d="M0 0 C5.52683692 5.68036017 7.59891956 10.76917525 7.9375 18.75 C7.64636247 26.81289226 5.38734515 32.40654999 -0.49609375 37.9609375 C-6.9769882 42.95512342 -13.72579849 44.09625922 -21.75 43.3125 C-27.81722177 42.01627129 -32.65722631 38.95582447 -36.75 34.3125 C-40.89919132 27.78695365 -42.7979308 21.03346142 -41.75 13.3125 C-39.16974687 5.61802317 -34.98516242 0.18093274 -27.875 -3.71484375 C-17.72106375 -8.15719086 -9.0142302 -5.53145944 0 0 Z " fill="#464146" transform="translate(195.75,200.6875)"/>
<path d="M0 0 C0.556875 0.721875 1.11375 1.44375 1.6875 2.1875 C5.38794097 6.68803631 9.42244206 10.41218432 14 14 C14.66 14.66 15.32 15.32 16 16 C11.05 20.95 6.1 25.9 1 31 C5.37372561 36.11693401 5.37372561 36.11693401 10 41 C10 41.66 10 42.32 10 43 C2.56760442 45.26140317 -4.89394628 47.40567078 -12.375 49.5 C-13.94507813 49.94279297 -13.94507813 49.94279297 -15.546875 50.39453125 C-35.5487679 56 -35.5487679 56 -40 56 C-38.58929845 48.30487148 -36.68954769 40.79330589 -34.625 33.25 C-34.31554443 32.10998535 -34.00608887 30.9699707 -33.68725586 29.79541016 C-31.52269972 21.84492696 -29.31493704 13.90817002 -27 6 C-23.78475695 7.40844718 -21.67816132 9.10344786 -19.25 11.625 C-18.63640625 12.25664062 -18.0228125 12.88828125 -17.390625 13.5390625 C-16.93171875 14.02117187 -16.4728125 14.50328125 -16 15 C-11.97492612 13.39379474 -9.28210481 10.54433659 -6.3125 7.5 C-5.81427734 7.00113281 -5.31605469 6.50226563 -4.80273438 5.98828125 C-2.06240704 3.24846654 -2.06240704 3.24846654 0 0 Z " fill="#9C9696" transform="translate(225,275)"/>
<path d="M0 0 C2.71028458 1.20457092 4.39840052 2.1516646 6.11791992 4.57641602 C7.42769482 8.17512495 7.3051176 11.74544512 7.30078125 15.52734375 C7.30506638 16.3532753 7.3093515 17.17920685 7.31376648 18.03016663 C7.31950066 19.77425216 7.32001676 21.51836161 7.31567383 23.26245117 C7.31251515 25.92473324 7.33597905 28.58590221 7.36132812 31.24804688 C7.36360141 32.9453111 7.36430448 34.64257831 7.36328125 36.33984375 C7.372491 37.13269272 7.38170074 37.92554169 7.39118958 38.74241638 C7.35309137 43.31447821 6.96233826 46.2921899 4 50 C0.33091443 52.44605705 -2.73618769 52.83946402 -7 52 C-9.69105198 49.82425584 -11.45532928 48.08934144 -13 45 C-13.12344964 42.21434013 -13.18841652 39.45468587 -13.203125 36.66796875 C-13.20882507 35.83920731 -13.21452515 35.01044586 -13.22039795 34.15657043 C-13.22985248 32.40053587 -13.23638373 30.64448353 -13.24023438 28.88842773 C-13.24992406 26.20850404 -13.2809359 23.52935247 -13.3125 20.84960938 C-13.31903173 19.14323372 -13.32428154 17.43685258 -13.328125 15.73046875 C-13.3404718 14.93134567 -13.3528186 14.1322226 -13.36553955 13.30888367 C-13.34724985 8.71402702 -12.98542601 5.72391232 -10 2 C-6.27420911 -0.48386059 -4.41288598 -0.3804212 0 0 Z " fill="#757070" transform="translate(259,376)"/>
<path d="M0 0 C0.82876144 -0.00570007 1.65752289 -0.01140015 2.51139832 -0.01727295 C4.26743288 -0.02672748 6.02348522 -0.03325873 7.77954102 -0.03710938 C10.45946471 -0.04679906 13.13861628 -0.0778109 15.81835938 -0.109375 C17.52473503 -0.11590673 19.23111617 -0.12115654 20.9375 -0.125 C21.73662308 -0.1373468 22.53574615 -0.1496936 23.35908508 -0.16241455 C27.95394173 -0.14412485 30.94405643 0.21769899 34.66796875 3.203125 C37.12725619 6.89205616 37.36102454 9.91953921 36.66796875 14.203125 C34.54348605 17.64625214 33.51944234 18.91930047 29.66796875 20.203125 C24.1319219 20.48108846 18.59608191 20.51656414 13.05371094 20.55322266 C11.2166681 20.56979308 9.37969003 20.59709759 7.54296875 20.63525391 C4.88898417 20.6900686 2.23650588 20.71190036 -0.41796875 20.7265625 C-1.64475845 20.76056656 -1.64475845 20.76056656 -2.89633179 20.79525757 C-7.2312691 20.77922805 -8.82554781 20.6103433 -12.32666016 17.79541016 C-15.24272834 14.02589323 -15.88455496 11.9916638 -15.33203125 7.203125 C-11.20070767 0.52826264 -7.3849334 0.03897818 0 0 Z " fill="#767170" transform="translate(103.33203125,249.796875)"/>
<path d="M0 0 C0.80419373 -0.00807175 1.60838745 -0.01614349 2.43695068 -0.02445984 C4.1417017 -0.03830173 5.84648045 -0.04902342 7.55126953 -0.05688477 C10.14800244 -0.07406085 12.74344976 -0.11793959 15.33984375 -0.16210938 C16.99738648 -0.1722398 18.65494003 -0.18075481 20.3125 -0.1875 C21.47063202 -0.21376213 21.47063202 -0.21376213 22.65216064 -0.24055481 C27.85790952 -0.21980182 30.79718558 0.79286543 34.921875 4.23828125 C37.26096807 7.74692085 37.33478557 9.10917558 36.921875 13.23828125 C35.71505203 15.89329178 34.74130491 17.65120024 32.35913086 19.35791016 C28.69162018 20.68266659 25.02859599 20.56371978 21.17578125 20.57421875 C19.90358986 20.58420395 19.90358986 20.58420395 18.60569763 20.59439087 C16.81454635 20.60450147 15.02335752 20.60920838 13.23217773 20.60888672 C10.49725118 20.61326066 7.76393813 20.64959749 5.02929688 20.6875 C3.28646384 20.69336843 1.54362315 20.69733765 -0.19921875 20.69921875 C-1.42130287 20.7207753 -1.42130287 20.7207753 -2.66807556 20.74276733 C-6.66699179 20.71070779 -8.61243298 20.53455818 -12.07055664 18.33447266 C-15.15273398 15.11623423 -15.46999235 12.74504204 -15.4375 8.27734375 C-14.8348948 4.85821427 -12.71026433 3.30639073 -10.078125 1.23828125 C-6.90767019 -0.34694616 -3.48368653 0.03298418 0 0 Z " fill="#767070" transform="translate(387.078125,249.76171875)"/>
<path d="M0 0 C5.11649578 0.23420579 8.03920714 0.81704821 11.71875 4.7265625 C13.33097277 7.95100804 12.92438786 11.47908145 12.95703125 15.0234375 C12.965103 15.84982727 12.97317474 16.67621704 12.98149109 17.52764893 C12.99533371 19.27947898 13.00605507 21.03133602 13.01391602 22.78320312 C13.03109417 25.45234946 13.07497289 28.12024581 13.11914062 30.7890625 C13.12927082 32.4921784 13.1377859 34.19530483 13.14453125 35.8984375 C13.16203934 36.69239929 13.17954742 37.48636108 13.19758606 38.30438232 C13.17716681 43.56615262 12.20811292 46.55150628 8.71875 50.7265625 C5.51457279 52.3286511 2.19535568 52.21941465 -1.28125 51.7265625 C-4.72437714 49.6020798 -5.99742547 48.57803609 -7.28125 44.7265625 C-7.55892482 39.35126999 -7.59470651 33.97627503 -7.63134766 28.59448242 C-7.64790055 26.81277397 -7.67518208 25.03113174 -7.71337891 23.24975586 C-7.76830714 20.6726662 -7.79004393 18.09712838 -7.8046875 15.51953125 C-7.82735687 14.72870651 -7.85002625 13.93788177 -7.87338257 13.12309265 C-7.85781749 9.02350911 -7.49757312 6.47714684 -4.89111328 3.22241211 C-2.28125 0.7265625 -2.28125 0.7265625 0 0 Z " fill="#757070" transform="translate(253.28125,92.2734375)"/>
<path d="M0 0 C2 2 2 2 2.37890625 4.43359375 C2 7 2 7 0.27734375 8.66015625 C-0.49480469 9.12292969 -1.26695312 9.58570313 -2.0625 10.0625 C-2.88492188 10.56136719 -3.70734375 11.06023437 -4.5546875 11.57421875 C-5.36164063 12.04472656 -6.16859375 12.51523437 -7 13 C-7.96292969 13.62841797 -7.96292969 13.62841797 -8.9453125 14.26953125 C-12.7418321 16.67853359 -15.51734259 17.62548708 -20 17 C-22 15 -22 15 -22.37890625 12.56640625 C-22 10 -22 10 -20.27734375 8.33984375 C-19.50519531 7.87707031 -18.73304687 7.41429687 -17.9375 6.9375 C-17.11507812 6.43863281 -16.29265625 5.93976563 -15.4453125 5.42578125 C-14.63835937 4.95527344 -13.83140625 4.48476563 -13 4 C-12.03707031 3.37158203 -12.03707031 3.37158203 -11.0546875 2.73046875 C-7.2581679 0.32146641 -4.48265741 -0.62548708 0 0 Z " fill="#777272" transform="translate(132,329)"/>
<path d="M0 0 C0.33 1.98 0.66 3.96 1 6 C-2.51348995 8.91283818 -6.09650637 11.44750067 -10 13.8125 C-11.010625 14.43769531 -12.02125 15.06289062 -13.0625 15.70703125 C-16.354336 17.15596438 -17.66363665 17.22217477 -21 16 C-23 14 -23 14 -23.10546875 11.18359375 C-21.4823634 6.50927977 -18.54943989 5.29543112 -14.3125 3.0625 C-13.24999023 2.44665039 -13.24999023 2.44665039 -12.16601562 1.81835938 C-7.74740365 -0.60106528 -5.04407157 -1.53308002 0 0 Z " fill="#777272" transform="translate(401,175)"/>
<path d="M0 0 C5.60960359 0.37444457 9.60041838 1.95407747 14.375 4.6875 C15.00277344 5.01427734 15.63054687 5.34105469 16.27734375 5.67773438 C19.53067043 7.51519642 20.85321562 8.52865256 21.98046875 12.1484375 C22 15 22 15 20.9375 16.9375 C18.00444022 18.54595214 16.21089904 17.79037515 13 17 C10.64293626 15.75294883 8.47347748 14.5064825 6.25 13.0625 C5.67378906 12.70220703 5.09757812 12.34191406 4.50390625 11.97070312 C2.11202794 10.45696196 0.00728803 9.00728803 -2 7 C-1.43181818 1.43181818 -1.43181818 1.43181818 0 0 Z " fill="#777272" transform="translate(112,174)"/>
<path d="M0 0 C4.50232852 0.53860608 7.41144204 2.41964908 11.17578125 4.83984375 C11.85576172 5.26072266 12.53574219 5.68160156 13.23632812 6.11523438 C18.11824157 9.15730407 18.11824157 9.15730407 19.36328125 10.40234375 C19.55078125 12.83984375 19.55078125 12.83984375 19.36328125 15.40234375 C17.36328125 17.40234375 17.36328125 17.40234375 14.69140625 17.76953125 C10.54535422 17.31210297 7.60089405 15.66276769 4.11328125 13.52734375 C3.489375 13.16253906 2.86546875 12.79773438 2.22265625 12.421875 C-0.32004043 10.91488882 -2.53939839 9.49966411 -4.63671875 7.40234375 C-4.88671875 4.90234375 -4.88671875 4.90234375 -4.63671875 2.40234375 C-2.63671875 0.40234375 -2.63671875 0.40234375 0 0 Z " fill="#777272" transform="translate(382.63671875,328.59765625)"/>
<path d="M0 0 C5.67644936 2.58020426 9.39444431 10.52342596 12.0625 15.9375 C12.5625 19.4375 12.5625 19.4375 12.0625 21.9375 C10.0625 23.9375 10.0625 23.9375 7.6875 24.375 C3.95875403 23.75354234 3.25845971 21.95229214 1.0625 18.9375 C-0.2513139 16.96546795 -1.52211727 14.96415275 -2.75 12.9375 C-3.37519531 11.926875 -4.00039063 10.91625 -4.64453125 9.875 C-5.9375 6.9375 -5.9375 6.9375 -5.82421875 4.1875 C-4.67495898 1.27131662 -3.25678721 -0.10505765 0 0 Z " fill="#777272" transform="translate(329.9375,382.0625)"/>
<path d="M0 0 C5.71428571 0.71428571 5.71428571 0.71428571 7 2 C7.76432437 7.78953749 5.57026815 11.13425668 2.5625 15.8125 C2.14162109 16.49248047 1.72074219 17.17246094 1.28710938 17.87304688 C-1.75496032 22.75496032 -1.75496032 22.75496032 -3 24 C-5.4375 24.1875 -5.4375 24.1875 -8 24 C-10 22 -10 22 -10.40234375 19.36328125 C-9.86373767 14.86095273 -7.98269467 11.95183921 -5.5625 8.1875 C-5.14162109 7.50751953 -4.72074219 6.82753906 -4.28710938 6.12695312 C-1.24503968 1.24503968 -1.24503968 1.24503968 0 0 Z " fill="#777272" transform="translate(335,114)"/>
<path d="M0 0 C3.99521345 1.64227758 5.34358072 4.606608 7.42578125 8.26171875 C7.83248047 8.92236328 8.23917969 9.58300781 8.65820312 10.26367188 C11.02654194 14.29581846 12.31775606 17.27098142 11.61328125 22.07421875 C9.61328125 24.07421875 9.61328125 24.07421875 7.1796875 24.453125 C4.61328125 24.07421875 4.61328125 24.07421875 2.953125 22.3515625 C2.49035156 21.57941406 2.02757812 20.80726563 1.55078125 20.01171875 C1.05191406 19.18929687 0.55304688 18.366875 0.0390625 17.51953125 C-0.43144531 16.71257812 -0.90195313 15.905625 -1.38671875 15.07421875 C-1.80566406 14.43226563 -2.22460938 13.7903125 -2.65625 13.12890625 C-5.05335135 9.35114229 -6.1135054 6.53876534 -5.38671875 2.07421875 C-2.38671875 0.07421875 -2.38671875 0.07421875 0 0 Z " fill="#777171" transform="translate(175.38671875,113.92578125)"/>
<path d="M0 0 C2.375 0.75 2.375 0.75 3.375 1.75 C4.00028996 7.10504739 2.21941094 10.55860912 -0.5 15 C-0.86480469 15.62390625 -1.22960937 16.2478125 -1.60546875 16.890625 C-3.11245493 19.43332168 -4.52767964 21.65267964 -6.625 23.75 C-9.125 24 -9.125 24 -11.625 23.75 C-13.625 21.75 -13.625 21.75 -13.98828125 19.04296875 C-13.54585209 15.03256249 -11.98922268 12.35236282 -9.8125 9.0625 C-9.45607422 8.49466797 -9.09964844 7.92683594 -8.73242188 7.34179688 C-3.80976729 -0.36283498 -3.80976729 -0.36283498 0 0 Z " fill="#767171" transform="translate(183.625,382.25)"/>
</svg>
