<?xml version="1.0" encoding="UTF-8"?>
<svg version="1.1" xmlns="http://www.w3.org/2000/svg" width="512" height="512">
<path d="M0 0 C1.01201477 0.00054382 2.02402954 0.00108765 3.06671143 0.00164795 C19.59530572 0.04238044 35.52913999 0.94575778 51.75 4.375 C52.79188477 4.59462402 53.83376953 4.81424805 54.90722656 5.04052734 C72.22163964 8.81719695 89.35950058 13.97960338 105.33984375 21.72265625 C108.58640933 22.60138632 109.79761597 21.93802684 112.75 20.375 C114.9372217 19.07566038 117.10285183 17.73954276 119.25 16.375 C125.50702332 12.39857396 131.0920519 8.8986028 138.75 10.375 C151.61187321 15.56087073 157.72923289 30.50519232 162.828125 42.4296875 C163.99507941 45.22373202 164.89197278 47.91073426 165.66943359 50.84448242 C168.42984374 60.8080968 172.59798882 66.46037881 180.18405151 73.39096069 C183.06476474 76.0256573 185.85954153 78.74968591 188.66796875 81.4609375 C189.21189774 81.9815123 189.75582672 82.5020871 190.3162384 83.03843689 C196.17685801 88.67487948 201.0548771 94.73678006 205.75 101.375 C206.59544703 102.51726347 207.44317698 103.65784012 208.29296875 104.796875 C214.35024877 112.99047376 219.73739151 121.50767865 224.75 130.375 C225.1521875 131.08221191 225.554375 131.78942383 225.96875 132.51806641 C240.72111537 158.72080287 250.25635806 187.66130797 254.75 217.375 C254.92660156 218.49745117 255.10320312 219.61990234 255.28515625 220.77636719 C256.9420586 232.38947743 257.14873513 243.90679945 257.125 255.625 C257.12418427 257.14302216 257.12418427 257.14302216 257.12335205 258.69171143 C257.08261956 275.22030572 256.17924222 291.15413999 252.75 307.375 C252.53037598 308.41688477 252.31075195 309.45876953 252.08447266 310.53222656 C241.98685215 356.82549311 219.62771242 399.23913721 186.75 433.375 C186.11787598 434.03435547 185.48575195 434.69371094 184.83447266 435.37304688 C175.69002521 444.86130305 166.39265991 453.6012044 155.75 461.375 C154.59894983 462.23306152 153.44790823 463.09113451 152.296875 463.94921875 C144.10724019 469.98677396 135.60461724 475.36957302 126.75 480.375 C126.04278809 480.7771875 125.33557617 481.179375 124.60693359 481.59375 C101.47154164 494.6191741 76.30037591 503.36801461 50.3125 508.6875 C49.59360596 508.83485596 48.87471191 508.98221191 48.1340332 509.1340332 C33.45839502 511.92340125 18.93331162 512.72392619 4.02270508 512.69067383 C1.08311513 512.6875221 -1.8554558 512.71104926 -4.79492188 512.73632812 C-18.16806192 512.78098737 -31.06416711 511.57551542 -44.25 509.375 C-45.95555054 509.09281616 -45.95555054 509.09281616 -47.69555664 508.80493164 C-50.2912622 508.33867402 -52.86274939 507.8199418 -55.4375 507.25 C-56.82642456 506.94304199 -56.82642456 506.94304199 -58.2434082 506.62988281 C-102.69409585 496.29405661 -143.42940564 473.98592102 -176.25 442.375 C-176.90935547 441.74287598 -177.56871094 441.11075195 -178.24804688 440.45947266 C-187.73630305 431.31502521 -196.4762044 422.01765991 -204.25 411.375 C-205.10806152 410.22394983 -205.96613451 409.07290823 -206.82421875 407.921875 C-212.86177396 399.73224019 -218.24457302 391.22961724 -223.25 382.375 C-223.6521875 381.66778809 -224.054375 380.96057617 -224.46875 380.23193359 C-239.22220851 354.02725553 -248.75170334 325.08953614 -253.25 295.375 C-253.42732666 294.25617432 -253.60465332 293.13734863 -253.78735352 291.98461914 C-255.46876341 280.26264053 -255.60734341 268.64001024 -255.5625 256.8125 C-255.55926727 255.28189438 -255.55926727 255.28189438 -255.55596924 253.72036743 C-255.50633352 239.09289476 -255.25919712 224.74236162 -252.25 210.375 C-252.05132324 209.40014648 -251.85264648 208.42529297 -251.64794922 207.42089844 C-241.44461267 158.64359968 -218.6956229 109.33190352 -181.0234375 75.55078125 C-170.60898049 66.04384556 -165.83814934 58.24945801 -162.00683594 44.7734375 C-158.26621803 32.91929869 -150.53382792 17.04448333 -139.2265625 11.12890625 C-133.98232717 9.12863467 -130.91541612 9.68220233 -125.87890625 11.77734375 C-120.69743934 14.21616964 -115.72125415 16.84543263 -111.1875 20.375 C-108.54631599 22.61666044 -108.54631599 22.61666044 -106.1171875 22.2265625 C-102.9442569 21.28419347 -99.96718106 20.0845336 -96.92016602 18.79785156 C-78.08627408 10.84868604 -58.4586554 5.43118236 -38.25 2.375 C-37.12754883 2.19839844 -36.00509766 2.02179687 -34.84863281 1.83984375 C-23.23552257 0.1829414 -11.71820055 -0.02373513 0 0 Z " fill="#EEE6E3" transform="translate(255.25,-0.375)"/>
<path d="M0 0 C1.05125565 -0.00209976 1.05125565 -0.00209976 2.12374878 -0.00424194 C22.87799245 0.02933956 43.98824676 2.98782325 63.4375 10.4375 C64.21206543 10.72496094 64.98663086 11.01242187 65.78466797 11.30859375 C94.78524421 22.1256011 122.71548994 39.13569263 142.4375 63.4375 C142.83936523 63.9217041 143.24123047 64.4059082 143.65527344 64.90478516 C150.84865792 73.59306949 156.98153973 82.56855605 162.4375 92.4375 C162.7787793 93.04223145 163.12005859 93.64696289 163.47167969 94.27001953 C172.77766296 110.93618957 178.76621167 129.56186762 181.4375 148.4375 C181.69273437 150.03851563 181.69273437 150.03851563 181.953125 151.671875 C185.02042563 175.5176638 185.02042563 175.5176638 180.25390625 182.22265625 C177.84903002 184.88770056 175.12617847 187.06210183 172.21679688 189.15332031 C170.41907278 190.45079956 168.71948548 191.8242555 167.015625 193.2421875 C163.56796324 196.08282171 160.0233458 198.77446044 156.4375 201.4375 C155.57487549 202.08332031 155.57487549 202.08332031 154.69482422 202.7421875 C145.96005391 209.25073777 136.91864384 215.07790377 127.4375 220.4375 C126.37668213 221.04078125 126.37668213 221.04078125 125.29443359 221.65625 C102.15904164 234.6816741 76.98787591 243.43051461 51 248.75 C50.28110596 248.89735596 49.56221191 249.04471191 48.8215332 249.1965332 C34.14589502 251.98590125 19.62081162 252.78642619 4.71020508 252.75317383 C1.77061513 252.7500221 -1.1679558 252.77354926 -4.10742188 252.79882812 C-17.48056192 252.84348737 -30.37666711 251.63801542 -43.5625 249.4375 C-44.69953369 249.24937744 -45.83656738 249.06125488 -47.00805664 248.86743164 C-49.6037622 248.40117402 -52.17524939 247.8824418 -54.75 247.3125 C-55.67594971 247.10786133 -56.60189941 246.90322266 -57.5559082 246.69238281 C-102.1347169 236.32676547 -142.55397607 213.96421713 -175.5625 182.4375 C-176.32433594 181.90253906 -177.08617187 181.36757813 -177.87109375 180.81640625 C-180.7650798 176.74611178 -180.10439256 172.16600303 -180 167.3125 C-179.98533691 166.23444092 -179.97067383 165.15638184 -179.95556641 164.0456543 C-179.73586891 154.61195576 -178.72651214 145.61691018 -176.5625 136.4375 C-176.36914062 135.61717285 -176.17578125 134.7968457 -175.9765625 133.95166016 C-165.19714722 89.86085738 -136.71328653 51.89863713 -98.25830078 28.00585938 C-79.92621674 17.05595402 -60.21441797 8.91263804 -39.375 4.1875 C-38.38040771 3.96090698 -38.38040771 3.96090698 -37.36572266 3.72973633 C-24.99962491 1.09767255 -12.62675796 -0.0024544 0 0 Z " fill="#9B9595" transform="translate(254.5625,259.5625)"/>
<path d="M0 0 C9.07671854 3.60462985 16.79922735 8.39840011 24 15 C24.54156738 15.49387207 25.08313477 15.98774414 25.64111328 16.49658203 C36.96797547 26.94805879 44.92843683 37.75209185 51 52 C51.56920166 51.73783691 52.13840332 51.47567383 52.72485352 51.20556641 C55.33506906 50.00688714 57.94872721 48.81590137 60.5625 47.625 C61.45775391 47.2125 62.35300781 46.8 63.27539062 46.375 C68.13308439 44.16857499 72.82106681 42.29295726 78 41 C79.79056955 42.79056955 79.66280944 45.49578361 80.05078125 47.921875 C80.2526001 49.16404785 80.45441895 50.4062207 80.66235352 51.68603516 C80.76830841 52.34855286 80.87426331 53.01107056 80.98342896 53.69366455 C81.5371844 57.15403265 82.10328758 60.61235408 82.671875 64.0703125 C82.78511612 64.75930634 82.89835724 65.44830017 83.01502991 66.15817261 C83.92855718 71.66931628 84.97012353 77.14715849 86.0625 82.625 C92.70067296 116.91602097 98.77576768 155.34171325 79.6875 186.875 C75.94075508 192.36748102 71.65663727 197.26416822 67 202 C66.32453125 202.68835938 65.6490625 203.37671875 64.953125 204.0859375 C31.76963909 235.6476741 -24.96760937 238.94346289 -68 238 C-68.28621677 231.35977099 -67.19048987 225.04126291 -66.125 218.5 C-65.75419123 216.1564107 -65.38439255 213.81266135 -65.015625 211.46875 C-64.74975586 209.78652344 -64.74975586 209.78652344 -64.47851562 208.0703125 C-63.33607197 200.74002096 -62.34655032 193.39106927 -61.578125 186.01171875 C-60.51077314 175.79211791 -59.06184068 165.67195739 -57.46142578 155.52172852 C-56.52837888 149.56301101 -55.66932273 143.61902407 -55 137.625 C-42.54915629 26.54963985 -42.54915629 26.54963985 -14.1953125 3.53515625 C-9.65496705 0.34631441 -5.55384873 -1.41568693 0 0 Z " fill="#736E6E" transform="translate(126,10)"/>
<path d="M0 0 C15.48070776 8.99664169 23.28127816 31.76089733 27.80078125 48.11328125 C28.86456613 52.33827303 29.83713098 56.58329534 30.80078125 60.83203125 C31.69302822 64.72864105 32.72906304 68.57429394 33.80078125 72.42578125 C38.05984797 88.27619034 40.51956511 104.31091931 42.49365234 120.58642578 C43.73860139 130.82905108 45.22086084 141.03325863 46.73828125 151.23828125 C46.91351318 152.41793457 47.08874512 153.59758789 47.26928711 154.81298828 C48.2379182 161.33459204 48.2379182 161.33459204 49.21142578 167.85546875 C51.75648095 184.89771559 53.77392882 202.00340018 55.80078125 219.11328125 C55.92372559 220.1492041 56.04666992 221.18512695 56.17333984 222.25244141 C56.72102171 226.87212569 57.26311318 231.49241924 57.80078125 236.11328125 C29.67601281 236.80060523 0.98828341 236.19605216 -26.19921875 228.11328125 C-26.9149707 227.90477539 -27.63072266 227.69626953 -28.36816406 227.48144531 C-54.25005634 219.83124206 -78.68500293 206.32550199 -92.21777344 182.02832031 C-111.9750446 143.47706783 -99.77133748 97.47677064 -91.66943359 57.44110107 C-90.92401355 53.75086547 -90.18656104 50.05904409 -89.44921875 46.3671875 C-89.206875 45.15490479 -88.96453125 43.94262207 -88.71484375 42.69360352 C-88.45960938 41.41634399 -88.45960938 41.41634399 -88.19921875 40.11328125 C-71.66350973 46.01744238 -71.66350973 46.01744238 -64.80078125 50.23046875 C-63.21209044 51.27419408 -63.21209044 51.27419408 -61.19921875 51.11328125 C-60.72613281 50.08589844 -60.25304687 49.05851562 -59.765625 48 C-53.50255039 34.73871799 -45.33743675 23.81974344 -34.19921875 14.11328125 C-33.53921875 14.11328125 -32.87921875 14.11328125 -32.19921875 14.11328125 C-32.02003906 13.54867188 -31.84085937 12.9840625 -31.65625 12.40234375 C-29.47106243 8.96931448 -26.36781893 7.47937763 -22.88671875 5.48828125 C-22.22220703 5.09382812 -21.55769531 4.699375 -20.87304688 4.29296875 C-14.22152608 0.39811186 -7.70539861 -3.10679482 0 0 Z " fill="#9B9595" transform="translate(396.19921875,10.88671875)"/>
<path d="M0 0 C13.80208802 11.51404134 26.44472727 24.44541852 37 39 C37.85491814 40.14884745 38.71039429 41.29727984 39.56640625 42.4453125 C45.60890768 50.63592721 50.99277903 59.14220919 56 68 C56.4021875 68.70721191 56.804375 69.41442383 57.21875 70.14306641 C71.97111537 96.34580287 81.50635806 125.28630797 86 155 C86.17660156 156.12245117 86.35320312 157.24490234 86.53515625 158.40136719 C88.1920586 170.01447743 88.39873513 181.53179945 88.375 193.25 C88.37445618 194.26201477 88.37391235 195.27402954 88.37335205 196.31671143 C88.33261956 212.84530572 87.42924222 228.77913999 84 245 C83.78037598 246.04188477 83.56075195 247.08376953 83.33447266 248.15722656 C77.78597369 273.59471864 68.5118197 297.35418553 56.0625 320.1875 C55.58973633 321.05568359 55.11697266 321.92386719 54.62988281 322.81835938 C54.18612305 323.61435547 53.74236328 324.41035156 53.28515625 325.23046875 C52.89207275 325.93582764 52.49898926 326.64118652 52.09399414 327.36791992 C51 329 51 329 49 330 C48.86948242 328.92443848 48.73896484 327.84887695 48.60449219 326.74072266 C45.62131912 301.79529197 45.62131912 301.79529197 42 276.9375 C40.2680106 266.1725333 38.86046539 255.37927491 37.5 244.5625 C36.08747367 233.33624501 34.63421962 222.12524498 32.9375 210.9375 C29.82480311 190.38591879 27.19419213 169.77903114 24.75 149.13885498 C23.54686423 139.02176382 22.11711625 128.95910277 20.50219727 118.89892578 C19.09707555 109.99729731 17.99357825 101.07314296 16.9375 92.125 C15.50785615 80.04594729 13.97236664 68.00435538 12 56 C11.85062988 55.0807373 11.70125977 54.16147461 11.54736328 53.21435547 C8.89777742 37.03439715 5.86903253 21.14052192 0.734375 5.5390625 C0 3 0 3 0 0 Z " fill="#90D7F8" transform="translate(424,62)"/>
<path d="M0 0 C1.28017196 2.56034393 0.81361779 3.2571955 -0.00390625 5.953125 C-0.24713623 6.78448975 -0.49036621 7.61585449 -0.7409668 8.47241211 C-1.14762573 9.84731812 -1.14762573 9.84731812 -1.5625 11.25 C-7.41370457 31.90100557 -11.18544399 52.97447552 -13.67333984 74.27636719 C-14.22786902 78.89993037 -14.86502959 83.51191152 -15.5 88.125 C-15.6232666 89.02895508 -15.7465332 89.93291016 -15.87353516 90.86425781 C-16.4921767 95.38366537 -17.12692531 99.9002459 -17.78515625 104.4140625 C-18.96332511 112.49619771 -20.09895358 120.56240219 -20.9375 128.6875 C-21.83056164 137.28847588 -23.14480318 145.81381295 -24.50366211 154.35229492 C-25.36935395 159.80832521 -26.18305572 165.26521415 -26.90380859 170.74243164 C-27.65813176 176.44481023 -28.42408066 182.14547188 -29.20166016 187.84472656 C-29.30746273 188.62024746 -29.4132653 189.39576836 -29.52227402 190.19478989 C-29.74484342 191.82536553 -29.96749276 193.45593027 -30.19021606 195.08648491 C-30.55131232 197.73031418 -30.91204663 200.37419264 -31.27270508 203.01808167 C-32.46054547 211.72482127 -33.64963797 220.43138884 -34.84030724 229.13774204 C-35.51898184 234.10088202 -36.19713949 239.06409252 -36.875 244.02734375 C-37.00924 245.01017019 -37.14348 245.99299664 -37.28178787 247.0056057 C-38.94861501 259.21540229 -40.59705789 271.42739541 -42.21248245 283.64410019 C-42.49479677 285.7770938 -42.77811219 287.90995165 -43.06185913 290.04275513 C-43.15202112 290.72050806 -43.24218311 291.39826099 -43.33507729 292.0965519 C-43.46771256 293.09338273 -43.46771256 293.09338273 -43.60302734 294.11035156 C-44.11166487 297.93346592 -44.61775938 301.75681335 -45.11505127 305.5814209 C-45.56216219 309.02005272 -46.01836204 312.45736259 -46.4765625 315.89453125 C-46.60313232 316.89021622 -46.72970215 317.88590118 -46.86010742 318.91175842 C-46.98184326 319.81204269 -47.1035791 320.71232697 -47.22900391 321.63989258 C-47.33048737 322.41593338 -47.43197083 323.19197418 -47.53652954 323.99153137 C-48 326 -48 326 -50 329 C-67.3007714 298.64077478 -79.47388296 267.63801236 -85 233 C-85.18618896 231.84282471 -85.37237793 230.68564941 -85.56420898 229.4934082 C-87.24034055 217.81563786 -87.35717241 206.21990747 -87.3125 194.4375 C-87.30926727 192.90689438 -87.30926727 192.90689438 -87.30596924 191.34536743 C-87.25633352 176.71789476 -87.00919712 162.36736162 -84 148 C-83.80132324 147.02514648 -83.60264648 146.05029297 -83.39794922 145.04589844 C-71.14514142 86.47105245 -41.9840554 41.50335017 0 0 Z " fill="#90D7F8" transform="translate(87,62)"/>
<path d="M0 0 C-0.05637634 0.82113533 -0.05637634 0.82113533 -0.1138916 1.65885925 C-0.50846104 7.4186262 -0.89680839 13.17878997 -1.28173828 18.93920898 C-1.42568927 21.08156676 -1.57116312 23.22382284 -1.71826172 25.3659668 C-1.9308858 28.4663731 -2.13843215 31.56707059 -2.34375 34.66796875 C-2.41159195 35.66806473 -2.4794339 36.66816071 -2.54933167 37.69856262 C-2.95505811 44.05088779 -3.05375003 50.25294499 -2.60717773 56.60888672 C-3 59 -3 59 -5.10400391 61.18164062 C-6.88497553 62.45361162 -8.72280706 63.64715877 -10.58984375 64.7890625 C-21.32479358 71.38984071 -30.54878237 82.01426039 -38 92 C-38.79664062 93.04285156 -39.59328125 94.08570313 -40.4140625 95.16015625 C-60.9580072 122.56540284 -72.25783928 154.82216662 -73.5625 189 C-73.60568359 190.06089844 -73.64886719 191.12179687 -73.69335938 192.21484375 C-73.79855996 194.80979151 -73.90070119 197.40482084 -74 200 C-85.24547467 190.6331811 -94.18019588 179.6768495 -102.65917969 167.81445312 C-103.83333765 166.22553434 -105.1015604 164.7070209 -106.3828125 163.203125 C-109.92890958 158.7253083 -111.40885434 155.27691185 -110.75862122 149.49977112 C-110.60933418 148.40933754 -110.60933418 148.40933754 -110.45703125 147.296875 C-110.35948044 146.49092392 -110.26192963 145.68497284 -110.16142273 144.854599 C-109.79505336 141.90004464 -109.3988169 138.95034875 -109 136 C-108.84136475 134.80098053 -108.68272949 133.60196106 -108.51928711 132.36660767 C-107.26347884 122.89129224 -105.9589241 113.42301792 -104.64437103 103.95569992 C-104.08429164 99.91683598 -103.52773118 95.87748774 -102.97119141 91.83813477 C-102.85983604 91.02994388 -102.74848068 90.22175299 -102.63375092 89.38907146 C-102.40866692 87.75535816 -102.18359978 86.12164253 -101.9585495 84.48792458 C-101.62150091 82.0420172 -101.28407958 79.59616148 -100.94659424 77.15031433 C-98.89154226 62.25020849 -96.87560135 47.34501653 -94.875 32.4375 C-94.65017441 30.76338547 -94.65017441 30.76338547 -94.42080688 29.05545044 C-93.61263922 23.03713161 -92.80563125 17.01865887 -92 11 C-90.7123877 10.93006836 -89.42477539 10.86013672 -88.09814453 10.78808594 C-46.96041271 8.98183187 -46.96041271 8.98183187 -6.7578125 0.734375 C-4 0 -4 0 0 0 Z " fill="#DFD7D5" transform="translate(149,237)"/>
<path d="M0 0 C1.51802216 0.00081573 1.51802216 0.00081573 3.06671143 0.00164795 C19.59530572 0.04238044 35.52913999 0.94575778 51.75 4.375 C52.79188477 4.59462402 53.83376953 4.81424805 54.90722656 5.04052734 C73.538082 9.10434314 91.6592944 14.86083462 108.75 23.375 C108.75 24.035 108.75 24.695 108.75 25.375 C107.3515625 26.71484375 107.3515625 26.71484375 105.375 28.3125 C93.61073171 38.43765507 86.52263357 49.58281393 79.75 63.375 C76.14803902 61.98511288 72.71478954 60.38729595 69.25 58.6875 C54.38411445 51.8340748 39.00398481 47.29086893 22.75 45.375 C21.64023804 45.2368689 21.64023804 45.2368689 20.50805664 45.09594727 C-14.63188512 41.1022012 -46.8726851 47.54240991 -78.25 63.375 C-78.806875 62.26382813 -79.36375 61.15265625 -79.9375 60.0078125 C-87.12277886 45.89925942 -95.94291806 35.34286948 -107.25 24.375 C-90.73530401 9.99123253 -59.24995371 5.55085148 -38.25 2.375 C-37.12754883 2.19839844 -36.00509766 2.02179687 -34.84863281 1.83984375 C-23.23552257 0.1829414 -11.71820055 -0.02373513 0 0 Z " fill="#90D7F8" transform="translate(255.25,-0.375)"/>
<path d="M0 0 C-0.55791816 18.78202919 -1.47774396 37.50674233 -2.8125 56.25 C-2.89959229 57.48537506 -2.98668457 58.72075012 -3.07641602 59.99356079 C-9.10944336 144.7916435 -9.10944336 144.7916435 -25 174 C-29.99335381 174.66391034 -32.82237195 172.44600195 -36.625 169.5625 C-37.23891602 169.1094751 -37.85283203 168.6564502 -38.48535156 168.18969727 C-47.7471588 161.29621152 -56.56725754 153.88590933 -65 146 C-65.91007812 145.31808594 -66.82015625 144.63617188 -67.7578125 143.93359375 C-71.17983327 139.45635055 -70.66332015 135.29398613 -70.5 129.8125 C-70.4808252 128.73895264 -70.46165039 127.66540527 -70.44189453 126.55932617 C-70.1827771 117.15616459 -69.15738672 108.15130615 -67 99 C-66.80664062 98.17967285 -66.61328125 97.3593457 -66.4140625 96.51416016 C-60.73727032 73.29450326 -30.82859598 0 0 0 Z " fill="#736E6E" transform="translate(145,297)"/>
<path d="M0 0 C0.33 0 0.66 0 1 0 C1.14099121 0.82612793 1.28198242 1.65225586 1.42724609 2.50341797 C1.95916473 5.61607862 2.49235686 8.72851789 3.02636719 11.84082031 C3.36749597 13.831216 3.70720152 15.82185544 4.046875 17.8125 C5.45101847 25.99102157 5.45101847 25.99102157 7.03125 34.13671875 C13.62834784 66.55406881 17.61855509 103.25339624 -0.3125 132.875 C-4.05924492 138.36748102 -8.34336273 143.26416822 -13 148 C-13.67546875 148.68835938 -14.3509375 149.37671875 -15.046875 150.0859375 C-24.5776486 159.15092141 -43.23613275 172 -57 172 C-57.33678288 163.84237032 -56.22114137 155.92888416 -55.08349609 147.87402344 C-54.75484669 145.5345016 -54.4412381 143.19331125 -54.12890625 140.8515625 C-52.95731006 132.31468436 -51.46204436 123.97324046 -49.28265381 115.6307373 C-48.27063127 111.66470636 -47.68838344 108.09422097 -48 104 C-49.30968795 102.36655067 -49.30968795 102.36655067 -51.1875 101.25 C-56.55282269 97.14710618 -58.90610886 91.28167343 -61 85 C-61.86761931 76.32380695 -60.5145849 69.88910078 -55.421875 62.8046875 C-51.97386385 58.59562884 -48.28030902 54.72878445 -43 53 C-41.96617187 52.9690625 -40.93234375 52.938125 -39.8671875 52.90625 C-35.77942911 52.65469564 -32.38458424 52.37079011 -29 50 C-25.0945143 44.90788833 -22.64818855 38.91531646 -19.9609375 33.125 C-17.31869647 27.4476328 -14.18707341 22.42505664 -10.5 17.375 C-10.00741699 16.69614746 -9.51483398 16.01729492 -9.00732422 15.31787109 C-6.97134352 12.55329765 -4.88823396 9.86447417 -2.703125 7.21484375 C-0.82266399 4.76938184 -0.34685833 3.03501035 0 0 Z " fill="#9B9595" transform="translate(206,64)"/>
<path d="M0 0 C1.20629059 -0.00855011 1.20629059 -0.00855011 2.43695068 -0.01727295 C4.14171024 -0.02672801 5.84648811 -0.03325894 7.55126953 -0.03710938 C10.14779044 -0.04678525 12.7435097 -0.07779063 15.33984375 -0.109375 C16.99739114 -0.11590819 18.65494419 -0.12115742 20.3125 -0.125 C21.08458801 -0.1373468 21.85667603 -0.1496936 22.65216064 -0.16241455 C28.14537472 -0.13995019 32.40104274 0.84994904 36.56640625 4.73828125 C41.13968016 10.71871637 41.87396564 14.69951959 40.921875 22.203125 C39.40612272 26.49276388 37.20679091 30.27903028 34.921875 34.203125 C34.11575875 35.65676069 33.31116256 37.11124001 32.5078125 38.56640625 C31.64810494 40.0924278 30.7861307 41.61717465 29.921875 43.140625 C29.31786865 44.2236792 29.31786865 44.2236792 28.70166016 45.32861328 C26.00160807 49.96299871 23.34943275 53.12910053 18.921875 56.203125 C17.931875 56.203125 16.941875 56.203125 15.921875 56.203125 C16.03675248 57.78722494 16.16422008 59.37041463 16.296875 60.953125 C16.40128906 62.27570313 16.40128906 62.27570313 16.5078125 63.625 C16.93010307 66.2543564 17.49238269 67.96650438 18.921875 70.203125 C23.1477535 73.02037733 26.95812188 73.00270884 31.921875 72.203125 C34.74611788 70.01289582 36.33696103 68.37295293 37.921875 65.203125 C38.19758979 62.12212159 38.36851033 59.04141024 38.54296875 55.953125 C38.921875 53.203125 38.921875 53.203125 40.921875 51.203125 C43.70379529 50.84646855 45.25772647 50.7137524 47.5546875 52.40625 C50.34160092 56.06905049 49.42407541 60.84311237 48.921875 65.203125 C46.96476293 73.35775863 43.1158927 77.96529578 36.1171875 82.328125 C30.17359525 84.69710127 22.58798663 84.34384938 16.78125 81.859375 C14.38974984 80.41080919 12.13177945 78.91401877 9.921875 77.203125 C9.261875 77.80125 8.601875 78.399375 7.921875 79.015625 C2.44585845 83.00855373 -3.2433671 85.14585023 -10.078125 84.203125 C-17.42415643 81.67243475 -22.23612997 77.97978044 -26.078125 71.203125 C-27.26840838 67.63227486 -27.26210898 64.3570567 -27.265625 60.640625 C-27.27787109 59.95548828 -27.29011719 59.27035156 -27.30273438 58.56445312 C-27.30800033 56.77578388 -27.20012521 54.98763652 -27.078125 53.203125 C-25.078125 51.203125 -25.078125 51.203125 -22.640625 50.890625 C-20.078125 51.203125 -20.078125 51.203125 -18.44921875 52.35546875 C-16.53991908 54.92839965 -16.67314013 56.90303606 -16.578125 60.078125 C-16.43963057 64.68306488 -15.82322026 67.44880354 -13.078125 71.203125 C-9.340193 73.072091 -5.14913453 72.73440455 -1.078125 72.203125 C2.21131876 70.58080949 2.21131876 70.58080949 3.921875 67.203125 C4.60209717 63.53404782 4.85006946 59.93048522 4.921875 56.203125 C4.220625 56.038125 3.519375 55.873125 2.796875 55.703125 C-4.57955374 51.85455348 -8.45959136 42.38620042 -12.390625 35.390625 C-13.1959668 33.98006836 -13.1959668 33.98006836 -14.01757812 32.54101562 C-18.1939548 25.17310773 -19.96287714 19.78030544 -19.078125 11.203125 C-14.82225427 2.53375871 -9.10102801 0.04957576 0 0 Z " fill="#474247" transform="translate(245.078125,121.796875)"/>
<path d="M0 0 C5.69094483 4.38422574 9.68891354 10.62645313 11.0703125 17.71484375 C12.14350665 26.75782396 9.0442991 35.01666584 3.55078125 42.18359375 C-2.16979281 48.10038803 -9.48471712 50.7432221 -17.5546875 51.21484375 C-25.39410667 51.06858593 -31.85850512 48.07479548 -37.875 43.109375 C-43.31219998 37.35796497 -46.10041202 30.00007599 -46.4296875 22.15234375 C-46.02566354 12.89889184 -41.63456461 5.91475103 -34.9296875 -0.28515625 C-24.21301038 -8.04241626 -10.70644885 -7.13040824 0 0 Z " fill="#FBFBFB" transform="translate(190.9296875,121.28515625)"/>
<path d="M0 0 C6.23242887 4.73424886 9.55980357 10.67941072 12 18 C12.94584057 27.3188555 11.11077113 35.18043895 5.5 42.75 C-0.38326376 48.95765424 -8.14079909 52.32689642 -16.625 52.6875 C-24.87591957 52.28187925 -32.07716989 48.74862922 -38 43 C-44.0882373 34.9983167 -45.0184747 26.66593161 -44.28564453 16.92089844 C-43.25967483 10.02147142 -38.2090119 4.31283957 -32.828125 0.18359375 C-22.96216247 -6.20398455 -10.05273386 -5.99978306 0 0 Z " fill="#FCFBFC" transform="translate(355,120)"/>
<path d="M0 0 C8.4102935 6.7282348 11.23713398 15.97405388 14 26 C14.53947266 27.57201172 14.53947266 27.57201172 15.08984375 29.17578125 C16.32313651 34.35772808 16.36826334 39.31651519 16.375 44.625 C16.39949219 45.64851563 16.42398438 46.67203125 16.44921875 47.7265625 C16.46687356 52.24619417 16.45723621 55.18019763 14.2265625 59.1796875 C11.10539113 61.73138199 9.50629094 61.59151521 5.62109375 61.35546875 C-4.0097059 60.04935434 -15.29730012 57.60160424 -22 50 C-26.43995287 43.34007069 -27.00275102 37.35924073 -25.53515625 29.515625 C-22.72156475 19.06038558 -16.59626062 6.42996881 -6.91015625 0.78125 C-4.31950249 -0.27832209 -2.77775019 -0.47425003 0 0 Z " fill="#595454" transform="translate(402,35)"/>
<path d="M0 0 C8.60968326 2.58290498 12.90387773 9.21150606 17.08374023 16.78881836 C21.54887646 25.28508995 25.03045886 34.76826548 22.05859375 44.35546875 C19.49390086 50.07505583 15.90293617 53.75809263 10.1640625 56.24609375 C7.38017858 57.28719006 4.58195319 58.22392398 1.75 59.125 C0.574375 59.5375 -0.60125 59.95 -1.8125 60.375 C-6.2516885 61.34355022 -10.73706728 61.85874605 -15.25 61.125 C-17.73095322 59.21958322 -18.23623032 58.16630905 -19.25 55.125 C-21.04075177 37.60076597 -18.35536391 19.9195374 -8.7421875 4.90234375 C-6.03079276 1.6728029 -4.28124039 0.16466309 0 0 Z " fill="#595454" transform="translate(113.25,34.875)"/>
<path d="M0 0 C4.47487408 2.66819594 8.82986593 5.74009519 10.4140625 10.9453125 C11.53038255 16.48594687 11.64669591 21.33194642 8.83984375 26.37109375 C5.91059487 30.48188839 2.69860907 32.70658949 -2.16015625 34.05859375 C-7.16987639 34.80192162 -10.89219013 34.68061486 -15.47265625 32.43359375 C-23.71060135 25.15354924 -23.71060135 25.15354924 -24.16015625 20.05859375 C-24.28390625 18.82109375 -24.40765625 17.58359375 -24.53515625 16.30859375 C-24.46039464 11.29956567 -22.35630571 7.81240471 -19.16015625 4.05859375 C-13.46616443 -0.38271987 -7.00055835 -3.05087624 0 0 Z " fill="#484348" transform="translate(345.16015625,126.94140625)"/>
<path d="M0 0 C4.03425011 2.41585908 6.18073012 5.99299302 8.015625 10.20703125 C8.80099119 15.81678974 8.27767644 20.47179528 5.015625 25.20703125 C0.47909217 29.77573807 -3.08104676 32.31301785 -9.671875 32.58203125 C-15.24036393 32.50886862 -18.87728851 30.94504776 -22.984375 27.20703125 C-26.64995418 23.03406965 -27.58996083 18.89523988 -27.30078125 13.41015625 C-26.57961903 8.38873045 -24.8555144 4.70178015 -21.046875 1.39453125 C-13.72539116 -3.83510007 -8.15347712 -3.92420752 0 0 Z " fill="#474347" transform="translate(182.984375,128.79296875)"/>
<path d="M0 0 C0.8559375 0.00902344 1.711875 0.01804688 2.59375 0.02734375 C3.2228125 0.03894531 3.851875 0.05054688 4.5 0.0625 C1.4124014 1.73009453 -1.64103747 2.75224366 -5 3.75 C-17.39622476 7.87204561 -26.3371296 15.07833807 -35.5 24.0625 C-37.77474277 20.65038584 -38.06629644 18.4056471 -38.625 14.375 C-38.79257813 13.19550781 -38.96015625 12.01601563 -39.1328125 10.80078125 C-39.25398437 9.89714844 -39.37515625 8.99351563 -39.5 8.0625 C-33.88529253 5.82937771 -28.4043099 4.19695177 -22.5 2.9375 C-21.74460938 2.76863281 -20.98921875 2.59976563 -20.2109375 2.42578125 C-13.50703725 0.96290267 -6.8872726 -0.09565656 0 0 Z " fill="#DED8D6" transform="translate(243.5,42.9375)"/>
<path d="M0 0 C0.66 0.33 1.32 0.66 2 1 C-1.3 4.3 -4.6 7.6 -8 11 C-8 7.0234755 -6.61988497 5.9109833 -4 3 C-1.75 1.1875 -1.75 1.1875 0 0 Z " fill="#908A8A" transform="translate(114,12)"/>
</svg>
