<?xml version="1.0" encoding="UTF-8"?>
<svg version="1.1" xmlns="http://www.w3.org/2000/svg" width="512" height="512">
<path d="M0 0 C1.41952217 -0.01058945 1.41952217 -0.01058945 2.86772156 -0.02139282 C42.38370862 -0.24928599 42.38370862 -0.24928599 58.8671875 3.203125 C59.84204102 3.40180176 60.81689453 3.60047852 61.82128906 3.80517578 C80.77670168 7.77030832 100.17365847 12.96761602 117.59765625 21.5859375 C120.74323544 22.44136179 122.00081505 21.70721849 124.8671875 20.203125 C127.0544092 18.90378538 129.22003933 17.56766776 131.3671875 16.203125 C137.62421082 12.22669896 143.2092394 8.7267278 150.8671875 10.203125 C163.72906071 15.38899573 169.84642039 30.33331732 174.9453125 42.2578125 C176.11226691 45.05185702 177.00916028 47.73885926 177.78662109 50.67260742 C180.54703124 60.6362218 184.71517632 66.28850381 192.30123901 73.21908569 C195.18195224 75.8537823 197.97672903 78.57781091 200.78515625 81.2890625 C201.32908524 81.8096373 201.87301422 82.3302121 202.4334259 82.86656189 C208.29404551 88.50300448 213.1720646 94.56490506 217.8671875 101.203125 C218.71263453 102.34538847 219.56036448 103.48596512 220.41015625 104.625 C226.46807033 112.82019549 231.83090047 121.3484329 236.8671875 130.203125 C237.23166992 130.83492676 237.59615234 131.46672852 237.97167969 132.11767578 C259.57753748 169.86595072 269.34416845 212.63252497 269.1796875 255.828125 C269.17753235 256.84603119 269.1753772 257.86393738 269.17315674 258.91268921 C269.12348604 273.52176023 268.87258941 287.85388353 265.8671875 302.203125 C265.56917236 303.66540527 265.56917236 303.66540527 265.26513672 305.15722656 C255.14451556 353.5391024 233.2279998 397.52740769 198.8671875 433.203125 C198.23506348 433.86248047 197.60293945 434.52183594 196.95166016 435.20117188 C187.80721271 444.68942805 178.50984741 453.4293294 167.8671875 461.203125 C166.71613733 462.06118652 165.56509573 462.91925951 164.4140625 463.77734375 C156.22442769 469.81489896 147.72180474 475.19769802 138.8671875 480.203125 C138.15997559 480.6053125 137.45276367 481.0075 136.72412109 481.421875 C113.58872914 494.4472991 88.41756341 503.19613961 62.4296875 508.515625 C61.71079346 508.66298096 60.99189941 508.81033691 60.2512207 508.9621582 C45.57558252 511.75152625 31.05049912 512.55205119 16.13989258 512.51879883 C13.20030263 512.5156471 10.2617317 512.53917426 7.32226562 512.56445312 C-6.05087442 512.60911237 -18.94697961 511.40364042 -32.1328125 509.203125 C-33.83836304 508.92094116 -33.83836304 508.92094116 -35.57836914 508.63305664 C-38.1740747 508.16679902 -40.74556189 507.6480668 -43.3203125 507.078125 C-44.70923706 506.77116699 -44.70923706 506.77116699 -46.1262207 506.45800781 C-90.57690835 496.12218161 -131.31221814 473.81404602 -164.1328125 442.203125 C-164.79216797 441.57100098 -165.45152344 440.93887695 -166.13085938 440.28759766 C-175.61911555 431.14315021 -184.3590169 421.84578491 -192.1328125 411.203125 C-192.99087402 410.05207483 -193.84894701 408.90103323 -194.70703125 407.75 C-200.74458646 399.56036519 -206.12738552 391.05774224 -211.1328125 382.203125 C-211.535 381.49591309 -211.9371875 380.78870117 -212.3515625 380.06005859 C-225.3769866 356.92466664 -234.12582711 331.75350091 -239.4453125 305.765625 C-239.59266846 305.04673096 -239.74002441 304.32783691 -239.8918457 303.5871582 C-242.86570338 287.94086891 -243.50581612 272.46744454 -243.4453125 256.578125 C-243.44315735 255.56021881 -243.4410022 254.54231262 -243.43878174 253.49356079 C-243.38911104 238.88448977 -243.13821441 224.55236647 -240.1328125 210.203125 C-239.93413574 209.22827148 -239.73545898 208.25341797 -239.53076172 207.24902344 C-229.32742517 158.47172468 -206.5784354 109.16002852 -168.90625 75.37890625 C-158.49179299 65.87197056 -153.72096184 58.07758301 -149.88964844 44.6015625 C-146.14903053 32.74742369 -138.41664042 16.87260833 -127.109375 10.95703125 C-121.86513967 8.95675967 -118.79822862 9.51032733 -113.76171875 11.60546875 C-108.58868957 14.04300729 -103.6768607 16.572129 -99.3203125 20.328125 C-96.46719917 22.46801186 -96.46719917 22.46801186 -94.25927734 21.8815918 C-93.56527832 21.62031494 -92.8712793 21.35903809 -92.15625 21.08984375 C-90.96020142 20.65188477 -90.96020142 20.65188477 -89.73999023 20.20507812 C-88.87962158 19.87443359 -88.01925293 19.54378906 -87.1328125 19.203125 C-85.29832655 18.51913024 -83.46368421 17.83555482 -81.62890625 17.15234375 C-80.65324707 16.78641113 -79.67758789 16.42047852 -78.67236328 16.04345703 C-59.28124042 8.8370284 -39.65327125 3.8369108 -19.1328125 1.203125 C-18.13200401 1.07213158 -18.13200401 1.07213158 -17.11097717 0.93849182 C-11.39460774 0.24225009 -5.75538618 0.02856336 0 0 Z " fill="#FED839" transform="translate(243.1328125,-0.203125)"/>
<path d="M0 0 C7.74095161 3.65265682 14.39958052 7.89544566 20.734375 13.703125 C21.27594238 14.19699707 21.81750977 14.69086914 22.37548828 15.19970703 C33.70235047 25.65118379 41.66281183 36.45521685 47.734375 50.703125 C48.88550781 50.12304688 50.03664062 49.54296875 51.22265625 48.9453125 C71.65826932 38.8402183 93.56631847 31.59006158 116.59375 31.5703125 C117.66124481 31.56887741 117.66124481 31.56887741 118.75030518 31.56741333 C120.23929941 31.56673858 121.72829672 31.56854315 123.21728516 31.57275391 C125.49257978 31.57814444 127.7676799 31.57276864 130.04296875 31.56640625 C131.49739627 31.56706653 132.95182366 31.56834667 134.40625 31.5703125 C136.37223145 31.57200439 136.37223145 31.57200439 138.37792969 31.57373047 C141.05619053 31.67698027 143.20230348 31.89571651 145.734375 32.703125 C146.71363061 50.46573365 144.36380234 69.05056437 138.796875 85.953125 C138.5685498 86.64841309 138.34022461 87.34370117 138.10498047 88.06005859 C135.96637694 93.99376475 133.04393331 99.16341946 127.734375 102.703125 C123.57067239 102.79565172 121.94440502 101.87815001 118.734375 99.203125 C106.20051244 82.8959792 105.27028532 56.4246246 104.734375 36.703125 C97.49758919 39.36630972 97.49758919 39.36630972 92.734375 44.953125 C92.4710915 46.75222889 92.26506377 48.56019333 92.1015625 50.37109375 C90.98049353 60.54419835 87.71124083 72.01015858 80.734375 79.703125 C77.84575791 81.14743355 75.93789799 81.08001006 72.734375 80.703125 C69.8072623 78.24168932 67.85354714 75.88188322 65.734375 72.703125 C61.48426584 78.83260966 57.73584238 85.08643262 54.296875 91.703125 C53.82459473 92.60796631 53.35231445 93.51280762 52.86572266 94.44506836 C45.50653065 108.57471868 45.50653065 108.57471868 40.734375 123.703125 C41.48460937 123.78949219 42.23484375 123.87585938 43.0078125 123.96484375 C53.31727067 125.38012201 62.64780304 128.76546965 69.734375 136.703125 C76.24442728 145.56232351 80.19640387 155.61470378 78.734375 166.703125 C75.90570933 178.8967516 70.37938172 187.97812894 59.734375 194.703125 C51.33584949 199.8179027 41.28454056 199.8966088 31.734375 198.703125 C28.27158676 197.71008808 25.85085064 196.54992538 22.734375 194.703125 C22.67378906 195.72792969 22.61320313 196.75273437 22.55078125 197.80859375 C22.46632474 199.16928195 22.38167933 200.52995843 22.296875 201.890625 C22.25755859 202.56416016 22.21824219 203.23769531 22.17773438 203.93164062 C22.00509902 206.6539674 21.817129 209.3095903 21.25512695 211.98217773 C20.61604295 215.32141415 20.35033742 218.61769266 20.0859375 222.0078125 C20.02883102 222.74001007 19.97172455 223.47220764 19.91288757 224.22659302 C19.72408618 226.67679785 19.54120631 229.12739354 19.359375 231.578125 C19.29567719 232.42407227 19.23197937 233.27001953 19.16635132 234.14160156 C17.28419781 259.3031143 16.03248833 284.50607102 14.734375 309.703125 C15.30833511 309.82697067 15.88229523 309.95081635 16.47364807 310.07841492 C21.10867965 311.09123745 25.6920276 312.1910555 30.26171875 313.47265625 C42.64514788 316.89379833 54.98303818 320.15814787 67.609375 322.578125 C68.59800537 322.76866455 69.58663574 322.9592041 70.60522461 323.15551758 C73.64265679 323.71437275 76.68434003 324.21787613 79.734375 324.703125 C80.83515381 324.88931396 81.93593262 325.07550293 83.07006836 325.26733398 C95.27716502 327.08678924 107.4896191 327.04058993 119.8112793 327.01879883 C123.50144725 327.0156636 127.19079136 327.03908252 130.88085938 327.06445312 C151.94533563 327.121472 173.03031395 325.76796822 193.609375 321.015625 C194.73883545 320.76433838 195.8682959 320.51305176 197.03198242 320.25415039 C214.30050637 316.31971536 231.45468012 311.67265515 248.1875 305.859375 C278.84977929 295.8637421 278.84977929 295.8637421 289.734375 297.703125 C293.13939445 300.01853823 294.45214806 301.3547074 295.296875 305.390625 C291.77063654 326.15625148 272.28366991 343.4211551 256.14038086 355.3449707 C232.9626493 371.79323491 206.4090579 383.3682747 178.859375 390.078125 C177.88693848 390.31668213 176.91450195 390.55523926 175.91259766 390.80102539 C160.88503348 394.27713892 146.22309536 395.02902755 130.86279297 394.96386719 C127.87056098 394.95316501 124.87893244 394.96381507 121.88671875 394.9765625 C105.66810985 394.98918223 90.07533561 393.97663335 74.37890625 389.69140625 C71.27779119 388.85048223 68.183814 388.14085562 65.046875 387.453125 C46.513784 382.78218336 28.19167927 374.34302355 11.734375 364.703125 C10.695179 367.820713 10.52572142 370.24018478 10.359375 373.515625 C9.70966163 383.644763 8.18410386 393.66276389 6.734375 403.703125 C8.21550781 403.88294922 8.21550781 403.88294922 9.7265625 404.06640625 C13.88105672 404.6630291 17.83114637 405.73138681 21.859375 406.890625 C22.63724365 407.10984619 23.4151123 407.32906738 24.21655273 407.55493164 C28.38411179 408.732837 32.54334461 409.93782512 36.69921875 411.15625 C46.18523911 413.92754993 55.69950839 416.53076267 65.296875 418.890625 C66.23990479 419.12837646 67.18293457 419.36612793 68.15454102 419.61108398 C85.88651255 423.88152508 103.11399649 425.16951654 121.32568359 425.03930664 C124.86188495 425.01560818 128.39733229 425.01878673 131.93359375 425.02539062 C148.70469019 425.00574504 164.91705498 424.16906541 181.296875 420.328125 C182.75697998 419.99615112 182.75697998 419.99615112 184.24658203 419.6574707 C186.18925331 419.2143857 188.13102987 418.76735487 190.07177734 418.31591797 C192.40970781 417.77784668 194.75070169 417.26637192 197.09765625 416.76953125 C205.57407011 414.93643391 213.74407577 412.4672909 221.984375 409.765625 C255.95425085 398.66306166 255.95425085 398.66306166 266.734375 400.703125 C267.724375 401.363125 268.714375 402.023125 269.734375 402.703125 C270.92716611 410.92013041 268.12255539 416.8253239 263.734375 423.703125 C260.92927858 427.24640469 257.91627663 430.4973889 254.734375 433.703125 C253.93 434.54875 253.125625 435.394375 252.296875 436.265625 C251.45125 437.07 250.605625 437.874375 249.734375 438.703125 C249.07566406 439.34507812 248.41695313 439.98703125 247.73828125 440.6484375 C230.53482991 456.86318474 208.95618572 467.27158568 186.734375 474.703125 C185.61933594 475.09113281 184.50429688 475.47914063 183.35546875 475.87890625 C168.23133006 480.88165455 152.62938148 483.42814676 136.734375 483.703125 C135.77837402 483.72358887 134.82237305 483.74405273 133.83740234 483.76513672 C120.67676134 484.01414963 107.72914837 483.94140097 94.734375 481.703125 C93.98526855 481.57421875 93.23616211 481.4453125 92.46435547 481.3125 C57.87604208 475.12655449 27.12402881 459.73381883 0.734375 436.703125 C-1.40846649 438.84596649 -1.92993966 440.13409916 -2.921875 442.94921875 C-3.22222656 443.78646484 -3.52257812 444.62371094 -3.83203125 445.48632812 C-4.14011719 446.36224609 -4.44820313 447.23816406 -4.765625 448.140625 C-5.37652217 449.86979629 -5.99096705 451.59771931 -6.609375 453.32421875 C-6.87943359 454.0917749 -7.14949219 454.85933105 -7.42773438 455.65014648 C-8.265625 457.703125 -8.265625 457.703125 -10.265625 460.703125 C-21.04190197 456.9055809 -30.70226464 448.03760434 -39.265625 440.703125 C-40.01585938 440.06503906 -40.76609375 439.42695313 -41.5390625 438.76953125 C-55.03448054 426.95528304 -67.70261195 414.21567645 -78.265625 399.703125 C-79.12211566 398.55317669 -79.97888933 397.40343911 -80.8359375 396.25390625 C-86.87596709 388.06378242 -92.25930114 379.55932882 -97.265625 370.703125 C-97.6678125 369.99591309 -98.07 369.28870117 -98.484375 368.56005859 C-111.5097991 345.42466664 -120.25863961 320.25350091 -125.578125 294.265625 C-125.72548096 293.54673096 -125.87283691 292.82783691 -126.0246582 292.0871582 C-128.99851588 276.44086891 -129.63862862 260.96744454 -129.578125 245.078125 C-129.57596985 244.06021881 -129.5738147 243.04231262 -129.57159424 241.99356079 C-129.52192354 227.38448977 -129.27102691 213.05236647 -126.265625 198.703125 C-126.06694824 197.72827148 -125.86827148 196.75341797 -125.66357422 195.74902344 C-115.46023767 146.97172468 -92.7112479 97.66002852 -55.0390625 63.87890625 C-44.62460549 54.37197056 -39.85377434 46.57758301 -36.02246094 33.1015625 C-32.28184303 21.24742369 -24.54945292 5.37260833 -13.2421875 -0.54296875 C-8.07635994 -2.51333381 -4.98961125 -1.98152026 0 0 Z " fill="#FEB43B" transform="translate(129.265625,11.296875)"/>
<path d="M0 0 C5.9487348 2.51318872 10.08836061 7.74315975 14.5625 12.25 C15.05899048 12.74798096 15.55548096 13.24596191 16.0670166 13.7590332 C23.67775222 21.41104112 30.70712065 29.2219666 37 38 C37.85019038 39.14555087 38.70178501 40.29006071 39.5546875 41.43359375 C45.60520862 49.62727013 50.96643048 58.15008578 56 67 C56.36448242 67.63180176 56.72896484 68.26360352 57.10449219 68.91455078 C78.71034998 106.66282572 88.47698095 149.42939997 88.3125 192.625 C88.30926727 194.15185928 88.30926727 194.15185928 88.30596924 195.70956421 C88.25629854 210.31863523 88.00540191 224.65075853 85 239 C84.80132324 239.97485352 84.60264648 240.94970703 84.39794922 241.95410156 C77.93990437 272.82694218 66.5898407 300.69253473 51 328 C50.34 327.67 49.68 327.34 49 327 C48.46923828 324.91577148 48.46923828 324.91577148 48.0703125 322.12109375 C47.91691406 321.07115234 47.76351562 320.02121094 47.60546875 318.93945312 C47.44691406 317.78380859 47.28835938 316.62816406 47.125 315.4375 C46.95355469 314.23673828 46.78210938 313.03597656 46.60546875 311.79882812 C45.20761233 301.8658849 43.96640067 291.91386856 42.75054932 281.95724487 C41.63009541 272.78371654 40.3939145 263.63667393 39 254.5 C37.50252756 244.68453613 36.2012895 234.85508552 35 225 C33.81604133 215.29125104 32.5401002 205.60691574 31.0625 195.9375 C29.23393321 183.96474122 27.69236471 171.96398457 26.17852783 159.94842529 C24.87696584 149.63429603 23.50681144 139.34008874 21.9375 129.0625 C20.57591006 120.13387399 19.35772361 111.1948221 18.25210571 102.2310791 C17.99998524 100.18738036 17.74570193 98.14396028 17.4909668 96.10058594 C16.68297723 89.60362879 15.89510103 83.10500677 15.140625 76.6015625 C12.02813436 50.65950878 6.02107845 25.39141628 0 0 Z " fill="#90D8F8" transform="translate(424,63)"/>
<path d="M0 0 C1.25147509 3.57805706 0.73192331 5.91677071 -0.2578125 9.53125 C-0.55429688 10.6553125 -0.85078125 11.779375 -1.15625 12.9375 C-1.77673169 15.21927138 -2.39896494 17.50056761 -3.0234375 19.78125 C-9.47407175 44.27179361 -12.46048197 69.5564362 -15.78353882 94.6187439 C-16.37117434 99.03942893 -16.96614946 103.45912622 -17.56054688 107.87890625 C-18.42793807 114.33241236 -19.29346451 120.78616271 -20.15645218 127.24025917 C-21.6819689 138.64769177 -23.22274157 150.0529957 -24.7734375 161.45703125 C-24.88634251 162.28739773 -24.99924751 163.11776421 -25.11557388 163.9732933 C-25.68373515 168.15125318 -26.25217268 172.32917541 -26.82073975 176.50708008 C-27.84118945 184.00643111 -28.8592251 191.50610999 -29.87744522 199.00576401 C-30.33312872 202.36194978 -30.78891558 205.71812151 -31.24470329 209.07429314 C-32.58577093 218.9491971 -33.92662598 228.82412994 -35.26745605 238.69906616 C-36.14766751 245.18163643 -37.02791952 251.66420118 -37.90818024 258.14676476 C-38.50628503 262.55145183 -39.10436722 266.95614198 -39.70239258 271.36083984 C-39.81582253 272.1962348 -39.92925247 273.03162975 -40.04611969 273.89233971 C-40.27021219 275.54294754 -40.49424769 277.19356312 -40.71822357 278.84418678 C-41.24726338 282.74231289 -41.7773142 286.64029501 -42.30993652 290.53793335 C-43.19818489 297.04412966 -44.07668561 303.55092252 -44.90625 310.06494141 C-45.04071533 311.10395096 -45.17518066 312.14296051 -45.3137207 313.2134552 C-45.55324766 315.07173497 -45.78671713 316.93081161 -46.01245117 318.79081726 C-46.49712822 322.51862235 -46.88216556 324.82324835 -49 328 C-72.99988263 285.88523963 -86.49758354 241.98120309 -86.3125 193.375 C-86.31034485 192.35709381 -86.3081897 191.33918762 -86.30596924 190.29043579 C-86.25629854 175.68136477 -86.00540191 161.34924147 -83 147 C-82.80132324 146.02514648 -82.60264648 145.05029297 -82.39794922 144.04589844 C-70.27854375 86.10878554 -41.58917555 41.07921584 0 0 Z " fill="#90D8F8" transform="translate(86,63)"/>
<path d="M0 0 C1.01790619 0.00215515 2.03581238 0.0043103 3.08456421 0.00653076 C17.69363523 0.05620146 32.02575853 0.30709809 46.375 3.3125 C47.34985352 3.51117676 48.32470703 3.70985352 49.32910156 3.91455078 C69.52533293 8.13924036 89.96708786 13.8209203 108.375 23.3125 C108.375 23.9725 108.375 24.6325 108.375 25.3125 C106.94140625 26.6875 106.94140625 26.6875 104.9375 28.3125 C93.56035321 38.0643401 85.72844714 49.81142483 79.375 63.3125 C76.4246677 62.19754884 73.58612074 60.94808044 70.765625 59.54296875 C60.86701428 54.63510279 51.07004837 51.05344876 40.375 48.3125 C39.7054126 48.1357373 39.0358252 47.95897461 38.34594727 47.77685547 C-0.69071672 37.66266158 -43.35571423 44.97559258 -78.625 63.3125 C-79.181875 62.20132813 -79.73875 61.09015625 -80.3125 59.9453125 C-87.49777886 45.83675942 -96.31791806 35.28036948 -107.625 24.3125 C-105.71016178 20.48282355 -100.38956633 19.6050963 -96.5625 18.125 C-95.53406982 17.72643799 -94.50563965 17.32787598 -93.44604492 16.91723633 C-79.03719787 11.44849594 -64.28913714 7.09116984 -49.1875 4 C-48.46860596 3.85264404 -47.74971191 3.70528809 -47.0090332 3.5534668 C-31.36274391 0.57960912 -15.88931954 -0.06050362 0 0 Z " fill="#90D7F8" transform="translate(255.625,-0.3125)"/>
<path d="M0 0 C8.65399132 5.24600359 15.27025503 12.33305569 18.45703125 22.078125 C21.07051651 33.4512919 20.35461812 44.03983662 14.10546875 54.0859375 C8.22237475 62.12302473 0.49697757 68.36716419 -9.3515625 70.60546875 C-20.5411895 72.05034292 -29.85530585 71.14506881 -39.3515625 64.60546875 C-40.10953125 64.09886719 -40.8675 63.59226562 -41.6484375 63.0703125 C-49.12634094 57.34943524 -53.65850628 47.74797233 -55.3515625 38.60546875 C-56.40975826 27.31163395 -53.02642893 17.68895443 -46.3515625 8.60546875 C-34.89002655 -4.2325752 -15.26059397 -7.4630576 0 0 Z " fill="#FDFDFB" transform="translate(359.3515625,139.39453125)"/>
<path d="M0 0 C8.60643166 6.86562223 13.53927306 17.09363081 14.9453125 27.890625 C15.45989472 38.28186604 11.38467732 48.63688191 4.62890625 56.4609375 C-4.18310551 64.98541721 -13.38830205 68.1999391 -25.47412109 68.13598633 C-35.85650749 67.65522026 -44.10672242 63.21101193 -51.43359375 55.8359375 C-57.73464065 48.0889414 -61.23297618 39.10464405 -60.65234375 29.07421875 C-60.55953125 28.21183594 -60.46671875 27.34945312 -60.37109375 26.4609375 C-60.29890625 25.62949219 -60.22671875 24.79804688 -60.15234375 23.94140625 C-58.79507407 14.1474716 -53.00084055 6.03128588 -45.421875 -0.10546875 C-31.67671055 -9.71399323 -13.9397895 -9.04823239 0 0 Z " fill="#FDFDFB" transform="translate(193.37109375,142.5390625)"/>
<path d="M0 0 C2.01746506 -0.01715449 4.03326515 -0.06103269 6.05029297 -0.10522461 C7.97035156 -0.11779297 7.97035156 -0.11779297 9.92919922 -0.13061523 C11.68538574 -0.15248901 11.68538574 -0.15248901 13.47705078 -0.17480469 C17.50926408 0.39744617 19.63213605 1.76549975 22.78857422 4.29516602 C25.67278987 8.62148949 25.56194565 12.21792962 24.78857422 17.29516602 C23.26442769 21.19539289 21.22323531 24.66862007 19.03857422 28.23266602 C18.49974609 29.16401367 17.96091797 30.09536133 17.40576172 31.05493164 C13.30221456 37.98592288 13.30221456 37.98592288 10.63330078 39.59277344 C8.42001078 41.27838267 8.42001078 41.27838267 8.27099609 44.76928711 C8.24459697 46.20215666 8.24152507 47.63557789 8.25732422 49.06860352 C8.25349731 49.82936188 8.24967041 50.59012024 8.24572754 51.37393188 C8.24300693 52.9827812 8.25037874 54.59167463 8.26708984 56.20043945 C8.28844145 58.65490307 8.26732719 61.10642026 8.24169922 63.56079102 C8.24434363 65.12590161 8.24947096 66.69101039 8.25732422 68.25610352 C8.24922729 68.9864682 8.24113037 69.71683289 8.23278809 70.46932983 C8.32191402 75.3513953 9.31133732 77.87068832 12.78857422 81.29516602 C16.51906152 83.16040966 20.5681246 82.57254093 24.53857422 81.67016602 C27.73171834 79.71880016 28.39326834 77.75432602 29.78857422 74.29516602 C30.07909674 71.42782732 30.22953839 68.76822607 30.22998047 65.90454102 C30.24318832 65.11871643 30.25639618 64.33289185 30.27000427 63.52325439 C30.31068001 61.03052103 30.33252376 58.53815497 30.35107422 56.04516602 C30.37485814 53.53800462 30.40291096 51.03118911 30.44285583 48.52423096 C30.46722883 46.96848645 30.48207443 45.41255764 30.48646545 43.85662842 C30.56399318 38.51974706 30.56399318 38.51974706 32.78857422 36.29516602 C36.35107422 36.54516602 36.35107422 36.54516602 39.78857422 37.29516602 C42.18791973 42.09385704 41.10117891 49.37171245 41.13867188 54.70483398 C41.15513708 56.41753822 41.18230073 58.13017648 41.22070312 59.8425293 C41.66640537 79.83711977 41.66640537 79.83711977 34.30957031 87.92016602 C28.70029887 92.99101943 23.09510328 93.77826412 15.80029297 93.69750977 C11.91090589 93.1779159 9.55028204 91.79125114 6.50732422 89.38891602 C4.56567502 87.93724902 4.56567502 87.93724902 0.78857422 88.29516602 C-1.2048509 89.38454772 -1.2048509 89.38454772 -3.21142578 90.79516602 C-8.78559823 94.00926875 -13.91294927 94.35921382 -20.21142578 93.29516602 C-26.52713588 90.83558255 -31.19762626 86.1346871 -34.32763672 80.16699219 C-35.550278 76.19408351 -35.49743585 72.47988208 -35.47705078 68.34594727 C-35.47896423 67.4921196 -35.48087769 66.63829193 -35.48284912 65.7585907 C-35.48420607 63.96080224 -35.48054392 62.16300383 -35.47216797 60.36523438 C-35.46142175 57.60663055 -35.47210001 54.84867208 -35.48486328 52.09008789 C-35.48354238 50.34203957 -35.48098141 48.59399166 -35.47705078 46.84594727 C-35.48109924 46.01887772 -35.48514771 45.19180817 -35.48931885 44.3396759 C-35.44137126 38.52511149 -35.44137126 38.52511149 -33.21142578 36.29516602 C-30.53822395 35.95244783 -28.89990919 35.87191044 -26.57446289 37.30151367 C-24.42083923 40.45152098 -24.81117595 43.82194731 -24.84033203 47.50610352 C-24.82294731 49.15975139 -24.80536295 50.81339718 -24.78759766 52.46704102 C-24.77753108 55.06961965 -24.77392702 57.67206092 -24.77563477 60.2746582 C-24.77205817 62.7897215 -24.74468934 65.30372859 -24.71533203 67.81860352 C-24.72760582 68.97977188 -24.72760582 68.97977188 -24.74012756 70.16439819 C-24.68859783 73.91637305 -24.35301639 76.07479307 -22.30493164 79.26245117 C-19.59057666 81.89798698 -18.78393873 82.26213642 -14.96142578 82.48266602 C-11.26457904 82.29782368 -8.57645798 81.81744249 -5.21142578 80.29516602 C-3.94517155 76.49640331 -3.97844031 72.87094676 -3.89501953 68.90844727 C-3.87423843 68.09143845 -3.85345734 67.27442963 -3.83204651 66.43266296 C-3.76669499 63.82441568 -3.70773305 61.21606826 -3.64892578 58.60766602 C-3.60572686 56.83877548 -3.56211213 55.06989504 -3.51806641 53.30102539 C-3.41102835 48.96584139 -3.30972034 44.63055672 -3.21142578 40.29516602 C-3.80922852 40.05668945 -4.40703125 39.81821289 -5.02294922 39.57250977 C-9.22639091 37.11909534 -11.09733807 32.41818023 -13.46142578 28.29516602 C-14.01572266 27.38637695 -14.57001953 26.47758789 -15.14111328 25.54125977 C-18.61150509 19.53218233 -20.62330222 14.28387496 -19.21142578 7.29516602 C-14.6822546 -0.91330179 -8.430912 0.04992926 0 0 Z " fill="#494347" transform="translate(253.21142578125,167.704833984375)"/>
<path d="M0 0 C8.34165667 6.67332534 11.39802514 15.9897823 14 26 C14.18022705 26.67788574 14.3604541 27.35577148 14.54614258 28.05419922 C15.97320838 33.82735797 16.33484187 39.31599955 16.3125 45.25 C16.32861328 46.12140625 16.34472656 46.9928125 16.36132812 47.890625 C16.36504591 52.76835613 16.14311381 56.02137493 13 60 C11.46129279 61.53870721 10.08925942 61.28160143 7.9375 61.375 C2.91222996 61.33149117 -1.48789978 60.22125363 -6.25 58.75 C-6.92297119 58.54552246 -7.59594238 58.34104492 -8.28930664 58.13037109 C-15.85766392 55.65651398 -21.25233 51.8084225 -25.25 44.8125 C-28.21909807 33.67838225 -24.23593864 23.32553192 -18.74609375 13.6875 C-14.49309014 7.14148997 -8.8394318 -1.50917128 0 0 Z " fill="#FFB43A" transform="translate(402,35)"/>
<path d="M0 0 C9.23949268 2.97542985 13.66855904 10.55195636 17.98828125 18.76171875 C22.07147632 26.99381548 24.75611629 35.30379945 21.99609375 44.48828125 C19.31927706 50.43551834 15.16535945 54.06352252 9.27734375 56.734375 C1.33322158 59.3512623 -6.8324844 61.99995658 -15.3125 61.1875 C-17.8581686 59.32805511 -18.29378364 58.24364907 -19.3125 55.1875 C-20.89465991 37.18142908 -18.30390045 19.5588853 -8.3125 4.1875 C-4.13164648 0.23386678 -4.13164648 0.23386678 0 0 Z " fill="#D69021" transform="translate(113.3125,34.8125)"/>
<path d="M0 0 C5.85635108 3.5377957 9.78507173 8.64708653 12.2265625 15.0078125 C13.58788747 21.92294878 12.26486552 27.67800398 8.8515625 33.77734375 C5.35365516 38.57855791 0.04423866 42.5888671 -5.7734375 44.0078125 C-13.10737581 45.07856749 -18.68622424 43.12107375 -24.7734375 39.0078125 C-29.73688907 34.60722657 -32.36620415 30.14377625 -33.0234375 23.46875 C-33.30400488 17.10337753 -32.65320036 12.17705922 -28.7734375 7.0078125 C-20.9505954 -1.14173763 -10.94121181 -3.91418 0 0 Z " fill="#474247" transform="translate(180.7734375,151.9921875)"/>
<path d="M0 0 C5.7266886 2.6070917 9.94585786 7.09438064 12.65234375 12.73828125 C14.52719965 18.46558077 14.09535071 24.39310181 12.3828125 30.1015625 C8.16823867 37.4068238 3.81065232 42.00690674 -4.4921875 44.3515625 C-11.74278727 45.69991965 -17.46424916 43.35259337 -23.4921875 39.3515625 C-28.51928341 35.0923285 -30.90865488 29.32086677 -31.84765625 22.93359375 C-32.22499515 16.35565887 -30.61061869 11.50205879 -26.4921875 6.3515625 C-18.64886428 -0.78691141 -10.55444403 -2.74614061 0 0 Z " fill="#474247" transform="translate(350.4921875,151.6484375)"/>
<path d="M0 0 C3.09149578 1.45503081 4.74970602 2.59499463 6.6875 5.4375 C7.10386719 6.03433594 7.52023437 6.63117188 7.94921875 7.24609375 C9.77072964 10.28645952 10.20249521 13.02616467 10.3125 16.5 C10.34988281 17.2734375 10.38726562 18.046875 10.42578125 18.84375 C10.28527344 19.5553125 10.14476562 20.266875 10 21 C9.34088623 21.37608398 8.68177246 21.75216797 8.00268555 22.13964844 C5.62605255 23.95322006 5.62605255 23.95322006 5.51757812 27.53417969 C5.50331228 28.99668232 5.50917862 30.45946934 5.53125 31.921875 C5.52420044 32.70008606 5.51715088 33.47829712 5.5098877 34.28009033 C5.4804245 37.60552018 5.4969655 40.93036461 5.50927734 44.25585938 C5.51167164 46.68654827 5.49066002 49.11630252 5.46875 51.546875 C5.48006958 52.28879089 5.49138916 53.03070679 5.50305176 53.79510498 C5.45055037 59.27466561 4.12361249 62.47898192 1 67 C-2.84263739 69.38866649 -6.55522276 69.54584984 -11 69 C-13.97116227 67.21198512 -16.42553953 65.14892094 -18 62 C-18.28354633 57.05947436 -18.31371247 52.11805999 -18.35009766 47.17016602 C-18.36664678 45.52028284 -18.39392356 43.87047105 -18.43212891 42.22094727 C-18.48701149 39.83832742 -18.5087871 37.45738628 -18.5234375 35.07421875 C-18.54610687 34.34071701 -18.56877625 33.60721527 -18.59213257 32.85148621 C-18.57622275 28.97795126 -18.25005255 27.28758276 -15.67553711 24.32666016 C-14.79260986 23.5588623 -13.90968262 22.79106445 -13 22 C-11.20629643 19.43223255 -11.20629643 19.43223255 -9.66796875 16.69921875 C-8.81235352 15.23452148 -8.81235352 15.23452148 -7.93945312 13.74023438 C-7.36130859 12.73283203 -6.78316406 11.72542969 -6.1875 10.6875 C-5.59001953 9.66076172 -4.99253906 8.63402344 -4.37695312 7.57617188 C-2.91099026 5.05471575 -1.4522962 2.52934427 0 0 Z " fill="#FCFCFB" transform="translate(279,182)"/>
<path d="M0 0 C2.22815341 2.84845423 4.06312061 5.7508424 5.8125 8.9140625 C6.33070313 9.83960938 6.84890625 10.76515625 7.3828125 11.71875 C8.46425853 13.66221822 9.5423663 15.60754764 10.6171875 17.5546875 C11.13539063 18.47765625 11.65359375 19.400625 12.1875 20.3515625 C12.65542969 21.19541504 13.12335938 22.03926758 13.60546875 22.90869141 C14.98481073 25.26757976 14.98481073 25.26757976 18 27 C18.32922324 29.77868244 18.46803428 32.32979748 18.46875 35.11328125 C18.48017029 36.32312935 18.48017029 36.32312935 18.49182129 37.55741882 C18.50263755 39.26635644 18.5054692 40.97536024 18.50097656 42.68432617 C18.50000738 45.29263728 18.5415396 47.89797588 18.5859375 50.50585938 C18.59114695 52.16666054 18.59383265 53.82747192 18.59375 55.48828125 C18.6183429 56.6541552 18.6183429 56.6541552 18.64343262 57.84358215 C18.59220706 61.88383196 18.18711378 63.76352194 15.65039062 66.96948242 C11.48860461 70.15791042 8.15753946 70.52449554 3 70 C0.02448205 68.22396702 -2.42755188 66.14489623 -4 63 C-4.10849007 60.27710459 -4.16135964 57.57520614 -4.17578125 54.8515625 C-4.19897876 53.19009149 -4.22309607 51.52863311 -4.24804688 49.8671875 C-4.28317379 47.24470559 -4.31251182 44.62268863 -4.32592773 42 C-4.34140206 39.47078024 -4.38160511 36.94292249 -4.42578125 34.4140625 C-4.42387283 33.63165192 -4.42196442 32.84924133 -4.41999817 32.04312134 C-4.50140665 28.41963595 -4.6205997 26.44922403 -7.00048828 23.63134766 C-7.66032715 23.09300293 -8.32016602 22.5546582 -9 22 C-10.23533128 16.5134252 -9.63933531 11.3304677 -6.75 6.5 C-4.81886075 3.81511125 -2.87831877 1.70567038 0 0 Z " fill="#FDFDFD" transform="translate(232,181)"/>
<path d="M0 0 C12.50093469 0.5952826 24.80102657 4.50232213 36 10 C34.77115156 21.46925213 32.20008322 33.70957003 25 43 C24.3503125 43.928125 24.3503125 43.928125 23.6875 44.875 C20.65246614 46.89835591 18.52299505 46.5971178 15 46 C4.02292748 37.65014152 1.7293237 19.6817071 0 7 C-0.12779985 4.63364147 -0.10535384 2.37046143 0 0 Z " fill="#FEB43B" transform="translate(286,46)"/>
</svg>
