<?xml version="1.0" encoding="UTF-8"?>
<svg version="1.1" xmlns="http://www.w3.org/2000/svg" width="512" height="512">
<path d="M0 0 C1.41952217 -0.01058945 1.41952217 -0.01058945 2.86772156 -0.02139282 C42.38370862 -0.24928599 42.38370862 -0.24928599 58.8671875 3.203125 C59.84204102 3.40180176 60.81689453 3.60047852 61.82128906 3.80517578 C80.77670168 7.77030832 100.17365847 12.96761602 117.59765625 21.5859375 C120.74323544 22.44136179 122.00081505 21.70721849 124.8671875 20.203125 C127.0544092 18.90378538 129.22003933 17.56766776 131.3671875 16.203125 C137.62421082 12.22669896 143.2092394 8.7267278 150.8671875 10.203125 C163.72906071 15.38899573 169.84642039 30.33331732 174.9453125 42.2578125 C176.11226691 45.05185702 177.00916028 47.73885926 177.78662109 50.67260742 C180.54703124 60.6362218 184.71517632 66.28850381 192.30123901 73.21908569 C195.18195224 75.8537823 197.97672903 78.57781091 200.78515625 81.2890625 C201.32908524 81.8096373 201.87301422 82.3302121 202.4334259 82.86656189 C208.29404551 88.50300448 213.1720646 94.56490506 217.8671875 101.203125 C218.71263453 102.34538847 219.56036448 103.48596512 220.41015625 104.625 C226.46807033 112.82019549 231.83090047 121.3484329 236.8671875 130.203125 C237.23166992 130.83492676 237.59615234 131.46672852 237.97167969 132.11767578 C259.57753748 169.86595072 269.34416845 212.63252497 269.1796875 255.828125 C269.17753235 256.84603119 269.1753772 257.86393738 269.17315674 258.91268921 C269.12348604 273.52176023 268.87258941 287.85388353 265.8671875 302.203125 C265.56917236 303.66540527 265.56917236 303.66540527 265.26513672 305.15722656 C255.14451556 353.5391024 233.2279998 397.52740769 198.8671875 433.203125 C198.23506348 433.86248047 197.60293945 434.52183594 196.95166016 435.20117188 C187.80721271 444.68942805 178.50984741 453.4293294 167.8671875 461.203125 C166.71613733 462.06118652 165.56509573 462.91925951 164.4140625 463.77734375 C156.22442769 469.81489896 147.72180474 475.19769802 138.8671875 480.203125 C138.15997559 480.6053125 137.45276367 481.0075 136.72412109 481.421875 C113.58872914 494.4472991 88.41756341 503.19613961 62.4296875 508.515625 C61.71079346 508.66298096 60.99189941 508.81033691 60.2512207 508.9621582 C45.57558252 511.75152625 31.05049912 512.55205119 16.13989258 512.51879883 C13.20030263 512.5156471 10.2617317 512.53917426 7.32226562 512.56445312 C-6.05087442 512.60911237 -18.94697961 511.40364042 -32.1328125 509.203125 C-33.83836304 508.92094116 -33.83836304 508.92094116 -35.57836914 508.63305664 C-38.1740747 508.16679902 -40.74556189 507.6480668 -43.3203125 507.078125 C-44.70923706 506.77116699 -44.70923706 506.77116699 -46.1262207 506.45800781 C-90.57690835 496.12218161 -131.31221814 473.81404602 -164.1328125 442.203125 C-164.79216797 441.57100098 -165.45152344 440.93887695 -166.13085938 440.28759766 C-175.61911555 431.14315021 -184.3590169 421.84578491 -192.1328125 411.203125 C-192.99087402 410.05207483 -193.84894701 408.90103323 -194.70703125 407.75 C-200.74458646 399.56036519 -206.12738552 391.05774224 -211.1328125 382.203125 C-211.535 381.49591309 -211.9371875 380.78870117 -212.3515625 380.06005859 C-225.3769866 356.92466664 -234.12582711 331.75350091 -239.4453125 305.765625 C-239.59266846 305.04673096 -239.74002441 304.32783691 -239.8918457 303.5871582 C-242.86570338 287.94086891 -243.50581612 272.46744454 -243.4453125 256.578125 C-243.44315735 255.56021881 -243.4410022 254.54231262 -243.43878174 253.49356079 C-243.38911104 238.88448977 -243.13821441 224.55236647 -240.1328125 210.203125 C-239.93413574 209.22827148 -239.73545898 208.25341797 -239.53076172 207.24902344 C-229.32742517 158.47172468 -206.5784354 109.16002852 -168.90625 75.37890625 C-158.49179299 65.87197056 -153.72096184 58.07758301 -149.88964844 44.6015625 C-146.14903053 32.74742369 -138.41664042 16.87260833 -127.109375 10.95703125 C-121.86513967 8.95675967 -118.79822862 9.51032733 -113.76171875 11.60546875 C-108.58868957 14.04300729 -103.6768607 16.572129 -99.3203125 20.328125 C-96.46719917 22.46801186 -96.46719917 22.46801186 -94.25927734 21.8815918 C-93.56527832 21.62031494 -92.8712793 21.35903809 -92.15625 21.08984375 C-90.96020142 20.65188477 -90.96020142 20.65188477 -89.73999023 20.20507812 C-88.87962158 19.87443359 -88.01925293 19.54378906 -87.1328125 19.203125 C-85.29832655 18.51913024 -83.46368421 17.83555482 -81.62890625 17.15234375 C-80.65324707 16.78641113 -79.67758789 16.42047852 -78.67236328 16.04345703 C-59.28124042 8.8370284 -39.65327125 3.8369108 -19.1328125 1.203125 C-18.13200401 1.07213158 -18.13200401 1.07213158 -17.11097717 0.93849182 C-11.39460774 0.24225009 -5.75538618 0.02856336 0 0 Z " fill="#EEE6E3" transform="translate(243.1328125,-0.203125)"/>
<path d="M0 0 C2.48610745 2.19612602 4.91277064 4.44105268 7.32421875 6.71875 C8.14535156 7.47542969 8.96648437 8.23210937 9.8125 9.01171875 C29.46698673 27.74919988 43.90819792 55.39642578 44.625 82.79296875 C44.64450669 85.3306572 44.64793846 87.86851138 44.63671875 90.40625 C44.6345636 91.06827423 44.63240845 91.73029846 44.63018799 92.41238403 C44.54560306 108.60550908 41.98722186 121.98751327 35.32421875 136.71875 C34.82148438 137.86988281 34.31875 139.02101563 33.80078125 140.20703125 C27.86667243 152.98707537 19.41497902 163.94666209 9.32421875 173.71875 C8.17953125 174.894375 8.17953125 174.894375 7.01171875 176.09375 C-29.46128582 211.71854516 -78.28389344 224.58217594 -128.1015625 223.99609375 C-152.90940955 223.5452714 -177.1791794 216.96675865 -199.67578125 206.71875 C-200.87589844 206.17476562 -202.07601562 205.63078125 -203.3125 205.0703125 C-216.1380445 198.95196764 -227.89132442 190.95503032 -238.67578125 181.71875 C-239.57941406 180.94917969 -240.48304688 180.17960938 -241.4140625 179.38671875 C-265.08333523 158.59835335 -280.73019505 129.17760863 -282.81738281 97.57470703 C-284.36427161 67.51436804 -273.64616444 38.21405304 -253.67578125 15.71875 C-239.51582663 0.22119799 -224.30222938 -11.67104221 -205.67578125 -21.28125 C-205.05735352 -21.60077637 -204.43892578 -21.92030273 -203.80175781 -22.24951172 C-139.82211277 -54.78355238 -54.8514417 -46.76385686 0 0 Z " fill="#9B9595" transform="translate(374.67578125,126.28125)"/>
<path d="M0 0 C1.41952217 -0.01058945 1.41952217 -0.01058945 2.86772156 -0.02139282 C42.38370862 -0.24928599 42.38370862 -0.24928599 58.8671875 3.203125 C59.84204102 3.40180176 60.81689453 3.60047852 61.82128906 3.80517578 C80.77670168 7.77030832 100.17365847 12.96761602 117.59765625 21.5859375 C120.74323544 22.44136179 122.00081505 21.70721849 124.8671875 20.203125 C127.0544092 18.90378538 129.22003933 17.56766776 131.3671875 16.203125 C137.62421082 12.22669896 143.2092394 8.7267278 150.8671875 10.203125 C163.72906071 15.38899573 169.84642039 30.33331732 174.9453125 42.2578125 C176.11226691 45.05185702 177.00916028 47.73885926 177.78662109 50.67260742 C180.54703124 60.6362218 184.71517632 66.28850381 192.30123901 73.21908569 C195.18195224 75.8537823 197.97672903 78.57781091 200.78515625 81.2890625 C201.32908524 81.8096373 201.87301422 82.3302121 202.4334259 82.86656189 C208.29404551 88.50300448 213.1720646 94.56490506 217.8671875 101.203125 C218.71263453 102.34538847 219.56036448 103.48596512 220.41015625 104.625 C226.46807033 112.82019549 231.83090047 121.3484329 236.8671875 130.203125 C237.23166992 130.83492676 237.59615234 131.46672852 237.97167969 132.11767578 C259.57753748 169.86595072 269.34416845 212.63252497 269.1796875 255.828125 C269.17753235 256.84603119 269.1753772 257.86393738 269.17315674 258.91268921 C269.12348604 273.52176023 268.87258941 287.85388353 265.8671875 302.203125 C265.56917236 303.66540527 265.56917236 303.66540527 265.26513672 305.15722656 C258.80709187 336.03006718 247.4570282 363.89565973 231.8671875 391.203125 C231.2071875 390.873125 230.5471875 390.543125 229.8671875 390.203125 C229.33642578 388.11889648 229.33642578 388.11889648 228.9375 385.32421875 C228.78410156 384.27427734 228.63070313 383.22433594 228.47265625 382.14257812 C228.23482422 380.40911133 228.23482422 380.40911133 227.9921875 378.640625 C227.82074219 377.43986328 227.64929688 376.23910156 227.47265625 375.00195312 C226.07479983 365.0690099 224.83358817 355.11699356 223.61773682 345.16036987 C222.49728291 335.98684154 221.261102 326.83979893 219.8671875 317.703125 C218.26573485 307.20610333 216.90165873 296.69104226 215.6171875 286.15185547 C214.3633321 275.88836334 212.92931523 265.66295265 211.36938477 255.44116211 C210.13570829 247.25997095 209.06751776 239.06412383 208.06143188 230.85256958 C207.80615042 228.77751634 207.5467556 226.70302005 207.28588867 224.62866211 C206.57388441 218.95921987 205.86961516 213.29151241 205.265625 207.609375 C200.63199951 167.27658347 175.70565289 123.6031254 144.4921875 97.515625 C142.63255892 96.05829429 140.75668198 94.62151911 138.8671875 93.203125 C138.33899414 92.80528809 137.81080078 92.40745117 137.26660156 91.99755859 C128.50359021 85.44192576 119.37018558 79.62695268 109.8671875 74.203125 C108.85301758 73.62304688 107.83884766 73.04296875 106.79394531 72.4453125 C103.89275432 70.79274594 100.98741924 69.14831638 98.07675171 67.51254272 C96.36139285 66.54752597 94.64902599 65.57719678 92.93676758 64.60668945 C74.56833721 54.36662348 55.71768794 47.87976892 34.8671875 45.203125 C34.12299561 45.10741211 33.37880371 45.01169922 32.61206055 44.91308594 C-3.84252077 40.7425772 -36.20620577 47.64681838 -68.1328125 65.203125 C-69.0405542 65.70102539 -69.9482959 66.19892578 -70.88354492 66.71191406 C-88.1966478 76.24662136 -105.23957169 86.09255999 -120.1328125 99.203125 C-121.12796875 100.06550781 -122.123125 100.92789063 -123.1484375 101.81640625 C-129.86602176 107.73176486 -135.73356754 114.04864846 -141.1328125 121.203125 C-141.53209961 121.72745117 -141.93138672 122.25177734 -142.34277344 122.79199219 C-149.15268498 131.79213289 -154.92420066 141.1964436 -160.1328125 151.203125 C-160.5026123 151.91001465 -160.87241211 152.6169043 -161.25341797 153.34521484 C-172.14834353 174.46860849 -178.96486248 196.06989031 -181.68771362 219.66650391 C-182.15299743 223.69018004 -182.65223721 227.70838758 -183.16235352 231.7265625 C-183.35096097 233.21511149 -183.53951229 234.7036676 -183.72801208 236.19223022 C-183.8253961 236.96101879 -183.92278011 237.72980736 -184.02311516 238.52189255 C-184.33081402 240.96246799 -184.63476118 243.40348691 -184.93788147 245.84463501 C-187.88236117 269.49852214 -191.10905138 293.11615496 -194.31426048 316.73585606 C-195.38978165 324.66322102 -196.45860485 332.59142773 -197.51784509 340.52098519 C-198.34250259 346.69221096 -199.17502337 352.86235112 -200.01043892 359.03212929 C-200.35863695 361.613332 -200.70418606 364.1948935 -201.04701042 366.77681541 C-201.52012254 370.33595512 -202.00285639 373.89366031 -202.48803711 377.45117188 C-202.62568985 378.50410588 -202.76334259 379.55703989 -202.90516663 380.64188099 C-203.03792999 381.600811 -203.17069336 382.559741 -203.30747986 383.54772949 C-203.41931075 384.37973625 -203.53114164 385.21174301 -203.64636135 386.0689621 C-204.1328125 388.203125 -204.1328125 388.203125 -206.1328125 391.203125 C-230.13269513 349.08836463 -243.63039604 305.18432809 -243.4453125 256.578125 C-243.44315735 255.56021881 -243.4410022 254.54231262 -243.43878174 253.49356079 C-243.38911104 238.88448977 -243.13821441 224.55236647 -240.1328125 210.203125 C-239.93413574 209.22827148 -239.73545898 208.25341797 -239.53076172 207.24902344 C-229.32742517 158.47172468 -206.5784354 109.16002852 -168.90625 75.37890625 C-158.49179299 65.87197056 -153.72096184 58.07758301 -149.88964844 44.6015625 C-146.14903053 32.74742369 -138.41664042 16.87260833 -127.109375 10.95703125 C-121.86513967 8.95675967 -118.79822862 9.51032733 -113.76171875 11.60546875 C-108.58868957 14.04300729 -103.6768607 16.572129 -99.3203125 20.328125 C-96.46719917 22.46801186 -96.46719917 22.46801186 -94.25927734 21.8815918 C-93.56527832 21.62031494 -92.8712793 21.35903809 -92.15625 21.08984375 C-90.96020142 20.65188477 -90.96020142 20.65188477 -89.73999023 20.20507812 C-88.87962158 19.87443359 -88.01925293 19.54378906 -87.1328125 19.203125 C-85.29832655 18.51913024 -83.46368421 17.83555482 -81.62890625 17.15234375 C-80.65324707 16.78641113 -79.67758789 16.42047852 -78.67236328 16.04345703 C-59.28124042 8.8370284 -39.65327125 3.8369108 -19.1328125 1.203125 C-18.13200401 1.07213158 -18.13200401 1.07213158 -17.11097717 0.93849182 C-11.39460774 0.24225009 -5.75538618 0.02856336 0 0 Z " fill="#DA4A54" transform="translate(243.1328125,-0.203125)"/>
<path d="M0 0 C-2.41254324 2.41254324 -4.11314179 2.74147551 -7.375 3.6875 C-30.30112516 11.20202255 -45.53332578 30.63192387 -57.76953125 50.48828125 C-58.17558594 51.31714844 -58.58164063 52.14601562 -59 53 C-58.67 53.66 -58.34 54.32 -58 55 C-58.71800781 55.24492188 -59.43601563 55.48984375 -60.17578125 55.7421875 C-81.56874098 63.46816299 -99.70469022 75.29559406 -116 91 C-116.85207031 91.77730469 -117.70414062 92.55460937 -118.58203125 93.35546875 C-138.68070327 112.25138559 -151.92162482 141.13217882 -153.28515625 168.63671875 C-154.25321468 202.45998877 -140.52888202 232.64417566 -117.75390625 257.20898438 C-113.95839056 261.08480608 -109.80717503 264.53200893 -105.58203125 267.92578125 C-103 270 -103 270 -101 272 C-101.27063427 274.00944475 -101.62247203 276.00786955 -102 278 C-102.28484509 281.32985354 -102.44072124 284.66655706 -102.61328125 288.00390625 C-102.72524614 290.02680649 -102.83782036 292.04967308 -102.95092773 294.07250977 C-103.00948944 295.13124298 -103.06805115 296.1899762 -103.12838745 297.28079224 C-105.62750956 341.82630793 -108.46310341 387.44066814 -126 429 C-138.83338406 429 -158.25499994 407.42268435 -167 399 C-167.65935547 398.36787598 -168.31871094 397.73575195 -168.99804688 397.08447266 C-178.48135014 387.94479866 -187.25137877 378.65622187 -195 368 C-195.4552002 367.37899414 -195.91040039 366.75798828 -196.37939453 366.11816406 C-199.30627106 362.11467681 -202.19855652 358.09240718 -205 354 C-205.55152237 353.2891626 -206.10304474 352.5783252 -206.67127991 351.84594727 C-208.51098287 347.90554053 -207.93661083 344.57763536 -207.35327148 340.40625 C-207.25025191 339.56960815 -207.14723234 338.73296631 -207.04109097 337.87097168 C-206.71242275 335.24456287 -206.35827841 332.62251728 -206 330 C-205.7927963 328.41415001 -205.58624383 326.82821478 -205.38040161 325.2421875 C-204.84710086 321.19479845 -204.28618195 317.15170877 -203.71576881 313.10939789 C-203.33154552 310.38579768 -202.95157269 307.66162927 -202.57243347 304.93731689 C-201.59553682 297.92437964 -200.61153138 290.91244328 -199.62754822 283.90049744 C-198.58809731 276.49143563 -197.55170889 269.08195372 -196.51953125 261.671875 C-196.37081951 260.60483086 -196.22210777 259.53778671 -196.06888962 258.4384079 C-194.0631169 244.01703335 -192.15927134 229.58644268 -190.36845207 215.13682556 C-190.01427507 212.2861998 -189.65645901 209.43605613 -189.29725647 206.58605957 C-189.12267552 205.20019024 -189.12267552 205.20019024 -188.94456768 203.78632355 C-188.71314162 201.94961239 -188.48159157 200.11291684 -188.24991322 198.27623749 C-187.69697399 193.87600633 -187.15513236 189.47495915 -186.63845825 185.0703125 C-184.23952177 164.65733297 -180.98614331 146.11874404 -173 127 C-172.69805725 126.26334106 -172.3961145 125.52668213 -172.08502197 124.7677002 C-170.42793286 120.76935469 -168.61771993 116.8729332 -166.6875 113 C-165.86910645 111.33130859 -165.86910645 111.33130859 -165.03417969 109.62890625 C-157.99733712 95.59577928 -149.37620111 82.78707872 -139 71 C-138.13761719 70.00484375 -137.27523437 69.0096875 -136.38671875 67.984375 C-130.45350382 61.24785823 -124.1391079 55.47465297 -117 50 C-116.1234375 49.29617187 -115.246875 48.59234375 -114.34375 47.8671875 C-101.98712941 38.18320675 -88.07679014 30.59346191 -74.36499023 23.01391602 C-70.92063044 21.10747445 -67.59994844 19.10014245 -64.3125 16.9375 C-46.25810212 6.00743451 -21.00532154 -0.84021286 0 0 Z " fill="#DFD7D4" transform="translate(246,43)"/>
<path d="M0 0 C13.45771178 11.25036223 25.67680201 23.81693109 36 38 C36.85649066 39.14994831 37.71326433 40.29968589 38.5703125 41.44921875 C44.6109414 49.64089526 49.97005071 58.15645078 55 67 C55.36448242 67.63180176 55.72896484 68.26360352 56.10449219 68.91455078 C77.71034998 106.66282572 87.47698095 149.42939997 87.3125 192.625 C87.30926727 194.15185928 87.30926727 194.15185928 87.30596924 195.70956421 C87.25629854 210.31863523 87.00540191 224.65075853 84 239 C83.80132324 239.97485352 83.60264648 240.94970703 83.39794922 241.95410156 C76.93990437 272.82694218 65.5898407 300.69253473 50 328 C49.34 327.67 48.68 327.34 48 327 C47.46923828 324.91577148 47.46923828 324.91577148 47.0703125 322.12109375 C46.91691406 321.07115234 46.76351562 320.02121094 46.60546875 318.93945312 C46.44691406 317.78380859 46.28835938 316.62816406 46.125 315.4375 C45.95355469 314.23673828 45.78210938 313.03597656 45.60546875 311.79882812 C44.20761233 301.8658849 42.96640067 291.91386856 41.75054932 281.95724487 C40.63009541 272.78371654 39.3939145 263.63667393 38 254.5 C36.39854735 244.00297833 35.03447123 233.48791726 33.75 222.94873047 C32.49686261 212.69111561 31.06492797 202.47134373 29.50439453 192.25561523 C27.93871845 181.8801246 26.64299745 171.47620757 25.39453125 161.05859375 C25.24113281 159.79273438 25.08773438 158.526875 24.9296875 157.22265625 C24.79804199 156.11672119 24.66639648 155.01078613 24.53076172 153.87133789 C24.09217486 150.67231682 23.57856643 147.50846891 23.02880859 144.32763672 C21.97420147 138.08356237 21.26378451 131.83191943 20.609375 125.53515625 C19.05641043 111.13640879 17.21915037 96.78483061 15.25 82.4375 C15.07803101 81.18149994 14.90606201 79.92549988 14.72888184 78.63143921 C11.39708015 54.47357757 7.36546104 30.66961053 0.76074219 7.16870117 C0 4 0 4 0 0 Z " fill="#DA4A54" transform="translate(425,63)"/>
<path d="M0 0 C1.25147509 3.57805706 0.73192331 5.91677071 -0.2578125 9.53125 C-0.55429688 10.6553125 -0.85078125 11.779375 -1.15625 12.9375 C-1.77673169 15.21927138 -2.39896494 17.50056761 -3.0234375 19.78125 C-9.78564487 45.45471527 -12.79755186 72.01360722 -16.30660248 98.27998734 C-16.95984223 103.15918782 -17.62020229 108.03742517 -18.27978516 112.91577148 C-19.35363741 120.86410987 -20.42380886 128.81293439 -21.49072266 136.76220703 C-22.82530965 146.70553289 -24.16662887 156.64793385 -25.51171875 166.58984375 C-25.71057711 168.06029617 -25.90942459 169.53075007 -26.10826111 171.00120544 C-26.89193694 176.79637116 -27.67585059 182.59150465 -28.46029663 188.38656616 C-29.06501156 192.8540197 -29.66931771 197.32152844 -30.2734375 201.7890625 C-30.37632143 202.54968554 -30.47920536 203.31030857 -30.58520699 204.09398079 C-32.14377315 215.61969207 -33.68955254 227.14708236 -35.22988319 238.67524433 C-36.50415788 248.20969428 -37.78417094 257.74336502 -39.0675106 267.27659893 C-39.86200924 273.1807655 -40.65358543 279.08529298 -41.43841553 284.99075317 C-42.1769382 290.54754287 -42.92272124 296.10331001 -43.67399216 301.65839005 C-43.95213251 303.72507422 -44.22753984 305.79212819 -44.50011063 307.85955429 C-44.87503854 310.70028095 -45.25954679 313.53955017 -45.64648438 316.37866211 C-45.75451826 317.21492661 -45.86255215 318.05119112 -45.97385979 318.91279697 C-46.48425401 322.58736974 -46.91092286 324.86638429 -49 328 C-72.99988263 285.88523963 -86.49758354 241.98120309 -86.3125 193.375 C-86.31034485 192.35709381 -86.3081897 191.33918762 -86.30596924 190.29043579 C-86.25629854 175.68136477 -86.00540191 161.34924147 -83 147 C-82.80132324 146.02514648 -82.60264648 145.05029297 -82.39794922 144.04589844 C-70.27854375 86.10878554 -41.58917555 41.07921584 0 0 Z " fill="#DA4A54" transform="translate(86,63)"/>
<path d="M0 0 C0.82306641 0.28858887 1.64613281 0.57717773 2.49414062 0.87451172 C20.80746378 7.43170275 36.94754387 16.71976182 52 29 C53.32774542 30.00740751 54.65871862 31.01068608 56 32 C27.7903843 46.28249559 -1.59433275 55.96885637 -33 60 C-33.66679779 60.08732895 -34.33359558 60.1746579 -35.02059937 60.26463318 C-40.74885288 60.96264085 -46.40054289 61.17560719 -52.16796875 61.203125 C-53.12407547 61.20882507 -54.08018219 61.21452515 -55.06526184 61.22039795 C-57.08475661 61.2297971 -59.10426637 61.23636156 -61.1237793 61.24023438 C-64.13424501 61.24983025 -67.14399402 61.28085684 -70.15429688 61.3125 C-83.67052518 61.38636788 -96.67406149 60.23780336 -110 58 C-111.13638916 57.81179688 -112.27277832 57.62359375 -113.44360352 57.4296875 C-116.04007888 56.96384593 -118.61208535 56.44508879 -121.1875 55.875 C-122.57642456 55.56804199 -122.57642456 55.56804199 -123.9934082 55.25488281 C-145.66626806 50.21543518 -166.18834686 42.01606629 -186 32 C-134.05273326 -10.09010037 -63.30664398 -22.33076825 0 0 Z " fill="#E0D7D4" transform="translate(321,451)"/>
<path d="M0 0 C-0.24121582 0.49177734 -0.48243164 0.98355469 -0.73095703 1.49023438 C-1.86984137 3.82324137 -2.99870364 6.16088947 -4.125 8.5 C-4.7435083 9.77895142 -4.7435083 9.77895142 -5.37451172 11.08374023 C-7.35517195 15.25117001 -9.20514123 19.381501 -10.6875 23.75390625 C-10.93483887 24.48222656 -11.18217773 25.21054688 -11.43701172 25.9609375 C-11.8857984 27.33182313 -12.31058179 28.71086956 -12.70751953 30.09765625 C-13.3203125 31.97265625 -13.3203125 31.97265625 -15 35 C-18.375 36.328125 -18.375 36.328125 -22 37 C-32.59069565 40.41687581 -40.39013707 45.53621077 -45.78125 55.46484375 C-50.42669127 65.12795716 -51.53613558 73.71573764 -48.375 84.125 C-45.72994742 91.28984418 -42.61757185 97.42314188 -36.0625 101.5625 C-34.2890625 102.9921875 -34.2890625 102.9921875 -33 105 C-32.65882927 108.84508636 -32.94271481 112.48088525 -33.42211914 116.29248047 C-35.24729116 131.10203429 -36.50660821 145.92604205 -37.5 160.8125 C-37.62772338 162.68792652 -37.75573817 164.56333321 -37.8840332 166.4387207 C-38.20087342 171.0836358 -38.51355168 175.72881787 -38.82427979 180.37414551 C-38.9921008 182.88195915 -39.16068556 185.38972004 -39.32958984 187.89746094 C-39.89291175 196.26454513 -40.45067941 204.63198352 -41 213 C-44.23600826 211.82517635 -46.7020478 210.68409715 -49.234375 208.34765625 C-50.08854004 207.56285889 -50.08854004 207.56285889 -50.95996094 206.76220703 C-51.55067383 206.20130371 -52.14138672 205.64040039 -52.75 205.0625 C-53.36907227 204.47839355 -53.98814453 203.89428711 -54.62597656 203.29248047 C-59.91643173 198.22119736 -64.65549477 192.91137597 -69 187 C-69.4017041 186.45682129 -69.8034082 185.91364258 -70.21728516 185.35400391 C-87.68866302 161.42566658 -96.75167551 131.52138344 -92.3125 101.90234375 C-86.33661075 67.40801788 -66.02630411 37.94659769 -37.59936523 17.69018555 C-7.9243592 -2.64145307 -7.9243592 -2.64145307 0 0 Z " fill="#736E6E" transform="translate(185,100)"/>
<path d="M0 0 C7.761218 3.66221975 14.28152456 8.00755122 20.734375 13.703125 C21.56582031 14.39148437 22.39726562 15.07984375 23.25390625 15.7890625 C34.15681472 25.06742086 41.84261602 36.74767678 47.734375 49.703125 C47.734375 50.693125 47.734375 51.683125 47.734375 52.703125 C47.07131348 53.06438477 46.40825195 53.42564453 45.72509766 53.79785156 C27.45969812 63.78718563 9.42825441 73.88775539 -6.265625 87.703125 C-7.26078125 88.56550781 -8.2559375 89.42789063 -9.28125 90.31640625 C-15.99883426 96.23176486 -21.86638004 102.54864846 -27.265625 109.703125 C-27.86455566 110.48961426 -27.86455566 110.48961426 -28.47558594 111.29199219 C-44.55986244 132.54935372 -55.02277792 156.48470758 -63.265625 181.703125 C-64.54734718 177.9767063 -64.07870729 174.89016702 -63.55639648 171.02392578 C-63.4247686 170.02731682 -63.4247686 170.02731682 -63.29048157 169.01057434 C-62.99697973 166.80540821 -62.69226363 164.601965 -62.38671875 162.3984375 C-62.17506915 160.83939842 -61.96381871 159.2803051 -61.75294495 157.72116089 C-61.30641765 154.43350949 -60.85420913 151.14669982 -60.39819336 147.86035156 C-59.93971311 144.55306976 -59.48864893 141.24493831 -59.0456543 137.93554688 C-43.90271408 24.81353399 -43.90271408 24.81353399 -17.328125 2.04296875 C-11.39445899 -2.11755097 -6.68788649 -2.65595492 0 0 Z " fill="#9C9595" transform="translate(129.265625,11.296875)"/>
<path d="M0 0 C17.07158565 9.68370979 24.51119846 35.55886621 29.41760254 53.21948242 C30.81810369 58.50986581 32.08588506 63.83071999 33.328125 69.16015625 C33.52332733 69.99366608 33.71852966 70.8271759 33.91964722 71.6859436 C37.58110417 87.397468 40.55259117 103.12467198 42.828125 119.09765625 C42.98492737 120.19261414 43.14172974 121.28757202 43.30328369 122.41571045 C44.53016219 130.99985378 45.73340627 139.5870512 46.91993332 148.17685318 C47.20233293 150.21693424 47.48676237 152.25672444 47.77151489 154.29647827 C48.30815794 158.14813846 48.83071386 162.0016395 49.3515625 165.85546875 C49.5158223 167.0301622 49.68008209 168.20485565 49.84931946 169.41514587 C49.993629 170.50034012 50.13793854 171.58553436 50.28662109 172.70361328 C50.41587982 173.65237335 50.54513855 174.60113342 50.67831421 175.5786438 C50.82385512 178.02585981 50.572701 179.77837415 49.828125 182.09765625 C49.61309326 181.46077881 49.39806152 180.82390137 49.17651367 180.16772461 C36.40560911 142.69277689 18.19408492 106.39393614 -14.171875 82.09765625 C-14.70006836 81.69981934 -15.22826172 81.30198242 -15.77246094 80.89208984 C-30.06279415 70.20145236 -45.55248086 61.66774765 -61.171875 53.09765625 C-59.70040018 42.91052287 -52.67139092 33.77615413 -46.171875 26.09765625 C-45.67945313 25.4840625 -45.18703125 24.87046875 -44.6796875 24.23828125 C-35.73558771 13.31197556 -15.14795297 -6.29348406 0 0 Z " fill="#9C9595" transform="translate(396.171875,10.90234375)"/>
<path d="M0 0 C7.8186985 6.40302054 13.74930442 15.25322108 14.8125 25.46484375 C14.96292774 38.55205676 11.92865281 48.35554251 2.921875 57.8828125 C-5.03524065 65.40209642 -13.67753339 67.91572109 -24.38623047 67.69140625 C-34.74210459 67.20811663 -43.20614445 63.71289067 -50.50390625 56.19921875 C-58.19236913 46.9206047 -61.62819681 36.20391381 -60.5234375 24.23828125 C-57.43285464 11.36379607 -50.67865914 3.10551307 -39.5234375 -3.76171875 C-38.89953125 -4.14585937 -38.275625 -4.53 -37.6328125 -4.92578125 C-25.87529924 -10.59269079 -10.13061472 -7.07261182 0 0 Z " fill="#92D5E1" transform="translate(194.5234375,142.76171875)"/>
<path d="M0 0 C8.77858028 6.28084779 14.00044773 15.0559854 16.53515625 25.4921875 C18.10540446 36.42522407 14.71224948 46.42277084 8.41015625 55.3671875 C2.77523157 62.06251376 -5.62270752 67.55246164 -14.40063477 68.75805664 C-27.24575679 69.83409564 -36.27956355 67.59549748 -46.70703125 59.8203125 C-53.7575231 53.46579195 -57.891382 43.68402446 -58.75390625 34.37109375 C-59.20634674 23.50061578 -56.72890031 15.06339922 -49.77734375 6.6171875 C-36.55490271 -7.12916158 -16.36299313 -10.00969152 0 0 Z " fill="#92D6E1" transform="translate(361.46484375,141.5078125)"/>
<path d="M0 0 C0.8419693 -0.00524185 1.6839386 -0.0104837 2.55142212 -0.0158844 C4.32821554 -0.02229187 6.10505145 -0.02098412 7.88183594 -0.01245117 C10.5860641 -0.00395494 13.28816851 -0.03269616 15.9921875 -0.06445312 C17.7239577 -0.0660658 19.45573162 -0.06548634 21.1875 -0.0625 C21.98876312 -0.07373398 22.79002625 -0.08496796 23.61557007 -0.09654236 C29.280243 -0.0270003 32.54772183 1.2128672 37.2265625 4.43359375 C40.78298433 8.08120588 41.56341106 11.17129239 41.8515625 16.12109375 C41.56712681 23.17165115 38.89156829 27.5611753 35.2265625 33.43359375 C34.34016127 35.02057646 33.46191127 36.61212702 32.58984375 38.20703125 C31.63575423 39.92857254 30.68132494 41.64992557 29.7265625 43.37109375 C29.27627686 44.20068604 28.82599121 45.03027832 28.36206055 45.88500977 C25.57271193 50.80446127 23.29550797 53.82080865 18.2265625 56.43359375 C17.5665625 56.43359375 16.9065625 56.43359375 16.2265625 56.43359375 C16.50144962 64.77793641 16.50144962 64.77793641 21.2265625 71.43359375 C24.97005538 73.30534019 29.5700101 72.88131062 33.5390625 71.80859375 C36.88003797 69.08631744 38.05019608 65.8875913 38.5625 61.6640625 C38.71032073 59.7194553 38.83013832 57.77245742 38.91796875 55.82421875 C39.2265625 53.43359375 39.2265625 53.43359375 41.2265625 51.43359375 C44.7890625 51.68359375 44.7890625 51.68359375 48.2265625 52.43359375 C50.69049001 57.36144877 49.94832052 64.17187788 48.3203125 69.2734375 C45.30493106 75.70045243 41.98405541 79.59853907 35.5390625 82.74609375 C29.99463805 83.89682335 24.14194937 84.82580012 18.87890625 82.3125 C16.7890625 80.93359375 16.7890625 80.93359375 14.98046875 79.52734375 C13.00537617 78.08082754 13.00537617 78.08082754 9.2265625 78.43359375 C7.38052003 79.24019089 7.38052003 79.24019089 5.6640625 80.37109375 C0.0338166 83.86962071 -5.26164844 84.07289983 -11.7734375 83.43359375 C-17.42776022 81.65926942 -21.53231662 77.26015457 -24.7734375 72.43359375 C-26.85765853 68.32167294 -27.04274496 64.82678969 -27.0234375 60.24609375 C-27.02859375 59.01503906 -27.03375 57.78398437 -27.0390625 56.515625 C-26.7734375 53.43359375 -26.7734375 53.43359375 -24.7734375 51.43359375 C-22.02110718 51.08073089 -20.44456069 50.95995418 -18.140625 52.5859375 C-16.23308318 55.16384402 -16.40328695 57.13128459 -16.3359375 60.30859375 C-16.10269682 64.32713622 -15.96212899 66.12316582 -13.8359375 69.62109375 C-10.50918699 72.54460178 -8.2286357 72.65407845 -3.8125 72.58984375 C-1.12412455 72.38383797 0.89031135 71.77870805 3.2265625 70.43359375 C4.22073954 67.45106262 4.52402967 65.12349354 4.6640625 61.99609375 C4.72464844 61.04863281 4.78523438 60.10117188 4.84765625 59.125 C4.5025334 56.18317942 4.5025334 56.18317942 1.64453125 54.81640625 C1.09966064 54.49969971 0.55479004 54.18299316 -0.0065918 53.85668945 C-4.11228944 50.54977892 -6.36137293 45.27734563 -8.8984375 40.74609375 C-9.50558594 39.69486328 -10.11273438 38.64363281 -10.73828125 37.56054688 C-20.74266003 20.04743501 -20.74266003 20.04743501 -19.44921875 12.57421875 C-18.00651629 8.00427108 -15.50264047 4.75656799 -11.72509766 1.86645508 C-7.73867475 -0.06872408 -4.3758535 -0.01595149 0 0 Z " fill="#464146" transform="translate(244.7734375,152.56640625)"/>
<path d="M0 0 C8.4102935 6.7282348 11.23713398 15.97405388 14 26 C14.53947266 27.57201172 14.53947266 27.57201172 15.08984375 29.17578125 C16.32313651 34.35772808 16.36826334 39.31651519 16.375 44.625 C16.39949219 45.64851563 16.42398438 46.67203125 16.44921875 47.7265625 C16.46687356 52.24619417 16.45723621 55.18019763 14.2265625 59.1796875 C11.10539113 61.73138199 9.50629094 61.59151521 5.62109375 61.35546875 C-4.0097059 60.04935434 -15.29730012 57.60160424 -22 50 C-26.43995287 43.34007069 -27.00275102 37.35924073 -25.53515625 29.515625 C-22.72156475 19.06038558 -16.59626062 6.42996881 -6.91015625 0.78125 C-4.31950249 -0.27832209 -2.77775019 -0.47425003 0 0 Z " fill="#595454" transform="translate(402,35)"/>
<path d="M0 0 C9.19387822 2.96074044 13.68827796 10.50935 17.98828125 18.69140625 C21.90379995 26.74747346 24.75558076 35.51589484 21.99609375 44.41796875 C19.65198153 49.64563324 16.11482834 53.59195642 10.85986328 56.03833008 C8.94247443 56.74114258 7.02008363 57.35646422 5.0625 57.9375 C4.40765625 58.14503906 3.7528125 58.35257813 3.078125 58.56640625 C-1.63353037 60.04475966 -5.92798875 61.33705307 -10.875 61.4375 C-11.63941406 61.46328125 -12.40382813 61.4890625 -13.19140625 61.515625 C-15.86826707 61.10152498 -16.6800402 60.3111863 -18.3125 58.1875 C-23.31033047 43.19400858 -18.47990992 24.13104452 -11.875 10.4375 C-9.14678425 4.99372844 -6.50971375 0.36847436 0 0 Z " fill="#595454" transform="translate(113.3125,34.8125)"/>
<path d="M0 0 C4.81723508 3.45512033 8.88163257 8.81223181 10.265625 14.625 C11.27865934 22.35459079 9.68059882 28.20724356 5.265625 34.625 C1.18059266 39.12877142 -3.17741586 42.2156041 -9.34765625 42.92578125 C-16.77753785 42.95803833 -22.02223443 41.78322126 -28.421875 38.0625 C-33.63090086 32.57190518 -36.04704178 26.68413662 -36.421875 19.125 C-36.13001806 12.43595441 -34.16346854 7.64277053 -29.734375 2.625 C-20.82980047 -4.76136163 -10.11538549 -5.59845235 0 0 Z " fill="#454146" transform="translate(184.734375,153.375)"/>
<path d="M0 0 C6.45559866 2.855118 12.11143136 8.78938216 14.68359375 15.3828125 C15.65030703 22.89264833 15.16099676 29.58388264 11.37890625 36.21875 C7.7040407 40.90970741 2.586137 44.32597619 -3.31640625 45.3828125 C-10.47182284 46.06057711 -16.42644347 45.77445142 -22.31640625 41.3828125 C-27.94050912 36.2188635 -31.35737323 30.301395 -31.81640625 22.5703125 C-31.57331663 15.91573406 -29.18023744 10.12755368 -24.34375 5.4921875 C-22.38462627 3.98347913 -20.44670888 2.63642995 -18.31640625 1.3828125 C-17.69378906 1.00898438 -17.07117188 0.63515625 -16.4296875 0.25 C-11.42727691 -1.8027452 -5.15476305 -1.37344446 0 0 Z " fill="#454146" transform="translate(348.31640625,150.6171875)"/>
<path d="M0 0 C0.66 0.33 1.32 0.66 2 1 C-1.3 4.3 -4.6 7.6 -8 11 C-8 7.0234755 -6.61988497 5.9109833 -4 3 C-1.75 1.1875 -1.75 1.1875 0 0 Z " fill="#B6AFAF" transform="translate(114,12)"/>
</svg>
