<?xml version="1.0" encoding="UTF-8"?>
<svg version="1.1" xmlns="http://www.w3.org/2000/svg" width="512" height="512">
<path d="M0 0 C1.41952217 -0.01058945 1.41952217 -0.01058945 2.86772156 -0.02139282 C42.38370862 -0.24928599 42.38370862 -0.24928599 58.8671875 3.203125 C59.84204102 3.40180176 60.81689453 3.60047852 61.82128906 3.80517578 C80.77670168 7.77030832 100.17365847 12.96761602 117.59765625 21.5859375 C120.74323544 22.44136179 122.00081505 21.70721849 124.8671875 20.203125 C127.0544092 18.90378538 129.22003933 17.56766776 131.3671875 16.203125 C137.62421082 12.22669896 143.2092394 8.7267278 150.8671875 10.203125 C163.72906071 15.38899573 169.84642039 30.33331732 174.9453125 42.2578125 C176.11226691 45.05185702 177.00916028 47.73885926 177.78662109 50.67260742 C180.54703124 60.6362218 184.71517632 66.28850381 192.30123901 73.21908569 C195.18195224 75.8537823 197.97672903 78.57781091 200.78515625 81.2890625 C201.32908524 81.8096373 201.87301422 82.3302121 202.4334259 82.86656189 C208.29404551 88.50300448 213.1720646 94.56490506 217.8671875 101.203125 C218.71263453 102.34538847 219.56036448 103.48596512 220.41015625 104.625 C226.46807033 112.82019549 231.83090047 121.3484329 236.8671875 130.203125 C237.23166992 130.83492676 237.59615234 131.46672852 237.97167969 132.11767578 C259.57753748 169.86595072 269.34416845 212.63252497 269.1796875 255.828125 C269.17753235 256.84603119 269.1753772 257.86393738 269.17315674 258.91268921 C269.12348604 273.52176023 268.87258941 287.85388353 265.8671875 302.203125 C265.56917236 303.66540527 265.56917236 303.66540527 265.26513672 305.15722656 C255.14451556 353.5391024 233.2279998 397.52740769 198.8671875 433.203125 C198.23506348 433.86248047 197.60293945 434.52183594 196.95166016 435.20117188 C187.80721271 444.68942805 178.50984741 453.4293294 167.8671875 461.203125 C166.71613733 462.06118652 165.56509573 462.91925951 164.4140625 463.77734375 C156.22442769 469.81489896 147.72180474 475.19769802 138.8671875 480.203125 C138.15997559 480.6053125 137.45276367 481.0075 136.72412109 481.421875 C113.58872914 494.4472991 88.41756341 503.19613961 62.4296875 508.515625 C61.71079346 508.66298096 60.99189941 508.81033691 60.2512207 508.9621582 C45.57558252 511.75152625 31.05049912 512.55205119 16.13989258 512.51879883 C13.20030263 512.5156471 10.2617317 512.53917426 7.32226562 512.56445312 C-6.05087442 512.60911237 -18.94697961 511.40364042 -32.1328125 509.203125 C-33.83836304 508.92094116 -33.83836304 508.92094116 -35.57836914 508.63305664 C-38.1740747 508.16679902 -40.74556189 507.6480668 -43.3203125 507.078125 C-44.70923706 506.77116699 -44.70923706 506.77116699 -46.1262207 506.45800781 C-90.57690835 496.12218161 -131.31221814 473.81404602 -164.1328125 442.203125 C-164.79216797 441.57100098 -165.45152344 440.93887695 -166.13085938 440.28759766 C-175.61911555 431.14315021 -184.3590169 421.84578491 -192.1328125 411.203125 C-192.99087402 410.05207483 -193.84894701 408.90103323 -194.70703125 407.75 C-200.74458646 399.56036519 -206.12738552 391.05774224 -211.1328125 382.203125 C-211.535 381.49591309 -211.9371875 380.78870117 -212.3515625 380.06005859 C-225.3769866 356.92466664 -234.12582711 331.75350091 -239.4453125 305.765625 C-239.59266846 305.04673096 -239.74002441 304.32783691 -239.8918457 303.5871582 C-242.86570338 287.94086891 -243.50581612 272.46744454 -243.4453125 256.578125 C-243.44315735 255.56021881 -243.4410022 254.54231262 -243.43878174 253.49356079 C-243.38911104 238.88448977 -243.13821441 224.55236647 -240.1328125 210.203125 C-239.93413574 209.22827148 -239.73545898 208.25341797 -239.53076172 207.24902344 C-229.32742517 158.47172468 -206.5784354 109.16002852 -168.90625 75.37890625 C-158.49179299 65.87197056 -153.72096184 58.07758301 -149.88964844 44.6015625 C-146.14903053 32.74742369 -138.41664042 16.87260833 -127.109375 10.95703125 C-121.86513967 8.95675967 -118.79822862 9.51032733 -113.76171875 11.60546875 C-108.58868957 14.04300729 -103.6768607 16.572129 -99.3203125 20.328125 C-96.46719917 22.46801186 -96.46719917 22.46801186 -94.25927734 21.8815918 C-93.56527832 21.62031494 -92.8712793 21.35903809 -92.15625 21.08984375 C-90.96020142 20.65188477 -90.96020142 20.65188477 -89.73999023 20.20507812 C-88.87962158 19.87443359 -88.01925293 19.54378906 -87.1328125 19.203125 C-85.29832655 18.51913024 -83.46368421 17.83555482 -81.62890625 17.15234375 C-80.65324707 16.78641113 -79.67758789 16.42047852 -78.67236328 16.04345703 C-59.28124042 8.8370284 -39.65327125 3.8369108 -19.1328125 1.203125 C-18.13200401 1.07213158 -18.13200401 1.07213158 -17.11097717 0.93849182 C-11.39460774 0.24225009 -5.75538618 0.02856336 0 0 Z " fill="#EEE6E3" transform="translate(243.1328125,-0.203125)"/>
<path d="M0 0 C1.41952217 -0.01058945 1.41952217 -0.01058945 2.86772156 -0.02139282 C42.38370862 -0.24928599 42.38370862 -0.24928599 58.8671875 3.203125 C59.84204102 3.40180176 60.81689453 3.60047852 61.82128906 3.80517578 C82.01752043 8.02986536 102.45927536 13.7115453 120.8671875 23.203125 C120.8671875 23.863125 120.8671875 24.523125 120.8671875 25.203125 C119.43359375 26.578125 119.43359375 26.578125 117.4296875 28.203125 C106.05254071 37.9549651 98.22063464 49.70204983 91.8671875 63.203125 C88.38529993 61.86597426 85.01909806 60.35207625 81.65551758 58.74145508 C68.30744204 52.36973751 55.42851968 48.71961146 40.8671875 46.203125 C40.16932129 46.08163086 39.47145508 45.96013672 38.75244141 45.83496094 C16.98713687 42.20108253 -2.79039174 42.34963677 -21.49609375 55.18359375 C-41.15002833 70.23705179 -53.51342446 90.20541124 -64.1328125 112.265625 C-64.6755481 113.38855957 -64.6755481 113.38855957 -65.22924805 114.53417969 C-67.75572269 119.94813958 -69.54839222 125.44684812 -71.1328125 131.203125 C-70.2042041 131.77015137 -70.2042041 131.77015137 -69.25683594 132.34863281 C-61.16101575 137.36377466 -55.03112774 143.24537295 -51.79296875 152.37109375 C-49.57086758 161.90377626 -50.44941635 171.58141846 -55.1328125 180.203125 C-60.03910991 187.65692298 -66.58531342 192.57853999 -75.1328125 195.203125 C-79.8526835 195.64472259 -84.41129996 195.58028724 -89.1328125 195.203125 C-94.09919822 232.16623587 -96.27819196 269.15376772 -98.25164795 306.37310791 C-99.56332034 331.10528662 -100.928913 355.81268968 -103.17578125 380.48046875 C-103.25615065 381.37138466 -103.33652004 382.26230057 -103.41932487 383.18021393 C-106.21346953 413.81234156 -111.1133685 443.71917634 -123.1328125 472.203125 C-135.96619656 472.203125 -155.38781244 450.62580935 -164.1328125 442.203125 C-164.79216797 441.57100098 -165.45152344 440.93887695 -166.13085938 440.28759766 C-175.61911555 431.14315021 -184.3590169 421.84578491 -192.1328125 411.203125 C-192.99087402 410.05207483 -193.84894701 408.90103323 -194.70703125 407.75 C-200.74458646 399.56036519 -206.12738552 391.05774224 -211.1328125 382.203125 C-211.535 381.49591309 -211.9371875 380.78870117 -212.3515625 380.06005859 C-225.3769866 356.92466664 -234.12582711 331.75350091 -239.4453125 305.765625 C-239.59266846 305.04673096 -239.74002441 304.32783691 -239.8918457 303.5871582 C-242.86570338 287.94086891 -243.50581612 272.46744454 -243.4453125 256.578125 C-243.44315735 255.56021881 -243.4410022 254.54231262 -243.43878174 253.49356079 C-243.38911104 238.88448977 -243.13821441 224.55236647 -240.1328125 210.203125 C-239.93413574 209.22827148 -239.73545898 208.25341797 -239.53076172 207.24902344 C-229.32742517 158.47172468 -206.5784354 109.16002852 -168.90625 75.37890625 C-158.49179299 65.87197056 -153.72096184 58.07758301 -149.88964844 44.6015625 C-146.14903053 32.74742369 -138.41664042 16.87260833 -127.109375 10.95703125 C-121.86513967 8.95675967 -118.79822862 9.51032733 -113.76171875 11.60546875 C-108.58868957 14.04300729 -103.6768607 16.572129 -99.3203125 20.328125 C-96.46719917 22.46801186 -96.46719917 22.46801186 -94.25927734 21.8815918 C-93.56527832 21.62031494 -92.8712793 21.35903809 -92.15625 21.08984375 C-90.96020142 20.65188477 -90.96020142 20.65188477 -89.73999023 20.20507812 C-88.87962158 19.87443359 -88.01925293 19.54378906 -87.1328125 19.203125 C-85.29832655 18.51913024 -83.46368421 17.83555482 -81.62890625 17.15234375 C-80.65324707 16.78641113 -79.67758789 16.42047852 -78.67236328 16.04345703 C-59.28124042 8.8370284 -39.65327125 3.8369108 -19.1328125 1.203125 C-18.13200401 1.07213158 -18.13200401 1.07213158 -17.11097717 0.93849182 C-11.39460774 0.24225009 -5.75538618 0.02856336 0 0 Z " fill="#DFD7D4" transform="translate(243.1328125,-0.203125)"/>
<path d="M0 0 C5.9487348 2.51318872 10.08836061 7.74315975 14.5625 12.25 C15.05899048 12.74798096 15.55548096 13.24596191 16.0670166 13.7590332 C23.67775222 21.41104112 30.70712065 29.2219666 37 38 C37.85019038 39.14555087 38.70178501 40.29006071 39.5546875 41.43359375 C45.60520862 49.62727013 50.96643048 58.15008578 56 67 C56.36448242 67.63180176 56.72896484 68.26360352 57.10449219 68.91455078 C78.71034998 106.66282572 88.47698095 149.42939997 88.3125 192.625 C88.30926727 194.15185928 88.30926727 194.15185928 88.30596924 195.70956421 C88.25629854 210.31863523 88.00540191 224.65075853 85 239 C84.80132324 239.97485352 84.60264648 240.94970703 84.39794922 241.95410156 C77.93990437 272.82694218 66.5898407 300.69253473 51 328 C50.34 327.67 49.68 327.34 49 327 C48.46923828 324.91577148 48.46923828 324.91577148 48.0703125 322.12109375 C47.91691406 321.07115234 47.76351562 320.02121094 47.60546875 318.93945312 C47.44691406 317.78380859 47.28835938 316.62816406 47.125 315.4375 C46.95355469 314.23673828 46.78210938 313.03597656 46.60546875 311.79882812 C45.20761233 301.8658849 43.96640067 291.91386856 42.75054932 281.95724487 C41.63009541 272.78371654 40.3939145 263.63667393 39 254.5 C37.39854735 244.00297833 36.03447123 233.48791726 34.75 222.94873047 C33.62965239 213.7780726 32.39343629 204.63384229 31 195.5 C29.52513998 185.82987985 28.24215051 176.14783673 27.0625 166.4375 C25.7047656 155.26459006 24.17399791 144.12984544 22.5 133 C20.83700316 121.93193035 19.30346369 110.85869804 17.9375 99.75 C17.77193112 98.41559368 17.60624131 97.08120235 17.44042969 95.74682617 C16.65214109 89.37665508 15.88437887 83.00487731 15.14453125 76.62890625 C12.02896986 50.67744017 6.02333446 25.40093006 0 0 Z " fill="#DA4A54" transform="translate(424,63)"/>
<path d="M0 0 C1.25147509 3.57805706 0.73192331 5.91677071 -0.2578125 9.53125 C-0.55429688 10.6553125 -0.85078125 11.779375 -1.15625 12.9375 C-1.77673169 15.21927138 -2.39896494 17.50056761 -3.0234375 19.78125 C-9.06398365 42.71484893 -12.0470629 66.39247586 -15.18422675 89.86194825 C-15.68883122 93.62663559 -16.20049196 97.39036517 -16.71125793 101.15422058 C-17.57723923 107.54238972 -18.43909361 113.93110332 -19.29782104 120.32025146 C-20.52344727 129.43910046 -21.75574399 138.55703838 -22.98980796 147.6747489 C-24.76382526 160.78239731 -26.53449624 173.89049358 -28.30170166 186.99906206 C-30.38641849 202.46280389 -32.47885754 217.92547454 -34.58203125 233.38671875 C-34.71065804 234.33242674 -34.83928482 235.27813473 -34.97180939 236.25250053 C-35.57395489 240.67939364 -36.17628999 245.10626092 -36.77874756 249.53311157 C-37.60240175 255.58602507 -38.42473792 261.63911693 -39.24591064 267.69236755 C-39.61239964 270.39336603 -39.98044101 273.09413822 -40.3493042 275.79481506 C-41.24719514 282.38122837 -42.1294213 288.96909148 -42.9816618 295.56158257 C-43.42790262 299.00778348 -43.87991994 302.45321649 -44.33235359 305.89860916 C-44.54909686 307.56182809 -44.7630064 309.22541902 -44.97393608 310.88938522 C-45.26602151 313.19237313 -45.56765945 315.49392659 -45.87133789 317.79541016 C-45.95588037 318.48236591 -46.04042286 319.16932167 -46.12752724 319.87709427 C-46.58647541 323.28044727 -47.05312767 325.0796915 -49 328 C-72.99988263 285.88523963 -86.49758354 241.98120309 -86.3125 193.375 C-86.31034485 192.35709381 -86.3081897 191.33918762 -86.30596924 190.29043579 C-86.25629854 175.68136477 -86.00540191 161.34924147 -83 147 C-82.80132324 146.02514648 -82.60264648 145.05029297 -82.39794922 144.04589844 C-70.27854375 86.10878554 -41.58917555 41.07921584 0 0 Z " fill="#DA4A54" transform="translate(86,63)"/>
<path d="M0 0 C1.01790619 0.00215515 2.03581238 0.0043103 3.08456421 0.00653076 C17.69363523 0.05620146 32.02575853 0.30709809 46.375 3.3125 C47.34985352 3.51117676 48.32470703 3.70985352 49.32910156 3.91455078 C69.52533293 8.13924036 89.96708786 13.8209203 108.375 23.3125 C108.375 23.9725 108.375 24.6325 108.375 25.3125 C106.94140625 26.6875 106.94140625 26.6875 104.9375 28.3125 C93.56035321 38.0643401 85.72844714 49.81142483 79.375 63.3125 C75.89311243 61.97534926 72.52691056 60.46145125 69.16333008 58.85083008 C55.80509402 52.47426238 42.9363101 48.86566755 28.375 46.3125 C27.12332031 46.08304688 25.87164062 45.85359375 24.58203125 45.6171875 C-11.83525562 39.97786936 -46.10753241 46.86700347 -78.625 63.3125 C-79.181875 62.20132813 -79.73875 61.09015625 -80.3125 59.9453125 C-84.70766926 51.32368333 -89.20780249 43.62288346 -95.625 36.3125 C-96.27339844 35.47847656 -96.92179688 34.64445312 -97.58984375 33.78515625 C-99.54092697 31.41464631 -101.53986227 29.48486707 -103.875 27.5 C-104.58140625 26.89542969 -105.2878125 26.29085938 -106.015625 25.66796875 C-106.81226563 24.99701172 -106.81226563 24.99701172 -107.625 24.3125 C-105.71016178 20.48282355 -100.38956633 19.6050963 -96.5625 18.125 C-95.53406982 17.72643799 -94.50563965 17.32787598 -93.44604492 16.91723633 C-79.03719787 11.44849594 -64.28913714 7.09116984 -49.1875 4 C-48.46860596 3.85264404 -47.74971191 3.70528809 -47.0090332 3.5534668 C-31.36274391 0.57960912 -15.88931954 -0.06050362 0 0 Z " fill="#DA4A54" transform="translate(255.625,-0.3125)"/>
<path d="M0 0 C1.28218414 -0.02398109 1.28218414 -0.02398109 2.590271 -0.04844666 C3.50697571 -0.05380936 4.42368042 -0.05917206 5.36816406 -0.06469727 C6.79615326 -0.07823997 6.79615326 -0.07823997 8.25299072 -0.09205627 C10.26693583 -0.10655406 12.28092798 -0.11544434 14.29492188 -0.11914062 C17.35921831 -0.13100836 20.42148167 -0.18017432 23.48535156 -0.23071289 C25.44627928 -0.24018108 27.40721932 -0.24741422 29.36816406 -0.25219727 C30.73107574 -0.28149574 30.73107574 -0.28149574 32.121521 -0.31138611 C38.45676586 -0.266996 42.77301443 1.16445322 47.63378906 5.30639648 C51.96699444 10.21850042 54.20190274 14.88903722 54.09472656 21.54467773 C53.07699783 27.64242532 49.651135 32.98869771 46.63378906 38.30639648 C46.23240723 39.02021484 45.83102539 39.7340332 45.41748047 40.46948242 C32.48023444 63.34577146 32.48023444 63.34577146 25.63378906 66.30639648 C24.64378906 66.30639648 23.65378906 66.30639648 22.63378906 66.30639648 C22.7903274 74.92228521 22.7903274 74.92228521 26.63378906 82.30639648 C29.88652268 85.04164976 31.89816972 86.21444407 36.13378906 86.74389648 C41.10539454 86.1224458 44.24424789 84.71626001 47.77050781 81.13842773 C50.07727958 77.63232809 50.16150855 75.34677112 50.25878906 71.18139648 C50.43974276 64.59746594 50.43974276 64.59746594 52.63378906 61.30639648 C55.63378906 60.99389648 55.63378906 60.99389648 58.63378906 61.30639648 C61.52012466 64.19273208 60.96849358 66.34337785 61.00878906 70.36889648 C60.95844882 77.92712454 59.99043338 83.59297219 54.83300781 89.29858398 C48.37120367 95.34633078 42.2214984 97.90942421 33.35253906 97.66577148 C29.21651836 97.1190561 26.09716344 95.56370166 22.63378906 93.30639648 C21.80878906 92.77014648 20.98378906 92.23389648 20.13378906 91.68139648 C19.63878906 91.22764648 19.14378906 90.77389648 18.63378906 90.30639648 C18.63378906 89.64639648 18.63378906 88.98639648 18.63378906 88.30639648 C17.98152344 88.78850586 17.32925781 89.27061523 16.65722656 89.76733398 C8.81743782 95.433258 2.48636836 98.69734886 -7.36621094 97.30639648 C-15.86214801 94.50773486 -20.61600096 89.70673245 -25.24121094 82.30639648 C-27.46297076 76.58766558 -26.92489696 69.30682944 -26.36621094 63.30639648 C-24.36621094 61.30639648 -24.36621094 61.30639648 -21.36621094 61.05639648 C-18.36621094 61.30639648 -18.36621094 61.30639648 -16.36621094 63.30639648 C-16.13967424 65.38250493 -16.00732895 67.46944552 -15.92871094 69.55639648 C-15.49697279 76.35860384 -15.49697279 76.35860384 -12.36621094 82.30639648 C-9.12214932 85.10808607 -7.13127094 86.21076398 -2.86621094 86.74389648 C2.0856655 86.12491193 5.1447879 84.553938 8.94628906 81.36889648 C11.56519868 76.61606052 11.46315867 71.65565918 11.63378906 66.30639648 C10.91191406 66.05889648 10.19003906 65.81139648 9.44628906 65.55639648 C3.94225772 63.11016033 0.97999329 59.75797371 -1.95996094 54.57983398 C-2.91708984 52.90727539 -2.91708984 52.90727539 -3.89355469 51.20092773 C-4.5511178 50.02775683 -5.20866982 48.85457972 -5.86621094 47.68139648 C-6.5171875 46.5431543 -7.16816406 45.40491211 -7.83886719 44.23217773 C-19.86565749 23.06988611 -19.86565749 23.06988611 -18.36621094 15.30639648 C-16.21851071 8.65932426 -12.46386396 4.68985791 -6.45159912 1.19273376 C-4.14503406 0.21239129 -2.49772162 0.0354979 0 0 Z " fill="#474247" transform="translate(238.3662109375,156.693603515625)"/>
<path d="M0 0 C7.31809638 5.16787107 12.61923015 12.49849 14.33984375 21.40625 C15.4999409 31.24894924 14.62185813 39.13316235 8.56640625 47.234375 C1.97342421 54.91868683 -4.79788327 59.87026641 -15.14453125 60.8984375 C-23.67996151 61.15801419 -30.2036799 60.58522252 -37.41015625 55.52734375 C-38.39242188 54.84091797 -38.39242188 54.84091797 -39.39453125 54.140625 C-46.03121126 48.96458183 -49.44721832 42.63624892 -51.41015625 34.52734375 C-52.72632693 23.04881673 -50.7796249 14.62131328 -43.8046875 5.40625 C-32.14583251 -7.47110765 -14.36111731 -8.77494526 0 0 Z " fill="#FDFDFD" transform="translate(371.41015625,134.47265625)"/>
<path d="M0 0 C7.64845528 5.46318234 14.23504465 12.48308387 16 22 C16.88188752 33.34888044 15.74780343 42.75274572 8.5 51.8125 C1.39220737 59.06375267 -6.40502292 62.55959213 -16.5 62.75 C-26.16801205 62.58895593 -33.85777983 59.17956915 -41 52.625 C-47.58083325 45.33964932 -50.53008522 36.02439319 -50.24609375 26.28515625 C-49.33737127 17.84701892 -45.26249833 10.12499839 -39.18359375 4.2421875 C-27.5872963 -5.08170419 -13.30609529 -7.23664832 0 0 Z " fill="#FDFDFD" transform="translate(176,133)"/>
<path d="M0 0 C8.4102935 6.7282348 11.23713398 15.97405388 14 26 C14.53753906 27.57201172 14.53753906 27.57201172 15.0859375 29.17578125 C16.32394182 34.35529506 16.4071887 39.31715418 16.4375 44.625 C16.47037109 45.64851563 16.50324219 46.67203125 16.53710938 47.7265625 C16.59040901 55.16912978 16.59040901 55.16912978 13.74609375 59.171875 C9.32931735 62.11220409 6.13966268 61.83668927 1 61 C-8.69995299 58.44949476 -18.08517149 55.66099888 -24 47 C-27.44842851 40.96525011 -26.62043804 33.54850645 -24.875 27.0625 C-21.6373962 17.45509896 -15.98076725 6.07102688 -6.91015625 0.78125 C-4.31950249 -0.27832209 -2.77775019 -0.47425003 0 0 Z " fill="#5A5555" transform="translate(402,35)"/>
<path d="M0 0 C8.64755196 2.59426559 12.90604243 9.24699199 17.08374023 16.86132812 C21.68510878 25.60636786 25.0423557 34.49676548 22.05859375 44.42578125 C19.72396883 49.61275127 16.14002255 53.53232903 10.93847656 55.97607422 C9.03687244 56.6799147 7.13011118 57.29435995 5.1875 57.875 C4.54103516 58.08253906 3.89457031 58.29007813 3.22851562 58.50390625 C-3.09772411 60.49895642 -8.63954567 61.55148092 -15.25 61.125 C-17.92431489 59.31336733 -18.20920359 58.24738923 -19.25 55.125 C-21.00321428 37.24665284 -18.55553046 17.69320033 -7.25 3.125 C-4.52064624 0.67653119 -3.75127575 0.14427984 0 0 Z " fill="#5A5555" transform="translate(113.25,34.875)"/>
<path d="M0 0 C5.76528704 3.21525623 10.11550315 6.40900946 12.25 12.8125 C12.97851149 19.50064017 12.64340464 24.96180234 9.25 30.8125 C4.07356783 36.80626357 -0.73440806 39.47786734 -8.5 40.125 C-14.08978723 40.02110061 -18.44626439 37.9633328 -22.515625 34.1640625 C-27.27471843 28.87361398 -29.26838227 24.30330614 -29.0546875 17.14453125 C-28.11812262 9.97620771 -24.00784313 5.67275553 -18.65234375 1.16015625 C-13.25073656 -2.66644432 -6.00460237 -1.90145742 0 0 Z " fill="#474247" transform="translate(360.75,143.1875)"/>
<path d="M0 0 C4.93484095 3.52915898 9.14866077 7.85953755 10.6875 13.875 C11.50177925 20.38923403 10.55244387 25.50702241 6.6875 30.875 C1.80270435 36.09548065 -2.81475303 38.86016922 -10 39.375 C-16.16525548 39.2459812 -20.58000729 36.68175831 -25.3125 32.875 C-30.2140968 27.59834698 -30.73549096 21.62424671 -30.65234375 14.6953125 C-30.01355136 9.39406991 -27.48364339 5.81836719 -23.5625 2.30859375 C-16.76790984 -2.83127941 -7.62606115 -4.51485973 0 0 Z " fill="#474247" transform="translate(169.3125,144.125)"/>
</svg>
