<?xml version="1.0" encoding="UTF-8"?>
<svg version="1.1" xmlns="http://www.w3.org/2000/svg" width="512" height="512">
<path d="M0 0 C1.41952217 -0.01058945 1.41952217 -0.01058945 2.86772156 -0.02139282 C42.38370862 -0.24928599 42.38370862 -0.24928599 58.8671875 3.203125 C59.84204102 3.40180176 60.81689453 3.60047852 61.82128906 3.80517578 C80.77670168 7.77030832 100.17365847 12.96761602 117.59765625 21.5859375 C120.74323544 22.44136179 122.00081505 21.70721849 124.8671875 20.203125 C127.0544092 18.90378538 129.22003933 17.56766776 131.3671875 16.203125 C137.62421082 12.22669896 143.2092394 8.7267278 150.8671875 10.203125 C163.72906071 15.38899573 169.84642039 30.33331732 174.9453125 42.2578125 C176.11226691 45.05185702 177.00916028 47.73885926 177.78662109 50.67260742 C180.54703124 60.6362218 184.71517632 66.28850381 192.30123901 73.21908569 C195.18195224 75.8537823 197.97672903 78.57781091 200.78515625 81.2890625 C201.32908524 81.8096373 201.87301422 82.3302121 202.4334259 82.86656189 C208.29404551 88.50300448 213.1720646 94.56490506 217.8671875 101.203125 C218.71263453 102.34538847 219.56036448 103.48596512 220.41015625 104.625 C226.46807033 112.82019549 231.83090047 121.3484329 236.8671875 130.203125 C237.23166992 130.83492676 237.59615234 131.46672852 237.97167969 132.11767578 C258.95174664 168.77261181 269.27664377 210.8776779 269.18286133 252.93041992 C269.1797096 255.87000987 269.20323676 258.8085808 269.22851562 261.74804688 C269.27317487 275.12118692 268.06770292 288.01729211 265.8671875 301.203125 C265.58500366 302.90867554 265.58500366 302.90867554 265.29711914 304.64868164 C264.83086152 307.2443872 264.3121293 309.81587439 263.7421875 312.390625 C263.53754883 313.31657471 263.33291016 314.24252441 263.12207031 315.1965332 C252.78624411 359.64722085 230.47810852 400.38253064 198.8671875 433.203125 C198.23506348 433.86248047 197.60293945 434.52183594 196.95166016 435.20117188 C187.80721271 444.68942805 178.50984741 453.4293294 167.8671875 461.203125 C166.71613733 462.06118652 165.56509573 462.91925951 164.4140625 463.77734375 C156.22442769 469.81489896 147.72180474 475.19769802 138.8671875 480.203125 C138.15997559 480.6053125 137.45276367 481.0075 136.72412109 481.421875 C110.57513571 496.14397805 81.55618382 505.83893508 51.8671875 510.203125 C50.66908447 510.38045166 49.47098145 510.55777832 48.23657227 510.74047852 C37.34642673 512.24085289 26.55079692 512.54390327 15.56713867 512.51879883 C12.69996738 512.51564729 9.83384119 512.53917661 6.96679688 512.56445312 C-6.28364316 512.60978114 -19.06743596 511.37579791 -32.1328125 509.203125 C-33.83932983 508.92094116 -33.83932983 508.92094116 -35.58032227 508.63305664 C-38.17530459 508.1666018 -40.74622012 507.6479211 -43.3203125 507.078125 C-44.70923706 506.77116699 -44.70923706 506.77116699 -46.1262207 506.45800781 C-90.57690835 496.12218161 -131.31221814 473.81404602 -164.1328125 442.203125 C-164.79216797 441.57100098 -165.45152344 440.93887695 -166.13085938 440.28759766 C-175.61911555 431.14315021 -184.3590169 421.84578491 -192.1328125 411.203125 C-192.99087402 410.05207483 -193.84894701 408.90103323 -194.70703125 407.75 C-200.74458646 399.56036519 -206.12738552 391.05774224 -211.1328125 382.203125 C-211.535 381.49591309 -211.9371875 380.78870117 -212.3515625 380.06005859 C-227.10502101 353.85538053 -236.63451584 324.91766114 -241.1328125 295.203125 C-241.31013916 294.08429932 -241.48746582 292.96547363 -241.67016602 291.81274414 C-243.35157591 280.09076553 -243.49015591 268.46813524 -243.4453125 256.640625 C-243.44207977 255.11001938 -243.44207977 255.11001938 -243.43878174 253.54849243 C-243.38914602 238.92101976 -243.14200962 224.57048662 -240.1328125 210.203125 C-239.93413574 209.22827148 -239.73545898 208.25341797 -239.53076172 207.24902344 C-229.32742517 158.47172468 -206.5784354 109.16002852 -168.90625 75.37890625 C-158.49179299 65.87197056 -153.72096184 58.07758301 -149.88964844 44.6015625 C-146.14903053 32.74742369 -138.41664042 16.87260833 -127.109375 10.95703125 C-121.86513967 8.95675967 -118.79822862 9.51032733 -113.76171875 11.60546875 C-108.58868957 14.04300729 -103.6768607 16.572129 -99.3203125 20.328125 C-96.46719917 22.46801186 -96.46719917 22.46801186 -94.25927734 21.8815918 C-93.56527832 21.62031494 -92.8712793 21.35903809 -92.15625 21.08984375 C-90.96020142 20.65188477 -90.96020142 20.65188477 -89.73999023 20.20507812 C-88.87962158 19.87443359 -88.01925293 19.54378906 -87.1328125 19.203125 C-85.29832655 18.51913024 -83.46368421 17.83555482 -81.62890625 17.15234375 C-80.65324707 16.78641113 -79.67758789 16.42047852 -78.67236328 16.04345703 C-59.28124042 8.8370284 -39.65327125 3.8369108 -19.1328125 1.203125 C-18.13200401 1.07213158 -18.13200401 1.07213158 -17.11097717 0.93849182 C-11.39460774 0.24225009 -5.75538618 0.02856336 0 0 Z " fill="#EBE3E0" transform="translate(243.1328125,-0.203125)"/>
<path d="M0 0 C1.19778076 -0.00128906 2.39556152 -0.00257813 3.62963867 -0.00390625 C14.29668483 0.12449811 25.69094471 0.33513771 35.3125 5.375 C34.73007059 13.87455754 33.3820128 22.13225463 31.8125 30.5 C29.59131926 42.41822122 28.1323245 53.6206323 28.125 65.75 C28.11275391 66.80960937 28.10050781 67.86921875 28.08789062 68.9609375 C28.06966461 78.87588905 29.01212236 87.81972857 33.625 96.6875 C34.19863281 97.81800781 34.77226562 98.94851563 35.36328125 100.11328125 C44.97160667 116.19134082 63.32368205 123.9686298 80.80078125 128.375 C87.24058507 129.87748177 93.73566118 130.7250764 100.3125 131.375 C98.80740656 136.43325708 95.76027778 139.47986354 92.1875 143.1875 C91.57003906 143.8362207 90.95257813 144.48494141 90.31640625 145.15332031 C88.32428739 147.23626222 86.31928587 149.30619319 84.3125 151.375 C83.65282227 152.06190918 82.99314453 152.74881836 82.31347656 153.45654297 C73.5276113 162.58463081 64.53136882 170.88485164 54.3125 178.375 C53.45857666 179.01211914 53.45857666 179.01211914 52.58740234 179.66210938 C43.84658179 186.17768015 34.80163672 192.01088547 25.3125 197.375 C24.25168213 197.97828125 24.25168213 197.97828125 23.16943359 198.59375 C-2.97955179 213.31585305 -31.99850368 223.01081008 -61.6875 227.375 C-62.88560303 227.55232666 -64.08370605 227.72965332 -65.31811523 227.91235352 C-76.20826077 229.41272789 -87.00389058 229.71577827 -97.98754883 229.69067383 C-100.85472012 229.68752229 -103.72084631 229.71105161 -106.58789062 229.73632812 C-119.83833066 229.78165614 -132.62212346 228.54767291 -145.6875 226.375 C-146.82517822 226.18687744 -147.96285645 225.99875488 -149.13500977 225.80493164 C-151.72999209 225.3384768 -154.30090762 224.8197961 -156.875 224.25 C-157.80094971 224.04536133 -158.72689941 223.84072266 -159.6809082 223.62988281 C-204.13159585 213.29405661 -244.86690564 190.98592102 -277.6875 159.375 C-278.34685547 158.74287598 -279.00621094 158.11075195 -279.68554688 157.45947266 C-289.17301762 148.31578219 -297.87509261 138.98999963 -305.6875 128.375 C-306.22947021 127.78460938 -306.77144043 127.19421875 -307.32983398 126.5859375 C-309.19186898 123.55364315 -308.85494547 121.66266926 -308.51171875 118.14453125 C-308.39231934 116.89752441 -308.27291992 115.65051758 -308.14990234 114.36572266 C-307.38233861 107.57984203 -306.50049102 100.81756183 -305.5 94.0625 C-305.33768387 92.96039688 -305.33768387 92.96039688 -305.17208862 91.83602905 C-297.85306931 42.68379802 -297.85306931 42.68379802 -284.6875 28.375 C-284.19636719 27.82585937 -283.70523438 27.27671875 -283.19921875 26.7109375 C-281.19854371 24.9428991 -279.4720149 24.71351093 -276.83984375 24.8359375 C-266.40755447 27.44874316 -257.6301273 36.93269005 -252.1875 45.75 C-249.6875 50.04521277 -249.6875 50.04521277 -249.6875 52.375 C-245.0675 50.395 -240.4475 48.415 -235.6875 46.375 C-233.44226637 48.62023363 -233.34375141 49.27726027 -232.90625 52.3046875 C-232.78749512 53.09456055 -232.66874023 53.88443359 -232.54638672 54.69824219 C-232.4279541 55.54032227 -232.30952148 56.38240234 -232.1875 57.25 C-231.93010065 58.98183229 -231.67228842 60.71360326 -231.4140625 62.4453125 C-231.2289209 63.7122998 -231.2289209 63.7122998 -231.04003906 65.00488281 C-230.4570159 68.92454268 -229.78379712 72.82827652 -229.1171875 76.734375 C-228.97539062 77.60578125 -228.83359375 78.4771875 -228.6875 79.375 C-228.50574219 80.39207031 -228.32398438 81.40914063 -228.13671875 82.45703125 C-227.52939848 87.75392021 -227.58202072 92.98637593 -227.625 98.3125 C-227.62951172 99.37791016 -227.63402344 100.44332031 -227.63867188 101.54101562 C-227.65038213 104.15240291 -227.66678276 106.76367124 -227.6875 109.375 C-226.89859375 109.35308594 -226.1096875 109.33117187 -225.296875 109.30859375 C-222.6875 109.375 -222.6875 109.375 -220.9375 110.4375 C-219.10844252 113.27253909 -218.99995191 116.06300975 -218.6875 119.375 C-216.74146726 119.96570014 -216.74146726 119.96570014 -214.6875 120.375 C-213.36422028 119.25094198 -213.36422028 119.25094198 -213.25 116.375 C-213.29580306 111.89546107 -215.55153854 109.17700428 -218.08203125 105.63671875 C-221.33835607 101.04934145 -223.65486398 97.33316132 -223.75 91.625 C-222.41304473 87.53548977 -221.3768088 86.57539235 -217.6875 84.375 C-214.34064804 83.81935507 -211.07229872 83.86146467 -207.6875 83.9375 C-206.79804688 83.93041016 -205.90859375 83.92332031 -204.9921875 83.91601562 C-200.11560225 83.96332578 -196.59125406 84.13457915 -192.6875 87.375 C-190.30160077 90.95384885 -190.17248196 92.149852 -190.6875 96.375 C-191.92121687 99.14166956 -193.48893306 101.64278284 -195.125 104.1875 C-195.54587891 104.86748047 -195.96675781 105.54746094 -196.40039062 106.24804688 C-199.44246032 111.12996032 -199.44246032 111.12996032 -200.6875 112.375 C-200.75898199 113.72743917 -200.77149454 115.08334367 -200.75 116.4375 C-200.729375 117.736875 -200.70875 119.03625 -200.6875 120.375 C-199.0375 120.045 -197.3875 119.715 -195.6875 119.375 C-195.501875 117.456875 -195.501875 117.456875 -195.3125 115.5 C-194.9375 111.625 -194.9375 111.625 -192.6875 109.375 C-189.0625 109.75 -189.0625 109.75 -185.6875 110.375 C-186.0175 109.385 -186.3475 108.395 -186.6875 107.375 C-188.41766137 87.13091878 -184.72522224 66.91525595 -179.6875 47.375 C-175.50368173 47.90252491 -172.44049481 48.79368489 -168.8125 50.9375 C-168.03132812 51.39253906 -167.25015625 51.84757812 -166.4453125 52.31640625 C-165.57519531 52.84041016 -165.57519531 52.84041016 -164.6875 53.375 C-164.5328125 52.28638672 -164.5328125 52.28638672 -164.375 51.17578125 C-161.84451286 40.86692172 -151.71412786 32.66826963 -143.0625 27.3125 C-140.09672726 25.80901798 -138.4643449 25.35576249 -135.0625 25.0625 C-128.15263683 27.74966901 -125.04346616 33.19757017 -122.11352539 39.79614258 C-116.30830546 53.5032559 -117.51814908 65.1723065 -119.62109375 79.72265625 C-119.82119518 81.15170978 -120.02056746 82.58086558 -120.21925354 84.01011658 C-120.6334096 86.97652294 -121.05319467 89.94205156 -121.4777832 92.90698242 C-122.02121686 96.70199498 -122.55490081 100.49829479 -123.08500576 104.29518986 C-123.59393215 107.93811668 -124.10718638 111.58042925 -124.62109375 115.22265625 C-124.718085 115.91203844 -124.81507626 116.60142063 -124.91500664 117.31169319 C-125.19024061 119.26159751 -125.46894434 121.21101111 -125.74780273 123.16040039 C-125.90546616 124.2670253 -126.06312958 125.37365021 -126.22557068 126.5138092 C-126.60307958 128.85209983 -127.06265814 131.09297356 -127.6875 133.375 C-97.35446918 132.96547584 -61.35491643 131.23144186 -37.98046875 109.0390625 C-25.55272939 94.60001949 -22.61302582 76.58734926 -23.47900391 58.0546875 C-24.49116008 45.04599178 -27.19728937 32.11365476 -30.09375 19.41015625 C-31.06679038 14.43612748 -31.41899885 9.43022848 -31.6875 4.375 C-21.13589498 0.95450865 -11.08765733 -0.01138729 0 0 Z " fill="#9B9595" transform="translate(356.6875,282.625)"/>
<path d="M0 0 C9.07671854 3.60462985 16.79922735 8.39840011 24 15 C24.54156738 15.49387207 25.08313477 15.98774414 25.64111328 16.49658203 C36.96797547 26.94805879 44.92843683 37.75209185 51 52 C51.56920166 51.73783691 52.13840332 51.47567383 52.72485352 51.20556641 C55.33506906 50.00688714 57.94872721 48.81590137 60.5625 47.625 C61.45775391 47.2125 62.35300781 46.8 63.27539062 46.375 C68.13308439 44.16857499 72.82106681 42.29295726 78 41 C79.79056955 42.79056955 79.66280944 45.49578361 80.05078125 47.921875 C80.2526001 49.16404785 80.45441895 50.4062207 80.66235352 51.68603516 C80.76830841 52.34855286 80.87426331 53.01107056 80.98342896 53.69366455 C81.5371844 57.15403265 82.10328758 60.61235408 82.671875 64.0703125 C82.78511612 64.75930634 82.89835724 65.44830017 83.01502991 66.15817261 C83.92855718 71.66931628 84.97012353 77.14715849 86.0625 82.625 C92.70067296 116.91602097 98.77576768 155.34171325 79.6875 186.875 C75.94075508 192.36748102 71.65663727 197.26416822 67 202 C66.32453125 202.68835938 65.6490625 203.37671875 64.953125 204.0859375 C31.76963909 235.6476741 -24.96760937 238.94346289 -68 238 C-68.28621677 231.35977099 -67.19048987 225.04126291 -66.125 218.5 C-65.75419123 216.1564107 -65.38439255 213.81266135 -65.015625 211.46875 C-64.74975586 209.78652344 -64.74975586 209.78652344 -64.47851562 208.0703125 C-63.33607197 200.74002096 -62.34655032 193.39106927 -61.578125 186.01171875 C-60.51077314 175.79211791 -59.06184068 165.67195739 -57.46142578 155.52172852 C-56.52837888 149.56301101 -55.66932273 143.61902407 -55 137.625 C-42.54915629 26.54963985 -42.54915629 26.54963985 -14.1953125 3.53515625 C-9.65496705 0.34631441 -5.55384873 -1.41568693 0 0 Z " fill="#736E6E" transform="translate(126,10)"/>
<path d="M0 0 C15.48070776 8.99664169 23.28127816 31.76089733 27.80078125 48.11328125 C28.86456613 52.33827303 29.83713098 56.58329534 30.80078125 60.83203125 C31.69302822 64.72864105 32.72906304 68.57429394 33.80078125 72.42578125 C38.05984797 88.27619034 40.51956511 104.31091931 42.49365234 120.58642578 C43.73860139 130.82905108 45.22086084 141.03325863 46.73828125 151.23828125 C46.91351318 152.41793457 47.08874512 153.59758789 47.26928711 154.81298828 C48.2379182 161.33459204 48.2379182 161.33459204 49.21142578 167.85546875 C51.75648095 184.89771559 53.77392882 202.00340018 55.80078125 219.11328125 C55.92372559 220.1492041 56.04666992 221.18512695 56.17333984 222.25244141 C56.72102171 226.87212569 57.26311318 231.49241924 57.80078125 236.11328125 C29.67601281 236.80060523 0.98828341 236.19605216 -26.19921875 228.11328125 C-26.9149707 227.90477539 -27.63072266 227.69626953 -28.36816406 227.48144531 C-54.25005634 219.83124206 -78.68500293 206.32550199 -92.21777344 182.02832031 C-111.9750446 143.47706783 -99.77133748 97.47677064 -91.66943359 57.44110107 C-90.92401355 53.75086547 -90.18656104 50.05904409 -89.44921875 46.3671875 C-89.206875 45.15490479 -88.96453125 43.94262207 -88.71484375 42.69360352 C-88.45960938 41.41634399 -88.45960938 41.41634399 -88.19921875 40.11328125 C-71.66350973 46.01744238 -71.66350973 46.01744238 -64.80078125 50.23046875 C-63.21209044 51.27419408 -63.21209044 51.27419408 -61.19921875 51.11328125 C-60.72613281 50.08589844 -60.25304687 49.05851562 -59.765625 48 C-53.50255039 34.73871799 -45.33743675 23.81974344 -34.19921875 14.11328125 C-33.53921875 14.11328125 -32.87921875 14.11328125 -32.19921875 14.11328125 C-32.02003906 13.54867188 -31.84085937 12.9840625 -31.65625 12.40234375 C-29.47106243 8.96931448 -26.36781893 7.47937763 -22.88671875 5.48828125 C-22.22220703 5.09382812 -21.55769531 4.699375 -20.87304688 4.29296875 C-14.22152608 0.39811186 -7.70539861 -3.10679482 0 0 Z " fill="#9B9595" transform="translate(396.19921875,10.88671875)"/>
<path d="M0 0 C1.19778076 -0.00128906 2.39556152 -0.00257813 3.62963867 -0.00390625 C14.29668483 0.12449811 25.69094471 0.33513771 35.3125 5.375 C34.73007059 13.87455754 33.3820128 22.13225463 31.8125 30.5 C29.59131926 42.41822122 28.1323245 53.6206323 28.125 65.75 C28.11275391 66.80960937 28.10050781 67.86921875 28.08789062 68.9609375 C28.06966461 78.87588905 29.01212236 87.81972857 33.625 96.6875 C34.19863281 97.81800781 34.77226562 98.94851563 35.36328125 100.11328125 C44.97160667 116.19134082 63.32368205 123.9686298 80.80078125 128.375 C87.24058507 129.87748177 93.73566118 130.7250764 100.3125 131.375 C98.80740656 136.43325708 95.76027778 139.47986354 92.1875 143.1875 C91.57003906 143.8362207 90.95257813 144.48494141 90.31640625 145.15332031 C88.32428739 147.23626222 86.31928587 149.30619319 84.3125 151.375 C83.65282227 152.06190918 82.99314453 152.74881836 82.31347656 153.45654297 C73.5276113 162.58463081 64.53136882 170.88485164 54.3125 178.375 C53.74321777 178.79974609 53.17393555 179.22449219 52.58740234 179.66210938 C43.84658179 186.17768015 34.80163672 192.01088547 25.3125 197.375 C24.25168213 197.97828125 24.25168213 197.97828125 23.16943359 198.59375 C-6.67409504 215.39591259 -40.46581796 226.16154094 -74.6875 228.375 C-74.64262451 227.66859375 -74.59774902 226.9621875 -74.55151367 226.234375 C-73.3675314 207.45579696 -72.29223338 188.67124138 -71.26797485 169.88330078 C-71.13180661 167.39267378 -70.99443115 164.90211247 -70.85580444 162.41162109 C-70.65813086 158.85272288 -70.46520789 155.29359563 -70.2734375 151.734375 C-70.21415573 150.68111023 -70.15487396 149.62784546 -70.09379578 148.54266357 C-69.70266199 141.1480003 -69.62419236 133.77927454 -69.6875 126.375 C-68.72070312 126.01148438 -67.75390625 125.64796875 -66.7578125 125.2734375 C-48.80599888 118.39876667 -36.19881569 109.96913459 -27.6875 92.375 C-18.92898311 69.03874821 -24.75356644 42.8315048 -30.09375 19.41015625 C-31.06679038 14.43612748 -31.41899885 9.43022848 -31.6875 4.375 C-21.13589498 0.95450865 -11.08765733 -0.01138729 0 0 Z " fill="#9B9595" transform="translate(356.6875,282.625)"/>
<path d="M0 0 C1.28017196 2.56034393 0.81361779 3.2571955 -0.00390625 5.953125 C-0.24713623 6.78448975 -0.49036621 7.61585449 -0.7409668 8.47241211 C-1.14762573 9.84731812 -1.14762573 9.84731812 -1.5625 11.25 C-7.41370457 31.90100557 -11.18544399 52.97447552 -13.67333984 74.27636719 C-14.22786902 78.89993037 -14.86502959 83.51191152 -15.5 88.125 C-15.6232666 89.02895508 -15.7465332 89.93291016 -15.87353516 90.86425781 C-16.4921767 95.38366537 -17.12692531 99.9002459 -17.78515625 104.4140625 C-18.96332511 112.49619771 -20.09895358 120.56240219 -20.9375 128.6875 C-21.83056164 137.28847588 -23.14480318 145.81381295 -24.50366211 154.35229492 C-25.3383692 159.61304353 -26.1309766 164.87392587 -26.82446289 170.15527344 C-27.77989065 177.38188072 -28.75775858 184.60535972 -29.73999023 191.82836914 C-29.90233689 193.02235195 -30.06468355 194.21633476 -30.23194981 195.44649887 C-30.66677791 198.64353235 -31.10174499 201.84054689 -31.53678775 205.03755116 C-31.9986279 208.43178905 -32.46024508 211.82605725 -32.92189026 215.22032166 C-33.69755286 220.92318458 -34.47335839 226.62602804 -35.24926758 232.32885742 C-36.33298953 240.29407205 -37.4164442 248.25932301 -38.49984825 256.22458088 C-39.35270813 262.49478019 -40.20564873 268.76496852 -41.05859375 275.03515625 C-41.235809 276.3379207 -41.41302425 277.64068516 -41.59560966 278.98292732 C-41.7684907 280.25378119 -41.94137173 281.52463505 -42.11949158 282.83399963 C-42.28834901 284.07611426 -42.45720644 285.31822889 -42.63118076 286.59798336 C-42.95928299 289.00759177 -43.28838606 291.41706416 -43.61858273 293.82638645 C-44.3827606 299.40943306 -45.13142445 304.99348363 -45.84133911 310.58370972 C-45.9736622 311.60684234 -46.10598528 312.62997496 -46.24231815 313.6841116 C-46.48751008 315.58518237 -46.72660322 317.48705398 -46.95835781 319.38980961 C-47.06681058 320.2224052 -47.17526335 321.05500078 -47.28700256 321.91282654 C-47.37712647 322.6344419 -47.46725039 323.35605726 -47.56010532 324.09953976 C-48 326 -48 326 -50 329 C-67.3007714 298.64077478 -79.47388296 267.63801236 -85 233 C-85.18618896 231.84282471 -85.37237793 230.68564941 -85.56420898 229.4934082 C-87.24034055 217.81563786 -87.35717241 206.21990747 -87.3125 194.4375 C-87.30926727 192.90689438 -87.30926727 192.90689438 -87.30596924 191.34536743 C-87.25633352 176.71789476 -87.00919712 162.36736162 -84 148 C-83.80132324 147.02514648 -83.60264648 146.05029297 -83.39794922 145.04589844 C-71.14514142 86.47105245 -41.9840554 41.50335017 0 0 Z " fill="#90D7F8" transform="translate(87,62)"/>
<path d="M0 0 C13.80208802 11.51404134 26.44472727 24.44541852 37 39 C37.85491814 40.14884745 38.71039429 41.29727984 39.56640625 42.4453125 C45.60951198 50.63748622 50.96914599 59.15486012 56 68 C56.36448242 68.63180176 56.72896484 69.26360352 57.10449219 69.91455078 C78.08455914 106.56948681 88.40945627 148.6745529 88.31567383 190.72729492 C88.3125221 193.66688487 88.33604926 196.6054558 88.36132812 199.54492188 C88.40598737 212.91806192 87.20051542 225.81416711 85 239 C84.81187744 240.13703369 84.62375488 241.27406738 84.42993164 242.44555664 C83.96367402 245.0412622 83.4449418 247.61274939 82.875 250.1875 C82.67036133 251.11344971 82.46572266 252.03939941 82.25488281 252.9934082 C77.21543518 274.66626806 69.01606629 295.18834686 59 315 C58.67 315 58.34 315 58 315 C57.92483154 314.31711914 57.84966309 313.63423828 57.7722168 312.93066406 C53.3884337 259.83119286 53.3884337 259.83119286 34.48046875 211.01171875 C30.54370077 203.00314852 30.26210694 193.180743 29.125 184.4375 C28.95355469 183.13973633 28.78210938 181.84197266 28.60546875 180.50488281 C27.23324372 170.06135441 25.98923482 159.6035519 24.75054932 149.14352417 C23.54723104 139.02487156 22.11736559 128.96065606 20.50219727 118.89892578 C19.09707555 109.99729731 17.99357825 101.07314296 16.9375 92.125 C15.50785615 80.04594729 13.97236664 68.00435538 12 56 C11.85062988 55.0807373 11.70125977 54.16147461 11.54736328 53.21435547 C8.89777742 37.03439715 5.86903253 21.14052192 0.734375 5.5390625 C0 3 0 3 0 0 Z " fill="#90D7F8" transform="translate(424,62)"/>
<path d="M0 0 C13.58374153 5.19318454 23.91467568 15.58900333 31 28 C31.72648856 29.97905503 32.41402327 31.97488871 33 34 C33.79664063 33.59007812 34.59328125 33.18015625 35.4140625 32.7578125 C36.47367187 32.21898437 37.53328125 31.68015625 38.625 31.125 C39.66914063 30.59132813 40.71328125 30.05765625 41.7890625 29.5078125 C44.82093899 28.08408461 47.81782444 27.02964166 51 26 C51.96451121 31.01222012 52.92458041 36.02526523 53.88085938 41.0390625 C54.20553949 42.738179 54.5313514 44.43707969 54.85839844 46.13574219 C60.40183122 74.94118739 60.40183122 74.94118739 60.25 86.0625 C60.23876099 87.19872803 60.23876099 87.19872803 60.22729492 88.35791016 C59.89225139 106.06842347 54.9523099 121.5052623 42.0625 134.125 C18.43643153 153.98052444 -15.71956833 155.88604658 -45 155 C-43.57790273 140.20820098 -41.60574624 125.52088495 -39.5 110.8125 C-38.88361741 106.48593128 -38.26945838 102.15905088 -37.65625 97.83203125 C-37.5087178 96.79541855 -37.36118561 95.75880585 -37.20918274 94.69078064 C-36.39186037 88.91218026 -35.63633511 83.13129884 -34.94921875 77.3359375 C-27.48893738 16.520829 -27.48893738 16.520829 -8 1 C-5.1957367 -0.40213165 -3.1144647 -0.20915209 0 0 Z " fill="#DFD7D4" transform="translate(274,261)"/>
<path d="M0 0 C17.01329972 11.09563025 21.43415521 36.10096972 25.55566406 54.47753906 C26.39374943 58.58832061 27.07519048 62.71591371 27.68505859 66.86621094 C28.02916686 69.19761112 28.39843399 71.52431138 28.76953125 73.8515625 C30.06582928 82.08953254 31.22556119 90.34110213 32.1875 98.625 C32.27136963 99.32230225 32.35523926 100.01960449 32.44165039 100.73803711 C32.67183984 102.82414447 32.84643 104.90689774 33 107 C33.07283203 107.804375 33.14566406 108.60875 33.22070312 109.4375 C33.57993534 116.20564317 31.86866366 120.20130017 28.125 125.75 C27.6312085 126.51715332 27.13741699 127.28430664 26.62866211 128.07470703 C25.11444572 130.40386208 23.56559328 132.705124 22 135 C21.52546387 135.69899414 21.05092773 136.39798828 20.56201172 137.11816406 C17.80143129 141.15293376 14.99989876 145.13916772 12 149 C11.38253906 149.79535156 10.76507813 150.59070313 10.12890625 151.41015625 C8 153 8 153 4.9609375 153.12890625 C-16.44004123 149.74857737 -39.99058774 143.94629625 -54.25 126.25 C-62.82315061 113.80431829 -65.39241277 101.98033402 -65.3125 87.0625 C-65.30831055 85.97275879 -65.30412109 84.88301758 -65.29980469 83.76025391 C-65.17316463 74.53843243 -64.1385897 65.69002772 -62.47509766 56.63183594 C-61.9438855 53.68914989 -61.46030062 50.74054955 -60.98046875 47.7890625 C-60.63379304 45.69254596 -60.28615344 43.59618855 -59.9375 41.5 C-59.77540039 40.51370605 -59.61330078 39.52741211 -59.44628906 38.51123047 C-59.28741211 37.58971191 -59.12853516 36.66819336 -58.96484375 35.71875 C-58.8268335 34.90341797 -58.68882324 34.08808594 -58.54663086 33.24804688 C-57.98465237 30.93688211 -57.14480216 29.0772404 -56 27 C-51.66695924 27.64465202 -48.13327935 29.18925122 -44.1875 31.0625 C-43.02605469 31.61035156 -41.86460937 32.15820312 -40.66796875 32.72265625 C-39.78753906 33.14417969 -38.90710938 33.56570313 -38 34 C-37.71898437 33.09507812 -37.43796875 32.19015625 -37.1484375 31.2578125 C-32.97465885 19.41790981 -20.61832873 6.8784219 -9.5625 1.25 C-3.79354839 -0.77419355 -3.79354839 -0.77419355 0 0 Z " fill="#EEE6E3" transform="translate(449,262)"/>
<path d="M0 0 C1.71975685 2.57963528 2.91174003 4.94594055 4.1875 7.75 C10.16091804 19.69683608 21.25931177 25.40117218 33.40234375 29.90234375 C38.77949449 31.54292937 44.22051915 32.51577122 49.76171875 33.421875 C53 34 53 34 55 35 C53.1044062 52.47786249 51.1561837 69.91384206 48.36914062 87.27636719 C46.99940483 95.82758927 45.91149633 104.38875839 45 113 C19.09653992 108.43077747 -5.22873851 101.34196266 -29 90 C-30.14106201 89.45738525 -30.14106201 89.45738525 -31.30517578 88.90380859 C-57.61893276 76.17669973 -82.19876531 57.5013407 -102 36 C-102 35.67 -102 35.34 -102 35 C-101.01902344 34.84144531 -100.03804688 34.68289063 -99.02734375 34.51953125 C-81.84911418 31.60749408 -63.35459884 27.25747139 -52 13 C-50.14021497 10.08331275 -48.5002131 7.11582721 -47 4 C-46.34 4 -45.68 4 -45 4 C-44.4121875 5.60875 -44.4121875 5.60875 -43.8125 7.25 C-41.97096773 11.58198545 -39.19882519 13.90058741 -35 16 C-30.57515032 16.24582498 -27.88534522 16.00966132 -24 14 C-21.69202999 14.33940736 -20.08489539 14.95755231 -18 16 C-12.77050726 16.40226867 -9.39315425 15.9287695 -5 13 C-1.47342864 8.80623946 -0.43422712 5.42783897 0 0 Z " fill="#EEE6E3" transform="translate(172,397)"/>
<path d="M0 0 C1.01790619 0.00215515 2.03581238 0.0043103 3.08456421 0.00653076 C17.69363523 0.05620146 32.02575853 0.30709809 46.375 3.3125 C47.34985352 3.51117676 48.32470703 3.70985352 49.32910156 3.91455078 C69.52533293 8.13924036 89.96708786 13.8209203 108.375 23.3125 C108.375 23.9725 108.375 24.6325 108.375 25.3125 C106.9765625 26.65234375 106.9765625 26.65234375 105 28.25 C93.23573171 38.37515507 86.14763357 49.52031393 79.375 63.3125 C75.77303902 61.92261288 72.33978954 60.32479595 68.875 58.625 C54.00911445 51.7715748 38.62898481 47.22836893 22.375 45.3125 C21.26523804 45.1743689 21.26523804 45.1743689 20.13305664 45.03344727 C-15.00688512 41.0397012 -47.2476851 47.47990991 -78.625 63.3125 C-79.181875 62.20132813 -79.73875 61.09015625 -80.3125 59.9453125 C-87.49777886 45.83675942 -96.31791806 35.28036948 -107.625 24.3125 C-105.71016178 20.48282355 -100.38956633 19.6050963 -96.5625 18.125 C-95.53406982 17.72643799 -94.50563965 17.32787598 -93.44604492 16.91723633 C-79.03719787 11.44849594 -64.28913714 7.09116984 -49.1875 4 C-48.46860596 3.85264404 -47.74971191 3.70528809 -47.0090332 3.5534668 C-31.36274391 0.57960912 -15.88931954 -0.06050362 0 0 Z " fill="#90D7F8" transform="translate(255.625,-0.3125)"/>
<path d="M0 0 C0.33 0 0.66 0 1 0 C1.14099121 0.82612793 1.28198242 1.65225586 1.42724609 2.50341797 C1.95916473 5.61607862 2.49235686 8.72851789 3.02636719 11.84082031 C3.36749597 13.831216 3.70720152 15.82185544 4.046875 17.8125 C5.45101847 25.99102157 5.45101847 25.99102157 7.03125 34.13671875 C13.62834784 66.55406881 17.61855509 103.25339624 -0.3125 132.875 C-4.05924492 138.36748102 -8.34336273 143.26416822 -13 148 C-13.67546875 148.68835938 -14.3509375 149.37671875 -15.046875 150.0859375 C-24.5776486 159.15092141 -43.23613275 172 -57 172 C-57.33678288 163.84237032 -56.22114137 155.92888416 -55.08349609 147.87402344 C-54.75484669 145.5345016 -54.4412381 143.19331125 -54.12890625 140.8515625 C-52.95731006 132.31468436 -51.46204436 123.97324046 -49.28265381 115.6307373 C-48.27063127 111.66470636 -47.68838344 108.09422097 -48 104 C-49.30968795 102.36655067 -49.30968795 102.36655067 -51.1875 101.25 C-56.55282269 97.14710618 -58.90610886 91.28167343 -61 85 C-61.86761931 76.32380695 -60.5145849 69.88910078 -55.421875 62.8046875 C-51.97386385 58.59562884 -48.28030902 54.72878445 -43 53 C-41.96617187 52.9690625 -40.93234375 52.938125 -39.8671875 52.90625 C-35.77942911 52.65469564 -32.38458424 52.37079011 -29 50 C-25.0945143 44.90788833 -22.64818855 38.91531646 -19.9609375 33.125 C-17.31869647 27.4476328 -14.18707341 22.42505664 -10.5 17.375 C-10.00741699 16.69614746 -9.51483398 16.01729492 -9.00732422 15.31787109 C-6.97134352 12.55329765 -4.88823396 9.86447417 -2.703125 7.21484375 C-0.82266399 4.76938184 -0.34685833 3.03501035 0 0 Z " fill="#9B9595" transform="translate(206,64)"/>
<path d="M0 0 C0.07691671 8.16889654 -0.13591363 16.28160102 -0.5859375 24.4375 C-0.64714783 25.58925217 -0.70835815 26.74100433 -0.77142334 27.92765808 C-0.96892437 31.61864899 -1.17155116 35.30933251 -1.375 39 C-1.44313904 40.25245514 -1.51127808 41.50491028 -1.58148193 42.7953186 C-2.35112313 56.93092586 -3.12782891 71.06582662 -4.125 85.1875 C-4.20024902 86.26322266 -4.27549805 87.33894531 -4.35302734 88.44726562 C-4.6722254 92.71949852 -5.10172166 96.80478988 -6 101 C-8.84343707 101.80720274 -11.37872005 102.13010264 -14.33105469 102.14526367 C-15.18004333 102.15164352 -16.02903198 102.15802338 -16.90374756 102.16459656 C-17.81722961 102.16570938 -18.73071167 102.1668222 -19.671875 102.16796875 C-20.62709045 102.17129715 -21.58230591 102.17462555 -22.56646729 102.17805481 C-24.59394857 102.18311825 -26.62143818 102.18546331 -28.64892578 102.18530273 C-31.69708794 102.18746251 -34.74487191 102.20554949 -37.79296875 102.22460938 C-49.033038 102.25596579 -59.89025169 101.7845564 -71 100 C-71.3206131 91.78636733 -70.32160076 83.92736053 -69.125 75.8125 C-68.75372396 73.2135677 -68.38262797 70.61460967 -68.01171875 68.015625 C-67.74560791 66.17581055 -67.74560791 66.17581055 -67.47412109 64.29882812 C-66.93622917 60.55629688 -66.42922128 56.81134945 -65.9375 53.0625 C-65.79054687 51.95777344 -65.64359375 50.85304688 -65.4921875 49.71484375 C-65.2191383 47.65397241 -64.94670195 45.59301864 -64.67675781 43.53173828 C-63.07038104 31.29466813 -61.26883417 19.13263096 -59 7 C-57.96166016 6.94054199 -57.96166016 6.94054199 -56.90234375 6.87988281 C-31.18909216 5.39959742 -31.18909216 5.39959742 -5.95678711 0.44360352 C-4 0 -4 0 0 0 Z " fill="#736E6E" transform="translate(288,410)"/>
<path d="M0 0 C1.19778076 -0.00128906 2.39556152 -0.00257813 3.62963867 -0.00390625 C14.29668483 0.12449811 25.69094471 0.33513771 35.3125 5.375 C34.73007059 13.87455754 33.3820128 22.13225463 31.8125 30.5 C29.59203769 42.41436634 28.14338362 53.5628479 28.1875 65.6875 C28.18363281 66.73873047 28.17976563 67.78996094 28.17578125 68.87304688 C28.1835858 75.22205138 28.50174436 81.45364697 29.1652832 87.76879883 C29.52481586 94.13365976 27.48384314 99.54502374 23.3125 104.375 C19.20955242 107.45453662 15.63449136 108.70993001 10.5 108.25 C7.29942425 107.78549166 6.12218276 107.24812184 3.3125 105.375 C0.67815746 105.69626128 -1.31460097 106.18855048 -3.6875 107.375 C-8.99885952 107.90440021 -13.36022741 108.03863629 -18.1875 105.625 C-21.44733476 102.69114872 -23.29845276 100.54214171 -24.6875 96.375 C-24.78469057 93.5936346 -24.82667492 90.84314773 -24.8125 88.0625 C-24.81636719 87.31548828 -24.82023437 86.56847656 -24.82421875 85.79882812 C-24.81672346 81.53025914 -24.4196492 77.58904957 -23.6875 73.375 C-22.4920348 55.09026178 -26.04470199 37.16875269 -30.09375 19.41015625 C-31.06679038 14.43612748 -31.41899885 9.43022848 -31.6875 4.375 C-21.13589498 0.95450865 -11.08765733 -0.01138729 0 0 Z " fill="#9A9494" transform="translate(356.6875,282.625)"/>
<path d="M0 0 C10.43228928 2.61280566 19.20971645 12.09675255 24.65234375 20.9140625 C27.15234375 25.20927527 27.15234375 25.20927527 27.15234375 27.5390625 C31.77234375 25.5590625 36.39234375 23.5790625 41.15234375 21.5390625 C43.15234375 23.5390625 43.15234375 23.5390625 43.83984375 26.8515625 C43.7245644 32.63648982 39.83103523 36.77732367 36.51953125 41.20703125 C34.31162175 44.19527755 32.73166533 47.2957354 31.15234375 50.6640625 C28.79906765 55.18758212 28.79906765 55.18758212 25.99609375 56.7109375 C24.45907012 57.17204459 22.9055177 57.58184605 21.33984375 57.93359375 C17.76563646 58.92288327 15.78044855 60.97666032 13.15234375 63.5390625 C11.30726831 67.22921338 11.79949445 71.50296174 12.15234375 75.5390625 C13.69462841 79.65182159 14.48905782 81.09687188 18.15234375 83.5390625 C17.48222806 89.92449179 16.63291232 96.2569926 15.65234375 102.6015625 C14.73366535 108.57297208 13.87358024 114.5403167 13.15234375 120.5390625 C10.65510923 121.21792237 8.15538234 121.88223677 5.65234375 122.5390625 C4.60820313 122.82523438 4.60820313 122.82523438 3.54296875 123.1171875 C-7.95708268 126.09868232 -7.95708268 126.09868232 -12.7734375 123.5 C-13.45986328 122.71496094 -13.45986328 122.71496094 -14.16015625 121.9140625 C-14.71832031 121.28628906 -15.27648437 120.65851563 -15.8515625 120.01171875 C-16.51027344 119.19574219 -17.16898438 118.37976563 -17.84765625 117.5390625 C-18.50483643 116.72671143 -18.50483643 116.72671143 -19.17529297 115.89794922 C-22.45705718 111.82254852 -25.67859798 107.70266565 -28.84765625 103.5390625 C-29.67148804 102.6426001 -29.67148804 102.6426001 -30.51196289 101.72802734 C-32.35282142 98.71118626 -32.01275296 96.80265652 -31.671875 93.30859375 C-31.55247559 92.06158691 -31.43307617 90.81458008 -31.31005859 89.52978516 C-30.54249486 82.74390453 -29.66064727 75.98162433 -28.66015625 69.2265625 C-28.49784012 68.12445938 -28.49784012 68.12445938 -28.33224487 67.00009155 C-21.01322556 17.84786052 -21.01322556 17.84786052 -7.84765625 3.5390625 C-7.35652344 2.98992187 -6.86539063 2.44078125 -6.359375 1.875 C-4.35869996 0.1069616 -2.63217115 -0.12242657 0 0 Z " fill="#746F6F" transform="translate(79.84765625,307.4609375)"/>
<path d="M0 0 C1.20629059 -0.00855011 1.20629059 -0.00855011 2.43695068 -0.01727295 C4.14171024 -0.02672801 5.84648811 -0.03325894 7.55126953 -0.03710938 C10.14779044 -0.04678525 12.7435097 -0.07779063 15.33984375 -0.109375 C16.99739114 -0.11590819 18.65494419 -0.12115742 20.3125 -0.125 C21.08458801 -0.1373468 21.85667603 -0.1496936 22.65216064 -0.16241455 C28.14537472 -0.13995019 32.40104274 0.84994904 36.56640625 4.73828125 C41.13968016 10.71871637 41.87396564 14.69951959 40.921875 22.203125 C39.40612272 26.49276388 37.20679091 30.27903028 34.921875 34.203125 C34.11575875 35.65676069 33.31116256 37.11124001 32.5078125 38.56640625 C31.64810494 40.0924278 30.7861307 41.61717465 29.921875 43.140625 C29.31786865 44.2236792 29.31786865 44.2236792 28.70166016 45.32861328 C26.00160807 49.96299871 23.34943275 53.12910053 18.921875 56.203125 C17.931875 56.203125 16.941875 56.203125 15.921875 56.203125 C16.03675248 57.78722494 16.16422008 59.37041463 16.296875 60.953125 C16.40128906 62.27570313 16.40128906 62.27570313 16.5078125 63.625 C16.93010307 66.2543564 17.49238269 67.96650438 18.921875 70.203125 C23.1477535 73.02037733 26.95812188 73.00270884 31.921875 72.203125 C34.74611788 70.01289582 36.33696103 68.37295293 37.921875 65.203125 C38.19758979 62.12212159 38.36851033 59.04141024 38.54296875 55.953125 C38.921875 53.203125 38.921875 53.203125 40.921875 51.203125 C43.70379529 50.84646855 45.25772647 50.7137524 47.5546875 52.40625 C50.34160092 56.06905049 49.42407541 60.84311237 48.921875 65.203125 C46.96476293 73.35775863 43.1158927 77.96529578 36.1171875 82.328125 C30.17359525 84.69710127 22.58798663 84.34384938 16.78125 81.859375 C14.38974984 80.41080919 12.13177945 78.91401877 9.921875 77.203125 C9.261875 77.80125 8.601875 78.399375 7.921875 79.015625 C2.44585845 83.00855373 -3.2433671 85.14585023 -10.078125 84.203125 C-17.42415643 81.67243475 -22.23612997 77.97978044 -26.078125 71.203125 C-27.26840838 67.63227486 -27.26210898 64.3570567 -27.265625 60.640625 C-27.27787109 59.95548828 -27.29011719 59.27035156 -27.30273438 58.56445312 C-27.30800033 56.77578388 -27.20012521 54.98763652 -27.078125 53.203125 C-25.078125 51.203125 -25.078125 51.203125 -22.640625 50.890625 C-20.078125 51.203125 -20.078125 51.203125 -18.44921875 52.35546875 C-16.53991908 54.92839965 -16.67314013 56.90303606 -16.578125 60.078125 C-16.43963057 64.68306488 -15.82322026 67.44880354 -13.078125 71.203125 C-9.340193 73.072091 -5.14913453 72.73440455 -1.078125 72.203125 C2.21131876 70.58080949 2.21131876 70.58080949 3.921875 67.203125 C4.60209717 63.53404782 4.85006946 59.93048522 4.921875 56.203125 C4.220625 56.038125 3.519375 55.873125 2.796875 55.703125 C-4.57955374 51.85455348 -8.45959136 42.38620042 -12.390625 35.390625 C-13.1959668 33.98006836 -13.1959668 33.98006836 -14.01757812 32.54101562 C-18.1939548 25.17310773 -19.96287714 19.78030544 -19.078125 11.203125 C-14.82225427 2.53375871 -9.10102801 0.04957576 0 0 Z " fill="#474247" transform="translate(245.078125,121.796875)"/>
<path d="M0 0 C5.69094483 4.38422574 9.68891354 10.62645313 11.0703125 17.71484375 C12.14350665 26.75782396 9.0442991 35.01666584 3.55078125 42.18359375 C-2.16979281 48.10038803 -9.48471712 50.7432221 -17.5546875 51.21484375 C-25.39410667 51.06858593 -31.85850512 48.07479548 -37.875 43.109375 C-43.31219998 37.35796497 -46.10041202 30.00007599 -46.4296875 22.15234375 C-46.02566354 12.89889184 -41.63456461 5.91475103 -34.9296875 -0.28515625 C-24.21301038 -8.04241626 -10.70644885 -7.13040824 0 0 Z " fill="#FBFBFB" transform="translate(190.9296875,121.28515625)"/>
<path d="M0 0 C6.23242887 4.73424886 9.55980357 10.67941072 12 18 C12.94584057 27.3188555 11.11077113 35.18043895 5.5 42.75 C-0.38326376 48.95765424 -8.14079909 52.32689642 -16.625 52.6875 C-24.87591957 52.28187925 -32.07716989 48.74862922 -38 43 C-44.0882373 34.9983167 -45.0184747 26.66593161 -44.28564453 16.92089844 C-43.25967483 10.02147142 -38.2090119 4.31283957 -32.828125 0.18359375 C-22.96216247 -6.20398455 -10.05273386 -5.99978306 0 0 Z " fill="#FCFBFC" transform="translate(355,120)"/>
<path d="M0 0 C0.66 0.33 1.32 0.66 2 1 C2.65429688 3.00268555 2.65429688 3.00268555 3.21875 5.63671875 C3.42798096 6.59940674 3.63721191 7.56209473 3.8527832 8.55395508 C4.06636475 9.5880249 4.27994629 10.62209473 4.5 11.6875 C4.83100708 13.26664185 4.83100708 13.26664185 5.16870117 14.87768555 C9.93606012 37.98295257 12.8315011 62.38926619 0.43359375 83.69140625 C-7.2864928 95.42378836 -19.51916888 104.8287192 -33.48828125 107.72265625 C-34.31714844 107.81417969 -35.14601563 107.90570313 -36 108 C-36.35530058 99.7278736 -34.98727549 91.863115 -33.5625 83.75 C-33.32941274 82.38813455 -33.09698623 81.02615584 -32.86523438 79.6640625 C-31.96776542 74.43012764 -31.06487756 69.2028097 -30 64 C-29.38125 64.33 -28.7625 64.66 -28.125 65 C-22.76511481 66.71516326 -17.71905578 67.17366309 -12.45703125 64.90234375 C-7.35316993 61.78007949 -4.49310956 58.97243825 -3 53 C-2.1217004 46.83171203 -2.60023387 41.93810783 -6.22265625 36.76171875 C-9.54840168 33.46521064 -13.70534919 31.73453858 -18 30 C-12.83223953 19.31034319 -7.67947545 9.15629765 0 0 Z " fill="#EEE6E3" transform="translate(325,300)"/>
<path d="M0 0 C0.33 0 0.66 0 1 0 C5.20065251 21.05927123 8.84507928 42.7162589 4 64 C3.34 64 2.68 64 2 64 C1.75378906 64.886875 1.50757813 65.77375 1.25390625 66.6875 C-2.70283786 77.14020717 -13.1406485 83.83860318 -22.875 88.375 C-25.60217764 89.57730412 -26.95953771 90 -30 90 C-29.63783035 80.49616897 -28.72337562 71.49127128 -26.62109375 62.20703125 C-26.06164244 59.31829212 -25.6839395 56.92101076 -26 54 C-28.39585286 51.35412766 -28.39585286 51.35412766 -31 49 C-32.46182032 44.61453905 -32.72879989 40.57408696 -32 36 C-29.31038722 30.98373257 -25.27904227 28.02176087 -20 26 C-19.17113281 25.92007812 -18.34226562 25.84015625 -17.48828125 25.7578125 C-14.80573307 25.23110238 -14.80573307 25.23110238 -13.515625 22.734375 C-13.09796875 21.74953125 -12.6803125 20.7646875 -12.25 19.75 C-9.94002783 14.73199257 -7.34472338 10.25924608 -4.1875 5.75 C-3.79014648 5.17733398 -3.39279297 4.60466797 -2.98339844 4.01464844 C-2.01985017 2.65400149 -1.01397075 1.32349866 0 0 Z " fill="#9B9595" transform="translate(123,337)"/>
<path d="M0 0 C8.4102935 6.7282348 11.23713398 15.97405388 14 26 C14.53947266 27.57201172 14.53947266 27.57201172 15.08984375 29.17578125 C16.32313651 34.35772808 16.36826334 39.31651519 16.375 44.625 C16.39949219 45.64851563 16.42398438 46.67203125 16.44921875 47.7265625 C16.46687356 52.24619417 16.45723621 55.18019763 14.2265625 59.1796875 C11.10539113 61.73138199 9.50629094 61.59151521 5.62109375 61.35546875 C-4.0097059 60.04935434 -15.29730012 57.60160424 -22 50 C-26.43995287 43.34007069 -27.00275102 37.35924073 -25.53515625 29.515625 C-22.72156475 19.06038558 -16.59626062 6.42996881 -6.91015625 0.78125 C-4.31950249 -0.27832209 -2.77775019 -0.47425003 0 0 Z " fill="#595454" transform="translate(402,35)"/>
<path d="M0 0 C8.60968326 2.58290498 12.90387773 9.21150606 17.08374023 16.78881836 C21.54887646 25.28508995 25.03045886 34.76826548 22.05859375 44.35546875 C19.49390086 50.07505583 15.90293617 53.75809263 10.1640625 56.24609375 C7.38017858 57.28719006 4.58195319 58.22392398 1.75 59.125 C0.574375 59.5375 -0.60125 59.95 -1.8125 60.375 C-6.2516885 61.34355022 -10.73706728 61.85874605 -15.25 61.125 C-17.73095322 59.21958322 -18.23623032 58.16630905 -19.25 55.125 C-21.04075177 37.60076597 -18.35536391 19.9195374 -8.7421875 4.90234375 C-6.03079276 1.6728029 -4.28124039 0.16466309 0 0 Z " fill="#595454" transform="translate(113.25,34.875)"/>
<path d="M0 0 C1.6406543 -0.0309375 1.6406543 -0.0309375 3.31445312 -0.0625 C4.37212891 -0.06765625 5.42980469 -0.0728125 6.51953125 -0.078125 C7.48608643 -0.0874707 8.4526416 -0.09681641 9.44848633 -0.10644531 C13.82446992 0.46302933 17.45755058 2.78804521 20.1875 6.25 C21.6100921 10.40569329 21.04500543 14.36463848 19.24121094 18.33056641 C12.65328662 30.83135612 12.65328662 30.83135612 8.55297852 34.85327148 C7.00297195 36.17117103 7.00297195 36.17117103 6.859375 38.2578125 C6.63313973 42.06487688 6.63313973 42.06487688 8.1875 45.25 C10.52047433 45.29092937 12.85455225 45.29241723 15.1875 45.25 C16.6725 39.31 16.6725 39.31 18.1875 33.25 C24.1875 32.25 24.1875 32.25 26.03125 33.39453125 C28.32726372 37.07901273 27.82856674 41.08923031 27.1875 45.25 C25.44249217 49.99222035 22.80096151 53.25551156 18.4375 55.8125 C13.98208577 57.73162529 9.81677175 57.54656132 5.1875 56.25 C4.1975 55.59 3.2075 54.93 2.1875 54.25 C-0.44684254 54.57126128 -2.43960097 55.06355048 -4.8125 56.25 C-10.12385952 56.77940021 -14.48522741 56.91363629 -19.3125 54.5 C-23.26907412 50.93908329 -25.63045341 48.09924076 -25.98046875 42.62109375 C-25.98691406 41.65300781 -25.99335938 40.68492187 -26 39.6875 C-26.01417969 38.71683594 -26.02835937 37.74617188 -26.04296875 36.74609375 C-25.8125 34.25 -25.8125 34.25 -23.8125 32.25 C-21.01368442 31.89117749 -19.4731865 31.74933589 -17.18359375 33.484375 C-15.06456246 36.21315603 -15.35088686 38.83843338 -15.21875 42.19140625 C-15.0846875 42.87074219 -14.950625 43.55007813 -14.8125 44.25 C-12.04261924 46.56543207 -12.04261924 46.56543207 -9.1875 45.9375 C-6.87748035 45.4758486 -6.87748035 45.4758486 -5.8125 44.25 C-5.14865418 39.10793554 -5.14865418 39.10793554 -6.90625 34.3984375 C-7.93080263 33.11774671 -8.96692166 31.84626067 -10.01171875 30.58203125 C-14.28450418 25.04872777 -19.09537972 17.9704313 -19.5625 10.8125 C-18.59404912 6.2123583 -17.1527691 4.51073888 -13.8125 1.25 C-9.72927778 -0.79161111 -4.48777192 0.02093421 0 0 Z " fill="#464146" transform="translate(357.8125,333.75)"/>
<path d="M0 0 C1.33417969 -0.01063477 1.33417969 -0.01063477 2.6953125 -0.02148438 C7.57189775 0.02582578 11.09624594 0.19707915 15 3.4375 C17.38589923 7.01634885 17.51501804 8.212352 17 12.4375 C15.76628313 15.20416956 14.19856694 17.70528284 12.5625 20.25 C12.14162109 20.92998047 11.72074219 21.60996094 11.28710938 22.31054688 C8.24503968 27.19246032 8.24503968 27.19246032 7 28.4375 C6.92851801 29.78993917 6.91600546 31.14584367 6.9375 32.5 C6.958125 33.799375 6.97875 35.09875 7 36.4375 C9.475 35.9425 9.475 35.9425 12 35.4375 C12.185625 33.519375 12.185625 33.519375 12.375 31.5625 C12.75 27.6875 12.75 27.6875 15 25.4375 C17.8098539 25.07726232 19.34244608 24.93410944 21.6328125 26.6875 C23.77688754 29.43191605 23.47066024 31.77887876 23.35546875 35.15234375 C22.66482662 39.59218604 20.22029171 42.36512244 16.9375 45.25 C12.98526374 47.67233835 9.53980034 47.68070359 5 47.4375 C4.01 46.7775 3.02 46.1175 2 45.4375 C-0.63434254 45.75876128 -2.62710097 46.25105048 -5 47.4375 C-10.72713048 47.98818562 -13.51756945 47.00306975 -18 43.4375 C-20.81905121 41.00728344 -21.87117133 39.0913006 -22.16796875 35.28125 C-22.17441406 34.5078125 -22.18085937 33.734375 -22.1875 32.9375 C-22.20167969 32.1640625 -22.21585937 31.390625 -22.23046875 30.59375 C-22 28.4375 -22 28.4375 -20 25.4375 C-17.22590267 25.0107158 -15.66797273 25.03194513 -13.25 26.5 C-11.42094252 29.33503909 -11.31245191 32.12550975 -11 35.4375 C-9.05396726 36.02820014 -9.05396726 36.02820014 -7 36.4375 C-5.67672028 35.31344198 -5.67672028 35.31344198 -5.5625 32.4375 C-5.60830306 27.95796107 -7.86403854 25.23950428 -10.39453125 21.69921875 C-13.65085607 17.11184145 -15.96736398 13.39566132 -16.0625 7.6875 C-13.43634354 -0.34544916 -7.30822359 -0.16417024 0 0 Z " fill="#484348" transform="translate(149,366.5625)"/>
<path d="M0 0 C5.10411322 3.81916164 7.48852028 7.67107569 8.62890625 13.91796875 C9.06202212 19.86179291 7.59620308 23.84943269 4.01953125 28.58203125 C-0.12014418 32.91589188 -4.4826957 34.67729006 -10.4375 34.9375 C-15.90245179 34.65580145 -19.3707333 32.74058995 -23.5 29.1875 C-27.70151304 24.30466052 -29.41485817 20.20523979 -29.15625 13.8046875 C-28.30938571 8.12684738 -25.89678219 4.00317631 -21.3125 0.5625 C-14.75373742 -3.83485218 -6.710715 -4.08622745 0 0 Z " fill="#FCFCFC" transform="translate(422.8125,332.5)"/>
<path d="M0 0 C4.85525157 3.02247448 8.81362599 6.29651657 10.484375 11.90625 C11.38582647 17.70400631 10.90106007 22.95534104 7.93359375 28.078125 C4.51894841 32.38554824 0.35137592 35.33809433 -5.078125 36.4140625 C-11.028899 36.68620156 -14.76605462 35.44514557 -19.515625 31.90625 C-23.66616981 27.77778255 -26.78447592 23.56994336 -26.890625 17.59375 C-26.73060247 11.85176494 -24.80852874 8.21478717 -20.796875 4.17578125 C-14.77669733 -1.19391113 -7.77191824 -3.37909489 0 0 Z " fill="#FCFCFC" transform="translate(312.515625,331.09375)"/>
<path d="M0 0 C4.47487408 2.66819594 8.82986593 5.74009519 10.4140625 10.9453125 C11.53038255 16.48594687 11.64669591 21.33194642 8.83984375 26.37109375 C5.91059487 30.48188839 2.69860907 32.70658949 -2.16015625 34.05859375 C-7.16987639 34.80192162 -10.89219013 34.68061486 -15.47265625 32.43359375 C-23.71060135 25.15354924 -23.71060135 25.15354924 -24.16015625 20.05859375 C-24.28390625 18.82109375 -24.40765625 17.58359375 -24.53515625 16.30859375 C-24.46039464 11.29956567 -22.35630571 7.81240471 -19.16015625 4.05859375 C-13.46616443 -0.38271987 -7.00055835 -3.05087624 0 0 Z " fill="#484348" transform="translate(345.16015625,126.94140625)"/>
<path d="M0 0 C4.03425011 2.41585908 6.18073012 5.99299302 8.015625 10.20703125 C8.80099119 15.81678974 8.27767644 20.47179528 5.015625 25.20703125 C0.47909217 29.77573807 -3.08104676 32.31301785 -9.671875 32.58203125 C-15.24036393 32.50886862 -18.87728851 30.94504776 -22.984375 27.20703125 C-26.64995418 23.03406965 -27.58996083 18.89523988 -27.30078125 13.41015625 C-26.57961903 8.38873045 -24.8555144 4.70178015 -21.046875 1.39453125 C-13.72539116 -3.83510007 -8.15347712 -3.92420752 0 0 Z " fill="#474347" transform="translate(182.984375,128.79296875)"/>
<path d="M0 0 C3.51902825 0.71100571 4.8694917 1.9323852 6.97412109 4.80761719 C8.75953882 7.79756662 9.88995643 10.92273609 10.8671875 14.2421875 C11.07730469 14.93932861 11.28742188 15.63646973 11.50390625 16.35473633 C13.45768586 23.28415192 14.93151145 30.70531898 11.7109375 37.41796875 C10.0546875 39.6171875 10.0546875 39.6171875 7.0546875 40.1171875 C0.55873025 39.60580363 -5.87044059 38.26861617 -11.0078125 34.1796875 C-14.65792955 29.35211334 -15.76801582 25.7452725 -14.9453125 19.6171875 C-13.01543466 12.03203472 -8.31042299 1.74144142 0 0 Z " fill="#5B5656" transform="translate(451.9453125,277.3828125)"/>
<path d="M0 0 C4.41287322 0.50917768 5.47102685 1.95472535 8.25 5.375 C13.47167608 12.86040849 16.40039429 19.06726439 15.25 28.375 C13.32676582 32.89041937 11.13133744 34.66484446 6.8125 36.6875 C1.2228665 38.88505575 -3.69665328 39.83185636 -9.75 39.375 C-12.22119553 35.66820671 -12.13438108 32.73638162 -12.125 28.4375 C-12.12338867 27.67912842 -12.12177734 26.92075684 -12.12011719 26.1394043 C-11.95337465 18.4014063 -9.62295934 1.31222173 0 0 Z " fill="#5A5555" transform="translate(264.75,277.625)"/>
<path d="M0 0 C4.1681415 1.31335779 7.07157542 3.65232399 9.4375 7.3125 C11.2524849 11.0213822 11.6535754 13.86068916 11 18 C8.4151576 24.08467326 5.07739849 27.48521442 -1 30 C-6.47642968 30.89614304 -9.84603178 29.54752828 -14.265625 26.47265625 C-17.59917307 23.64214359 -18.6950494 20.89886763 -19.37890625 16.640625 C-19.72379693 11.79747924 -19.35921369 8.77923099 -16.1875 5 C-11.14605667 -0.17837142 -7.01259269 -0.84193742 0 0 Z " fill="#F9F9F9" transform="translate(110,364)"/>
<path d="M0 0 C6.83696765 5.86025799 6.83696765 5.86025799 7.60546875 10.27734375 C7.7691331 15.4600483 7.35707006 19.61589024 4.1875 23.875 C0.55069696 26.96300619 -2.64313769 28.69036385 -7.375 29.4375 C-12.9844609 28.51958822 -16.3537573 26.40855002 -20.25 22.3125 C-22.46558539 17.43821214 -22.58881226 13.1445135 -21.8125 7.875 C-17.48781666 -1.09471359 -9.13773358 -3.65509343 0 0 Z " fill="#F9F9F9" transform="translate(200.8125,365.125)"/>
<path d="M0 0 C3.33696377 0.89528296 4.60613371 2.64918639 6.42578125 5.5078125 C10.21898809 12.78138438 11.5654788 20.53341261 10.5625 28.6875 C9.54296875 31.0078125 9.54296875 31.0078125 8.5625 32.6875 C1.74356095 33.12275143 -4.15626344 31.82030376 -9.9375 28.0625 C-12.31227121 24.30244558 -12.94105596 21.11486864 -12.4375 16.6875 C-10.15227262 10.47136956 -6.95530131 1.96175165 0 0 Z " fill="#5A5555" transform="translate(225.4375,320.3125)"/>
<path d="M0 0 C4.0298005 0.18743258 5.66124647 0.67737759 8.625 3.5 C12.27184764 8.42147399 14.63890763 13.63283893 15.5625 19.6875 C14.84925986 23.88769196 13.27278663 26.38494046 10 29 C4.84243882 31.92518395 -0.15451221 32.60470563 -6 32 C-9.35085469 26.97371796 -8.58948836 21.14086767 -7.5 15.3359375 C-5.93305625 9.58454168 -3.43072165 4.85453894 0 0 Z " fill="#595454" transform="translate(71,321)"/>
<path d="M0 0 C3.70390021 2.02666238 5.65363011 3.48044516 8 7 C8.72517392 11.50282411 8.60000036 14.99285654 6.25 18.9375 C2.96105806 21.95236344 1.12517087 22.83016289 -3.3125 23.5 C-7.58993261 22.92000914 -9.52918258 21.85643784 -12.59765625 18.90625 C-14.66660908 16.09385729 -15.26169254 13.71739271 -15.4140625 10.25390625 C-14.66741164 6.18958979 -12.07181614 3.61298791 -9 1 C-5.89046621 -0.5547669 -3.43733239 -0.28644437 0 0 Z " fill="#4A454A" transform="translate(308,337)"/>
<path d="M0 0 C4.00255838 2.11455915 6.36245253 3.77481854 8 8 C8.34050529 12.88057582 7.66327491 16.18366164 4.5625 20 C0.51714804 23.15734787 -1.83022526 23.59325284 -7 23 C-10.72161854 21.07679673 -13.38297925 18.79439709 -14.765625 14.7734375 C-15.33392351 11.07949719 -15.24521903 8.62667085 -13.875 5.125 C-9.76318014 0.4649375 -6.19427378 -0.76070029 0 0 Z " fill="#4A454A" transform="translate(416,337)"/>
<path d="M0 0 C0.8559375 0.00902344 1.711875 0.01804688 2.59375 0.02734375 C3.2228125 0.03894531 3.851875 0.05054688 4.5 0.0625 C1.4124014 1.73009453 -1.64103747 2.75224366 -5 3.75 C-17.39622476 7.87204561 -26.3371296 15.07833807 -35.5 24.0625 C-37.77474277 20.65038584 -38.06629644 18.4056471 -38.625 14.375 C-38.79257813 13.19550781 -38.96015625 12.01601563 -39.1328125 10.80078125 C-39.25398437 9.89714844 -39.37515625 8.99351563 -39.5 8.0625 C-33.88529253 5.82937771 -28.4043099 4.19695177 -22.5 2.9375 C-21.74460938 2.76863281 -20.98921875 2.59976563 -20.2109375 2.42578125 C-13.50703725 0.96290267 -6.8872726 -0.09565656 0 0 Z " fill="#DED8D6" transform="translate(243.5,42.9375)"/>
<path d="M0 0 C3 2 3 2 5 5 C5.32854207 8.90143713 5.11532311 12.51966205 2.7109375 15.7109375 C-0.48033795 18.11532311 -4.09856287 18.32854207 -8 18 C-11.69710832 15.53526112 -12.74934402 13.76589327 -14.125 9.5625 C-13.95278418 4.65434903 -12.46551473 3.38492136 -9 0 C-5.77509551 -1.61245225 -3.43772273 -0.81573082 0 0 Z " fill="#4D484D" transform="translate(110,370)"/>
<path d="M0 0 C3 2.625 3 2.625 5 6 C5.07144479 10.1437977 4.68996523 12.15423617 2.0625 15.375 C-1.38953386 18.09478425 -3.60372718 18.51720857 -8 18 C-11.47621856 15.45077306 -12.78253065 13.66448969 -14.125 9.5625 C-13.95278418 4.65434903 -12.46551473 3.38492136 -9 0 C-5.73616149 -1.63191925 -3.46807101 -0.88171297 0 0 Z " fill="#4C474C" transform="translate(198,370)"/>
<path d="M0 0 C0.10466648 8.07094823 0.03387512 15.9874678 -1 24 C-6.34791875 20.7595944 -10.50617614 16.76175763 -14.875 12.3125 C-15.56335938 11.62349609 -16.25171875 10.93449219 -16.9609375 10.22460938 C-22 5.14055525 -22 5.14055525 -22 4 C-20.89140625 3.79503906 -19.7828125 3.59007812 -18.640625 3.37890625 C-17.17707133 3.10683538 -15.71353033 2.83469638 -14.25 2.5625 C-13.52039063 2.42779297 -12.79078125 2.29308594 -12.0390625 2.15429688 C-7.94028197 1.39677502 -7.94028197 1.39677502 -3.88183594 0.45288086 C-2 0 -2 0 0 0 Z " fill="#DED7D4" transform="translate(92,428)"/>
<path d="M0 0 C-3.76526687 3.15796576 -7.74201074 5.84365982 -11.83984375 8.5390625 C-14.33977091 10.22979082 -16.68814558 12.06102533 -19 14 C-20.19287411 10.12315913 -21 7.08378077 -21 3 C-13.84224277 0.71387222 -7.51806849 -0.44032071 0 0 Z " fill="#787272" transform="translate(346,284)"/>
<path d="M0 0 C0.66 0.33 1.32 0.66 2 1 C-1.3 4.3 -4.6 7.6 -8 11 C-8 7.0234755 -6.61988497 5.9109833 -4 3 C-1.75 1.1875 -1.75 1.1875 0 0 Z " fill="#908A8A" transform="translate(114,12)"/>
</svg>
