<?xml version="1.0" encoding="UTF-8"?>
<svg version="1.1" xmlns="http://www.w3.org/2000/svg" width="512" height="512">
<path d="M0 0 C1.41952217 -0.01058945 1.41952217 -0.01058945 2.86772156 -0.02139282 C42.38370862 -0.24928599 42.38370862 -0.24928599 58.8671875 3.203125 C59.84204102 3.40180176 60.81689453 3.60047852 61.82128906 3.80517578 C80.77670168 7.77030832 100.17365847 12.96761602 117.59765625 21.5859375 C120.74323544 22.44136179 122.00081505 21.70721849 124.8671875 20.203125 C127.0544092 18.90378538 129.22003933 17.56766776 131.3671875 16.203125 C137.62421082 12.22669896 143.2092394 8.7267278 150.8671875 10.203125 C163.72906071 15.38899573 169.84642039 30.33331732 174.9453125 42.2578125 C176.11226691 45.05185702 177.00916028 47.73885926 177.78662109 50.67260742 C180.54703124 60.6362218 184.71517632 66.28850381 192.30123901 73.21908569 C195.18195224 75.8537823 197.97672903 78.57781091 200.78515625 81.2890625 C201.32908524 81.8096373 201.87301422 82.3302121 202.4334259 82.86656189 C208.29404551 88.50300448 213.1720646 94.56490506 217.8671875 101.203125 C218.71263453 102.34538847 219.56036448 103.48596512 220.41015625 104.625 C226.46807033 112.82019549 231.83090047 121.3484329 236.8671875 130.203125 C237.23166992 130.83492676 237.59615234 131.46672852 237.97167969 132.11767578 C259.57753748 169.86595072 269.34416845 212.63252497 269.1796875 255.828125 C269.17753235 256.84603119 269.1753772 257.86393738 269.17315674 258.91268921 C269.12348604 273.52176023 268.87258941 287.85388353 265.8671875 302.203125 C265.56917236 303.66540527 265.56917236 303.66540527 265.26513672 305.15722656 C255.14451556 353.5391024 233.2279998 397.52740769 198.8671875 433.203125 C198.23506348 433.86248047 197.60293945 434.52183594 196.95166016 435.20117188 C187.80721271 444.68942805 178.50984741 453.4293294 167.8671875 461.203125 C166.71613733 462.06118652 165.56509573 462.91925951 164.4140625 463.77734375 C156.22442769 469.81489896 147.72180474 475.19769802 138.8671875 480.203125 C138.15997559 480.6053125 137.45276367 481.0075 136.72412109 481.421875 C113.58872914 494.4472991 88.41756341 503.19613961 62.4296875 508.515625 C61.71079346 508.66298096 60.99189941 508.81033691 60.2512207 508.9621582 C45.57558252 511.75152625 31.05049912 512.55205119 16.13989258 512.51879883 C13.20030263 512.5156471 10.2617317 512.53917426 7.32226562 512.56445312 C-6.05087442 512.60911237 -18.94697961 511.40364042 -32.1328125 509.203125 C-33.83836304 508.92094116 -33.83836304 508.92094116 -35.57836914 508.63305664 C-38.1740747 508.16679902 -40.74556189 507.6480668 -43.3203125 507.078125 C-44.70923706 506.77116699 -44.70923706 506.77116699 -46.1262207 506.45800781 C-90.57690835 496.12218161 -131.31221814 473.81404602 -164.1328125 442.203125 C-164.79216797 441.57100098 -165.45152344 440.93887695 -166.13085938 440.28759766 C-175.61911555 431.14315021 -184.3590169 421.84578491 -192.1328125 411.203125 C-192.99087402 410.05207483 -193.84894701 408.90103323 -194.70703125 407.75 C-200.74458646 399.56036519 -206.12738552 391.05774224 -211.1328125 382.203125 C-211.535 381.49591309 -211.9371875 380.78870117 -212.3515625 380.06005859 C-225.3769866 356.92466664 -234.12582711 331.75350091 -239.4453125 305.765625 C-239.59266846 305.04673096 -239.74002441 304.32783691 -239.8918457 303.5871582 C-242.86570338 287.94086891 -243.50581612 272.46744454 -243.4453125 256.578125 C-243.44315735 255.56021881 -243.4410022 254.54231262 -243.43878174 253.49356079 C-243.38911104 238.88448977 -243.13821441 224.55236647 -240.1328125 210.203125 C-239.93413574 209.22827148 -239.73545898 208.25341797 -239.53076172 207.24902344 C-229.32742517 158.47172468 -206.5784354 109.16002852 -168.90625 75.37890625 C-158.49179299 65.87197056 -153.72096184 58.07758301 -149.88964844 44.6015625 C-146.14903053 32.74742369 -138.41664042 16.87260833 -127.109375 10.95703125 C-121.86513967 8.95675967 -118.79822862 9.51032733 -113.76171875 11.60546875 C-108.58868957 14.04300729 -103.6768607 16.572129 -99.3203125 20.328125 C-96.46719917 22.46801186 -96.46719917 22.46801186 -94.25927734 21.8815918 C-93.56527832 21.62031494 -92.8712793 21.35903809 -92.15625 21.08984375 C-90.96020142 20.65188477 -90.96020142 20.65188477 -89.73999023 20.20507812 C-88.87962158 19.87443359 -88.01925293 19.54378906 -87.1328125 19.203125 C-85.29832655 18.51913024 -83.46368421 17.83555482 -81.62890625 17.15234375 C-80.65324707 16.78641113 -79.67758789 16.42047852 -78.67236328 16.04345703 C-59.28124042 8.8370284 -39.65327125 3.8369108 -19.1328125 1.203125 C-18.13200401 1.07213158 -18.13200401 1.07213158 -17.11097717 0.93849182 C-11.39460774 0.24225009 -5.75538618 0.02856336 0 0 Z " fill="#FED839" transform="translate(243.1328125,-0.203125)"/>
<path d="M0 0 C1.41952217 -0.01058945 1.41952217 -0.01058945 2.86772156 -0.02139282 C42.38370862 -0.24928599 42.38370862 -0.24928599 58.8671875 3.203125 C59.84204102 3.40180176 60.81689453 3.60047852 61.82128906 3.80517578 C82.01752043 8.02986536 102.45927536 13.7115453 120.8671875 23.203125 C120.8671875 23.863125 120.8671875 24.523125 120.8671875 25.203125 C119.43359375 26.578125 119.43359375 26.578125 117.4296875 28.203125 C105.9720988 38.04696881 98.43042088 49.74643265 91.8671875 63.203125 C87.86793701 61.67532144 84.08179147 59.84312961 80.2421875 57.953125 C65.79587496 51.10017913 50.70146824 47.16180187 34.8671875 45.203125 C34.10631836 45.10668701 33.34544922 45.01024902 32.56152344 44.91088867 C25.77958129 44.13563455 19.06226115 44.08676051 12.2421875 44.140625 C11.14261719 44.14513672 10.04304687 44.14964844 8.91015625 44.15429688 C6.22910747 44.16595361 3.54817818 44.18231483 0.8671875 44.203125 C0.8671875 44.533125 0.8671875 44.863125 0.8671875 45.203125 C0.27292969 45.35007813 -0.32132813 45.49703125 -0.93359375 45.6484375 C-18.79288159 50.48127745 -33.02581084 62.9161215 -43.9453125 77.515625 C-44.45594238 78.19713623 -44.96657227 78.87864746 -45.49267578 79.58081055 C-50.71601819 86.72867021 -54.9395846 94.35311998 -59.06054688 102.17333984 C-60.59406909 105.07627784 -62.17691026 107.95073518 -63.7578125 110.828125 C-64.55025199 112.28603854 -65.34228074 113.74417615 -66.1328125 115.203125 C-65.4315625 115.41066406 -64.7303125 115.61820312 -64.0078125 115.83203125 C-53.97401875 119.09028764 -47.95749528 123.71059482 -43.04296875 133.08984375 C-40.14971369 139.80765915 -40.24760725 146.52290467 -42.8203125 153.328125 C-46.93963307 162.58583152 -51.77031058 167.16647635 -60.8828125 171.515625 C-68.734741 173.17660987 -76.03502335 173.07464635 -83.1328125 169.203125 C-84.1228125 173.823125 -85.1128125 178.443125 -86.1328125 183.203125 C-82.2696179 184.92923323 -78.49778129 186.41951685 -74.4453125 187.640625 C-70.81730489 188.83755743 -68.28434642 189.87802713 -66.1328125 193.203125 C-66.0078125 195.640625 -66.0078125 195.640625 -67.1328125 198.203125 C-75.16945375 206.23976625 -85.34442314 208.67651775 -96.1328125 211.203125 C-97.07769531 211.43257812 -98.02257812 211.66203125 -98.99609375 211.8984375 C-125.75017813 217.39638248 -154.87940129 210.88069336 -179.1328125 199.203125 C-179.21335876 200.28537857 -179.21335876 200.28537857 -179.29553223 201.38949585 C-179.8805167 208.85676103 -180.72139239 216.25827471 -181.7265625 223.6796875 C-181.87814819 224.81215912 -182.02973389 225.94463074 -182.18591309 227.11141968 C-182.50378862 229.47959244 -182.82318147 231.84756199 -183.14404297 234.21533203 C-183.63611636 237.8525458 -184.12105431 241.49066541 -184.60546875 245.12890625 C-184.91624063 247.43755739 -185.22742352 249.74615325 -185.5390625 252.0546875 C-185.68388062 253.1441568 -185.82869873 254.2336261 -185.97790527 255.35610962 C-186.11474731 256.35830536 -186.25158936 257.3605011 -186.39257812 258.39306641 C-186.51169556 259.27620514 -186.63081299 260.15934387 -186.75354004 261.06924438 C-187.1328125 263.203125 -187.1328125 263.203125 -188.1328125 265.203125 C-186.9984375 265.285625 -185.8640625 265.368125 -184.6953125 265.453125 C-179.45608947 266.02616502 -174.39782293 267.24926914 -169.30493164 268.56738281 C-155.6316821 271.9852804 -141.49915585 273.64676888 -127.53338623 275.39456177 C-124.99910588 275.71204546 -122.46558744 276.03515895 -119.93212891 276.35913086 C-112.46153809 277.31019617 -104.99058141 278.23510056 -97.50390625 279.05078125 C-69.80309462 282.0758717 -69.80309462 282.0758717 -62.1328125 289.203125 C-61.40961038 292.89949138 -61.89072861 294.71895722 -63.5703125 298.078125 C-79.55403112 319.15254852 -110.75595818 325.45816599 -135.28930664 329.75610352 C-140.04381196 330.30907939 -144.71020876 330.34628409 -149.4921875 330.3359375 C-150.47721252 330.33689423 -151.46223755 330.33785095 -152.47711182 330.33883667 C-154.55472884 330.33951481 -156.63234803 330.33768613 -158.70996094 330.33349609 C-161.85877351 330.32816569 -165.00744196 330.33344173 -168.15625 330.33984375 C-170.18489614 330.33918246 -172.2135422 330.33790024 -174.2421875 330.3359375 C-175.16964783 330.33796173 -176.09710815 330.33998596 -177.05267334 330.34207153 C-183.5198142 330.31935868 -189.63608947 329.79373618 -196.1328125 329.203125 C-198.1128125 344.383125 -200.0928125 359.563125 -202.1328125 375.203125 C-199.1628125 375.533125 -196.1928125 375.863125 -193.1328125 376.203125 C-191.43408134 376.59475612 -189.74414566 377.02844429 -188.0703125 377.515625 C-151.52484117 386.97663535 -112.88003948 387.02836606 -75.53079224 383.49227905 C-64.46882832 382.45230181 -53.49495138 381.87080058 -42.3828125 381.828125 C-41.37652802 381.81688599 -41.37652802 381.81688599 -40.34991455 381.80541992 C-32.98989019 381.73696095 -26.77644978 381.84857908 -20.1328125 385.203125 C-18.3117988 388.8451524 -19.06866947 392.43941913 -20.1328125 396.203125 C-27.20619529 409.49953855 -40.34216848 418.02113468 -53.1328125 425.203125 C-54.26460937 425.84894531 -55.39640625 426.49476563 -56.5625 427.16015625 C-79.09248908 439.47245632 -107.88541712 447.85576224 -133.6484375 448.95703125 C-136.41403889 449.1523596 -138.80145981 449.53939619 -141.4921875 450.10546875 C-148.55619202 451.24331431 -154.14686384 451.27710904 -160.20556641 447.06884766 C-167.98796768 440.62687101 -174.61354047 432.88270318 -181.1328125 425.203125 C-182.10661865 424.07197266 -182.10661865 424.07197266 -183.10009766 422.91796875 C-186.31522373 419.14107784 -189.26024762 415.24580809 -192.1328125 411.203125 C-192.97984241 410.05976677 -193.82885868 408.91787785 -194.6796875 407.77734375 C-200.73451062 399.58424693 -206.12110251 391.0688569 -211.1328125 382.203125 C-211.535 381.49591309 -211.9371875 380.78870117 -212.3515625 380.06005859 C-225.3769866 356.92466664 -234.12582711 331.75350091 -239.4453125 305.765625 C-239.59266846 305.04673096 -239.74002441 304.32783691 -239.8918457 303.5871582 C-242.86570338 287.94086891 -243.50581612 272.46744454 -243.4453125 256.578125 C-243.44315735 255.56021881 -243.4410022 254.54231262 -243.43878174 253.49356079 C-243.38911104 238.88448977 -243.13821441 224.55236647 -240.1328125 210.203125 C-239.93413574 209.22827148 -239.73545898 208.25341797 -239.53076172 207.24902344 C-229.32742517 158.47172468 -206.5784354 109.16002852 -168.90625 75.37890625 C-158.49179299 65.87197056 -153.72096184 58.07758301 -149.88964844 44.6015625 C-146.14903053 32.74742369 -138.41664042 16.87260833 -127.109375 10.95703125 C-121.86513967 8.95675967 -118.79822862 9.51032733 -113.76171875 11.60546875 C-108.58868957 14.04300729 -103.6768607 16.572129 -99.3203125 20.328125 C-96.46719917 22.46801186 -96.46719917 22.46801186 -94.25927734 21.8815918 C-93.56527832 21.62031494 -92.8712793 21.35903809 -92.15625 21.08984375 C-90.96020142 20.65188477 -90.96020142 20.65188477 -89.73999023 20.20507812 C-88.87962158 19.87443359 -88.01925293 19.54378906 -87.1328125 19.203125 C-85.29832655 18.51913024 -83.46368421 17.83555482 -81.62890625 17.15234375 C-80.65324707 16.78641113 -79.67758789 16.42047852 -78.67236328 16.04345703 C-59.28124042 8.8370284 -39.65327125 3.8369108 -19.1328125 1.203125 C-18.13200401 1.07213158 -18.13200401 1.07213158 -17.11097717 0.93849182 C-11.39460774 0.24225009 -5.75538618 0.02856336 0 0 Z " fill="#80E19C" transform="translate(243.1328125,-0.203125)"/>
<path d="M0 0 C5.9487348 2.51318872 10.08836061 7.74315975 14.5625 12.25 C15.05899048 12.74798096 15.55548096 13.24596191 16.0670166 13.7590332 C23.67775222 21.41104112 30.70712065 29.2219666 37 38 C37.85019038 39.14555087 38.70178501 40.29006071 39.5546875 41.43359375 C45.60520862 49.62727013 50.96643048 58.15008578 56 67 C56.36448242 67.63180176 56.72896484 68.26360352 57.10449219 68.91455078 C78.71034998 106.66282572 88.47698095 149.42939997 88.3125 192.625 C88.30926727 194.15185928 88.30926727 194.15185928 88.30596924 195.70956421 C88.25629854 210.31863523 88.00540191 224.65075853 85 239 C84.70198486 240.46228027 84.70198486 240.46228027 84.39794922 241.95410156 C74.48986046 289.31996108 53.2597976 333.25810432 19.58984375 368.29003906 C17.7707406 370.24658059 16.04740763 372.27320685 14.3125 374.3046875 C4.78496496 385.12359107 4.78496496 385.12359107 -1.5625 387.12109375 C-4.99149611 387.18390941 -8.04825538 386.91967919 -11.41943359 386.37353516 C-14.47999874 385.93052052 -17.5289697 385.70422145 -20.61328125 385.48046875 C-58.15698404 382.55600128 -104.39863034 370.41923828 -130.125 340.53125 C-133.67238329 335.89676538 -136.03673294 331.83518062 -136.27734375 325.9140625 C-136 324 -136 324 -134.25 321.5 C-122.60389183 313.73592789 -97.93720843 319.1311685 -84.26885986 320.28741455 C-46.18492296 323.50160322 -7.39277767 323.98445944 30 315 C30.78584473 314.81228027 31.57168945 314.62456055 32.38134766 314.43115234 C36.93347314 313.33383974 41.47104388 312.18916725 46 311 C45.26300935 301.79684462 44.11435374 292.65445494 42.9375 283.5 C42.56947542 280.63568463 42.20392893 277.77106845 41.83984375 274.90625 C41.67863037 273.65134766 41.51741699 272.39644531 41.35131836 271.10351562 C41 268 41 268 41 265 C40.19175781 265.21112427 40.19175781 265.21112427 39.3671875 265.42651367 C29.98235768 267.51254217 20.54991509 267.33684631 10.98779297 267.31567383 C8.03444682 267.31253659 5.08212752 267.33595003 2.12890625 267.36132812 C-15.23371057 267.41909331 -31.44977994 265.29989706 -48 260 C-49.18722656 259.65324219 -50.37445313 259.30648438 -51.59765625 258.94921875 C-66.20293877 254.48009445 -82.93297915 247.57649378 -91.72265625 234.421875 C-93.39079002 231.25905256 -93.6609925 229.52529335 -93 226 C-86.25490296 218.16110344 -74.72324869 217.59592015 -65 216.5625 C-63.95328125 216.44326172 -62.9065625 216.32402344 -61.828125 216.20117188 C-58.21970711 215.79169127 -54.61002284 215.39507462 -51 215 C-45.75650163 214.42337919 -40.51369528 213.84086405 -35.27148438 213.25265503 C-33.07211816 213.00802163 -30.87208023 212.77039678 -28.671875 212.53344727 C-14.76116107 211.00504764 -1.06690986 208.63551845 12.5625 205.4375 C13.92084961 205.12522461 13.92084961 205.12522461 15.30664062 204.80664062 C20.55273659 203.59483424 25.7805354 202.32161472 31 201 C30.61511084 190.58874828 29.08691824 180.41879692 27.52148438 170.13256836 C26.516412 163.51354092 25.54268621 156.89811611 24.75 150.25 C24.60046875 148.99703125 24.4509375 147.7440625 24.296875 146.453125 C23.99575797 142.95065851 23.94594525 139.51355895 24 136 C22.67162109 136.56267578 22.67162109 136.56267578 21.31640625 137.13671875 C-9.73617073 150.0685638 -44.83838998 156.03024579 -77 143 C-81.88113613 140.37550506 -85.95902463 137.71585104 -89 133 C-89.1875 130.5 -89.1875 130.5 -88 128 C-79.7187994 122.4228649 -68.98206398 121.0783697 -59.34765625 118.98828125 C-33.74900933 113.33011786 -5.63793064 105.30314173 16 90 C15.67133223 86.3328993 15.33607966 82.66642804 15 79 C14.92249512 78.12375977 14.84499023 77.24751953 14.76513672 76.34472656 C12.38477828 50.44916393 5.99045137 25.24818448 0 0 Z " fill="#80E19C" transform="translate(424,63)"/>
<path d="M0 0 C0 0.33 0 0.66 0 1 C-0.59425781 1.14695313 -1.18851563 1.29390625 -1.80078125 1.4453125 C-19.66006909 6.27815245 -33.89299834 18.7129965 -44.8125 33.3125 C-45.32312988 33.99401123 -45.83375977 34.67552246 -46.35986328 35.37768555 C-51.58320569 42.52554521 -55.8067721 50.14999498 -59.92773438 57.97021484 C-61.46125659 60.87315284 -63.04409776 63.74761018 -64.625 66.625 C-65.41743949 68.08291354 -66.20946824 69.54105115 -67 71 C-66.29875 71.20753906 -65.5975 71.41507812 -64.875 71.62890625 C-54.84120625 74.88716264 -48.82468278 79.50746982 -43.91015625 88.88671875 C-41.01690119 95.60453415 -41.11479475 102.31977967 -43.6875 109.125 C-47.80682057 118.38270652 -52.63749808 122.96335135 -61.75 127.3125 C-69.6019285 128.97348487 -76.90221085 128.87152135 -84 125 C-84.99 129.62 -85.98 134.24 -87 139 C-83.1368054 140.72610823 -79.36496879 142.21639185 -75.3125 143.4375 C-71.68449239 144.63443243 -69.15153392 145.67490213 -67 149 C-66.875 151.4375 -66.875 151.4375 -68 154 C-76.03664125 162.03664125 -86.21161064 164.47339275 -97 167 C-97.94488281 167.22945312 -98.88976562 167.45890625 -99.86328125 167.6953125 C-126.10286464 173.0875279 -155.46713929 167.21392323 -179 155 C-178.37552122 145.6014673 -177.36270908 136.28848498 -176.15234375 126.94921875 C-175.97412798 125.55535944 -175.79620078 124.16146321 -175.61854553 122.76753235 C-175.15616858 119.14563523 -174.68994377 115.52424415 -174.22283936 111.9029541 C-173.74448309 108.18886304 -173.26987317 104.47429336 -172.79492188 100.75976562 C-171.86689016 93.50604431 -170.93478167 86.25285489 -170 79 C-166.9760269 77.99200897 -165.22953624 77.94517291 -162.08984375 78.078125 C-141.85247851 78.68976679 -126.58105321 74.87388357 -109 65 C-107.55753906 64.21882813 -107.55753906 64.21882813 -106.0859375 63.421875 C-90.28956192 54.19567333 -77.86290733 39.92852369 -69.875 23.625 C-62.28512419 10.39542481 -40.59241603 6.15493104 -26.82910156 2.40917969 C-17.79513191 0.11225887 -9.27702681 -0.38594719 0 0 Z " fill="#FDB33B" transform="translate(244,44)"/>
<path d="M0 0 C5.1826228 0.33251341 10.10891263 0.94312303 15.125 2.3125 C51.60392222 11.84092526 90.30802586 11.82000993 127.60202026 8.28915405 C138.66398418 7.24917681 149.63786112 6.66767558 160.75 6.625 C161.42085632 6.61750732 162.09171265 6.61001465 162.78289795 6.60229492 C170.14292231 6.53383595 176.35636272 6.64545408 183 10 C184.8210137 13.6420274 184.06414303 17.23629413 183 21 C175.92661721 34.29641355 162.79064402 42.81800968 150 50 C148.86820313 50.64582031 147.73640625 51.29164063 146.5703125 51.95703125 C124.04032342 64.26933132 95.24739538 72.65263724 69.484375 73.75390625 C66.71877361 73.9492346 64.33135269 74.33627119 61.640625 74.90234375 C54.57662048 76.04018931 48.98594866 76.07398404 42.92724609 71.86572266 C35.14484482 65.42374601 28.51927203 57.67957818 22 50 C21.3507959 49.24589844 20.7015918 48.49179687 20.03271484 47.71484375 C16.82100242 43.94196294 13.86657792 40.04489493 11 36 C10.07004604 34.71669681 9.13901202 33.43417576 8.20703125 32.15234375 C-1.268258 19.0526988 -1.268258 19.0526988 -1.1875 12.6875 C-1.18105469 11.57761719 -1.17460938 10.46773438 -1.16796875 9.32421875 C-1.0071722 6.14194286 -0.59153978 3.12806237 0 0 Z " fill="#464145" transform="translate(40,375)"/>
<path d="M0 0 C0.34522127 1.47643741 0.67537487 2.95639782 1 4.4375 C1.185625 5.26121094 1.37125 6.08492188 1.5625 6.93359375 C2.62055607 14.34943316 2.71919725 19.04236824 -1.80932617 25.27709961 C-2.61527222 26.3155603 -2.61527222 26.3155603 -3.4375 27.375 C-3.98446533 28.11177979 -4.53143066 28.84855957 -5.0949707 29.60766602 C-6.70511106 31.75899048 -8.34467979 33.88331869 -10 36 C-10.43119141 36.55574707 -10.86238281 37.11149414 -11.30664062 37.68408203 C-13.78961076 40.86191321 -16.36572728 43.94697043 -19 47 C-19.64582031 47.75667969 -20.29164063 48.51335937 -20.95703125 49.29296875 C-22.77360151 51.36656807 -24.63662528 53.38437229 -26.52685547 55.390625 C-27.63881176 56.60541053 -28.72466479 57.84416262 -29.79736328 59.09375 C-41.66965407 72.90538576 -41.66965407 72.90538576 -48.63671875 75.1953125 C-52.00299593 75.24626156 -55.12042499 74.95957097 -58.43554688 74.38964844 C-61.48965716 73.92560045 -64.52832261 73.69961333 -67.609375 73.4765625 C-105.14979626 70.57137875 -151.40392317 58.41308926 -177.125 28.53125 C-180.67238329 23.89676538 -183.03673294 19.83518062 -183.27734375 13.9140625 C-183 12 -183 12 -181.25 9.5 C-169.60389183 1.73592789 -144.93720843 7.1311685 -131.26885986 8.28741455 C-89.75191965 11.79134008 -47.85178301 11.71301208 -7.41015625 0.515625 C-4.8732557 -0.02711548 -2.58650195 -0.09254032 0 0 Z " fill="#464145" transform="translate(471,375)"/>
<path d="M0 0 C1.01790619 0.00215515 2.03581238 0.0043103 3.08456421 0.00653076 C17.69363523 0.05620146 32.02575853 0.30709809 46.375 3.3125 C47.34985352 3.51117676 48.32470703 3.70985352 49.32910156 3.91455078 C69.52533293 8.13924036 89.96708786 13.8209203 108.375 23.3125 C108.375 23.9725 108.375 24.6325 108.375 25.3125 C106.94140625 26.6875 106.94140625 26.6875 104.9375 28.3125 C93.4799113 38.15634381 85.93823338 49.85580765 79.375 63.3125 C75.37574951 61.78469644 71.58960397 59.95250461 67.75 58.0625 C53.30326676 51.20935456 38.20946275 47.27225524 22.375 45.3125 C21.26523804 45.17110596 21.26523804 45.17110596 20.13305664 45.02685547 C-10.92226535 41.46985824 -41.56047417 45.31954314 -69.625 59.3125 C-71.39138121 60.11405114 -73.16178477 60.90684501 -74.9375 61.6875 C-76.16670418 62.22908154 -77.39587786 62.77073229 -78.625 63.3125 C-79.181875 62.20132813 -79.73875 61.09015625 -80.3125 59.9453125 C-86.49771153 47.80306049 -94.90203215 31.67398393 -107.625 25.3125 C-106.625 22.3125 -106.625 22.3125 -104.78100586 21.25683594 C-103.57263062 20.78165527 -103.57263062 20.78165527 -102.33984375 20.296875 C-101.42887939 19.9361792 -100.51791504 19.5754834 -99.5793457 19.20385742 C-98.58378662 18.82720947 -97.58822754 18.45056152 -96.5625 18.0625 C-95.53406982 17.66844971 -94.50563965 17.27439941 -93.44604492 16.8684082 C-79.02587385 11.45660668 -64.28033957 7.08936905 -49.1875 4 C-48.46860596 3.85264404 -47.74971191 3.70528809 -47.0090332 3.5534668 C-31.36274391 0.57960912 -15.88931954 -0.06050362 0 0 Z " fill="#80E19C" transform="translate(255.625,-0.3125)"/>
<path d="M0 0 C7.71541976 3.16205728 16.05417461 7.03570932 22 13 C22 13.66 22 14.32 22 15 C22.54269531 15.22171875 23.08539063 15.4434375 23.64453125 15.671875 C36.07698146 22.6818801 44.73203263 37.50289094 50.5390625 50.03515625 C51.72737612 55.10059483 49.09330583 58.93660526 46.5 63.125 C30.55228287 88.63115951 6.8451776 105.68300358 -22.3894043 112.56225586 C-25.19416966 113.03255833 -27.82470095 113.12949452 -30.66796875 113.1328125 C-31.72564453 113.13410156 -32.78332031 113.13539062 -33.87304688 113.13671875 C-34.96681641 113.13285156 -36.06058594 113.12898438 -37.1875 113.125 C-38.29287109 113.12886719 -39.39824219 113.13273437 -40.53710938 113.13671875 C-41.59091797 113.13542969 -42.64472656 113.13414063 -43.73046875 113.1328125 C-44.69364014 113.13168457 -45.65681152 113.13055664 -46.64916992 113.12939453 C-49 113 -49 113 -51 112 C-48.62448985 79.37309522 -39.99501618 28.99501618 -16 5 C-11.13124368 1.0480874 -6.38307773 -1.64255095 0 0 Z " fill="#474144" transform="translate(126,10)"/>
<path d="M0 0 C0.06993164 0.61593018 0.13986328 1.23186035 0.21191406 1.86645508 C1.77141673 15.48953826 3.51950864 29.06269714 5.64160156 42.6105957 C6.73749206 49.72789246 7.49614226 56.81640517 8 64 C-1.86712776 66.57743304 -11.89489692 66.33807561 -22.01220703 66.31567383 C-24.96555318 66.31253659 -27.91787248 66.33595003 -30.87109375 66.36132812 C-48.23371057 66.41909331 -64.44977994 64.29989706 -81 59 C-82.78083984 58.47986328 -82.78083984 58.47986328 -84.59765625 57.94921875 C-99.20293877 53.48009445 -115.93297915 46.57649378 -124.72265625 33.421875 C-126.39079002 30.25905256 -126.6609925 28.52529335 -126 25 C-119.25490296 17.16110344 -107.72324869 16.59592015 -98 15.5625 C-96.95328125 15.44326172 -95.9065625 15.32402344 -94.828125 15.20117188 C-91.21970711 14.79169127 -87.61002284 14.39507462 -84 14 C-78.75650163 13.42337919 -73.51369528 12.84086405 -68.27148438 12.25265503 C-66.07211816 12.00802163 -63.87208023 11.77039678 -61.671875 11.53344727 C-47.76116107 10.00504764 -34.06690986 7.63551845 -20.4375 4.4375 C-19.07915039 4.12522461 -19.07915039 4.12522461 -17.69335938 3.80664062 C-13.60798967 2.86295276 -9.53460051 1.8876091 -5.47265625 0.84765625 C-2 0 -2 0 0 0 Z " fill="#464144" transform="translate(457,264)"/>
<path d="M0 0 C6.45308002 0.46931491 12.57574801 1.74611572 18.82788086 3.36425781 C32.5011304 6.7821554 46.63365665 8.44364388 60.59942627 10.19143677 C63.13370662 10.50892046 65.66722506 10.83203395 68.20068359 11.15600586 C75.67127441 12.10707117 83.14223109 13.03197556 90.62890625 13.84765625 C118.32971788 16.8727467 118.32971788 16.8727467 126 24 C126.72320212 27.69636638 126.24208389 29.51583222 124.5625 32.875 C108.58531464 53.94080946 77.37312522 60.27057232 52.84350586 64.55078125 C48.09120277 65.10621781 43.42100368 65.1622826 38.640625 65.16796875 C37.65559998 65.17129715 36.67057495 65.17462555 35.65570068 65.17805481 C33.57808903 65.18309975 31.50046933 65.18546389 29.42285156 65.18530273 C26.27394984 65.18748341 23.12540211 65.20564936 19.9765625 65.22460938 C17.94791785 65.22754511 15.91927156 65.2295287 13.890625 65.23046875 C12.49943451 65.24124702 12.49943451 65.24124702 11.08013916 65.25224304 C4.537394 65.22981526 -1.60360592 64.3574321 -8 63 C-7.89390915 62.17006531 -7.89390915 62.17006531 -7.78567505 61.32336426 C-7.03898058 55.4817233 -6.29259913 49.6400424 -5.54638672 43.79833984 C-5.26912068 41.62808252 -4.99177901 39.45783485 -4.71435547 37.28759766 C-3.1258428 24.86049676 -1.54374105 12.43275207 0 0 Z " fill="#454044" transform="translate(55,265)"/>
<path d="M0 0 C4.50513644 1.49693397 9.0079906 2.99919801 13.5 4.53515625 C14.2425 4.78716797 14.985 5.03917969 15.75 5.29882812 C17.25119295 5.80834761 18.7511992 6.32137681 20.25 6.83789062 C25.44309954 8.5914633 30.63019186 9.91020317 36 11 C37.45986328 11.31324219 37.45986328 11.31324219 38.94921875 11.6328125 C54.78492167 14.4791728 71.18853652 13.53708297 87 11 C87.02725341 12.7290774 87.04650987 14.45828176 87.0625 16.1875 C87.07410156 17.15042969 87.08570313 18.11335938 87.09765625 19.10546875 C87 22 87 22 86.52394104 24.34135437 C85.98945722 27.05349746 85.72319026 29.67688008 85.51928711 32.43286133 C85.39927589 34.02394463 85.39927589 34.02394463 85.27684021 35.64717102 C85.15333946 37.34742683 85.15333946 37.34742683 85.02734375 39.08203125 C84.8962899 40.83600471 84.8962899 40.83600471 84.7625885 42.62541199 C84.48464886 46.35423179 84.21102036 50.08335368 83.9375 53.8125 C83.74963313 56.34312007 83.56148543 58.87371931 83.37304688 61.40429688 C82.91210748 67.60262669 82.45470575 73.80120994 82 80 C70.32353821 79.4478408 58.77797899 78.4550238 47.1875 76.9375 C46.38826111 76.83450592 45.58902222 76.73151184 44.76556396 76.62539673 C26.58461178 74.24794972 8.80693295 70.31736862 -9 66 C-8.04286887 58.52888931 -7.08219037 51.05824067 -6.11914062 43.58789062 C-5.79249299 41.05088429 -5.46663285 38.51377642 -5.14160156 35.9765625 C-4.67203624 32.31222452 -4.19956202 28.64827108 -3.7265625 24.984375 C-3.58376862 23.86512634 -3.44097473 22.74587769 -3.29385376 21.5927124 C-2.35712525 14.36478826 -1.24772143 7.18073942 0 0 Z " fill="#FDB33B" transform="translate(64,199)"/>
<path d="M0 0 C1.23509284 2.47018568 1.03103579 3.85980832 0.86987305 6.6105957 C0.81619064 7.56952225 0.76250824 8.52844879 0.7071991 9.51643372 C0.64269058 10.5590184 0.57818207 11.60160309 0.51171875 12.67578125 C0.41682915 14.28999214 0.41682915 14.28999214 0.32002258 15.93681335 C0.18397056 18.22439926 0.04506564 20.51181696 -0.09643555 22.79907227 C-0.30923918 26.25947577 -0.50977984 29.72043097 -0.70898438 33.18164062 C-1.98701633 54.66997599 -1.98701633 54.66997599 -4 65 C-1.36 65 1.28 65 4 65 C4 65.33 4 65.66 4 66 C-24.85485437 66.45846139 -53.56158854 66.42296196 -81.78222656 59.53369141 C-85.07975767 58.740164 -88.3929697 58.02113076 -91.70581055 57.29467773 C-95.13974871 56.54100178 -98.56979409 55.77046441 -102 55 C-102.10619451 48.88054152 -101.77395614 43.07983375 -100.90625 37.02734375 C-100.73977966 35.81456505 -100.73977966 35.81456505 -100.56994629 34.57728577 C-100.21896735 32.02986643 -99.8596409 29.48370933 -99.5 26.9375 C-99.25855825 25.19604058 -99.01766785 23.45450463 -98.77734375 21.71289062 C-98.19125767 17.47435009 -97.59768951 13.23691921 -97 9 C-92.68953423 7.82441843 -89.38385617 8.33209636 -85 9 C-81.71220432 9.18899741 -78.42544393 9.2337188 -75.1328125 9.2734375 C-74.18860443 9.28587494 -73.24439636 9.29831238 -72.27157593 9.31112671 C-52.28108551 9.5236585 -33.36592688 9.54506396 -14 4 C-12.46791312 3.59070259 -10.9353829 3.18305984 -9.40234375 2.77734375 C-6.24455214 1.92223288 -3.11617528 0.99784504 0 0 Z " fill="#FDB33B" transform="translate(143,320)"/>
<path d="M0 0 C1.20629059 -0.00855011 1.20629059 -0.00855011 2.43695068 -0.01727295 C4.14171024 -0.02672801 5.84648811 -0.03325894 7.55126953 -0.03710938 C10.14779044 -0.04678525 12.7435097 -0.07779063 15.33984375 -0.109375 C16.99739114 -0.11590819 18.65494419 -0.12115742 20.3125 -0.125 C21.08458801 -0.1373468 21.85667603 -0.1496936 22.65216064 -0.16241455 C28.14537472 -0.13995019 32.40104274 0.84994904 36.56640625 4.73828125 C41.13968016 10.71871637 41.87396564 14.69951959 40.921875 22.203125 C39.40612272 26.49276388 37.20679091 30.27903028 34.921875 34.203125 C34.11575875 35.65676069 33.31116256 37.11124001 32.5078125 38.56640625 C31.64810494 40.0924278 30.7861307 41.61717465 29.921875 43.140625 C29.31786865 44.2236792 29.31786865 44.2236792 28.70166016 45.32861328 C26.00160807 49.96299871 23.34943275 53.12910053 18.921875 56.203125 C17.931875 56.203125 16.941875 56.203125 15.921875 56.203125 C16.03675248 57.78722494 16.16422008 59.37041463 16.296875 60.953125 C16.40128906 62.27570313 16.40128906 62.27570313 16.5078125 63.625 C16.93010307 66.2543564 17.49238269 67.96650438 18.921875 70.203125 C23.1477535 73.02037733 26.95812188 73.00270884 31.921875 72.203125 C34.74611788 70.01289582 36.33696103 68.37295293 37.921875 65.203125 C38.19758979 62.12212159 38.36851033 59.04141024 38.54296875 55.953125 C38.921875 53.203125 38.921875 53.203125 40.921875 51.203125 C43.70379529 50.84646855 45.25772647 50.7137524 47.5546875 52.40625 C50.34160092 56.06905049 49.42407541 60.84311237 48.921875 65.203125 C46.96476293 73.35775863 43.1158927 77.96529578 36.1171875 82.328125 C30.17359525 84.69710127 22.58798663 84.34384938 16.78125 81.859375 C14.38974984 80.41080919 12.13177945 78.91401877 9.921875 77.203125 C9.261875 77.80125 8.601875 78.399375 7.921875 79.015625 C2.44585845 83.00855373 -3.2433671 85.14585023 -10.078125 84.203125 C-17.42415643 81.67243475 -22.23612997 77.97978044 -26.078125 71.203125 C-27.26840838 67.63227486 -27.26210898 64.3570567 -27.265625 60.640625 C-27.27787109 59.95548828 -27.29011719 59.27035156 -27.30273438 58.56445312 C-27.30800033 56.77578388 -27.20012521 54.98763652 -27.078125 53.203125 C-25.078125 51.203125 -25.078125 51.203125 -22.640625 50.890625 C-20.078125 51.203125 -20.078125 51.203125 -18.44140625 52.32421875 C-16.47097809 55.03990914 -16.74110329 57.25882225 -16.703125 60.578125 C-16.44609814 64.76999946 -16.28726061 66.84557057 -14.140625 70.515625 C-9.72844767 72.94682476 -5.99848888 73.16457541 -1.078125 72.203125 C2.21131876 70.58080949 2.21131876 70.58080949 3.921875 67.203125 C4.60209717 63.53404782 4.85006946 59.93048522 4.921875 56.203125 C4.220625 56.038125 3.519375 55.873125 2.796875 55.703125 C-4.57955374 51.85455348 -8.45959136 42.38620042 -12.390625 35.390625 C-13.1959668 33.98006836 -13.1959668 33.98006836 -14.01757812 32.54101562 C-18.1939548 25.17310773 -19.96287714 19.78030544 -19.078125 11.203125 C-14.82225427 2.53375871 -9.10102801 0.04957576 0 0 Z " fill="#474244" transform="translate(245.078125,121.796875)"/>
<path d="M0 0 C3.62329916 0.65742949 5.95457463 1.42357361 9 3.5 C30.92162341 17.14744675 57.34967888 23.58720241 82.34570312 28.76904297 C101.90149337 32.93027949 101.90149337 32.93027949 107 39 C107.125 41.4375 107.125 41.4375 106 44 C97.96335875 52.03664125 87.78838936 54.47339275 77 57 C76.05511719 57.22945312 75.11023438 57.45890625 74.13671875 57.6953125 C47.89713536 63.0875279 18.53286071 57.21392323 -5 45 C-4.35117514 35.00549754 -3.21567031 25.11548307 -1.9375 15.1875 C-1.74905713 13.70511519 -1.56090446 12.22269347 -1.37304688 10.74023438 C-0.91869669 7.159726 -0.46046555 3.5797277 0 0 Z " fill="#474144" transform="translate(70,154)"/>
<path d="M0 0 C1.78159176 8.19580166 2.98880723 16.44316839 4.125 24.75 C4.30675781 26.03777344 4.48851562 27.32554687 4.67578125 28.65234375 C4.93294922 30.51826172 4.93294922 30.51826172 5.1953125 32.421875 C5.35016113 33.54174805 5.50500977 34.66162109 5.66455078 35.81542969 C5.9899497 38.90458796 6.06029029 41.89651318 6 45 C-24.35895662 59.83233847 -58.79429131 63.73974307 -91.1171875 53.16796875 C-97.13106644 50.7314514 -102.43591285 47.52707668 -106 42 C-106.1875 39.5 -106.1875 39.5 -105 37 C-96.7187994 31.4228649 -85.98206398 30.0783697 -76.34765625 27.98828125 C-51.42266718 22.47901894 -25.95063864 14.4889791 -4.00390625 1.18359375 C-2 0 -2 0 0 0 Z " fill="#474144" transform="translate(441,154)"/>
<path d="M0 0 C5.69094483 4.38422574 9.68891354 10.62645313 11.0703125 17.71484375 C12.14350665 26.75782396 9.0442991 35.01666584 3.55078125 42.18359375 C-2.16979281 48.10038803 -9.48471712 50.7432221 -17.5546875 51.21484375 C-25.39410667 51.06858593 -31.85850512 48.07479548 -37.875 43.109375 C-43.31219998 37.35796497 -46.10041202 30.00007599 -46.4296875 22.15234375 C-46.02566354 12.89889184 -41.63456461 5.91475103 -34.9296875 -0.28515625 C-24.21301038 -8.04241626 -10.70644885 -7.13040824 0 0 Z " fill="#FDFCFA" transform="translate(190.9296875,121.28515625)"/>
<path d="M0 0 C6.23242887 4.73424886 9.55980357 10.67941072 12 18 C12.94584057 27.3188555 11.11077113 35.18043895 5.5 42.75 C-0.38326376 48.95765424 -8.14079909 52.32689642 -16.625 52.6875 C-24.87591957 52.28187925 -32.07716989 48.74862922 -38 43 C-44.56563777 34.37087608 -44.98429547 25.40244894 -44 15 C-41.71543755 7.39187575 -35.85365792 1.90186782 -29.1640625 -2.09765625 C-19.98376898 -6.26171344 -8.52361626 -5.0871583 0 0 Z " fill="#FDFCFA" transform="translate(355,120)"/>
<path d="M0 0 C9.23949268 2.97542985 13.66855904 10.55195636 17.98828125 18.76171875 C22.07147632 26.99381548 24.75611629 35.30379945 21.99609375 44.48828125 C19.31927706 50.43551834 15.16535945 54.06352252 9.27734375 56.734375 C1.33322158 59.3512623 -6.8324844 61.99995658 -15.3125 61.1875 C-17.8581686 59.32805511 -18.29378364 58.24364907 -19.3125 55.1875 C-20.89465991 37.18142908 -18.30390045 19.5588853 -8.3125 4.1875 C-4.13164648 0.23386678 -4.13164648 0.23386678 0 0 Z " fill="#211F21" transform="translate(113.3125,34.8125)"/>
<path d="M0 0 C8.34165667 6.67332534 11.39802514 15.9897823 14 26 C14.18022705 26.67788574 14.3604541 27.35577148 14.54614258 28.05419922 C15.97320838 33.82735797 16.33484187 39.31599955 16.3125 45.25 C16.32861328 46.12140625 16.34472656 46.9928125 16.36132812 47.890625 C16.36504591 52.76835613 16.14311381 56.02137493 13 60 C11.46129279 61.53870721 10.08925942 61.28160143 7.9375 61.375 C2.91222996 61.33149117 -1.48789978 60.22125363 -6.25 58.75 C-6.92297119 58.54552246 -7.59594238 58.34104492 -8.28930664 58.13037109 C-15.85766392 55.65651398 -21.25233 51.8084225 -25.25 44.8125 C-28.21909807 33.67838225 -24.23593864 23.32553192 -18.74609375 13.6875 C-14.49309014 7.14148997 -8.8394318 -1.50917128 0 0 Z " fill="#FFB43A" transform="translate(402,35)"/>
<path d="M0 0 C4.47487408 2.66819594 8.82986593 5.74009519 10.4140625 10.9453125 C11.53038255 16.48594687 11.64669591 21.33194642 8.83984375 26.37109375 C5.91059487 30.48188839 2.69860907 32.70658949 -2.16015625 34.05859375 C-7.16987639 34.80192162 -10.89219013 34.68061486 -15.47265625 32.43359375 C-23.71060135 25.15354924 -23.71060135 25.15354924 -24.16015625 20.05859375 C-24.28390625 18.82109375 -24.40765625 17.58359375 -24.53515625 16.30859375 C-24.46039464 11.29956567 -22.35630571 7.81240471 -19.16015625 4.05859375 C-13.46616443 -0.38271987 -7.00055835 -3.05087624 0 0 Z " fill="#484348" transform="translate(345.16015625,126.94140625)"/>
<path d="M0 0 C4.03425011 2.41585908 6.18073012 5.99299302 8.015625 10.20703125 C8.80099119 15.81678974 8.27767644 20.47179528 5.015625 25.20703125 C0.47909217 29.77573807 -3.08104676 32.31301785 -9.671875 32.58203125 C-15.24036393 32.50886862 -18.87728851 30.94504776 -22.984375 27.20703125 C-26.64995418 23.03406965 -27.58996083 18.89523988 -27.30078125 13.41015625 C-26.57961903 8.38873045 -24.8555144 4.70178015 -21.046875 1.39453125 C-13.72539116 -3.83510007 -8.15347712 -3.92420752 0 0 Z " fill="#474347" transform="translate(182.984375,128.79296875)"/>
<path d="M0 0 C-1.65032861 6.15254087 -3.70552707 12.12482408 -6 18.0625 C-6.2489502 18.72967041 -6.49790039 19.39684082 -6.75439453 20.08422852 C-7.41596613 21.75981997 -8.2001966 23.38581345 -9 25 C-9.99 25.33 -10.98 25.66 -12 26 C-22.69201471 20.42155754 -33.57162434 11.57839529 -42 3 C-41.08710205 2.94465088 -40.1742041 2.88930176 -39.23364258 2.83227539 C-35.83225818 2.624407 -32.43109371 2.41345528 -29.0300293 2.20043945 C-27.56070418 2.10904138 -26.09130303 2.01885685 -24.62182617 1.92993164 C-22.50418058 1.80156775 -20.38685084 1.66877738 -18.26953125 1.53515625 C-16.99698486 1.456604 -15.72443848 1.37805176 -14.41333008 1.29711914 C-9.48774296 0.86836301 -4.97946552 -0.11580152 0 0 Z " fill="#FCB53C" transform="translate(129,446)"/>
<path d="M0 0 C0.66 0.33 1.32 0.66 2 1 C-0.31 3.31 -2.62 5.62 -5 8 C-5.66 7.67 -6.32 7.34 -7 7 C-4.66666667 4.66666667 -2.33333333 2.33333333 0 0 Z " fill="#7E6A3F" transform="translate(114,12)"/>
</svg>
