<?xml version="1.0" encoding="UTF-8"?>
<svg version="1.1" xmlns="http://www.w3.org/2000/svg" width="512" height="512">
<path d="M0 0 C1.41952217 -0.01058945 1.41952217 -0.01058945 2.86772156 -0.02139282 C42.50535712 -0.24998755 42.50535712 -0.24998755 58.8671875 3.203125 C59.86862793 3.41243652 60.87006836 3.62174805 61.90185547 3.83740234 C73.76353114 6.38575991 85.45949936 9.35658197 96.85644531 13.55004883 C101.60700377 15.20215869 104.30071169 15.35914437 108.8671875 13.203125 C110.32125 12.39875 110.32125 12.39875 111.8046875 11.578125 C115.52191824 9.90916426 117.82813603 9.69824357 121.8671875 10.203125 C130.45430383 14.5843068 135.28128926 22.52398191 138.8671875 31.203125 C138.8671875 31.863125 138.8671875 32.523125 138.8671875 33.203125 C139.5375 33.4403125 140.2078125 33.6775 140.8984375 33.921875 C144.61852796 35.52738772 147.94184677 37.5499949 151.3671875 39.703125 C152.07206299 40.14599854 152.77693848 40.58887207 153.50317383 41.04516602 C159.72336373 45.01214176 165.59729967 49.30946595 171.32568359 53.95410156 C172.81545587 55.16120878 174.31961894 56.35048828 175.82421875 57.5390625 C191.46058505 70.264937 206.08105485 84.82473665 217.8671875 101.203125 C218.70738133 102.33794504 219.54854461 103.4720479 220.390625 104.60546875 C223.90525987 109.39103876 227.31522864 114.16024896 230.2578125 119.32421875 C235.9237961 129.19751365 241.15594267 134.25187496 250.8671875 140.203125 C259.36903741 146.48098106 266.10549025 154.87922722 268.8671875 165.203125 C269.28912274 168.38294172 269.34196934 171.49845323 269.3046875 174.703125 C269.30218994 175.57171143 269.29969238 176.44029785 269.29711914 177.33520508 C269.15038769 184.46374481 267.80444655 190.75670017 265.64453125 197.52734375 C264.40557042 203.38594749 265.59174602 208.67407147 266.62109375 214.49609375 C271.75610636 244.33653438 271.12058225 277.62357521 264.8671875 307.203125 C264.64756348 308.24500977 264.42793945 309.28689453 264.20166016 310.36035156 C254.10403965 356.65361811 231.74489992 399.06726221 198.8671875 433.203125 C198.23506348 433.86248047 197.60293945 434.52183594 196.95166016 435.20117188 C187.80721271 444.68942805 178.50984741 453.4293294 167.8671875 461.203125 C166.71613733 462.06118652 165.56509573 462.91925951 164.4140625 463.77734375 C156.22287893 469.81604074 147.71721401 475.1869759 138.8671875 480.203125 C138.17592773 480.59999512 137.48466797 480.99686523 136.77246094 481.40576172 C110.63268846 496.28123947 81.53637345 505.62501532 51.8671875 510.203125 C50.74038574 510.38117676 49.61358398 510.55922852 48.45263672 510.74267578 C36.84467213 512.39799786 25.32999611 512.60184921 13.6171875 512.578125 C12.09916534 512.57730927 12.09916534 512.57730927 10.55047607 512.57647705 C-5.97811822 512.53574456 -21.91195249 511.63236722 -38.1328125 508.203125 C-39.17469727 507.98350098 -40.21658203 507.76387695 -41.29003906 507.53759766 C-87.58330561 497.43997715 -129.99694971 475.08083742 -164.1328125 442.203125 C-164.79216797 441.57100098 -165.45152344 440.93887695 -166.13085938 440.28759766 C-175.61911555 431.14315021 -184.3590169 421.84578491 -192.1328125 411.203125 C-192.99087402 410.05207483 -193.84894701 408.90103323 -194.70703125 407.75 C-200.74458646 399.56036519 -206.12738552 391.05774224 -211.1328125 382.203125 C-211.535 381.49591309 -211.9371875 380.78870117 -212.3515625 380.06005859 C-225.3769866 356.92466664 -234.12582711 331.75350091 -239.4453125 305.765625 C-239.59266846 305.04673096 -239.74002441 304.32783691 -239.8918457 303.5871582 C-242.86606929 287.9389438 -243.49861904 272.46882121 -243.4453125 256.578125 C-243.44481903 255.56553619 -243.44432556 254.55294739 -243.44381714 253.50967407 C-243.42302522 239.58308258 -242.93394421 226.07395721 -240.50415039 212.33251953 C-239.31778897 205.5294661 -238.90822863 200.67960816 -241.0703125 193.953125 C-244.31794237 182.45979908 -245.81001786 168.54309494 -240.6328125 157.453125 C-238.94140625 154.69140625 -238.94140625 154.69140625 -237.1328125 152.203125 C-236.58753906 151.43355469 -236.04226562 150.66398438 -235.48046875 149.87109375 C-230.47813582 143.62091409 -224.02209677 139.23861885 -217.5234375 134.68359375 C-212.17851969 130.84736884 -208.98546427 126.58849119 -205.6328125 120.953125 C-200.33126705 112.27596669 -194.41914656 104.18846826 -188.1328125 96.203125 C-187.71515625 95.666875 -187.2975 95.130625 -186.8671875 94.578125 C-174.10384745 78.33387402 -158.91147914 63.26060823 -142.1328125 51.203125 C-140.96292794 50.3393723 -139.79367 49.47477031 -138.625 48.609375 C-117.62747033 33.203125 -117.62747033 33.203125 -113.1328125 33.203125 C-112.9265625 32.419375 -112.7203125 31.635625 -112.5078125 30.828125 C-109.28130186 22.32186967 -104.50718416 14.39031083 -96.1328125 10.203125 C-90.17851885 9.45883829 -87.07678911 11.06795202 -82.1484375 14.40234375 C-77.17566851 15.72283293 -72.92157607 13.74709247 -68.1328125 12.203125 C-66.23456256 11.63690882 -64.33480647 11.07571807 -62.43359375 10.51953125 C-61.46357422 10.23352051 -60.49355469 9.94750977 -59.49414062 9.65283203 C-46.18721398 5.7805249 -32.87592888 2.99931614 -19.1328125 1.203125 C-18.48144318 1.11724121 -17.83007385 1.03135742 -17.15896606 0.94287109 C-11.42742775 0.23974821 -5.77120175 0.02864185 0 0 Z " fill="#90D7F8" transform="translate(243.1328125,-0.203125)"/>
<path d="M0 0 C1.41952217 -0.01058945 1.41952217 -0.01058945 2.86772156 -0.02139282 C42.50535712 -0.24998755 42.50535712 -0.24998755 58.8671875 3.203125 C59.86862793 3.41243652 60.87006836 3.62174805 61.90185547 3.83740234 C73.76353114 6.38575991 85.45949936 9.35658197 96.85644531 13.55004883 C101.60700377 15.20215869 104.30071169 15.35914437 108.8671875 13.203125 C110.32125 12.39875 110.32125 12.39875 111.8046875 11.578125 C115.52191824 9.90916426 117.82813603 9.69824357 121.8671875 10.203125 C130.45430383 14.5843068 135.28128926 22.52398191 138.8671875 31.203125 C138.8671875 31.863125 138.8671875 32.523125 138.8671875 33.203125 C139.5375 33.4403125 140.2078125 33.6775 140.8984375 33.921875 C144.61852796 35.52738772 147.94184677 37.5499949 151.3671875 39.703125 C152.07206299 40.14599854 152.77693848 40.58887207 153.50317383 41.04516602 C159.72336373 45.01214176 165.59729967 49.30946595 171.32568359 53.95410156 C172.81545587 55.16120878 174.31961894 56.35048828 175.82421875 57.5390625 C191.46167836 70.2658268 206.07828246 84.82502011 217.8671875 101.203125 C218.71895551 102.34977372 219.57184213 103.49559225 220.42578125 104.640625 C226.47058353 112.83489357 231.76200528 121.39853537 236.8671875 130.203125 C236.2071875 130.533125 235.5471875 130.863125 234.8671875 131.203125 C233.03662109 130.48144531 233.03662109 130.48144531 230.765625 129.28125 C229.8991333 128.83797363 229.0326416 128.39469727 228.13989258 127.93798828 C227.1836499 127.4479834 226.22740723 126.95797852 225.2421875 126.453125 C205.71860818 116.79245723 184.63746597 109.82739218 163.41015625 105.0078125 C159.8671875 104.203125 159.8671875 104.203125 156.8671875 103.203125 C156.96217529 103.90767822 157.05716309 104.61223145 157.1550293 105.33813477 C157.62283755 108.81379743 158.08903894 112.28967231 158.5546875 115.765625 C158.64266602 116.42204987 158.73064453 117.07847473 158.82128906 117.75479126 C159.94408379 126.14292805 161.04289065 134.5336995 162.10546875 142.9296875 C162.20893616 143.7467215 162.31240356 144.56375549 162.41900635 145.4055481 C162.52291687 146.22610687 162.62682739 147.04666565 162.73388672 147.89208984 C164.35106712 160.6604713 165.99118698 173.41608408 167.9296875 186.140625 C169.35550816 195.5137261 170.65325854 204.89733663 171.84469604 214.30276489 C172.02401874 215.71788584 172.20474659 217.13282956 172.38699341 218.5475769 C172.64033654 220.52069886 172.88669407 222.49471385 173.1328125 224.46875 C173.27493164 225.60086914 173.41705078 226.73298828 173.56347656 227.89941406 C173.88089873 231.35227324 173.91884486 234.73768535 173.8671875 238.203125 C140.70516658 245.51855646 107.67504573 250.95999909 73.8671875 254.203125 C72.59931648 254.32810616 72.59931648 254.32810616 71.30583191 254.45561218 C64.79222014 255.07803947 58.29147741 255.49047375 51.75390625 255.75390625 C50.72174484 255.79574539 49.68958344 255.83758453 48.62614441 255.88069153 C36.97834805 256.31918685 25.33468626 256.40237202 13.6796875 256.390625 C12.55544373 256.39002075 11.43119995 256.3894165 10.27288818 256.38879395 C-43.12548363 256.31157287 -96.34207179 251.69455328 -148.1328125 238.203125 C-148.54359814 228.62949691 -147.2644839 219.36935862 -145.9375 209.921875 C-145.70631203 208.23669456 -145.4757714 206.55142519 -145.24583435 204.86607361 C-144.63413292 200.39607379 -144.01344265 195.92736679 -143.39084244 191.45887375 C-142.75164557 186.86010533 -142.12080001 182.26019162 -141.48901367 177.66040039 C-140.15292874 167.94437812 -138.80514819 158.2300031 -137.45426178 148.51602936 C-136.97613174 145.07576948 -136.49951895 141.6353006 -136.02294922 138.19482422 C-134.4065667 126.528989 -132.78100089 114.86451244 -131.1328125 103.203125 C-170.56593362 112.8153932 -170.56593362 112.8153932 -207.0625 130.02734375 C-207.74570313 130.41535156 -208.42890625 130.80335938 -209.1328125 131.203125 C-209.7928125 130.873125 -210.4528125 130.543125 -211.1328125 130.203125 C-202.88177184 115.97306937 -193.83315146 102.72520625 -183.1328125 90.203125 C-182.49601562 89.45417969 -181.85921875 88.70523438 -181.203125 87.93359375 C-169.38857828 74.44110557 -156.6532753 61.75468927 -142.1328125 51.203125 C-141.5557959 50.77596191 -140.9787793 50.34879883 -140.38427734 49.90869141 C-117.81776362 33.203125 -117.81776362 33.203125 -113.1328125 33.203125 C-112.8234375 32.0275 -112.8234375 32.0275 -112.5078125 30.828125 C-109.28130186 22.32186967 -104.50718416 14.39031083 -96.1328125 10.203125 C-90.17851885 9.45883829 -87.07678911 11.06795202 -82.1484375 14.40234375 C-77.17566851 15.72283293 -72.92157607 13.74709247 -68.1328125 12.203125 C-66.23456256 11.63690882 -64.33480647 11.07571807 -62.43359375 10.51953125 C-61.46357422 10.23352051 -60.49355469 9.94750977 -59.49414062 9.65283203 C-46.18721398 5.7805249 -32.87592888 2.99931614 -19.1328125 1.203125 C-18.48144318 1.11724121 -17.83007385 1.03135742 -17.15896606 0.94287109 C-11.42742775 0.23974821 -5.77120175 0.02864185 0 0 Z " fill="#595454" transform="translate(243.1328125,-0.203125)"/>
<path d="M0 0 C2.26214362 3.39321543 3.63426329 6.91977305 5.125 10.6875 C8.64193451 19.37394909 12.64247097 27.70773195 17 36 C17.51457764 36.99725098 17.51457764 36.99725098 18.03955078 38.01464844 C29.41498142 59.94660469 44.01731933 80.40690223 59 100 C59.49048828 100.64211426 59.98097656 101.28422852 60.48632812 101.94580078 C65.96793303 109.08866758 71.62883208 116.05317124 77.5612793 122.82763672 C79.63809301 125.22865283 80.98386569 126.95159708 82 130 C81.34 130.99 80.68 131.98 80 133 C79.2166104 138.67170976 79.2166104 138.67170976 81.88671875 143.46875 C85.72081833 146.99474627 90.47660843 148.70602882 95.25 150.625 C96.29430176 151.04958496 97.33860352 151.47416992 98.41455078 151.91162109 C128.57814222 163.93057794 160.14908208 173.48757063 192.4230957 177.66477966 C194.19155166 177.89483182 195.95926814 178.13061943 197.72631836 178.37123108 C213.41978177 180.49000449 228.82642714 181.45329465 244.65942383 181.33618164 C248.06550779 181.31247907 251.47080654 181.31567356 254.87695312 181.32226562 C278.53119561 181.29275303 301.74582955 179.36552001 325 175 C326.04285156 174.8045459 327.08570313 174.6090918 328.16015625 174.40771484 C377.80933298 165.4264438 377.80933298 165.4264438 421 142 C421.09919077 140.39836084 421.12969898 138.79220082 421.125 137.1875 C421.12886719 135.87845703 421.12886719 135.87845703 421.1328125 134.54296875 C421.12332798 132.03542409 421.12332798 132.03542409 420.265625 129.9375 C420 128 420 128 421.4140625 126.01953125 C422.14367187 125.29121094 422.87328125 124.56289063 423.625 123.8125 C429.76572871 117.32903294 435.03274434 110.2688485 440.38867188 103.13330078 C441.84174929 101.20951434 443.31371965 99.30296808 444.796875 97.40234375 C467.59983727 67.961519 488.57509734 35.24748702 501 0 C503.26056456 2.26056456 503.35951192 2.97825924 503.81640625 6.03515625 C503.94080078 6.84533203 504.06519531 7.65550781 504.19335938 8.49023438 C504.37608398 9.76350586 504.37608398 9.76350586 504.5625 11.0625 C504.68818359 11.88427734 504.81386719 12.70605469 504.94335938 13.55273438 C505.31616905 16.03357782 505.67502353 18.51236399 506 21 C506.08472061 21.64816177 506.16944122 22.29632355 506.25672913 22.96412659 C506.94847001 28.63848872 507.1885644 34.24362414 507.23828125 39.95703125 C507.2480751 40.88975357 507.25786896 41.82247589 507.26795959 42.78346252 C507.4405989 63.50093104 507.30428596 83.6400442 503 104 C502.78037598 105.04188477 502.56075195 106.08376953 502.33447266 107.15722656 C492.23685215 153.45049311 469.87771242 195.86413721 437 230 C436.36787598 230.65935547 435.73575195 231.31871094 435.08447266 231.99804688 C425.94002521 241.48630305 416.64265991 250.2262044 406 258 C404.84894983 258.85806152 403.69790823 259.71613451 402.546875 260.57421875 C394.35569143 266.61291574 385.85002651 271.9838509 377 277 C376.30874023 277.39687012 375.61748047 277.79374023 374.90527344 278.20263672 C348.76550096 293.07811447 319.66918595 302.42189032 290 307 C288.87319824 307.17805176 287.74639648 307.35610352 286.58544922 307.53955078 C274.97748463 309.19487286 263.46280861 309.39872421 251.75 309.375 C250.23197784 309.37418427 250.23197784 309.37418427 248.68328857 309.37335205 C232.15469428 309.33261956 216.22086001 308.42924222 200 305 C198.95811523 304.78037598 197.91623047 304.56075195 196.84277344 304.33447266 C150.54950689 294.23685215 108.13586279 271.87771242 74 239 C73.34064453 238.36787598 72.68128906 237.73575195 72.00195312 237.08447266 C62.51369695 227.94002521 53.7737956 218.64265991 46 208 C45.14193848 206.84894983 44.28386549 205.69790823 43.42578125 204.546875 C37.38822604 196.35724019 32.00542698 187.85461724 27 179 C26.5978125 178.29278809 26.195625 177.58557617 25.78125 176.85693359 C12.7558259 153.72154164 4.00698539 128.55037591 -1.3125 102.5625 C-1.45985596 101.84360596 -1.60721191 101.12471191 -1.7590332 100.3840332 C-4.73318311 84.73620643 -5.36727389 69.26542429 -5.3125 53.375 C-5.31167419 52.36307587 -5.31084839 51.35115173 -5.30999756 50.30856323 C-5.27801477 33.29658384 -5.02160196 16.39662206 0 0 Z " fill="#595454" transform="translate(5,203)"/>
<path d="M0 0 C8.39877789 3.4115966 15.27444786 9.04158115 22 15 C22.99 15.86431641 22.99 15.86431641 24 16.74609375 C30.49867179 22.79508066 35.53325716 30.84295803 39 39 C39 39.99 39 40.98 39 42 C39.98097656 41.48050781 40.96195313 40.96101563 41.97265625 40.42578125 C51.11622486 35.66843058 60.08883979 31.86993736 70 29 C70.84175781 28.75378906 71.68351563 28.50757812 72.55078125 28.25390625 C78.3515218 26.75993222 84.0385049 26.79942633 90 27 C87.67140603 29.32859397 85.55737911 30.19552657 82.5625 31.5625 C63.90497255 40.80199326 51.82191571 58.64472376 43 77 C37.25 76.125 37.25 76.125 35 75 C20.13381479 73.87945915 20.13381479 73.87945915 7 80 C0.10110393 86.12699161 -4.28236591 92.93001162 -5.375 102.171875 C-5.74303653 111.9708476 -3.56740683 119.20361144 2.625 126.8125 C8.35367664 132.86181152 15.21057673 135.48254871 23 138 C22.73011972 140.18761779 22.45899586 142.37508213 22.1875 144.5625 C22.05492798 145.64869629 22.05492798 145.64869629 21.91967773 146.75683594 C21.43006356 150.72541923 20.90600381 154.68343676 20.3046875 158.63671875 C18.31142078 172.13276787 17.28470283 185.64502476 16.375 199.25 C16.31265167 200.1819519 16.25030334 201.11390381 16.18606567 202.07409668 C15.34923411 214.71060057 14.63550222 227.35186696 14 240 C3.81103211 240.41700193 -5.77246046 239.17309128 -15.75 237.375 C-17.2862132 237.10595138 -18.82242741 236.83690847 -20.35864258 236.56787109 C-33.37365851 234.25296251 -46.2066475 231.33290646 -59 228 C-59.41078564 218.42637191 -58.1316714 209.16623362 -56.8046875 199.71875 C-56.57349953 198.03356956 -56.3429589 196.34830019 -56.11302185 194.66294861 C-55.50132042 190.19294879 -54.88063015 185.72424179 -54.25802994 181.25574875 C-53.61883307 176.65698033 -52.98798751 172.05706662 -52.35620117 167.45727539 C-51.02011624 157.74125312 -49.67233569 148.0268781 -48.32144928 138.31290436 C-47.84331924 134.87264448 -47.36670645 131.4321756 -46.89013672 127.99169922 C-45.2737542 116.325864 -43.64818839 104.66138744 -42 93 C-81.43312112 102.6122682 -81.43312112 102.6122682 -117.9296875 119.82421875 C-118.61289063 120.21222656 -119.29609375 120.60023438 -120 121 C-120.66 120.67 -121.32 120.34 -122 120 C-113.74895934 105.76994437 -104.70033896 92.52208125 -94 80 C-93.36320312 79.25105469 -92.72640625 78.50210938 -92.0703125 77.73046875 C-80.25576578 64.23798057 -67.5204628 51.55156427 -53 41 C-52.4229834 40.57283691 -51.8459668 40.14567383 -51.25146484 39.70556641 C-28.68495112 23 -28.68495112 23 -24 23 C-23.79375 22.21625 -23.5875 21.4325 -23.375 20.625 C-19.64113972 10.78118655 -12.30710223 -2.25372429 0 0 Z " fill="#454045" transform="translate(154,10)"/>
<path d="M0 0 C2.26056456 2.26056456 2.35951192 2.97825924 2.81640625 6.03515625 C2.94080078 6.84533203 3.06519531 7.65550781 3.19335938 8.49023438 C3.31517578 9.33908203 3.43699219 10.18792969 3.5625 11.0625 C3.75102539 12.29516602 3.75102539 12.29516602 3.94335938 13.55273438 C4.31616905 16.03357782 4.67502353 18.51236399 5 21 C5.08472061 21.64816177 5.16944122 22.29632355 5.25672913 22.96412659 C5.94847001 28.63848872 6.1885644 34.24362414 6.23828125 39.95703125 C6.2480751 40.88975357 6.25786896 41.82247589 6.26795959 42.78346252 C6.4405989 63.50093104 6.30428596 83.6400442 2 104 C1.78037598 105.04188477 1.56075195 106.08376953 1.33447266 107.15722656 C-9.921708 158.76199535 -36.51000794 204.92450929 -75 241 C-75.33 241 -75.66 241 -76 241 C-76.0640654 240.44180573 -76.1281308 239.88361145 -76.19413757 239.3085022 C-79.72750759 208.53067758 -83.30751291 177.75916087 -87 147 C-86.030625 146.360625 -85.06125 145.72125 -84.0625 145.0625 C-81.23963731 143.3034741 -81.23963731 143.3034741 -80 142 C-79.90080923 140.39836084 -79.87030102 138.79220082 -79.875 137.1875 C-79.87113281 135.87845703 -79.87113281 135.87845703 -79.8671875 134.54296875 C-79.87667202 132.03542409 -79.87667202 132.03542409 -80.734375 129.9375 C-81 128 -81 128 -79.5859375 126.01953125 C-78.49152344 124.92705078 -78.49152344 124.92705078 -77.375 123.8125 C-71.23427129 117.32903294 -65.96725566 110.2688485 -60.61132812 103.13330078 C-59.15825071 101.20951434 -57.68628035 99.30296808 -56.203125 97.40234375 C-33.40016273 67.961519 -12.42490266 35.24748702 0 0 Z " fill="#D94A54" transform="translate(506,203)"/>
<path d="M0 0 C2.26214362 3.39321543 3.63426329 6.91977305 5.125 10.6875 C8.64193451 19.37394909 12.64247097 27.70773195 17 36 C17.51457764 36.99725098 17.51457764 36.99725098 18.03955078 38.01464844 C29.41498142 59.94660469 44.01731933 80.40690223 59 100 C59.49048828 100.64211426 59.98097656 101.28422852 60.48632812 101.94580078 C65.96793303 109.08866758 71.62883208 116.05317124 77.5612793 122.82763672 C79.63809301 125.22865283 80.98386569 126.95159708 82 130 C81.34 130.99 80.68 131.98 80 133 C79.6595426 136.01547986 79.43252553 138.0945307 80 141 C82.44298288 144.03722197 84.7663665 145.84424433 88 148 C87.89453857 148.80816162 87.78907715 149.61632324 87.68041992 150.44897461 C83.75242252 180.59630141 80.22066904 210.76901417 77 241 C65.24926833 231.13043535 55.12588044 220.3272844 46 208 C45.35635498 207.13955078 45.35635498 207.13955078 44.69970703 206.26171875 C38.18940154 197.52543603 32.36072565 188.48314179 27 179 C26.5978125 178.29278809 26.195625 177.58557617 25.78125 176.85693359 C12.7558259 153.72154164 4.00698539 128.55037591 -1.3125 102.5625 C-1.45985596 101.84360596 -1.60721191 101.12471191 -1.7590332 100.3840332 C-4.73318311 84.73620643 -5.36727389 69.26542429 -5.3125 53.375 C-5.31167419 52.36307587 -5.31084839 51.35115173 -5.30999756 50.30856323 C-5.27801477 33.29658384 -5.02160196 16.39662206 0 0 Z " fill="#D94A54" transform="translate(5,203)"/>
<path d="M0 0 C23.99577806 3.72179415 48.06486023 12.45247104 70.125 22.5625 C71.80166748 23.3203479 71.80166748 23.3203479 73.51220703 24.09350586 C81.50245055 27.87345482 88.11998358 32.51341298 95 38 C95.70817871 38.54390381 96.41635742 39.08780762 97.14599609 39.64819336 C104.04491701 44.98560932 110.29525239 53.32539933 112 62 C113.26357099 72.77584697 111.23533435 81.43235849 104.640625 90.1015625 C87.11138779 110.75695013 61.08442971 120.77857925 36 129 C35.14035645 129.28520508 34.28071289 129.57041016 33.39501953 129.86425781 C20.86912393 134 20.86912393 134 17 134 C14.00405624 112.84841986 11.04667743 91.6952899 8.375 70.5 C6.57171579 56.19805993 4.56658812 41.94108376 2.40673828 27.68798828 C-0.38990102 9.20599627 -0.38990102 9.20599627 0 0 Z " fill="#EEE6E3" transform="translate(400,103)"/>
<path d="M0 0 C-0.61909361 9.69814002 -1.74808381 19.28840464 -3.07421875 28.91015625 C-3.2811605 30.43235907 -3.48776631 31.95460759 -3.69406128 33.47689819 C-4.2415449 37.50997209 -4.79357321 41.5424108 -5.34666824 45.57471848 C-5.91772135 49.74291979 -6.4849215 53.91164533 -7.05249023 58.08032227 C-7.84198991 63.87647553 -8.63290392 69.67243251 -9.42559528 75.46815014 C-10.61457806 84.16226666 -11.79236532 92.85780072 -12.9609375 101.5546875 C-13.36952737 104.58701685 -13.7783924 107.61930892 -14.18740845 110.65158081 C-14.43612821 112.49889822 -14.68400131 114.34632983 -14.93099976 116.19387817 C-15.26513011 118.69081948 -15.60278475 121.18725819 -15.94140625 123.68359375 C-16.03573944 124.39558929 -16.13007263 125.10758484 -16.2272644 125.84115601 C-16.61740349 128.69434612 -17.08620554 131.25861663 -18 134 C-48.83429902 128.58929467 -84.15465498 114.16440967 -105 90 C-111.1726634 80.91371932 -113.30626648 71.95164487 -112 61 C-106.67407987 44.65020843 -92.15488223 33.71170763 -77.51220703 25.89282227 C-55.58274416 14.79191823 -24.95112069 0 0 0 Z " fill="#DFD7D4" transform="translate(112,103)"/>
<path d="M0 0 C1.28122365 2.51807591 2.44204798 5.02555131 3.5625 7.625 C16.40880298 33.31760596 51.69889533 45.29286132 77 53.75 C82.63578157 55.6231184 88.27655244 57.41360964 94 59 C94.33 58.01 94.66 57.02 95 56 C95 57.32 95 58.64 95 60 C95.9178125 60.1134375 96.835625 60.226875 97.78125 60.34375 C104.10765838 61.24752263 110.31922869 62.78727916 116.55078125 64.18359375 C121.69078442 65.32207414 126.77413502 66.35410658 132 67 C131.01 67.495 131.01 67.495 130 68 C131.67570504 98.91224491 135.25958995 130.27334736 144.1171875 160.01953125 C145.19440331 163.65632622 146.11498065 167.31241938 147 171 C139.6274991 169.0959322 132.458271 166.877027 125.3125 164.25 C124.3642334 163.90582031 123.4159668 163.56164062 122.43896484 163.20703125 C115.9074966 160.80191801 109.51354728 158.17487579 103.2746582 155.08300781 C97.6308011 152.42212064 91.99224916 152.00258361 86 154 C82.98879084 150.34244544 79.99213028 146.67316309 77 143 C76.54512207 142.44328613 76.09024414 141.88657227 75.62158203 141.31298828 C-1.96502133 46.17800133 -1.96502133 46.17800133 0 0 Z " fill="#6BBDF5" transform="translate(0,178)"/>
<path d="M0 0 C3.14500984 1.303328 6.24492218 2.68308827 9.34326172 4.09375 C21.46528437 9.41798307 33.68691438 14.01881456 46.28076172 18.09375 C47.46669922 18.47917969 48.65263672 18.86460937 49.87451172 19.26171875 C68.48848318 24.90580663 87.95931908 28.88758451 107.28076172 31.09375 C108.15700195 31.19671387 109.03324219 31.29967773 109.93603516 31.40576172 C125.27600052 33.11470189 140.61371544 33.29996921 156.03076172 33.34375 C156.96886688 33.34901703 157.90697205 33.35428406 158.87350464 33.35971069 C178.29071034 33.44397552 197.36874807 31.82820455 216.53076172 28.71875 C217.20977539 28.61014648 217.88878906 28.50154297 218.58837891 28.38964844 C234.13264016 25.89937211 249.10427468 22.7452062 264.05444336 17.80639648 C265.74529795 17.26515243 267.44392577 16.74812128 269.14575195 16.24243164 C277.5150944 13.74898952 285.60714601 10.76087748 293.71826172 7.53125 C294.94480469 7.04978516 296.17134766 6.56832031 297.43505859 6.07226562 C304.06842727 3.46425159 304.06842727 3.46425159 310.52075195 0.44726562 C314.67112528 -1.58808773 317.91135413 -1.08358563 322.28076172 0.09375 C324.84326172 1.53125 324.84326172 1.53125 326.28076172 4.09375 C326.94593206 7.57853619 327.26278233 10.66723723 326.28076172 14.09375 C322.06641597 18.41263766 317.51358768 20.61855925 311.96826172 22.84375 C311.15284912 23.17810059 310.33743652 23.51245117 309.49731445 23.85693359 C259.99720611 43.86771402 209.20738007 54.512879 155.75170898 54.40942383 C152.347658 54.40625409 148.94447282 54.42989993 145.54052734 54.45507812 C129.935574 54.49934909 114.7306456 53.24563086 99.28076172 51.09375 C98.26824844 50.95347382 97.25573517 50.81319763 96.21253967 50.66867065 C62.16368273 45.88189473 28.86094955 36.13903675 -2.78173828 22.78125 C-3.73411377 22.38494385 -4.68648926 21.9886377 -5.66772461 21.58032227 C-10.45521063 19.47975817 -14.01778672 17.8007113 -16.71923828 13.09375 C-17.42951649 10.33619933 -17.2928634 7.87751894 -16.71923828 5.09375 C-12.48676941 -1.53711789 -7.27264584 -2.42377998 0 0 Z " fill="#EDE5E3" transform="translate(100.71923828125,330.90625)"/>
<path d="M0 0 C3.55573586 0.61225116 6.65258413 1.56494621 9.97265625 2.96875 C10.94211182 3.37109863 11.91156738 3.77344727 12.91040039 4.18798828 C13.95059326 4.62095215 14.99078613 5.05391602 16.0625 5.5 C29.81112324 11.12914748 43.80463317 15.64078031 58 20 C58.02810057 22.2917578 58.04733649 24.58314326 58.0625 26.875 C58.07410156 28.15117187 58.08570313 29.42734375 58.09765625 30.7421875 C58.0735131 34.45505841 57.87824321 38.1431509 57.64065456 41.84813881 C56.96777412 52.54424926 56.86957361 63.20015388 56.90234375 73.9140625 C56.90421539 75.74921632 56.90563575 77.58437064 56.90663147 79.41952515 C56.91039803 84.1835678 56.92017612 88.94757858 56.93133545 93.71160889 C56.94167771 98.59940154 56.94615617 103.48719949 56.95117188 108.375 C56.96180542 117.91668045 56.97880869 127.45833755 57 137 C52.92587352 136.37756826 49.79563948 135.63311497 46.1640625 133.6640625 C45.27267578 133.18251709 44.38128906 132.70097168 43.46289062 132.20483398 C42.52638672 131.68348877 41.58988281 131.16214355 40.625 130.625 C39.64982422 130.08625244 38.67464844 129.54750488 37.66992188 128.99243164 C24.43220272 121.56848753 12.27211209 112.83338255 0.54248047 103.22412109 C-0.88644918 102.09011456 -2.3771049 101.03508977 -3.87109375 99.98828125 C-9.75252386 95.61161641 -9.75252386 95.61161641 -10.41992188 91.26538086 C-10.21482079 82.88318866 -9.34450907 74.72983964 -8.125 66.4375 C-7.74738972 63.76894748 -7.37704198 61.09941113 -7.0078125 58.4296875 C-6.83024414 57.14803711 -6.65267578 55.86638672 -6.46972656 54.54589844 C-5.87533172 50.05889706 -5.4086402 45.56964651 -5 41.0625 C-3.74313327 27.33078423 -1.81330535 13.6670962 0 0 Z " fill="#454045" transform="translate(92,351)"/>
<path d="M0 0 C1.01790619 0.00215515 2.03581238 0.0043103 3.08456421 0.00653076 C17.68763423 0.05618106 32.03429136 0.2859388 46.375 3.3125 C47.37644043 3.52181152 48.37788086 3.73112305 49.40966797 3.94677734 C63.31586894 6.93437989 76.89749744 10.78251702 90.375 15.3125 C90.375 16.3025 90.375 17.2925 90.375 18.3125 C88.21484375 20.29296875 88.21484375 20.29296875 85.3125 22.5 C75.50564091 30.32542208 67.40439297 40.2243211 63.375 52.3125 C60.698937 51.26878596 58.07062208 50.17355372 55.45703125 48.98046875 C24.26948924 34.85851125 -11.98409964 32.35996907 -44.3125 44.25 C-49.44724857 46.23805308 -54.32725495 48.54670285 -59.0234375 51.4296875 C-60.625 52.3125 -60.625 52.3125 -62.625 52.3125 C-63.07488281 51.29671875 -63.52476562 50.2809375 -63.98828125 49.234375 C-70.23988107 35.6530849 -78.28746772 25.96400412 -90.625 17.3125 C-89.625 15.3125 -89.625 15.3125 -87.50561523 14.43041992 C-86.57434814 14.13756104 -85.64308105 13.84470215 -84.68359375 13.54296875 C-83.63679443 13.21377441 -82.58999512 12.88458008 -81.51147461 12.54541016 C-80.37331299 12.2004248 -79.23515137 11.85543945 -78.0625 11.5 C-76.89533447 11.14470215 -75.72816895 10.7894043 -74.52563477 10.42333984 C-66.76481049 8.11681763 -58.98588861 6.10104193 -51.0625 4.4375 C-50.16265381 4.24696045 -49.26280762 4.0564209 -48.33569336 3.86010742 C-32.23280369 0.65806686 -16.37731284 -0.06236181 0 0 Z " fill="#D94A54" transform="translate(255.625,-0.3125)"/>
<path d="M0 0 C4.54765427 1.60916997 8.43808698 3.94672783 12.5 6.5 C13.20487549 6.94287354 13.90975098 7.38574707 14.63598633 7.84204102 C20.85617623 11.80901676 26.73011217 16.10634095 32.45849609 20.75097656 C33.94826837 21.95808378 35.45243144 23.14736328 36.95703125 24.3359375 C52.59449086 37.0627018 67.21109496 51.62189511 79 68 C79.85176801 69.14664872 80.70465463 70.29246725 81.55859375 71.4375 C87.60339603 79.63176857 92.89481778 88.19541037 98 97 C97.01 97.495 97.01 97.495 96 98 C94.16943359 97.27832031 94.16943359 97.27832031 91.8984375 96.078125 C91.03226807 95.6349292 90.16609863 95.1917334 89.27368164 94.73510742 C88.3171167 94.24502197 87.36055176 93.75493652 86.375 93.25 C64.43318642 82.40822471 40.84471259 75.29157576 17 70 C16.85304688 68.93007812 16.70609375 67.86015625 16.5546875 66.7578125 C13.56172351 45.9692221 8.78286671 25.73439242 1.66088867 5.96923828 C0.99895838 3.99689629 0.47704218 2.02424426 0 0 Z " fill="#D94A54" transform="translate(382,33)"/>
<path d="M0 0 C8.92874796 5.45560331 14.41265239 12.90526126 17.3125 22.9375 C18.37714729 32.69264025 17.15590201 40.59900679 11.39453125 48.6015625 C6.13340614 54.91491263 0.67588379 60.08437696 -7.72705078 61.2109375 C-17.17883874 62.03301082 -25.81329985 61.8108788 -33.6875 55.9375 C-36.5 53.5 -36.5 53.5 -38.6875 50.9375 C-39.55375 50.03 -40.42 49.1225 -41.3125 48.1875 C-47.37057059 40.61968942 -47.63954257 31.2631897 -46.6875 21.9375 C-44.21968574 12.09562172 -36.97686026 5.37490422 -28.703125 0.06640625 C-21.177951 -4.14827454 -7.74290529 -3.65570606 0 0 Z " fill="#FBFBFB" transform="translate(346.6875,86.0625)"/>
<path d="M0 0 C8.74455087 5.3522682 14.1641939 12.36758171 17.375 22 C18.37924487 32.77411279 16.86096083 41.74740305 10.48046875 50.640625 C8.42580333 52.9430701 6.51996722 54.51807145 3.9375 56.1875 C2.82568359 56.92033203 2.82568359 56.92033203 1.69140625 57.66796875 C-6.16331761 62.18476611 -14.77412225 61.9906487 -23.625 61 C-32.60102699 58.51159648 -38.94022176 52.2239101 -43.5 44.3125 C-47.49216239 36.87015753 -47.79274442 28.49944502 -46.046875 20.27734375 C-43.07726132 11.7599518 -36.85563476 4.5765334 -29.1875 -0.125 C-20.63516036 -3.87250407 -8.49919949 -3.86805673 0 0 Z " fill="#FAFAFA" transform="translate(194.625,86)"/>
<path d="M0 0 C0.99 0.495 0.99 0.495 2 1 C1.64603149 1.9597876 1.64603149 1.9597876 1.28491211 2.93896484 C-3.90816632 17.22590754 -8.02296978 31.35819699 -11 46.25 C-11.1472049 46.98547058 -11.29440979 47.72094116 -11.44607544 48.47869873 C-12.79890241 55.29764831 -14.0563644 62.11013728 -15 69 C-21.1027551 71.43396431 -27.18763382 73.12667595 -33.5625 74.6875 C-53.30573099 79.70885379 -74.50093461 85.97191528 -91.9296875 96.82421875 C-92.61289063 97.21222656 -93.29609375 97.60023438 -94 98 C-94.66 97.67 -95.32 97.34 -96 97 C-87.74895934 82.76994437 -78.70033896 69.52208125 -68 57 C-67.36320312 56.25105469 -66.72640625 55.50210938 -66.0703125 54.73046875 C-54.25576578 41.23798057 -41.5204628 28.55156427 -27 18 C-26.4229834 17.57283691 -25.8459668 17.14567383 -25.25146484 16.70556641 C-8.65894992 4.42243915 -8.65894992 4.42243915 0 0 Z " fill="#D94A54" transform="translate(128,33)"/>
<path d="M0 0 C1.82917969 -0.02416992 1.82917969 -0.02416992 3.6953125 -0.04882812 C5.46648437 -0.04979492 5.46648437 -0.04979492 7.2734375 -0.05078125 C8.34770996 -0.05376221 9.42198242 -0.05674316 10.52880859 -0.05981445 C15.59873407 0.54983989 18.81056494 2.55118027 22.5 6 C24.55641219 9.20558371 25.43900367 11.17976485 25.1640625 15 C23.30882311 22.95870812 18.28548518 30.07327224 14 36.9375 C13.62818604 37.54158691 13.25637207 38.14567383 12.87329102 38.76806641 C10.83111992 41.94034462 9.24981345 44.04955595 5.625 45.3125 C5.14285874 50.84418272 5.14285874 50.84418272 7.125 55.8125 C10.62810287 57.91436172 13.64233988 58.2814771 17.625 57.3125 C20.02163957 55.08762121 20.02163957 55.08762121 21.625 52.3125 C23.125 50.4375 23.125 50.4375 24.625 49.3125 C26.8125 49.625 26.8125 49.625 28.625 50.3125 C29.58100651 53.35433891 29.82778208 54.8353657 28.5625 57.8125 C25.55234315 61.69657335 22.37297408 64.72984197 17.625 66.3125 C10.91480274 67.14680517 6.54883785 66.33736488 1.0234375 62.40625 C0.56195313 62.0453125 0.10046875 61.684375 -0.375 61.3125 C-1.138125 61.951875 -1.90125 62.59125 -2.6875 63.25 C-6.8898884 66.47508878 -10.58842217 66.77170244 -15.734375 66.7265625 C-21.36607855 65.84348472 -24.98427169 62.04037457 -28.4375 57.75 C-29.55992952 54.83168324 -29.3011751 53.25942076 -28.375 50.3125 C-25.9 49.8175 -25.9 49.8175 -23.375 49.3125 C-23.03726563 49.80621094 -22.69953125 50.29992187 -22.3515625 50.80859375 C-21.90554687 51.44925781 -21.45953125 52.08992188 -21 52.75 C-20.33871094 53.70712891 -20.33871094 53.70712891 -19.6640625 54.68359375 C-18.45339147 56.44990928 -18.45339147 56.44990928 -16.375 57.3125 C-12.04172826 57.80305907 -10.05499656 57.78994439 -6.4375 55.25 C-4.12434524 52.40025937 -4.12434524 52.40025937 -3.75 48.6875 C-4.059375 47.016875 -4.059375 47.016875 -4.375 45.3125 C-5.10847656 44.91675781 -5.84195313 44.52101562 -6.59765625 44.11328125 C-10.5503279 41.55043789 -12.18114777 38.18085417 -14.4375 34.125 C-14.85837891 33.39474609 -15.27925781 32.66449219 -15.71289062 31.91210938 C-24.51630507 16.50272192 -24.51630507 16.50272192 -23.375 9.3125 C-17.52197091 -0.29779615 -10.44647466 -0.02743297 0 0 Z " fill="#221F21" transform="translate(255.375,97.6875)"/>
<path d="M0 0 C3.14503178 1.30333709 6.24510587 2.68262421 9.34326172 4.09375 C21.45507958 9.43026514 33.71527587 13.95281021 46.28076172 18.09375 C46.06347412 18.62339355 45.84618652 19.15303711 45.62231445 19.69873047 C45.34331299 20.40400879 45.06431152 21.10928711 44.77685547 21.8359375 C44.49769287 22.53058105 44.21853027 23.22522461 43.9309082 23.94091797 C42.67045237 28.11466919 43.19157303 32.02956176 45.24951172 35.9296875 C46.19249734 37.36437276 47.22907345 38.73673288 48.28076172 40.09375 C30.80425615 36.00052233 13.9157647 29.8513261 -2.59423828 22.84375 C-3.55628174 22.44406006 -4.5183252 22.04437012 -5.50952148 21.63256836 C-10.34710435 19.52085219 -14.0033286 17.85797145 -16.71923828 13.09375 C-17.42951649 10.33619933 -17.2928634 7.87751894 -16.71923828 5.09375 C-12.48676941 -1.53711789 -7.27264584 -2.42377998 0 0 Z " fill="#DED6D4" transform="translate(100.71923828125,330.90625)"/>
<path d="M0 0 C4.1645337 3.21926481 7.16752562 7.44007685 8.82421875 12.41015625 C9.6076756 18.92183863 8.64318013 24.02835836 4.82421875 29.41015625 C1.09025061 33.44079583 -2.94365735 36.10128434 -8.46484375 36.62890625 C-14.04904889 36.83135477 -18.27246063 36.33328969 -23.17578125 33.41015625 C-28.45140763 28.47567892 -31.18164418 23.85801304 -31.61328125 16.59765625 C-31.47283566 10.30569375 -28.96033915 6.2730521 -24.6484375 1.83984375 C-17.84347456 -4.22055582 -7.82683706 -4.42938649 0 0 Z " fill="#232123" transform="translate(343.17578125,98.58984375)"/>
<path d="M0 0 C6.04398805 2.75771318 10.0837218 7.16416018 12.6796875 13.3125 C13.66635265 20.05853611 12.69621027 25.76351931 8.6796875 31.3125 C4.8810075 35.40258559 0.61369267 37.89586249 -4.93359375 38.68359375 C-11.756186 38.85144334 -16.10828167 37.80987885 -21.3203125 33.3125 C-25.46238299 28.9524258 -27.3871451 24.98871989 -27.6953125 19 C-27.54588207 13.38701961 -25.74214228 8.86383939 -21.859375 4.7734375 C-15.31621626 -0.90615714 -8.42803145 -2.4971945 0 0 Z " fill="#232123" transform="translate(187.3203125,96.6875)"/>
<path d="M0 0 C4.85040445 0.73213652 7.34794536 2.76960208 10.3125 6.5 C15.0663971 13.99387052 20.57588653 23.34454957 19.3125 32.5 C18.06109344 36.85337796 16.19505025 39.68533823 12.875 42.75 C5.77358224 46.23841574 -2.66150923 49.72134642 -10.6875 48.5 C-12.79108381 46.95737187 -13.52804159 45.81891683 -14.6875 43.5 C-15.87438135 28.98502478 -13.61743413 14.38956944 -4.6875 2.5 C-2.6875 0.5 -2.6875 0.5 0 0 Z " fill="#211F21" transform="translate(142.6875,29.5)"/>
<path d="M0 0 C4.20480095 0.92505621 5.38710666 2.72147217 7.7421875 6.2109375 C10.14612855 10.51630086 11.71270073 14.97530915 13.125 19.6875 C13.351875 20.41710937 13.57875 21.14671875 13.8125 21.8984375 C15.94294357 29.85801138 17.00306086 40.20448116 13.125 47.6875 C7.07011786 50.71494107 0.12907285 47.78517544 -5.84375 45.8125 C-11.10221133 43.8609061 -14.45555655 41.84146457 -17.3125 37 C-20.31972338 30.13898196 -18.28751675 24.3360822 -15.6875 17.625 C-12.52051137 10.44893328 -8.21963645 1.96556524 0 0 Z " fill="#454045" transform="translate(368.875,29.3125)"/>
</svg>
