<?xml version="1.0" encoding="UTF-8"?>
<svg version="1.1" xmlns="http://www.w3.org/2000/svg" width="512" height="512">
<path d="M0 0 C1.41952217 -0.01058945 1.41952217 -0.01058945 2.86772156 -0.02139282 C42.38370862 -0.24928599 42.38370862 -0.24928599 58.8671875 3.203125 C59.84204102 3.40180176 60.81689453 3.60047852 61.82128906 3.80517578 C80.77670168 7.77030832 100.17365847 12.96761602 117.59765625 21.5859375 C120.74323544 22.44136179 122.00081505 21.70721849 124.8671875 20.203125 C127.0544092 18.90378538 129.22003933 17.56766776 131.3671875 16.203125 C137.62421082 12.22669896 143.2092394 8.7267278 150.8671875 10.203125 C163.87567285 15.44810933 170.00186094 30.66145523 175.12890625 42.71484375 C176.25988962 45.50388805 177.20401849 48.24495644 177.94921875 51.16015625 C180.15511201 59.55309674 183.15035948 64.38694382 189.2421875 70.515625 C189.87906494 71.15653076 190.51594238 71.79743652 191.17211914 72.45776367 C195.29945558 76.34719805 198.39130797 77.89998721 203.8671875 79.203125 C206.27412506 82.06542913 207.63943909 84.37695601 208.6328125 87.98046875 C210.19038192 92.04690789 212.49966497 94.73604871 215.3046875 98.015625 C241.57651191 129.8615831 258.32748259 169.84042044 265.8671875 210.203125 C266.02944824 211.00814453 266.19170898 211.81316406 266.35888672 212.64257812 C271.83174255 240.63377884 271.7131134 274.29184896 265.8671875 302.203125 C265.56917236 303.66540527 265.56917236 303.66540527 265.26513672 305.15722656 C255.14451556 353.5391024 233.2279998 397.52740769 198.8671875 433.203125 C198.23506348 433.86248047 197.60293945 434.52183594 196.95166016 435.20117188 C187.80721271 444.68942805 178.50984741 453.4293294 167.8671875 461.203125 C166.71613733 462.06118652 165.56509573 462.91925951 164.4140625 463.77734375 C156.22442769 469.81489896 147.72180474 475.19769802 138.8671875 480.203125 C138.15997559 480.6053125 137.45276367 481.0075 136.72412109 481.421875 C113.58872914 494.4472991 88.41756341 503.19613961 62.4296875 508.515625 C61.71079346 508.66298096 60.99189941 508.81033691 60.2512207 508.9621582 C45.57558252 511.75152625 31.05049912 512.55205119 16.13989258 512.51879883 C13.20030263 512.5156471 10.2617317 512.53917426 7.32226562 512.56445312 C-6.05087442 512.60911237 -18.94697961 511.40364042 -32.1328125 509.203125 C-33.83836304 508.92094116 -33.83836304 508.92094116 -35.57836914 508.63305664 C-38.1740747 508.16679902 -40.74556189 507.6480668 -43.3203125 507.078125 C-44.70923706 506.77116699 -44.70923706 506.77116699 -46.1262207 506.45800781 C-90.57690835 496.12218161 -131.31221814 473.81404602 -164.1328125 442.203125 C-164.79216797 441.57100098 -165.45152344 440.93887695 -166.13085938 440.28759766 C-175.61911555 431.14315021 -184.3590169 421.84578491 -192.1328125 411.203125 C-192.99087402 410.05207483 -193.84894701 408.90103323 -194.70703125 407.75 C-200.74458646 399.56036519 -206.12738552 391.05774224 -211.1328125 382.203125 C-211.535 381.49591309 -211.9371875 380.78870117 -212.3515625 380.06005859 C-225.3769866 356.92466664 -234.12582711 331.75350091 -239.4453125 305.765625 C-239.59266846 305.04673096 -239.74002441 304.32783691 -239.8918457 303.5871582 C-242.86570338 287.94086891 -243.50581612 272.46744454 -243.4453125 256.578125 C-243.44315735 255.56021881 -243.4410022 254.54231262 -243.43878174 253.49356079 C-243.38911104 238.88448977 -243.13821441 224.55236647 -240.1328125 210.203125 C-239.93413574 209.22827148 -239.73545898 208.25341797 -239.53076172 207.24902344 C-230.96653828 166.30754479 -214.24656802 128.56164355 -187.78100586 96.09301758 C-184.5514886 92.02409737 -182.47382984 88.16258395 -181.01171875 83.19140625 C-179.84362315 80.54891443 -178.6084203 79.67659997 -176.1328125 78.203125 C-174.73869141 77.79707031 -174.73869141 77.79707031 -173.31640625 77.3828125 C-165.70920913 74.56394927 -158.56769892 67.01120475 -154.93798828 59.84375 C-152.93927087 54.88495677 -151.47499699 49.76570617 -149.93798828 44.64990234 C-146.02870903 32.77033997 -138.52069224 16.92704471 -127.109375 10.95703125 C-121.86513967 8.95675967 -118.79822862 9.51032733 -113.76171875 11.60546875 C-108.58868957 14.04300729 -103.6768607 16.572129 -99.3203125 20.328125 C-96.46719917 22.46801186 -96.46719917 22.46801186 -94.25927734 21.8815918 C-93.56527832 21.62031494 -92.8712793 21.35903809 -92.15625 21.08984375 C-90.96020142 20.65188477 -90.96020142 20.65188477 -89.73999023 20.20507812 C-88.87962158 19.87443359 -88.01925293 19.54378906 -87.1328125 19.203125 C-85.29832655 18.51913024 -83.46368421 17.83555482 -81.62890625 17.15234375 C-80.65324707 16.78641113 -79.67758789 16.42047852 -78.67236328 16.04345703 C-59.28124042 8.8370284 -39.65327125 3.8369108 -19.1328125 1.203125 C-18.13200401 1.07213158 -18.13200401 1.07213158 -17.11097717 0.93849182 C-11.39460774 0.24225009 -5.75538618 0.02856336 0 0 Z " fill="#9B9595" transform="translate(243.1328125,-0.203125)"/>
<path d="M0 0 C1.41952217 -0.01058945 1.41952217 -0.01058945 2.86772156 -0.02139282 C42.38370862 -0.24928599 42.38370862 -0.24928599 58.8671875 3.203125 C59.84204102 3.40180176 60.81689453 3.60047852 61.82128906 3.80517578 C80.77670168 7.77030832 100.17365847 12.96761602 117.59765625 21.5859375 C120.74323544 22.44136179 122.00081505 21.70721849 124.8671875 20.203125 C127.0544092 18.90378538 129.22003933 17.56766776 131.3671875 16.203125 C137.62421082 12.22669896 143.2092394 8.7267278 150.8671875 10.203125 C163.87567285 15.44810933 170.00186094 30.66145523 175.12890625 42.71484375 C176.25988962 45.50388805 177.20401849 48.24495644 177.94921875 51.16015625 C180.15511201 59.55309674 183.15035948 64.38694382 189.2421875 70.515625 C189.87906494 71.15653076 190.51594238 71.79743652 191.17211914 72.45776367 C194.33798323 75.44114552 196.3296657 77.05268651 200.59375 78.24609375 C203.8671875 79.203125 203.8671875 79.203125 206.30859375 81.83203125 C208.15053001 85.81596857 208.22784422 88.88267162 207.8046875 93.140625 C207.71550049 94.25171631 207.71550049 94.25171631 207.62451172 95.38525391 C206.57932307 106.97622308 204.57812972 119.54425981 199.9765625 130.28125 C197.89327184 135.24326957 197.77570978 139.63984933 198.15063477 144.95263672 C198.22394563 146.07302495 198.22394563 146.07302495 198.29873753 147.21604729 C198.86782494 155.22348546 199.93810318 163.14392763 201.08203125 171.0859375 C201.30062115 172.63987839 201.51858883 174.19390692 201.73597717 175.74801636 C202.30300894 179.79038772 202.87797322 183.83158846 203.45489502 187.87255859 C204.03639861 191.95475238 204.61081758 196.03794164 205.18554688 200.12109375 C205.83514836 204.73513733 206.48524106 209.34909893 207.1415863 213.96218872 C207.62687088 217.37374155 208.10807353 220.78584364 208.58579636 224.19846344 C208.77684248 225.55949713 208.9692018 226.92034702 209.1627388 228.28102875 C209.45052167 230.30904092 209.73282969 232.33774938 210.01391602 234.36669922 C210.17835709 235.53933319 210.34279816 236.71196716 210.51222229 237.9201355 C210.85016695 241.04570591 210.93228919 244.06248538 210.8671875 247.203125 C182.74241906 247.89044898 154.05468966 247.28589591 126.8671875 239.203125 C126.15143555 238.99461914 125.43568359 238.78611328 124.69824219 238.57128906 C107.38794361 233.45468858 91.94205138 225.85386848 77.8046875 214.5546875 C75.63952491 213.04431199 73.60610383 212.25857512 71.1171875 211.390625 C62.79306108 208.16365088 56.9498489 202.58169966 50.8671875 196.203125 C50.2071875 195.543125 49.5471875 194.883125 48.8671875 194.203125 C48.21363281 195.01716797 48.21363281 195.01716797 47.546875 195.84765625 C46.95132813 196.56308594 46.35578125 197.27851563 45.7421875 198.015625 C44.87207031 199.07716797 44.87207031 199.07716797 43.984375 200.16015625 C38.45433996 205.49633397 32.7943944 205.82417925 25.4375 205.70703125 C20.00892591 204.94085394 16.14720042 202.51668339 11.8671875 199.203125 C11.2071875 199.80125 10.5471875 200.399375 9.8671875 201.015625 C4.39117095 205.00855373 -1.2980546 207.14585023 -8.1328125 206.203125 C-15.23311471 203.65516966 -19.65404401 200.21410376 -24.1328125 194.203125 C-24.67808594 194.85539063 -25.22335938 195.50765625 -25.78515625 196.1796875 C-32.06811522 203.46147584 -37.9671577 208.77823139 -47.0703125 212.078125 C-52.04754719 213.92637394 -55.49353543 216.7513906 -59.5390625 220.12890625 C-73.8373159 231.56320227 -92.47415027 237.41252211 -110.1328125 241.203125 C-111.31230469 241.47769531 -112.49179688 241.75226563 -113.70703125 242.03515625 C-136.98553702 247.32691064 -161.31238644 248.72537551 -185.1328125 248.203125 C-184.61306641 237.25056027 -183.33419547 226.50403347 -181.77416611 215.65615082 C-181.36491708 212.80474823 -180.96386699 209.95229478 -180.56497192 207.09942627 C-179.4315209 199.00015512 -178.28727286 190.90245637 -177.12939453 182.80664062 C-176.41736535 177.82411875 -175.71755558 172.84000263 -175.02518082 167.85471344 C-174.76108728 165.97078666 -174.49241109 164.08749588 -174.21886826 162.20491791 C-172.49751046 150.34956118 -170.99564957 139.42918527 -175.0078125 127.828125 C-178.17132635 118.06249528 -180.24827329 108.46085599 -181.3828125 98.265625 C-181.52130615 97.057854 -181.52130615 97.057854 -181.66259766 95.82568359 C-182.2438203 90.06520162 -182.72083695 85.19949859 -178.9453125 80.453125 C-176.1328125 78.203125 -176.1328125 78.203125 -173.390625 77.4296875 C-165.75020892 74.55308001 -158.59670708 67.06848609 -154.93798828 59.84375 C-152.93927087 54.88495677 -151.47499699 49.76570617 -149.93798828 44.64990234 C-146.02870903 32.77033997 -138.52069224 16.92704471 -127.109375 10.95703125 C-121.86513967 8.95675967 -118.79822862 9.51032733 -113.76171875 11.60546875 C-108.58868957 14.04300729 -103.6768607 16.572129 -99.3203125 20.328125 C-96.46719917 22.46801186 -96.46719917 22.46801186 -94.25927734 21.8815918 C-93.56527832 21.62031494 -92.8712793 21.35903809 -92.15625 21.08984375 C-90.96020142 20.65188477 -90.96020142 20.65188477 -89.73999023 20.20507812 C-88.87962158 19.87443359 -88.01925293 19.54378906 -87.1328125 19.203125 C-85.29832655 18.51913024 -83.46368421 17.83555482 -81.62890625 17.15234375 C-80.65324707 16.78641113 -79.67758789 16.42047852 -78.67236328 16.04345703 C-59.28124042 8.8370284 -39.65327125 3.8369108 -19.1328125 1.203125 C-18.13200401 1.07213158 -18.13200401 1.07213158 -17.11097717 0.93849182 C-11.39460774 0.24225009 -5.75538618 0.02856336 0 0 Z " fill="#D94A54" transform="translate(243.1328125,-0.203125)"/>
<path d="M0 0 C0.33 0 0.66 0 1 0 C1.14695312 1.74410156 1.14695312 1.74410156 1.296875 3.5234375 C2.55218512 17.34932416 4.75172125 30.66672596 9.3125 43.8125 C13.316895 56.56512416 8.84503096 72.26655763 7.05859375 85.26953125 C6.76823174 87.40325027 6.47820329 89.5370147 6.18849182 91.67082214 C5.43065518 97.24586846 4.66833306 102.82029223 3.9050293 108.39459229 C3.1246961 114.09927622 2.34866996 119.80454589 1.57226562 125.50976562 C0.05235769 136.67374981 -1.47229636 147.83708012 -3 159 C3.28836047 158.61554121 9.57616745 158.22280664 15.86367798 157.82469177 C17.99641606 157.6905853 20.12926808 157.55827679 22.26223755 157.42790222 C37.69712166 156.48282158 52.8421218 155.21015806 68 152 C68.7518457 151.84418457 69.50369141 151.68836914 70.27832031 151.52783203 C90.54998523 147.21131032 109.99753344 139.86049992 126.33203125 126.96484375 C129.35942847 124.73529646 132.31390717 123.33978734 135.78125 121.9453125 C143.44316575 118.68090473 149.42587524 114.10640192 155 108 C156.33333333 106.66666667 157.66666667 105.33333333 159 104 C159.32871094 104.53109375 159.65742188 105.0621875 159.99609375 105.609375 C163.79951932 111.25782274 167.41480629 114.14501586 174 116 C180.90474075 117.00432593 187.68271418 114.35983491 193.30078125 110.36328125 C193.86152344 109.91339844 194.42226562 109.46351563 195 109 C195.48726563 109.433125 195.97453125 109.86625 196.4765625 110.3125 C202.40047756 114.96546601 207.20854594 115.86607761 214.6875 115.51953125 C222.2843777 114.32803982 226.55771404 109.96932176 231 104 C231.680625 104.680625 232.36125 105.36125 233.0625 106.0625 C233.52527344 106.51882812 233.98804688 106.97515625 234.46484375 107.4453125 C235.50429012 108.49798338 236.51708882 109.57752777 237.50390625 110.6796875 C243.07616798 116.72189902 249.7946636 120.3943261 257.4375 123.3125 C260.92935603 124.96653707 263.41302516 126.80531955 266.4375 129.1875 C273.45610556 134.58305303 280.94997986 138.37176324 289 142 C290.01191406 142.46148437 291.02382813 142.92296875 292.06640625 143.3984375 C323.63571561 156.5978558 359.27485801 157.63228532 393 158 C392.8956665 157.25508301 392.79133301 156.51016602 392.68383789 155.74267578 C391.55789102 147.6923643 390.43993502 139.64097146 389.32688904 131.58886719 C388.5137962 125.70764802 387.6980331 119.82680669 386.87988281 113.94628906 C385.95518655 107.29879536 385.03522421 100.6506594 384.11927319 94.00195503 C383.60298186 90.25532494 383.08477264 86.50898223 382.56204224 82.76324463 C382.06094325 79.1718973 381.56510588 75.57985984 381.07299423 71.98727036 C380.80043725 70.00737722 380.52250165 68.02822686 380.24441528 66.04910278 C377.98445835 49.45515589 377.98445835 49.45515589 380.75 43.0625 C386.15037342 29.12111046 387.83644437 14.80471439 389 0 C393.38708845 3.17685716 396.38373008 6.75057218 399.5625 11.0625 C400.07989746 11.76076904 400.59729492 12.45903809 401.13037109 13.1784668 C434.02149957 58.2111829 451.52456096 110.93405039 451.3125 166.625 C451.31034485 167.64290619 451.3081897 168.66081238 451.30596924 169.70956421 C451.25629854 184.31863523 451.00540191 198.65075853 448 213 C447.70198486 214.46228027 447.70198486 214.46228027 447.39794922 215.95410156 C437.66731582 262.47163142 415.21119437 318.06457204 376 348 C375.97812622 347.1495813 375.97812622 347.1495813 375.95581055 346.28198242 C374.70239363 302.26180316 361.28227901 262.83920839 331.0078125 230.21875 C329 228 329 228 327.2421875 225.65625 C304.78752401 199.05490649 265.63082036 181.11441171 231.98535156 175.35595703 C229.97715831 174.99590467 227.98741695 174.57797351 225.9921875 174.15234375 C203.82126506 169.71714434 179.07423652 170.4609148 157 175 C155.95368408 175.20882812 155.95368408 175.20882812 154.88623047 175.421875 C114.8761264 183.67019996 74.64116619 207.11507985 50 240 C49.20207031 241.04414063 48.40414062 242.08828125 47.58203125 243.1640625 C27.04295666 270.57216535 15.74217422 302.82181305 14.4375 337 C14.37272461 338.59134766 14.37272461 338.59134766 14.30664062 340.21484375 C14.20144004 342.80979151 14.09929881 345.40482084 14 348 C-24.39241627 316.02137562 -47.49101578 264.54449346 -57.3125 216.5625 C-57.45985596 215.84360596 -57.60721191 215.12471191 -57.7590332 214.3840332 C-60.73289088 198.73774391 -61.37300362 183.26431954 -61.3125 167.375 C-61.31034485 166.35709381 -61.3081897 165.33918762 -61.30596924 164.29043579 C-61.25629854 149.68136477 -61.00540191 135.34924147 -58 121 C-57.80132324 120.02514648 -57.60264648 119.05029297 -57.39794922 118.04589844 C-48.65348168 76.24275847 -30.81306518 30.81306518 0 0 Z " fill="#EEE6E3" transform="translate(61,89)"/>
<path d="M0 0 C4.38708845 3.17685716 7.38373008 6.75057218 10.5625 11.0625 C11.07989746 11.76076904 11.59729492 12.45903809 12.13037109 13.1784668 C45.02149957 58.2111829 62.52456096 110.93405039 62.3125 166.625 C62.30926727 168.15185928 62.30926727 168.15185928 62.30596924 169.70956421 C62.25629854 184.31863523 62.00540191 198.65075853 59 213 C58.80132324 213.97485352 58.60264648 214.94970703 58.39794922 215.95410156 C51.93990437 246.82694218 40.5898407 274.69253473 25 302 C24.34 301.67 23.68 301.34 23 301 C22.46923828 298.91577148 22.46923828 298.91577148 22.0703125 296.12109375 C21.91691406 295.07115234 21.76351563 294.02121094 21.60546875 292.93945312 C21.44691406 291.78380859 21.28835938 290.62816406 21.125 289.4375 C20.95355469 288.23673828 20.78210938 287.03597656 20.60546875 285.79882812 C19.20761233 275.8658849 17.96640067 265.91386856 16.75054932 255.95724487 C15.6300949 246.78371232 14.39375702 237.63670024 13 228.5 C11.29836791 217.33465633 9.84291481 206.1484289 8.48242188 194.9375 C7.48224666 186.72146838 6.39947575 178.52077013 5.27229309 170.3213501 C4.12742558 161.97669716 3.01681649 153.62764538 1.9140625 145.27734375 C1.77664516 144.23734506 1.77664516 144.23734506 1.63645172 143.17633629 C0.76539281 136.5836372 -0.10426763 129.99075379 -0.97360229 123.39782715 C-1.5716575 118.86279665 -2.17029179 114.32784292 -2.76953125 109.79296875 C-2.86684225 109.05649738 -2.96415325 108.32002602 -3.06441307 107.56123734 C-4.25252989 98.5753149 -5.45737994 89.59196441 -6.69921875 80.61328125 C-6.82028992 79.73465927 -6.94136108 78.85603729 -7.06610107 77.95079041 C-7.59693897 74.10151827 -8.13277981 70.25309686 -8.67919922 66.40600586 C-11.02515684 49.47738177 -11.02515684 49.47738177 -8.25 43.0625 C-2.84962658 29.12111046 -1.16355563 14.80471439 0 0 Z " fill="#FED839" transform="translate(450,89)"/>
<path d="M0 0 C0.33 0 0.66 0 1 0 C1.14695312 1.74410156 1.14695312 1.74410156 1.296875 3.5234375 C2.55218512 17.34932416 4.75172125 30.66672596 9.3125 43.8125 C13.11402218 55.85383807 9.14072906 70.10127265 7.4453125 82.421875 C7.18509874 84.33357821 6.92522502 86.24532772 6.66566467 88.15711975 C5.96808014 93.28843073 5.26594718 98.41910986 4.56298447 103.54968643 C3.82476425 108.94379591 3.09090823 114.33849897 2.35668945 119.7331543 C1.1550022 128.55919403 -0.0489058 137.38492794 -1.25439453 146.21044922 C-3.09042671 159.65396262 -4.91696039 173.09875641 -6.74067688 186.54394531 C-6.97449658 188.26774101 -7.20831717 189.99153658 -7.44213867 191.71533203 C-7.55624871 192.55664799 -7.67035875 193.39796394 -7.78792667 194.26477432 C-8.57849157 200.09197575 -9.37137263 205.91885901 -10.1652832 211.74560547 C-10.60512507 214.97491522 -11.04482258 218.20424459 -11.484375 221.43359375 C-11.5908605 222.21592377 -11.697346 222.99825378 -11.80705833 223.80429077 C-13.2598974 234.48445638 -14.6900081 245.16743711 -16.10192299 255.85308647 C-16.6582389 260.05783773 -17.2183533 264.26208499 -17.77849102 268.46632862 C-18.37367542 272.93853498 -18.95788707 277.41209985 -19.5402832 281.88598633 C-19.84021119 284.14019615 -20.14055783 286.39435033 -20.44140625 288.6484375 C-20.57109802 289.66595596 -20.70078979 290.68347443 -20.83441162 291.73182678 C-20.95939026 292.65483078 -21.0843689 293.57783478 -21.21313477 294.52880859 C-21.31763443 295.32596283 -21.42213409 296.12311707 -21.52980042 296.94442749 C-22 299 -22 299 -24 302 C-47.99988263 259.88523963 -61.49758354 215.98120309 -61.3125 167.375 C-61.31034485 166.35709381 -61.3081897 165.33918762 -61.30596924 164.29043579 C-61.25629854 149.68136477 -61.00540191 135.34924147 -58 121 C-57.80132324 120.02514648 -57.60264648 119.05029297 -57.39794922 118.04589844 C-48.65348168 76.24275847 -30.81306518 30.81306518 0 0 Z " fill="#FED839" transform="translate(61,89)"/>
<path d="M0 0 C1.01790619 0.00215515 2.03581238 0.0043103 3.08456421 0.00653076 C17.69363523 0.05620146 32.02575853 0.30709809 46.375 3.3125 C47.34985352 3.51117676 48.32470703 3.70985352 49.32910156 3.91455078 C69.52533293 8.13924036 89.96708786 13.8209203 108.375 23.3125 C105.10693387 27.25093867 101.79755197 30.87584605 98.0625 34.375 C89.82720492 42.51308249 84.23496586 52.89713446 79.375 63.3125 C78.80579834 63.05557373 78.23659668 62.79864746 77.65014648 62.53393555 C75.03790173 61.3552818 72.42520456 60.17763413 69.8125 59 C68.91724609 58.59587891 68.02199219 58.19175781 67.09960938 57.77539062 C62.21086313 55.57276869 57.31188009 53.40508704 52.375 51.3125 C52.25253906 52.3953125 52.13007813 53.478125 52.00390625 54.59375 C51.32324026 60.03907793 50.31411632 65.41863683 49.3125 70.8125 C49.12623047 71.82570313 48.93996094 72.83890625 48.74804688 73.8828125 C48.29238299 76.35975462 47.8346565 78.83629626 47.375 81.3125 C38.86513388 83.100287 30.39978364 84.68565888 21.77734375 85.83984375 C18.44084692 86.30335249 15.13221565 86.86760884 11.8125 87.4375 C-1.93367222 89.47619672 -14.44968451 87.38595496 -27.9375 84.8125 C-29.75696436 84.47419867 -31.57662502 84.1369513 -33.39648438 83.80078125 C-37.80834403 82.98347285 -42.21731136 82.15199899 -46.625 81.3125 C-47.27514606 77.97999315 -47.9193192 74.64635757 -48.5625 71.3125 C-48.83610352 69.91064453 -48.83610352 69.91064453 -49.11523438 68.48046875 C-50.14976273 63.10092129 -51.01507675 57.75686755 -51.625 52.3125 C-61.21313736 54.5740754 -69.82494885 59.01456319 -78.625 63.3125 C-79.181875 62.20132813 -79.73875 61.09015625 -80.3125 59.9453125 C-84.70766926 51.32368333 -89.20780249 43.62288346 -95.625 36.3125 C-96.27339844 35.47847656 -96.92179688 34.64445312 -97.58984375 33.78515625 C-99.54092697 31.41464631 -101.53986227 29.48486707 -103.875 27.5 C-104.58140625 26.89542969 -105.2878125 26.29085938 -106.015625 25.66796875 C-106.81226563 24.99701172 -106.81226563 24.99701172 -107.625 24.3125 C-105.71016178 20.48282355 -100.38956633 19.6050963 -96.5625 18.125 C-95.53406982 17.72643799 -94.50563965 17.32787598 -93.44604492 16.91723633 C-79.03719787 11.44849594 -64.28913714 7.09116984 -49.1875 4 C-48.46860596 3.85264404 -47.74971191 3.70528809 -47.0090332 3.5534668 C-31.36274391 0.57960912 -15.88931954 -0.06050362 0 0 Z " fill="#FED839" transform="translate(255.625,-0.3125)"/>
<path d="M0 0 C3.35452772 0.55908795 4.52943849 1.21879036 7 3.5 C8.18847656 5.92016602 8.18847656 5.92016602 9.140625 8.75390625 C9.48867188 9.77291016 9.83671875 10.79191406 10.1953125 11.84179688 C10.54335938 12.90462891 10.89140625 13.96746094 11.25 15.0625 C11.61351562 16.12919922 11.97703125 17.19589844 12.3515625 18.29492188 C15 26.15560385 15 26.15560385 15 28.5 C16.134375 28.87125 17.26875 29.2425 18.4375 29.625 C23.279174 31.24665043 28.11203505 32.89329806 32.9375 34.5625 C33.69538818 34.8198291 34.45327637 35.0771582 35.23413086 35.34228516 C40.77137266 37.27137266 40.77137266 37.27137266 43 39.5 C43.27902566 42.42976941 43.47310339 44.65553889 43 47.5 C40.8896191 49.84486766 39.4471571 50.40418062 36.375 51.0625 C33.83060006 52.232947 33.83060006 52.232947 33.44042969 54.48950195 C33.31055664 55.31409912 33.18068359 56.13869629 33.046875 56.98828125 C32.1031093 62.23137209 30.65293538 67.10945079 28.875 72.125 C28.57005615 72.98601318 28.2651123 73.84702637 27.95092773 74.73413086 C22.44830215 89.85204689 15.22391371 108.07969812 0 115.5 C-8.60893422 118.5488584 -17.10819175 118.91407094 -26.12548828 118.78125 C-28.23358305 118.75024148 -30.34091854 118.74026822 -32.44921875 118.734375 C-65.47167861 118.55042593 -65.47167861 118.55042593 -76.10546875 108.50390625 C-90.93890613 92.81410548 -101.45376902 64.90877893 -101.21875 43.31640625 C-100.71715856 36.8584164 -98.69779752 31.07083002 -94 26.5 C-87.96491585 21.61932662 -81.49393355 20.00248312 -74 18.5 C-72.62618164 18.22216675 -72.62618164 18.22216675 -71.22460938 17.9387207 C-58.93204543 15.8410374 -46.55300712 16.28195234 -34.125 16.375 C-31.77995174 16.38505067 -29.43489931 16.39417282 -27.08984375 16.40234375 C-21.39313684 16.42418991 -15.69658834 16.45750181 -10 16.5 C-9.80446533 15.74291748 -9.60893066 14.98583496 -9.4074707 14.20581055 C-9.14538818 13.21363525 -8.88330566 12.22145996 -8.61328125 11.19921875 C-8.35587158 10.21526123 -8.09846191 9.23130371 -7.83325195 8.2175293 C-6.39631874 3.53118192 -4.98692231 0.83115372 0 0 Z " fill="#8659B8" transform="translate(388,79.5)"/>
<path d="M0 0 C3.41120978 0.02369914 6.82163807 0.02052037 10.23291016 0.01391602 C52.14936824 0.06672499 52.14936824 0.06672499 64.59228516 10.53540039 C69.7284456 16.00369131 71.60495138 21.70993987 71.97119141 29.14868164 C71.35260974 45.73335779 64.53270407 61.6399119 57.28369141 76.33618164 C56.74486328 77.4305957 56.20603516 78.52500977 55.65087891 79.65258789 C50.75591815 89.07090244 45.13807897 96.54630318 34.84228516 100.20336914 C26.54725154 102.49246803 18.72564925 102.7345061 10.19384766 102.61743164 C7.91893825 102.58632177 5.64473022 102.57644306 3.36962891 102.57055664 C-29.32326747 102.40110831 -29.32326747 102.40110831 -39.07568359 93.19555664 C-49.10071502 81.83385436 -54.89225705 66.38400441 -59.65380859 52.21118164 C-59.94835937 51.33478027 -60.24291016 50.45837891 -60.54638672 49.55541992 C-63.86587696 39.30324134 -66.30349866 27.08901661 -61.71630859 16.89868164 C-57.02157098 8.77520308 -50.34998229 5.92131951 -41.71630859 3.33618164 C-28.01733691 -0.05930448 -14.02652867 -0.10398247 0 0 Z " fill="#8659B8" transform="translate(153.71630859375,95.663818359375)"/>
<path d="M0 0 C3.90877077 3.25730898 7.52571054 6.53142457 11 10.25 C14.47034256 13.81449914 17.19060623 14.70516322 22 16 C25.34039262 19.87249056 26.47340669 22.67388353 26.14892578 27.81005859 C26.04427002 28.86314209 26.04427002 28.86314209 25.9375 29.9375 C25.87804199 30.67822754 25.81858398 31.41895508 25.75732422 32.18212891 C24.71213557 43.77309808 22.71094222 56.34113481 18.109375 67.078125 C16.02608434 72.04014457 15.90852228 76.43672433 16.28344727 81.74951172 C16.33232118 82.49643721 16.38119509 83.24336269 16.43155003 84.01292229 C17.00063744 92.02036046 18.07091568 99.94080263 19.21484375 107.8828125 C19.43343365 109.43675339 19.65140133 110.99078192 19.86878967 112.54489136 C20.43582144 116.58726272 21.01078572 120.62846346 21.58770752 124.66943359 C22.16921111 128.75162738 22.74363008 132.83481664 23.31835938 136.91796875 C23.96796086 141.53201233 24.61805356 146.14597393 25.2743988 150.75906372 C25.75968338 154.17061655 26.24088603 157.58271864 26.71860886 160.99533844 C26.90965498 162.35637213 27.1020143 163.71722202 27.2955513 165.07790375 C27.58333417 167.10591592 27.86564219 169.13462438 28.14672852 171.16357422 C28.31116959 172.33620819 28.47561066 173.50884216 28.64503479 174.7170105 C28.98297945 177.84258091 29.06510169 180.85936038 29 184 C0.87523156 184.68732398 -27.81249784 184.08277091 -55 176 C-55.71575195 175.79149414 -56.43150391 175.58298828 -57.16894531 175.36816406 C-74.47924389 170.25156358 -89.92513612 162.65074348 -104.0625 151.3515625 C-106.22766259 149.84118699 -108.26108367 149.05545012 -110.75 148.1875 C-115.90164512 146.19038647 -119.82943505 143.59229334 -124 140 C-124.57234375 139.53335938 -125.1446875 139.06671875 -125.734375 138.5859375 C-132.0473587 132.93900254 -135.86666484 125.2825429 -140 118 C-140.433125 119.88912109 -140.433125 119.88912109 -140.875 121.81640625 C-141.76577066 125.70159794 -143.18695001 128.09904219 -146 131 C-149.71453232 132.85726616 -153.95579425 132.58501089 -158 132 C-160.82424288 129.80977082 -162.41508603 128.16982793 -164 125 C-164.06996014 123.29297265 -164.08440154 121.58331997 -164.0625 119.875 C-164.05347656 118.96492188 -164.04445313 118.05484375 -164.03515625 117.1171875 C-164.02355469 116.41851562 -164.01195312 115.71984375 -164 115 C-163.13375 114.690625 -162.2675 114.38125 -161.375 114.0625 C-158.09217503 112.05632919 -157.14581974 111.0822493 -155.1484375 107.98046875 C-154.37137451 106.7737854 -154.37137451 106.7737854 -153.57861328 105.54272461 C-151.06070938 101.48705354 -148.6318241 97.38685239 -146.25 93.25 C-145.76917969 92.42628906 -145.28835938 91.60257812 -144.79296875 90.75390625 C-141.39207257 84.87101899 -138.94863814 79.79857333 -138 73 C-136 74 -136 74 -135.16552734 76.046875 C-134.75488037 77.38492188 -134.75488037 77.38492188 -134.3359375 78.75 C-134.02261475 79.74314209 -133.70929199 80.73628418 -133.38647461 81.75952148 C-133.05268799 82.82887939 -132.71890137 83.8982373 -132.375 85 C-126.65030227 102.69416207 -120.0870717 122.57227129 -102.5625 131.8125 C-91.88421804 135.32430388 -78.54976269 134.20893672 -67.35302734 134.24023438 C-65.23627153 134.25006375 -63.12044193 134.28132433 -61.00390625 134.3125 C-49.03181395 134.40575291 -37.23561078 133.39438267 -28 125 C-18.54652998 114.39514582 -13.19499504 100.15296433 -8.5625 86.9375 C-8.04925171 85.47437378 -8.04925171 85.47437378 -7.52563477 83.98168945 C-6.1653856 79.96949103 -4.91658297 76.23403441 -4.5625 72 C-4 69 -4 69 -1.93359375 67.22265625 C-1.10988281 66.83980469 -0.28617188 66.45695312 0.5625 66.0625 C1.38878906 65.66160156 2.21507812 65.26070313 3.06640625 64.84765625 C3.70449219 64.56792969 4.34257812 64.28820312 5 64 C5 61.36 5 58.72 5 56 C-1.11553417 53.10316802 -7.27911781 50.82716078 -13.76977539 48.92700195 C-17.89482547 47.64366498 -20.20789731 46.26686313 -23 43 C-24.15673828 40.49804688 -24.15673828 40.49804688 -25.0703125 37.71875 C-25.40933594 36.71199219 -25.74835938 35.70523438 -26.09765625 34.66796875 C-26.43667969 33.62253906 -26.77570313 32.57710937 -27.125 31.5 C-27.81281638 29.4263231 -28.50283534 27.35337515 -29.1953125 25.28125 C-29.64414795 23.90549805 -29.64414795 23.90549805 -30.10205078 22.50195312 C-31.05365157 19.69472077 -31.05365157 19.69472077 -33 16 C-21.12 15.67 -9.24 15.34 3 15 C2.01 11.37 1.02 7.74 0 4 C0 2.68 0 1.36 0 0 Z " fill="#D94A55" transform="translate(425,63)"/>
<path d="M0 0 C-0.05637634 0.82113533 -0.05637634 0.82113533 -0.1138916 1.65885925 C-0.50846104 7.4186262 -0.89680839 13.17878997 -1.28173828 18.93920898 C-1.42568927 21.08156676 -1.57116312 23.22382284 -1.71826172 25.3659668 C-1.9308858 28.4663731 -2.13843215 31.56707059 -2.34375 34.66796875 C-2.41159195 35.66806473 -2.4794339 36.66816071 -2.54933167 37.69856262 C-2.95505811 44.05088779 -3.05375003 50.25294499 -2.60717773 56.60888672 C-3 59 -3 59 -5.10400391 61.18164062 C-6.88497553 62.45361162 -8.72280706 63.64715877 -10.58984375 64.7890625 C-21.32479358 71.38984071 -30.54878237 82.01426039 -38 92 C-38.79664062 93.04285156 -39.59328125 94.08570313 -40.4140625 95.16015625 C-60.9580072 122.56540284 -72.25783928 154.82216662 -73.5625 189 C-73.60568359 190.06089844 -73.64886719 191.12179687 -73.69335938 192.21484375 C-73.79855996 194.80979151 -73.90070119 197.40482084 -74 200 C-85.24547467 190.6331811 -94.18019588 179.6768495 -102.65917969 167.81445312 C-103.83333765 166.22553434 -105.1015604 164.7070209 -106.3828125 163.203125 C-110.16099519 158.43224333 -111.37205351 154.96920795 -110.66732216 148.83073044 C-110.56102674 148.05417728 -110.45473133 147.27762413 -110.34521484 146.47753906 C-110.24438284 145.64768116 -110.14355083 144.81782326 -110.03966331 143.96281815 C-109.71110067 141.30589272 -109.35780733 138.6531327 -109 136 C-108.77777464 134.29595987 -108.55570708 132.59189915 -108.33380127 130.88781738 C-107.61865462 125.47839687 -106.86090827 120.07523588 -106.1015625 114.671875 C-105.82222132 112.66583622 -105.54320674 110.65975194 -105.26449585 108.65362549 C-104.53549795 103.41120661 -103.80304338 98.16927747 -103.06951904 92.92749023 C-101.76363788 83.59285157 -100.46294471 74.25748982 -99.1640625 64.921875 C-99.02536995 63.9258577 -98.8866774 62.92984039 -98.74378204 61.90364075 C-96.38487949 44.94949145 -94.13165941 27.98426387 -92 11 C-90.70715088 10.93006836 -89.41430176 10.86013672 -88.08227539 10.78808594 C-47.13888205 8.68049898 -47.13888205 8.68049898 -7.01171875 0.734375 C-4 0 -4 0 0 0 Z " fill="#DFD7D4" transform="translate(149,237)"/>
<path d="M0 0 C-0.55791816 18.78202919 -1.47774396 37.50674233 -2.8125 56.25 C-2.89959229 57.48537506 -2.98668457 58.72075012 -3.07641602 59.99356079 C-9.10944336 144.7916435 -9.10944336 144.7916435 -25 174 C-29.99335381 174.66391034 -32.82237195 172.44600195 -36.625 169.5625 C-37.23891602 169.1094751 -37.85283203 168.6564502 -38.48535156 168.18969727 C-47.7471588 161.29621152 -56.56725754 153.88590933 -65 146 C-65.91007812 145.31808594 -66.82015625 144.63617188 -67.7578125 143.93359375 C-71.17983327 139.45635055 -70.66332015 135.29398613 -70.5 129.8125 C-70.4808252 128.73895264 -70.46165039 127.66540527 -70.44189453 126.55932617 C-70.1827771 117.15616459 -69.15738672 108.15130615 -67 99 C-66.80664062 98.17967285 -66.61328125 97.3593457 -66.4140625 96.51416016 C-60.73727032 73.29450326 -30.82859598 0 0 0 Z " fill="#736E6E" transform="translate(145,297)"/>
<path d="M0 0 C9.14410614 3.63139143 16.62067288 8.51323204 24 15 C25.11955078 15.90492187 25.11955078 15.90492187 26.26171875 16.828125 C37.80581591 26.41798582 45.05150986 38.92542556 52 52 C53.03898437 51.45730469 54.07796875 50.91460937 55.1484375 50.35546875 C62.60045962 46.51503125 69.77346157 42.89843194 78 41 C79.71584548 42.71584548 79.59895289 45.08545236 79.97265625 47.42578125 C80.14990234 48.53244141 80.32714844 49.63910156 80.50976562 50.77929688 C80.69216797 51.94525391 80.87457031 53.11121094 81.0625 54.3125 C81.24876953 55.46685547 81.43503906 56.62121094 81.62695312 57.81054688 C83 66.47633356 83 66.47633356 83 71 C76.58378025 71.12580823 76.58378025 71.12580823 73.81915283 70.53001404 C69.91752973 69.79649048 66.04225969 69.63961414 62.08105469 69.45727539 C61.20323711 69.41545419 60.32541954 69.37363298 59.42100143 69.33054447 C49.18486089 68.87479093 38.94779053 68.7718101 28.703125 68.68359375 C26.64662328 68.66294991 24.59012508 68.64195196 22.53363037 68.62062073 C17.19426382 68.56616513 11.85486404 68.51642787 6.51544189 68.46777344 C1.03760928 68.41698925 -4.44017676 68.36160437 -9.91796875 68.30664062 C-20.61193913 68.19999916 -31.30595043 68.09835696 -42 68 C-41.27066501 61.98391093 -40.20024619 56.4887466 -38.4375 50.6875 C-38.17573975 49.82519775 -37.91397949 48.96289551 -37.64428711 48.07446289 C-25.70157063 9.89874837 -25.70157063 9.89874837 -10.1171875 0.96484375 C-6.50593412 -0.68087504 -3.77153829 -0.96137251 0 0 Z " fill="#746F6F" transform="translate(126,10)"/>
<path d="M0 0 C2.30822513 2.30822513 2.80872325 3.91934738 3.84765625 6.99609375 C4.20102051 8.02081787 4.55438477 9.04554199 4.91845703 10.10131836 C5.29599121 11.2022583 5.67352539 12.30319824 6.0625 13.4375 C11.26628824 28.21689451 16.7967735 43.83632824 27 56 C27.65226562 56.78632813 28.30453125 57.57265625 28.9765625 58.3828125 C38.94639437 69.36775452 52.95965785 73.15968558 67.38223267 74.16625977 C72.43110268 74.38035417 77.47539057 74.38530392 82.52783203 74.33618164 C85.12954571 74.31245855 87.73023549 74.31566704 90.33203125 74.32226562 C100.07224762 74.30460651 109.39200138 73.73364734 119 72 C89.07530331 102.24925956 36.46338793 106.91533847 -3.63916016 107.13183594 C-7.09409801 107.12256805 -10.54587672 107.07572986 -14 107 C-13.41892569 95.03910187 -11.95587453 83.28084159 -10.3125 71.42578125 C-10.04689605 69.48387333 -9.7816852 67.54191161 -9.5168457 65.59989929 C-8.96524084 61.56298399 -8.41026201 57.52655303 -7.85253906 53.49047852 C-7.13794964 48.31856842 -6.42992737 43.14578599 -5.72413635 37.97266865 C-5.17866592 33.97733807 -4.63081212 29.98233742 -4.0821228 25.98744774 C-3.82008327 24.07892844 -3.55854359 22.17034045 -3.29751587 20.26168251 C-2.93368775 17.60553251 -2.56690182 14.94980821 -2.19921875 12.29418945 C-2.03865494 11.11681213 -2.03865494 11.11681213 -1.87484741 9.91564941 C-1.4064075 6.55313547 -0.86254465 3.28250388 0 0 Z " fill="#746F6E" transform="translate(72,141)"/>
<path d="M0 0 C2.41978228 3.8675328 2.7460244 8.09706508 3.31274414 12.52539062 C3.42847275 13.38452057 3.54420135 14.24365051 3.66343689 15.1288147 C4.04435327 17.97040848 4.4148992 20.81324925 4.78515625 23.65625 C5.04839998 25.63968017 5.31219714 27.62303697 5.57652283 29.60632324 C6.12973739 33.76855405 6.67817239 37.93137672 7.22290039 42.09472656 C7.91758868 47.40342858 8.6210019 52.71092509 9.32767582 58.01804352 C9.87321675 62.11864943 10.41555758 66.21967333 10.95681572 70.32084656 C11.21493202 72.27593652 11.4736646 74.23094523 11.73304939 76.18586731 C13.04683152 86.10929867 14.33870752 96.00656418 15 106 C-13.12476844 106.68732398 -41.81249784 106.08277091 -69 98 C-69.71575195 97.79149414 -70.43150391 97.58298828 -71.16894531 97.36816406 C-86.20887333 92.92264265 -108.87306772 85.69039843 -118 72 C-116.82014526 72.21112427 -116.82014526 72.21112427 -115.61645508 72.42651367 C-106.1019686 73.97240481 -96.83747708 74.34083162 -87.21508789 74.31567383 C-84.70089144 74.31251682 -82.18788011 74.3360625 -79.67382812 74.36132812 C-71.58128074 74.3937985 -63.72362012 74.05562297 -55.73828125 72.67578125 C-54.73023689 72.50264153 -54.73023689 72.50264153 -53.701828 72.32600403 C-40.72227732 69.81690763 -30.68948514 62.82580932 -22.9921875 52.23828125 C-12.56335527 36.26785385 -6.22298805 17.90617941 0 0 Z " fill="#9C9594" transform="translate(439,141)"/>
<path d="M0 0 C11.12679927 0.43806296 23.05495909 2.54119201 31 11 C36.26262674 17.85814194 37.19609492 25.30270591 36.32958984 33.7734375 C34.18784472 48.2421157 28.42763726 61.96894387 22 75 C21.46117187 76.09441406 20.92234375 77.18882812 20.3671875 78.31640625 C15.34321798 87.98294446 9.68590939 94.82538525 -0.54931641 99.05297852 C-4.90304347 100.24783541 -8.84595291 100.25022849 -13.3359375 100.1953125 C-14.65496567 100.19106766 -14.65496567 100.19106766 -16.00064087 100.18673706 C-18.79223594 100.17559712 -21.5835029 100.15050411 -24.375 100.125 C-26.27473493 100.1149622 -28.17447492 100.10583775 -30.07421875 100.09765625 C-34.71627107 100.07567806 -39.35808002 100.0411911 -44 100 C-39.81900527 93.67214239 -39.81900527 93.67214239 -37.5546875 90.73046875 C-17.27399233 64.00473356 -4.37087421 33.34352612 0 0 Z " fill="#AB7FDC" transform="translate(189,97)"/>
<path d="M0 0 C-0.74173337 6.55848454 -1.85770508 13.0119878 -3.0625 19.5 C-3.24876953 20.51320313 -3.43503906 21.52640625 -3.62695312 22.5703125 C-4.08261701 25.04725462 -4.5403435 27.52379626 -5 30 C-13.50986612 31.787787 -21.97521636 33.37315888 -30.59765625 34.52734375 C-33.93415308 34.99085249 -37.24278435 35.55510884 -40.5625 36.125 C-54.30867222 38.16369672 -66.82468451 36.07345496 -80.3125 33.5 C-82.13196436 33.16169867 -83.95162502 32.8244513 -85.77148438 32.48828125 C-90.18334403 31.67097285 -94.59231136 30.83949899 -99 30 C-99.65176423 26.68863914 -100.29529828 23.37572755 -100.9375 20.0625 C-101.11990234 19.13630859 -101.30230469 18.21011719 -101.49023438 17.25585938 C-102.59881542 11.51139395 -103.43259933 5.82332262 -104 0 C-98.38529253 -2.23312229 -92.9043099 -3.86554823 -87 -5.125 C-86.24460938 -5.29386719 -85.48921875 -5.46273437 -84.7109375 -5.63671875 C-60.12934296 -11.00074367 -23.11994535 -11.55997267 0 0 Z " fill="#EEE6E3" transform="translate(308,51)"/>
<path d="M0 0 C17.46586263 10.15031807 24.66391504 36.350674 29.76953125 54.5703125 C30.9049855 58.9176304 31.80078125 62.5993756 31.80078125 67.11328125 C28.50078125 67.11328125 25.20078125 67.11328125 21.80078125 67.11328125 C21.63642578 65.91445312 21.63642578 65.91445312 21.46875 64.69140625 C19.54985173 51.39952555 17.28160783 37.45567967 8.36328125 26.80078125 C5.84085829 24.83180034 5.84085829 24.83180034 2.42578125 24.92578125 C-6.39321415 27.8147625 -10.29940264 34.71877612 -14.46875 42.5859375 C-17.61481114 48.99878899 -19.17304689 54.80846374 -19.765625 61.9140625 C-19.89046265 63.38033081 -19.89046265 63.38033081 -20.01782227 64.8762207 C-20.07768311 65.61445068 -20.13754395 66.35268066 -20.19921875 67.11328125 C-21.51825195 67.13310059 -22.83728516 67.15291992 -24.19628906 67.17333984 C-29.19140569 67.25065492 -34.18627735 67.33915261 -39.18115234 67.43066406 C-41.32400603 67.46844334 -43.46691225 67.5033745 -45.60986328 67.53515625 C-58.19452089 67.72395561 -70.60137914 68.25458498 -83.10839844 69.69775391 C-86.48709811 70.07730546 -89.79576526 70.19677243 -93.19921875 70.11328125 C-92.73982415 59.89175145 -90.41632858 50.06449516 -88.19921875 40.11328125 C-78.61656917 42.50926866 -70.03474398 46.79801893 -61.19921875 51.11328125 C-60.71453125 50.07429688 -60.22984375 49.0353125 -59.73046875 47.96484375 C-55.70644967 39.51145754 -51.61700434 32.02474265 -45.19921875 25.11328125 C-44.67972656 24.54222656 -44.16023438 23.97117187 -43.625 23.3828125 C-34.12548102 13.02940417 -15.79862202 -6.3699595 0 0 Z " fill="#9C9695" transform="translate(396.19921875,10.88671875)"/>
<path d="M0 0 C1.20629059 -0.00855011 1.20629059 -0.00855011 2.43695068 -0.01727295 C4.14171024 -0.02672801 5.84648811 -0.03325894 7.55126953 -0.03710938 C10.14779044 -0.04678525 12.7435097 -0.07779063 15.33984375 -0.109375 C16.99739114 -0.11590819 18.65494419 -0.12115742 20.3125 -0.125 C21.08458801 -0.1373468 21.85667603 -0.1496936 22.65216064 -0.16241455 C28.14537472 -0.13995019 32.40104274 0.84994904 36.56640625 4.73828125 C41.13968016 10.71871637 41.87396564 14.69951959 40.921875 22.203125 C39.40612272 26.49276388 37.20679091 30.27903028 34.921875 34.203125 C34.11575875 35.65676069 33.31116256 37.11124001 32.5078125 38.56640625 C31.64810494 40.0924278 30.7861307 41.61717465 29.921875 43.140625 C29.31786865 44.2236792 29.31786865 44.2236792 28.70166016 45.32861328 C26.00160807 49.96299871 23.34943275 53.12910053 18.921875 56.203125 C17.931875 56.203125 16.941875 56.203125 15.921875 56.203125 C16.03675248 57.78722494 16.16422008 59.37041463 16.296875 60.953125 C16.40128906 62.27570313 16.40128906 62.27570313 16.5078125 63.625 C16.93010307 66.2543564 17.49238269 67.96650438 18.921875 70.203125 C23.17985387 73.04177758 26.92660256 72.94523416 31.921875 72.203125 C35.31327331 70.08350106 36.55313189 68.48104426 37.66015625 64.64453125 C38.17654925 62.16795258 38.59558361 59.71118567 38.921875 57.203125 C40.91133307 59.82452858 42.85115912 62.46134109 44.671875 65.203125 C45.12046875 65.863125 45.5690625 66.523125 46.03125 67.203125 C46.921875 69.203125 46.921875 69.203125 46.73046875 71.23046875 C45.82627618 73.43634918 44.78022164 74.9519939 43.234375 76.765625 C42.75613281 77.34441406 42.27789062 77.92320312 41.78515625 78.51953125 C36.25574323 83.51570947 30.63506545 83.82077134 23.4921875 83.70703125 C18.06361341 82.94085394 14.20188792 80.51668339 9.921875 77.203125 C9.261875 77.80125 8.601875 78.399375 7.921875 79.015625 C2.44585845 83.00855373 -3.2433671 85.14585023 -10.078125 84.203125 C-16.43199627 81.86537991 -21.53265657 79.07148654 -25.078125 73.203125 C-24.71909862 69.42096781 -23.41108788 66.64693302 -21.515625 63.390625 C-21.06058594 62.60042969 -20.60554687 61.81023437 -20.13671875 60.99609375 C-19.78738281 60.40441406 -19.43804687 59.81273437 -19.078125 59.203125 C-18.748125 59.203125 -18.418125 59.203125 -18.078125 59.203125 C-17.90796875 59.80640625 -17.7378125 60.4096875 -17.5625 61.03125 C-15.7555193 67.61802523 -15.7555193 67.61802523 -11.078125 72.203125 C-6.12126705 73.07687623 -2.38657368 72.97751299 1.984375 70.390625 C4.75925876 65.82549365 4.82054547 61.46304896 4.921875 56.203125 C4.220625 56.038125 3.519375 55.873125 2.796875 55.703125 C-4.57955374 51.85455348 -8.45959136 42.38620042 -12.390625 35.390625 C-13.1959668 33.98006836 -13.1959668 33.98006836 -14.01757812 32.54101562 C-18.1939548 25.17310773 -19.96287714 19.78030544 -19.078125 11.203125 C-14.82225427 2.53375871 -9.10102801 0.04957576 0 0 Z " fill="#474146" transform="translate(245.078125,121.796875)"/>
<path d="M0 0 C3.70096397 2.1495276 4.79651213 4.25361957 6.140625 8.25390625 C6.48867188 9.27291016 6.83671875 10.29191406 7.1953125 11.34179688 C7.54335938 12.40462891 7.89140625 13.46746094 8.25 14.5625 C8.61351562 15.62919922 8.97703125 16.69589844 9.3515625 17.79492188 C12 25.65560385 12 25.65560385 12 28 C13.7015625 28.556875 13.7015625 28.556875 15.4375 29.125 C20.279174 30.74665043 25.11203505 32.39329806 29.9375 34.0625 C30.69538818 34.3198291 31.45327637 34.5771582 32.23413086 34.84228516 C37.77137266 36.77137266 37.77137266 36.77137266 40 39 C40.5412844 44.68348624 40.5412844 44.68348624 40 47 C37.22950084 49.44015535 34.67439731 50.61108741 31.15625 51.6484375 C30.23972656 51.93203125 29.32320313 52.215625 28.37890625 52.5078125 C26.46177957 53.08529164 24.54248662 53.65562807 22.62109375 54.21875 C15.53831262 56.38235036 15.53831262 56.38235036 11 62 C9.6479472 65.49531777 8.52439565 69.03946557 7.4375 72.625 C6.86136792 74.51563298 6.27705409 76.40379699 5.68359375 78.2890625 C5.43150146 79.12131348 5.17940918 79.95356445 4.91967773 80.81103516 C3.91802372 83.19511529 3.05259511 84.43656169 1 86 C-5.12226907 86.6559574 -5.12226907 86.6559574 -7.60205078 84.80273438 C-9.34538706 82.55460391 -10.02581373 80.49815667 -10.8671875 77.78125 C-11.19589844 76.76675781 -11.52460938 75.75226563 -11.86328125 74.70703125 C-12.53705701 72.57124012 -13.20374586 70.43320019 -13.86328125 68.29296875 C-14.19457031 67.27847656 -14.52585937 66.26398438 -14.8671875 65.21875 C-15.15706543 64.28998047 -15.44694336 63.36121094 -15.74560547 62.40429688 C-18.0305972 58.02465526 -22.22122271 56.75968789 -26.72265625 55.31640625 C-27.59083984 55.02830078 -28.45902344 54.74019531 -29.35351562 54.44335938 C-31.16189529 53.85534263 -32.97180722 53.2720178 -34.78320312 52.69335938 C-43.20664904 49.88136888 -43.20664904 49.88136888 -46 46 C-46.5625 43 -46.5625 43 -46 40 C-41.05606847 34.75230997 -33.64346254 33.38749368 -26.92773438 31.43945312 C-21.54888549 29.75358545 -21.54888549 29.75358545 -17.53393555 26.01855469 C-16.48636626 23.7065745 -15.71433593 21.43433891 -15 19 C-14.47467566 17.57283955 -13.94236146 16.14822825 -13.40234375 14.7265625 C-12.65861958 12.65826363 -11.92436071 10.5872899 -11.20117188 8.51171875 C-8.83486359 1.97141839 -7.30260213 -0.89419618 0 0 Z " fill="#FDFDFD" transform="translate(391,80)"/>
<path d="M0 0 C0.50929605 6.55718664 -1.29563915 11.80459533 -3.5 17.9375 C-3.8609375 18.95295898 -4.221875 19.96841797 -4.59375 21.01464844 C-10.25346462 36.56412479 -17.30852198 55.2621062 -33 63 C-38.1009919 65.08672563 -42.485812 65.26513217 -47.8984375 65.1953125 C-49.15087753 65.19106766 -49.15087753 65.19106766 -50.42861938 65.18673706 C-53.07756291 65.17560301 -55.72615984 65.15051127 -58.375 65.125 C-60.17838051 65.11496143 -61.98176636 65.10583712 -63.78515625 65.09765625 C-68.19023633 65.0756859 -72.59505953 65.04120321 -77 65 C-75.26552102 61.35880369 -73.10223113 58.52020303 -70.5625 55.375 C-60.81483544 42.96104665 -53.35088522 29.40521488 -47 15 C-46.33882025 13.66393729 -45.67326014 12.33001617 -45 11 C-44.79842285 11.59538574 -44.5968457 12.19077148 -44.38916016 12.80419922 C-43.47382801 15.49656907 -42.54953499 18.18577718 -41.625 20.875 C-41.30789063 21.81214844 -40.99078125 22.74929687 -40.6640625 23.71484375 C-40.3546875 24.61074219 -40.0453125 25.50664062 -39.7265625 26.4296875 C-39.44377441 27.25710449 -39.16098633 28.08452148 -38.86962891 28.93701172 C-38.08073272 31.17054378 -38.08073272 31.17054378 -36 33 C-32.5 33.33333333 -32.5 33.33333333 -29 33 C-26.66725503 30.66725503 -26.2026179 29.03687196 -25.1953125 25.9140625 C-24.85886719 24.90085938 -24.52242188 23.88765625 -24.17578125 22.84375 C-23.47831592 20.70727626 -22.78556227 18.56925831 -22.09765625 16.4296875 C-21.75863281 15.41390625 -21.41960937 14.398125 -21.0703125 13.3515625 C-20.76883301 12.42166504 -20.46735352 11.49176758 -20.15673828 10.53369141 C-18.33015006 6.53277698 -16.09729157 4.47721137 -12.08984375 2.734375 C-11.04957031 2.40953125 -10.00929688 2.0846875 -8.9375 1.75 C-7.89464844 1.41484375 -6.85179687 1.0796875 -5.77734375 0.734375 C-3 0 -3 0 0 0 Z " fill="#AC80DC" transform="translate(421,132)"/>
<path d="M0 0 C7.98872126 2.22636494 12.08817372 7.89864636 16.125 14.875 C21.53340323 24.69106439 22.8125 31.47308897 22.8125 43.0625 C8.9525 43.0625 -4.9075 43.0625 -19.1875 43.0625 C-19.1875 34.60976416 -18.67475429 29.69506144 -16.1875 22.0625 C-15.89746094 21.13050781 -15.60742188 20.19851562 -15.30859375 19.23828125 C-8.95435855 0.17557566 -8.95435855 0.17557566 0 0 Z " fill="#595454" transform="translate(113.1875,34.9375)"/>
<path d="M0 0 C8.42784643 6.74227715 11.20155966 15.96688211 14 26 C14.4125 27.216875 14.825 28.43375 15.25 29.6875 C16 33 16 33 16 43 C2.14 43 -11.72 43 -26 43 C-26 26.80709876 -21.69682671 15.73362484 -10.9296875 3.77734375 C-7.59334544 0.70439712 -4.56056581 -0.77863319 0 0 Z " fill="#595454" transform="translate(402,35)"/>
<path d="M0 0 C4.64481342 2.32240671 6.39269428 10.24668734 8 15 C8.93376481 20.56139336 8.75666026 24.51277121 6.1875 29.5625 C3.86702234 32.1481751 2.19150537 33.80814744 -1.3046875 34.37109375 C-8.28881062 34.55153462 -8.28881062 34.55153462 -12.0625 31.625 C-14.73953279 27.99805235 -15.11951722 26.32234319 -15.0625 21.875 C-15.05347656 20.96492188 -15.04445313 20.05484375 -15.03515625 19.1171875 C-15.02355469 18.41851562 -15.01195312 17.71984375 -15 17 C-13.700625 16.5359375 -13.700625 16.5359375 -12.375 16.0625 C-7.76359682 13.24442028 -5.71659224 9.575735 -3 5 C-2.38125 3.989375 -1.7625 2.97875 -1.125 1.9375 C-0.75375 1.298125 -0.3825 0.65875 0 0 Z " fill="#EBE3E0" transform="translate(276,161)"/>
<path d="M0 0 C2.57967935 3.07577153 4.79879178 6.23733039 6.9375 9.625 C9.23183748 13.21835582 9.23183748 13.21835582 12.875 15.375 C15 17 15 17 15.44921875 19.4375 C15.62809047 24.07582886 15.54447011 27.09254982 13.125 31.125 C9.37302783 34.43556368 6.35171345 34.3875099 1.484375 34.359375 C-1 34 -1 34 -4.0625 31.625 C-7.79998406 26.56131191 -7.78671754 22.17215666 -7 16 C-3.26605827 3.26605827 -3.26605827 3.26605827 0 0 Z " fill="#EDE4E1" transform="translate(235,161)"/>
<path d="M0 0 C-10.33634272 8.80418572 -27.52944899 22 -42 22 C-42.16833528 16.86577398 -41.96067313 12.22792083 -40.9921875 7.17578125 C-40.80769043 6.20165283 -40.62319336 5.22752441 -40.43310547 4.22387695 C-40.29018066 3.48999756 -40.14725586 2.75611816 -40 2 C-39.27522461 1.98018066 -38.55044922 1.96036133 -37.80371094 1.93994141 C-34.45216966 1.84343664 -31.10114824 1.73427657 -27.75 1.625 C-26.61046875 1.5940625 -25.4709375 1.563125 -24.296875 1.53125 C-17.49705138 1.29943783 -11.01441413 0.64157026 -4.33691406 -0.68212891 C-2 -1 -2 -1 0 0 Z " fill="#9B9595" transform="translate(191,214)"/>
<path d="M0 0 C3.6578218 2.03993908 5.66946174 3.50419262 8 7 C8.47364652 11.81540624 8.49199653 14.05114955 6.25 18.375 C3.24700894 21.87848957 1.6545508 22.78418903 -2.875 23.375 C-6.84487514 22.89861498 -8.89536536 21.46959574 -12 19 C-14.68468038 14.97297943 -14.68187737 11.7315637 -14 7 C-10.56417713 1.2327259 -6.66321886 -0.79958626 0 0 Z " fill="#494045" transform="translate(434,85)"/>
<path d="M0 0 C3.6578218 2.03993908 5.66946174 3.50419262 8 7 C8.72517392 11.50282411 8.60000036 14.99285654 6.25 18.9375 C3.14683856 21.78206465 1.31026074 22.82909642 -2.875 23.375 C-7.43500643 22.82779923 -10.53459148 20.86506539 -13.375 17.25 C-14.33387734 13.79804156 -14.5738278 10.51994371 -14 7 C-10.50204098 1.25335305 -6.69562884 -0.80347546 0 0 Z " fill="#494045" transform="translate(84,85)"/>
<path d="M0 0 C-2.41254324 2.41254324 -4.11314179 2.74147551 -7.375 3.6875 C-19.84656726 7.76531555 -28.79959039 14.97903101 -38 24 C-40.27474277 20.58788584 -40.56629644 18.3431471 -41.125 14.3125 C-41.29257813 13.13300781 -41.46015625 11.95351563 -41.6328125 10.73828125 C-41.75398437 9.83464844 -41.87515625 8.93101563 -42 8 C-36.38529253 5.76687771 -30.9043099 4.13445177 -25 2.875 C-24.24460938 2.70613281 -23.48921875 2.53726563 -22.7109375 2.36328125 C-15.11882121 0.70658233 -7.77731782 -0.13888068 0 0 Z " fill="#E0D8D1" transform="translate(246,43)"/>
<path d="M0 0 C8.58804498 2.51915986 14.61259591 5.71115917 20 13 C20 13.66 20 14.32 20 15 C6.47593583 11.60695187 6.47593583 11.60695187 3 9 C1.63543997 6.07817489 0.74845632 3.13169882 0 0 Z " fill="#AE81D9" transform="translate(400,99)"/>
<path d="M0 0 C5.27002208 4.39168507 10.35302051 8.9426379 15 14 C15 14.33 15 14.66 15 15 C11.04 15 7.08 15 3 15 C0 4.5 0 4.5 0 0 Z " fill="#FED839" transform="translate(425,63)"/>
<path d="M0 0 C1.87723804 5.22145679 -0.47888994 9.8890702 -2 15 C-5.96 15 -9.92 15 -14 15 C-9.59156563 9.70987876 -4.92440206 4.81191572 0 0 Z " fill="#FED83A" transform="translate(86,63)"/>
<path d="M0 0 C0.33 0 0.66 0 1 0 C1.66 5.61 2.32 11.22 3 17 C-4.875 17 -4.875 17 -9 16 C-8.59007812 15.45730469 -8.18015625 14.91460937 -7.7578125 14.35546875 C-7.21898437 13.64003906 -6.68015625 12.92460938 -6.125 12.1875 C-5.59132812 11.47980469 -5.05765625 10.77210937 -4.5078125 10.04296875 C-1.98883649 6.62995203 -0.67732457 4.17683484 0 0 Z " fill="#9D9394" transform="translate(206,64)"/>
<path d="M0 0 C0.66 0.33 1.32 0.66 2 1 C-1.3 4.3 -4.6 7.6 -8 11 C-8 7.0234755 -6.61988497 5.9109833 -4 3 C-1.75 1.1875 -1.75 1.1875 0 0 Z " fill="#908A8A" transform="translate(114,12)"/>
</svg>
