<?xml version="1.0" encoding="UTF-8"?>
<svg version="1.1" xmlns="http://www.w3.org/2000/svg" width="227" height="222">
<path d="M0 0 C74.91 0 149.82 0 227 0 C227 73.26 227 146.52 227 222 C152.09 222 77.18 222 0 222 C0 148.74 0 75.48 0 0 Z " fill="#470137" transform="translate(0,0)"/>
<path d="M0 0 C7.26 0 14.52 0 22 0 C22 33.99 22 67.98 22 103 C8.05420835 109.97289583 -11.28004117 112.38387069 -26.375 107.4375 C-35.95396082 102.9973334 -43.2916465 96.22227601 -47.03125 86.25 C-50.3613863 74.65619215 -50.55349198 62.88207619 -45 52 C-38.77395119 41.4592426 -29.60015031 34.64755064 -18 31 C-11.84728211 29.51930108 -6.65983378 30 0 30 C0 20.1 0 10.2 0 0 Z " fill="#FA5FF2" transform="translate(172,49)"/>
<path d="M0 0 C7.92 0 15.84 0 24 0 C25.835625 3.361875 27.67125 6.72375 29.5625 10.1875 C30.45666626 11.82307861 30.45666626 11.82307861 31.36889648 13.49169922 C33.69775548 17.75578591 36.02288929 22.02044509 38.28515625 26.3203125 C39.19587891 28.04894531 39.19587891 28.04894531 40.125 29.8125 C40.90230469 31.30716797 40.90230469 31.30716797 41.6953125 32.83203125 C42.81497281 35.13071898 42.81497281 35.13071898 45 36 C45.40424194 34.69687866 45.40424194 34.69687866 45.81665039 33.36743164 C46.96473222 30.10036073 48.32929249 27.1864058 49.93359375 24.12109375 C50.7834082 22.49204102 50.7834082 22.49204102 51.65039062 20.83007812 C52.24013672 19.71052734 52.82988281 18.59097656 53.4375 17.4375 C54.02337891 16.31408203 54.60925781 15.19066406 55.21289062 14.03320312 C56.79369223 11.01335171 58.37384765 7.9956829 60 5 C60.45294434 4.06655762 60.90588867 3.13311523 61.37255859 2.17138672 C63 0 63 0 65.36010742 -0.56762695 C66.26607666 -0.54144287 67.1720459 -0.51525879 68.10546875 -0.48828125 C69.57983398 -0.46411133 69.57983398 -0.46411133 71.08398438 -0.43945312 C72.10814453 -0.39755859 73.13230469 -0.35566406 74.1875 -0.3125 C75.74114258 -0.27866211 75.74114258 -0.27866211 77.32617188 -0.24414062 C79.88556404 -0.18516846 82.44205951 -0.10292567 85 0 C84.41936175 4.19996592 82.99385811 7.03325906 80.75390625 10.61328125 C80.08536621 11.68940674 79.41682617 12.76553223 78.72802734 13.87426758 C78.37391785 14.43626862 78.01980835 14.99826965 77.65496826 15.57730103 C76.55557147 17.32350478 75.46726166 19.07619573 74.38134766 20.83081055 C71.19923216 25.96073815 67.9817922 31.06272396 64.64453125 36.09375 C64.16878662 36.82037842 63.69304199 37.54700684 63.20288086 38.2956543 C62.34095682 39.60478364 61.46361465 40.90393852 60.56860352 42.19067383 C59.26548083 44.0845149 59.26548083 44.0845149 58 47 C59.07495889 50.45324852 60.74413861 53.46074866 62.58203125 56.5625 C63.09604492 57.43213379 63.61005859 58.30176758 64.13964844 59.19775391 C64.69168945 60.12249512 65.24373047 61.04723633 65.8125 62 C66.66569824 63.43931885 66.66569824 63.43931885 67.53613281 64.90771484 C72.2212097 72.77828421 77.03470124 80.56703972 81.94848633 88.296875 C82.46564209 89.11929688 82.98279785 89.94171875 83.515625 90.7890625 C84.20060059 91.86728271 84.20060059 91.86728271 84.89941406 92.96728516 C85.99161071 94.9845055 86.55514688 96.75872161 87 99 C82.93846834 99.23272688 78.87864757 99.37454311 74.8125 99.5 C73.66201172 99.56703125 72.51152344 99.6340625 71.32617188 99.703125 C63.08104017 99.89431646 63.08104017 99.89431646 60.30102539 97.59448242 C58.93582713 95.46508035 57.98180582 93.33124718 57 91 C55.99667003 89.11520064 54.98161297 87.23661304 53.95703125 85.36328125 C52.90546977 83.34811661 51.85734467 81.33115541 50.8125 79.3125 C50.27947266 78.29349609 49.74644531 77.27449219 49.19726562 76.22460938 C46.93267042 71.86918035 44.76225449 67.58680981 43 63 C42.34 63 41.68 63 41 63 C40.90251465 63.52400391 40.8050293 64.04800781 40.70458984 64.58789062 C39.76089977 67.81854134 38.27216894 70.60395595 36.7265625 73.59375 C36.23994644 74.53655823 36.23994644 74.53655823 35.74349976 75.49841309 C35.05794186 76.82406229 34.37028332 78.14862699 33.68066406 79.47216797 C32.63012818 81.49014925 31.58805478 83.51233486 30.546875 85.53515625 C29.87810759 86.82578182 29.20885276 88.11615496 28.5390625 89.40625 C27.93271973 90.57478516 27.32637695 91.74332031 26.70166016 92.94726562 C23.74151004 98.25769848 23.74151004 98.25769848 22 100 C19.5480957 100.45410156 19.5480957 100.45410156 16.67578125 100.390625 C15.64775391 100.37773437 14.61972656 100.36484375 13.56054688 100.3515625 C12.48869141 100.31804687 11.41683594 100.28453125 10.3125 100.25 C9.22904297 100.23195313 8.14558594 100.21390625 7.02929688 100.1953125 C4.35197854 100.14813508 1.67643091 100.08232249 -1 100 C0.43253418 96.13259986 2.23795045 92.71111877 4.34375 89.16796875 C5.00898682 88.04672607 5.67422363 86.9254834 6.35961914 85.77026367 C6.70960968 85.18457611 7.05960022 84.59888855 7.42019653 83.99545288 C8.50779222 82.17445322 9.58913877 80.34985234 10.66967773 78.5246582 C13.80003513 73.25201233 16.95372157 68.00427081 20.31640625 62.875 C20.78820312 62.15159424 21.26 61.42818848 21.74609375 60.68286133 C22.5965638 59.39374936 23.46157315 58.11406048 24.34375 56.84643555 C26.14862798 54.11296658 27.03459012 52.48501545 26.79833984 49.17236328 C25.91839809 45.67573847 24.62204857 43.18533848 22.75390625 40.10546875 C22.08552734 38.99228271 21.41714844 37.87909668 20.72851562 36.73217773 C20.00656314 35.55058627 19.28455697 34.36902761 18.5625 33.1875 C17.83295283 31.97726511 17.10444188 30.76640499 16.37695312 29.55493164 C14.93166671 27.15045443 13.48204492 24.74869838 12.02783203 22.34960938 C9.32931312 17.89214736 6.65645979 13.42012006 4 8.9375 C3.58564697 8.24873779 3.17129395 7.55997559 2.74438477 6.8503418 C0 2.22768454 0 2.22768454 0 0 Z " fill="#FC60F4" transform="translate(34,57)"/>
<path d="M0 0 C0 14.19 0 28.38 0 43 C-16.89189189 43 -16.89189189 43 -23.375 36.6875 C-27.50286623 29.86064431 -27.66610266 22.81851642 -27 15 C-25.24580952 9.18924405 -20.85121214 5.44738152 -16 2 C-11 0 -11 0 0 0 Z " fill="#460136" transform="translate(172,97)"/>
<path d="M0 0 C0.33 0 0.66 0 1 0 C1 11.88 1 23.76 1 36 C-10.88 36 -22.76 36 -35 36 C-35 35.67 -35 35.34 -35 35 C-33.89205078 34.79697266 -33.89205078 34.79697266 -32.76171875 34.58984375 C-21.76807843 32.25701283 -13.04392817 27.68778036 -6.43359375 18.3984375 C-3.01096358 12.6722933 -0.70128218 6.66218075 0 0 Z " fill="#FAF9FA" transform="translate(226,186)"/>
<path d="M0 0 C0.33 0 0.66 0 1 0 C1.13535156 0.73863281 1.27070313 1.47726563 1.41015625 2.23828125 C3.75794778 13.30242459 8.34081127 21.91136173 17.66015625 28.5703125 C20.65540476 30.40046434 23.70305662 31.86589347 26.95703125 33.17578125 C29.01899921 34.00766507 31.01128332 35.00564166 33 36 C22.11 36 11.22 36 0 36 C0 24.12 0 12.24 0 0 Z " fill="#FBFBFB" transform="translate(0,186)"/>
<path d="M0 0 C11.88 0 23.76 0 36 0 C36 11.22 36 22.44 36 34 C35.67 34 35.34 34 35 34 C34.85304687 33.39414062 34.70609375 32.78828125 34.5546875 32.1640625 C31.80435537 21.88983329 27.07903023 12.9467648 18 7 C12.1323486 4.02757133 6.52849109 1.91050172 0 1 C0 0.67 0 0.34 0 0 Z " fill="#FBFAFB" transform="translate(191,0)"/>
<path d="M0 0 C11.22 0 22.44 0 34 0 C34 0.33 34 0.66 34 1 C33.09121094 1.22042969 33.09121094 1.22042969 32.1640625 1.4453125 C21.81183165 4.21652506 13.0852133 8.95734206 7 18 C4.199959 23.17825764 1.98637471 28.17619187 1 34 C0.67 34 0.34 34 0 34 C0 22.78 0 11.56 0 0 Z " fill="#FCFBFC" transform="translate(0,0)"/>
</svg>
