<?xml version="1.0" encoding="UTF-8"?>
<svg version="1.1" xmlns="http://www.w3.org/2000/svg" width="227" height="222">
<path d="M0 0 C74.91 0 149.82 0 227 0 C227 73.26 227 146.52 227 222 C152.09 222 77.18 222 0 222 C0 148.74 0 75.48 0 0 Z " fill="#330000" transform="translate(0,0)"/>
<path d="M0 0 C8.58 0 17.16 0 26 0 C31.46751988 13.77614628 36.4372741 27.67101754 41.25 41.6875 C42.74162048 46.01627089 44.2357619 50.34416897 45.73046875 54.671875 C46.2783329 56.25934792 46.2783329 56.25934792 46.83726501 57.87889099 C49.04550665 64.26851108 51.27933976 70.64819966 53.55078125 77.015625 C53.81388092 77.75323563 54.07698059 78.49084625 54.34805298 79.25080872 C55.54410103 82.59907157 56.74545572 85.94535476 57.95214844 89.28979492 C58.36110352 90.43037354 58.77005859 91.57095215 59.19140625 92.74609375 C59.54404541 93.72247803 59.89668457 94.6988623 60.26000977 95.70483398 C61 98 61 98 61 100 C53.41 100 45.82 100 38 100 C36.845 96.57625 35.69 93.1525 34.5 89.625 C34.13455078 88.54686035 33.76910156 87.4687207 33.39257812 86.35791016 C32.9662207 85.08633057 32.9662207 85.08633057 32.53125 83.7890625 C32.23798828 82.91975098 31.94472656 82.05043945 31.64257812 81.15478516 C31 79 31 79 31 77 C19.12 77 7.24 77 -5 77 C-5.66 79.97 -6.32 82.94 -7 86 C-7.65744148 88.34198023 -8.34193709 90.67666408 -9.0625 93 C-9.40410156 94.11375 -9.74570313 95.2275 -10.09765625 96.375 C-11 99 -11 99 -12 100 C-13.4887186 100.08669432 -14.981445 100.10703494 -16.47265625 100.09765625 C-17.37177734 100.09443359 -18.27089844 100.09121094 -19.19726562 100.08789062 C-20.61555664 100.07532227 -20.61555664 100.07532227 -22.0625 100.0625 C-23.01189453 100.05798828 -23.96128906 100.05347656 -24.93945312 100.04882812 C-27.29303065 100.0370011 -29.64648477 100.02052025 -32 100 C-31.4026797 92.93321163 -28.95662565 86.54628944 -26.625 79.88671875 C-26.17661232 78.59156582 -25.72878886 77.29621744 -25.28149414 76.00068665 C-24.10029017 72.58435643 -22.911541 69.17069961 -21.72113037 65.75756836 C-20.54529977 62.38224288 -19.37643218 59.00451035 -18.20703125 55.62695312 C-14.60221566 45.22249651 -10.99384672 34.8194289 -7.33984375 24.43212891 C-6.92355713 23.24343704 -6.50727051 22.05474518 -6.07836914 20.83003235 C-5.29904315 18.60513293 -4.51591925 16.38155869 -3.72827148 14.15959167 C-3.38223877 13.16953629 -3.03620605 12.1794809 -2.6796875 11.15942383 C-2.37788574 10.30326981 -2.07608398 9.44711578 -1.76513672 8.5650177 C-0.7835481 5.46855509 -0.7835481 5.46855509 0 0 Z " fill="#FB9700" transform="translate(79,56)"/>
<path d="M0 0 C6.93 0 13.86 0 21 0 C21 25.08 21 50.16 21 76 C14.4 76 7.8 76 1 76 C-0.66165207 74.33834793 -0.11959725 72.3348397 -0.12442017 70.11598206 C-0.12082489 69.41827194 -0.11722961 68.72056183 -0.11352539 68.00170898 C-0.11367142 67.27004517 -0.11381744 66.53838135 -0.1139679 65.7845459 C-0.11326867 63.35503216 -0.10547585 60.92559417 -0.09765625 58.49609375 C-0.0957921 56.81600486 -0.09436819 55.13591543 -0.09336853 53.45582581 C-0.08954307 49.02526357 -0.07971256 44.5947339 -0.06866455 40.16418457 C-0.05845103 35.64657024 -0.05387104 31.12895066 -0.04882812 26.61132812 C-0.03809031 17.74086877 -0.02049329 8.87044219 0 0 Z " fill="#FD9900" transform="translate(150,81)"/>
<path d="M0 0 C4.16636339 1.75913121 6.24086879 3.83363661 8 8 C8.54333853 12.89004676 8.52109104 14.99503871 6.25 19.375 C2.8538211 23.33720871 1.34221819 23.87010792 -3.875 24.375 C-8.18785966 24.26235068 -10.70279071 22.82617939 -14 20 C-16.29968534 17.07312775 -16.52999194 13.78906984 -16.4609375 10.1015625 C-15.60803882 6.21292275 -12.90176501 3.59354645 -10 1 C-6.80401935 -0.59799033 -3.47677244 -0.36773555 0 0 Z " fill="#F99600" transform="translate(165,49)"/>
<path d="M0 0 C0.66 0 1.32 0 2 0 C3.24615226 4.0015504 4.49122939 8.00343332 5.73535156 12.00561523 C6.15791442 13.36442901 6.58076067 14.72315469 7.00390625 16.08178711 C7.6153465 18.04517367 8.22573523 20.00888463 8.8359375 21.97265625 C9.20251465 23.15093994 9.5690918 24.32922363 9.94677734 25.54321289 C11.00508978 29.01670518 12.00244927 32.50857243 13 36 C5.41 36 -2.18 36 -10 36 C-9.2720402 30.90428141 -8.45492805 26.79378608 -6.93359375 21.97265625 C-6.73524429 21.33887558 -6.53689484 20.70509491 -6.33253479 20.05210876 C-5.70591823 18.05393813 -5.07185639 16.05822526 -4.4375 14.0625 C-4.00796626 12.697422 -3.57892522 11.33218886 -3.15039062 9.96679688 C-2.10594441 6.64272049 -1.05481346 3.32080321 0 0 Z " fill="#330300" transform="translate(91,77)"/>
<path d="M0 0 C0.33 0 0.66 0 1 0 C1.13535156 0.73863281 1.27070313 1.47726563 1.41015625 2.23828125 C3.96142783 14.26133953 8.93923355 22.50537116 19.21875 29.41015625 C24.51424932 32.43721836 29.99420825 34.03132391 36 35 C36 35.33 36 35.66 36 36 C24.12 36 12.24 36 0 36 C0 24.12 0 12.24 0 0 Z " fill="#FAF9F9" transform="translate(0,186)"/>
<path d="M0 0 C0.33 0 0.66 0 1 0 C1 11.22 1 22.44 1 34 C-10.22 34 -21.44 34 -33 34 C-30.17014557 32.11343038 -28.07634677 31.32033139 -24.875 30.3125 C-14.33231985 26.50155757 -8.0086663 19.9630381 -3 10 C-1.7664411 6.70758301 -0.78055884 3.42702502 0 0 Z " fill="#FAFAFA" transform="translate(226,188)"/>
<path d="M0 0 C11.88 0 23.76 0 36 0 C36 11.22 36 22.44 36 34 C35.67 34 35.34 34 35 34 C34.85304687 33.39414062 34.70609375 32.78828125 34.5546875 32.1640625 C31.80435537 21.88983329 27.07903023 12.9467648 18 7 C12.1323486 4.02757133 6.52849109 1.91050172 0 1 C0 0.67 0 0.34 0 0 Z " fill="#FBFAFA" transform="translate(191,0)"/>
<path d="M0 0 C12.21 0 24.42 0 37 0 C37 0.33 37 0.66 37 1 C36.39414062 1.08636719 35.78828125 1.17273438 35.1640625 1.26171875 C24.58881109 3.03510706 14.81831357 7.44300252 8.34375 16.25390625 C4.7453345 21.88965994 2.57226879 27.51783919 1 34 C0.67 34 0.34 34 0 34 C0 22.78 0 11.56 0 0 Z " fill="#FAFAFA" transform="translate(0,0)"/>
<path d="M0 0 C0 3 0 3 -1.75 5.04296875 C-2.4925 5.75066406 -3.235 6.45835938 -4 7.1875 C-4.7425 7.90292969 -5.485 8.61835938 -6.25 9.35546875 C-7.11625 10.16951172 -7.11625 10.16951172 -8 11 C-8.66 10.67 -9.32 10.34 -10 10 C-8.90033225 8.70450101 -7.79508199 7.41373929 -6.6875 6.125 C-6.07261719 5.40570312 -5.45773438 4.68640625 -4.82421875 3.9453125 C-3 2 -3 2 0 0 Z " fill="#351010" transform="translate(17,7)"/>
</svg>
