<?xml version="1.0" encoding="UTF-8"?>
<svg version="1.1" xmlns="http://www.w3.org/2000/svg" width="290" height="174">
<path d="M0 0 C95.7 0 191.4 0 290 0 C290 57.42 290 114.84 290 174 C194.3 174 98.6 174 0 174 C0 116.58 0 59.16 0 0 Z " fill="#FDFDFC" transform="translate(0,0)"/>
<path d="M0 0 C5.67618203 0.50374991 9.6933776 2.77551965 14.5625 5.5 C41.56183963 20.11991414 70.45773635 29.20654055 100.6875 34.3125 C101.62996582 34.47186035 102.57243164 34.6312207 103.54345703 34.79541016 C116.46836885 36.85386407 129.34076972 37.18650174 142.39916992 37.18530273 C145.03385915 37.18747637 147.66811941 37.20566593 150.30273438 37.22460938 C166.23681274 37.27858541 182.0943135 36.26432871 197.6875 32.8125 C198.67387451 32.59964355 199.66024902 32.38678711 200.67651367 32.16748047 C216.79182158 28.59251189 232.7334877 24.25927392 248.07739258 18.13330078 C255.02074787 15.40311218 255.02074787 15.40311218 259 16 C261 18 261 18 261.0078125 20.3359375 C259.59974601 24.05803574 257.11374236 25.5711531 253.875 27.625 C253.21902832 28.04885986 252.56305664 28.47271973 251.88720703 28.90942383 C229.48995908 42.91729823 204.754838 50.92808756 179 56 C177.78957031 56.2477417 177.78957031 56.2477417 176.5546875 56.50048828 C125.50603033 66.68284214 69.0882194 53.27335379 26.0859375 24.72949219 C18.04894025 19.26921006 10.34797434 13.35957425 3 7 C2.40574219 6.50371094 1.81148438 6.00742188 1.19921875 5.49609375 C0 4 0 4 0 0 Z " fill="#FF9903" transform="translate(2,114)"/>
<path d="M0 0 C4.95 0 9.9 0 15 0 C17.97935465 7.79651006 20.2756058 15.51690477 22.19921875 23.6328125 C22.61999443 25.37049393 22.61999443 25.37049393 23.04927063 27.14328003 C23.93462835 30.80244967 24.8116909 34.46353424 25.6875 38.125 C26.57500082 41.82191983 27.46432411 45.51837176 28.35786438 49.21383667 C28.91140995 51.50437629 29.46130704 53.79580122 30.00724792 56.08816528 C30.37817314 57.62644485 30.37817314 57.62644485 30.7565918 59.19580078 C30.97324997 60.10194122 31.18990814 61.00808167 31.41313171 61.94168091 C31.81238538 63.97442641 31.81238538 63.97442641 33 65 C33.1451001 64.3287207 33.2902002 63.65744141 33.43969727 62.96582031 C37.08397601 46.17402872 41.01448711 29.48662467 45.28320312 12.84228516 C45.73142561 11.06496696 46.16490307 9.28378963 46.57617188 7.49755859 C47.79960013 2.20039987 47.79960013 2.20039987 50 0 C53.15234375 -0.3359375 53.15234375 -0.3359375 56.9375 -0.375 C58.18402344 -0.40335937 59.43054688 -0.43171875 60.71484375 -0.4609375 C64 -0 64 -0 65.60449219 1.63330078 C67.30066459 4.50990947 67.91809141 7.06066258 68.61328125 10.328125 C68.88897949 11.59213135 69.16467773 12.8561377 69.44873047 14.15844727 C69.58970154 14.82627228 69.73067261 15.49409729 69.87591553 16.18215942 C70.61479128 19.68177372 71.3852176 23.17445857 72.15234375 26.66796875 C72.30588318 27.37118759 72.45942261 28.07440643 72.61761475 28.79893494 C74.28930288 36.41164785 76.19090529 43.96323086 78.1340332 51.51074219 C79.28091983 55.99297457 80.3435904 60.41276548 81 65 C85.12967096 53.26304044 88.19854546 41.20420053 91.25390625 29.15234375 C91.45308655 28.36883545 91.65226685 27.58532715 91.85748291 26.77807617 C92.8718776 22.78639492 93.87983241 18.79327327 94.87744141 14.79736328 C95.25530942 13.30365414 95.63339274 11.80999945 96.01171875 10.31640625 C96.18240372 9.62336899 96.35308868 8.93033173 96.52894592 8.21629333 C97.34900251 5.0024356 98.13705708 2.79441438 100 0 C102.62697064 -0.22137393 105.00893964 -0.28162025 107.625 -0.1875 C108.33140625 -0.17396484 109.0378125 -0.16042969 109.765625 -0.14648438 C111.51074128 -0.1111104 113.25546608 -0.05730221 115 0 C114.42283985 4.67473682 113.52535781 8.98788391 112.11401367 13.47924805 C111.72658493 14.72131516 111.33915619 15.96338226 110.93998718 17.24308777 C110.51612524 18.58267707 110.09211532 19.92221955 109.66796875 21.26171875 C109.23013303 22.65772363 108.79274784 24.05386988 108.35578918 25.45014954 C107.20647279 29.11802797 106.0504918 32.78377358 104.89324951 36.44915771 C103.95878739 39.41288074 103.02913169 42.37810029 102.09974194 45.34341717 C100.97835221 48.92088579 99.85467991 52.49763589 98.73046875 56.07421875 C98.52118429 56.7403034 98.31189983 57.40638805 98.09627342 58.09265709 C96.01952172 64.69593518 93.9225516 71.29239297 91.7668457 77.87036133 C91.29140068 79.3215612 91.29140068 79.3215612 90.80635071 80.80207825 C90 83 90 83 89 84 C86.52437918 84.18020629 84.1030672 84.27795445 81.625 84.3125 C80.93921875 84.34150391 80.2534375 84.37050781 79.546875 84.40039062 C77.5390625 84.42578125 77.5390625 84.42578125 74 84 C70.98282224 80.95872846 70.2676936 77.82427657 69.38671875 73.70703125 C69.11102051 72.44802002 68.83532227 71.18900879 68.55126953 69.8918457 C68.26333927 68.5320653 67.97541624 67.17228337 67.6875 65.8125 C67.2321162 63.71756819 66.77293521 61.62349281 66.31341553 59.52946472 C66.00198846 58.1097903 65.69165125 56.68987638 65.38238525 55.26972961 C63.88892099 48.42835274 62.27368087 41.61807173 60.625 34.8125 C60.37451904 33.77520752 60.12403809 32.73791504 59.8659668 31.66918945 C58.92359708 27.77613725 57.97527802 23.88495033 57 20 C56.1642056 23.31188347 55.33170976 26.6245885 54.5 29.9375 C54.23662842 30.98478271 53.97325684 32.03206543 53.7019043 33.11108398 C52.06989434 39.63017999 50.47863741 46.15699199 48.92578125 52.6953125 C48.57169511 54.17978809 48.21752853 55.66424449 47.86328125 57.14868164 C47.33967489 59.3432172 46.818205 61.53814187 46.30371094 63.73483276 C45.818728 65.80505623 45.32603331 67.87331924 44.83203125 69.94140625 C44.55077393 71.13451416 44.2695166 72.32762207 43.97973633 73.55688477 C42.932436 77.23744209 41.57681072 80.51879092 40 84 C37.56065775 84.13501894 35.12875896 84.23403897 32.6875 84.3125 C31.99720703 84.35439453 31.30691406 84.39628906 30.59570312 84.43945312 C28.57421875 84.48828125 28.57421875 84.48828125 25 84 C22.39300136 80.51045483 21.19043693 76.87485877 19.984375 72.72265625 C19.62384033 71.49796631 19.26330566 70.27327637 18.8918457 69.01147461 C18.70562653 68.36741669 18.51940735 67.72335876 18.32754517 67.05978394 C17.34543063 63.66340614 16.34130756 60.27352497 15.33984375 56.8828125 C15.0407032 55.86667122 15.0407032 55.86667122 14.73551941 54.83000183 C13.01519184 49.00335611 11.18380509 43.21704568 9.3125 37.4375 C6.97222197 30.15098707 4.71055833 22.84565522 2.5625 15.5 C2.30315674 14.6330249 2.04381348 13.7660498 1.77661133 12.87280273 C1.54224365 12.05884033 1.30787598 11.24487793 1.06640625 10.40625 C0.85959229 9.69791016 0.65277832 8.98957031 0.43969727 8.25976562 C0 6 0 6 0 0 Z " fill="#242F3E" transform="translate(92,4)"/>
<path d="M0 0 C9.513786 -0.38153605 19.16561342 1.62258219 26.8046875 7.63671875 C31.82127663 12.96099201 34.37901182 19.47139327 34.41137695 26.70947266 C34.42192863 28.04203598 34.42192863 28.04203598 34.43269348 29.40151978 C34.43685776 30.35569794 34.44102203 31.3098761 34.4453125 32.29296875 C34.4685219 34.33073937 34.49263968 36.36849981 34.51757812 38.40625 C34.55258002 41.60537426 34.58197951 44.80412617 34.59545898 48.00341797 C34.61104697 51.10039068 34.65133413 54.19628525 34.6953125 57.29296875 C34.69340408 58.23500153 34.69149567 59.1770343 34.68952942 60.14761353 C34.79776623 66.10252209 35.88811099 70.53604202 38.51237488 75.89877319 C39.44907611 78.73505945 39.15289109 80.36573554 38.26953125 83.19140625 C35.92991813 85.50368744 33.30990392 86.95679572 30.26953125 88.19140625 C27.58203125 88.00390625 27.58203125 88.00390625 25.26953125 86.19140625 C23.39637492 83.63004608 21.79043718 80.9743405 20.26953125 78.19140625 C19.81964844 78.56652344 19.36976562 78.94164063 18.90625 79.328125 C10.45635606 86.05078611 2.93413836 89.6227831 -7.91796875 89.75390625 C-8.6661084 89.76856934 -9.41424805 89.78323242 -10.18505859 89.79833984 C-17.08262945 89.67204415 -22.17969815 87.27840037 -27.48046875 82.94140625 C-33.37724141 75.73423967 -34.60173075 69.28606671 -34.171875 60.046875 C-33.35251887 52.89019798 -30.58558334 48.44566841 -25.10546875 43.87890625 C-14.19252965 36.5968521 -2.45826652 35.66709027 10.18359375 37.875 C13.2404621 38.57095369 16.25708956 39.32481344 19.26953125 40.19140625 C19.08510628 27.87306224 19.08510628 27.87306224 13.51953125 17.31640625 C3.75010712 12.43169419 -6.07174457 13.33988093 -16.16796875 16.69140625 C-16.84206787 16.92931885 -17.51616699 17.16723145 -18.21069336 17.41235352 C-21.84999983 18.68913558 -24.86313198 19.48946689 -28.73046875 19.19140625 C-28.86623625 17.61046908 -28.9628162 16.02613673 -29.04296875 14.44140625 C-29.12998047 13.11882813 -29.12998047 13.11882813 -29.21875 11.76953125 C-28.73046875 9.19140625 -28.73046875 9.19140625 -26.60546875 7 C-18.67442713 2.01077137 -9.17688023 0.64330062 0 0 Z " fill="#252F3E" transform="translate(47.73046875,0.80859375)"/>
<path d="M0 0 C0.66 0 1.32 0 2 0 C2.64775391 1.09634766 2.64775391 1.09634766 3.30859375 2.21484375 C15.47187863 22.24353225 48.99120145 35.94684511 70 44 C70.72912598 44.27972656 71.45825195 44.55945313 72.20947266 44.84765625 C89.76157693 51.43715629 108.39234878 55.00206309 127 57 C125 59 125 59 122.80173302 59.24609566 C121.88178362 59.24425207 120.96183422 59.24240849 120.01400757 59.24050903 C118.95948898 59.24325836 117.9049704 59.24600769 116.8184967 59.24884033 C115.65684494 59.24164978 114.49519318 59.23445923 113.29833984 59.22705078 C111.46910728 59.22748886 111.46910728 59.22748886 109.60292053 59.22793579 C106.25387612 59.22677908 102.90507661 59.21673108 99.55607557 59.20278788 C96.05803107 59.19030698 92.5599835 59.18911211 89.06192017 59.18673706 C82.43562769 59.1805145 75.80940101 59.16409324 69.18313754 59.14403808 C60.90075014 59.11951324 52.61835212 59.10854765 44.3359375 59.09765625 C29.55724038 59.07816214 14.77868688 59.03810031 0 59 C0 39.53 0 20.06 0 0 Z " fill="#FFFEFD" transform="translate(0,115)"/>
<path d="M0 0 C2 2 2 2 2.1953125 4.1640625 C2.17210937 4.97617188 2.14890625 5.78828125 2.125 6.625 C2.10695313 7.44226562 2.08890625 8.25953125 2.0703125 9.1015625 C2.04710937 9.72804688 2.02390625 10.35453125 2 11 C-1.81733037 12.44858122 -4.07797713 11.45766137 -7.8125 10.0625 C-15.96075501 7.41385729 -25.21880308 5.97826891 -33.31640625 9.40234375 C-36.03698711 10.87307797 -36.03698711 10.87307797 -38 13 C-38.4332151 15.29657708 -38.4332151 15.29657708 -38.4375 17.875 C-38.47746094 18.73867188 -38.51742187 19.60234375 -38.55859375 20.4921875 C-37.75188021 24.1139364 -36.0733968 25.0224455 -33 27 C-30.0159219 28.42863009 -30.0159219 28.42863009 -26.8125 29.5625 C-25.66910156 29.98660156 -24.52570313 30.41070312 -23.34765625 30.84765625 C-20.4961554 31.82921138 -17.65477442 32.69539112 -14.75 33.5 C-5.95923594 36.05861263 0.21261145 39.96426772 5.10546875 47.76171875 C7.33428815 53.33863368 6.83144694 60.70052383 5.3828125 66.44921875 C2.15968787 73.70837997 -4.05249583 78.42381097 -11.25 81.375 C-12.82135353 81.95049572 -14.40449832 82.49530049 -16 83 C-16.60328125 83.19335938 -17.2065625 83.38671875 -17.828125 83.5859375 C-29.65221237 85.84016998 -44.51933613 84.44728325 -54.640625 77.671875 C-57.02569059 74.73851847 -56.57701547 71.62956424 -56.28125 68.01171875 C-56.1884375 67.34785156 -56.095625 66.68398437 -56 66 C-52.23121766 64.77924224 -50.473833 65.52466856 -46.88671875 67.1640625 C-40.96759751 69.78661311 -35.34185318 70.21654092 -28.9375 70.3125 C-28.26468994 70.33014404 -27.59187988 70.34778809 -26.89868164 70.3659668 C-20.75136889 70.35769721 -16.07367224 68.96733007 -11.5625 64.6875 C-9.682544 61.45397568 -9.52942578 59.68616474 -10 56 C-11.64837136 51.79824951 -13.67849083 50.78901315 -17.6328125 48.95996094 C-22.71117715 46.90054161 -27.97134283 45.37235061 -33.22265625 43.8203125 C-41.32950404 41.27143459 -48.2678853 37.28017646 -53 30 C-55.7323522 24.398678 -55.89871734 18.08783309 -55 12 C-52.58332223 6.54428931 -48.96872554 2.31248369 -44 -1 C-43.21625 -1.53625 -42.4325 -2.0725 -41.625 -2.625 C-29.18231145 -9.14259876 -11.78118864 -7.39211836 0 0 Z " fill="#25303F" transform="translate(270,7)"/>
<path d="M0 0 C2.67583812 2.67583812 2.32978061 4.07285617 2.375 7.8125 C2.11906993 21.5122859 -3.68146421 36.90191215 -13.25 46.875 C-16.51882845 50 -16.51882845 50 -20 50 C-19.31246144 42.92125794 -16.90554084 36.63770775 -14.43945312 30.00195312 C-12.26390924 23.82665154 -11.56402933 18.53603707 -12 12 C-22.94163068 5.74763961 -38.8311158 9.22737243 -51 10 C-50.89453125 8.2265625 -50.89453125 8.2265625 -50 6 C-35.66162562 -3.6952774 -16.23408716 -6.44632241 0 0 Z " fill="#FF9904" transform="translate(286,111)"/>
<path d="M0 0 C0.91974609 0.00966797 1.83949219 0.01933594 2.78710938 0.02929688 C7.43078959 0.10607951 11.87221651 0.37817409 16.4375 1.3125 C16.76092553 7.93673401 17.0219434 13.48777947 13.4375 19.3125 C7.45411816 25.77138239 2.28858713 28.29937752 -6.5 28.8125 C-11.85060028 28.73929527 -14.57176483 27.64643611 -18.35546875 23.91796875 C-21.36148443 19.91967604 -20.99406809 15.06789174 -20.5625 10.3125 C-19.05358559 5.60823741 -17.03879572 3.49819004 -12.71362305 1.13061523 C-8.5799401 -0.44150729 -4.3621877 -0.13814106 0 0 Z " fill="#FBFBFB" transform="translate(50.5625,49.6875)"/>
</svg>
