<?xml version="1.0" encoding="UTF-8"?>
<svg version="1.1" xmlns="http://www.w3.org/2000/svg" width="225" height="225">
<path d="M0 0 C74.25 0 148.5 0 225 0 C225 74.25 225 148.5 225 225 C150.75 225 76.5 225 0 225 C0 150.75 0 76.5 0 0 Z " fill="#FDFEFE" transform="translate(0,0)"/>
<path d="M0 0 C2.81784037 2.5083512 4.45723723 5.29922938 6.30078125 8.57421875 C6.94088135 9.70424316 7.58098145 10.83426758 8.24047852 11.99853516 C8.57782013 12.59917786 8.91516174 13.19982056 9.26272583 13.81866455 C11.05593474 17.01098198 12.86525434 20.19416646 14.671875 23.37890625 C15.03801407 24.02543152 15.40415314 24.67195679 15.78138733 25.33807373 C19.15857254 31.29631803 22.60055967 37.2156201 26.0625 43.125 C32.79289113 54.6282502 39.45656105 66.16924004 46.10888672 77.71777344 C49.23680148 83.14659942 52.36858448 88.57319281 55.5 94 C56.75001879 96.16665583 58.00001878 98.3333225 59.25 100.5 C60.178125 102.10875 60.178125 102.10875 61.125 103.75 C63 107 64.875 110.25 66.75 113.5 C67.67993774 115.11165039 67.67993774 115.11165039 68.62866211 116.75585938 C69.86701979 118.90266914 71.1048213 121.04979984 72.34204102 123.19726562 C75.28347196 128.30118224 78.23073772 133.40148134 81.19747925 138.49072266 C82.60697037 140.90938314 84.01332765 143.32985862 85.41943359 145.75048828 C86.41978682 147.46956052 87.42469734 149.1859782 88.4296875 150.90234375 C89.02910156 151.93488281 89.62851563 152.96742188 90.24609375 154.03125 C90.77904053 154.94455078 91.3119873 155.85785156 91.86108398 156.79882812 C93 159 93 159 93 161 C38.22 161 -16.56 161 -73 161 C-69.33627563 158.55751708 -65.87912101 158.08831028 -61.625 157.37890625 C-60.78646484 157.23347885 -59.94792969 157.08805145 -59.08398438 156.93821716 C-56.39042646 156.47294105 -53.69526972 156.01774293 -51 155.5625 C-49.24728775 155.26039202 -47.49468232 154.95766361 -45.7421875 154.65429688 C-36.30766672 153.02916307 -26.8631853 151.47693554 -17.40161133 150.01722717 C-10.58774284 148.96027434 -3.82471092 147.68157079 2.94824219 146.38818359 C6.71188717 145.67611844 10.48002906 144.99017507 14.25 144.3125 C14.96559082 144.18101562 15.68118164 144.04953125 16.41845703 143.9140625 C19.69520872 143.32901252 22.65547896 143 26 143 C21.41180138 136.89317225 16.53544681 131.07432693 11.54589844 125.29638672 C8.47763667 121.73838684 5.46019862 118.14911758 2.5 114.5 C-0.93207994 110.27207543 -4.44550121 106.12471241 -8 102 C-12.4459458 96.84014263 -16.83105406 91.64557287 -21.07421875 86.31640625 C-22.8923815 84.03254715 -22.8923815 84.03254715 -24.76953125 82.33984375 C-26.25 80.9375 -26.25 80.9375 -28 78 C-27.65472412 75.92224121 -27.65472412 75.92224121 -26.85839844 73.52148438 C-26.56703003 72.63025879 -26.27566162 71.7390332 -25.97546387 70.82080078 C-25.65356079 69.88993652 -25.33165771 68.95907227 -25 68 C-24.69453247 67.10909668 -24.38906494 66.21819336 -24.07434082 65.30029297 C-23.07355573 62.43273003 -22.0481356 59.57503774 -21.015625 56.71875 C-20.63694275 55.66578735 -20.2582605 54.61282471 -19.86810303 53.5279541 C-19.06928663 51.30886013 -18.2691555 49.09023903 -17.46777344 46.87207031 C-16.26387806 43.53842898 -15.06521866 40.20294011 -13.8671875 36.8671875 C-9.41759966 24.50768117 -4.8428361 12.21100535 0 0 Z " fill="#0189D6" transform="translate(131,38)"/>
<path d="M0 0 C0.495 0.99 0.495 0.99 1 2 C-0.06031788 4.59713565 -1.18825121 7.07723132 -2.41796875 9.59375 C-2.78632843 10.36373322 -3.15468811 11.13371643 -3.53421021 11.92703247 C-4.32963293 13.58755196 -5.12864618 15.2463552 -5.93081665 16.90362549 C-7.6166424 20.38663098 -9.28558597 23.87762784 -10.95542908 27.36831665 C-11.79345648 29.11969931 -12.63237692 30.87065494 -13.47218323 32.6211853 C-16.81575361 39.59396206 -20.08824464 46.59613445 -23.3125 53.625 C-24.01693237 55.15785645 -24.01693237 55.15785645 -24.7355957 56.72167969 C-25.67673876 58.76971597 -26.61757756 60.81789209 -27.55810547 62.86621094 C-36.05876894 81.34140841 -44.6805856 99.7611397 -53.28591919 118.18777466 C-56.12593835 124.26917211 -58.96430571 130.35133991 -61.80249023 136.43359375 C-64.534875 142.28911779 -67.26745665 148.14454996 -70 154 C-87.16 154 -104.32 154 -122 154 C-112.91103679 136.95819398 -112.91103679 136.95819398 -109.4375 131.1875 C-105.17174715 124.01185499 -100.9793949 116.79598503 -96.8125 109.5625 C-96.17932861 108.46405762 -95.54615723 107.36561523 -94.89379883 106.23388672 C-91.59941368 100.5170014 -88.30870693 94.79800877 -85.01953125 89.078125 C-82.47828088 84.65924677 -79.9283239 80.24558536 -77.37109375 75.8359375 C-75.35378651 72.35704887 -73.36147768 68.86783592 -71.41015625 65.3515625 C-66.98814434 57.48737336 -62.16012838 51.61345412 -55 46 C-53.2489811 44.5637413 -51.49901127 43.12620282 -49.75 41.6875 C-48.83734375 40.94886719 -47.9246875 40.21023437 -46.984375 39.44921875 C-43.61238637 36.681893 -40.30334554 33.8485306 -37 31 C-32.01845015 26.70674371 -26.97380748 22.50767461 -21.8671875 18.36328125 C-17.81283366 15.02147733 -13.83283028 11.59526053 -9.85742188 8.16015625 C-6.62355095 5.37014996 -3.35499439 2.64504239 0 0 Z " fill="#0189D6" transform="translate(122,26)"/>
<path d="M0 0 C0.33 0.99 0.66 1.98 1 3 C-3.29 3 -7.58 3 -12 3 C-8.17936061 0.45290708 -4.56711438 0 0 0 Z " fill="#138AD6" transform="translate(70,196)"/>
</svg>
