<?xml version="1.0" encoding="UTF-8"?>
<svg version="1.1" xmlns="http://www.w3.org/2000/svg" width="227" height="222">
<path d="M0 0 C74.91 0 149.82 0 227 0 C227 73.26 227 146.52 227 222 C152.09 222 77.18 222 0 222 C0 148.74 0 75.48 0 0 Z " fill="#001D35" transform="translate(0,0)"/>
<path d="M0 0 C1.15886719 -0.01224609 2.31773438 -0.02449219 3.51171875 -0.03710938 C16.5119172 -0.05914361 29.80907978 1.76201477 39.67578125 10.98828125 C46.67962784 19.43189073 49.08337012 28.51340354 48.5 39.1875 C47.67518065 47.15173929 44.39191533 54.36113272 38.64453125 60.01171875 C31.5783832 65.61104166 23.36118933 69.33785575 14.296875 69.28515625 C13.41354492 69.28265869 12.53021484 69.28016113 11.62011719 69.27758789 C10.50797852 69.26848389 9.39583984 69.25937988 8.25 69.25 C4.7025 69.229375 1.155 69.20875 -2.5 69.1875 C-2.5 79.7475 -2.5 90.3075 -2.5 101.1875 C-9.43 101.1875 -16.36 101.1875 -23.5 101.1875 C-23.5 68.1875 -23.5 35.1875 -23.5 1.1875 C-15.5315457 0.39065457 -7.96654208 0.00443078 0 0 Z " fill="#30A6FC" transform="translate(74.5,55.8125)"/>
<path d="M0 0 C2 2 2 2 2.22705078 3.87939453 C2.21657715 4.62302246 2.20610352 5.36665039 2.1953125 6.1328125 C2.18886719 6.93847656 2.18242187 7.74414062 2.17578125 8.57421875 C2.15902344 9.41597656 2.14226562 10.25773437 2.125 11.125 C2.11597656 11.97449219 2.10695312 12.82398437 2.09765625 13.69921875 C2.07405647 15.79959884 2.03818483 17.89983444 2 20 C-1.48382103 19.35577457 -4.80154539 18.47279188 -8.1875 17.4375 C-15.12309554 15.5187455 -21.98917086 15.13044556 -29 17 C-28.14906138 20.60397534 -27.68947347 22.51489814 -24.6015625 24.6875 C-23.61929688 25.120625 -22.63703125 25.55375 -21.625 26 C-20.55121094 26.49757813 -19.47742188 26.99515625 -18.37109375 27.5078125 C-17.25863281 28.00023438 -16.14617187 28.49265625 -15 29 C-5.96333016 33.01873774 0.33672924 36.78836697 5.4375 45.4375 C7.2550305 53.71736116 5.70920679 60.51938876 1.375 67.6875 C-6.21956245 75.08220554 -15.80176865 77.39172286 -26.125 77.375 C-26.95233643 77.37628906 -27.77967285 77.37757813 -28.63208008 77.37890625 C-36.08411256 77.25185426 -41.98698571 75.64019361 -49 73 C-49 66.4 -49 59.8 -49 53 C-46.55859375 54.00911458 -44.1171875 55.01822917 -41.67578125 56.02734375 C-36.3813366 57.9518937 -31.40766498 58.15538099 -25.8125 58.125 C-25.08869141 58.12886719 -24.36488281 58.13273437 -23.61914062 58.13671875 C-19.68083498 58.20454326 -19.68083498 58.20454326 -16 57 C-16 55.35 -16 53.7 -16 52 C-16.75023437 51.62488281 -17.50046875 51.24976563 -18.2734375 50.86328125 C-20.41562728 49.79218636 -22.55615123 48.71775562 -24.6953125 47.640625 C-26.6983898 46.64618946 -28.71168078 45.67153195 -30.7421875 44.734375 C-37.74705854 41.46107077 -43.41272617 37.55750152 -48 31.25 C-50.01468915 24.70226026 -50.01234356 17.26143882 -47.23046875 10.9140625 C-43.47383016 5.07040247 -37.58540706 0.234244 -30.84375 -1.60546875 C-21.1406454 -2.95164123 -9.3122222 -3.36736606 0 0 Z " fill="#30A6FB" transform="translate(182,82)"/>
<path d="M0 0 C20.5210084 0 20.5210084 0 25.6171875 4.39453125 C29.1930966 8.38459931 29.8692174 11.2344349 30.25 16.375 C29.89339378 21.54579015 28.40512432 24.59487568 24.75 28.25 C16.72085696 33.35945466 9.61686112 32 0 32 C0 21.44 0 10.88 0 0 Z " fill="#001D35" transform="translate(72,75)"/>
<path d="M0 0 C0.33 0 0.66 0 1 0 C1 11.88 1 23.76 1 36 C-10.88 36 -22.76 36 -35 36 C-35 35.67 -35 35.34 -35 35 C-34.24976563 34.85304687 -33.49953125 34.70609375 -32.7265625 34.5546875 C-21.65402422 32.12821186 -12.36713939 27.72082349 -6 18 C-3.02757133 12.1323486 -0.91050172 6.52849109 0 0 Z " fill="#F9FAFA" transform="translate(226,186)"/>
<path d="M0 0 C11.88 0 23.76 0 36 0 C36 12.21 36 24.42 36 37 C35.67 37 35.34 37 35 37 C34.91363281 36.39414062 34.82726562 35.78828125 34.73828125 35.1640625 C32.95792466 24.54725713 28.53323755 14.95544315 19.81640625 8.34375 C13.57434603 4.26893309 7.27335707 2.42467819 0 1 C0 0.67 0 0.34 0 0 Z " fill="#F9F9FA" transform="translate(191,0)"/>
<path d="M0 0 C11.22 0 22.44 0 34 0 C34 0.33 34 0.66 34 1 C33.09121094 1.22042969 33.09121094 1.22042969 32.1640625 1.4453125 C20.83000322 4.47935298 12.31376181 9.64122986 6.33984375 19.83203125 C3.26591773 25.6092681 1.25221181 30.44249294 1 37 C0.67 37 0.34 37 0 37 C0 24.79 0 12.58 0 0 Z " fill="#FAFAFB" transform="translate(0,0)"/>
<path d="M0 0 C0.33 0 0.66 0 1 0 C1.14695313 0.75023437 1.29390625 1.50046875 1.4453125 2.2734375 C3.8919958 13.43818775 8.31722529 22.48402318 18 29 C23.17825764 31.800041 28.17619187 34.01362529 34 35 C34 35.33 34 35.66 34 36 C22.78 36 11.56 36 0 36 C0 24.12 0 12.24 0 0 Z " fill="#FBFBFB" transform="translate(0,186)"/>
</svg>
